<svg width="220" height="174" xmlns="http://www.w3.org/2000/svg"><g fill="#C7C7D6" fill-rule="evenodd"><path d="M2.626 138.248a1.63 1.63 0 0 1-2.21-.658 1.635 1.635 0 0 1 .658-2.215 1.626 1.626 0 0 1 2.209.661 1.622 1.622 0 0 1-.657 2.212M8.343 148.043a1.631 1.631 0 1 1-1.552-2.872 1.63 1.63 0 0 1 2.21.662c.43.794.135 1.783-.658 2.21M14.055 158.656a1.636 1.636 0 0 1-2.214-.66 1.637 1.637 0 0 1 .662-2.21 1.628 1.628 0 0 1 2.212.657 1.628 1.628 0 0 1-.66 2.213M20.08 167.18c.245.247.362.498.367.727a86.189 86.189 0 0 1-2.96-1.572c.896-.103 2.007.242 2.592.845M5.896 123.556a1.628 1.628 0 0 1-2.21-.661 1.629 1.629 0 0 1 .656-2.216 1.638 1.638 0 0 1 2.213.664c.428.794.13 1.78-.66 2.213M11.606 133.354a1.633 1.633 0 0 1-2.21-.668 1.629 1.629 0 0 1 .661-2.209 1.63 1.63 0 0 1 2.209.66 1.633 1.633 0 0 1-.66 2.217M18.135 143.147a1.631 1.631 0 0 1-2.208-.658 1.64 1.64 0 0 1 .659-2.22 1.637 1.637 0 0 1 2.211.665 1.628 1.628 0 0 1-.662 2.213M22.22 154.579a1.633 1.633 0 1 1-1.55-2.879 1.633 1.633 0 0 1 1.55 2.879M28.75 164.368a1.632 1.632 0 0 1-2.214-.657 1.635 1.635 0 0 1 2.878-1.55c.426.79.129 1.783-.663 2.207M32.736 171.94c.739-.232 1.74.055 2.222.64.398.478.33 1-.109 1.304a44.874 44.874 0 0 1-2.772-.805c-.185-.484.06-.953.66-1.138M9.16 107.228a1.634 1.634 0 1 1-1.554-2.875 1.634 1.634 0 0 1 1.553 2.875M15.69 117.84a1.631 1.631 0 0 1-2.212-.658 1.637 1.637 0 0 1 .658-2.217 1.637 1.637 0 0 1 2.215.665c.426.792.133 1.78-.66 2.21M19.77 128.452a1.633 1.633 0 1 1-1.552-2.874 1.633 1.633 0 0 1 2.21.66 1.627 1.627 0 0 1-.657 2.214M26.3 139.067a1.634 1.634 0 0 1-1.549-2.878 1.638 1.638 0 0 1 2.212.661 1.636 1.636 0 0 1-.663 2.217M32.02 148.864a1.636 1.636 0 0 1-1.553-2.879 1.638 1.638 0 0 1 2.21.662 1.644 1.644 0 0 1-.657 2.217M36.916 159.473a1.633 1.633 0 1 1-1.555-2.871 1.633 1.633 0 0 1 1.555 2.87M43.445 170.085a1.629 1.629 0 0 1-2.21-.661 1.633 1.633 0 0 1 .656-2.214 1.63 1.63 0 0 1 2.21.664 1.626 1.626 0 0 1-.656 2.211M18.952 103.144a1.623 1.623 0 0 1-2.208-.66 1.631 1.631 0 1 1 2.871-1.548c.43.794.132 1.78-.663 2.208M23.85 112.942a1.63 1.63 0 1 1-1.547-2.87 1.623 1.623 0 0 1 2.209.659c.431.795.134 1.78-.662 2.211M30.38 123.558a1.634 1.634 0 0 1-1.55-2.88 1.633 1.633 0 0 1 2.212.667 1.63 1.63 0 0 1-.662 2.213M36.096 134.982a1.632 1.632 0 1 1-1.548-2.87 1.632 1.632 0 0 1 1.548 2.87M40.995 144.774a1.628 1.628 0 0 1-2.213-.654 1.637 1.637 0 0 1 .662-2.215 1.628 1.628 0 0 1 2.21.666 1.62 1.62 0 0 1-.659 2.203M46.712 154.576a1.634 1.634 0 1 1-1.555-2.874 1.634 1.634 0 0 1 1.555 2.874M50.794 165.186a1.63 1.63 0 0 1-2.213-.659 1.629 1.629 0 0 1 .66-2.212 1.635 1.635 0 0 1 2.214.66c.424.795.13 1.785-.661 2.211M56.502 172.894c.817-.183 1.896.074 2.566.596-.58.07-1.14.148-1.75.218-.552.06-1.112.089-1.654.133-.075-.426.217-.8.838-.947M27.118 98.248a1.638 1.638 0 0 1-2.215-.656 1.639 1.639 0 0 1 .662-2.215 1.634 1.634 0 0 1 2.215.658 1.634 1.634 0 0 1-.662 2.213M33.646 108.861a1.635 1.635 0 0 1-2.21-.658 1.639 1.639 0 0 1 .662-2.217 1.628 1.628 0 0 1 2.208.665c.434.793.136 1.78-.66 2.21M38.546 118.656a1.634 1.634 0 0 1-1.553-2.873 1.632 1.632 0 1 1 1.553 2.873M45.08 129.269a1.633 1.633 0 1 1-1.554-2.873 1.633 1.633 0 0 1 1.553 2.873M49.159 139.881a1.633 1.633 0 1 1-1.553-2.87 1.633 1.633 0 0 1 1.553 2.87M54.874 149.678a1.63 1.63 0 0 1-2.21-.661 1.63 1.63 0 1 1 2.867-1.552 1.63 1.63 0 0 1-.657 2.213M60.59 159.472a1.628 1.628 0 0 1-2.212-.661 1.63 1.63 0 1 1 2.869-1.55 1.63 1.63 0 0 1-.657 2.211M65.596 167.277a1.731 1.731 0 0 1 2.526 1.038 61.654 61.654 0 0 1-3.133 1.661c-.047-.068-.096-.135-.133-.209a1.879 1.879 0 0 1 .74-2.49M36.101 92.534a1.638 1.638 0 0 1-2.215-.655 1.637 1.637 0 0 1 .66-2.219 1.631 1.631 0 0 1 2.21.661 1.633 1.633 0 0 1-.655 2.213M40.996 102.33a1.63 1.63 0 0 1-2.21-.659 1.631 1.631 0 1 1 2.87-1.552c.426.793.136 1.78-.66 2.21M47.527 113.76a1.627 1.627 0 0 1-2.211-.669 1.622 1.622 0 0 1 .656-2.203 1.628 1.628 0 0 1 2.214.66c.43.794.132 1.783-.66 2.212M53.24 124.37a1.632 1.632 0 1 1 .658-2.21 1.624 1.624 0 0 1-.658 2.21M58.136 134.17a1.635 1.635 0 0 1-1.553-2.877 1.64 1.64 0 0 1 2.217.658c.429.798.13 1.789-.664 2.219M64.669 145.594a1.634 1.634 0 0 1-2.212-.654 1.639 1.639 0 0 1 .659-2.218 1.636 1.636 0 0 1 2.214.662 1.63 1.63 0 0 1-.661 2.21M71.2 156.209a1.633 1.633 0 0 1-1.551-2.875 1.63 1.63 0 0 1 2.206.657c.436.8.137 1.79-.656 2.218M73.53 161.75c.494-.461 1.006-.427 1.321.003a47.48 47.48 0 0 1-2.09 2.623c-.194-.868.143-2.032.77-2.626M45.076 88.45a1.624 1.624 0 0 1-2.211-.66 1.633 1.633 0 0 1 2.874-1.55 1.628 1.628 0 0 1-.663 2.21M49.975 99.064a1.63 1.63 0 0 1-2.211-.658 1.63 1.63 0 1 1 2.87-1.551c.428.79.138 1.783-.66 2.21M55.692 109.678a1.632 1.632 0 0 1-2.213-.664 1.628 1.628 0 0 1 .658-2.21 1.64 1.64 0 0 1 2.215.656c.425.8.131 1.79-.66 2.218M61.406 119.474a1.635 1.635 0 0 1-1.553-2.877 1.629 1.629 0 0 1 2.208.666 1.63 1.63 0 0 1-.655 2.211M67.935 130.089a1.641 1.641 0 0 1-2.215-.665 1.638 1.638 0 0 1 .662-2.213 1.637 1.637 0 0 1 2.215.665 1.64 1.64 0 0 1-.662 2.213M73.651 139.884a1.633 1.633 0 1 1-1.555-2.877 1.633 1.633 0 0 1 1.555 2.877M78.548 150.493a1.646 1.646 0 0 1-2.22-.657 1.64 1.64 0 0 1 .665-2.21 1.628 1.628 0 0 1 2.214.654 1.634 1.634 0 0 1-.66 2.213M54.056 82.742a1.64 1.64 0 0 1-2.212-.662 1.642 1.642 0 0 1 .661-2.219 1.632 1.632 0 0 1 2.208.665 1.63 1.63 0 0 1-.657 2.216M60.588 93.351a1.634 1.634 0 0 1-1.554-2.872 1.633 1.633 0 1 1 1.554 2.873M65.486 103.963a1.635 1.635 0 0 1-1.55-2.878 1.635 1.635 0 0 1 1.55 2.878M72.017 114.576a1.63 1.63 0 0 1-2.211-.662 1.632 1.632 0 1 1 2.87-1.553 1.634 1.634 0 0 1-.66 2.215M76.916 125.187a1.629 1.629 0 0 1-2.211-.661 1.631 1.631 0 1 1 2.868-1.55 1.63 1.63 0 0 1-.657 2.211M81.815 135.8a1.645 1.645 0 0 1-2.22-.657 1.643 1.643 0 0 1 .667-2.216 1.63 1.63 0 0 1 2.21.66c.43.795.131 1.785-.657 2.212M86.858 144.322c-.257-.75.035-1.748.646-2.228.41-.324.858-.323 1.19-.067-.338.949-.668 1.96-1.022 3.023-.35-.037-.661-.284-.814-.728M63.037 77.841a1.635 1.635 0 0 1-1.553-2.876 1.635 1.635 0 0 1 1.553 2.876M67.934 90.086a1.633 1.633 0 1 1-1.55-2.874 1.633 1.633 0 0 1 1.55 2.874M74.467 99.064a1.633 1.633 0 1 1-1.554-2.872 1.63 1.63 0 0 1 2.21.66c.431.795.135 1.785-.656 2.212M79.362 110.497a1.636 1.636 0 0 1-1.553-2.878 1.636 1.636 0 0 1 1.553 2.878M85.076 120.286a1.63 1.63 0 0 1-2.212-.654 1.64 1.64 0 0 1 .658-2.216 1.633 1.633 0 0 1 1.554 2.87M90.793 130.085a1.633 1.633 0 0 1-2.215-.662 1.639 1.639 0 0 1 .66-2.214 1.635 1.635 0 0 1 1.555 2.876M71.2 73.76c-.791.428-1.78.133-2.21-.662a1.626 1.626 0 0 1 .657-2.21 1.63 1.63 0 0 1 2.213.657c.433.79.13 1.785-.66 2.214M77.731 85.188a1.63 1.63 0 0 1-2.21-.661 1.63 1.63 0 0 1 .657-2.213 1.638 1.638 0 0 1 2.215.66c.426.796.13 1.785-.662 2.214M83.443 94.986a1.64 1.64 0 0 1-2.213-.662 1.643 1.643 0 0 1 .66-2.216 1.636 1.636 0 0 1 1.553 2.878M88.343 105.595a1.634 1.634 0 0 1-1.555-2.873 1.634 1.634 0 0 1 1.555 2.873M94.874 116.208a1.631 1.631 0 1 1-1.554-2.87 1.624 1.624 0 0 1 2.211.657 1.63 1.63 0 0 1-.657 2.213M99.773 126.005a1.64 1.64 0 0 1-2.218-.663 1.635 1.635 0 0 1 .663-2.209 1.626 1.626 0 0 1 2.212.66c.431.789.135 1.78-.657 2.212M105.208 133.508c-.336.022-.67.048-.998.084l.037-.025c.31-.166.656-.176.96-.06M80.18 68.86a1.634 1.634 0 0 1-1.553-2.875 1.633 1.633 0 0 1 1.553 2.875M86.712 79.474a1.637 1.637 0 0 1-2.215-.66 1.632 1.632 0 1 1 2.872-1.553 1.633 1.633 0 0 1-.657 2.213M92.428 89.268a1.632 1.632 0 0 1-2.216-.663 1.629 1.629 0 0 1 .663-2.209 1.627 1.627 0 0 1 2.207.66 1.63 1.63 0 0 1-.654 2.212M98.139 100.698a1.63 1.63 0 0 1-2.212-.664 1.632 1.632 0 0 1 .657-2.21 1.634 1.634 0 0 1 1.555 2.874M103.855 110.494a1.644 1.644 0 0 1-2.22-.661 1.64 1.64 0 0 1 .665-2.211 1.633 1.633 0 0 1 1.554 2.872M107.936 121.102a1.635 1.635 0 0 1-2.217-.655 1.642 1.642 0 0 1 .662-2.215 1.63 1.63 0 0 1 2.214.667c.427.788.133 1.78-.66 2.203M114.463 131.717a1.627 1.627 0 0 1-2.21-.661 1.627 1.627 0 0 1 .661-2.21 1.63 1.63 0 1 1 1.55 2.87M84.806 53.554c.592.831.286 1.826-.68 2.21-.844.337-1.91.091-2.565-.526.556-.862 1.124-1.73 1.688-2.618.62.11 1.207.438 1.557.934M89.976 64.78a1.635 1.635 0 0 1-1.555-2.874 1.637 1.637 0 0 1 2.215.66 1.636 1.636 0 0 1-.66 2.214M96.509 75.392a1.634 1.634 0 0 1-1.553-2.874 1.632 1.632 0 0 1 2.21.66 1.635 1.635 0 0 1-.657 2.214M99.772 85.188a1.637 1.637 0 0 1-2.214-.66 1.635 1.635 0 0 1 .662-2.214 1.629 1.629 0 0 1 2.21.661 1.63 1.63 0 0 1-.658 2.213M107.12 96.618a1.633 1.633 0 0 1-2.212-.664 1.63 1.63 0 0 1 .659-2.212 1.636 1.636 0 0 1 2.211.659c.431.794.131 1.788-.658 2.217M112.02 105.595a1.631 1.631 0 1 1-1.556-2.87 1.633 1.633 0 0 1 1.556 2.87M116.917 116.205a1.628 1.628 0 0 1-2.213-.657 1.63 1.63 0 0 1 .66-2.214 1.636 1.636 0 0 1 2.212.66c.426.797.13 1.786-.66 2.21M123.443 127.637a1.63 1.63 0 0 1-2.21-.661 1.635 1.635 0 0 1 .657-2.214 1.634 1.634 0 0 1 1.553 2.875M129.174 135.383c-.55-.05-1.101-.1-1.649-.156.069-.062.142-.122.225-.17a1.071 1.071 0 0 1 1.424.326M93.243 50.086a1.635 1.635 0 0 1-2.215-.662 1.63 1.63 0 0 1 .659-2.21 1.632 1.632 0 1 1 1.556 2.872M98.138 59.064c-.79.43-1.783.133-2.214-.654a1.64 1.64 0 0 1 .664-2.218 1.63 1.63 0 0 1 2.21.663c.43.792.134 1.781-.66 2.21M104.667 70.495a1.632 1.632 0 0 1-1.553-2.87 1.632 1.632 0 1 1 1.553 2.87M110.384 80.293a1.644 1.644 0 0 1-2.216-.663 1.643 1.643 0 0 1 .662-2.216 1.637 1.637 0 0 1 2.214.662c.43.794.13 1.786-.66 2.217M115.28 90.904a1.637 1.637 0 0 1-2.213-.662 1.635 1.635 0 0 1 .66-2.212 1.628 1.628 0 0 1 2.213.66 1.63 1.63 0 0 1-.66 2.214M120.993 100.698a1.628 1.628 0 0 1-2.208-.66 1.63 1.63 0 0 1 .659-2.212 1.629 1.629 0 0 1 2.21.658c.43.798.136 1.787-.661 2.214M126.71 111.31c-.791.43-1.784.132-2.211-.661a1.633 1.633 0 1 1 2.211.661M132.426 121.922a1.628 1.628 0 0 1-2.21-.66 1.63 1.63 0 0 1 .657-2.215 1.635 1.635 0 0 1 1.553 2.875M138.14 131.717a1.64 1.64 0 0 1-2.217-.656 1.643 1.643 0 0 1 .663-2.217 1.633 1.633 0 1 1 1.554 2.873M97.126 31.533c.489.803.186 1.798-.668 2.21-.86.411-1.956.094-2.438-.722-.05-.07-.076-.146-.108-.223a73.804 73.804 0 0 1 1.544-2.16c.657-.011 1.322.31 1.67.895M102.224 44.372a1.635 1.635 0 0 1-1.555-2.874 1.635 1.635 0 0 1 1.555 2.874M107.116 54.985a1.634 1.634 0 0 1-1.548-2.878 1.636 1.636 0 0 1 2.21.663c.43.793.134 1.784-.662 2.215M112.833 64.777a1.629 1.629 0 0 1-2.213-.66 1.637 1.637 0 0 1 .66-2.215 1.635 1.635 0 0 1 2.212.666 1.627 1.627 0 0 1-.659 2.21M118.548 75.39a1.627 1.627 0 0 1-2.211-.66 1.628 1.628 0 0 1 .656-2.21c.796-.43 1.79-.132 2.214.656a1.634 1.634 0 0 1-.66 2.214M124.262 86.821a1.633 1.633 0 1 1-1.553-2.873 1.636 1.636 0 0 1 2.214.655c.428.796.13 1.79-.66 2.218M130.787 95.8a1.63 1.63 0 0 1-2.208-.66 1.635 1.635 0 0 1 .66-2.213 1.625 1.625 0 0 1 2.209.663 1.62 1.62 0 0 1-.66 2.21M135.69 108.045a1.632 1.632 0 1 1-1.552-2.876 1.632 1.632 0 0 1 1.552 2.876M140.59 117.023a1.631 1.631 0 0 1-2.215-.662 1.63 1.63 0 1 1 2.872-1.547 1.63 1.63 0 0 1-.656 2.21M146.3 127.636a1.627 1.627 0 0 1-2.21-.665 1.625 1.625 0 0 1 .66-2.205 1.63 1.63 0 1 1 1.55 2.87M152.08 136.017c-.58.06-1.158.11-1.73.15.097-.158.221-.29.388-.39a1.041 1.041 0 0 1 1.342.24M104.673 28.858c-.8.431-1.789.135-2.218-.655a1.64 1.64 0 0 1 .66-2.216 1.638 1.638 0 0 1 2.216.662 1.634 1.634 0 0 1-.658 2.21M111.2 40.285a1.629 1.629 0 0 1-2.215-.656 1.638 1.638 0 0 1 .663-2.214 1.635 1.635 0 0 1 2.212.662c.43.793.134 1.78-.66 2.208M116.915 50.087a1.632 1.632 0 0 1-2.214-.669 1.633 1.633 0 0 1 .664-2.21 1.643 1.643 0 0 1 2.21.66c.428.794.133 1.79-.66 2.22M122.629 60.7a1.636 1.636 0 0 1-1.55-2.879 1.64 1.64 0 0 1 2.21.661 1.64 1.64 0 0 1-.66 2.218M127.528 70.496a1.629 1.629 0 0 1-2.212-.669 1.623 1.623 0 0 1 .66-2.207 1.633 1.633 0 0 1 1.552 2.876M133.244 81.107a1.64 1.64 0 0 1-2.218-.663 1.631 1.631 0 0 1 .664-2.21 1.63 1.63 0 0 1 2.211.66 1.638 1.638 0 0 1-.657 2.213M138.953 91.72a1.632 1.632 0 0 1-1.55-2.876 1.63 1.63 0 0 1 2.21.663c.431.79.136 1.785-.66 2.212M145.484 101.514a1.63 1.63 0 0 1-2.21-.659 1.634 1.634 0 0 1 .658-2.215 1.634 1.634 0 0 1 1.552 2.874M149.57 111.307a1.632 1.632 0 1 1 .655-2.21c.43.794.136 1.787-.656 2.21M155.284 121.919a1.633 1.633 0 1 1-1.554-2.87 1.621 1.621 0 0 1 2.208.666 1.62 1.62 0 0 1-.654 2.204M161.809 133.35a1.633 1.633 0 0 1-1.548-2.875 1.632 1.632 0 0 1 2.21.664 1.627 1.627 0 0 1-.662 2.212M114.462 23.963a1.635 1.635 0 0 1-2.213-.662 1.646 1.646 0 0 1 .663-2.216 1.648 1.648 0 0 1 2.217.663 1.637 1.637 0 0 1-.667 2.215M120.179 34.57a1.624 1.624 0 0 1-2.211-.654 1.633 1.633 0 0 1 .662-2.215 1.624 1.624 0 0 1 2.207.667 1.616 1.616 0 0 1-.658 2.202M125.89 44.375a1.633 1.633 0 0 1-1.55-2.874 1.633 1.633 0 0 1 2.215.654 1.64 1.64 0 0 1-.664 2.22M129.976 54.983a1.635 1.635 0 0 1-1.554-2.875 1.633 1.633 0 0 1 1.554 2.875M137.323 65.596a1.637 1.637 0 0 1-2.215-.662 1.633 1.633 0 1 1 2.215.662M141.404 76.207a1.632 1.632 0 1 1-1.552-2.872 1.632 1.632 0 1 1 1.552 2.872M148.749 86.005c-.79.429-1.78.13-2.21-.661a1.629 1.629 0 0 1 .663-2.212 1.625 1.625 0 0 1 2.21.664 1.63 1.63 0 0 1-.663 2.209M152.831 97.428a1.626 1.626 0 0 1-2.211-.655 1.633 1.633 0 0 1 2.874-1.554c.43.794.13 1.783-.663 2.209M159.364 107.227a1.626 1.626 0 0 1-2.211-.661 1.626 1.626 0 0 1 .656-2.209 1.634 1.634 0 0 1 2.216.658 1.634 1.634 0 0 1-.661 2.212M164.26 117.025a1.63 1.63 0 0 1-2.21-.66 1.625 1.625 0 0 1 .662-2.212 1.628 1.628 0 0 1 2.21.658c.43.795.13 1.785-.662 2.214M171.606 128.454a1.633 1.633 0 0 1-1.553-2.877 1.633 1.633 0 0 1 2.212.664c.434.79.136 1.785-.66 2.213M123.446 20.7a1.644 1.644 0 0 1-2.217-.662 1.631 1.631 0 0 1 .663-2.209 1.63 1.63 0 0 1 2.215.655c.424.8.132 1.784-.66 2.217M129.155 30.493c-.79.43-1.78.133-2.208-.66a1.636 1.636 0 0 1 .657-2.214 1.64 1.64 0 0 1 2.214.657c.431.794.136 1.79-.663 2.217M134.056 40.29a1.634 1.634 0 0 1-1.552-2.877 1.63 1.63 0 0 1 2.21.669c.43.793.137 1.781-.658 2.208M139.77 50.9a1.633 1.633 0 0 1-1.55-2.873 1.633 1.633 0 0 1 1.55 2.873M144.668 59.883a1.637 1.637 0 0 1-2.213-.662 1.637 1.637 0 0 1 .659-2.212 1.628 1.628 0 0 1 2.213.662 1.627 1.627 0 0 1-.66 2.212M151.199 71.31a1.63 1.63 0 0 1-2.21-.659 1.629 1.629 0 0 1 .662-2.214 1.629 1.629 0 0 1 2.21.661 1.63 1.63 0 0 1-.662 2.212M156.912 81.919a1.619 1.619 0 0 1-2.207-.66 1.628 1.628 0 0 1 .656-2.21 1.635 1.635 0 0 1 2.214.661 1.626 1.626 0 0 1-.663 2.209M162.63 91.717a1.64 1.64 0 0 1-2.216-.655 1.634 1.634 0 0 1 .662-2.213 1.625 1.625 0 0 1 2.211.656c.43.797.134 1.786-.657 2.212M167.524 103.147a1.632 1.632 0 1 1-1.55-2.875 1.632 1.632 0 1 1 1.549 2.875M174.055 112.943a1.633 1.633 0 1 1-1.548-2.87 1.633 1.633 0 0 1 1.548 2.87M178.955 123.556a1.634 1.634 0 0 1-1.549-2.877 1.636 1.636 0 0 1 2.211.664c.427.79.13 1.784-.662 2.213M132.425 14.984a1.633 1.633 0 0 1-2.213-.662 1.628 1.628 0 0 1 .661-2.21 1.633 1.633 0 0 1 2.212.655c.429.8.131 1.788-.66 2.217M138.138 25.596a1.63 1.63 0 0 1-2.21-.661 1.628 1.628 0 0 1 .662-2.213 1.63 1.63 0 0 1 2.21.663 1.631 1.631 0 0 1-.662 2.21M143.038 36.209a1.634 1.634 0 0 1-1.554-2.875 1.634 1.634 0 0 1 1.554 2.875M148.753 46.004a1.644 1.644 0 0 1-2.219-.658 1.643 1.643 0 0 1 .666-2.217 1.629 1.629 0 0 1 2.208.663 1.63 1.63 0 0 1-.655 2.212M155.278 56.615c-.789.43-1.78.133-2.21-.654a1.642 1.642 0 0 1 .66-2.219 1.637 1.637 0 0 1 2.216.663 1.63 1.63 0 0 1-.666 2.21M159.36 67.23a1.632 1.632 0 0 1-2.209-.665 1.625 1.625 0 0 1 .66-2.207 1.627 1.627 0 0 1 2.212.657c.43.794.133 1.788-.663 2.216M165.892 77.025c-.794.43-1.78.128-2.207-.66a1.632 1.632 0 1 1 2.208.66M170.789 88.455a1.634 1.634 0 0 1-1.552-2.876 1.634 1.634 0 1 1 1.552 2.876M176.506 97.431a1.632 1.632 0 1 1-1.551-2.87 1.624 1.624 0 0 1 2.207.658 1.626 1.626 0 0 1-.656 2.212M181.402 108.045a1.632 1.632 0 0 1-1.55-2.872 1.63 1.63 0 0 1 2.212.66 1.63 1.63 0 0 1-.662 2.212M187.934 118.657a1.632 1.632 0 1 1-1.55-2.872 1.632 1.632 0 0 1 1.55 2.872M140.589 10.086a1.632 1.632 0 0 1-1.554-2.872 1.625 1.625 0 0 1 2.21.66c.43.795.137 1.784-.656 2.212M146.3 20.696a1.625 1.625 0 0 1-2.209-.66 1.63 1.63 0 0 1 .66-2.212 1.638 1.638 0 0 1 2.211.656c.43.794.135 1.782-.662 2.216M152.017 31.31a1.63 1.63 0 0 1-2.21-.66 1.632 1.632 0 1 1 2.21.661M156.915 41.106a1.633 1.633 0 1 1-1.549-2.874c.789-.43 1.78-.13 2.208.663.43.794.132 1.782-.659 2.211M162.626 51.722a1.633 1.633 0 0 1-2.21-.668 1.63 1.63 0 0 1 .66-2.21 1.635 1.635 0 0 1 2.215.662 1.638 1.638 0 0 1-.665 2.216M169.159 61.515a1.636 1.636 0 0 1-2.214-.662 1.637 1.637 0 0 1 .664-2.215 1.634 1.634 0 0 1 1.55 2.877M174.058 72.126a1.635 1.635 0 0 1-2.215-.66 1.634 1.634 0 1 1 2.214.66M179.771 82.735a1.632 1.632 0 0 1-2.213-.654 1.639 1.639 0 0 1 .66-2.216 1.626 1.626 0 0 1 2.21.666 1.619 1.619 0 0 1-.657 2.204M185.484 93.354a1.634 1.634 0 0 1-1.55-2.877 1.63 1.63 0 0 1 2.21.663c.432.792.135 1.78-.66 2.214M191.201 104.78a1.638 1.638 0 0 1-2.216-.662 1.637 1.637 0 0 1 .662-2.212 1.63 1.63 0 0 1 2.211.661 1.632 1.632 0 0 1-.657 2.214M196.913 113.758a1.627 1.627 0 0 1-2.21-.66 1.631 1.631 0 1 1 2.872-1.553 1.632 1.632 0 0 1-.662 2.213M149.565 6.003a1.626 1.626 0 0 1-2.207-.66 1.628 1.628 0 0 1 .657-2.213 1.634 1.634 0 0 1 2.213.662 1.63 1.63 0 0 1-.663 2.211M155.281 16.616a1.634 1.634 0 0 1-1.552-2.875 1.634 1.634 0 0 1 1.552 2.875M160.179 26.415a1.63 1.63 0 0 1-2.21-.668 1.628 1.628 0 1 1 2.868-1.547c.43.792.137 1.788-.658 2.215M167.526 37.024a1.634 1.634 0 1 1-1.553-2.875 1.634 1.634 0 0 1 1.553 2.875M171.607 46.823a1.633 1.633 0 0 1-2.21-.668 1.632 1.632 0 0 1 2.873-1.545c.428.79.129 1.785-.663 2.213M178.14 58.25a1.627 1.627 0 0 1-2.21-.667 1.625 1.625 0 0 1 .656-2.21 1.635 1.635 0 0 1 1.554 2.878M183.853 67.226a1.636 1.636 0 0 1-2.216-.656 1.64 1.64 0 0 1 .663-2.215 1.638 1.638 0 0 1 2.215.658c.426.8.13 1.788-.662 2.213M188.752 78.656a1.633 1.633 0 1 1-1.555-2.872 1.633 1.633 0 0 1 1.555 2.872M194.465 88.453a1.633 1.633 0 1 1-1.55-2.874 1.633 1.633 0 0 1 1.55 2.874M199.364 99.064a1.637 1.637 0 0 1-2.214-.655 1.642 1.642 0 0 1 .658-2.218 1.64 1.64 0 0 1 2.218.66c.426.794.13 1.784-.662 2.213M202.862 109.019a1.638 1.638 0 0 1 2.881-1.554c.203.38.24.806.136 1.196-.282.352-.569.695-.858 1.045a1.64 1.64 0 0 1-2.16-.687M159.548 1.09c-.8.242-1.871-.068-2.402-.693-.065-.08-.113-.16-.16-.241 1.118.02 2.23.067 3.334.12-.03.358-.292.668-.772.813M163.445 10.9a1.632 1.632 0 0 1-2.215-.661 1.637 1.637 0 0 1 .662-2.212 1.636 1.636 0 0 1 2.213.664 1.63 1.63 0 0 1-.66 2.21M169.16 20.695a1.634 1.634 0 0 1-2.214-.655 1.637 1.637 0 0 1 .66-2.216 1.628 1.628 0 0 1 2.21.66c.432.795.138 1.783-.655 2.211M174.871 32.128a1.64 1.64 0 0 1-2.213-.661 1.636 1.636 0 0 1 .658-2.21 1.632 1.632 0 1 1 1.555 2.871M181.4 41.926a1.641 1.641 0 0 1-2.21-.661 1.641 1.641 0 0 1 .66-2.218 1.633 1.633 0 0 1 2.213.664 1.632 1.632 0 0 1-.663 2.215M186.3 52.532a1.63 1.63 0 0 1-2.211-.657 1.634 1.634 0 0 1 .661-2.213 1.629 1.629 0 0 1 2.21.66 1.624 1.624 0 0 1-.66 2.21M192.829 62.33a1.628 1.628 0 0 1-2.21-.661 1.628 1.628 0 0 1 .661-2.208 1.62 1.62 0 0 1 2.21.66 1.62 1.62 0 0 1-.661 2.208M197.73 72.94a1.631 1.631 0 1 1-1.552-2.871 1.636 1.636 0 0 1 2.214.662 1.63 1.63 0 0 1-.663 2.21M203.443 83.553a1.629 1.629 0 0 1-2.212-.661 1.63 1.63 0 0 1 .665-2.21 1.625 1.625 0 0 1 2.206.66c.43.794.14 1.784-.659 2.211M209.162 94.167a1.644 1.644 0 0 1-2.218-.656 1.636 1.636 0 0 1 2.88-1.555 1.641 1.641 0 0 1-.662 2.211M174.056 6.004a1.64 1.64 0 0 1-2.215-.657 1.636 1.636 0 0 1 2.876-1.555c.43.8.131 1.78-.661 2.212M178.96 15.796a1.634 1.634 0 0 1-2.219-.655 1.637 1.637 0 0 1 .663-2.216 1.624 1.624 0 0 1 2.207.668 1.62 1.62 0 0 1-.652 2.203M184.667 26.412a1.633 1.633 0 1 1-1.55-2.875 1.633 1.633 0 0 1 1.55 2.875M189.566 36.21a1.634 1.634 0 0 1-1.547-2.877 1.637 1.637 0 0 1 2.21.66c.426.8.132 1.785-.663 2.217M196.097 48.453a1.635 1.635 0 0 1-2.214-.662 1.636 1.636 0 0 1 .662-2.212 1.633 1.633 0 1 1 1.553 2.874M200.993 58.248a1.628 1.628 0 0 1-2.21-.662 1.63 1.63 0 1 1 2.87-1.55 1.624 1.624 0 0 1-.66 2.212M206.707 68.86a1.63 1.63 0 0 1-2.21-.66 1.634 1.634 0 0 1 .66-2.213 1.63 1.63 0 0 1 2.21.661 1.624 1.624 0 0 1-.66 2.212M212.424 77.84a1.631 1.631 0 0 1-2.212-.659 1.636 1.636 0 0 1 .658-2.215 1.637 1.637 0 0 1 2.215.662c.431.792.13 1.783-.661 2.212M216.697 86.633c.255-.202.524-.274.775-.243a83.29 83.29 0 0 1-.867 3.148c-.243-.11-.445-.334-.553-.668-.257-.752.036-1.755.645-2.237M180.152 1.924c.333.089.661.18.98.284a1.155 1.155 0 0 1-.98-.284M187.935 11.715a1.633 1.633 0 0 1-2.215-.655 1.642 1.642 0 0 1 .664-2.219 1.636 1.636 0 0 1 2.208.661 1.627 1.627 0 0 1-.657 2.213M193.652 21.516a1.635 1.635 0 1 1-1.553-2.878 1.638 1.638 0 0 1 2.21.661 1.64 1.64 0 0 1-.657 2.217M198.547 32.943a1.63 1.63 0 0 1-2.21-.661 1.63 1.63 0 0 1 .656-2.212 1.635 1.635 0 0 1 2.217.663c.424.792.13 1.782-.663 2.21M204.263 41.923a1.633 1.633 0 0 1-2.213-.662 1.63 1.63 0 0 1 .66-2.212 1.627 1.627 0 0 1 2.208.66 1.63 1.63 0 0 1-.655 2.214M209.974 53.357a1.641 1.641 0 0 1-2.212-.669 1.637 1.637 0 0 1 .659-2.211 1.631 1.631 0 0 1 2.211.661 1.635 1.635 0 0 1-.658 2.219M215.69 63.147a1.633 1.633 0 0 1-1.554-2.874 1.63 1.63 0 0 1 2.211.661 1.63 1.63 0 0 1-.657 2.213M219.301 70.91c.067-.059.132-.105.198-.143-.161 1.099-.33 2.177-.508 3.244-.173-.13-.317-.339-.398-.633-.236-.821.082-1.928.708-2.468M199.631 17.513c-.417-.896-.079-2.04.753-2.557.003 0 0 0 .005-.008.75.849 1.458 1.713 2.147 2.573a1.96 1.96 0 0 1-.637.68c-.836.516-1.849.21-2.268-.688M208.344 27.229a1.634 1.634 0 0 1-1.553-2.874 1.629 1.629 0 0 1 2.21.661 1.63 1.63 0 0 1-.657 2.213M212.502 35.783a1.635 1.635 0 0 1 2.215.662 1.63 1.63 0 0 1-.661 2.212 1.627 1.627 0 0 1-2.209-.66 1.632 1.632 0 0 1 .655-2.214M216.574 47.124c-.22-.761.082-1.804.667-2.317.12-.107.249-.176.375-.23.08 1.061.137 2.113.176 3.176-.517.28-1.03.039-1.218-.63"/></g></svg>