<svg width="352" height="184" xmlns="http://www.w3.org/2000/svg"><g fill="#FFF" fill-rule="evenodd"><path d="M347.855 70.309a2.496 2.496 0 0 0 2.426-2.565 2.503 2.503 0 0 0-2.568-2.433 2.49 2.49 0 0 0-2.423 2.567 2.483 2.483 0 0 0 2.565 2.43M348.354 86.945a2.498 2.498 0 0 0 2.43-2.57 2.501 2.501 0 0 0-2.57-2.427 2.497 2.497 0 0 0-2.425 2.57 2.493 2.493 0 0 0 2.565 2.427M349.205 104.952a2.505 2.505 0 0 0 2.43-2.57 2.507 2.507 0 0 0-2.57-2.425 2.494 2.494 0 0 0-2.43 2.565 2.492 2.492 0 0 0 2.57 2.43M346.925 120.454c-.099.553-.016 1.021.2 1.377a113.667 113.667 0 0 0 2.559-4.513c-1.339.477-2.538 1.795-2.759 3.136M333.455 53.497a2.492 2.492 0 0 0 2.423-2.567 2.494 2.494 0 0 0-2.566-2.437 2.508 2.508 0 0 0-2.425 2.575 2.506 2.506 0 0 0 2.568 2.43M332.595 70.476c1.372-.038 2.455-1.19 2.418-2.578a2.494 2.494 0 0 0-2.567-2.424 2.495 2.495 0 0 0-2.424 2.568 2.5 2.5 0 0 0 2.573 2.434M332.582 87.963a2.497 2.497 0 0 0 2.425-2.563 2.51 2.51 0 0 0-2.572-2.438 2.506 2.506 0 0 0-2.425 2.573 2.493 2.493 0 0 0 2.572 2.428M335.657 106.15a2.508 2.508 0 0 0 2.425-2.578 2.5 2.5 0 0 0-4.999.143 2.507 2.507 0 0 0 2.574 2.435M334.783 123.12a2.5 2.5 0 0 0 2.434-2.568c-.048-1.377-1.198-2.472-2.57-2.426a2.504 2.504 0 0 0-2.434 2.573 2.498 2.498 0 0 0 2.57 2.421M334.393 135.714c-1.248.167-2.352 1.319-2.446 2.559-.086 1.015.518 1.768 1.42 1.924a57.284 57.284 0 0 0 3.047-3.204c-.216-.873-1.011-1.42-2.02-1.279M317.347 35.649a2.502 2.502 0 0 0 2.43-2.574 2.504 2.504 0 0 0-2.57-2.426 2.508 2.508 0 0 0-2.432 2.572 2.505 2.505 0 0 0 2.572 2.428M316.82 53.997a2.498 2.498 0 0 0 2.43-2.564 2.507 2.507 0 0 0-2.57-2.436 2.507 2.507 0 0 0-2.428 2.577 2.498 2.498 0 0 0 2.567 2.423M318.698 70.291a2.501 2.501 0 0 0 2.43-2.568 2.509 2.509 0 0 0-2.572-2.433 2.5 2.5 0 0 0-2.425 2.569 2.492 2.492 0 0 0 2.567 2.432M319.033 89.158a2.502 2.502 0 0 0-.15-5.001 2.508 2.508 0 0 0-2.426 2.57 2.505 2.505 0 0 0 2.576 2.431M318.673 105.285a2.505 2.505 0 0 0 2.426-2.58 2.496 2.496 0 0 0-2.57-2.427 2.509 2.509 0 0 0-2.427 2.57 2.517 2.517 0 0 0 2.571 2.437M320.034 122.43a2.5 2.5 0 0 0-.136-4.999 2.495 2.495 0 0 0-2.429 2.568 2.497 2.497 0 0 0 2.565 2.43M320.367 141.293a2.494 2.494 0 0 0 2.425-2.569 2.5 2.5 0 0 0-2.566-2.432 2.497 2.497 0 0 0-2.423 2.572 2.49 2.49 0 0 0 2.564 2.43M301.57 36.662c1.382-.027 2.46-1.185 2.424-2.567a2.498 2.498 0 1 0-4.993.147 2.488 2.488 0 0 0 2.57 2.42M302.933 53.816a2.495 2.495 0 0 0 2.425-2.564 2.49 2.49 0 0 0-2.57-2.426 2.485 2.485 0 0 0-2.425 2.564 2.49 2.49 0 0 0 2.57 2.426M302.411 72.17a2.502 2.502 0 0 0 2.42-2.57 2.508 2.508 0 0 0-2.569-2.435 2.5 2.5 0 0 0-2.423 2.577c.03 1.38 1.185 2.464 2.572 2.428M303.252 90.173a2.5 2.5 0 1 0-.144-4.992 2.5 2.5 0 0 0 .144 4.992M303.751 106.805a2.493 2.493 0 0 0 2.434-2.563 2.507 2.507 0 0 0-2.574-2.43 2.493 2.493 0 0 0-2.421 2.576 2.48 2.48 0 0 0 2.561 2.417M304.256 123.45a2.501 2.501 0 1 0-2.568-2.434 2.505 2.505 0 0 0 2.568 2.435M306.473 141.114a2.496 2.496 0 0 0 2.43-2.569 2.494 2.494 0 0 0-2.568-2.428 2.503 2.503 0 0 0-2.432 2.57 2.506 2.506 0 0 0 2.57 2.427M304.718 154.322c-1.308.298-2.549 1.458-2.965 2.736.869-.305 1.72-.583 2.63-.908.822-.3 1.624-.652 2.417-.97-.312-.706-1.081-1.074-2.082-.858M287.677 36.486a2.509 2.509 0 0 0 2.436-2.565 2.51 2.51 0 0 0-2.574-2.43 2.502 2.502 0 0 0-2.434 2.567 2.502 2.502 0 0 0 2.572 2.428M287.156 54.836a2.503 2.503 0 0 0 2.427-2.566 2.509 2.509 0 0 0-2.576-2.432 2.493 2.493 0 0 0-2.42 2.573 2.487 2.487 0 0 0 2.57 2.425M288.513 71.986a2.495 2.495 0 0 0 2.427-2.565 2.502 2.502 0 0 0-2.567-2.433 2.5 2.5 0 1 0 .14 4.998M287.127 89.824a2.5 2.5 0 0 0-.135-5 2.509 2.509 0 0 0-2.437 2.572 2.51 2.51 0 0 0 2.572 2.428M289.863 106.632a2.5 2.5 0 1 0-.138-4.995 2.5 2.5 0 0 0 .138 4.995M289.851 124.126a2.496 2.496 0 0 0 2.425-2.57 2.496 2.496 0 1 0-4.99.138 2.496 2.496 0 0 0 2.565 2.432M290.352 140.761a2.493 2.493 0 0 0 2.427-2.57 2.491 2.491 0 0 0-2.567-2.428 2.496 2.496 0 0 0-2.424 2.568 2.497 2.497 0 0 0 2.564 2.43M289.699 154.22a2.65 2.65 0 0 0-2.556 3.31 94.407 94.407 0 0 0 5.427-.195c.01-.126.023-.252.016-.378-.066-1.537-1.363-2.748-2.887-2.736M271.552 36.137a2.509 2.509 0 0 0 2.436-2.566 2.506 2.506 0 0 0-2.575-2.436 2.498 2.498 0 0 0-2.424 2.568 2.5 2.5 0 0 0 2.563 2.434M272.06 52.769a2.495 2.495 0 0 0 2.427-2.566 2.498 2.498 0 1 0-4.995.141 2.497 2.497 0 0 0 2.569 2.425M272.392 71.636a2.49 2.49 0 0 0 2.42-2.579 2.484 2.484 0 0 0-2.557-2.419 2.493 2.493 0 0 0-2.43 2.57 2.498 2.498 0 0 0 2.567 2.428M273.238 89.64a2.5 2.5 0 0 0 2.431-2.57 2.507 2.507 0 0 0-2.57-2.427 2.495 2.495 0 0 0-2.426 2.57 2.487 2.487 0 0 0 2.565 2.427M273.747 106.28a2.504 2.504 0 0 0-.143-5.003 2.512 2.512 0 0 0-2.435 2.569 2.51 2.51 0 0 0 2.578 2.435M274.93 125.657a2.502 2.502 0 0 0 2.432-2.561 2.51 2.51 0 0 0-2.572-2.438 2.505 2.505 0 0 0-2.43 2.574 2.497 2.497 0 0 0 2.57 2.425M274.405 144.01a2.5 2.5 0 0 0 2.426-2.57 2.497 2.497 0 1 0-4.993.131 2.495 2.495 0 0 0 2.567 2.438M274.928 153.267c-1.085-.156-1.847.39-2.025 1.29a67.077 67.077 0 0 0 5.07 1.59c-.318-1.39-1.662-2.67-3.045-2.88M256.635 37.662a2.487 2.487 0 0 0 2.427-2.566 2.501 2.501 0 0 0-4.998.144 2.493 2.493 0 0 0 2.571 2.422M257.997 54.818a2.497 2.497 0 0 0 2.428-2.566 2.505 2.505 0 0 0-2.573-2.434 2.497 2.497 0 0 0-2.42 2.573 2.489 2.489 0 0 0 2.565 2.427M258.841 72.83a2.5 2.5 0 0 0 2.426-2.575 2.493 2.493 0 0 0-2.565-2.426 2.511 2.511 0 0 0-2.436 2.565 2.516 2.516 0 0 0 2.575 2.436M258.83 90.323a2.507 2.507 0 0 0 2.43-2.574 2.504 2.504 0 0 0-2.573-2.43 2.494 2.494 0 0 0-2.419 2.572 2.495 2.495 0 0 0 2.561 2.432M258.822 107.818a2.513 2.513 0 0 0 2.429-2.578 2.508 2.508 0 0 0-2.572-2.428 2.507 2.507 0 0 0-2.43 2.578 2.511 2.511 0 0 0 2.573 2.428M258.808 125.31a2.509 2.509 0 0 0 2.43-2.574 2.5 2.5 0 0 0-4.998.14 2.507 2.507 0 0 0 2.568 2.434M260.169 142.457a2.521 2.521 0 0 0 2.442-2.572c-.052-1.373-1.2-2.466-2.576-2.422a2.492 2.492 0 0 0-2.435 2.564 2.502 2.502 0 0 0 2.569 2.43M241.892 36.976a2.51 2.51 0 0 0 2.426-2.57 2.514 2.514 0 0 0-2.576-2.437 2.5 2.5 0 0 0-2.419 2.573 2.496 2.496 0 0 0 2.569 2.434M241.361 55.324a2.5 2.5 0 1 0-2.569-2.43 2.5 2.5 0 0 0 2.57 2.43M242.207 73.332a2.497 2.497 0 0 0 2.426-2.57 2.503 2.503 0 0 0-2.573-2.434 2.504 2.504 0 0 0-2.42 2.575 2.498 2.498 0 0 0 2.567 2.429M242.196 90.825a2.497 2.497 0 0 0 2.426-2.57 2.498 2.498 0 1 0-4.996.138 2.502 2.502 0 0 0 2.57 2.432M243.555 107.976a2.494 2.494 0 0 0 2.426-2.57 2.497 2.497 0 1 0-4.99.14 2.497 2.497 0 0 0 2.564 2.43M244.915 125.126a2.518 2.518 0 0 0 2.441-2.57 2.515 2.515 0 0 0-2.581-2.428 2.495 2.495 0 0 0-2.425 2.568 2.499 2.499 0 0 0 2.565 2.43M245.763 140.266c-.138-1.288-1.295-2.38-2.573-2.45-.86-.046-1.548.391-1.876 1.069 1.193.98 2.417 2.056 3.716 3.18.512-.391.813-1.036.733-1.8M226.11 37.993a2.503 2.503 0 0 0-.142-5.003 2.504 2.504 0 0 0 .141 5.003M229.186 56.173a2.502 2.502 0 0 0-.14-5 2.505 2.505 0 0 0-2.433 2.572 2.503 2.503 0 0 0 2.573 2.428M226.94 73.492a2.5 2.5 0 1 0-.138-4.998 2.496 2.496 0 0 0-2.425 2.57 2.494 2.494 0 0 0 2.563 2.428M229.166 91.162a2.506 2.506 0 0 0 2.423-2.577 2.505 2.505 0 0 0-2.567-2.429 2.505 2.505 0 0 0 .144 5.006M229.15 108.646a2.497 2.497 0 0 0 2.433-2.561 2.511 2.511 0 0 0-2.57-2.435 2.5 2.5 0 0 0-2.43 2.569 2.487 2.487 0 0 0 2.567 2.427M229.653 125.287a2.5 2.5 0 0 0 2.43-2.574 2.51 2.51 0 0 0-2.57-2.43 2.504 2.504 0 0 0-2.424 2.58 2.494 2.494 0 0 0 2.564 2.424M213.075 38.327a2.494 2.494 0 0 0 2.424-2.568 2.49 2.49 0 0 0-2.563-2.429 2.497 2.497 0 0 0-2.432 2.565c.031 1.38 1.193 2.468 2.57 2.432M212.89 58.05a2.497 2.497 0 0 0 2.425-2.569 2.495 2.495 0 0 0-2.565-2.431 2.508 2.508 0 0 0-2.433 2.572 2.51 2.51 0 0 0 2.573 2.428M213.4 74.686c1.37-.034 2.46-1.194 2.427-2.571a2.516 2.516 0 0 0-2.572-2.433 2.505 2.505 0 0 0-2.428 2.576 2.5 2.5 0 0 0 2.572 2.428M213.897 91.32a2.497 2.497 0 0 0 2.428-2.573 2.503 2.503 0 0 0-2.566-2.428 2.502 2.502 0 0 0-2.429 2.573 2.496 2.496 0 0 0 2.567 2.427M214.228 110.186a2.498 2.498 0 1 0-.135-4.995 2.487 2.487 0 0 0-2.43 2.564 2.496 2.496 0 0 0 2.565 2.431M214.733 126.824a2.512 2.512 0 0 0 2.433-2.578c-.049-1.374-1.195-2.466-2.57-2.42a2.49 2.49 0 0 0-2.428 2.567 2.498 2.498 0 0 0 2.565 2.43M213.14 139.466a41.994 41.994 0 0 1 1.664-.783c-.027-.002-.057-.006-.082-.006a2.11 2.11 0 0 0-1.583.79M197.294 39.346a2.502 2.502 0 0 0-.142-5.002 2.507 2.507 0 0 0-2.425 2.579c.031 1.372 1.192 2.458 2.567 2.423M197.283 56.841a2.507 2.507 0 0 0 2.432-2.57 2.5 2.5 0 1 0-4.997.14 2.5 2.5 0 0 0 2.565 2.43M197.268 74.333a2.499 2.499 0 0 0 2.432-2.576 2.494 2.494 0 0 0-2.571-2.422 2.491 2.491 0 0 0-2.422 2.566 2.496 2.496 0 0 0 2.561 2.432M198.12 92.34a2.495 2.495 0 0 0 2.424-2.574 2.5 2.5 0 0 0-2.562-2.428 2.502 2.502 0 0 0 .138 5.002M198.107 109.834a2.517 2.517 0 0 0 2.438-2.577 2.513 2.513 0 0 0-2.576-2.422 2.495 2.495 0 0 0-2.428 2.562 2.5 2.5 0 0 0 2.566 2.437M199.981 126.122a2.503 2.503 0 0 0 2.438-2.567 2.514 2.514 0 0 0-2.574-2.43 2.497 2.497 0 0 0-2.425 2.58 2.486 2.486 0 0 0 2.561 2.417M199.46 144.473a2.49 2.49 0 0 0 2.425-2.569 2.491 2.491 0 0 0-2.567-2.423 2.496 2.496 0 1 0 .142 4.992M180.286 22.198c-.149 1.556 1.019 2.641 2.593 2.41 1.378-.2 2.604-1.34 3-2.662-1.398-.716-2.815-1.432-4.243-2.178-.738.619-1.266 1.505-1.35 2.43M182.374 40.881a2.503 2.503 0 0 0-.139-5.002 2.506 2.506 0 0 0-2.431 2.571 2.505 2.505 0 0 0 2.57 2.431M181.845 59.233a2.503 2.503 0 0 0 2.43-2.579 2.5 2.5 0 0 0-4.996.146 2.504 2.504 0 0 0 2.566 2.433M184.239 74.667a2.506 2.506 0 0 0 2.431-2.57 2.504 2.504 0 0 0-2.573-2.429 2.494 2.494 0 0 0-2.424 2.568 2.496 2.496 0 0 0 2.566 2.431M184.054 94.392a2.5 2.5 0 0 0 2.426-2.574 2.495 2.495 0 0 0-2.568-2.429 2.505 2.505 0 0 0-2.428 2.567 2.51 2.51 0 0 0 2.57 2.436M184.212 109.655a2.51 2.51 0 0 0 2.437-2.576 2.498 2.498 0 0 0-2.57-2.42 2.488 2.488 0 0 0-2.429 2.568 2.5 2.5 0 0 0 2.562 2.428M185.573 126.8a2.492 2.492 0 0 0 2.432-2.565 2.496 2.496 0 0 0-2.57-2.43 2.505 2.505 0 0 0-2.429 2.567 2.501 2.501 0 0 0 2.567 2.429M185.912 145.667a2.496 2.496 0 0 0 2.425-2.569 2.504 2.504 0 0 0-2.567-2.432 2.502 2.502 0 0 0-2.427 2.576 2.494 2.494 0 0 0 2.569 2.425M183.558 159.825c.829-.587 1.66-1.172 2.48-1.763a2.237 2.237 0 0 0-.514-.063 1.968 1.968 0 0 0-1.966 1.826M167.12 23.552a2.504 2.504 0 0 0 2.43-2.574 2.495 2.495 0 0 0-2.565-2.425 2.5 2.5 0 1 0 .135 4.999M166.77 39.668a2.508 2.508 0 0 0 2.433-2.563 2.51 2.51 0 0 0-2.577-2.433 2.496 2.496 0 0 0-2.424 2.573 2.493 2.493 0 0 0 2.568 2.423M167.104 58.535a2.505 2.505 0 0 0 2.426-2.57 2.5 2.5 0 0 0-2.564-2.426 2.493 2.493 0 0 0-2.434 2.568 2.498 2.498 0 0 0 2.572 2.428M167.607 75.175a2.518 2.518 0 0 0 2.431-2.575 2.516 2.516 0 0 0-2.575-2.432 2.507 2.507 0 0 0-2.43 2.573 2.51 2.51 0 0 0 2.574 2.434M168.969 92.322a2.507 2.507 0 0 0 2.427-2.571c-.045-1.375-1.194-2.475-2.567-2.428a2.494 2.494 0 0 0-2.43 2.569 2.496 2.496 0 0 0 2.57 2.43M168.958 109.811a2.493 2.493 0 0 0 2.423-2.566 2.495 2.495 0 0 0-2.568-2.428 2.494 2.494 0 0 0-2.427 2.566 2.493 2.493 0 0 0 2.572 2.428M168.944 127.307a2.498 2.498 0 0 0 2.426-2.57 2.494 2.494 0 0 0-2.57-2.427 2.5 2.5 0 0 0-2.429 2.568 2.504 2.504 0 0 0 2.573 2.429M169.788 145.315a2.493 2.493 0 0 0 2.424-2.568 2.495 2.495 0 0 0-2.566-2.433 2.505 2.505 0 0 0-2.427 2.577 2.503 2.503 0 0 0 2.569 2.424M169.777 162.807a2.511 2.511 0 0 0 2.437-2.567 2.516 2.516 0 0 0-2.577-2.433 2.5 2.5 0 1 0 .14 5M148.485 3.225c-.033 1.44 1.131 2.527 2.58 2.42 1.455-.114 2.665-1.372 2.68-2.824.011-.13-.012-.252-.029-.379a113.013 113.013 0 0 0-3.7-1.681c-.88.488-1.517 1.422-1.53 2.464M150.997 23.2a2.504 2.504 0 0 0 2.43-2.573 2.494 2.494 0 0 0-2.568-2.43 2.495 2.495 0 0 0-2.425 2.57 2.504 2.504 0 0 0 2.563 2.433M152.367 40.346c1.376-.034 2.456-1.189 2.425-2.57a2.509 2.509 0 0 0-2.576-2.431 2.505 2.505 0 0 0-2.422 2.571 2.498 2.498 0 0 0 2.573 2.43M152.35 57.837a2.494 2.494 0 0 0 2.429-2.569 2.507 2.507 0 0 0-2.572-2.432 2.504 2.504 0 0 0-2.422 2.576 2.49 2.49 0 0 0 2.564 2.425M153.196 75.846a2.491 2.491 0 0 0 2.425-2.57 2.493 2.493 0 0 0-2.562-2.428 2.504 2.504 0 0 0-2.433 2.567 2.502 2.502 0 0 0 2.57 2.431M154.043 93.857a2.508 2.508 0 0 0 2.431-2.575c-.044-1.375-1.194-2.47-2.571-2.423a2.506 2.506 0 0 0-2.434 2.563 2.513 2.513 0 0 0 2.574 2.435M153.181 110.829a2.496 2.496 0 0 0 2.425-2.564 2.504 2.504 0 0 0-2.57-2.43 2.488 2.488 0 0 0-2.422 2.57 2.48 2.48 0 0 0 2.567 2.424M155.736 129.871a2.5 2.5 0 0 0 2.427-2.57 2.5 2.5 0 1 0-4.997.144 2.503 2.503 0 0 0 2.57 2.426M155.893 145.135a2.498 2.498 0 0 0 2.43-2.574 2.497 2.497 0 1 0-4.992.146 2.496 2.496 0 0 0 2.562 2.428M156.746 163.141a2.491 2.491 0 0 0 2.421-2.575 2.488 2.488 0 0 0-2.563-2.42 2.493 2.493 0 0 0-2.429 2.569 2.497 2.497 0 0 0 2.57 2.426M155.004 177.568a88.148 88.148 0 0 0 2.89-1.35c-.3-.163-.619-.26-.976-.263a1.914 1.914 0 0 0-1.914 1.613M136.257 5.007a2.505 2.505 0 0 0 2.44-2.568 2.512 2.512 0 0 0-2.573-2.433 2.509 2.509 0 0 0-2.431 2.575 2.502 2.502 0 0 0 2.564 2.426M136.933 25.238a2.494 2.494 0 0 0 2.436-2.564 2.508 2.508 0 0 0-2.574-2.43 2.504 2.504 0 0 0-2.428 2.572 2.49 2.49 0 0 0 2.566 2.422M136.585 41.369a2.5 2.5 0 0 0 2.423-2.582 2.5 2.5 0 0 0-2.573-2.424 2.516 2.516 0 0 0-2.425 2.57 2.513 2.513 0 0 0 2.575 2.436M137.432 59.377a2.504 2.504 0 0 0-.148-5.005 2.51 2.51 0 0 0-2.426 2.57 2.511 2.511 0 0 0 2.574 2.435M137.934 76.013a2.494 2.494 0 0 0 2.42-2.58 2.486 2.486 0 0 0-2.565-2.422 2.501 2.501 0 0 0 .145 5.002M137.92 93.506a2.51 2.51 0 0 0 2.433-2.577 2.498 2.498 0 0 0-2.571-2.422 2.495 2.495 0 0 0-2.429 2.567 2.508 2.508 0 0 0 2.567 2.432M138.773 111.51a2.499 2.499 0 0 0 2.423-2.572 2.5 2.5 0 0 0-2.57-2.427 2.495 2.495 0 0 0-2.422 2.57 2.493 2.493 0 0 0 2.569 2.43M138.76 129a2.496 2.496 0 0 0 2.426-2.564 2.502 2.502 0 0 0-2.568-2.434 2.502 2.502 0 0 0-2.428 2.573 2.495 2.495 0 0 0 2.57 2.426M139.773 144.779a2.499 2.499 0 1 0-.136-4.994 2.49 2.49 0 0 0-2.426 2.566 2.49 2.49 0 0 0 2.562 2.428M140.618 162.786a2.5 2.5 0 0 0 2.436-2.564 2.501 2.501 0 0 0-2.573-2.43 2.482 2.482 0 0 0-2.418 2.573 2.48 2.48 0 0 0 2.555 2.421M140.959 181.652a2.501 2.501 0 0 0-.149-4.998 2.5 2.5 0 0 0-2.422 2.57 2.492 2.492 0 0 0 2.57 2.428M119.975 6.881a2.503 2.503 0 0 0 2.428-2.572c-.052-1.377-1.198-2.469-2.575-2.431a2.524 2.524 0 0 0-2.433 2.577 2.507 2.507 0 0 0 2.58 2.426M121.329 24.027a2.487 2.487 0 0 0 2.431-2.56 2.5 2.5 0 0 0-2.574-2.43 2.487 2.487 0 0 0-2.416 2.575c.027 1.376 1.18 2.455 2.559 2.415M120.47 41.015a2.51 2.51 0 0 0 2.424-2.568 2.5 2.5 0 0 0-2.57-2.43 2.5 2.5 0 0 0-2.433 2.563 2.51 2.51 0 0 0 2.58 2.435M123.196 57.821a2.499 2.499 0 0 0 2.428-2.572 2.503 2.503 0 0 0-2.569-2.43 2.505 2.505 0 0 0-2.428 2.572 2.5 2.5 0 0 0 2.569 2.43M121.298 76.514a2.507 2.507 0 0 0 2.43-2.574 2.506 2.506 0 0 0-2.57-2.427 2.5 2.5 0 0 0-2.428 2.567 2.5 2.5 0 0 0 2.568 2.434M124.032 93.321a2.499 2.499 0 1 0-.141-4.997 2.498 2.498 0 1 0 .141 4.997M122.652 111.156a2.5 2.5 0 0 0 2.425-2.569 2.494 2.494 0 0 0-2.573-2.424 2.488 2.488 0 0 0-2.422 2.571 2.495 2.495 0 0 0 2.57 2.422M124.865 128.815a2.49 2.49 0 0 0 2.432-2.561 2.5 2.5 0 0 0-2.577-2.428 2.5 2.5 0 0 0-2.424 2.568 2.491 2.491 0 0 0 2.57 2.42M124.854 146.314a2.49 2.49 0 0 0 2.426-2.57 2.49 2.49 0 0 0-2.56-2.426 2.501 2.501 0 0 0-2.436 2.57 2.502 2.502 0 0 0 2.57 2.426M125.362 162.951a2.497 2.497 0 0 0 2.424-2.568 2.489 2.489 0 0 0-2.57-2.426 2.494 2.494 0 0 0-2.427 2.565 2.502 2.502 0 0 0 2.573 2.43M124.323 182.158a2.501 2.501 0 0 0 2.425-2.574 2.51 2.51 0 0 0-2.569-2.43 2.5 2.5 0 0 0-2.425 2.574 2.491 2.491 0 0 0 2.569 2.43M105.907 8.938a2.517 2.517 0 0 0 2.432-2.576c-.044-1.375-1.195-2.472-2.57-2.422a2.495 2.495 0 0 0-2.435 2.564 2.514 2.514 0 0 0 2.573 2.434M106.415 25.565a2.493 2.493 0 0 0 2.423-2.567 2.505 2.505 0 0 0-2.567-2.432 2.51 2.51 0 0 0-2.432 2.567 2.498 2.498 0 0 0 2.576 2.432M107.431 41.347a2.503 2.503 0 0 0 2.428-2.57 2.51 2.51 0 0 0-2.572-2.433 2.496 2.496 0 0 0-2.42 2.578 2.488 2.488 0 0 0 2.564 2.425M108.276 59.352a2.5 2.5 0 0 0-.144-4.997 2.5 2.5 0 0 0-2.424 2.573 2.493 2.493 0 0 0 2.568 2.424M107.926 75.476a2.506 2.506 0 0 0 2.427-2.572 2.507 2.507 0 0 0-2.567-2.428 2.493 2.493 0 0 0-2.428 2.572 2.491 2.491 0 0 0 2.568 2.428M108.255 94.34a2.497 2.497 0 0 0 2.426-2.566 2.494 2.494 0 0 0-2.573-2.429 2.494 2.494 0 0 0-2.423 2.568 2.497 2.497 0 0 0 2.57 2.426M109.1 112.342a2.479 2.479 0 0 0 2.421-2.565 2.493 2.493 0 0 0-2.562-2.429 2.504 2.504 0 0 0-2.43 2.573 2.49 2.49 0 0 0 2.571 2.421M108.743 128.47a2.51 2.51 0 0 0 2.437-2.567 2.502 2.502 0 0 0-2.572-2.428 2.489 2.489 0 0 0-2.43 2.564 2.498 2.498 0 0 0 2.565 2.43M110.453 146.99a2.498 2.498 0 0 0 2.426-2.57 2.504 2.504 0 0 0-2.573-2.428c-1.374.045-2.47 1.19-2.427 2.567a2.499 2.499 0 0 0 2.574 2.431M110.442 164.484a2.502 2.502 0 0 0 2.427-2.571 2.5 2.5 0 0 0-2.574-2.425 2.493 2.493 0 0 0-2.424 2.564 2.495 2.495 0 0 0 2.57 2.432M111.285 182.495a2.502 2.502 0 0 0-.148-5.001 2.505 2.505 0 0 0-2.424 2.573 2.508 2.508 0 0 0 2.572 2.428M91.158 8.239a2.501 2.501 0 0 0 2.428-2.572 2.493 2.493 0 0 0-2.569-2.424 2.5 2.5 0 0 0-2.432 2.561 2.508 2.508 0 0 0 2.573 2.435M91.148 25.73a2.496 2.496 0 0 0 2.424-2.568 2.493 2.493 0 0 0-2.571-2.428 2.496 2.496 0 0 0-2.422 2.57 2.498 2.498 0 0 0 2.569 2.426M92.507 42.883a2.502 2.502 0 0 0-.14-5.001 2.502 2.502 0 0 0 .14 5.001M92.494 60.377a2.517 2.517 0 0 0 2.439-2.573 2.515 2.515 0 0 0-2.58-2.43 2.494 2.494 0 0 0-2.42 2.57 2.496 2.496 0 0 0 2.561 2.433M92.49 77.862a2.504 2.504 0 0 0 2.43-2.56 2.515 2.515 0 0 0-2.574-2.436 2.507 2.507 0 0 0-2.431 2.575 2.496 2.496 0 0 0 2.574 2.421M95.225 94.676c1.373-.036 2.455-1.188 2.42-2.573a2.488 2.488 0 0 0-2.566-2.421 2.491 2.491 0 0 0-2.429 2.563 2.502 2.502 0 0 0 2.575 2.431M93.839 112.51a2.494 2.494 0 0 0 2.421-2.566 2.492 2.492 0 0 0-2.56-2.431c-1.388.041-2.48 1.193-2.434 2.568a2.5 2.5 0 0 0 2.573 2.429M96.06 130.177a2.5 2.5 0 0 0 2.421-2.57c-.04-1.375-1.188-2.474-2.565-2.432a2.501 2.501 0 1 0 .143 5.002M95.186 147.152a2.499 2.499 0 1 0-.141-4.993c-1.382.041-2.474 1.187-2.424 2.563a2.49 2.49 0 0 0 2.565 2.43M96.55 164.303a2.5 2.5 0 0 0-.143-4.995c-1.383.042-2.475 1.19-2.429 2.568a2.497 2.497 0 0 0 2.572 2.427M96.022 182.655a2.5 2.5 0 0 0 2.426-2.571 2.497 2.497 0 0 0-2.565-2.427 2.503 2.503 0 0 0-2.434 2.569 2.505 2.505 0 0 0 2.573 2.429M76.409 7.544a2.5 2.5 0 0 0 2.427-2.571 2.494 2.494 0 0 0-2.567-2.428 2.489 2.489 0 0 0-2.424 2.569 2.494 2.494 0 0 0 2.564 2.43M77.257 25.546a2.488 2.488 0 0 0 2.423-2.566 2.495 2.495 0 0 0-2.567-2.429 2.508 2.508 0 0 0-2.43 2.564 2.5 2.5 0 0 0 2.574 2.431M77.244 43.044a2.495 2.495 0 0 0 2.425-2.569 2.49 2.49 0 0 0-2.568-2.429 2.499 2.499 0 1 0 .143 4.998M78.605 60.195a2.5 2.5 0 1 0-.147-4.997 2.493 2.493 0 0 0-2.42 2.569 2.5 2.5 0 0 0 2.567 2.428M78.6 77.69a2.5 2.5 0 0 0 2.42-2.578 2.496 2.496 0 0 0-2.568-2.424 2.504 2.504 0 0 0-2.429 2.572 2.508 2.508 0 0 0 2.578 2.43M78.584 95.18a2.506 2.506 0 0 0 2.43-2.573 2.507 2.507 0 0 0-2.577-2.428 2.502 2.502 0 0 0 .147 5.001M79.943 112.33a2.504 2.504 0 0 0 2.432-2.57 2.506 2.506 0 0 0-2.578-2.43 2.5 2.5 0 0 0 .147 5M79.932 129.819a2.499 2.499 0 0 0 2.434-2.563 2.51 2.51 0 0 0-2.572-2.433 2.49 2.49 0 0 0-2.422 2.575 2.479 2.479 0 0 0 2.56 2.42M80.785 147.834a2.502 2.502 0 0 0 2.42-2.574 2.497 2.497 0 1 0-4.99.143 2.498 2.498 0 0 0 2.57 2.431M81.11 166.698a2.509 2.509 0 0 0 2.431-2.575 2.506 2.506 0 0 0-2.57-2.427 2.497 2.497 0 0 0-2.427 2.57c.028 1.379 1.188 2.464 2.566 2.432M81.274 181.957a2.492 2.492 0 0 0 2.424-2.568 2.498 2.498 0 1 0-4.996.14 2.5 2.5 0 0 0 2.572 2.428M61.491 9.074a2.49 2.49 0 0 0 2.421-2.565 2.494 2.494 0 0 0-2.565-2.432 2.502 2.502 0 0 0-2.429 2.573 2.497 2.497 0 0 0 2.573 2.424M62.335 27.084a2.503 2.503 0 0 0 2.429-2.572 2.506 2.506 0 0 0-2.572-2.428 2.503 2.503 0 0 0-2.426 2.575 2.499 2.499 0 0 0 2.57 2.425M63.356 42.866a2.497 2.497 0 0 0 2.42-2.577 2.495 2.495 0 1 0-4.987.144 2.498 2.498 0 0 0 2.567 2.433M62.312 62.069a2.501 2.501 0 0 0 2.43-2.564 2.51 2.51 0 0 0-2.576-2.437 2.5 2.5 0 0 0 .146 5.001M63.335 77.852a2.5 2.5 0 0 0 2.42-2.58c-.032-1.372-1.18-2.456-2.57-2.42a2.499 2.499 0 0 0-2.423 2.571 2.506 2.506 0 0 0 2.573 2.429M64.52 97.232a2.49 2.49 0 0 0 2.418-2.577 2.489 2.489 0 0 0-2.561-2.428 2.504 2.504 0 0 0 .143 5.005M64.164 113.346a2.505 2.505 0 0 0 2.437-2.566 2.513 2.513 0 0 0-2.574-2.43 2.508 2.508 0 0 0-2.434 2.568 2.501 2.501 0 0 0 2.571 2.428M65.01 131.356a2.5 2.5 0 1 0-.143-5 2.502 2.502 0 0 0-2.422 2.57 2.494 2.494 0 0 0 2.565 2.43M65.517 147.993a2.5 2.5 0 1 0-.144-4.998 2.5 2.5 0 0 0 .144 4.998M66.876 165.143a2.507 2.507 0 0 0 2.434-2.564 2.514 2.514 0 0 0-2.571-2.437 2.512 2.512 0 0 0-2.435 2.573 2.506 2.506 0 0 0 2.572 2.428M70.157 180.582a2.508 2.508 0 0 0-2.571-2.428 2.51 2.51 0 0 0-2.44 2.573c.023.659.299 1.253.736 1.69.644.25 1.287.487 1.938.73a2.51 2.51 0 0 0 2.337-2.565M45.757 9.72c1.34-.195 2.52-1.43 2.644-2.767.013-.17 0-.328-.012-.485a144.419 144.419 0 0 0-4.493 2.55c.39.53 1.056.82 1.86.702M47.585 26.387a2.498 2.498 0 0 0 2.43-2.573 2.507 2.507 0 0 0-2.571-2.427 2.505 2.505 0 0 0-2.427 2.576 2.496 2.496 0 0 0 2.568 2.424M48.086 43.023a2.502 2.502 0 0 0 2.435-2.564 2.507 2.507 0 0 0-2.573-2.434 2.494 2.494 0 0 0-2.423 2.566 2.488 2.488 0 0 0 2.56 2.432M48.94 61.034a2.51 2.51 0 0 0 2.429-2.573 2.505 2.505 0 0 0-2.565-2.426 2.494 2.494 0 0 0-2.436 2.565 2.5 2.5 0 0 0 2.572 2.434M47.56 78.87c1.37-.04 2.453-1.191 2.425-2.57a2.513 2.513 0 0 0-2.574-2.434 2.5 2.5 0 0 0-2.425 2.574c.033 1.382 1.19 2.464 2.574 2.43M49.771 96.528a2.494 2.494 0 0 0 2.43-2.564 2.502 2.502 0 0 0-2.572-2.428 2.494 2.494 0 0 0-2.425 2.569 2.487 2.487 0 0 0 2.567 2.423M48.907 113.507a2.493 2.493 0 0 0 2.424-2.568 2.494 2.494 0 0 0-2.567-2.422 2.48 2.48 0 0 0-2.423 2.567 2.48 2.48 0 0 0 2.566 2.423M50.264 130.658a2.498 2.498 0 1 0-.141-4.996 2.506 2.506 0 0 0-2.43 2.574 2.497 2.497 0 0 0 2.571 2.422M50.254 148.151a2.494 2.494 0 0 0 2.427-2.571 2.495 2.495 0 0 0-2.574-2.42 2.488 2.488 0 0 0-2.42 2.563 2.488 2.488 0 0 0 2.567 2.428M51.095 166.165a2.517 2.517 0 0 0 2.44-2.568 2.509 2.509 0 0 0-2.576-2.431 2.504 2.504 0 0 0-2.434 2.573 2.513 2.513 0 0 0 2.57 2.426M30.952 26.892a2.511 2.511 0 0 0 2.433-2.567c-.05-1.38-1.197-2.474-2.57-2.427a2.498 2.498 0 1 0 .137 4.994M31.446 43.527a2.502 2.502 0 0 0 2.439-2.568 2.507 2.507 0 0 0-2.574-2.43 2.487 2.487 0 0 0-2.417 2.575 2.482 2.482 0 0 0 2.552 2.423M32.304 61.534a2.5 2.5 0 0 0 2.427-2.57 2.503 2.503 0 0 0-2.569-2.425 2.495 2.495 0 0 0-2.43 2.573 2.494 2.494 0 0 0 2.572 2.422M32.807 78.174a2.503 2.503 0 0 0-.15-5c-1.378.037-2.455 1.193-2.425 2.568a2.509 2.509 0 0 0 2.575 2.432M33.993 97.552a2.503 2.503 0 0 0 2.43-2.573c-.046-1.376-1.198-2.473-2.57-2.427a2.5 2.5 0 1 0 .141 5M34.499 114.184a2.493 2.493 0 0 0 2.425-2.569 2.496 2.496 0 1 0-4.992.14 2.487 2.487 0 0 0 2.567 2.43M35.346 132.193a2.495 2.495 0 0 0 2.424-2.569 2.503 2.503 0 0 0-2.568-2.429 2.495 2.495 0 0 0-2.424 2.569 2.487 2.487 0 0 0 2.568 2.429M34.99 148.315a2.498 2.498 0 0 0 2.428-2.567 2.506 2.506 0 0 0-2.568-2.434 2.507 2.507 0 0 0-2.43 2.575 2.499 2.499 0 0 0 2.57 2.426M36.055 161.972c-.536-.03-1 .133-1.362.42a106.29 106.29 0 0 0 3.565 3.505c.294-.389.445-.896.374-1.462-.14-1.29-1.3-2.39-2.577-2.463M19.623 25.868a35.14 35.14 0 0 0-1.298 1.354 2.123 2.123 0 0 0 1.298-1.354M17.045 44.201c1.385-.028 2.463-1.187 2.435-2.564a2.514 2.514 0 0 0-2.578-2.434 2.505 2.505 0 0 0-2.423 2.567 2.491 2.491 0 0 0 2.566 2.431M17.034 61.703a2.503 2.503 0 1 0-.144-5.005c-1.377.038-2.455 1.195-2.425 2.57a2.512 2.512 0 0 0 2.57 2.435M19.256 79.364a2.497 2.497 0 0 0 2.425-2.569 2.497 2.497 0 0 0-2.564-2.43 2.503 2.503 0 0 0-2.433 2.577 2.503 2.503 0 0 0 2.572 2.422M18.385 96.344a2.5 2.5 0 0 0 2.428-2.572 2.496 2.496 0 0 0-2.568-2.429 2.492 2.492 0 0 0-2.423 2.567 2.496 2.496 0 0 0 2.563 2.434M19.24 114.356a2.513 2.513 0 0 0 2.421-2.58 2.506 2.506 0 0 0-2.567-2.428 2.498 2.498 0 0 0-2.426 2.57 2.503 2.503 0 0 0 2.572 2.438M19.221 131.843a2.501 2.501 0 0 0-.14-5c-1.385.044-2.472 1.196-2.425 2.57a2.495 2.495 0 0 0 2.565 2.43M20.413 144.498a1.93 1.93 0 0 0-.405-.005 213.673 213.673 0 0 0 3.082 3.99c.172-.35.245-.778.161-1.265-.22-1.365-1.494-2.584-2.838-2.72M6.674 60.76c-.133-1.508-1.457-2.766-2.957-2.815-.003.003 0 0-.011-.006-.346 1.7-.623 3.388-.879 5.056a3 3 0 0 0 1.365.413c1.505.045 2.613-1.138 2.482-2.648M2.619 79.87a2.5 2.5 0 1 0-.141-5 2.494 2.494 0 0 0-2.425 2.568c.028 1.378 1.188 2.468 2.566 2.431M2.812 93.731a2.504 2.504 0 0 0-2.43 2.574 2.496 2.496 0 0 0 2.57 2.427 2.491 2.491 0 0 0 2.423-2.567c-.028-1.378-1.188-2.468-2.563-2.434M6.28 111.664c-.203-1.266-1.405-2.414-2.667-2.553a2.254 2.254 0 0 0-.74.05c.632 1.542 1.29 3.052 1.984 4.558.992-.115 1.607-.948 1.423-2.055"/></g></svg>