<svg width="333" height="345" xmlns="http://www.w3.org/2000/svg"><g fill="#00CFFF" fill-rule="evenodd"><path d="M8.056 44.82a2.996 2.996 0 0 0-4.234.117 3.004 3.004 0 0 0 .113 4.243c1.209 1.137 3.107 1.087 4.235-.122a2.98 2.98 0 0 0-.114-4.239M21.06 30.823a2.997 2.997 0 0 0-4.242.118 3.001 3.001 0 0 0 .122 4.24 2.996 2.996 0 0 0 4.239-.122 2.992 2.992 0 0 0-.118-4.236M35.057 15.819a3.006 3.006 0 0 0-4.243.118c-1.133 1.21-1.074 3.114.122 4.239a2.992 2.992 0 0 0 4.239-.114 2.99 2.99 0 0 0-.118-4.243M49.002 5.724c.553-.32.88-.71.998-1.116-2.023.43-4.02.882-6 1.383 1.54.61 3.676.525 5.002-.267M6.064 69.819a2.991 2.991 0 0 0-4.234.122 2.993 2.993 0 0 0 .11 4.245 3.009 3.009 0 0 0 4.242-.126 3.007 3.007 0 0 0-.118-4.241M20.058 56.812c-1.197-1.133-3.093-1.074-4.24.135a2.993 2.993 0 0 0 .123 4.235 2.994 2.994 0 0 0 4.235-.122 3 3 0 0 0-.118-4.248M34.055 42.817a2.997 2.997 0 0 0-4.233.118 3.013 3.013 0 0 0 .114 4.252 3.007 3.007 0 0 0 4.24-.127 2.991 2.991 0 0 0-.121-4.243M47.06 26.813a3.01 3.01 0 0 0-4.245.13 3 3 0 0 0 4.363 4.12 3.009 3.009 0 0 0-.118-4.25M61.06 13.824a3 3 0 0 0-4.245.114c-1.129 1.21-1.082 3.114.122 4.24a3.005 3.005 0 0 0 4.249-.118 2.998 2.998 0 0 0-.127-4.236M69.933 2.448c1.2.765 3.115.731 4.247-.079.934-.657 1.061-1.617.427-2.365-1.779-.017-3.55.015-5.303.11-.558.771-.347 1.72.63 2.334M5.061 96.82a3.002 3.002 0 0 0-4.246.122 3.005 3.005 0 0 0 .122 4.239 3.01 3.01 0 0 0 4.246-.118 3.006 3.006 0 0 0-.122-4.243M20.06 82.822a2.998 2.998 0 0 0-4.237.114 3.008 3.008 0 0 0 .113 4.248 3.008 3.008 0 0 0 4.247-.126 2.997 2.997 0 0 0-.122-4.236M32.06 67.82a3.002 3.002 0 0 0-4.241.118 3.01 3.01 0 0 0 .118 4.246 3 3 0 0 0 4.236-.122 2.99 2.99 0 0 0-.114-4.242M47.058 52.815c-1.201-1.137-3.097-1.074-4.24.126a3.005 3.005 0 0 0 .123 4.245 3.01 3.01 0 0 0 4.239-.122 3.006 3.006 0 0 0-.122-4.25M59.068 39.816a3.006 3.006 0 0 0-4.248.13 2.995 2.995 0 0 0 .123 4.24 3.01 3.01 0 0 0 4.239-.122 3.02 3.02 0 0 0-.114-4.248M72.063 24.82a3 3 0 0 0-4.126 4.357 2.994 2.994 0 0 0 4.24-.117 2.996 2.996 0 0 0-.114-4.24M87.06 9.82a2.993 2.993 0 0 0-4.237.122 3 3 0 0 0 .113 4.242 2.997 2.997 0 0 0 4.238-.127 2.988 2.988 0 0 0-.114-4.237M18.055 108.823c-1.196-1.15-3.094-1.082-4.235.122a2.997 2.997 0 1 0 4.361 4.112 2.986 2.986 0 0 0-.126-4.234M31.056 93.82a2.994 2.994 0 0 0-4.234.117 2.989 2.989 0 0 0 .122 4.239 2.982 2.982 0 0 0 4.234-.118 2.989 2.989 0 0 0-.122-4.239M45.055 79.812c-1.199-1.133-3.097-1.07-4.233.126a3.01 3.01 0 0 0 .113 4.247c1.212 1.134 3.115 1.08 4.243-.13 1.144-1.197 1.085-3.097-.123-4.243M59.056 64.82a2.994 2.994 0 0 0-4.24.123 3 3 0 0 0 4.358 4.122 2.99 2.99 0 0 0-.118-4.245M72.057 50.828a2.991 2.991 0 0 0-4.24.11 3.008 3.008 0 0 0 .122 4.245 2.992 2.992 0 0 0 4.24-.13 2.975 2.975 0 0 0-.122-4.225M85.065 36.819a3.002 3.002 0 1 0 .114 4.244 3.006 3.006 0 0 0-.114-4.244M98.063 21.822a2.995 2.995 0 0 0-4.24.118 2.992 2.992 0 0 0 .118 4.24 3.004 3.004 0 0 0 4.245-.119 3.007 3.007 0 0 0-.123-4.239M109.162 12.25c1.363.713 3.401.77 4.838.161-.995-.399-1.953-.804-3.002-1.218-.952-.369-1.932-.687-2.874-1.023-.335.72.006 1.524 1.038 2.08M29.06 120.821a3.01 3.01 0 0 0-4.244.11 3.012 3.012 0 0 0 .122 4.246 3.003 3.003 0 0 0 4.244-.113 3.003 3.003 0 0 0-.122-4.243M44.055 105.817c-1.192-1.133-3.091-1.082-4.237.118a3.01 3.01 0 0 0 .122 4.25 2.992 2.992 0 0 0 4.237-.131 2.984 2.984 0 0 0-.122-4.237M57.059 90.82a2.994 2.994 0 0 0-4.237.118 3.002 3.002 0 0 0 .114 4.242 3 3 0 1 0 4.123-4.36M72.063 76.82a3 3 0 0 0-4.127 4.357 3.01 3.01 0 0 0 4.25-.114 3.012 3.012 0 0 0-.123-4.242M84.06 62.82a3.004 3.004 0 0 0-4.245.121 3 3 0 0 0 .122 4.234 2.99 2.99 0 0 0 4.241-.117 2.993 2.993 0 0 0-.118-4.239M98.062 47.819a2.995 2.995 0 0 0-4.238.122 2.995 2.995 0 0 0 .114 4.24 2.995 2.995 0 0 0 4.238-.122 2.995 2.995 0 0 0-.114-4.24M111.064 33.822a2.992 2.992 0 0 0-4.24.122 2.99 2.99 0 0 0 .117 4.238 2.995 2.995 0 0 0 4.237-.123 2.997 2.997 0 0 0-.114-4.237M121.023 25.08c1.313 1.279 3.362 1.217 4.606-.138.138-.156.266-.327.371-.502a113.289 113.289 0 0 0-4.771-4.44c-.115.1-.234.194-.334.308-1.25 1.36-1.176 3.487.128 4.771M42.067 132.822a3.01 3.01 0 0 0-4.245.11c-1.138 1.213-1.091 3.113.118 4.25a2.997 2.997 0 0 0 4.236-.121 3 3 0 0 0-.11-4.24M55.06 118.82a2.994 2.994 0 0 0-4.236.118 2.998 2.998 0 1 0 4.358 4.12 2.997 2.997 0 0 0-.122-4.238M70.061 103.818a2.989 2.989 0 0 0-4.242.135 2.981 2.981 0 0 0 .118 4.222 2.992 2.992 0 0 0 4.242-.118 2.998 2.998 0 0 0-.118-4.239M83.058 88.822c-1.197-1.142-3.098-1.087-4.244.118a3.009 3.009 0 0 0 .122 4.24 2.994 2.994 0 0 0 4.24-.123 2.984 2.984 0 0 0-.118-4.235M97.058 74.813a3.005 3.005 0 0 0-4.239.127 3.008 3.008 0 0 0 .114 4.24 3.014 3.014 0 0 0 4.247-.113 3.012 3.012 0 0 0-.122-4.254M110.06 58.821a3.003 3.003 0 0 0-4.238.11 3.012 3.012 0 0 0 .114 4.25 3.006 3.006 0 0 0 4.246-.122 2.997 2.997 0 0 0-.123-4.238M125.06 44.818a2.999 2.999 0 0 0-4.239.122 2.996 2.996 0 1 0 4.348 4.125 2.994 2.994 0 0 0-.109-4.247M133.656 37.027c.656 1.053 1.581 1.236 2.344.623a87.244 87.244 0 0 0-2.462-5.65c-.757 1.448-.713 3.676.118 5.027M55.056 144.825a2.985 2.985 0 0 0-4.238.118 3.001 3.001 0 0 0 4.364 4.119 2.992 2.992 0 0 0-.126-4.237M68.059 129.82a2.996 2.996 0 0 0-4.237.118 3.006 3.006 0 0 0 .118 4.248c1.2 1.137 3.095 1.074 4.237-.13a2.986 2.986 0 0 0-.118-4.236M81.064 114.818a2.999 2.999 0 0 0-4.243.127c-1.134 1.2-1.092 3.101.118 4.235a3.014 3.014 0 0 0 4.243-.11c1.134-1.218 1.083-3.114-.118-4.252M95.066 100.818a3.008 3.008 0 0 0-4.247.122 3.005 3.005 0 0 0 .122 4.246 2.993 2.993 0 0 0 4.234-.13 2.994 2.994 0 0 0-.11-4.238M109.064 86.814a3.016 3.016 0 0 0-4.248.126 3.01 3.01 0 0 0 .122 4.243 3.008 3.008 0 0 0 4.248-.126 3.014 3.014 0 0 0-.122-4.243M123.065 72.817a3.01 3.01 0 0 0-4.245.122 3.001 3.001 0 0 0 4.36 4.122 3.009 3.009 0 0 0-.115-4.244M136.062 57.82a3.025 3.025 0 0 0-4.253.11c-1.122 1.21-1.075 3.112.13 4.242a2.99 2.99 0 0 0 4.241-.11 3.003 3.003 0 0 0-.118-4.241M66.06 155.813a3.012 3.012 0 0 0-4.24.122 3.016 3.016 0 0 0 .118 4.253c1.208 1.126 3.103 1.08 4.235-.13a2.995 2.995 0 0 0-.113-4.245M81.061 141.818a3.002 3.002 0 0 0-4.242.122 3 3 0 0 0 4.36 4.12 3 3 0 0 0-.118-4.242M95.061 126.819a2.997 2.997 0 0 0-4.239.122 3.004 3.004 0 0 0 .118 4.248 3.005 3.005 0 0 0 4.24-.131 2.997 2.997 0 0 0-.119-4.24M109.061 112.819a2.996 2.996 0 0 0-4.238.122c-1.142 1.193-1.087 3.102.114 4.24a3.005 3.005 0 0 0 4.242-.118 3.003 3.003 0 0 0-.118-4.244M122.063 97.82a2.993 2.993 0 0 0-4.239.123 2.993 2.993 0 0 0 .114 4.238 2.997 2.997 0 0 0 4.24-.122 2.997 2.997 0 0 0-.115-4.239M134.065 82.821a3.022 3.022 0 0 0-4.253.11 3.018 3.018 0 0 0 .13 4.25 2.994 2.994 0 0 0 4.236-.122 2.999 2.999 0 0 0-.113-4.238M145.707 69.925c-.813 1.21-.768 3.119.087 4.261.576.77 1.371.982 2.082.686-.15-1.845-.255-3.796-.378-5.852-.639-.102-1.308.19-1.791.905M79.06 167.818a3.004 3.004 0 0 0-4.125 4.366 3.004 3.004 0 0 0 4.248-.13 2.997 2.997 0 0 0-.122-4.236M92.06 151.817a3.002 3.002 0 0 0-4.124 4.362 3.006 3.006 0 0 0 4.245-.118 3.003 3.003 0 0 0-.122-4.244M107.064 138.823a3.001 3.001 0 1 0-4.125 4.358 2.996 2.996 0 0 0 4.238-.122 2.993 2.993 0 0 0-.113-4.236M120.06 123.813a3.007 3.007 0 0 0-4.243.13 3.006 3.006 0 0 0 .118 4.24 3.005 3.005 0 0 0 4.125-4.37M134.057 108.824c-1.196-1.137-3.105-1.095-4.238.11a3.014 3.014 0 0 0 .114 4.246c1.217 1.137 3.109 1.086 4.242-.118a2.984 2.984 0 0 0-.118-4.238M147.062 95.82a3 3 0 0 0-4.246.123 3.011 3.011 0 0 0 .118 4.242 3.005 3.005 0 0 0 4.246-.13 2.993 2.993 0 0 0-.118-4.234M91.06 178.819a2.992 2.992 0 0 0-4.235.122 2.987 2.987 0 0 0 .114 4.236 2.997 2.997 0 0 0 4.24-.114c1.144-1.197 1.081-3.106-.119-4.244M106.062 163.819a2.996 2.996 0 0 0-4.238.122 2.994 2.994 0 0 0 .114 4.24 3.01 3.01 0 0 0 4.247-.118 3.011 3.011 0 0 0-.123-4.244M119.058 149.814c-1.192-1.133-3.1-1.074-4.242.122a3.019 3.019 0 0 0 .118 4.247 3.006 3.006 0 0 0 4.246-.126 2.999 2.999 0 0 0-.122-4.243M133.061 135.822a2.996 2.996 0 0 0-4.243.122 3.003 3.003 0 0 0 .118 4.238 3.003 3.003 0 0 0 4.243-.123 2.995 2.995 0 0 0-.118-4.237M146.062 120.82a3.007 3.007 0 0 0-4.245.118 2.997 2.997 0 0 0 .122 4.235 2.985 2.985 0 0 0 4.237-.114 2.995 2.995 0 0 0-.114-4.239M160.063 106.818a3.014 3.014 0 0 0-4.251.122c-1.125 1.208-1.079 3.107.126 4.235a2.987 2.987 0 0 0 4.24-.118c1.141-1.195 1.086-3.094-.115-4.239M170.365 97.806a41.994 41.994 0 0 1-1.73-.624c.018.021.036.045.054.063a2.11 2.11 0 0 0 1.677.561M104.062 189.821a2.995 2.995 0 0 0-4.242.122 3.003 3.003 0 0 0 .118 4.243 3.008 3.008 0 0 0 4.247-.13c1.137-1.192 1.074-3.098-.123-4.235M117.065 175.82a3.008 3.008 0 0 0-4.246.117 3 3 0 1 0 4.359 4.122 3 3 0 0 0-.113-4.24M131.066 161.823a2.999 2.999 0 0 0-4.248.122c-1.137 1.192-1.082 3.1.126 4.237a2.99 2.99 0 0 0 4.232-.122c1.137-1.205 1.095-3.104-.11-4.237M145.06 146.82a2.994 2.994 0 0 0-4.24.125c-1.138 1.192-1.083 3.099.114 4.235a3.003 3.003 0 0 0 4.127-4.36M159.064 132.82a3.02 3.02 0 0 0-4.256.117 3.015 3.015 0 0 0 .13 4.241 2.994 2.994 0 0 0 4.236-.113 3 3 0 0 0-.11-4.246M171.06 118.826a3.004 3.004 0 0 0-4.246.11 3.017 3.017 0 0 0 .122 4.245 2.997 2.997 0 0 0 4.247-.13 2.984 2.984 0 0 0-.122-4.225M186.056 103.821a2.99 2.99 0 0 0-4.236.122 2.99 2.99 0 0 0 .122 4.235 2.996 2.996 0 1 0 4.114-4.357M103.96 219.065c1.445-1.194 1.376-3.106-.156-4.245-1.339-1-3.347-1.072-4.804-.287.578 1.793 1.173 3.604 1.751 5.448 1.152.101 2.351-.203 3.208-.916M117.063 201.819a3.004 3.004 0 0 0-4.245.122 3.005 3.005 0 0 0 .118 4.24 3.007 3.007 0 0 0 4.245-.118 3.006 3.006 0 0 0-.118-4.244M131.066 186.82a3.003 3.003 0 0 0-4.25.126 2.999 2.999 0 0 0 4.363 4.115 3.005 3.005 0 0 0-.113-4.241M143.063 172.82a3.007 3.007 0 0 0-4.245.117 3.005 3.005 0 0 0 .122 4.244 2.993 2.993 0 0 0 4.236-.122 2.995 2.995 0 0 0-.113-4.24M158.065 157.817a3 3 0 0 0-4.243.127 2.994 2.994 0 0 0 .118 4.24 3.006 3.006 0 0 0 4.239-.119 3.011 3.011 0 0 0-.114-4.248M171.067 144.821a3.012 3.012 0 0 0-4.253.118 2.997 2.997 0 0 0 .127 4.235 2.985 2.985 0 0 0 4.24-.118 3 3 0 0 0-.114-4.235M184.063 129.826a2.99 2.99 0 0 0-4.24.114 2.996 2.996 0 0 0 .118 4.243 3.006 3.006 0 0 0 4.24-.118c1.137-1.214 1.083-3.11-.118-4.24M197.058 114.818a2.996 2.996 0 0 0-4.237.123 3.005 3.005 0 0 0 .114 4.241 3.002 3.002 0 0 0 4.245-.126 2.992 2.992 0 0 0-.122-4.238M211 105.514c-1.001-.171-2.002-.345-3-.507.092.144.193.285.32.408.75.74 1.9.765 2.68.099M115.065 226.819a3.005 3.005 0 0 0-4.246.122 2.994 2.994 0 0 0 .118 4.234 2.999 2.999 0 0 0 4.241-.11 3.01 3.01 0 0 0-.113-4.246M128.059 213.82a3.01 3.01 0 0 0-4.24.11 3.012 3.012 0 0 0 .122 4.252 2.995 2.995 0 0 0 4.24-.127 2.992 2.992 0 0 0-.122-4.235M143.057 198.816a3.006 3.006 0 0 0-4.24.122 3 3 0 0 0 .119 4.234 2.991 2.991 0 0 0 4.244-.113 2.998 2.998 0 0 0-.123-4.243M156.063 184.813c-1.206-1.124-3.11-1.082-4.249.122a3.02 3.02 0 0 0 .122 4.249 3.009 3.009 0 0 0 4.245-.123c1.142-1.204 1.078-3.107-.118-4.248M169.059 169.815a3.008 3.008 0 0 0-4.242.123c-1.129 1.205-1.087 3.113.118 4.238a2.992 2.992 0 0 0 4.241-.118 2.995 2.995 0 0 0-.117-4.243M183.055 155.818a2.992 2.992 0 0 0-4.233.122c-1.146 1.2-1.082 3.098.118 4.239a2.993 2.993 0 0 0 4.237-.118 2.991 2.991 0 0 0-.122-4.243M196.06 141.819a2.997 2.997 0 0 0-4.239.122 2.993 2.993 0 0 0 .122 4.24 3 3 0 0 0 4.24-.118 3.005 3.005 0 0 0-.123-4.244M210.063 126.82a2.992 2.992 0 0 0-4.238.122 2.994 2.994 0 0 0 .114 4.242 3.006 3.006 0 0 0 4.246-.127 3.004 3.004 0 0 0-.122-4.237M224.061 112.821a3.013 3.013 0 0 0-4.246.11 3.02 3.02 0 0 0 .122 4.25 3 3 0 1 0 4.124-4.36M114.103 259.066c1.249-1.193 1.184-3.104-.135-4.242-1.332-1.139-3.426-1.096-4.67.122-.122.101-.205.224-.298.346a135.617 135.617 0 0 0 1.713 4.567c1.161.333 2.494.08 3.39-.793M128.068 240.819a3.004 3.004 0 0 0-4.245.122 2.993 2.993 0 0 0 .118 4.24 2.994 2.994 0 0 0 4.237-.122 3.004 3.004 0 0 0-.11-4.24M141.056 225.816c-1.196-1.138-3.092-1.075-4.238.122a3.01 3.01 0 0 0 .123 4.25 3.006 3.006 0 0 0 4.237-.127 2.998 2.998 0 0 0-.122-4.245M154.06 211.824a2.993 2.993 0 0 0-4.24.117 3.008 3.008 0 0 0 .118 4.246c1.205 1.13 3.111 1.079 4.24-.13a2.989 2.989 0 0 0-.117-4.233M169.061 196.822a2.99 2.99 0 0 0-4.238.122 2.992 2.992 0 0 0 .114 4.235 3.005 3.005 0 0 0 4.242-.114 3.002 3.002 0 0 0-.118-4.243M182.063 181.819a3.01 3.01 0 0 0-4.249.122c-1.128 1.204-1.082 3.109.127 4.238a3.007 3.007 0 0 0 4.24-.11 3.016 3.016 0 0 0-.118-4.25M196.052 167.818a2.995 2.995 0 0 0-4.232.118 3.005 3.005 0 0 0 .118 4.244c1.205 1.136 3.107 1.09 4.237-.127a2.976 2.976 0 0 0-.123-4.235M209.061 151.819a2.999 2.999 0 0 0-4.24.122 3 3 0 1 0 4.362 4.118c1.137-1.197 1.078-3.102-.122-4.24M222.065 138.823a2.998 2.998 0 0 0-4.246.122 2.997 2.997 0 0 0 .122 4.238 2.995 2.995 0 0 0 4.238-.127 2.995 2.995 0 0 0-.114-4.233M236.058 123.819a2.99 2.99 0 0 0-4.24.13c-1.137 1.192-1.082 3.087.122 4.228a2.992 2.992 0 0 0 4.24-.118 2.996 2.996 0 0 0-.122-4.24M248 113.862c-1-.384-2.003-.747-3-1.09.098.328.256.622.506.877a1.914 1.914 0 0 0 2.494.213M125.066 266.826a3.006 3.006 0 0 0-4.248.109c-1.13 1.204-1.088 3.11.118 4.247a3.01 3.01 0 0 0 4.248-.122 3.003 3.003 0 0 0-.118-4.234M141.058 250.828a2.993 2.993 0 0 0-4.242.11c-1.13 1.216-1.084 3.109.122 4.245a3.004 3.004 0 0 0 4.243-.122 2.987 2.987 0 0 0-.123-4.233M153.062 237.816a3 3 0 0 0-4.246.135 3.001 3.001 0 0 0 .126 4.24 3.02 3.02 0 0 0 4.238-.123 3.016 3.016 0 0 0-.118-4.252M167.062 222.815a3.005 3.005 0 0 0-4.12 4.373 3.013 3.013 0 0 0 4.238-.122 3.013 3.013 0 0 0-.118-4.251M180.064 208.817a2.993 2.993 0 0 0-4.243.134 2.983 2.983 0 0 0 .122 4.232 3.001 3.001 0 0 0 4.235-.118c1.145-1.204 1.082-3.107-.114-4.248M195.068 194.818a3.013 3.013 0 0 0-4.252.123 2.998 2.998 0 0 0 .126 4.237 2.994 2.994 0 0 0 4.24-.118 3.01 3.01 0 0 0-.114-4.242M208.058 179.816a2.999 2.999 0 0 0-4.24.127 3 3 0 0 0 .123 4.24 2.994 2.994 0 0 0 4.235-.126 2.992 2.992 0 0 0-.118-4.24M222.058 165.82a2.995 2.995 0 0 0-4.235.117 3.003 3.003 0 0 0 .114 4.244 3.002 3.002 0 0 0 4.243-.122 2.994 2.994 0 0 0-.122-4.24M235.063 151.825a2.998 2.998 0 0 0-4.245.114c-1.133 1.212-1.086 3.11.122 4.238a2.988 2.988 0 0 0 4.236-.118 2.988 2.988 0 0 0-.113-4.234M247.063 136.826a3 3 0 0 0-4.243.11 3.002 3.002 0 0 0 .122 4.244 2.979 2.979 0 0 0 4.234-.13 2.976 2.976 0 0 0-.113-4.224M263.055 121.818a2.992 2.992 0 0 0-4.237.126 3.001 3.001 0 0 0 .122 4.241c1.2 1.137 3.096 1.074 4.237-.126 1.145-1.2 1.086-3.092-.122-4.241M139.055 277.818a3.004 3.004 0 0 0-4.243.122c-1.125 1.213-1.078 3.112.122 4.248a3.029 3.029 0 0 0 4.251-.122 3.009 3.009 0 0 0-.13-4.248M152.057 262.828a2.984 2.984 0 0 0-4.236.11 3 3 0 0 0 .122 4.246 2.985 2.985 0 0 0 4.236-.135c1.145-1.19 1.082-3.084-.122-4.22M166.057 249.812a3.011 3.011 0 0 0-4.236.122 3 3 0 0 0 .118 4.242c1.201 1.139 3.11 1.092 4.24-.11a3.012 3.012 0 0 0-.122-4.254M178.061 234.82a2.999 2.999 0 0 0-4.242.122 3.004 3.004 0 0 0 .118 4.241 3.006 3.006 0 0 0 4.242-.122 3 3 0 0 0-.118-4.241M194.062 220.818a3.008 3.008 0 0 0-4.247.122 3.007 3.007 0 0 0 .122 4.241 3 3 0 0 0 4.239-.118 3 3 0 0 0-.114-4.245M206.06 205.82a2.998 2.998 0 0 0-4.242.122 2.998 2.998 0 0 0 .122 4.238 2.998 2.998 0 0 0 4.242-.122 2.998 2.998 0 0 0-.122-4.238M221.057 191.817c-1.196-1.137-3.096-1.078-4.237.122a2.992 2.992 0 0 0 .126 4.24 2.986 2.986 0 0 0 4.238-.126 2.995 2.995 0 0 0-.127-4.236M233.056 176.827a2.989 2.989 0 0 0-4.237.11 3 3 0 0 0 .127 4.247 3 3 0 0 0 4.236-.122 2.99 2.99 0 0 0-.126-4.235M247.06 162.822a2.988 2.988 0 0 0-4.237.122 2.988 2.988 0 0 0 .113 4.232 3.002 3.002 0 0 0 4.247-.114 3.002 3.002 0 0 0-.122-4.24M260.059 148.817a2.996 2.996 0 0 0-4.236.122 2.986 2.986 0 0 0 .123 4.24 2.992 2.992 0 0 0 4.235-.118 3.003 3.003 0 0 0-.122-4.244M276.057 133.816a3.001 3.001 0 0 0-4.241.127 3.012 3.012 0 0 0 .117 4.24 3 3 0 0 0 4.242-.126 2.99 2.99 0 0 0-.118-4.24M152.065 288.815a3.02 3.02 0 0 0-4.25.122c-1.13 1.204-1.083 3.111.126 4.236a2.994 2.994 0 0 0 4.242-.11 3.017 3.017 0 0 0-.118-4.248M165.054 274.818a2.992 2.992 0 0 0-4.234.123 3.006 3.006 0 0 0 .114 4.241 3.012 3.012 0 0 0 4.242-.114 2.998 2.998 0 0 0-.122-4.25M178.06 260.818a3.003 3.003 0 0 0-4.242.122 3.012 3.012 0 0 0 .118 4.245 2.996 2.996 0 0 0 4.241-.134 2.985 2.985 0 0 0-.118-4.233M191.058 245.821a3 3 0 0 0-4.118 4.363 3 3 0 0 0 4.24-.127 2.992 2.992 0 0 0-.122-4.236M205.058 232.816a3.007 3.007 0 0 0-4.242.122 3.009 3.009 0 0 0 .118 4.24 2.992 2.992 0 0 0 4.242-.123 2.99 2.99 0 0 0-.118-4.239M219.058 217.82a2.997 2.997 0 0 0-4.235.117 2.993 2.993 0 0 0 .122 4.244 2.993 2.993 0 0 0 4.235-.122 2.996 2.996 0 0 0-.122-4.24M232.055 202.824a2.974 2.974 0 0 0-4.231.122 2.991 2.991 0 0 0 .113 4.236 3.004 3.004 0 0 0 4.244-.122 2.987 2.987 0 0 0-.126-4.236M246.064 189.822a3.012 3.012 0 0 0-4.246.11 3.003 3.003 0 0 0 .122 4.242 2.987 2.987 0 0 0 4.238-.114 2.997 2.997 0 0 0-.114-4.238M259.056 173.818a2.998 2.998 0 0 0-4.238.122 3.005 3.005 0 0 0 .122 4.243c1.203 1.129 3.106 1.086 4.238-.118a2.999 2.999 0 0 0-.122-4.247M274.057 159.817a3.002 3.002 0 0 0-4.24.123 3 3 0 0 0 .125 4.24 2.992 2.992 0 0 0 4.233-.118 2.994 2.994 0 0 0-.118-4.245M287.062 144.817a3.003 3.003 0 0 0-4.118 4.37 3.006 3.006 0 0 0 4.24-.127 3.01 3.01 0 0 0-.122-4.243M164.062 300.818a3.002 3.002 0 0 0-4.242.122 2.992 2.992 0 0 0 .122 4.237 3 3 0 0 0 4.237-.11 3.01 3.01 0 0 0-.117-4.249M178.06 285.819a2.995 2.995 0 0 0-4.237.122 2.991 2.991 0 0 0 .122 4.242 2.995 2.995 0 0 0 4.237-.126 2.998 2.998 0 0 0-.122-4.238M190.064 271.819a3.002 3.002 0 0 0-4.126 4.362 3.002 3.002 0 0 0 4.126-4.362M205.065 256.82a3.02 3.02 0 0 0-4.251.113 3.018 3.018 0 0 0 .126 4.25 2.993 2.993 0 0 0 4.235-.126 2.995 2.995 0 0 0-.11-4.238M218.054 243.82a3.004 3.004 0 0 0-4.236.11 3.018 3.018 0 0 0 .118 4.251 3.008 3.008 0 0 0 4.249-.122 2.995 2.995 0 0 0-.131-4.239M230.056 228.813c-1.196-1.133-3.09-1.074-4.236.13a2.985 2.985 0 0 0 .122 4.232 2.99 2.99 0 0 0 4.237-.113 3.002 3.002 0 0 0-.123-4.249M245.058 214.818a2.992 2.992 0 0 0-4.232.122 2.99 2.99 0 0 0 .11 4.235c1.212 1.143 3.116 1.092 4.244-.113a3 3 0 0 0-.122-4.244M258.056 199.814a3 3 0 0 0-4.236.127c-1.132 1.2-1.09 3.106.114 4.239a3.002 3.002 0 1 0 4.122-4.366M272.06 185.82a2.998 2.998 0 1 0-4.118 4.358c1.208 1.137 3.107 1.091 4.231-.118a2.987 2.987 0 0 0-.114-4.24M285.057 171.818a3 3 0 0 0-4.118 4.36c1.21 1.137 3.11 1.091 4.24-.118a2.996 2.996 0 0 0-.122-4.242M300.06 156.819a3 3 0 0 0-4.24.122 2.996 2.996 0 0 0 .118 4.236 3.003 3.003 0 0 0 4.245-.114 3.006 3.006 0 0 0-.123-4.244M176.062 312.818a3 3 0 0 0-4.24.123 2.993 2.993 0 0 0 .118 4.237 2.987 2.987 0 0 0 4.236-.122 2.993 2.993 0 0 0-.114-4.238M189.056 297.821a2.985 2.985 0 0 0-4.234.122 2.994 2.994 0 0 0 .118 4.24 3.01 3.01 0 0 0 4.238-.114 3.001 3.001 0 0 0-.122-4.248M203.061 283.819a2.994 2.994 0 0 0-4.236.122 2.988 2.988 0 0 0 .118 4.24 2.999 2.999 0 1 0 4.118-4.362M216.062 268.819a3.001 3.001 0 0 0-4.242.122 2.993 2.993 0 0 0 .127 4.242c1.195 1.138 3.097 1.079 4.233-.126a2.999 2.999 0 0 0-.118-4.238M230.058 254.812a3 3 0 0 0-4.24.134 2.995 2.995 0 0 0 .122 4.236 3.005 3.005 0 0 0 4.244-.122 3.01 3.01 0 0 0-.126-4.248M244.06 240.818a3.007 3.007 0 0 0-4.244.122 3.008 3.008 0 0 0 .126 4.247 3.003 3.003 0 0 0 4.119-4.37M257.062 225.82a3.005 3.005 0 0 0-4.244.118 3.007 3.007 0 0 0 .126 4.25 3 3 0 0 0 4.118-4.367M271.059 211.825a2.999 2.999 0 0 0-4.24.11 3.012 3.012 0 0 0 .117 4.246c1.209 1.137 3.112 1.087 4.24-.13a2.975 2.975 0 0 0-.117-4.226M283.06 196.812c-1.196-1.132-3.098-1.073-4.239.13a2.997 2.997 0 1 0 4.356 4.114c1.145-1.2 1.086-3.094-.118-4.244M298.063 181.817a3.01 3.01 0 0 0-4.247.123 3.007 3.007 0 0 0 .122 4.24 2.996 2.996 0 0 0 4.239-.121c1.146-1.193 1.083-3.099-.114-4.242M311.058 168.82a2.99 2.99 0 0 0-4.236.122 2.998 2.998 0 0 0 .114 4.239 3 3 0 1 0 4.122-4.36M188.056 323.819a2.987 2.987 0 0 0-4.23.122 2.992 2.992 0 0 0 .113 4.24 3.002 3.002 0 0 0 4.243-.122 2.997 2.997 0 0 0-.126-4.24M202.06 308.819a3.003 3.003 0 0 0-4.244.122 3.007 3.007 0 0 0 .122 4.242 3.003 3.003 0 0 0 4.244-.126c1.137-1.192 1.082-3.097-.122-4.238M214.061 294.814c-1.204-1.141-3.107-1.07-4.24.134a2.995 2.995 0 1 0 4.353 4.11 2.997 2.997 0 0 0-.113-4.244M230.06 280.82a3.002 3.002 0 0 0-4.238.114 3.012 3.012 0 0 0 .118 4.254c1.205 1.125 3.109 1.079 4.242-.127a3 3 0 0 0-.122-4.24M242.06 266.813a3 3 0 0 0-4.242.135c-1.137 1.192-1.083 3.086.127 4.236a2.999 2.999 0 0 0 4.238-.126 3.008 3.008 0 0 0-.122-4.245M257.063 250.816a2.989 2.989 0 0 0-4.239.135c-1.142 1.19-1.091 3.084.114 4.233a3.004 3.004 0 0 0 4.125-4.368M270.06 237.824a3.006 3.006 0 0 0-4.245.11 3.015 3.015 0 0 0 .122 4.246 3.01 3.01 0 0 0 4.245-.114c1.137-1.219 1.082-3.112-.122-4.242M283.063 222.822a3 3 0 0 0-4.245.118 3.008 3.008 0 0 0 .122 4.247 3.002 3.002 0 0 0 4.236-.127 2.993 2.993 0 0 0-.113-4.238M296.06 208.819a3 3 0 1 0-4.119 4.363 3 3 0 0 0 4.12-4.363M309.062 194.821a3.008 3.008 0 0 0-4.242.11 3.016 3.016 0 0 0 .114 4.25 3.015 3.015 0 0 0 4.25-.118 3.007 3.007 0 0 0-.122-4.242M318.815 179.935a3.01 3.01 0 0 0 .122 4.242 3.012 3.012 0 0 0 4.253-.114c.54-.578.81-1.316.81-2.058-.333-.759-.68-1.505-1.025-2.264a3.012 3.012 0 0 0-4.16.194M200.992 335.885c-1.303-.81-3.352-.77-4.591.087-.155.111-.278.231-.401.351 1.995.498 3.99.942 5.976 1.374.118-.65-.2-1.326-.984-1.812M214.06 320.821a2.998 2.998 0 0 0-4.245.122 3.008 3.008 0 0 0 .122 4.24 3.005 3.005 0 0 0 4.245-.126 2.995 2.995 0 0 0-.122-4.236M227.063 306.824c-1.205-1.149-3.105-1.082-4.242.11a3.009 3.009 0 0 0 .117 4.248c1.205 1.137 3.11 1.082 4.234-.122a2.985 2.985 0 0 0-.11-4.236M240.058 291.815a3.013 3.013 0 0 0-4.243.122 3.007 3.007 0 0 0 .118 4.234 2.993 2.993 0 0 0 4.243-.11 3 3 0 0 0-.118-4.246M255.056 277.81c-1.196-1.128-3.092-1.07-4.237.123a3.016 3.016 0 0 0 .118 4.25 3 3 0 0 0 4.241-.126c1.146-1.2 1.083-3.1-.122-4.246M268.056 262.823a2.993 2.993 0 0 0-4.238.114 3.003 3.003 0 0 0 .123 4.243 2.993 2.993 0 0 0 4.237-.122 2.985 2.985 0 0 0-.122-4.235M282.054 249.82a2.992 2.992 0 0 0-4.236.121c-1.137 1.191-1.082 3.097.122 4.233a2.977 2.977 0 0 0 4.236-.122 2.977 2.977 0 0 0-.122-4.233M295.057 234.822a2.998 2.998 0 0 0-4.242.118 3.009 3.009 0 0 0 .122 4.242 3.007 3.007 0 0 0 4.247-.123 2.996 2.996 0 0 0-.127-4.237M309.057 220.822a2.993 2.993 0 0 0-4.241.122 2.993 2.993 0 0 0 .13 4.238 2.985 2.985 0 0 0 4.229-.123 2.985 2.985 0 0 0-.118-4.237M323.067 205.82a3.02 3.02 0 0 0-4.25.11c-1.134 1.21-1.083 3.114.123 4.248a3.005 3.005 0 0 0 4.249-.118 3.016 3.016 0 0 0-.122-4.24M227.059 333.818a3.013 3.013 0 0 0-4.244.114c-1.129 1.214-1.082 3.115.123 4.24a2.998 2.998 0 1 0 4.121-4.354M240.066 319.827a3.003 3.003 0 0 0-4.248.11 3.008 3.008 0 0 0 .122 4.247 2.984 2.984 0 0 0 4.236-.135c1.145-1.191 1.086-3.085-.11-4.222M253.056 304.818a3 3 0 0 0-4.24.122 3.003 3.003 0 0 0 .121 4.237 2.994 2.994 0 0 0 4.245-.122c1.137-1.192 1.083-3.1-.126-4.237M266.06 290.815c-1.205-1.129-3.104-1.082-4.237.122a3 3 0 0 0 .122 4.25c1.2 1.136 3.095 1.069 4.237-.123a3.01 3.01 0 0 0-.122-4.249M281.06 274.819a3.004 3.004 0 0 0-4.245.122c-1.129 1.206-1.082 3.115.122 4.24a3.003 3.003 0 0 0 4.245-.122c1.137-1.193 1.082-3.102-.122-4.24M294.056 260.82a2.992 2.992 0 0 0-4.238.123 3.003 3.003 0 0 0 .118 4.238c1.21 1.138 3.112 1.083 4.238-.122a2.984 2.984 0 0 0-.118-4.239M308.055 245.819a2.994 2.994 0 0 0-4.236.122 3.003 3.003 0 0 0 .118 4.24 2.994 2.994 0 0 0 4.236-.122 2.984 2.984 0 0 0-.118-4.24M321.06 232.82a2.997 2.997 0 0 0-4.239.118 3.007 3.007 0 0 0 .114 4.244 3.008 3.008 0 0 0 4.246-.122c1.142-1.2 1.079-3.103-.122-4.24M331.197 222.2c.357.48.8.736 1.26.8.027-2.034.009-4.026-.042-6-.483.08-.948.383-1.3.923-.812 1.213-.77 3.132.082 4.277M235.563 344.62c.633 0 1.26-.007 1.875-.04a2.123 2.123 0 0 0-1.875.04M252.06 331.825c-1.2-1.15-3.098-1.083-4.242.11a3.016 3.016 0 0 0 .122 4.252 3.006 3.006 0 0 0 4.234-.122 2.99 2.99 0 0 0-.114-4.24M266.067 316.818a3.004 3.004 0 1 0-4.124 4.369c1.2 1.136 3.096 1.069 4.237-.122a3.014 3.014 0 0 0-.113-4.247M279.06 301.818a2.997 2.997 0 0 0-4.238.123 2.996 2.996 0 0 0 .114 4.237 3.004 3.004 0 0 0 4.25-.122 3.004 3.004 0 0 0-.126-4.238M293.064 288.819a3 3 0 0 0-4.242.122 2.995 2.995 0 0 0 .118 4.24 2.99 2.99 0 0 0 4.234-.122 2.995 2.995 0 0 0-.11-4.24M307.06 273.808a3.015 3.015 0 0 0-4.244.135 3.008 3.008 0 0 0 .118 4.238 2.998 2.998 0 0 0 4.24-.122 3.004 3.004 0 0 0-.114-4.251M320.062 258.819a3.002 3.002 0 0 0-4.125 4.362c1.213 1.138 3.114 1.083 4.239-.122a2.994 2.994 0 0 0-.114-4.24M330.372 248.652c.09.136.183.25.282.348.237-2.027.45-4.02.642-6-.37.15-.723.451-1.008.936-.81 1.345-.771 3.46.084 4.716M273.84 326.087c-1.166 1.393-1.11 3.584.12 4.898.005 0 0 0 .005.015 1.736-1.15 3.403-2.347 5.035-3.545-.151-.555-.415-1.085-.808-1.509-1.239-1.315-3.182-1.251-4.352.141M293.062 313.819a3 3 0 1 0-4.122 4.362 2.993 2.993 0 0 0 4.236-.122c1.145-1.193 1.087-3.102-.114-4.24M301.934 303.181a3.005 3.005 0 0 0 4.246-.122 2.995 2.995 0 0 0-.122-4.24 2.99 2.99 0 0 0-4.233.122c-1.146 1.193-1.087 3.102.11 4.24M314.54 284.985c-.752 1.246-.713 3.24.081 4.43.164.246.358.43.558.585a156.322 156.322 0 0 0 1.821-5.552c-.783-.744-1.807-.559-2.46.537"/></g></svg>