<svg width="209" height="206" xmlns="http://www.w3.org/2000/svg"><g fill="#007AFF" fill-rule="evenodd"><path d="M6.219 44.682a2.497 2.497 0 0 0-3.532.102 2.495 2.495 0 0 0 .095 3.533 2.508 2.508 0 0 0 3.539-.098 2.51 2.51 0 0 0-.102-3.537M17.215 32.678c-.994-.944-2.584-.895-3.535.102a2.516 2.516 0 0 0 .098 3.54 2.505 2.505 0 0 0 3.539-.106 2.5 2.5 0 0 0-.102-3.536M30.218 19.685c-1.001-.948-2.581-.91-3.537.101a2.503 2.503 0 0 0 .099 3.532 2.502 2.502 0 0 0 3.536-.102 2.496 2.496 0 0 0-.098-3.531M42.219 6.683a2.498 2.498 0 1 0-3.436 3.628 2.487 2.487 0 0 0 3.53-.095c.952-1 .91-2.585-.094-3.533M4.219 67.684a2.502 2.502 0 0 0-3.437 3.638 2.507 2.507 0 0 0 3.538-.109c.948-.993.896-2.582-.101-3.529M16.22 55.683a2.507 2.507 0 0 0-3.537.098 2.5 2.5 0 1 0 3.632 3.435 2.5 2.5 0 0 0-.094-3.533M29.222 42.686a2.499 2.499 0 0 0-3.54.101 2.494 2.494 0 0 0 .105 3.531 2.491 2.491 0 0 0 3.526-.102 2.496 2.496 0 0 0-.091-3.53M41.217 29.683a2.495 2.495 0 0 0-3.534.105 2.5 2.5 0 0 0 .095 3.529 2.502 2.502 0 0 0 3.44-3.634M53.22 17.683a2.517 2.517 0 0 0-3.546.098 2.513 2.513 0 0 0 .108 3.534 2.495 2.495 0 0 0 3.53-.094 2.5 2.5 0 0 0-.092-3.538M64.217 4.688a2.503 2.503 0 0 0-3.539.092 2.514 2.514 0 0 0 .102 3.538 2.497 2.497 0 0 0 3.54-.11 2.486 2.486 0 0 0-.103-3.52M4.133 94.221c1.205-.995 1.147-2.588-.13-3.538-1.115-.833-2.789-.893-4.003-.24.482 1.496.977 3.004 1.46 4.541.959.085 1.959-.169 2.673-.763M16.219 78.682a2.503 2.503 0 0 0-3.44 3.635 2.506 2.506 0 0 0 3.538-.098 2.505 2.505 0 0 0-.098-3.537M28.221 65.683a2.503 2.503 0 0 0-3.54.105 2.5 2.5 0 0 0 3.636 3.43 2.504 2.504 0 0 0-.096-3.535M39.219 52.683a2.506 2.506 0 0 0-3.537.098 2.504 2.504 0 0 0 .101 3.537 2.494 2.494 0 0 0 3.53-.102 2.496 2.496 0 0 0-.094-3.533M52.22 39.681a2.5 2.5 0 0 0-3.535.105c-.948 1-.91 2.586.098 3.533a2.505 2.505 0 0 0 3.533-.098 2.51 2.51 0 0 0-.095-3.54M64.223 27.685a2.51 2.51 0 0 0-3.544.098 2.498 2.498 0 0 0 .105 3.528 2.488 2.488 0 0 0 3.533-.098 2.5 2.5 0 0 0-.094-3.528M76.22 14.688a2.492 2.492 0 0 0-3.534.095 2.496 2.496 0 0 0 .098 3.536 2.505 2.505 0 0 0 3.534-.099 2.501 2.501 0 0 0-.098-3.532M87.215 1.682a2.496 2.496 0 0 0-3.531.102c-.948 1-.906 2.583.095 3.534a2.502 2.502 0 0 0 3.538-.105 2.494 2.494 0 0 0-.102-3.531M14.22 101.682a2.504 2.504 0 0 0-3.537.102 2.495 2.495 0 0 0 .098 3.529 2.5 2.5 0 1 0 3.44-3.63M26.216 88.683a2.508 2.508 0 0 0-3.534.092 2.51 2.51 0 0 0 .102 3.543 2.496 2.496 0 0 0 3.534-.105c.948-1.001.902-2.581-.102-3.53M39.215 75.68a2.505 2.505 0 0 0-3.534.101 2.5 2.5 0 0 0 .099 3.53 2.493 2.493 0 0 0 3.536-.095 2.498 2.498 0 0 0-.101-3.536M51.219 63.678a2.518 2.518 0 0 0-3.54.101 2.516 2.516 0 0 0 .101 3.54 2.507 2.507 0 0 0 3.537-.101 2.51 2.51 0 0 0-.098-3.54M62.215 50.68a2.507 2.507 0 0 0-3.534.101c-.94 1.004-.906 2.595.098 3.532 1.011.955 2.59.906 3.535-.098a2.496 2.496 0 0 0-.099-3.536M75.212 37.682a2.493 2.493 0 0 0-3.527.101c-.955 1-.902 2.582.098 3.533 1 .947 2.587.908 3.531-.099a2.493 2.493 0 0 0-.102-3.535M87.217 25.682a2.498 2.498 0 0 0-3.533.102 2.494 2.494 0 0 0 .102 3.533 2.5 2.5 0 0 0 3.532-.098c.948-1.001.902-2.588-.101-3.537M99.219 11.683c-1-.947-2.59-.905-3.531.102a2.495 2.495 0 0 0 .095 3.535 2.505 2.505 0 0 0 3.538-.106 2.503 2.503 0 0 0-.102-3.53M111.218-.315a2.511 2.511 0 0 0-3.539.09 2.516 2.516 0 0 0 .102 3.543 2.5 2.5 0 1 0 3.436-3.633M13.252 129.222c1.041-.995.987-2.587-.112-3.535-1.11-.95-2.855-.914-3.892.101-.101.085-.17.187-.248.289.464 1.293.933 2.568 1.428 3.805.967.278 2.078.067 2.824-.66M26.223 113.682a2.504 2.504 0 0 0-3.537.102 2.494 2.494 0 0 0 .098 3.534 2.495 2.495 0 0 0 3.53-.102 2.504 2.504 0 0 0-.09-3.534M37.214 99.68c-.997-.948-2.577-.896-3.532.102a2.509 2.509 0 0 0 .102 3.541c1 .942 2.587.896 3.531-.105a2.498 2.498 0 0 0-.101-3.538M49.217 87.686a2.494 2.494 0 0 0-3.534.099 2.507 2.507 0 0 0 .098 3.538 2.504 2.504 0 0 0 3.535-.109 2.49 2.49 0 0 0-.099-3.528M62.218 74.685a2.491 2.491 0 0 0-3.532.102 2.493 2.493 0 0 0 .094 3.529 2.504 2.504 0 0 0 3.536-.095 2.502 2.502 0 0 0-.098-3.536M74.22 60.682a2.508 2.508 0 0 0-3.541.102c-.94 1.004-.902 2.59.105 3.531a2.506 2.506 0 0 0 3.534-.09 2.513 2.513 0 0 0-.098-3.543M87.21 47.682a2.496 2.496 0 0 0-3.527.098 2.504 2.504 0 0 0 .098 3.536 2.488 2.488 0 0 0 3.531-.105 2.48 2.48 0 0 0-.102-3.529M98.218 34.682a2.5 2.5 0 0 0-3.534.102 2.5 2.5 0 1 0 3.635 3.432 2.503 2.503 0 0 0-.101-3.534M109.221 22.685a2.498 2.498 0 0 0-3.539.102 2.497 2.497 0 1 0 3.634 3.427 2.496 2.496 0 0 0-.095-3.529M122.215 9.682a2.491 2.491 0 0 0-3.533.109 2.488 2.488 0 0 0 .102 3.523c1.01.954 2.589.905 3.533-.098.95-1 .902-2.583-.102-3.534M133-.138c-1-.384-2.003-.747-3-1.09.098.328.256.622.506.877A1.914 1.914 0 0 0 133-.138M23.222 136.688a2.505 2.505 0 0 0-3.54.091 2.512 2.512 0 0 0 .098 3.54 2.509 2.509 0 0 0 3.54-.102 2.502 2.502 0 0 0-.098-3.529M37.215 122.69a2.494 2.494 0 0 0-3.535.091 2.508 2.508 0 0 0 .102 3.538 2.504 2.504 0 0 0 3.535-.102 2.49 2.49 0 0 0-.102-3.527M48.219 111.68a2.5 2.5 0 0 0-3.54.112 2.5 2.5 0 0 0 .106 3.534 2.516 2.516 0 0 0 3.532-.102 2.513 2.513 0 0 0-.098-3.544M61.219 97.68a2.504 2.504 0 0 0-3.434 3.644 2.51 2.51 0 0 0 3.532-.103 2.511 2.511 0 0 0-.098-3.542M72.22 84.68a2.494 2.494 0 0 0-3.536.113 2.486 2.486 0 0 0 .102 3.526 2.501 2.501 0 0 0 3.434-3.638M85.223 72.682a2.51 2.51 0 0 0-3.543.102 2.498 2.498 0 0 0 .105 3.531c1 .948 2.585.91 3.533-.098a2.508 2.508 0 0 0-.095-3.535M97.215 59.68a2.499 2.499 0 0 0-3.533.105 2.5 2.5 0 0 0 .102 3.535c1.001.947 2.585.898 3.53-.106a2.493 2.493 0 0 0-.099-3.534M109.215 46.683a2.496 2.496 0 0 0-3.53.098c-.95 1.001-.905 2.588.095 3.537a2.502 2.502 0 0 0 3.536-.102 2.495 2.495 0 0 0-.101-3.533M121.219 34.688a2.499 2.499 0 1 0-3.436 3.626 2.49 2.49 0 0 0 3.53-.098 2.49 2.49 0 0 0-.094-3.528M132.219 20.688a2.5 2.5 0 0 0-3.536.092 2.501 2.501 0 0 0 .102 3.536 2.482 2.482 0 0 0 3.529-.108 2.48 2.48 0 0 0-.095-3.52M146.212 7.681a2.501 2.501 0 0 0-3.429 3.64 2.5 2.5 0 0 0 3.531-.105c.955-1 .906-2.576-.102-3.535M35.212 146.682c-1-.948-2.58-.902-3.535.101-.938 1.01-.899 2.593.102 3.54a2.524 2.524 0 0 0 3.542-.101 2.507 2.507 0 0 0-.109-3.54M47.214 133.69a2.487 2.487 0 0 0-3.53.092 2.5 2.5 0 0 0 .102 3.538 2.487 2.487 0 0 0 3.53-.112c.954-.993.901-2.57-.102-3.518M60.214 120.676a2.51 2.51 0 0 0-3.53.102 2.5 2.5 0 0 0 .099 3.535 2.5 2.5 0 0 0 3.533-.09 2.51 2.51 0 0 0-.102-3.547M71.218 107.683a2.499 2.499 0 0 0-3.535.102 2.503 2.503 0 0 0 .098 3.534 2.505 2.505 0 0 0 3.535-.101 2.5 2.5 0 0 0-.098-3.535M84.218 95.682a2.507 2.507 0 0 0-3.539.102 2.506 2.506 0 0 0 .102 3.534 2.5 2.5 0 0 0 3.532-.099 2.5 2.5 0 0 0-.095-3.537M96.217 82.683a2.499 2.499 0 1 0-3.434 3.633 2.498 2.498 0 1 0 3.434-3.633M109.214 69.68a2.5 2.5 0 0 0-3.531.102c-.948 1-.906 2.58.105 3.534a2.488 2.488 0 0 0 3.532-.105 2.495 2.495 0 0 0-.106-3.53M119.213 56.69a2.49 2.49 0 0 0-3.53.09 2.5 2.5 0 0 0 .105 3.54 2.5 2.5 0 0 0 3.53-.102 2.491 2.491 0 0 0-.105-3.529M132.217 44.685a2.49 2.49 0 0 0-3.531.102 2.49 2.49 0 0 0 .094 3.526 2.501 2.501 0 0 0 3.54-.095 2.502 2.502 0 0 0-.103-3.533M144.216 31.681a2.497 2.497 0 0 0-3.53.102 2.489 2.489 0 0 0 .102 3.533c1.001.948 2.581.906 3.53-.098a2.502 2.502 0 0 0-.102-3.537M157.214 18.68a2.501 2.501 0 0 0-3.534.105c-.941 1-.902 2.58.098 3.535a2.5 2.5 0 0 0 3.534-.106 2.491 2.491 0 0 0-.098-3.534M47.22 155.679a2.517 2.517 0 0 0-3.541.102c-.94 1.003-.902 2.593.105 3.53a2.495 2.495 0 0 0 3.535-.092 2.514 2.514 0 0 0-.098-3.54M58.211 143.682a2.493 2.493 0 0 0-3.527.102 2.505 2.505 0 0 0 .094 3.534 2.51 2.51 0 0 0 3.535-.094 2.498 2.498 0 0 0-.102-3.542M71.216 130.681c-1-.946-2.58-.9-3.534.102a2.51 2.51 0 0 0 .098 3.538 2.496 2.496 0 0 0 3.534-.112 2.488 2.488 0 0 0-.098-3.528M82.215 117.684a2.5 2.5 0 0 0-3.432 3.635 2.5 2.5 0 0 0 3.534-.104 2.493 2.493 0 0 0-.102-3.53M94.215 105.68a2.506 2.506 0 0 0-3.535.102 2.507 2.507 0 0 0 .098 3.532 2.493 2.493 0 0 0 3.535-.101 2.491 2.491 0 0 0-.098-3.533M107.215 92.683a2.497 2.497 0 0 0-3.53.098 2.494 2.494 0 0 0 .102 3.537 2.494 2.494 0 0 0 3.53-.102 2.497 2.497 0 0 0-.102-3.533M119.212 79.687c-1-.951-2.582-.912-3.526.102a2.493 2.493 0 0 0 .095 3.53 2.504 2.504 0 0 0 3.536-.102 2.49 2.49 0 0 0-.105-3.53M131.22 67.685a2.51 2.51 0 0 0-3.538.091 2.502 2.502 0 0 0 .102 3.536c1.007.955 2.59.91 3.53-.095a2.498 2.498 0 0 0-.094-3.532M143.213 53.682a2.498 2.498 0 0 0-3.532.101 2.504 2.504 0 0 0 .102 3.536 2.499 2.499 0 1 0 3.43-3.638M156.214 40.681a2.502 2.502 0 0 0-3.534.102 2.5 2.5 0 0 0 .105 3.534c1 .949 2.58.903 3.527-.098a2.495 2.495 0 0 0-.098-3.538M167.218 28.68a2.502 2.502 0 0 0-3.431 3.642 2.505 2.505 0 0 0 3.533-.105c.945-1 .9-2.588-.102-3.536M58.218 166.682a2.501 2.501 0 0 0-3.535.102 2.493 2.493 0 0 0 .102 3.53 2.5 2.5 0 0 0 3.531-.09 2.508 2.508 0 0 0-.098-3.542M71.216 153.682a2.496 2.496 0 0 0-3.53.102 2.493 2.493 0 0 0 .102 3.535c1 .948 2.579.9 3.53-.105a2.498 2.498 0 0 0-.102-3.532M81.22 140.682a2.502 2.502 0 0 0-3.438 3.636 2.502 2.502 0 0 0 3.438-3.636M94.221 127.683a2.517 2.517 0 0 0-3.543.095 2.515 2.515 0 0 0 .105 3.542 2.494 2.494 0 0 0 3.53-.106 2.496 2.496 0 0 0-.092-3.531M106.212 115.683a2.504 2.504 0 0 0-3.53.092 2.515 2.515 0 0 0 .098 3.543 2.507 2.507 0 0 0 3.54-.102 2.496 2.496 0 0 0-.108-3.533M117.214 102.678c-.997-.945-2.576-.896-3.53.109a2.488 2.488 0 0 0 .1 3.526c1.001.955 2.59.906 3.531-.095a2.502 2.502 0 0 0-.101-3.54M130.215 89.681a2.494 2.494 0 0 0-3.527.102 2.492 2.492 0 0 0 .091 3.53 2.5 2.5 0 1 0 3.436-3.632M141.214 76.679a2.5 2.5 0 0 0-3.53.105c-.944 1-.91 2.589.094 3.533a2.501 2.501 0 1 0 3.435-3.638M154.216 63.684a2.499 2.499 0 1 0-3.431 3.63c1.007.949 2.59.91 3.526-.098a2.49 2.49 0 0 0-.095-3.532M166.214 51.682a2.5 2.5 0 0 0-3.431 3.633c1.008.948 2.592.91 3.533-.098a2.497 2.497 0 0 0-.102-3.535M179.217 38.682a2.5 2.5 0 0 0-3.534.102 2.497 2.497 0 0 0 .098 3.53 2.503 2.503 0 0 0 3.538-.095 2.505 2.505 0 0 0-.102-3.537M68.219 177.682a2.5 2.5 0 0 0-3.534.102 2.494 2.494 0 0 0 .098 3.531 2.489 2.489 0 0 0 3.53-.101 2.494 2.494 0 0 0-.094-3.532M80.213 164.684a2.488 2.488 0 0 0-3.528.102 2.495 2.495 0 0 0 .098 3.533c1.001.947 2.584.898 3.532-.095a2.5 2.5 0 0 0-.102-3.54M93.218 151.682a2.495 2.495 0 0 0-3.53.102 2.49 2.49 0 0 0 .098 3.534 2.499 2.499 0 1 0 3.432-3.636M104.219 138.682a2.5 2.5 0 1 0-3.43 3.637 2.493 2.493 0 0 0 3.528-.105 2.5 2.5 0 0 0-.098-3.532M117.215 125.676a2.5 2.5 0 0 0-3.533.113 2.496 2.496 0 0 0 .101 3.53 2.504 2.504 0 0 0 3.537-.102 2.508 2.508 0 0 0-.105-3.54M129.217 113.681a2.506 2.506 0 0 0-3.537.102 2.507 2.507 0 0 0 .105 3.54 2.502 2.502 0 0 0 3.432-3.642M141.218 99.684a2.504 2.504 0 0 0-3.537.098 2.506 2.506 0 0 0 .106 3.54 2.5 2.5 0 0 0 3.432-3.639M153.216 87.687a2.499 2.499 0 0 0-3.534.092 2.51 2.51 0 0 0 .098 3.538 2.49 2.49 0 0 0 3.534-.108c.954-1.001.905-2.577-.098-3.522M164.216 74.677a2.502 2.502 0 0 0-3.532.109 2.497 2.497 0 1 0 3.63 3.427c.954-1 .905-2.578-.098-3.536M177.22 60.681a2.509 2.509 0 0 0-3.54.102 2.506 2.506 0 0 0 .101 3.534 2.497 2.497 0 0 0 3.533-.101c.955-.995.903-2.583-.095-3.535M189.215 49.683a2.492 2.492 0 0 0-3.53.102 2.498 2.498 0 1 0 3.632 3.434 2.5 2.5 0 0 0-.102-3.536M79.213 187.682a2.49 2.49 0 0 0-3.525.102 2.494 2.494 0 0 0 .094 3.534 2.502 2.502 0 0 0 3.537-.102 2.497 2.497 0 0 0-.106-3.534M92.217 174.682a2.503 2.503 0 0 0-3.537.102 2.506 2.506 0 0 0 .102 3.535 2.503 2.503 0 0 0 3.536-.105 2.499 2.499 0 0 0-.101-3.532M103.218 161.678a2.497 2.497 0 0 0-3.533.112 2.495 2.495 0 1 0 3.628 3.424c.95-1 .912-2.589-.095-3.536M116.216 149.683c-1-.948-2.58-.903-3.531.095a2.51 2.51 0 0 0 .098 3.545 2.5 2.5 0 0 0 3.433-3.64M128.217 136.678a2.5 2.5 0 0 0-3.535.112c-.948.993-.903 2.572.105 3.53 1 .947 2.577.898 3.532-.105.948-1 .899-2.59-.102-3.537M141.22 122.68a2.49 2.49 0 0 0-3.533.112c-.952.993-.91 2.57.095 3.528a2.504 2.504 0 0 0 3.437-3.64M152.216 111.686a2.505 2.505 0 0 0-3.537.092 2.513 2.513 0 0 0 .102 3.538 2.508 2.508 0 0 0 3.537-.094 2.501 2.501 0 0 0-.102-3.536M164.219 97.685a2.5 2.5 0 1 0-3.436 3.637 2.502 2.502 0 0 0 3.53-.105 2.494 2.494 0 0 0-.094-3.532M176.217 84.682a2.5 2.5 0 1 0-3.433 3.636 2.5 2.5 0 0 0 3.433-3.636M187.218 72.685a2.507 2.507 0 0 0-3.535.09 2.514 2.514 0 0 0 .095 3.543 2.512 2.512 0 0 0 3.542-.099 2.506 2.506 0 0 0-.102-3.534M196.68 59.779a2.508 2.508 0 0 0 .101 3.535 2.51 2.51 0 0 0 3.544-.095c.45-.481.675-1.096.675-1.715-.278-.632-.566-1.254-.854-1.887a2.51 2.51 0 0 0-3.467.162M90.16 197.885c-1.085-.81-2.794-.77-3.826.087-.129.111-.232.231-.334.351 1.663.498 3.325.942 4.98 1.374.099-.65-.167-1.326-.82-1.812M103.216 184.684a2.498 2.498 0 0 0-3.537.102 2.507 2.507 0 0 0 .102 3.534 2.505 2.505 0 0 0 3.537-.105 2.496 2.496 0 0 0-.102-3.53M114.219 171.687a2.502 2.502 0 0 0-3.535.091 2.507 2.507 0 0 0 .098 3.54 2.494 2.494 0 0 0 3.528-.101 2.488 2.488 0 0 0-.091-3.53M125.215 158.679a2.51 2.51 0 0 0-3.536.102 2.505 2.505 0 0 0 .098 3.528 2.494 2.494 0 0 0 3.536-.09 2.5 2.5 0 0 0-.098-3.54M139.213 146.676c-.996-.941-2.576-.892-3.53.101a2.513 2.513 0 0 0 .098 3.543 2.5 2.5 0 0 0 3.534-.106c.955-1 .902-2.584-.102-3.538M151.213 133.686a2.495 2.495 0 0 0-3.531.095 2.502 2.502 0 0 0 .102 3.536 2.494 2.494 0 0 0 3.531-.102 2.487 2.487 0 0 0-.102-3.529M164.211 120.683a2.493 2.493 0 0 0-3.53.101 2.494 2.494 0 0 0 .102 3.528 2.48 2.48 0 0 0 3.53-.102 2.48 2.48 0 0 0-.102-3.527M175.214 107.685a2.498 2.498 0 1 0-3.433 3.633 2.506 2.506 0 0 0 3.539-.102 2.497 2.497 0 0 0-.106-3.531M187.214 95.685a2.494 2.494 0 0 0-3.534.101 2.495 2.495 0 0 0 .109 3.532c1 .948 2.58.902 3.523-.102a2.488 2.488 0 0 0-.098-3.531M199.222 82.684a2.517 2.517 0 0 0-3.54.09 2.509 2.509 0 0 0 .101 3.54 2.504 2.504 0 0 0 3.541-.098 2.513 2.513 0 0 0-.102-3.532M114.216 196.682c-1.001-.948-2.588-.9-3.536.095-.942 1.011-.903 2.595.101 3.533a2.498 2.498 0 1 0 3.434-3.628M125.222 183.69a2.502 2.502 0 0 0-3.54.09 2.507 2.507 0 0 0 .101 3.54 2.487 2.487 0 0 0 3.53-.113 2.482 2.482 0 0 0-.091-3.518M138.213 170.682a2.5 2.5 0 0 0-3.534.102 2.503 2.503 0 0 0 .102 3.53 2.495 2.495 0 0 0 3.538-.101 2.494 2.494 0 0 0-.106-3.531M149.216 157.68a2.503 2.503 0 0 0-3.428 3.642c1 .947 2.579.891 3.53-.102a2.509 2.509 0 0 0-.102-3.54M162.216 143.682a2.503 2.503 0 0 0-3.537.102c-.94 1.005-.902 2.596.102 3.534a2.5 2.5 0 1 0 3.436-3.635M174.213 130.684a2.493 2.493 0 0 0-3.531.101 2.496 2.496 0 1 0 3.63 3.43 2.487 2.487 0 0 0-.099-3.531M186.213 117.682a2.495 2.495 0 0 0-3.53.102 2.503 2.503 0 0 0 .097 3.534c1 .948 2.584.902 3.531-.102a2.487 2.487 0 0 0-.098-3.534M198.216 105.683a2.498 2.498 0 0 0-3.532.099 2.506 2.506 0 0 0 .095 3.536 2.507 2.507 0 0 0 3.539-.101c.951-1 .899-2.586-.102-3.534M207.197 96.333c.357.401.8.614 1.26.667a106.29 106.29 0 0 0-.042-5c-.483.067-.948.32-1.3.77-.812 1.01-.77 2.61.082 3.563M121.563 205.62c.632 0 1.26-.007 1.874-.04a2.123 2.123 0 0 0-1.874.04M136.217 193.688c-1-.96-2.582-.903-3.536.091a2.514 2.514 0 0 0 .102 3.544 2.505 2.505 0 0 0 3.528-.102 2.491 2.491 0 0 0-.094-3.533M149.222 181.681a2.503 2.503 0 1 0-3.437 3.64c1 .948 2.58.892 3.532-.1a2.512 2.512 0 0 0-.095-3.54M161.217 167.682a2.497 2.497 0 0 0-3.532.102 2.497 2.497 0 0 0 .095 3.531 2.503 2.503 0 0 0 3.542-.101 2.503 2.503 0 0 0-.105-3.532M173.22 155.682a2.5 2.5 0 0 0-3.535.102 2.496 2.496 0 0 0 .098 3.534 2.492 2.492 0 0 0 3.528-.102 2.496 2.496 0 0 0-.09-3.534M186.217 142.673a2.513 2.513 0 0 0-3.537.113 2.506 2.506 0 0 0 .098 3.532 2.498 2.498 0 0 0 3.534-.102 2.503 2.503 0 0 0-.095-3.543M197.218 129.682a2.501 2.501 0 0 0-3.437 3.636c1.011.948 2.595.902 3.532-.102a2.495 2.495 0 0 0-.095-3.534M206.372 119.71c.09.114.183.208.282.29.237-1.689.45-3.35.642-5a2.038 2.038 0 0 0-1.008.78c-.81 1.12-.771 2.884.084 3.93M156.7 189.906c-.972 1.16-.925 2.986.1 4.082.004 0 0 0 .004.012a105.897 105.897 0 0 0 4.196-2.954 3 3 0 0 0-.673-1.258c-1.033-1.095-2.652-1.042-3.627.118M173.219 177.682a2.5 2.5 0 1 0-3.435 3.635 2.494 2.494 0 0 0 3.53-.101c.954-.994.905-2.585-.095-3.534M180.778 169.318a2.504 2.504 0 0 0 3.539-.102 2.496 2.496 0 0 0-.102-3.534 2.491 2.491 0 0 0-3.528.102c-.955.994-.905 2.585.091 3.534M192.54 152.821c-.752 1.038-.713 2.7.081 3.691.164.205.358.36.558.488.644-1.537 1.246-3.07 1.821-4.627-.783-.62-1.807-.466-2.46.448"/></g></svg>