<svg width="215" height="184" xmlns="http://www.w3.org/2000/svg"><g fill="#C7C7D6" fill-rule="evenodd"><path d="M212.439 149.867c.785.5 1.83.266 2.327-.52a1.691 1.691 0 0 0-.518-2.333 1.682 1.682 0 0 0-2.328.523 1.678 1.678 0 0 0 .519 2.33M206.433 159.375a1.688 1.688 0 1 0 1.809-2.852 1.687 1.687 0 0 0-2.33.523 1.685 1.685 0 0 0 .52 2.33M200.105 169.784c.786.497 1.83.267 2.333-.521.496-.79.259-1.837-.523-2.33a1.685 1.685 0 0 0-2.33.518 1.684 1.684 0 0 0 .52 2.333M192.971 177.606c-.264.272-.395.566-.408.847a76.802 76.802 0 0 0 3.138-1.562c-.93-.238-2.1.047-2.73.715M210.724 135.01c.789.5 1.833.265 2.328-.523a1.685 1.685 0 0 0-.517-2.334 1.694 1.694 0 0 0-2.332.525c-.499.79-.263 1.829.521 2.332M203.827 144.195a1.69 1.69 0 0 0 2.329-.53c.5-.783.266-1.829-.523-2.327a1.686 1.686 0 0 0-2.327.522 1.69 1.69 0 0 0 .521 2.335M197.213 153.986c.785.498 1.83.266 2.327-.52.5-.79.267-1.832-.52-2.337a1.693 1.693 0 0 0-2.33.526 1.684 1.684 0 0 0 .523 2.331M192.064 165.336a1.69 1.69 0 1 0 1.808-2.86 1.69 1.69 0 0 0-1.808 2.86M185.162 174.512c.788.501 1.833.27 2.334-.52a1.692 1.692 0 0 0-2.859-1.808 1.688 1.688 0 0 0 .525 2.328M180.185 181.419c-.762-.378-1.815-.15-2.337.509-.431.536-.378 1.186.07 1.614.985-.18 1.96-.39 2.916-.643.21-.57-.03-1.177-.649-1.48M208.445 118.925a1.69 1.69 0 0 0 1.81-2.853 1.694 1.694 0 0 0-2.334.521 1.693 1.693 0 0 0 .524 2.332M201.217 129.004c.788.502 1.83.268 2.33-.518a1.694 1.694 0 0 0-.52-2.336 1.694 1.694 0 0 0-2.333.527 1.688 1.688 0 0 0 .523 2.327M196.113 138.841a1.69 1.69 0 1 0 1.81-2.855 1.69 1.69 0 0 0-2.33.523 1.684 1.684 0 0 0 .52 2.332M189.172 149.537a1.69 1.69 0 0 0 1.805-2.859 1.695 1.695 0 0 0-2.33.523c-.497.788-.27 1.83.525 2.336M182.877 158.434a1.692 1.692 0 0 0 1.81-2.86 1.695 1.695 0 0 0-2.33.524 1.7 1.7 0 0 0 .52 2.336M177.161 168.552a1.69 1.69 0 1 0 1.812-2.851 1.69 1.69 0 0 0-1.812 2.851M170.22 179.245c.787.502 1.83.265 2.33-.523s.27-1.83-.519-2.332a1.687 1.687 0 0 0-2.328.525c-.505.786-.27 1.83.518 2.33M199.224 113.532a1.68 1.68 0 0 0 2.328-.522 1.688 1.688 0 1 0-2.852-1.804 1.681 1.681 0 0 0 .524 2.326M193.507 123.656a1.686 1.686 0 1 0 1.804-2.85 1.68 1.68 0 0 0-2.327.52 1.683 1.683 0 0 0 .523 2.33M186.28 133.74a1.69 1.69 0 0 0 1.807-2.86 1.69 1.69 0 0 0-2.33.528 1.685 1.685 0 0 0 .523 2.332M179.948 144.142a1.689 1.689 0 1 0 1.805-2.85 1.689 1.689 0 0 0-1.805 2.85M173.944 153.648c.787.506 1.83.27 2.331-.516a1.694 1.694 0 0 0-.523-2.334 1.685 1.685 0 0 0-2.33.528 1.675 1.675 0 0 0 .522 2.322M167.937 163.162a1.69 1.69 0 1 0 1.812-2.854 1.69 1.69 0 0 0-1.812 2.854M162.506 173.894a1.687 1.687 0 0 0 2.33-.52 1.685 1.685 0 0 0-.52-2.33 1.692 1.692 0 0 0-2.333.52 1.693 1.693 0 0 0 .523 2.33M156.532 180.63c-.845-.327-1.979-.146-2.695.412.602.158 1.184.324 1.816.486.575.142 1.157.248 1.72.37.093-.514-.199-1.01-.84-1.268M191.508 108.184c.786.5 1.832.268 2.334-.516a1.696 1.696 0 0 0-.523-2.334 1.69 1.69 0 0 0-2.334.519 1.69 1.69 0 0 0 .523 2.331M184.284 118.266c.78.498 1.825.266 2.329-.52.5-.786.264-1.837-.524-2.336a1.685 1.685 0 0 0-2.328.528 1.68 1.68 0 0 0 .523 2.328M178.564 128.386a1.69 1.69 0 0 0 1.81-2.853 1.689 1.689 0 1 0-1.81 2.853M171.048 137.854a1.69 1.69 0 1 0 1.81-2.853 1.69 1.69 0 0 0-1.81 2.853M166.23 148.303a1.69 1.69 0 1 0 1.81-2.85 1.69 1.69 0 0 0-1.81 2.85M159.613 158.098c.788.5 1.83.266 2.33-.523a1.686 1.686 0 1 0-2.848-1.808 1.686 1.686 0 0 0 .518 2.331M153.609 167.606c.793.5 1.832.267 2.33-.523a1.686 1.686 0 1 0-2.849-1.807c-.5.79-.267 1.828.519 2.33M148.157 174.899a1.791 1.791 0 0 0-2.682.888 63.789 63.789 0 0 0 3.114 1.941c.052-.067.108-.132.151-.206a1.944 1.944 0 0 0-.583-2.623M182.608 101.896a1.695 1.695 0 0 0 2.334-.517 1.694 1.694 0 0 0-.522-2.337 1.688 1.688 0 0 0-2.328.523 1.69 1.69 0 0 0 .516 2.331M176.609 111.405c.785.5 1.83.268 2.328-.52a1.688 1.688 0 1 0-2.851-1.809 1.687 1.687 0 0 0 .523 2.329M169.666 122.099c.788.501 1.83.265 2.33-.53a1.679 1.679 0 0 0-.519-2.321 1.685 1.685 0 0 0-2.332.52 1.688 1.688 0 0 0 .52 2.331M163.337 132.503a1.689 1.689 0 1 0-.52-2.328 1.68 1.68 0 0 0 .52 2.328M157.335 142.017a1.692 1.692 0 0 0 1.81-2.857 1.697 1.697 0 0 0-2.334.52c-.501.792-.264 1.836.524 2.337M150.676 153.318a1.69 1.69 0 0 0 2.33-.516 1.696 1.696 0 0 0-.519-2.337 1.692 1.692 0 0 0-2.333.524c-.5.788-.266 1.827.522 2.329M143.448 163.4a1.69 1.69 0 0 0 1.809-2.856 1.687 1.687 0 0 0-2.325.52 1.686 1.686 0 0 0 .516 2.336M140.243 168.783c-.549-.497-1.181-.479-1.622-.042.681.928 1.432 1.871 2.24 2.806.347-.898.078-2.124-.618-2.764M173.676 97.114a1.68 1.68 0 0 0 2.33-.52 1.69 1.69 0 0 0-2.854-1.808c-.5.788-.267 1.83.524 2.328M167.957 107.239c.786.5 1.832.267 2.33-.52a1.687 1.687 0 1 0-2.85-1.808c-.5.785-.273 1.83.52 2.328M161.624 117.648c.788.499 1.833.264 2.332-.526a1.685 1.685 0 0 0-.52-2.328 1.697 1.697 0 0 0-2.334.516 1.7 1.7 0 0 0 .522 2.338M155.008 127.442a1.692 1.692 0 0 0 1.81-2.857 1.685 1.685 0 0 0-2.326.527 1.686 1.686 0 0 0 .516 2.33M148.394 137.24c.788.496 1.832.26 2.334-.527a1.695 1.695 0 0 0-.523-2.332 1.694 1.694 0 0 0-2.335.526c-.497.786-.26 1.83.524 2.332M141.777 147.033a1.69 1.69 0 1 0 1.813-2.857 1.69 1.69 0 0 0-1.813 2.857M136.06 157.151c.792.5 1.83.266 2.34-.517.49-.79.26-1.835-.528-2.33a1.684 1.684 0 0 0-2.332.516 1.69 1.69 0 0 0 .52 2.331M165.676 91.16c.788.497 1.83.258 2.33-.523a1.698 1.698 0 0 0-.522-2.339 1.689 1.689 0 0 0-2.327.528 1.686 1.686 0 0 0 .52 2.334M158.447 101.237a1.69 1.69 0 0 0 1.81-2.853 1.69 1.69 0 1 0-1.811 2.853M152.117 111.644a1.691 1.691 0 0 0 1.808-2.858 1.692 1.692 0 0 0-1.808 2.858M145.501 121.438c.79.5 1.83.266 2.33-.523a1.688 1.688 0 1 0-2.851-1.81 1.69 1.69 0 0 0 .521 2.333M139.782 131.56a1.685 1.685 0 0 0 2.33-.524 1.687 1.687 0 1 0-2.848-1.808 1.687 1.687 0 0 0 .518 2.331M134.064 141.68c.79.499 1.833.267 2.339-.517a1.7 1.7 0 0 0-.53-2.336 1.686 1.686 0 0 0-2.328.523 1.688 1.688 0 0 0 .519 2.33M128.818 150.481c.41-.774.175-1.823-.515-2.344-.465-.351-1.015-.366-1.455-.11.298 1 .577 2.065.88 3.185.435-.026.847-.273 1.09-.73M156.451 85.766a1.691 1.691 0 0 0 1.81-2.856 1.692 1.692 0 0 0-1.81 2.856M151.306 97.113a1.69 1.69 0 1 0 1.806-2.855 1.69 1.69 0 0 0-1.806 2.855M143.504 105.965a1.69 1.69 0 1 0 1.811-2.852 1.687 1.687 0 0 0-2.33.523 1.685 1.685 0 0 0 .519 2.33M138.075 116.704a1.693 1.693 0 0 0 1.81-2.858 1.693 1.693 0 0 0-1.81 2.858M131.46 126.492c.783.5 1.833.272 2.33-.516.499-.79.265-1.83-.519-2.334a1.69 1.69 0 0 0-1.811 2.85M125.454 136.004a1.69 1.69 0 0 0 2.333-.524 1.695 1.695 0 0 0-.52-2.332 1.692 1.692 0 0 0-1.813 2.856M149.024 81.028c.785.5 1.827.267 2.328-.522a1.682 1.682 0 0 0-.518-2.33 1.687 1.687 0 0 0-2.331.52 1.69 1.69 0 0 0 .52 2.332M141.468 92.007c.786.5 1.832.265 2.33-.523a1.686 1.686 0 0 0-.519-2.331 1.695 1.695 0 0 0-2.334.521 1.695 1.695 0 0 0 .523 2.333M135.468 101.518c.78.498 1.829.26 2.331-.523a1.7 1.7 0 0 0-.521-2.335 1.693 1.693 0 0 0-1.81 2.858M129.462 111.023c.786.5 1.83.27 2.332-.523.499-.78.266-1.83-.52-2.33a1.69 1.69 0 0 0-1.812 2.853M122.52 121.717a1.688 1.688 0 1 0 1.811-2.85 1.68 1.68 0 0 0-2.33.519 1.686 1.686 0 0 0 .518 2.33M116.516 131.227a1.697 1.697 0 0 0 2.336-.524 1.691 1.691 0 0 0-.525-2.327 1.682 1.682 0 0 0-2.33.52 1.688 1.688 0 0 0 .519 2.331M110.846 137.707c.414.056.826.118 1.229.19-.015-.011-.03-.025-.044-.034a1.425 1.425 0 0 0-1.185-.156M139.799 75.637a1.69 1.69 0 0 0 1.81-2.856 1.69 1.69 0 0 0-1.81 2.856M133.182 85.432a1.694 1.694 0 0 0 2.334-.52 1.689 1.689 0 1 0-2.852-1.81 1.69 1.69 0 0 0 .518 2.33M126.565 95.225a1.688 1.688 0 0 0 2.336-.524c.5-.78.265-1.83-.525-2.328a1.683 1.683 0 0 0-2.326.522 1.687 1.687 0 0 0 .515 2.33M120.239 105.634c.791.5 1.831.264 2.33-.526a1.689 1.689 0 0 0-.518-2.328 1.69 1.69 0 0 0-1.812 2.854M113.622 115.429a1.7 1.7 0 0 0 2.34-.523c.49-.79.257-1.83-.529-2.33a1.69 1.69 0 0 0-1.812 2.852M108.517 125.26c.79.504 1.831.27 2.336-.516a1.699 1.699 0 0 0-.524-2.334 1.687 1.687 0 0 0-2.333.529 1.68 1.68 0 0 0 .521 2.321M101.292 135.343c.784.5 1.828.27 2.329-.523.499-.79.268-1.829-.523-2.327a1.687 1.687 0 1 0-1.806 2.85M136.75 59.605c-.67.815-.426 1.864.543 2.33.847.408 1.965.232 2.686-.358-.513-.93-1.036-1.866-1.553-2.823-.648.067-1.278.364-1.675.85M130.861 70.86a1.691 1.691 0 0 0 1.812-2.855 1.693 1.693 0 0 0-2.333.521c-.5.791-.265 1.834.521 2.333M123.632 80.94a1.691 1.691 0 0 0 1.81-2.855 1.689 1.689 0 0 0-2.329.522c-.5.788-.268 1.83.519 2.332M119.14 90.49c.79.499 1.83.265 2.334-.522a1.692 1.692 0 0 0-.524-2.332 1.685 1.685 0 0 0-2.328.522 1.687 1.687 0 0 0 .518 2.332M111.584 101.469a1.69 1.69 0 0 0 2.332-.526c.5-.785.27-1.832-.52-2.33a1.693 1.693 0 0 0-2.33.52 1.696 1.696 0 0 0 .518 2.336M105.906 110.078a1.688 1.688 0 1 0 1.813-2.849 1.69 1.69 0 0 0-1.813 2.849M100.19 120.197c.791.503 1.835.27 2.332-.519.5-.79.27-1.83-.521-2.332a1.693 1.693 0 0 0-2.331.52 1.69 1.69 0 0 0 .52 2.33M93.252 130.893c.788.499 1.832.265 2.329-.523.5-.786.267-1.83-.519-2.332a1.69 1.69 0 0 0-1.81 2.855M86.584 137.934c.686-.015 1.372-.029 2.055-.05a1.512 1.512 0 0 0-.264-.23 1.33 1.33 0 0 0-1.791.28M128.865 55.389a1.692 1.692 0 0 0 2.333-.524 1.686 1.686 0 0 0-.52-2.328 1.689 1.689 0 1 0-1.813 2.852M122.579 64.284c.784.5 1.83.265 2.331-.516a1.696 1.696 0 0 0-.524-2.337 1.686 1.686 0 0 0-2.33.525c-.5.786-.266 1.829.523 2.328M115.638 74.979a1.689 1.689 0 0 0 1.81-2.85 1.688 1.688 0 1 0-1.81 2.85M109.632 84.49a1.701 1.701 0 0 0 2.335-.524 1.7 1.7 0 0 0-.524-2.335 1.694 1.694 0 0 0-2.333.523 1.696 1.696 0 0 0 .522 2.336M103.916 94.61c.785.495 1.83.265 2.331-.524.495-.787.267-1.837-.52-2.33a1.685 1.685 0 0 0-2.332.521 1.686 1.686 0 0 0 .521 2.333M97.302 104.402a1.685 1.685 0 0 0 2.327-.522 1.686 1.686 0 0 0-.52-2.33 1.685 1.685 0 0 0-2.33.52c-.5.793-.27 1.835.523 2.332M90.684 114.197c.785.5 1.831.265 2.33-.523a1.69 1.69 0 1 0-2.33.523M84.352 124.604c.786.5 1.835.266 2.33-.523a1.686 1.686 0 0 0-.52-2.332 1.691 1.691 0 0 0-1.81 2.855M77.737 134.397c.788.5 1.833.268 2.335-.516a1.7 1.7 0 0 0-.524-2.337 1.69 1.69 0 1 0-1.81 2.853M126.106 36.962c-.562.794-.321 1.842.53 2.33.859.486 2.012.238 2.569-.57.056-.068.089-.145.127-.222a76.36 76.36 0 0 0-1.438-2.34c-.677-.06-1.387.223-1.788.802M119.966 49.1a1.692 1.692 0 0 0 1.812-2.854 1.692 1.692 0 0 0-1.813 2.855M114.255 59.222a1.69 1.69 0 0 0 1.805-2.859 1.693 1.693 0 0 0-2.329.526 1.688 1.688 0 0 0 .524 2.333M107.636 69.013c.787.502 1.83.27 2.332-.521a1.694 1.694 0 0 0-.522-2.334 1.692 1.692 0 0 0-2.33.528c-.5.788-.268 1.83.52 2.327M101.306 79.42a1.683 1.683 0 0 0 2.33-.522 1.685 1.685 0 0 0-.518-2.328 1.692 1.692 0 0 0-2.333.518 1.69 1.69 0 0 0 .521 2.333M94.975 89.83c.79.499 1.832.265 2.336-.524a1.693 1.693 0 0 0-2.857-1.813 1.698 1.698 0 0 0 .521 2.337M88.08 99.011c.784.5 1.827.266 2.327-.52.5-.79.266-1.831-.521-2.332a1.68 1.68 0 0 0-2.328.525c-.505.788-.271 1.83.522 2.327M82.316 110.644a1.689 1.689 0 1 0 1.81-2.856 1.689 1.689 0 0 0-1.81 2.856M76.637 119.253a1.688 1.688 0 0 0 2.334-.524 1.687 1.687 0 1 0-2.851-1.804c-.5.788-.269 1.827.517 2.328M70.312 129.661a1.683 1.683 0 0 0 2.33-.527 1.68 1.68 0 0 0-.523-2.324 1.687 1.687 0 1 0-1.808 2.851M63.885 137.085c.712.125 1.424.237 2.13.335a1.398 1.398 0 0 0-.449-.516 1.293 1.293 0 0 0-1.681.18M118.583 33.34a1.693 1.693 0 0 0 2.336-.517 1.697 1.697 0 0 0-.521-2.335 1.695 1.695 0 0 0-2.335.524 1.69 1.69 0 0 0 .52 2.328M111.318 44.928c.79.505 1.828.272 2.333-.516a1.695 1.695 0 0 0-.524-2.334 1.692 1.692 0 0 0-2.331.524c-.5.787-.267 1.828.522 2.326M105.028 53.832c.79.499 1.826.264 2.333-.531a1.69 1.69 0 0 0-.525-2.33 1.7 1.7 0 0 0-2.33.523 1.698 1.698 0 0 0 .522 2.338M98.698 64.24a1.693 1.693 0 0 0 1.808-2.86 1.696 1.696 0 0 0-2.33.523 1.697 1.697 0 0 0 .522 2.336M92.694 73.748c.79.498 1.83.264 2.33-.53a1.68 1.68 0 0 0-.521-2.326 1.69 1.69 0 0 0-1.81 2.856M86.076 83.542a1.697 1.697 0 0 0 2.337-.525 1.688 1.688 0 0 0-.525-2.328 1.686 1.686 0 0 0-2.33.52 1.695 1.695 0 0 0 .518 2.333M79.752 93.949a1.689 1.689 0 0 0 1.806-2.856 1.686 1.686 0 0 0-2.327.524 1.685 1.685 0 0 0 .52 2.332M73.136 103.742c.786.5 1.83.265 2.328-.52a1.69 1.69 0 0 0-.519-2.334 1.69 1.69 0 0 0-1.809 2.854M67.742 112.963a1.688 1.688 0 1 0-.518-2.328 1.683 1.683 0 0 0 .518 2.328M61.412 123.37a1.689 1.689 0 0 0 2.333-.517 1.69 1.69 0 0 0-.523-2.333 1.677 1.677 0 0 0-2.327.527 1.676 1.676 0 0 0 .517 2.322M54.474 134.065a1.69 1.69 0 0 0 1.805-2.856 1.689 1.689 0 0 0-2.328.525 1.684 1.684 0 0 0 .523 2.331M108.754 28.237c.786.5 1.828.266 2.332-.523a1.703 1.703 0 0 0-.524-2.335 1.705 1.705 0 0 0-2.336.524c-.5.788-.26 1.835.528 2.334M103.034 38.353a1.68 1.68 0 0 0 2.33-.515 1.69 1.69 0 0 0-.524-2.334 1.68 1.68 0 0 0-2.327.53 1.672 1.672 0 0 0 .521 2.32M96.135 47.545a1.69 1.69 0 0 0 1.807-2.855 1.69 1.69 0 0 0-2.332.516c-.5.79-.267 1.835.525 2.339M91.312 57.989a1.691 1.691 0 0 0 1.81-2.855 1.69 1.69 0 0 0-1.81 2.855M83.186 67.743a1.694 1.694 0 0 0 2.334-.523 1.69 1.69 0 1 0-2.334.524M78.367 78.19a1.688 1.688 0 1 0 1.809-2.852 1.688 1.688 0 1 0-1.81 2.852M70.855 87.66a1.69 1.69 0 0 0 2.33-.523c.5-.786.268-1.828-.526-2.33a1.681 1.681 0 0 0-2.329.525c-.499.788-.262 1.831.525 2.328M65.423 98.388c.784.506 1.83.27 2.33-.516a1.69 1.69 0 0 0-2.855-1.811 1.683 1.683 0 0 0 .525 2.327M58.805 108.186c.788.5 1.829.27 2.33-.523a1.682 1.682 0 0 0-.518-2.327 1.69 1.69 0 0 0-2.335.52 1.69 1.69 0 0 0 .523 2.33M52.804 117.697a1.687 1.687 0 0 0 2.327-.522 1.681 1.681 0 0 0-.523-2.33 1.685 1.685 0 0 0-2.328.52 1.69 1.69 0 0 0 .524 2.332M44.964 128.063a1.69 1.69 0 0 0 1.81-2.857 1.69 1.69 0 0 0-2.33.526 1.683 1.683 0 0 0 .52 2.331M100.097 24.074a1.7 1.7 0 0 0 2.336-.524 1.688 1.688 0 0 0-.525-2.328 1.686 1.686 0 0 0-2.333.517 1.699 1.699 0 0 0 .522 2.335M94.1 33.58c.783.5 1.826.266 2.326-.522.5-.789.264-1.837-.519-2.333a1.696 1.696 0 0 0-2.332.52 1.688 1.688 0 0 0 .524 2.335M88.705 42.805a1.691 1.691 0 0 0 1.81-2.858 1.687 1.687 0 0 0-2.33.53 1.68 1.68 0 0 0 .52 2.328M82.376 53.21a1.69 1.69 0 0 0 1.807-2.854 1.69 1.69 0 0 0-1.807 2.853M76.087 62.109a1.693 1.693 0 0 0 2.332-.523 1.694 1.694 0 0 0-.52-2.33 1.685 1.685 0 0 0-2.332.523c-.504.79-.268 1.829.52 2.33M69.144 72.8c.788.5 1.825.266 2.329-.52a1.685 1.685 0 0 0-.524-2.333 1.685 1.685 0 0 0-2.327.523 1.687 1.687 0 0 0 .522 2.33M62.816 83.204c.786.501 1.83.272 2.325-.522a1.684 1.684 0 0 0-.517-2.33 1.692 1.692 0 0 0-2.333.524 1.682 1.682 0 0 0 .525 2.328M56.522 92.103c.788.5 1.833.267 2.335-.517a1.69 1.69 0 0 0-.523-2.332 1.682 1.682 0 0 0-2.33.518 1.688 1.688 0 0 0 .518 2.33M50.483 103.123a1.688 1.688 0 1 0 1.806-2.855 1.688 1.688 0 1 0-1.806 2.855M43.867 112.918a1.69 1.69 0 1 0 1.805-2.851 1.69 1.69 0 0 0-1.805 2.851M37.534 123.326a1.69 1.69 0 0 0 1.806-2.857 1.693 1.693 0 0 0-2.33.525 1.694 1.694 0 0 0 .524 2.332M92.1 18.11a1.69 1.69 0 0 0 2.33-.523c.5-.788.268-1.83-.522-2.329a1.69 1.69 0 0 0-2.33.516c-.5.795-.264 1.836.521 2.336M85.485 27.904c.783.5 1.83.266 2.328-.523a1.684 1.684 0 0 0-.523-2.331 1.686 1.686 0 0 0-2.328.525 1.688 1.688 0 0 0 .523 2.33M79.765 38.026a1.69 1.69 0 0 0 1.812-2.854 1.69 1.69 0 0 0-1.812 2.854M73.148 47.82c.79.5 1.833.265 2.338-.52a1.7 1.7 0 0 0-.526-2.335 1.685 1.685 0 0 0-2.328.525 1.686 1.686 0 0 0 .516 2.33M66.539 57.613c.783.5 1.827.266 2.33-.515a1.7 1.7 0 0 0-.523-2.338 1.694 1.694 0 0 0-2.335.524 1.687 1.687 0 0 0 .528 2.33M61.718 68.066a1.688 1.688 0 0 0 2.328-.528 1.68 1.68 0 0 0-.522-2.325 1.683 1.683 0 0 0-2.33.518 1.69 1.69 0 0 0 .524 2.335M54.204 77.531a1.685 1.685 0 0 0 2.326-.522 1.689 1.689 0 1 0-2.326.522M48.773 88.267a1.69 1.69 0 0 0 1.81-2.856 1.69 1.69 0 1 0-1.81 2.856M41.87 97.446a1.688 1.688 0 1 0 1.807-2.85 1.68 1.68 0 0 0-2.326.519 1.682 1.682 0 0 0 .518 2.33M36.153 107.568a1.689 1.689 0 0 0 1.808-2.852 1.686 1.686 0 0 0-2.331.52 1.687 1.687 0 0 0 .523 2.332M28.923 117.648a1.689 1.689 0 1 0 1.808-2.852 1.689 1.689 0 0 0-1.808 2.852M84.1 12.148a1.689 1.689 0 0 0 1.81-2.853 1.682 1.682 0 0 0-2.328.523c-.502.788-.27 1.83.518 2.33M77.773 22.553c.784.5 1.831.27 2.327-.523a1.686 1.686 0 0 0-.52-2.33 1.694 1.694 0 0 0-2.33.518 1.69 1.69 0 0 0 .523 2.335M71.155 32.35c.786.5 1.832.264 2.328-.523a1.689 1.689 0 1 0-2.328.523M65.437 42.47a1.69 1.69 0 1 0 1.806-2.854 1.684 1.684 0 0 0-2.327.525c-.5.788-.264 1.83.52 2.33M58.824 52.269a1.69 1.69 0 0 0 2.33-.53c.497-.78.267-1.83-.523-2.328a1.692 1.692 0 0 0-2.333.523 1.695 1.695 0 0 0 .526 2.335M52.207 62.06c.787.5 1.829.265 2.333-.523a1.694 1.694 0 0 0-.527-2.334 1.69 1.69 0 0 0-1.806 2.857M46.488 72.18c.788.502 1.83.266 2.333-.52a1.69 1.69 0 1 0-2.333.521M39.874 81.972a1.688 1.688 0 0 0 2.332-.516 1.696 1.696 0 0 0-.522-2.334 1.682 1.682 0 0 0-2.33.528 1.675 1.675 0 0 0 .52 2.322M33.545 92.386a1.69 1.69 0 0 0 1.808-2.858 1.686 1.686 0 0 0-2.33.525 1.688 1.688 0 0 0 .522 2.333M26.6 103.076a1.695 1.695 0 0 0 2.334-.523 1.693 1.693 0 0 0-.523-2.331 1.687 1.687 0 0 0-2.33.523 1.689 1.689 0 0 0 .519 2.331M20.926 111.686c.79.499 1.83.267 2.328-.523a1.688 1.688 0 1 0-2.852-1.81 1.689 1.689 0 0 0 .524 2.333M75.165 7.369c.786.5 1.822.267 2.326-.523a1.685 1.685 0 0 0-.519-2.33 1.69 1.69 0 0 0-2.332.523 1.687 1.687 0 0 0 .525 2.33M68.833 17.776a1.69 1.69 0 0 0 1.81-2.855 1.691 1.691 0 0 0-1.81 2.855M63.442 27.002a1.687 1.687 0 0 0 2.33-.53 1.684 1.684 0 1 0-2.848-1.803 1.688 1.688 0 0 0 .518 2.333M55.602 37.365a1.69 1.69 0 1 0 1.81-2.855 1.69 1.69 0 0 0-1.81 2.855M50.211 46.592a1.69 1.69 0 0 0 2.331-.53 1.688 1.688 0 0 0-2.854-1.802c-.5.785-.262 1.833.523 2.332M43.553 57.896a1.683 1.683 0 0 0 2.328-.53 1.682 1.682 0 0 0-.517-2.328 1.692 1.692 0 0 0-1.811 2.858M37.265 66.788c.788.5 1.83.27 2.335-.517a1.698 1.698 0 0 0-.524-2.334 1.695 1.695 0 0 0-2.334.52 1.69 1.69 0 0 0 .523 2.33M30.934 77.196a1.69 1.69 0 1 0 1.813-2.851 1.69 1.69 0 0 0-1.813 2.85M24.932 86.707a1.69 1.69 0 1 0 1.808-2.855 1.69 1.69 0 0 0-1.808 2.855M19.214 96.827c.791.5 1.829.265 2.332-.517a1.698 1.698 0 0 0-.52-2.336 1.698 1.698 0 0 0-2.336.521 1.693 1.693 0 0 0 .524 2.332M15.219 106.715a1.694 1.694 0 0 0-2.862-1.812 1.69 1.69 0 0 0-.227 1.225c.266.383.538.759.81 1.14.782.451 1.787.217 2.279-.553M66.108 1.785c.824.398 1.952.152 2.526-.55.072-.09.124-.184.177-.277A97.58 97.58 0 0 0 65.33.69c.018.445.281.858.777 1.096M60.834 11.813c.788.499 1.83.27 2.333-.524a1.694 1.694 0 0 0-.523-2.33 1.692 1.692 0 0 0-2.332.525 1.687 1.687 0 0 0 .522 2.329M54.83 21.32a1.69 1.69 0 0 0 2.332-.516c.5-.788.267-1.836-.521-2.335a1.685 1.685 0 0 0-2.327.522 1.681 1.681 0 0 0 .515 2.33M48.503 31.732c.785.495 1.83.265 2.332-.523a1.693 1.693 0 0 0-.52-2.328 1.689 1.689 0 1 0-1.812 2.851M40.99 41.202c.783.496 1.825.26 2.33-.523a1.698 1.698 0 0 0-.522-2.336 1.69 1.69 0 0 0-2.331.525 1.689 1.689 0 0 0 .524 2.334M35.557 51.929c.784.5 1.831.27 2.33-.518a1.69 1.69 0 0 0-.523-2.333c-.79-.5-1.83-.266-2.33.523a1.68 1.68 0 0 0 .523 2.328M28.658 61.113c.788.501 1.829.265 2.328-.522.5-.78.265-1.828-.522-2.327a1.676 1.676 0 0 0-2.328.522 1.676 1.676 0 0 0 .522 2.327M22.938 71.233a1.688 1.688 0 1 0 1.809-2.852 1.693 1.693 0 0 0-2.334.524 1.687 1.687 0 0 0 .525 2.328M16.323 81.028c.786.502 1.83.268 2.33-.523.499-.78.266-1.83-.527-2.328a1.68 1.68 0 0 0-2.324.522 1.68 1.68 0 0 0 .52 2.33M9.987 91.437a1.7 1.7 0 0 0 2.337-.517 1.692 1.692 0 0 0-2.86-1.813c-.492.787-.26 1.83.523 2.33M51.326 5.811c.786.5 1.833.263 2.333-.519a1.692 1.692 0 0 0-2.856-1.811c-.5.793-.263 1.828.523 2.33M45.318 15.316a1.69 1.69 0 0 0 2.336-.517 1.694 1.694 0 0 0-.524-2.334 1.68 1.68 0 0 0-2.326.53 1.677 1.677 0 0 0 .514 2.321M38.995 25.727a1.69 1.69 0 1 0 1.807-2.855 1.69 1.69 0 0 0-1.807 2.855M32.99 35.238a1.69 1.69 0 0 0 1.804-2.858 1.693 1.693 0 0 0-2.328.523 1.695 1.695 0 0 0 .524 2.335M26.332 46.54c.79.5 1.832.266 2.333-.523a1.693 1.693 0 0 0-.523-2.33 1.69 1.69 0 1 0-1.81 2.854M20.331 56.049a1.685 1.685 0 0 0 2.33-.523 1.687 1.687 0 1 0-2.85-1.807 1.68 1.68 0 0 0 .52 2.33M14.001 66.456c.784.5 1.828.267 2.33-.522a1.691 1.691 0 0 0-.522-2.331 1.686 1.686 0 0 0-2.328.523 1.68 1.68 0 0 0 .52 2.33M7.71 75.353c.791.5 1.833.264 2.33-.52a1.693 1.693 0 0 0-.519-2.334 1.694 1.694 0 0 0-2.334.524 1.688 1.688 0 0 0 .523 2.33M3.147 83.406a1.333 1.333 0 0 0-.921-.28c.2 1.128.426 2.226.672 3.31.312-.106.588-.333.762-.677.41-.775.175-1.83-.513-2.353M45.367.957c-.42.082-.835.167-1.238.268.432.108.893.008 1.238-.268M36.996 10.252a1.69 1.69 0 0 0 2.333-.516 1.698 1.698 0 0 0-.524-2.337 1.692 1.692 0 0 0-2.327.522 1.683 1.683 0 0 0 .518 2.331M30.377 20.052a1.691 1.691 0 1 0 1.81-2.858 1.695 1.695 0 0 0-2.329.523c-.5.795-.262 1.835.52 2.335M24.949 30.785c.783.5 1.83.265 2.329-.523.5-.788.27-1.831-.518-2.33a1.692 1.692 0 0 0-2.336.524 1.691 1.691 0 0 0 .525 2.329M18.045 39.967c.791.5 1.833.265 2.332-.523.5-.789.27-1.832-.52-2.331a1.684 1.684 0 0 0-2.328.522c-.503.79-.27 1.832.516 2.332M11.719 50.38c.785.492 1.83.258 2.331-.53a1.694 1.694 0 0 0-.52-2.33 1.688 1.688 0 0 0-2.33.522c-.505.79-.27 1.831.519 2.338M5.101 60.168a1.69 1.69 0 0 0 1.811-2.854 1.687 1.687 0 0 0-2.33.523 1.686 1.686 0 0 0 .52 2.331M.987 67.707a1.304 1.304 0 0 0-.224-.156c.06 1.151.133 2.28.218 3.4.229-.131.431-.343.568-.648.393-.848.14-2.012-.562-2.596M24.93 15.61c.495-.895.229-2.1-.593-2.695-.002 0 0 0-.004-.007a71.551 71.551 0 0 0-2.402 2.5c.143.29.346.555.609.747.826.594 1.893.35 2.39-.546M15.439 24.781a1.69 1.69 0 1 0 1.812-2.854 1.69 1.69 0 0 0-1.812 2.854M10.31 32.62a1.692 1.692 0 0 0-2.334.523 1.687 1.687 0 0 0 .523 2.33c.785.5 1.832.266 2.326-.522a1.689 1.689 0 0 0-.516-2.332M5.476 43.975c.365-.786.125-1.883-.53-2.438a1.523 1.523 0 0 0-.432-.252 78.104 78.104 0 0 0-.611 3.304c.599.31 1.258.076 1.573-.614"/></g></svg>