<svg width="150" height="75" xmlns="http://www.w3.org/2000/svg"><g fill="#00004B" fill-rule="evenodd"><path d="M4.8 40.68c-.716-.635-1.85-.604-2.524.07a1.601 1.601 0 0 0 .068 2.368 1.875 1.875 0 0 0 2.528-.066 1.61 1.61 0 0 0-.073-2.371M11.94 33.136c-.71-.633-1.846-.6-2.526.069a1.614 1.614 0 0 0 .07 2.372c.723.636 1.85.603 2.528-.07a1.604 1.604 0 0 0-.073-2.37M21.763 23.923a1.867 1.867 0 0 0-2.526.068 1.606 1.606 0 0 0 .07 2.367c.72.636 1.851.605 2.526-.068a1.602 1.602 0 0 0-.07-2.367M30.692 15.542a1.874 1.874 0 0 0-2.527.066 1.603 1.603 0 0 0 .072 2.366c.72.642 1.848.609 2.523-.064.679-.67.649-1.733-.068-2.368M39.621 6.323c-.722-.635-1.85-.605-2.53.068a1.606 1.606 0 0 0 .075 2.366c.72.642 1.846.607 2.523-.066.68-.668.647-1.728-.068-2.368M46.05 1.009c-.347-.11-.694-.226-1.03-.349l.033.036c.28.246.643.348.998.313M3.013 56.604a1.866 1.866 0 0 0-2.525.068c-.677.668-.647 1.73.07 2.37.72.635 1.849.6 2.528-.072.677-.666.64-1.731-.073-2.366M11.943 48.223a1.874 1.874 0 0 0-2.527.066 1.607 1.607 0 0 0 .07 2.37c.716.634 1.847.608 2.525-.067a1.605 1.605 0 0 0-.068-2.369M20.873 39.845c-.722-.635-1.847-.612-2.53.068-.676.666-.643 1.732.076 2.367.712.636 1.847.605 2.519-.068a1.602 1.602 0 0 0-.065-2.367M29.798 30.625a1.865 1.865 0 0 0-2.524.07 1.604 1.604 0 0 0 .068 2.367 1.87 1.87 0 0 0 2.526-.069 1.602 1.602 0 0 0-.07-2.368M37.836 22.246c-.723-.634-1.851-.608-2.533.065a1.612 1.612 0 0 0 .077 2.37c.718.636 1.846.607 2.52-.064a1.604 1.604 0 0 0-.064-2.371M45.87 13.87a1.871 1.871 0 0 0-2.528.06 1.613 1.613 0 0 0 .072 2.372c.72.636 1.849.607 2.528-.073a1.596 1.596 0 0 0-.072-2.36M55.688 4.649a1.862 1.862 0 0 0-2.521.068 1.599 1.599 0 0 0 .072 2.366c.72.64 1.85.604 2.522-.064a1.602 1.602 0 0 0-.073-2.37M2.952 74.059c.86-.667.82-1.735-.092-2.372-.797-.559-1.993-.599-2.86-.16.344 1.002.698 2.013 1.042 3.043.686.057 1.4-.113 1.91-.511M11.942 63.307c-.72-.636-1.85-.605-2.527.068a1.607 1.607 0 0 0 .07 2.368c.72.636 1.85.605 2.527-.066a1.607 1.607 0 0 0-.07-2.37M19.98 54.927a1.871 1.871 0 0 0-2.53.07 1.603 1.603 0 0 0 .075 2.368c.717.633 1.848.605 2.522-.068a1.607 1.607 0 0 0-.068-2.37M28.013 46.547a1.874 1.874 0 0 0-2.526.066c-.674.669-.647 1.728.073 2.37.716.634 1.847.608 2.521-.067.68-.674.65-1.733-.068-2.369M37.836 37.328c-.72-.635-1.848-.604-2.525.07-.677.671-.65 1.734.07 2.37.72.634 1.848.601 2.523-.067a1.61 1.61 0 0 0-.068-2.373M45.873 29.789a1.877 1.877 0 0 0-2.531.065 1.603 1.603 0 0 0 .075 2.366 1.86 1.86 0 0 0 2.524-.066 1.604 1.604 0 0 0-.068-2.365M54.8 20.573c-.72-.64-1.85-.61-2.524.064-.68.675-.65 1.732.07 2.37.717.633 1.847.605 2.524-.066a1.605 1.605 0 0 0-.07-2.368M62.832 12.189c-.717-.635-1.848-.605-2.522.068a1.607 1.607 0 0 0 .068 2.37c.72.635 1.85.605 2.527-.07a1.6 1.6 0 0 0-.073-2.368M71.429 5.874c-.596-.096-1.192-.193-1.786-.284.055.08.115.16.19.228a1.228 1.228 0 0 0 1.596.056M19.083 70.011a1.875 1.875 0 0 0-2.524.061 1.61 1.61 0 0 0 .073 2.376 1.866 1.866 0 0 0 2.523-.07 1.6 1.6 0 0 0-.072-2.367M28.01 61.629a1.873 1.873 0 0 0-2.523.068 1.604 1.604 0 0 0 .07 2.366c.72.642 1.849.61 2.526-.064a1.603 1.603 0 0 0-.073-2.37M36.942 53.248c-.718-.628-1.851-.605-2.529.068a1.614 1.614 0 0 0 .073 2.373c.72.633 1.849.605 2.526-.068.68-.673.642-1.736-.07-2.373M44.975 44.869c-.714-.63-1.845-.605-2.524.068a1.607 1.607 0 0 0 .07 2.368c.722.64 1.85.607 2.525-.066.679-.675.649-1.732-.07-2.37M53.902 36.49a1.864 1.864 0 0 0-2.52.069c-.682.67-.644 1.73.07 2.368.715.635 1.848.609 2.522-.066a1.6 1.6 0 0 0-.072-2.37M62.833 28.111a1.867 1.867 0 0 0-2.523.068 1.6 1.6 0 0 0 .073 2.369 1.87 1.87 0 0 0 2.523-.066 1.607 1.607 0 0 0-.073-2.37M70.87 18.894c-.714-.636-1.85-.607-2.521.068a1.601 1.601 0 0 0 .067 2.37c.72.635 1.848.602 2.527-.071a1.606 1.606 0 0 0-.072-2.367M79.798 10.515c-.717-.636-1.848-.607-2.527.061a1.614 1.614 0 0 0 .073 2.375c.72.635 1.848.604 2.527-.069a1.604 1.604 0 0 0-.073-2.367M35.155 70.013a1.865 1.865 0 0 0-2.524.066 1.609 1.609 0 0 0 .07 2.372c.718.63 1.852.602 2.525-.073a1.598 1.598 0 0 0-.07-2.365M44.977 60.794a1.862 1.862 0 0 0-2.523.069 1.6 1.6 0 0 0 .068 2.365c.72.638 1.853.605 2.525-.063a1.605 1.605 0 0 0-.07-2.37M53.014 51.575a1.875 1.875 0 0 0-2.53.068 1.605 1.605 0 0 0 .076 2.367c.717.636 1.847.608 2.524-.06a1.613 1.613 0 0 0-.07-2.375M62.829 43.195a1.866 1.866 0 0 0-2.52.065 1.607 1.607 0 0 0 .07 2.371c.718.635 1.85.61 2.523-.07.682-.673.65-1.731-.073-2.366M70.87 33.977c-.717-.633-1.848-.608-2.525.068a1.604 1.604 0 0 0 .07 2.369c.723.636 1.85.605 2.527-.068.677-.669.642-1.733-.072-2.369M78.015 26.437a1.867 1.867 0 0 0-2.528.068 1.603 1.603 0 0 0 .073 2.368c.717.635 1.85.604 2.523-.07a1.602 1.602 0 0 0-.068-2.366M87.832 17.217a1.862 1.862 0 0 0-2.524.073c-.676.666-.644 1.724.073 2.362.722.64 1.85.607 2.524-.066.68-.67.644-1.731-.073-2.369M95.536 10.258a54.745 54.745 0 0 0-1.786-.608c.059.182.152.347.301.489a1.195 1.195 0 0 0 1.485.119M52.122 67.495a1.865 1.865 0 0 0-2.526.076c-.68.665-.647 1.729.073 2.364.714.635 1.846.602 2.52-.066.682-.673.644-1.736-.067-2.374M61.052 59.954a1.877 1.877 0 0 0-2.53.069 1.603 1.603 0 0 0 .075 2.367c.714.635 1.846.61 2.523-.066a1.61 1.61 0 0 0-.068-2.37M69.975 50.735c-.717-.633-1.846-.604-2.523.07a1.604 1.604 0 0 0 .072 2.37 1.865 1.865 0 0 0 2.521-.07 1.6 1.6 0 0 0-.07-2.37M78.01 42.357c-.714-.636-1.846-.605-2.52.066a1.606 1.606 0 0 0 .067 2.37c.718.637 1.849.606 2.526-.067a1.601 1.601 0 0 0-.073-2.369M86.942 33.98a1.868 1.868 0 0 0-2.527.064c-.674.677-.646 1.738.073 2.368.717.64 1.847.606 2.522-.066.679-.673.649-1.735-.068-2.366M94.978 24.763a1.87 1.87 0 0 0-2.526.061 1.605 1.605 0 0 0 .073 2.371c.719.638 1.846.607 2.52-.073a1.592 1.592 0 0 0-.067-2.359M104.795 15.54a1.864 1.864 0 0 0-2.522.071c-.675.67-.647 1.73.072 2.37.715.635 1.843.6 2.522-.071.682-.67.647-1.727-.072-2.37M60.156 75.038a1.874 1.874 0 0 0-2.528.068 1.608 1.608 0 0 0 .073 2.37c.72.637 1.85.602 2.523-.066.68-.678.65-1.734-.068-2.372M69.083 66.66c-.716-.636-1.846-.608-2.525.067a1.603 1.603 0 0 0 .073 2.368c.716.635 1.849.607 2.525-.068a1.603 1.603 0 0 0-.073-2.368M78.01 57.44c-.712-.636-1.843-.603-2.522.068-.677.67-.647 1.729.075 2.369.712.635 1.848.609 2.522-.07a1.601 1.601 0 0 0-.075-2.368M85.152 49.065c-.712-.641-1.845-.609-2.521.062a1.605 1.605 0 0 0 .075 2.372 1.87 1.87 0 0 0 2.521-.068 1.599 1.599 0 0 0-.075-2.366M94.977 40.683c-.717-.636-1.843-.61-2.523.068a1.598 1.598 0 0 0 .068 2.364c.72.638 1.85.61 2.527-.064a1.605 1.605 0 0 0-.072-2.368M103.904 32.3c-.715-.633-1.844-.605-2.521.068-.68.674-.65 1.736.073 2.369.715.636 1.844.607 2.52-.066.68-.673.643-1.735-.072-2.37M112.832 23.082a1.87 1.87 0 0 0-2.525.07 1.61 1.61 0 0 0 .07 2.37c.722.635 1.853.602 2.525-.071a1.599 1.599 0 0 0-.07-2.37M77.118 73.363a1.867 1.867 0 0 0-2.521.066 1.6 1.6 0 0 0 .073 2.37 1.865 1.865 0 0 0 2.52-.068 1.602 1.602 0 0 0-.072-2.368M85.152 64.148c-.715-.638-1.845-.612-2.519.068a1.6 1.6 0 0 0 .068 2.366c.719.635 1.847.605 2.526-.068a1.598 1.598 0 0 0-.075-2.366M94.086 56.604c-.717-.635-1.848-.607-2.527.061a1.606 1.606 0 0 0 .072 2.37c.72.641 1.85.61 2.522-.063a1.603 1.603 0 0 0-.067-2.368M103.01 46.546a1.868 1.868 0 0 0-2.523.069 1.607 1.607 0 0 0 .072 2.37c.717.63 1.85.607 2.523-.066a1.604 1.604 0 0 0-.073-2.373M111.939 38.166c-.717-.633-1.848-.605-2.525.068a1.605 1.605 0 0 0 .076 2.37 1.864 1.864 0 0 0 2.519-.066c.682-.67.65-1.734-.07-2.372M119.977 29.786c-.712-.633-1.846-.605-2.523.068a1.604 1.604 0 0 0 .072 2.373c.718.631 1.844.603 2.524-.07a1.61 1.61 0 0 0-.073-2.37M93.19 70.848a1.864 1.864 0 0 0-2.52.068 1.6 1.6 0 0 0 .065 2.366c.722.638 1.855.61 2.527-.063a1.605 1.605 0 0 0-.073-2.371M101.224 62.466c-.714-.63-1.845-.604-2.521.07-.675.67-.65 1.736.067 2.369.722.637 1.85.604 2.527-.066.682-.673.644-1.736-.073-2.373M111.047 53.252a1.868 1.868 0 0 0-2.523.066 1.602 1.602 0 0 0 .072 2.368c.72.635 1.85.61 2.519-.066a1.598 1.598 0 0 0-.068-2.368M119.082 45.709a1.869 1.869 0 0 0-2.524.068 1.604 1.604 0 0 0 .073 2.367c.72.636 1.851.61 2.523-.066.683-.673.643-1.734-.072-2.37M128.905 36.491a1.869 1.869 0 0 0-2.524.068 1.602 1.602 0 0 0 .07 2.367c.718.638 1.852.607 2.527-.064a1.608 1.608 0 0 0-.073-2.371M110.154 70.014a1.868 1.868 0 0 0-2.524.061 1.61 1.61 0 0 0 .07 2.372c.72.636 1.852.608 2.524-.073.682-.67.647-1.727-.07-2.36M118.19 60.79c-.711-.634-1.844-.6-2.523.072a1.603 1.603 0 0 0 .07 2.368c.72.635 1.847.605 2.523-.07.682-.67.646-1.729-.07-2.37M127.121 51.574c-.717-.634-1.849-.605-2.528.068a1.608 1.608 0 0 0 .072 2.37c.72.636 1.849.605 2.524-.069.682-.666.644-1.73-.068-2.369M136.047 44.034c-.72-.636-1.845-.608-2.522.068a1.603 1.603 0 0 0 .068 2.368c.722.635 1.847.605 2.526-.066a1.604 1.604 0 0 0-.072-2.37M126.227 67.497a1.87 1.87 0 0 0-2.525.068 1.603 1.603 0 0 0 .073 2.368c.715.636 1.85.605 2.522-.066a1.605 1.605 0 0 0-.07-2.37M134.263 59.956a1.875 1.875 0 0 0-2.525.061 1.613 1.613 0 0 0 .068 2.375c.72.635 1.85.604 2.53-.066a1.608 1.608 0 0 0-.073-2.37M141.557 50.802a1.61 1.61 0 0 0 .072 2.37c.719.638 1.854.607 2.532-.064.321-.323.482-.735.482-1.15-.199-.424-.404-.84-.61-1.265-.721-.586-1.811-.549-2.476.109M134.26 75.04a1.865 1.865 0 0 0-2.524.068 1.601 1.601 0 0 0 .077 2.368c.715.635 1.843.605 2.517-.069a1.597 1.597 0 0 0-.07-2.367M143.194 66.66a1.882 1.882 0 0 0-2.529.06 1.61 1.61 0 0 0 .073 2.374c.72.638 1.85.607 2.53-.066.67-.674.639-1.733-.074-2.369M148.927 75.81c.212.269.476.411.75.447a80.249 80.249 0 0 0-.025-3.352c-.288.045-.565.214-.774.516-.484.677-.459 1.75.049 2.39"/></g></svg>