<?xml version="1.0" encoding="utf-8"?>
<!-- Generator: Adobe Illustrator 16.0.0, SVG Export Plug-In . SVG Version: 6.00 Build 0)  -->
<!DOCTYPE svg PUBLIC "-//W3C//DTD SVG 1.1//EN" "http://www.w3.org/Graphics/SVG/1.1/DTD/svg11.dtd">
<svg version="1.1" xmlns="http://www.w3.org/2000/svg" xmlns:xlink="http://www.w3.org/1999/xlink" x="0px" y="0px" width="500px"
	 height="500px" viewBox="0 0 500 500" enable-background="new 0 0 500 500" xml:space="preserve">
<g id="BACKGROUND">
</g>
<g id="OBJECTS">
	<g>
		<path opacity="0.16" fill="#FFFFFF" d="M318.899,216h3.358c-0.116-2,1.975-4.606,4.827-4.946c1.424-0.17,2.778,0.341,3.841,1.056
			c0.762-1.58,2.376-2.693,4.359-2.93c0.948-0.113,1.865,0.046,2.686,0.349c0.653-5.282,5.526-9.367,11.442-9.367
			c5.403,0,9.938,3.434,11.18,8.052c1.24-0.638,2.67-0.997,4.192-0.997c4.751,0,8.604,3.232,8.604,7.604
			c0,0.51-0.054,1.18-0.153,1.18h1.415c2.598,0,5.35,2.746,5.35,5.344v0.006c0,2.598-2.752,4.65-5.35,4.65h-55.751
			c-2.598,0-3.899-2.059-3.899-4.657v0.007C315,218.752,316.302,216,318.899,216z"/>
		<path opacity="0.16" fill="#FFFFFF" d="M200.798,313h3.359c-0.117-3,1.974-4.708,4.827-5.049c1.423-0.17,2.778,0.29,3.84,1.005
			c0.762-1.579,2.376-2.72,4.36-2.956c0.948-0.112,1.865,0.033,2.686,0.336c0.653-5.282,5.526-9.373,11.442-9.373
			c5.404,0,9.938,3.431,11.18,8.049c1.241-0.638,2.67-0.999,4.192-0.999c4.751,0,8.603,3.334,8.603,7.706
			c0,0.51-0.053,0.281-0.152,1.281h1.414c2.598,0,5.451,2.541,5.451,5.139v0.007c0,2.597-2.854,3.854-5.451,3.854h-55.75
			c-2.598,0-3.798-1.264-3.798-3.861v0.007C197,315.548,198.201,313,200.798,313z"/>
		<linearGradient id="SVGID_1_" gradientUnits="userSpaceOnUse" x1="192.5" y1="205" x2="285.5" y2="205">
			<stop  offset="0.0028" style="stop-color:#547ED1"/>
			<stop  offset="1" style="stop-color:#54ADD1"/>
		</linearGradient>
		<path fill="url(#SVGID_1_)" stroke="#ACF9E3" stroke-miterlimit="10" d="M281.854,197.5h-6.182c-0.907-5-2.598-8.712-4.92-12.446
			l4.396-4.445c1.063-1.063,1.063-2.83,0-3.893l-7.414-7.427c-1.064-1.064-2.805-1.07-3.869-0.006l-4.111,4.186
			c-3.976-2.677-8.254-4.622-13.254-5.635v-6.27c0-1.505-1.385-3.064-2.889-3.064h-10.485c-1.504,0-2.625,1.559-2.625,3.064v6.369
			c-4,1.02-8.933,2.877-12.735,5.404l-4.25-4.222c-1.063-1.064-2.818-1.064-3.882,0l-7.421,7.415
			c-1.063,1.063-1.067,2.804-0.003,3.868l4.356,4.358c-2.385,3.785-4.122,8.119-5.044,12.646c-0.009,0-0.019,0.099-0.028,0.099
			h-6.61c-1.505,0-2.382,1.031-2.382,2.536v10.485c0,1.504,0.877,2.979,2.382,2.979h6.61c0.067,0,0.134-0.127,0.201-0.132
			c1.046,4.614,2.937,8.849,5.501,12.656c-0.052,0.045-0.104,0.059-0.154,0.108l-4.674,4.659c-1.063,1.063-1.063,2.797,0,3.861
			l7.415,7.41c1.064,1.064,2.805,1.062,3.868-0.002l4.674-4.675c0.118-0.118,0.221-0.246,0.313-0.379
			c3.568,2.225,7.586,3.871,11.814,4.809c-0.001,0.038,0.049,0.074,0.049,0.112v6.611c0,1.504,1.121,2.963,2.625,2.963h10.485
			c1.504,0,2.889-1.458,2.889-2.963v-6.611c0-0.004-0.078-0.009-0.078-0.014c4.473-0.935,8.62-2.662,12.364-5.027
			c0.084,0.118,0.157,0.232,0.264,0.337l4.664,4.674c1.064,1.064,2.8,1.064,3.864,0l7.411-7.414
			c1.064-1.064,1.063-2.805-0.001-3.869l-4.675-4.674c-0.061-0.061-0.124,0.005-0.188-0.048c2.498-3.756,4.343-8.392,5.372-12.392
			h6.357c1.505,0,3.646-1.475,3.646-2.979v-10.485C285.5,198.531,283.359,197.5,281.854,197.5z M238.596,173.417
			c17.345,0,31.457,14.111,31.457,31.456s-14.111,31.457-31.457,31.457s-31.457-14.111-31.457-31.457
			S221.251,173.417,238.596,173.417z"/>
		<linearGradient id="SVGID_2_" gradientUnits="userSpaceOnUse" x1="263.5" y1="274" x2="334.5" y2="274">
			<stop  offset="0.0028" style="stop-color:#547ED1"/>
			<stop  offset="1" style="stop-color:#54ADD1"/>
		</linearGradient>
		<path fill="url(#SVGID_2_)" stroke="#ACF9E3" stroke-miterlimit="10" d="M331.811,268.5h-4.702c-0.689-4-1.977-6.567-3.742-9.408
			l3.343-3.352c0.81-0.809,0.81-2.138,0-2.946l-5.64-5.642c-0.809-0.809-2.133-0.81-2.942-0.001l-3.337,3.186
			c-3.023-2.037-6.29-3.514-10.29-4.285v-4.769c0-1.145-0.636-2.783-1.78-2.783h-7.976c-1.145,0-2.244,1.639-2.244,2.783v4.845
			c-3,0.776-6.671,2.189-9.563,4.111l-3.171-3.211c-0.809-0.81-2.112-0.81-2.922,0l-5.63,5.64c-0.809,0.81-0.804,2.133,0.006,2.942
			l3.317,3.314c-1.815,2.88-3.134,6.117-3.836,9.561c-0.007,0-0.013,0.016-0.02,0.016h-5.028c-1.144,0-2.153,0.902-2.153,2.047
			v7.976c0,1.145,1.01,1.978,2.153,1.978h5.028c0.052,0,0.103,0.048,0.153,0.044c0.796,3.509,2.233,6.803,4.185,9.699
			c-0.04,0.033-0.079,0.081-0.117,0.118l-3.556,3.562c-0.809,0.81-0.809,2.137,0,2.946l5.641,5.642c0.809,0.809,2.133,0.81,2.942,0
			l3.555-3.555c0.091-0.09,0.169-0.187,0.238-0.288c2.715,1.692,5.647,2.945,8.863,3.658c-0.001,0.028-0.086,0.057-0.086,0.086
			v5.028c0,1.144,1.1,2.06,2.244,2.06h7.976c1.145,0,1.78-0.916,1.78-2.06v-5.028c0-0.004,0.15-0.008,0.149-0.011
			c3.403-0.711,6.661-2.025,9.509-3.824c0.064,0.09,0.173,0.177,0.253,0.257l3.574,3.556c0.81,0.809,2.143,0.809,2.952,0l5.645-5.64
			c0.81-0.81,0.812-2.134,0.002-2.942l-3.554-3.556c-0.046-0.046-0.094-0.141-0.143-0.182c1.899-2.857,3.305-6.57,4.087-9.57h4.836
			c1.145,0,2.689-0.833,2.689-1.978v-7.976C334.5,269.402,332.955,268.5,331.811,268.5z M298.905,250.299
			c13.194,0,23.928,10.734,23.928,23.927c0,13.194-10.733,23.928-23.928,23.928c-13.193,0-23.927-10.733-23.927-23.928
			C274.979,261.033,285.712,250.299,298.905,250.299z"/>
		
			<linearGradient id="SVGID_3_" gradientUnits="userSpaceOnUse" x1="274.2119" y1="-73.8872" x2="352.418" y2="-73.8872" gradientTransform="matrix(0.0438 -0.999 0.999 0.0438 263.3658 565.8215)">
			<stop  offset="0" style="stop-color:#D88224"/>
			<stop  offset="0.9975" style="stop-color:#ECCB86"/>
		</linearGradient>
		<path fill="url(#SVGID_3_)" d="M198.328,212.626l-0.229,5.218c-3.966,0.593-7.427,1.873-10.665,3.694l-3.578-3.874
			c-0.859-0.937-2.343-1.002-3.281-0.144l-6.541,5.984c-0.937,0.859-1.005,2.328-0.146,3.266l3.382,3.63
			c-2.407,3.257-4.219,7.089-5.246,10.984l-5.293-0.232c-1.27-0.056-2.271,1.064-2.327,2.334l-0.388,8.851
			c-0.056,1.271,0.847,2.393,2.117,2.448l5.377,0.235c0.701,3.708,2.102,7.58,4.094,10.884l-3.72,3.397
			c-0.937,0.858-1.001,2.323-0.143,3.261l5.985,6.53c0.859,0.938,2.328,1.001,3.266,0.142l3.84-3.518
			c3.107,2.153,6.678,3.777,10.465,4.724c0,0.008,0.059,0.018,0.059,0.025l-0.244,5.58c-0.056,1.271,0.816,2.354,2.086,2.409
			l8.852,0.388c1.27,0.056,2.377-0.94,2.433-2.211l0.245-5.58c0.002-0.058-0.011-0.114-0.013-0.171
			c3.933-0.712,7.625-2.149,10.933-4.174c0.036,0.046,0.069,0.091,0.109,0.135l3.771,4.119c0.859,0.937,2.328,1.001,3.265,0.143
			l6.533-5.984c0.938-0.859,1.001-2.329,0.143-3.266l-3.773-4.119c-0.095-0.104-0.199-0.196-0.309-0.278
			c2.01-2.93,3.546-6.194,4.494-9.729c0.031,0.003,0.062,0.028,0.094,0.029l5.58,0.245c1.27,0.056,2.534-0.972,2.59-2.242
			l0.388-8.851c0.056-1.27-1.11-2.484-2.38-2.54l-5.58-0.245c-0.004,0-0.011,0.062-0.015,0.061
			c-0.624-3.811-1.928-7.376-3.787-10.625c0.103-0.067,0.202-0.126,0.295-0.211l4.119-3.765c0.937-0.859,1.001-2.324,0.143-3.262
			l-5.985-6.531c-0.858-0.938-2.328-1.001-3.266-0.142l-4.119,3.773c-0.053,0.049-0.091,0.101-0.139,0.153
			c-3.079-2.248-6.459-3.957-10.354-4.998l0.235-5.367c0.056-1.271-0.957-2.44-2.227-2.496l-8.852-0.388
			C199.35,210.273,198.383,211.356,198.328,212.626z M176.444,248.256c0.642-14.643,13.076-26.033,27.718-25.392
			c14.642,0.642,26.033,13.076,25.391,27.718c-0.642,14.642-13.076,26.033-27.718,25.391
			C187.193,275.332,175.803,262.898,176.444,248.256z"/>
		<path fill="#428CB3" d="M308.726,205h-103.68c-1.156,0-2.045,1.321-2.045,2.477V266h33.044h42.653H311v-58.523
			C311,206.321,309.882,205,308.726,205z"/>
		<g>
			<path fill="#44A7D0" d="M203,207.477c0-1.156,1.153-2.477,2.309-2.477h103.68c1.156,0,2.012,1.321,2.012,2.477V266h6v-64.055
				c0-1.28-1.185-1.945-2.464-1.945H199.761c-1.28,0-1.761,0.666-1.761,1.945V266h5V207.477z"/>
			<path fill="none" stroke="#4EE5F7" stroke-miterlimit="10" d="M203.5,207.477c0-1.156,0.653-1.977,1.809-1.977h103.68
				c1.156,0,2.512,0.821,2.512,1.977V265.5h5v-63.555c0-1.28-0.685-2.445-1.964-2.445H199.761c-1.28,0-2.261,1.166-2.261,2.445
				V265.5h6V207.477z"/>
		</g>
		<path fill="#D6F4F8" d="M236,267.347c0,1.279,0.597,1.653,1.876,1.653h38c1.279,0,3.123-0.374,3.123-1.653V266h-43V267.347z"/>
		<linearGradient id="SVGID_4_" gradientUnits="userSpaceOnUse" x1="181" y1="269.5" x2="334" y2="269.5">
			<stop  offset="0.0028" style="stop-color:#547ED1"/>
			<stop  offset="1" style="stop-color:#54ADD1"/>
		</linearGradient>
		<path fill="url(#SVGID_4_)" d="M318.344,265h-5.622H281v1.347c0,1.279-1.477,1.653-2.756,1.653h-38
			c-1.28,0-2.244-0.374-2.244-1.653V265h-33.268h-5.816H181v0.499c0,4.608,3.137,8.501,7.745,8.501h136.474
			c4.608,0,8.781-3.893,8.781-8.501V265H318.344z"/>
		<linearGradient id="SVGID_5_" gradientUnits="userSpaceOnUse" x1="225.4824" y1="51.1211" x2="288.0938" y2="51.1211">
			<stop  offset="0" style="stop-color:#F2F2F2"/>
			<stop  offset="0.9923" style="stop-color:#C6EDEE"/>
		</linearGradient>
		
			<circle opacity="0.85" fill="url(#SVGID_5_)" stroke="#F9F9F9" stroke-width="0.3421" stroke-miterlimit="10" cx="256.788" cy="51.121" r="31.306"/>
		<g>
			<path fill="#FEC767" d="M256.271,52.646h16.263c0.432,0,0.78,0.359,0.762,0.791c-0.42,9.607-8.45,17.38-18.153,17.38
				c-9.968,0-18.17-8.203-18.17-18.17s8.202-18.17,18.17-18.17c2.075,0,4.133,0.355,6.084,1.049
				c0.406,0.144,0.607,0.602,0.445,1.001l-6.105,15.074C255.363,52.101,255.73,52.646,256.271,52.646z"/>
			<path fill="#FF3976" d="M261.301,47.695l7.4-13.819c0.209-0.391,0.703-0.533,1.084-0.307c2.024,1.204,3.798,2.791,5.22,4.674
				s2.462,4.025,3.063,6.302c0.113,0.429-0.159,0.864-0.593,0.958l-15.319,3.326C261.505,48.971,260.986,48.284,261.301,47.695z"/>
		</g>
		<linearGradient id="SVGID_6_" gradientUnits="userSpaceOnUse" x1="95.0972" y1="106.4443" x2="157.708" y2="106.4443">
			<stop  offset="0" style="stop-color:#F2F2F2"/>
			<stop  offset="0.9923" style="stop-color:#C6EDEE"/>
		</linearGradient>
		
			<circle opacity="0.85" fill="url(#SVGID_6_)" stroke="#F9F9F9" stroke-width="0.3421" stroke-miterlimit="10" cx="126.403" cy="106.444" r="31.305"/>
		<g>
			<path fill="#F0454C" d="M113.683,107.724h-2.516v3.838c0,0.548-0.129,0.965-0.388,1.248c-0.259,0.284-0.586,0.425-0.98,0.425
				c-0.413,0-0.746-0.14-0.999-0.42c-0.253-0.281-0.379-0.692-0.379-1.234v-10.45c0-0.604,0.139-1.036,0.416-1.294
				s0.718-0.388,1.322-0.388h3.523c1.042,0,1.843,0.08,2.404,0.24c0.555,0.154,1.034,0.41,1.438,0.768s0.711,0.795,0.92,1.313
				c0.209,0.518,0.314,1.101,0.314,1.748c0,1.381-0.426,2.428-1.276,3.14S115.365,107.724,113.683,107.724z M113.017,101.51h-1.85
				v4.143h1.85c0.647,0,1.188-0.068,1.623-0.203c0.435-0.136,0.766-0.358,0.994-0.666c0.229-0.308,0.342-0.712,0.342-1.211
				c0-0.598-0.176-1.085-0.527-1.461C115.054,101.71,114.243,101.51,113.017,101.51z"/>
			<path fill="#F0454C" d="M123.817,100.881v3.884h5.927v-3.884c0-0.555,0.125-0.971,0.375-1.249
				c0.25-0.277,0.578-0.416,0.985-0.416c0.413,0,0.748,0.137,1.003,0.412s0.384,0.692,0.384,1.253v10.681
				c0,0.561-0.129,0.98-0.389,1.257c-0.259,0.277-0.591,0.416-0.999,0.416c-0.413,0-0.743-0.14-0.989-0.42
				c-0.247-0.281-0.37-0.698-0.37-1.253v-4.559h-5.927v4.559c0,0.561-0.129,0.98-0.389,1.257c-0.259,0.277-0.592,0.416-0.999,0.416
				c-0.413,0-0.743-0.14-0.989-0.42c-0.247-0.281-0.37-0.698-0.37-1.253v-10.681c0-0.555,0.122-0.971,0.365-1.249
				s0.575-0.416,0.994-0.416c0.413,0,0.748,0.137,1.003,0.412S123.817,100.32,123.817,100.881z"/>
			<path fill="#F0454C" d="M140.703,107.724h-2.515v3.838c0,0.548-0.129,0.965-0.389,1.248c-0.259,0.284-0.585,0.425-0.98,0.425
				c-0.413,0-0.746-0.14-0.999-0.42c-0.253-0.281-0.379-0.692-0.379-1.234v-10.45c0-0.604,0.139-1.036,0.416-1.294
				s0.718-0.388,1.323-0.388h3.523c1.042,0,1.843,0.08,2.404,0.24c0.555,0.154,1.034,0.41,1.438,0.768s0.71,0.795,0.92,1.313
				c0.209,0.518,0.314,1.101,0.314,1.748c0,1.381-0.425,2.428-1.276,3.14C143.652,107.368,142.386,107.724,140.703,107.724z
				 M140.037,101.51h-1.85v4.143h1.85c0.647,0,1.188-0.068,1.623-0.203c0.435-0.136,0.766-0.358,0.994-0.666
				s0.342-0.712,0.342-1.211c0-0.598-0.176-1.085-0.527-1.461C142.074,101.71,141.264,101.51,140.037,101.51z"/>
		</g>
		<linearGradient id="SVGID_7_" gradientUnits="userSpaceOnUse" x1="38.335" y1="234.9771" x2="100.9458" y2="234.9771">
			<stop  offset="0" style="stop-color:#F2F2F2"/>
			<stop  offset="0.9923" style="stop-color:#C6EDEE"/>
		</linearGradient>
		
			<circle opacity="0.85" fill="url(#SVGID_7_)" stroke="#F9F9F9" stroke-width="0.3421" stroke-miterlimit="10" cx="69.64" cy="234.978" r="31.305"/>
		<g>
			<linearGradient id="SVGID_8_" gradientUnits="userSpaceOnUse" x1="51.2959" y1="249.1738" x2="91.4072" y2="249.1738">
				<stop  offset="0.0028" style="stop-color:#547ED1"/>
				<stop  offset="1" style="stop-color:#54ADD1"/>
			</linearGradient>
			<path fill="url(#SVGID_8_)" d="M90.484,250.097H52.219c-0.508,0-0.923-0.416-0.923-0.923l0,0c0-0.508,0.416-0.923,0.923-0.923
				h38.265c0.508,0,0.923,0.415,0.923,0.923l0,0C91.407,249.681,90.992,250.097,90.484,250.097z"/>
			
				<linearGradient id="SVGID_9_" gradientUnits="userSpaceOnUse" x1="-401.0493" y1="818.5703" x2="-374.4409" y2="818.5703" gradientTransform="matrix(0 -1 1 0 -766.333 -151)">
				<stop  offset="0.0028" style="stop-color:#547ED1"/>
				<stop  offset="1" style="stop-color:#54ADD1"/>
			</linearGradient>
			<path fill="url(#SVGID_9_)" d="M53.161,224.364v24.762c0,0.508-0.416,0.923-0.923,0.923l0,0c-0.508,0-0.923-0.415-0.923-0.923
				v-24.762c0-0.508,0.416-0.923,0.923-0.923l0,0C52.746,223.441,53.161,223.856,53.161,224.364z"/>
			<g>
				<g>
					<path fill="#FE9039" d="M57.458,243.233c3.521-3.961,7.042-7.922,10.563-11.883c-0.558,0-1.116,0-1.674,0
						c3.136,3.136,6.271,6.271,9.407,9.407c0.592,0.592,1.406,0.355,1.859-0.239c4.566-5.997,9.132-11.993,13.698-17.989
						c0.923-1.212-1.132-2.393-2.044-1.195c-4.566,5.996-9.132,11.993-13.698,17.989c0.62-0.08,1.239-0.16,1.859-0.24
						c-3.136-3.136-6.271-6.271-9.407-9.407c-0.433-0.433-1.248-0.479-1.674,0c-3.521,3.961-7.042,7.922-10.563,11.883
						C54.775,242.695,56.444,244.375,57.458,243.233L57.458,243.233z"/>
				</g>
			</g>
		</g>
		<linearGradient id="SVGID_10_" gradientUnits="userSpaceOnUse" x1="225.3359" y1="427.0117" x2="287.9473" y2="427.0117">
			<stop  offset="0" style="stop-color:#F2F2F2"/>
			<stop  offset="0.9923" style="stop-color:#C6EDEE"/>
		</linearGradient>
		
			<circle opacity="0.85" fill="url(#SVGID_10_)" stroke="#F9F9F9" stroke-width="0.3421" stroke-miterlimit="10" cx="256.642" cy="427.012" r="31.306"/>
		<g>
			<path fill="#91B23A" d="M238.075,423.301v3.409h5.202v-3.409c0-0.486,0.11-0.852,0.329-1.096
				c0.219-0.243,0.507-0.364,0.864-0.364c0.362,0,0.656,0.12,0.88,0.36c0.225,0.241,0.337,0.607,0.337,1.1v9.375
				c0,0.492-0.113,0.86-0.341,1.104c-0.227,0.244-0.52,0.365-0.876,0.365c-0.362,0-0.652-0.123-0.868-0.369
				c-0.217-0.246-0.325-0.612-0.325-1.1v-4.001h-5.202v4.001c0,0.492-0.114,0.86-0.341,1.104c-0.228,0.244-0.52,0.365-0.877,0.365
				c-0.362,0-0.652-0.123-0.868-0.369c-0.217-0.246-0.325-0.612-0.325-1.1v-9.375c0-0.486,0.107-0.852,0.32-1.096
				c0.214-0.243,0.505-0.364,0.873-0.364c0.363,0,0.656,0.12,0.881,0.36C237.963,422.442,238.075,422.809,238.075,423.301z"/>
			<path fill="#91B23A" d="M256.004,424.032h-2.63v8.644c0,0.498-0.11,0.867-0.333,1.107c-0.222,0.241-0.508,0.361-0.859,0.361
				c-0.357,0-0.648-0.121-0.873-0.365c-0.225-0.243-0.337-0.611-0.337-1.104v-8.644h-2.629c-0.411,0-0.717-0.091-0.917-0.272
				c-0.201-0.181-0.301-0.421-0.301-0.718c0-0.309,0.104-0.553,0.313-0.73c0.208-0.179,0.51-0.269,0.905-0.269h7.662
				c0.417,0,0.727,0.093,0.93,0.276c0.202,0.184,0.304,0.425,0.304,0.723c0,0.297-0.103,0.537-0.308,0.718
				C256.724,423.941,256.415,424.032,256.004,424.032z"/>
			<path fill="#91B23A" d="M262.684,432.148l-1.907-7.581v8.214c0,0.454-0.102,0.795-0.305,1.022
				c-0.202,0.228-0.472,0.341-0.808,0.341c-0.324,0-0.59-0.112-0.795-0.337c-0.206-0.225-0.309-0.566-0.309-1.026v-9.415
				c0-0.52,0.136-0.87,0.406-1.051c0.271-0.182,0.636-0.272,1.096-0.272h0.746c0.449,0,0.775,0.041,0.979,0.122
				s0.353,0.228,0.45,0.438s0.208,0.555,0.333,1.03l1.729,6.518l1.729-6.518c0.125-0.476,0.235-0.819,0.333-1.03
				s0.248-0.357,0.45-0.438c0.203-0.081,0.529-0.122,0.979-0.122h0.746c0.46,0,0.825,0.091,1.096,0.272
				c0.271,0.181,0.406,0.531,0.406,1.051v9.415c0,0.454-0.102,0.795-0.305,1.022c-0.202,0.228-0.475,0.341-0.815,0.341
				c-0.319,0-0.582-0.113-0.787-0.341c-0.206-0.228-0.309-0.568-0.309-1.022v-8.214l-1.907,7.581
				c-0.124,0.492-0.226,0.854-0.305,1.083c-0.078,0.23-0.223,0.439-0.434,0.629s-0.504,0.284-0.877,0.284
				c-0.281,0-0.52-0.061-0.714-0.183c-0.195-0.121-0.347-0.277-0.455-0.467s-0.193-0.398-0.256-0.629
				C262.813,432.637,262.749,432.397,262.684,432.148z"/>
			<path fill="#91B23A" d="M274.874,423.301v8.661h4.887c0.39,0,0.688,0.095,0.896,0.283c0.208,0.189,0.313,0.428,0.313,0.715
				c0,0.292-0.103,0.528-0.309,0.71c-0.205,0.182-0.506,0.271-0.9,0.271h-5.819c-0.525,0-0.902-0.116-1.133-0.349
				c-0.229-0.232-0.345-0.608-0.345-1.128v-9.164c0-0.486,0.109-0.852,0.329-1.096c0.219-0.243,0.507-0.364,0.864-0.364
				c0.362,0,0.656,0.12,0.88,0.36C274.762,422.442,274.874,422.809,274.874,423.301z"/>
		</g>
		<linearGradient id="SVGID_11_" gradientUnits="userSpaceOnUse" x1="413.9316" y1="233.0127" x2="476.542" y2="233.0127">
			<stop  offset="0" style="stop-color:#F2F2F2"/>
			<stop  offset="0.9923" style="stop-color:#C6EDEE"/>
		</linearGradient>
		
			<circle opacity="0.85" fill="url(#SVGID_11_)" stroke="#F9F9F9" stroke-width="0.3421" stroke-miterlimit="10" cx="445.237" cy="233.013" r="31.305"/>
		<g>
			<path fill="#2F84C5" d="M441.174,227.168v9.617c0,0.835-0.035,1.544-0.106,2.129s-0.231,1.177-0.482,1.778
				c-0.417,1.01-1.105,1.797-2.065,2.36c-0.961,0.563-2.129,0.845-3.507,0.845c-1.244,0-2.281-0.196-3.112-0.588
				c-0.83-0.393-1.5-1.027-2.01-1.904c-0.267-0.467-0.483-1.006-0.65-1.615s-0.251-1.189-0.251-1.741
				c0-0.584,0.163-1.031,0.488-1.34c0.326-0.309,0.743-0.463,1.253-0.463c0.492,0,0.863,0.142,1.114,0.426
				c0.25,0.284,0.442,0.727,0.576,1.328c0.142,0.643,0.283,1.156,0.426,1.54c0.142,0.384,0.38,0.714,0.714,0.989
				s0.81,0.413,1.427,0.413c1.646,0,2.468-1.206,2.468-3.619v-10.156c0-0.751,0.164-1.315,0.494-1.691
				c0.33-0.375,0.778-0.563,1.347-0.563c0.575,0,1.032,0.188,1.371,0.563C441.005,225.854,441.174,226.417,441.174,227.168z"/>
			<path fill="#2F84C5" d="M459.156,238.076c0,1.11-0.286,2.108-0.857,2.993c-0.572,0.885-1.409,1.578-2.511,2.079
				c-1.103,0.501-2.409,0.751-3.92,0.751c-1.812,0-3.306-0.342-4.483-1.027c-0.834-0.493-1.513-1.15-2.034-1.972
				c-0.522-0.822-0.783-1.622-0.783-2.398c0-0.451,0.156-0.837,0.47-1.158s0.712-0.482,1.196-0.482c0.392,0,0.724,0.125,0.995,0.375
				s0.503,0.622,0.695,1.115c0.233,0.584,0.486,1.073,0.758,1.465c0.271,0.393,0.652,0.716,1.146,0.971
				c0.492,0.254,1.14,0.382,1.94,0.382c1.103,0,1.998-0.257,2.687-0.77c0.688-0.514,1.033-1.154,1.033-1.922
				c0-0.609-0.186-1.104-0.558-1.484c-0.371-0.38-0.852-0.67-1.439-0.87c-0.589-0.201-1.376-0.414-2.361-0.639
				c-1.318-0.309-2.423-0.67-3.312-1.083c-0.89-0.413-1.595-0.977-2.116-1.69c-0.522-0.714-0.783-1.601-0.783-2.661
				c0-1.01,0.275-1.907,0.827-2.692c0.551-0.785,1.348-1.388,2.392-1.81c1.043-0.421,2.271-0.632,3.682-0.632
				c1.127,0,2.102,0.14,2.924,0.419c0.822,0.28,1.505,0.651,2.048,1.115c0.542,0.463,0.938,0.95,1.189,1.459
				c0.25,0.509,0.376,1.006,0.376,1.49c0,0.442-0.157,0.841-0.47,1.196c-0.313,0.355-0.704,0.532-1.171,0.532
				c-0.426,0-0.75-0.106-0.971-0.319c-0.222-0.213-0.461-0.562-0.721-1.046c-0.333-0.693-0.734-1.233-1.201-1.622
				c-0.468-0.388-1.22-0.582-2.255-0.582c-0.96,0-1.734,0.21-2.322,0.632c-0.589,0.421-0.883,0.929-0.883,1.521
				c0,0.367,0.1,0.685,0.3,0.952c0.201,0.267,0.477,0.497,0.827,0.688c0.351,0.192,0.705,0.342,1.064,0.451
				c0.358,0.108,0.951,0.267,1.778,0.476c1.035,0.242,1.972,0.509,2.811,0.802c0.839,0.292,1.553,0.647,2.142,1.064
				c0.589,0.417,1.048,0.945,1.378,1.584C458.991,236.366,459.156,237.149,459.156,238.076z"/>
		</g>
		<linearGradient id="SVGID_12_" gradientUnits="userSpaceOnUse" x1="86.3184" y1="368.3701" x2="148.9297" y2="368.3701">
			<stop  offset="0" style="stop-color:#F2F2F2"/>
			<stop  offset="0.9923" style="stop-color:#C6EDEE"/>
		</linearGradient>
		
			<circle opacity="0.85" fill="url(#SVGID_12_)" stroke="#F9F9F9" stroke-width="0.3421" stroke-miterlimit="10" cx="117.624" cy="368.37" r="31.306"/>
		<g>
			<linearGradient id="SVGID_13_" gradientUnits="userSpaceOnUse" x1="109" y1="368.5" x2="130" y2="368.5">
				<stop  offset="0.0028" style="stop-color:#547ED1"/>
				<stop  offset="1" style="stop-color:#54ADD1"/>
			</linearGradient>
			<path fill="url(#SVGID_13_)" d="M130,351.251c0-0.69-0.561-1.251-1.251-1.251h-18.497c-0.691,0-1.251,0.561-1.251,1.251v34.498
				c0,0.69,0.561,1.251,1.251,1.251h18.497c0.691,0,1.251-0.561,1.251-1.251V351.251z M118.777,386.197
				c-0.691,0-1.251-0.561-1.251-1.252c0-0.69,0.56-1.251,1.251-1.251c0.691,0,1.251,0.561,1.251,1.251
				C120.029,385.637,119.468,386.197,118.777,386.197z M128,381h-16v-29h16V381z"/>
			<rect x="112" y="352" fill="#255E77" width="16" height="29"/>
			<circle fill="#00B7FE" cx="118.777" cy="384.946" r="1.251"/>
		</g>
		<linearGradient id="SVGID_14_" gradientUnits="userSpaceOnUse" x1="359.3447" y1="371.5264" x2="421.9561" y2="371.5264">
			<stop  offset="0" style="stop-color:#F2F2F2"/>
			<stop  offset="0.9923" style="stop-color:#C6EDEE"/>
		</linearGradient>
		
			<circle opacity="0.85" fill="url(#SVGID_14_)" stroke="#F9F9F9" stroke-width="0.3421" stroke-miterlimit="10" cx="390.65" cy="371.526" r="31.306"/>
		<g>
			<linearGradient id="SVGID_15_" gradientUnits="userSpaceOnUse" x1="380.7529" y1="370.6504" x2="406.1123" y2="370.6504">
				<stop  offset="0.0028" style="stop-color:#547ED1"/>
				<stop  offset="1" style="stop-color:#54ADD1"/>
			</linearGradient>
			<path fill="none" stroke="url(#SVGID_15_)" stroke-width="1.2895" stroke-miterlimit="10" d="M397.731,356.879v-3.853h-14.543
				c-0.985,0-1.791,0.807-1.791,1.791v31.665c0,0.984,0.806,1.791,1.791,1.791h20.488c0.989,0,1.791-0.803,1.791-1.791v-27.868
				h-6.001C398.508,358.614,397.731,357.838,397.731,356.879z"/>
			
				<line fill="none" stroke="#FE9039" stroke-width="0.5731" stroke-miterlimit="10" x1="383.618" y1="368.286" x2="401.527" y2="368.286"/>
			
				<line fill="none" stroke="#FE9039" stroke-width="0.5731" stroke-miterlimit="10" x1="383.762" y1="371.581" x2="401.671" y2="371.581"/>
			
				<line fill="none" stroke="#FE9039" stroke-width="0.5731" stroke-miterlimit="10" x1="384.048" y1="375.449" x2="401.958" y2="375.449"/>
			
				<line fill="none" stroke="#FE9039" stroke-width="0.5731" stroke-miterlimit="10" x1="384.191" y1="379.748" x2="393.361" y2="379.748"/>
		</g>
		<linearGradient id="SVGID_16_" gradientUnits="userSpaceOnUse" x1="354.2207" y1="106.6406" x2="416.832" y2="106.6406">
			<stop  offset="0" style="stop-color:#F2F2F2"/>
			<stop  offset="0.9923" style="stop-color:#C6EDEE"/>
		</linearGradient>
		
			<circle opacity="0.85" fill="url(#SVGID_16_)" stroke="#F9F9F9" stroke-width="0.3421" stroke-miterlimit="10" cx="385.526" cy="106.64" r="31.306"/>
		<g>
			<linearGradient id="SVGID_17_" gradientUnits="userSpaceOnUse" x1="363.6904" y1="108.3057" x2="374.2128" y2="108.3057">
				<stop  offset="0.0028" style="stop-color:#547ED1"/>
				<stop  offset="1" style="stop-color:#54ADD1"/>
			</linearGradient>
			<path fill="url(#SVGID_17_)" d="M372.689,100.499c-3.06,2.596-6.118,5.191-9.178,7.787c-0.638,0.541-0.382,1.57,0.253,1.966
				c3.198,1.993,6.397,3.986,9.596,5.98c1.371,0.854,2.629-1.311,1.264-2.162c-3.199-1.993-6.397-3.986-9.596-5.979
				c0.084,0.655,0.169,1.31,0.253,1.965c3.06-2.596,6.119-5.191,9.179-7.788C375.689,101.225,373.912,99.462,372.689,100.499
				L372.689,100.499z"/>
			<linearGradient id="SVGID_18_" gradientUnits="userSpaceOnUse" x1="397.1328" y1="108.3057" x2="407.6555" y2="108.3057">
				<stop  offset="0.0028" style="stop-color:#547ED1"/>
				<stop  offset="1" style="stop-color:#54ADD1"/>
			</linearGradient>
			<path fill="url(#SVGID_18_)" d="M396.887,102.269c3.06,2.596,6.119,5.192,9.178,7.788c0.085-0.655,0.169-1.31,0.254-1.965
				c-3.198,1.993-6.397,3.986-9.596,5.979c-1.364,0.85-0.109,3.017,1.264,2.162c3.198-1.994,6.396-3.987,9.596-5.98
				c0.635-0.396,0.89-1.425,0.253-1.966c-3.06-2.596-6.119-5.191-9.179-7.787C397.436,99.462,395.656,101.225,396.887,102.269
				L396.887,102.269z"/>
			<path fill="#FE9039" d="M382.43,120.768c2.97-7.727,5.938-15.455,8.907-23.182c0.415-1.08,0.83-2.16,1.245-3.24
				c0.578-1.505-1.842-2.156-2.414-0.666c-2.969,7.728-5.938,15.455-8.907,23.182c-0.415,1.08-0.829,2.16-1.244,3.24
				C379.438,121.607,381.857,122.259,382.43,120.768L382.43,120.768z"/>
		</g>
		<g>
			<g>
				<g>
					<g>
						<g>
							<path fill="none" d="M364.283,241.921c0,0-0.011,1.037-0.066,2.072c-0.079,1.034-0.158,2.067-0.158,2.067l4.198,0.305
								c0,0,0.081-1.074,0.162-2.147c0.058-1.075,0.07-2.152,0.07-2.152L364.283,241.921z"/>
							<path fill-rule="evenodd" clip-rule="evenodd" fill="#DFF7FC" d="M366.158,246.213c-1.159-0.088-2.028-1.082-1.941-2.22
								c0.058-1.139,1.001-2.036,2.17-2c1.154,0.036,2.093,1.033,2.032,2.224C368.329,245.408,367.316,246.301,366.158,246.213z"/>
						</g>
					</g>
					<g>
						<g>
							<path fill="none" d="M363.27,253.527c0,0-0.109,1.031-0.313,2.048c-0.183,1.021-0.364,2.041-0.364,2.041l4.14,0.756
								c0,0,0.189-1.061,0.379-2.12c0.21-1.058,0.325-2.129,0.325-2.129L363.27,253.527z"/>
							<path fill-rule="evenodd" clip-rule="evenodd" fill="#DFF7FC" d="M364.661,257.994c-1.142-0.213-1.906-1.296-1.705-2.419
								c0.223-1.119,1.237-1.912,2.396-1.75c1.143,0.159,1.988,1.254,1.758,2.427C366.9,257.427,365.804,258.207,364.661,257.994z"
								/>
						</g>
					</g>
					<g>
						<g>
							<polygon fill="none" points="361.015,264.956 359.887,268.944 363.92,270.146 365.092,266.001 							"/>
							<path fill-rule="evenodd" clip-rule="evenodd" fill="#DFF7FC" d="M361.903,269.545c-1.112-0.336-1.762-1.497-1.45-2.595
								c0.31-1.098,1.483-1.754,2.6-1.472c1.137,0.287,1.78,1.446,1.456,2.596C364.183,269.223,363.016,269.881,361.903,269.545z"/>
						</g>
					</g>
					<g>
						<g>
							<polygon fill="none" points="357.495,276.06 355.976,279.916 359.854,281.55 361.435,277.542 							"/>
							<path fill-rule="evenodd" clip-rule="evenodd" fill="#DFF7FC" d="M357.915,280.732c-1.069-0.455-1.599-1.684-1.18-2.745
								c0.418-1.061,1.641-1.592,2.729-1.187s1.617,1.635,1.18,2.745C360.206,280.657,358.983,281.188,357.915,280.732z"/>
						</g>
					</g>
					<g>
						<g>
							<path fill="none" d="M352.794,286.716c0,0-0.473,0.922-0.945,1.845c-0.453,0.933-0.99,1.819-0.99,1.819l3.678,2.046
								c0,0,0.558-0.922,1.029-1.891c0.491-0.959,0.982-1.917,0.982-1.917L352.794,286.716z"/>
							<path fill-rule="evenodd" clip-rule="evenodd" fill="#DFF7FC" d="M352.697,291.403c-1.021-0.573-1.35-1.817-0.849-2.843
								c0.521-1.016,1.783-1.415,2.822-0.894c1.038,0.521,1.439,1.806,0.895,2.868C355.04,291.607,353.702,291.967,352.697,291.403z
								"/>
						</g>
					</g>
					<g>
						<g>
							<path fill="none" d="M346.975,296.807c0,0-0.548,0.88-1.129,1.737c-0.601,0.845-1.201,1.688-1.201,1.688l3.435,2.432
								c0,0,0.624-0.878,1.248-1.755c0.604-0.892,1.174-1.806,1.174-1.806L346.975,296.807z"/>
							<path fill-rule="evenodd" clip-rule="evenodd" fill="#DFF7FC" d="M346.361,301.448c-0.946-0.675-1.178-1.975-0.516-2.904
								c0.638-0.945,1.911-1.224,2.893-0.589c0.971,0.627,1.256,1.964,0.589,2.954C348.636,301.882,347.308,302.123,346.361,301.448
								z"/>
						</g>
					</g>
					<g>
						<g>
							<path fill="none" d="M340.112,306.22c0,0-0.154,0.209-0.406,0.505c-0.255,0.294-0.594,0.686-0.934,1.077
								c-0.679,0.783-1.357,1.566-1.357,1.566l3.153,2.787c0,0,0.705-0.814,1.41-1.628c0.353-0.407,0.705-0.814,0.97-1.119
								c0.261-0.308,0.422-0.524,0.422-0.524L340.112,306.22z"/>
							<path fill-rule="evenodd" clip-rule="evenodd" fill="#DFF7FC" d="M338.992,310.762c-0.868-0.772-0.967-2.098-0.22-2.96
								c0.756-0.855,2.076-0.975,2.969-0.25c0.911,0.74,1.027,2.08,0.237,2.976C341.197,311.43,339.86,311.534,338.992,310.762z"/>
						</g>
					</g>
					<g>
						<g>
							<polygon fill="none" points="332.257,314.824 329.257,317.686 332.092,320.796 335.21,317.823 							"/>
							<path fill-rule="evenodd" clip-rule="evenodd" fill="#DFF7FC" d="M330.675,319.24c-0.78-0.861-0.744-2.198,0.082-2.985
								c0.825-0.787,2.158-0.756,2.977,0.069s0.781,2.162-0.082,2.985C332.787,320.134,331.454,320.102,330.675,319.24z"/>
						</g>
					</g>
					<g>
						<g>
							<path fill="none" d="M323.519,322.529c0,0-0.814,0.641-1.63,1.281c-0.802,0.658-1.662,1.236-1.662,1.236l2.484,3.397
								c0,0,0.894-0.603,1.728-1.285c0.847-0.665,1.693-1.331,1.693-1.331L323.519,322.529z"/>
							<path fill-rule="evenodd" clip-rule="evenodd" fill="#DFF7FC" d="M321.469,326.746c-0.69-0.95-0.464-2.213,0.42-2.936
								c0.897-0.705,2.212-0.54,2.937,0.368s0.552,2.243-0.387,2.98C323.513,327.913,322.144,327.676,321.469,326.746z"/>
						</g>
					</g>
					<g>
						<g>
							<path fill="none" d="M314.012,329.261c0,0-0.863,0.575-1.754,1.104c-0.898,0.517-1.797,1.032-1.797,1.032l2.103,3.646
								c0,0,0.934-0.537,1.867-1.074c0.926-0.55,1.823-1.146,1.823-1.146L314.012,329.261z"/>
							<path fill-rule="evenodd" clip-rule="evenodd" fill="#DFF7FC" d="M311.512,333.221c-0.577-1.009-0.243-2.287,0.746-2.855
								c0.979-0.586,2.248-0.312,2.875,0.677c0.618,0.975,0.322,2.314-0.702,2.927C313.396,334.564,312.089,334.229,311.512,333.221
								z"/>
						</g>
					</g>
					<g>
						<g>
							<path fill="none" d="M303.84,334.939c0,0-0.226,0.126-0.58,0.287c-0.354,0.159-0.826,0.373-1.299,0.586
								c-0.943,0.427-1.888,0.854-1.888,0.854l1.695,3.853c0,0,0.98-0.443,1.962-0.888c0.491-0.222,0.981-0.443,1.35-0.61
								c0.367-0.167,0.604-0.298,0.604-0.298L303.84,334.939z"/>
							<path fill-rule="evenodd" clip-rule="evenodd" fill="#DFF7FC" d="M300.921,338.593c-0.465-1.065,0.001-2.311,1.04-2.78
								c1.044-0.461,2.294-0.013,2.801,1.019c0.519,1.055,0.061,2.316-1.031,2.8C302.643,340.123,301.385,339.657,300.921,338.593z"
								/>
						</g>
					</g>
					<g>
						<g>
							<polygon fill="none" points="293.104,339.458 289.179,340.786 290.444,344.8 294.524,343.419 							"/>
							<path fill-rule="evenodd" clip-rule="evenodd" fill="#DFF7FC" d="M289.812,342.793c-0.346-1.109,0.249-2.306,1.33-2.671
								c1.08-0.366,2.277,0.224,2.673,1.316c0.396,1.093-0.199,2.289-1.33,2.672C291.354,344.492,290.156,343.902,289.812,342.793z"
								/>
						</g>
					</g>
					<g>
						<g>
							<path fill="none" d="M281.938,342.771c0,0-1.01,0.233-2.02,0.467c-0.505,0.116-1.01,0.233-1.388,0.32
								c-0.383,0.07-0.638,0.117-0.638,0.117l0.821,4.127c0,0,0.265-0.049,0.662-0.121c0.394-0.091,0.918-0.212,1.443-0.333
								c1.049-0.242,2.099-0.484,2.099-0.484L281.938,342.771z"/>
							<path fill-rule="evenodd" clip-rule="evenodd" fill="#DFF7FC" d="M278.305,345.738c-0.221-1.129,0.506-2.229,1.614-2.501
								c1.111-0.257,2.235,0.451,2.51,1.58s-0.445,2.263-1.608,2.53C279.66,347.632,278.529,346.891,278.305,345.738z"/>
						</g>
					</g>
					<g>
						<g>
							<path fill="none" d="M270.48,344.859c0,0-1.028,0.131-2.057,0.262c-0.513,0.075-1.03,0.113-1.418,0.14
								c-0.388,0.029-0.646,0.049-0.646,0.049l0.369,4.192c0,0,0.269-0.021,0.671-0.051c0.403-0.028,0.94-0.068,1.474-0.146
								c1.068-0.135,2.137-0.271,2.137-0.271L270.48,344.859z"/>
							<path fill-rule="evenodd" clip-rule="evenodd" fill="#DFF7FC" d="M266.545,347.406c-0.1-1.173,0.748-2.135,1.879-2.285
								c1.132-0.145,2.171,0.673,2.321,1.825s-0.688,2.209-1.871,2.358C267.69,349.462,266.642,348.549,266.545,347.406z"/>
						</g>
					</g>
					<g>
						<g>
							<path fill="none" d="M258.86,345.704c0,0-1.036,0.026-2.072,0.053c-1.036-0.026-2.072-0.053-2.072-0.053l-0.08,4.208
								c0,0,1.076,0.026,2.152,0.054c1.076-0.027,2.152-0.054,2.152-0.054L258.86,345.704z"/>
							<path fill-rule="evenodd" clip-rule="evenodd" fill="#DFF7FC" d="M254.676,347.808c0.025-1.161,0.972-2.08,2.112-2.051
								c1.141-0.029,2.087,0.89,2.112,2.051c0.026,1.162-0.919,2.128-2.112,2.158C255.595,349.936,254.649,348.97,254.676,347.808z"
								/>
						</g>
					</g>
					<g>
						<g>
							<path fill="none" d="M247.216,345.31c0,0-0.259-0.02-0.646-0.049c-0.388-0.026-0.905-0.064-1.418-0.14
								c-1.028-0.131-2.056-0.262-2.056-0.262l-0.53,4.175c0,0,1.068,0.136,2.136,0.271c0.533,0.078,1.07,0.118,1.473,0.146
								c0.403,0.03,0.671,0.051,0.671,0.051L247.216,345.31z"/>
							<path fill-rule="evenodd" clip-rule="evenodd" fill="#DFF7FC" d="M242.831,346.946c0.15-1.152,1.189-1.97,2.321-1.825
								c1.131,0.15,1.979,1.112,1.879,2.285c-0.097,1.143-1.145,2.056-2.329,1.898C243.518,349.155,242.681,348.099,242.831,346.946
								z"/>
						</g>
					</g>
					<g>
						<g>
							<path fill="none" d="M235.683,343.675c0,0-0.255-0.047-0.637-0.117c-0.378-0.087-0.883-0.204-1.388-0.32
								c-1.01-0.233-2.02-0.467-2.02-0.467l-0.98,4.093c0,0,1.049,0.242,2.099,0.484c0.525,0.121,1.049,0.242,1.443,0.333
								c0.397,0.072,0.662,0.121,0.662,0.121L235.683,343.675z"/>
							<path fill-rule="evenodd" clip-rule="evenodd" fill="#DFF7FC" d="M231.147,344.817c0.275-1.129,1.398-1.837,2.51-1.58
								c1.108,0.271,1.835,1.372,1.615,2.501c-0.225,1.152-1.355,1.894-2.516,1.609C231.593,347.08,230.873,345.946,231.147,344.817
								z"/>
						</g>
					</g>
					<g>
						<g>
							<polygon fill="none" points="224.398,340.786 220.472,339.458 219.051,343.419 223.132,344.8 							"/>
							<path fill-rule="evenodd" clip-rule="evenodd" fill="#DFF7FC" d="M219.762,341.438c0.396-1.093,1.593-1.683,2.673-1.316
								c1.081,0.365,1.676,1.562,1.33,2.671c-0.345,1.109-1.542,1.699-2.673,1.317C219.961,343.728,219.366,342.531,219.762,341.438
								z"/>
						</g>
					</g>
					<g>
						<g>
							<path fill="none" d="M213.503,336.667c0,0-0.944-0.428-1.889-0.854c-0.472-0.213-0.944-0.427-1.298-0.586
								c-0.354-0.161-0.581-0.287-0.581-0.287l-1.843,3.783c0,0,0.235,0.131,0.603,0.298c0.368,0.167,0.859,0.389,1.35,0.61
								c0.981,0.444,1.962,0.888,1.962,0.888L213.503,336.667z"/>
							<path fill-rule="evenodd" clip-rule="evenodd" fill="#DFF7FC" d="M208.814,336.831c0.507-1.031,1.757-1.479,2.8-1.019
								c1.04,0.47,1.505,1.715,1.041,2.78c-0.464,1.064-1.723,1.53-2.81,1.038C208.753,339.147,208.296,337.886,208.814,336.831z"/>
						</g>
					</g>
					<g>
						<g>
							<path fill="none" d="M203.116,331.397c0,0-0.898-0.516-1.797-1.032c-0.891-0.529-1.754-1.104-1.754-1.104l-2.242,3.562
								c0,0,0.897,0.596,1.823,1.146c0.934,0.537,1.867,1.074,1.867,1.074L203.116,331.397z"/>
							<path fill-rule="evenodd" clip-rule="evenodd" fill="#DFF7FC" d="M198.444,331.042c0.626-0.988,1.896-1.263,2.875-0.677
								c0.99,0.568,1.323,1.847,0.746,2.855s-1.884,1.344-2.918,0.748C198.122,333.356,197.826,332.017,198.444,331.042z"/>
						</g>
					</g>
					<g>
						<g>
							<path fill="none" d="M193.35,325.047c0,0-0.861-0.578-1.663-1.236c-0.815-0.641-1.63-1.281-1.63-1.281l-2.613,3.299
								c0,0,0.847,0.666,1.693,1.331c0.833,0.683,1.728,1.285,1.728,1.285L193.35,325.047z"/>
							<path fill-rule="evenodd" clip-rule="evenodd" fill="#DFF7FC" d="M188.751,324.179c0.725-0.908,2.04-1.073,2.937-0.368
								c0.884,0.723,1.11,1.985,0.42,2.936c-0.675,0.93-2.044,1.167-2.97,0.413C188.199,326.422,188.026,325.088,188.751,324.179z"
								/>
						</g>
					</g>
					<g>
						<g>
							<polygon fill="none" points="184.32,317.686 181.319,314.825 178.367,317.823 181.484,320.796 							"/>
							<path fill-rule="evenodd" clip-rule="evenodd" fill="#DFF7FC" d="M179.843,316.324c0.818-0.825,2.151-0.856,2.977-0.069
								s0.862,2.124,0.082,2.985s-2.113,0.894-2.977,0.069C179.061,318.486,179.025,317.149,179.843,316.324z"/>
						</g>
					</g>
					<g>
						<g>
							<path fill="none" d="M176.161,309.368c0,0-0.679-0.783-1.357-1.566c-0.339-0.392-0.679-0.783-0.933-1.077
								c-0.252-0.296-0.406-0.505-0.406-0.505l-3.258,2.664c0,0,0.16,0.217,0.422,0.524c0.264,0.305,0.617,0.712,0.969,1.119
								c0.705,0.814,1.41,1.628,1.41,1.628L176.161,309.368z"/>
							<path fill-rule="evenodd" clip-rule="evenodd" fill="#DFF7FC" d="M171.835,307.552c0.893-0.725,2.213-0.605,2.968,0.25
								c0.747,0.862,0.648,2.188-0.219,2.96c-0.868,0.772-2.206,0.668-2.987-0.234C170.808,309.632,170.924,308.292,171.835,307.552
								z"/>
						</g>
					</g>
					<g>
						<g>
							<path fill="none" d="M168.932,300.233c0,0-0.601-0.845-1.202-1.689c-0.581-0.857-1.129-1.737-1.129-1.737l-3.526,2.297
								c0,0,0.57,0.914,1.174,1.806c0.624,0.877,1.248,1.755,1.248,1.755L168.932,300.233z"/>
							<path fill-rule="evenodd" clip-rule="evenodd" fill="#DFF7FC" d="M164.838,297.955c0.981-0.635,2.254-0.356,2.892,0.589
								c0.662,0.93,0.43,2.23-0.516,2.904c-0.946,0.675-2.274,0.434-2.965-0.539C163.582,299.919,163.868,298.582,164.838,297.955z"
								/>
						</g>
					</g>
					<g>
						<g>
							<path fill="none" d="M162.718,290.381c0,0-0.537-0.888-0.991-1.82c-0.472-0.922-0.944-1.845-0.944-1.845l-3.754,1.902
								c0,0,0.491,0.958,0.982,1.917c0.472,0.969,1.029,1.891,1.029,1.891L162.718,290.381z"/>
							<path fill-rule="evenodd" clip-rule="evenodd" fill="#DFF7FC" d="M158.905,287.667c1.039-0.521,2.302-0.122,2.822,0.894
								c0.501,1.025,0.173,2.27-0.848,2.843c-1.005,0.563-2.342,0.204-2.868-0.868C157.466,289.473,157.867,288.188,158.905,287.667
								z"/>
						</g>
					</g>
					<g>
						<g>
							<polygon fill="none" points="157.601,279.916 156.081,276.06 152.142,277.542 153.723,281.55 							"/>
							<path fill-rule="evenodd" clip-rule="evenodd" fill="#DFF7FC" d="M154.111,276.801c1.089-0.405,2.312,0.126,2.729,1.187
								c0.418,1.062-0.11,2.29-1.179,2.745s-2.292-0.075-2.73-1.186C152.494,278.436,153.022,277.207,154.111,276.801z"/>
						</g>
					</g>
					<g>
						<g>
							<polygon fill="none" points="153.689,268.944 152.562,264.956 148.484,266.001 149.656,270.146 							"/>
							<path fill-rule="evenodd" clip-rule="evenodd" fill="#DFF7FC" d="M150.523,265.479c1.117-0.282,2.291,0.374,2.6,1.473
								c0.312,1.097-0.338,2.259-1.451,2.594c-1.112,0.336-2.279-0.322-2.605-1.471
								C148.744,266.925,149.386,265.766,150.523,265.479z"/>
						</g>
					</g>
					<g>
						<g>
							<path fill="none" d="M150.984,257.616c0,0-0.182-1.021-0.364-2.041c-0.204-1.017-0.313-2.048-0.313-2.048l-4.166,0.596
								c0,0,0.114,1.071,0.325,2.129c0.189,1.06,0.378,2.12,0.378,2.12L150.984,257.616z"/>
							<path fill-rule="evenodd" clip-rule="evenodd" fill="#DFF7FC" d="M148.224,253.825c1.159-0.161,2.174,0.631,2.396,1.75
								c0.201,1.123-0.563,2.206-1.706,2.419c-1.142,0.213-2.239-0.567-2.448-1.742
								C146.235,255.079,147.081,253.984,148.224,253.825z"/>
						</g>
					</g>
					<g>
						<g>
							<path fill="none" d="M149.517,246.061c0,0-0.079-1.034-0.158-2.067c-0.055-1.035-0.066-2.072-0.066-2.072l-4.206,0.145
								c0,0,0.013,1.077,0.07,2.152c0.081,1.074,0.163,2.147,0.163,2.147L149.517,246.061z"/>
							<path fill-rule="evenodd" clip-rule="evenodd" fill="#DFF7FC" d="M147.19,241.994c1.168-0.036,2.111,0.86,2.169,2
								c0.087,1.138-0.782,2.131-1.941,2.219c-1.159,0.088-2.171-0.805-2.261-1.995C145.096,243.026,146.035,242.029,147.19,241.994
								z"/>
						</g>
					</g>
					<g>
						<g>
							<path fill="none" d="M149.293,234.411c0,0,0.011-1.037,0.066-2.072c0.079-1.034,0.158-2.067,0.158-2.067l-4.197-0.305
								c0,0-0.082,1.074-0.163,2.147c-0.058,1.075-0.07,2.151-0.07,2.151L149.293,234.411z"/>
							<path fill-rule="evenodd" clip-rule="evenodd" fill="#DFF7FC" d="M147.418,230.12c1.159,0.088,2.028,1.082,1.941,2.219
								c-0.058,1.139-1.001,2.036-2.169,2c-1.155-0.036-2.094-1.032-2.033-2.224C145.247,230.925,146.26,230.032,147.418,230.12z"/>
						</g>
					</g>
					<g>
						<g>
							<path fill="none" d="M150.307,222.805c0,0,0.109-1.031,0.313-2.048c0.182-1.02,0.364-2.04,0.364-2.04l-4.14-0.756
								c0,0-0.189,1.06-0.378,2.12c-0.211,1.057-0.325,2.128-0.325,2.128L150.307,222.805z"/>
							<path fill-rule="evenodd" clip-rule="evenodd" fill="#DFF7FC" d="M148.915,218.339c1.143,0.213,1.906,1.295,1.706,2.418
								c-0.222,1.12-1.237,1.912-2.396,1.75c-1.143-0.159-1.989-1.254-1.758-2.426C146.676,218.906,147.772,218.126,148.915,218.339
								z"/>
						</g>
					</g>
					<g>
						<g>
							<polygon fill="none" points="152.562,211.376 153.689,207.389 149.656,206.187 148.484,210.332 							"/>
							<path fill-rule="evenodd" clip-rule="evenodd" fill="#DFF7FC" d="M151.672,206.788c1.112,0.335,1.762,1.497,1.451,2.594
								c-0.31,1.098-1.483,1.754-2.6,1.473c-1.137-0.287-1.779-1.447-1.456-2.596C149.393,207.11,150.56,206.452,151.672,206.788z"
								/>
						</g>
					</g>
					<g>
						<g>
							<polygon fill="none" points="156.081,200.273 157.601,196.417 153.723,194.783 152.142,198.79 							"/>
							<path fill-rule="evenodd" clip-rule="evenodd" fill="#DFF7FC" d="M155.662,195.6c1.069,0.455,1.598,1.684,1.179,2.745
								c-0.418,1.061-1.641,1.592-2.729,1.187s-1.618-1.635-1.18-2.746C153.37,195.676,154.592,195.145,155.662,195.6z"/>
						</g>
					</g>
					<g>
						<g>
							<path fill="none" d="M160.783,189.617c0,0,0.472-0.923,0.944-1.845c0.453-0.933,0.991-1.82,0.991-1.82l-3.678-2.045
								c0,0-0.557,0.922-1.029,1.891c-0.491,0.958-0.982,1.917-0.982,1.917L160.783,189.617z"/>
							<path fill-rule="evenodd" clip-rule="evenodd" fill="#DFF7FC" d="M160.879,184.93c1.021,0.573,1.349,1.817,0.848,2.842
								c-0.52,1.016-1.783,1.416-2.822,0.894c-1.038-0.521-1.439-1.806-0.895-2.868C158.537,184.726,159.874,184.366,160.879,184.93
								z"/>
						</g>
					</g>
					<g>
						<g>
							<path fill="none" d="M166.601,179.526c0,0,0.548-0.88,1.129-1.738c0.601-0.844,1.202-1.689,1.202-1.689l-3.435-2.431
								c0,0-0.624,0.878-1.248,1.755c-0.604,0.891-1.174,1.805-1.174,1.805L166.601,179.526z"/>
							<path fill-rule="evenodd" clip-rule="evenodd" fill="#DFF7FC" d="M167.214,174.884c0.946,0.674,1.178,1.975,0.516,2.904
								c-0.638,0.946-1.912,1.224-2.893,0.589c-0.971-0.628-1.256-1.965-0.589-2.954
								C164.94,174.451,166.269,174.209,167.214,174.884z"/>
						</g>
					</g>
					<g>
						<g>
							<path fill="none" d="M173.464,170.113c0,0,0.154-0.209,0.406-0.504c0.255-0.294,0.594-0.686,0.934-1.077
								c0.679-0.783,1.357-1.567,1.357-1.567l-3.154-2.787c0,0-0.705,0.813-1.41,1.627c-0.352,0.407-0.705,0.814-0.969,1.12
								c-0.262,0.307-0.422,0.524-0.422,0.524L173.464,170.113z"/>
							<path fill-rule="evenodd" clip-rule="evenodd" fill="#DFF7FC" d="M174.584,165.571c0.868,0.773,0.967,2.098,0.22,2.96
								c-0.755,0.855-2.076,0.974-2.968,0.25c-0.912-0.741-1.027-2.08-0.238-2.976C172.379,164.903,173.716,164.798,174.584,165.571
								z"/>
						</g>
					</g>
					<g>
						<g>
							<polygon fill="none" points="181.319,161.508 184.319,158.647 181.484,155.537 178.367,158.509 							"/>
							<path fill-rule="evenodd" clip-rule="evenodd" fill="#DFF7FC" d="M182.902,157.092c0.78,0.862,0.744,2.198-0.083,2.986
								c-0.826,0.788-2.158,0.756-2.977-0.069c-0.818-0.825-0.782-2.162,0.082-2.985
								C180.789,156.199,182.122,156.23,182.902,157.092z"/>
						</g>
					</g>
					<g>
						<g>
							<path fill="none" d="M190.058,153.803c0,0,0.815-0.641,1.63-1.281c0.802-0.658,1.663-1.237,1.663-1.237l-2.485-3.396
								c0,0-0.894,0.603-1.727,1.285c-0.847,0.665-1.694,1.331-1.694,1.331L190.058,153.803z"/>
							<path fill-rule="evenodd" clip-rule="evenodd" fill="#DFF7FC" d="M192.108,149.587c0.69,0.95,0.463,2.213-0.42,2.935
								c-0.897,0.706-2.212,0.54-2.937-0.368c-0.725-0.909-0.552-2.243,0.387-2.98C190.064,148.419,191.433,148.657,192.108,149.587
								z"/>
						</g>
					</g>
					<g>
						<g>
							<path fill="none" d="M199.564,147.071c0,0,0.863-0.575,1.754-1.104c0.899-0.517,1.797-1.033,1.797-1.033l-2.103-3.646
								c0,0-0.934,0.537-1.867,1.074c-0.926,0.55-1.823,1.146-1.823,1.146L199.564,147.071z"/>
							<path fill-rule="evenodd" clip-rule="evenodd" fill="#DFF7FC" d="M202.064,143.112c0.577,1.008,0.244,2.287-0.746,2.855
								c-0.979,0.585-2.248,0.311-2.875-0.677c-0.618-0.974-0.322-2.314,0.702-2.927
								C200.18,141.768,201.487,142.104,202.064,143.112z"/>
						</g>
					</g>
					<g>
						<g>
							<path fill="none" d="M209.736,141.394c0,0,0.227-0.126,0.581-0.287c0.354-0.16,0.826-0.373,1.298-0.586
								c0.944-0.427,1.889-0.854,1.889-0.854l-1.695-3.852c0,0-0.981,0.444-1.963,0.888c-0.49,0.222-0.981,0.444-1.349,0.61
								c-0.368,0.167-0.603,0.298-0.603,0.298L209.736,141.394z"/>
							<path fill-rule="evenodd" clip-rule="evenodd" fill="#DFF7FC" d="M212.656,137.74c0.464,1.065-0.001,2.31-1.041,2.78
								c-1.043,0.461-2.293,0.013-2.8-1.018c-0.518-1.055-0.061-2.317,1.031-2.8C210.933,136.209,212.191,136.675,212.656,137.74z"
								/>
						</g>
					</g>
					<g>
						<g>
							<polygon fill="none" points="220.472,136.875 224.398,135.546 223.132,131.533 219.051,132.914 							"/>
							<path fill-rule="evenodd" clip-rule="evenodd" fill="#DFF7FC" d="M223.765,133.54c0.346,1.109-0.25,2.306-1.33,2.671
								s-2.277-0.224-2.673-1.317c-0.396-1.092,0.199-2.289,1.33-2.671S223.419,132.43,223.765,133.54z"/>
						</g>
					</g>
					<g>
						<g>
							<path fill="none" d="M231.638,133.562c0,0,1.01-0.233,2.02-0.466c0.505-0.117,1.009-0.233,1.388-0.321
								c0.382-0.07,0.637-0.117,0.637-0.117l-0.821-4.127c0,0-0.265,0.048-0.662,0.122c-0.394,0.09-0.918,0.211-1.443,0.333
								c-1.049,0.242-2.099,0.484-2.099,0.484L231.638,133.562z"/>
							<path fill-rule="evenodd" clip-rule="evenodd" fill="#DFF7FC" d="M235.272,130.595c0.22,1.129-0.507,2.229-1.615,2.501
								c-1.111,0.257-2.235-0.451-2.51-1.58c-0.274-1.129,0.445-2.263,1.609-2.531C233.917,128.701,235.047,129.442,235.272,130.595
								z"/>
						</g>
					</g>
					<g>
						<g>
							<path fill="none" d="M243.096,131.474c0,0,1.028-0.131,2.056-0.262c0.513-0.076,1.03-0.113,1.418-0.14
								c0.387-0.029,0.646-0.049,0.646-0.049l-0.37-4.192c0,0-0.268,0.021-0.671,0.051c-0.403,0.028-0.94,0.068-1.473,0.146
								c-1.068,0.136-2.136,0.271-2.136,0.271L243.096,131.474z"/>
							<path fill-rule="evenodd" clip-rule="evenodd" fill="#DFF7FC" d="M247.031,128.927c0.1,1.172-0.748,2.134-1.879,2.285
								c-1.132,0.145-2.171-0.673-2.321-1.826s0.687-2.208,1.871-2.359C245.886,126.871,246.935,127.784,247.031,128.927z"/>
						</g>
					</g>
					<g>
						<g>
							<path fill="none" d="M254.716,130.629c0,0,1.036-0.027,2.072-0.053c1.036,0.026,2.072,0.053,2.072,0.053l0.08-4.208
								c0,0-1.076-0.027-2.152-0.054c-1.076,0.027-2.152,0.054-2.152,0.054L254.716,130.629z"/>
							<path fill-rule="evenodd" clip-rule="evenodd" fill="#DFF7FC" d="M258.9,128.525c-0.025,1.162-0.972,2.08-2.112,2.051
								c-1.141,0.029-2.087-0.889-2.112-2.051c-0.026-1.162,0.919-2.128,2.112-2.158C257.981,126.396,258.927,127.363,258.9,128.525
								z"/>
						</g>
					</g>
					<g>
						<g>
							<path fill="none" d="M266.36,131.023c0,0,0.258,0.02,0.646,0.049c0.388,0.027,0.905,0.064,1.418,0.14
								c1.028,0.131,2.056,0.262,2.056,0.262l0.531-4.175c0,0-1.068-0.136-2.137-0.271c-0.533-0.078-1.07-0.117-1.474-0.146
								c-0.402-0.031-0.671-0.051-0.671-0.051L266.36,131.023z"/>
							<path fill-rule="evenodd" clip-rule="evenodd" fill="#DFF7FC" d="M270.745,129.386c-0.15,1.152-1.189,1.97-2.321,1.826
								c-1.131-0.151-1.979-1.113-1.879-2.285c0.097-1.143,1.146-2.056,2.329-1.899
								C270.058,127.178,270.896,128.234,270.745,129.386z"/>
						</g>
					</g>
					<g>
						<g>
							<path fill="none" d="M277.894,132.658c0,0,0.255,0.047,0.638,0.117c0.378,0.087,0.883,0.204,1.388,0.321
								c1.01,0.233,2.02,0.466,2.02,0.466l0.98-4.093c0,0-1.05-0.242-2.099-0.484c-0.525-0.121-1.05-0.242-1.443-0.333
								c-0.397-0.073-0.662-0.122-0.662-0.122L277.894,132.658z"/>
							<path fill-rule="evenodd" clip-rule="evenodd" fill="#DFF7FC" d="M282.429,131.516c-0.275,1.129-1.398,1.837-2.51,1.58
								c-1.108-0.272-1.835-1.372-1.614-2.501c0.225-1.152,1.354-1.894,2.516-1.61C281.983,129.253,282.703,130.387,282.429,131.516
								z"/>
						</g>
					</g>
					<g>
						<g>
							<polygon fill="none" points="289.178,135.546 293.104,136.875 294.524,132.913 290.443,131.533 							"/>
							<path fill-rule="evenodd" clip-rule="evenodd" fill="#DFF7FC" d="M293.814,134.894c-0.396,1.093-1.593,1.683-2.674,1.317
								c-1.08-0.366-1.675-1.562-1.33-2.671c0.346-1.109,1.543-1.7,2.674-1.317S294.211,133.802,293.814,134.894z"/>
						</g>
					</g>
					<g>
						<g>
							<path fill="none" d="M300.073,139.666c0,0,0.944,0.427,1.888,0.854c0.473,0.213,0.944,0.426,1.299,0.586
								c0.354,0.16,0.58,0.287,0.58,0.287l1.844-3.784c0,0-0.236-0.131-0.604-0.298c-0.368-0.167-0.858-0.389-1.35-0.611
								c-0.981-0.443-1.963-0.887-1.963-0.887L300.073,139.666z"/>
							<path fill-rule="evenodd" clip-rule="evenodd" fill="#DFF7FC" d="M304.762,139.501c-0.507,1.032-1.757,1.479-2.801,1.019
								c-1.039-0.47-1.505-1.715-1.041-2.78c0.465-1.065,1.723-1.531,2.811-1.039C304.822,137.185,305.279,138.447,304.762,139.501z
								"/>
						</g>
					</g>
					<g>
						<g>
							<path fill="none" d="M310.461,144.935c0,0,0.898,0.517,1.797,1.033c0.891,0.529,1.754,1.104,1.754,1.104l2.242-3.562
								c0,0-0.897-0.597-1.823-1.146c-0.934-0.537-1.867-1.074-1.867-1.074L310.461,144.935z"/>
							<path fill-rule="evenodd" clip-rule="evenodd" fill="#DFF7FC" d="M315.133,145.291c-0.627,0.988-1.896,1.263-2.875,0.677
								c-0.989-0.568-1.323-1.847-0.746-2.855c0.577-1.009,1.885-1.344,2.919-0.749
								C315.455,142.976,315.751,144.316,315.133,145.291z"/>
						</g>
					</g>
					<g>
						<g>
							<path fill="none" d="M320.227,151.285c0,0,0.86,0.579,1.662,1.237c0.814,0.641,1.63,1.281,1.63,1.281l2.613-3.299
								c0,0-0.847-0.665-1.693-1.33c-0.834-0.683-1.728-1.285-1.728-1.285L320.227,151.285z"/>
							<path fill-rule="evenodd" clip-rule="evenodd" fill="#DFF7FC" d="M324.825,152.154c-0.725,0.908-2.04,1.074-2.937,0.368
								c-0.884-0.723-1.11-1.985-0.42-2.935c0.675-0.93,2.043-1.168,2.97-0.413C325.377,149.911,325.55,151.245,324.825,152.154z"/>
						</g>
					</g>
					<g>
						<g>
							<polygon fill="none" points="329.257,158.647 332.257,161.508 335.21,158.509 332.092,155.537 							"/>
							<path fill-rule="evenodd" clip-rule="evenodd" fill="#DFF7FC" d="M333.733,160.008c-0.818,0.825-2.151,0.857-2.977,0.069
								c-0.826-0.788-0.862-2.125-0.083-2.986c0.78-0.861,2.113-0.893,2.978-0.069C334.515,157.846,334.552,159.183,333.733,160.008
								z"/>
						</g>
					</g>
					<g>
						<g>
							<path fill="none" d="M337.415,166.964c0,0,0.679,0.784,1.357,1.567c0.339,0.392,0.679,0.783,0.934,1.077
								c0.252,0.296,0.406,0.505,0.406,0.505l3.258-2.665c0,0-0.161-0.216-0.422-0.523c-0.265-0.306-0.617-0.712-0.97-1.12
								c-0.705-0.814-1.41-1.628-1.41-1.628L337.415,166.964z"/>
							<path fill-rule="evenodd" clip-rule="evenodd" fill="#DFF7FC" d="M341.741,168.781c-0.893,0.725-2.214,0.606-2.969-0.25
								c-0.747-0.862-0.648-2.188,0.22-2.96c0.868-0.772,2.205-0.668,2.986,0.234C342.769,166.701,342.652,168.04,341.741,168.781z"
								/>
						</g>
					</g>
					<g>
						<g>
							<path fill="none" d="M344.644,176.1c0,0,0.602,0.845,1.202,1.689c0.581,0.858,1.129,1.738,1.129,1.738l3.526-2.297
								c0,0-0.57-0.914-1.174-1.805c-0.624-0.878-1.248-1.755-1.248-1.755L344.644,176.1z"/>
							<path fill-rule="evenodd" clip-rule="evenodd" fill="#DFF7FC" d="M348.738,178.378c-0.981,0.634-2.255,0.356-2.893-0.589
								c-0.662-0.929-0.431-2.23,0.516-2.905c0.946-0.674,2.274-0.433,2.966,0.54C349.994,176.413,349.709,177.75,348.738,178.378z"
								/>
						</g>
					</g>
					<g>
						<g>
							<path fill="none" d="M350.858,185.952c0,0,0.537,0.887,0.99,1.82c0.473,0.922,0.945,1.845,0.945,1.845l3.754-1.902
								c0,0-0.491-0.958-0.982-1.917c-0.472-0.969-1.029-1.892-1.029-1.892L350.858,185.952z"/>
							<path fill-rule="evenodd" clip-rule="evenodd" fill="#DFF7FC" d="M354.671,188.666c-1.039,0.521-2.302,0.122-2.822-0.894
								c-0.501-1.025-0.173-2.27,0.849-2.843c1.005-0.564,2.343-0.204,2.868,0.869C356.11,186.86,355.709,188.145,354.671,188.666z"
								/>
						</g>
					</g>
					<g>
						<g>
							<polygon fill="none" points="355.976,196.417 357.495,200.273 361.435,198.79 359.854,194.783 							"/>
							<path fill-rule="evenodd" clip-rule="evenodd" fill="#DFF7FC" d="M359.465,199.532c-1.089,0.405-2.312-0.125-2.729-1.187
								c-0.419-1.062,0.11-2.291,1.18-2.746c1.068-0.455,2.291,0.076,2.729,1.187C361.082,197.897,360.554,199.126,359.465,199.532z
								"/>
						</g>
					</g>
					<g>
						<g>
							<polygon fill="none" points="359.887,207.388 361.015,211.376 365.092,210.332 363.92,206.186 							"/>
							<path fill-rule="evenodd" clip-rule="evenodd" fill="#DFF7FC" d="M363.053,210.854c-1.116,0.282-2.29-0.375-2.6-1.473
								c-0.312-1.097,0.338-2.259,1.45-2.595s2.279,0.323,2.605,1.471C364.833,209.408,364.189,210.567,363.053,210.854z"/>
						</g>
					</g>
					<g>
						<g>
							<path fill="none" d="M362.592,218.717c0,0,0.182,1.02,0.364,2.04c0.204,1.017,0.313,2.048,0.313,2.048l4.166-0.596
								c0,0-0.115-1.071-0.325-2.128c-0.189-1.06-0.379-2.12-0.379-2.12L362.592,218.717z"/>
							<path fill-rule="evenodd" clip-rule="evenodd" fill="#DFF7FC" d="M365.353,222.507c-1.159,0.162-2.174-0.631-2.396-1.75
								c-0.201-1.123,0.563-2.205,1.705-2.418c1.143-0.213,2.239,0.567,2.449,1.742
								C367.341,221.253,366.495,222.348,365.353,222.507z"/>
						</g>
					</g>
					<g>
						<g>
							<path fill="none" d="M364.059,230.272c0,0,0.079,1.034,0.158,2.067c0.056,1.035,0.066,2.072,0.066,2.072l4.206-0.145
								c0,0-0.013-1.077-0.07-2.152c-0.081-1.074-0.162-2.147-0.162-2.147L364.059,230.272z"/>
							<path fill-rule="evenodd" clip-rule="evenodd" fill="#DFF7FC" d="M366.387,234.339c-1.169,0.036-2.112-0.86-2.17-2
								c-0.087-1.138,0.782-2.131,1.941-2.219c1.158-0.088,2.171,0.805,2.261,1.995
								C368.479,233.307,367.541,234.303,366.387,234.339z"/>
						</g>
					</g>
				</g>
			</g>
		</g>
		<g>
			<g>
				<g>
					<g>
						<g>
							<rect x="255.358" y="86.893" fill="none" width="3.156" height="2.898"/>
							<ellipse fill-rule="evenodd" clip-rule="evenodd" fill="#DFF7FC" cx="256.937" cy="88.342" rx="1.578" ry="1.449"/>
						</g>
					</g>
					<g>
						<g>
							<rect x="255.358" y="95.041" fill="none" width="3.156" height="2.898"/>
							<ellipse fill-rule="evenodd" clip-rule="evenodd" fill="#DFF7FC" cx="256.937" cy="96.49" rx="1.578" ry="1.449"/>
						</g>
					</g>
					<g>
						<g>
							<rect x="255.358" y="103.189" fill="none" width="3.156" height="2.897"/>
							<ellipse fill-rule="evenodd" clip-rule="evenodd" fill="#DFF7FC" cx="256.937" cy="104.638" rx="1.578" ry="1.449"/>
						</g>
					</g>
					<g>
						<g>
							<rect x="255.358" y="111.337" fill="none" width="3.156" height="2.898"/>
							<ellipse fill-rule="evenodd" clip-rule="evenodd" fill="#DFF7FC" cx="256.937" cy="112.786" rx="1.578" ry="1.449"/>
						</g>
					</g>
					<g>
						<g>
							<rect x="255.358" y="119.485" fill="none" width="3.156" height="2.898"/>
							<ellipse fill-rule="evenodd" clip-rule="evenodd" fill="#DFF7FC" cx="256.937" cy="120.934" rx="1.578" ry="1.449"/>
						</g>
					</g>
				</g>
			</g>
		</g>
		<g>
			<g>
				<g>
					<g>
						<g>
							<rect x="255.244" y="387.857" fill="none" width="3.156" height="2.897"/>
							<ellipse fill-rule="evenodd" clip-rule="evenodd" fill="#DFF7FC" cx="256.822" cy="389.306" rx="1.578" ry="1.449"/>
						</g>
					</g>
					<g>
						<g>
							<rect x="255.244" y="379.709" fill="none" width="3.156" height="2.898"/>
							<ellipse fill-rule="evenodd" clip-rule="evenodd" fill="#DFF7FC" cx="256.822" cy="381.158" rx="1.578" ry="1.449"/>
						</g>
					</g>
					<g>
						<g>
							<rect x="255.244" y="371.562" fill="none" width="3.156" height="2.897"/>
							<ellipse fill-rule="evenodd" clip-rule="evenodd" fill="#DFF7FC" cx="256.822" cy="373.01" rx="1.578" ry="1.449"/>
						</g>
					</g>
					<g>
						<g>
							<rect x="255.244" y="363.413" fill="none" width="3.156" height="2.897"/>
							<ellipse fill-rule="evenodd" clip-rule="evenodd" fill="#DFF7FC" cx="256.822" cy="364.862" rx="1.578" ry="1.449"/>
						</g>
					</g>
					<g>
						<g>
							<rect x="255.244" y="355.265" fill="none" width="3.156" height="2.898"/>
							<ellipse fill-rule="evenodd" clip-rule="evenodd" fill="#DFF7FC" cx="256.822" cy="356.714" rx="1.578" ry="1.449"/>
						</g>
					</g>
				</g>
			</g>
		</g>
		<g>
			<g>
				<g>
					<g>
						<g>
							<rect x="104.948" y="230.875" fill="none" width="2.898" height="3.157"/>
							<ellipse fill-rule="evenodd" clip-rule="evenodd" fill="#DFF7FC" cx="106.397" cy="232.454" rx="1.449" ry="1.578"/>
						</g>
					</g>
					<g>
						<g>
							<rect x="113.097" y="230.875" fill="none" width="2.897" height="3.157"/>
							<ellipse fill-rule="evenodd" clip-rule="evenodd" fill="#DFF7FC" cx="114.545" cy="232.454" rx="1.449" ry="1.578"/>
						</g>
					</g>
					<g>
						<g>
							<rect x="121.245" y="230.875" fill="none" width="2.898" height="3.157"/>
							<ellipse fill-rule="evenodd" clip-rule="evenodd" fill="#DFF7FC" cx="122.694" cy="232.454" rx="1.449" ry="1.578"/>
						</g>
					</g>
					<g>
						<g>
							<rect x="129.393" y="230.875" fill="none" width="2.898" height="3.157"/>
							<ellipse fill-rule="evenodd" clip-rule="evenodd" fill="#DFF7FC" cx="130.842" cy="232.454" rx="1.449" ry="1.578"/>
						</g>
					</g>
					<g>
						<g>
							<rect x="137.541" y="230.875" fill="none" width="2.898" height="3.157"/>
							<ellipse fill-rule="evenodd" clip-rule="evenodd" fill="#DFF7FC" cx="138.99" cy="232.454" rx="1.449" ry="1.578"/>
						</g>
					</g>
				</g>
			</g>
		</g>
		<g>
			<g>
				<g>
					<g>
						<g>
							<rect x="405.913" y="230.989" fill="none" width="2.897" height="3.157"/>
							<ellipse fill-rule="evenodd" clip-rule="evenodd" fill="#DFF7FC" cx="407.362" cy="232.568" rx="1.449" ry="1.579"/>
						</g>
					</g>
					<g>
						<g>
							<rect x="397.765" y="230.989" fill="none" width="2.897" height="3.157"/>
							<ellipse fill-rule="evenodd" clip-rule="evenodd" fill="#DFF7FC" cx="399.213" cy="232.568" rx="1.449" ry="1.579"/>
						</g>
					</g>
					<g>
						<g>
							<rect x="389.616" y="230.989" fill="none" width="2.898" height="3.157"/>
							<ellipse fill-rule="evenodd" clip-rule="evenodd" fill="#DFF7FC" cx="391.065" cy="232.568" rx="1.449" ry="1.579"/>
						</g>
					</g>
					<g>
						<g>
							<rect x="381.469" y="230.989" fill="none" width="2.897" height="3.157"/>
							<ellipse fill-rule="evenodd" clip-rule="evenodd" fill="#DFF7FC" cx="382.917" cy="232.568" rx="1.449" ry="1.579"/>
						</g>
					</g>
					<g>
						<g>
							<rect x="373.32" y="230.989" fill="none" width="2.898" height="3.157"/>
							<ellipse fill-rule="evenodd" clip-rule="evenodd" fill="#DFF7FC" cx="374.77" cy="232.568" rx="1.449" ry="1.579"/>
						</g>
					</g>
				</g>
			</g>
		</g>
		<g>
			<g>
				<g>
					<g>
						<g>
							
								<rect x="150.642" y="133.167" transform="matrix(-0.7072 -0.707 0.707 -0.7072 164.381 337.5666)" fill="none" width="2.898" height="3.156"/>
							
								<ellipse transform="matrix(0.7071 0.7071 -0.7071 0.7071 139.8253 -68.079)" fill-rule="evenodd" clip-rule="evenodd" fill="#DFF7FC" cx="152.091" cy="134.745" rx="1.449" ry="1.578"/>
						</g>
					</g>
					<g>
						<g>
							
								<rect x="156.404" y="138.928" transform="matrix(-0.7071 -0.7071 0.7071 -0.7071 170.1187 351.4777)" fill="none" width="2.897" height="3.156"/>
							
								<ellipse transform="matrix(0.7071 0.7071 -0.7071 0.7071 145.5868 -70.4655)" fill-rule="evenodd" clip-rule="evenodd" fill="#DFF7FC" cx="157.853" cy="140.506" rx="1.449" ry="1.578"/>
						</g>
					</g>
					<g>
						<g>
							
								<rect x="162.165" y="144.689" transform="matrix(-0.7071 -0.7071 0.7071 -0.7071 175.8802 365.3871)" fill="none" width="2.898" height="3.156"/>
							
								<ellipse transform="matrix(0.7071 0.7071 -0.7071 0.7071 151.3483 -72.852)" fill-rule="evenodd" clip-rule="evenodd" fill="#DFF7FC" cx="163.614" cy="146.268" rx="1.449" ry="1.579"/>
						</g>
					</g>
					<g>
						<g>
							
								<rect x="167.927" y="150.451" transform="matrix(-0.707 -0.7072 0.7072 -0.707 181.6144 379.2984)" fill="none" width="2.898" height="3.156"/>
							
								<ellipse transform="matrix(0.7072 0.707 -0.707 0.7072 157.0829 -75.2369)" fill-rule="evenodd" clip-rule="evenodd" fill="#DFF7FC" cx="169.376" cy="152.029" rx="1.449" ry="1.578"/>
						</g>
					</g>
					<g>
						<g>
							
								<rect x="173.689" y="156.213" transform="matrix(-0.7071 -0.7071 0.7071 -0.7071 187.4034 393.2066)" fill="none" width="2.897" height="3.156"/>
							
								<ellipse transform="matrix(0.7071 0.7071 -0.7071 0.7071 162.8715 -77.625)" fill-rule="evenodd" clip-rule="evenodd" fill="#DFF7FC" cx="175.137" cy="157.791" rx="1.449" ry="1.578"/>
						</g>
					</g>
				</g>
			</g>
		</g>
		<g>
			<g>
				<g>
					<g>
						<g>
							
								<rect x="363.375" y="346.061" transform="matrix(0.7069 0.7073 -0.7073 0.7069 352.7926 -156.1514)" fill="none" width="2.898" height="3.157"/>
							
								<ellipse transform="matrix(-0.7071 -0.7071 0.7071 -0.7071 376.9762 851.426)" fill-rule="evenodd" clip-rule="evenodd" fill="#DFF7FC" cx="364.824" cy="347.639" rx="1.449" ry="1.579"/>
						</g>
					</g>
					<g>
						<g>
							
								<rect x="357.614" y="340.299" transform="matrix(0.7069 0.7073 -0.7073 0.7069 347.0291 -153.7651)" fill="none" width="2.898" height="3.156"/>
							
								<ellipse transform="matrix(-0.7073 -0.7069 0.7069 -0.7073 371.3334 837.5134)" fill-rule="evenodd" clip-rule="evenodd" fill="#DFF7FC" cx="359.063" cy="341.877" rx="1.449" ry="1.578"/>
						</g>
					</g>
					<g>
						<g>
							
								<rect x="351.853" y="334.538" transform="matrix(0.7071 0.7071 -0.7071 0.7071 341.1493 -151.3757)" fill="none" width="2.897" height="3.156"/>
							
								<ellipse transform="matrix(-0.7071 -0.7071 0.7071 -0.7071 365.4533 823.6072)" fill-rule="evenodd" clip-rule="evenodd" fill="#DFF7FC" cx="353.301" cy="336.116" rx="1.449" ry="1.578"/>
						</g>
					</g>
					<g>
						<g>
							
								<rect x="346.091" y="328.776" transform="matrix(0.7073 0.7069 -0.7069 0.7073 335.2734 -148.9866)" fill="none" width="2.898" height="3.156"/>
							
								<ellipse transform="matrix(-0.7071 -0.7071 0.7071 -0.7071 359.692 809.6983)" fill-rule="evenodd" clip-rule="evenodd" fill="#DFF7FC" cx="347.54" cy="330.354" rx="1.449" ry="1.578"/>
						</g>
					</g>
					<g>
						<g>
							
								<rect x="340.329" y="323.014" transform="matrix(0.7073 0.7069 -0.7069 0.7073 329.5137 -146.6)" fill="none" width="2.898" height="3.156"/>
							
								<ellipse transform="matrix(-0.7071 -0.7071 0.7071 -0.7071 353.9304 795.7883)" fill-rule="evenodd" clip-rule="evenodd" fill="#DFF7FC" cx="341.778" cy="324.593" rx="1.449" ry="1.579"/>
						</g>
					</g>
				</g>
			</g>
		</g>
		<g>
			<g>
				<g>
					<g>
						<g>
							
								<rect x="146.097" y="341.515" transform="matrix(-0.7072 0.707 -0.707 -0.7072 494.4649 481.408)" fill="none" width="2.898" height="3.157"/>
							
								<ellipse transform="matrix(0.7071 -0.7071 0.7071 0.7071 -199.3886 204.8209)" fill-rule="evenodd" clip-rule="evenodd" fill="#DFF7FC" cx="147.546" cy="343.094" rx="1.449" ry="1.579"/>
						</g>
					</g>
					<g>
						<g>
							
								<rect x="151.859" y="335.755" transform="matrix(-0.7071 0.7071 -0.7071 -0.7071 500.2434 467.4574)" fill="none" width="2.897" height="3.156"/>
							
								<ellipse transform="matrix(0.707 -0.7072 0.7072 0.707 -193.6428 207.2488)" fill-rule="evenodd" clip-rule="evenodd" fill="#DFF7FC" cx="153.308" cy="337.333" rx="1.449" ry="1.578"/>
						</g>
					</g>
					<g>
						<g>
							
								<rect x="157.62" y="329.993" transform="matrix(-0.7069 0.7073 -0.7073 -0.7069 506.0341 453.4658)" fill="none" width="2.898" height="3.156"/>
							
								<ellipse transform="matrix(0.7072 -0.707 0.707 0.7072 -187.8514 209.5529)" fill-rule="evenodd" clip-rule="evenodd" fill="#DFF7FC" cx="159.07" cy="331.571" rx="1.449" ry="1.578"/>
						</g>
					</g>
					<g>
						<g>
							
								<rect x="163.382" y="324.232" transform="matrix(-0.707 0.7072 -0.7072 -0.707 511.7799 439.5972)" fill="none" width="2.899" height="3.156"/>
							
								<ellipse transform="matrix(0.7071 -0.7071 0.7071 0.7071 -182.1042 211.9806)" fill-rule="evenodd" clip-rule="evenodd" fill="#DFF7FC" cx="164.831" cy="325.81" rx="1.449" ry="1.579"/>
						</g>
					</g>
					<g>
						<g>
							
								<rect x="169.144" y="318.469" transform="matrix(-0.7072 0.707 -0.707 -0.7072 517.5155 425.7699)" fill="none" width="2.898" height="3.157"/>
							
								<ellipse transform="matrix(0.7072 -0.707 0.707 0.7072 -176.33 214.3257)" fill-rule="evenodd" clip-rule="evenodd" fill="#DFF7FC" cx="170.593" cy="320.048" rx="1.449" ry="1.578"/>
						</g>
					</g>
				</g>
			</g>
		</g>
		<g>
			<g>
				<g>
					<g>
						<g>
							
								<rect x="358.992" y="128.783" transform="matrix(0.707 -0.7072 0.7072 0.707 13.4111 293.0934)" fill="none" width="2.898" height="3.156"/>
							
								<ellipse transform="matrix(-0.7071 0.7071 -0.7071 -0.7071 707.4893 -32.33)" fill-rule="evenodd" clip-rule="evenodd" fill="#DFF7FC" cx="360.44" cy="130.361" rx="1.449" ry="1.578"/>
						</g>
					</g>
					<g>
						<g>
							
								<rect x="353.23" y="134.544" transform="matrix(0.7071 -0.7071 0.7071 0.7071 7.6301 290.6654)" fill="none" width="2.897" height="3.156"/>
							
								<ellipse transform="matrix(-0.7072 0.707 -0.707 -0.7072 701.7467 -18.3794)" fill-rule="evenodd" clip-rule="evenodd" fill="#DFF7FC" cx="354.679" cy="136.122" rx="1.449" ry="1.578"/>
						</g>
					</g>
					<g>
						<g>
							
								<rect x="347.469" y="140.306" transform="matrix(0.707 -0.7072 0.7072 0.707 1.886 288.3201)" fill="none" width="2.898" height="3.156"/>
							
								<ellipse transform="matrix(-0.7071 0.7071 -0.7071 -0.7071 695.9672 -4.5115)" fill-rule="evenodd" clip-rule="evenodd" fill="#DFF7FC" cx="348.918" cy="141.884" rx="1.449" ry="1.578"/>
						</g>
					</g>
					<g>
						<g>
							
								<rect x="341.707" y="146.067" transform="matrix(0.707 -0.7072 0.7072 0.707 -3.8766 285.9335)" fill="none" width="2.898" height="3.156"/>
							
								<ellipse transform="matrix(-0.7071 0.7071 -0.7071 -0.7071 690.2055 9.3985)" fill-rule="evenodd" clip-rule="evenodd" fill="#DFF7FC" cx="343.156" cy="147.646" rx="1.449" ry="1.579"/>
						</g>
					</g>
					<g>
						<g>
							
								<rect x="335.946" y="151.829" transform="matrix(0.7071 -0.7071 0.7071 0.7071 -9.6545 283.5058)" fill="none" width="2.897" height="3.157"/>
							
								<ellipse transform="matrix(-0.707 0.7072 -0.7072 -0.707 684.4281 23.2668)" fill-rule="evenodd" clip-rule="evenodd" fill="#DFF7FC" cx="337.395" cy="153.407" rx="1.449" ry="1.578"/>
						</g>
					</g>
				</g>
			</g>
		</g>
		<linearGradient id="SVGID_19_" gradientUnits="userSpaceOnUse" x1="193.4966" y1="144.3218" x2="208.4883" y2="144.3218">
			<stop  offset="0" style="stop-color:#D88224"/>
			<stop  offset="0.9975" style="stop-color:#ECCB86"/>
		</linearGradient>
		<circle fill="url(#SVGID_19_)" cx="200.992" cy="144.322" r="7.496"/>
	</g>
</g>
<g id="DESIGNED_BY_FREEPIK">
</g>
</svg>
