<?xml version="1.0" encoding="utf-8"?>
<!-- Generator: Adobe Illustrator 16.0.0, SVG Export Plug-In . SVG Version: 6.00 Build 0)  -->
<!DOCTYPE svg PUBLIC "-//W3C//DTD SVG 1.1//EN" "http://www.w3.org/Graphics/SVG/1.1/DTD/svg11.dtd">
<svg version="1.1" id="Layer_1" xmlns="http://www.w3.org/2000/svg" xmlns:xlink="http://www.w3.org/1999/xlink" x="0px" y="0px"
	 width="120px" height="85px" viewBox="0 0 120 85" enable-background="new 0 0 120 85" xml:space="preserve">
<g opacity="0.2">
	
		<linearGradient id="SVGID_1_" gradientUnits="userSpaceOnUse" x1="-150.6157" y1="200.0391" x2="-134.5549" y2="219.2666" gradientTransform="matrix(1 0 0 -1 179.04 213.3398)">
		<stop  offset="0" style="stop-color:#A5A5A5"/>
		<stop  offset="1" style="stop-color:#A5A5A5"/>
	</linearGradient>
	<polygon opacity="0.7813" fill="url(#SVGID_1_)" points="38.969,0 28.208,13.121 40.101,0 	"/>
	
		<linearGradient id="SVGID_2_" gradientUnits="userSpaceOnUse" x1="-95.0352" y1="205.708" x2="-80.1441" y2="218.7202" gradientTransform="matrix(1 0 0 -1 179.04 213.3398)">
		<stop  offset="0" style="stop-color:#E4E4E4"/>
		<stop  offset="1" style="stop-color:#E9E9E9"/>
	</linearGradient>
	<polygon opacity="0.8008" fill="url(#SVGID_2_)" points="88.085,0 86.021,9.937 97.185,0 	"/>
	
		<linearGradient id="SVGID_3_" gradientUnits="userSpaceOnUse" x1="-75.6777" y1="220.0234" x2="-56.46" y2="205.7945" gradientTransform="matrix(1 0 0 -1 179.04 213.3398)">
		<stop  offset="0" style="stop-color:#FFFFFF"/>
		<stop  offset="1" style="stop-color:#F9F9F9"/>
	</linearGradient>
	<polygon opacity="0.8207" fill="url(#SVGID_3_)" points="105.042,0 119.881,11.19 120.011,0 	"/>
	
		<linearGradient id="SVGID_4_" gradientUnits="userSpaceOnUse" x1="-146.5176" y1="201.7188" x2="-139.2971" y2="183.4485" gradientTransform="matrix(1 0 0 -1 179.04 213.3398)">
		<stop  offset="0" style="stop-color:#9C9C9C"/>
		<stop  offset="1" style="stop-color:#AFAFAF"/>
	</linearGradient>
	<path opacity="0.3596" fill="url(#SVGID_4_)" d="M28.209,13.121l8.536-3.231l7.128,18.369L28.209,13.121L28.209,13.121z"/>
	
		<linearGradient id="SVGID_5_" gradientUnits="userSpaceOnUse" x1="-128.0669" y1="192.5645" x2="-143.9862" y2="207.6686" gradientTransform="matrix(1 0 0 -1 179.04 213.3398)">
		<stop  offset="0" style="stop-color:#A0A0A0"/>
		<stop  offset="1" style="stop-color:#949494"/>
	</linearGradient>
	<polygon opacity="0.6691" fill="url(#SVGID_5_)" points="38.969,0 28.208,13.121 43.873,28.258 44.061,0 	"/>
	
		<linearGradient id="SVGID_6_" gradientUnits="userSpaceOnUse" x1="-141.2837" y1="208.4355" x2="-130.9712" y2="202.5737" gradientTransform="matrix(1 0 0 -1 179.04 213.3398)">
		<stop  offset="0" style="stop-color:#A9A9A9"/>
		<stop  offset="1" style="stop-color:#BDBDBD"/>
	</linearGradient>
	<polygon opacity="0.5873" fill="url(#SVGID_6_)" points="45.781,0 53.297,28.032 54.275,0 	"/>
	
		<linearGradient id="SVGID_7_" gradientUnits="userSpaceOnUse" x1="-118.0449" y1="193.9961" x2="-89.2874" y2="209.3602" gradientTransform="matrix(1 0 0 -1 179.04 213.3398)">
		<stop  offset="0" style="stop-color:#D0D0D0"/>
		<stop  offset="1" style="stop-color:#CBCBCB"/>
	</linearGradient>
	<path opacity="0.4762" fill="url(#SVGID_7_)" d="M75.122,5.684L63.536,24.098l28.64-15.584L75.122,5.684L75.122,5.684z"/>
	
		<linearGradient id="SVGID_8_" gradientUnits="userSpaceOnUse" x1="-89.7666" y1="203.665" x2="-83.4583" y2="187.3525" gradientTransform="matrix(1 0 0 -1 179.04 213.3398)">
		<stop  offset="0" style="stop-color:#DDDDDD"/>
		<stop  offset="1" style="stop-color:#E8E8E8"/>
	</linearGradient>
	<path opacity="0.4028" fill="url(#SVGID_8_)" d="M86.021,9.938l6.155-1.424l6.222,16.385L86.021,9.938L86.021,9.938z"/>
	
		<linearGradient id="SVGID_9_" gradientUnits="userSpaceOnUse" x1="-76.998" y1="216.4375" x2="-79.4338" y2="188.3366" gradientTransform="matrix(1 0 0 -1 179.04 213.3398)">
		<stop  offset="0" style="stop-color:#ECECEC"/>
		<stop  offset="1" style="stop-color:#EEEEEE"/>
	</linearGradient>
	<polygon opacity="0.3159" fill="url(#SVGID_9_)" points="100.517,0 98.397,24.898 101.873,13.364 100.999,0 	"/>
	
		<linearGradient id="SVGID_10_" gradientUnits="userSpaceOnUse" x1="-68.1309" y1="200.5781" x2="-69.2346" y2="217.1471" gradientTransform="matrix(1 0 0 -1 179.04 213.3398)">
		<stop  offset="0" style="stop-color:#FDFDFD"/>
		<stop  offset="1" style="stop-color:#FFFFFF"/>
	</linearGradient>
	<polygon opacity="0.7505" fill="url(#SVGID_10_)" points="105.042,0 100.999,0 101.873,13.364 119.882,11.19 119.881,11.19 	"/>
	
		<linearGradient id="SVGID_11_" gradientUnits="userSpaceOnUse" x1="-46.9365" y1="193.4502" x2="-58.9838" y2="202.4088" gradientTransform="matrix(1 0 0 -1 179.04 213.3398)">
		<stop  offset="0" style="stop-color:#FFFFFF"/>
		<stop  offset="1" style="stop-color:#E7E7E7"/>
	</linearGradient>
	<polygon opacity="0.5309" fill="url(#SVGID_11_)" points="120.224,10.662 119.881,11.19 120.224,11.45 	"/>
	
		<linearGradient id="SVGID_12_" gradientUnits="userSpaceOnUse" x1="-96.1367" y1="178.7402" x2="-98.5107" y2="171.2517" gradientTransform="matrix(1 0 0 -1 179.04 213.3398)">
		<stop  offset="0" style="stop-color:#D8D8D8"/>
		<stop  offset="1" style="stop-color:#C6C6C6"/>
	</linearGradient>
	<path opacity="0.2661" fill="url(#SVGID_12_)" d="M92.177,8.513L81.993,34.307l-2.336,7.503L92.177,8.513L92.177,8.513z"/>
	
		<linearGradient id="SVGID_13_" gradientUnits="userSpaceOnUse" x1="-90.478" y1="191.1279" x2="-109.0126" y2="201.1945" gradientTransform="matrix(1 0 0 -1 179.04 213.3398)">
		<stop  offset="0" style="stop-color:#D3D3D3"/>
		<stop  offset="1" style="stop-color:#EAEAEA"/>
	</linearGradient>
	<path opacity="0.2685" fill="url(#SVGID_13_)" d="M92.177,8.513L81.993,34.307L63.536,24.098L92.177,8.513L92.177,8.513z"/>
	
		<linearGradient id="SVGID_14_" gradientUnits="userSpaceOnUse" x1="-80.1143" y1="187.8467" x2="-99.0078" y2="171.106" gradientTransform="matrix(1 0 0 -1 179.04 213.3398)">
		<stop  offset="0" style="stop-color:#DFDFDF"/>
		<stop  offset="1" style="stop-color:#BBBBBB"/>
	</linearGradient>
	<path opacity="0.3981" fill="url(#SVGID_14_)" d="M98.397,24.898l-18.74,16.913l15.999-12.356L98.397,24.898L98.397,24.898z"/>
	
		<linearGradient id="SVGID_15_" gradientUnits="userSpaceOnUse" x1="-79.0752" y1="191.1377" x2="-68.4533" y2="184.6355" gradientTransform="matrix(1 0 0 -1 179.04 213.3398)">
		<stop  offset="0" style="stop-color:#ECECEC"/>
		<stop  offset="1" style="stop-color:#D9D9D9"/>
	</linearGradient>
	<path opacity="0.8419" fill="url(#SVGID_15_)" d="M101.873,13.364l-6.217,16.09l10.475,6.53L101.873,13.364L101.873,13.364z"/>
	
		<linearGradient id="SVGID_16_" gradientUnits="userSpaceOnUse" x1="-84.709" y1="184.6973" x2="-81.9273" y2="189.2371" gradientTransform="matrix(1 0 0 -1 179.04 213.3398)">
		<stop  offset="0" style="stop-color:#EBEBEB"/>
		<stop  offset="1" style="stop-color:#F3F3F3"/>
	</linearGradient>
	<path opacity="0.4897" fill="url(#SVGID_16_)" d="M101.873,13.364l-6.217,16.09l2.741-4.556L101.873,13.364L101.873,13.364z"/>
	
		<linearGradient id="SVGID_17_" gradientUnits="userSpaceOnUse" x1="-58.2271" y1="161.7207" x2="-67.3004" y2="185.4756" gradientTransform="matrix(1 0 0 -1 179.04 213.3398)">
		<stop  offset="0" style="stop-color:#F5F5F5"/>
		<stop  offset="1" style="stop-color:#E0E0E0"/>
	</linearGradient>
	<polygon opacity="0.4209" fill="url(#SVGID_17_)" points="120.224,27.267 106.131,35.984 120.224,39.223 	"/>
	
		<linearGradient id="SVGID_18_" gradientUnits="userSpaceOnUse" x1="-79.4727" y1="189.6563" x2="-49.5522" y2="182.9709" gradientTransform="matrix(1 0 0 -1 179.04 213.3398)">
		<stop  offset="0" style="stop-color:#FCFDFF"/>
		<stop  offset="1" style="stop-color:#DADADA"/>
	</linearGradient>
	<polygon opacity="0.9182" fill="url(#SVGID_18_)" points="120.224,17.541 101.873,13.364 106.131,35.984 120.224,27.267 	"/>
	
		<linearGradient id="SVGID_19_" gradientUnits="userSpaceOnUse" x1="-122.4839" y1="171.5322" x2="-141.1593" y2="178.7333" gradientTransform="matrix(1 0 0 -1 179.04 213.3398)">
		<stop  offset="0" style="stop-color:#9B9B9B"/>
		<stop  offset="1" style="stop-color:#8C8C8C"/>
	</linearGradient>
	<path opacity="0.6007" fill="url(#SVGID_19_)" d="M44.603,32.073l10.231,14.199l-18.631-7.316L44.603,32.073L44.603,32.073z"/>
	
		<linearGradient id="SVGID_20_" gradientUnits="userSpaceOnUse" x1="-104.1763" y1="164.4863" x2="-87.9788" y2="179.1537" gradientTransform="matrix(1 0 0 -1 179.04 213.3398)">
		<stop  offset="0" style="stop-color:#C9C9C9"/>
		<stop  offset="1" style="stop-color:#C9C9C9"/>
	</linearGradient>
	<path opacity="0.3653" fill="url(#SVGID_20_)" d="M81.993,34.307l-3.104,18.99l16.063-14.814L81.993,34.307L81.993,34.307z"/>
	
		<linearGradient id="SVGID_21_" gradientUnits="userSpaceOnUse" x1="-95.5195" y1="167.6641" x2="-129.9776" y2="188.6052" gradientTransform="matrix(1 0 0 -1 179.04 213.3398)">
		<stop  offset="0" style="stop-color:#B3B3B3"/>
		<stop  offset="1" style="stop-color:#939393"/>
	</linearGradient>
	<path opacity="0.5603" fill="url(#SVGID_21_)" d="M81.993,34.307l-3.104,18.99L44.603,32.073L81.993,34.307L81.993,34.307z"/>
	
		<linearGradient id="SVGID_22_" gradientUnits="userSpaceOnUse" x1="-90.4111" y1="170.9775" x2="-83.5658" y2="159.5259" gradientTransform="matrix(1 0 0 -1 179.04 213.3398)">
		<stop  offset="0" style="stop-color:#C2C2C2"/>
		<stop  offset="1" style="stop-color:#A4A4A4"/>
	</linearGradient>
	<path opacity="0.2104" fill="url(#SVGID_22_)" d="M79.657,41.811l15.294-3.328l6.797,11.582L79.657,41.811L79.657,41.811z"/>
	
		<linearGradient id="SVGID_23_" gradientUnits="userSpaceOnUse" x1="-59.4668" y1="157.3057" x2="-87.2284" y2="178.9544" gradientTransform="matrix(1 0 0 -1 179.04 213.3398)">
		<stop  offset="0" style="stop-color:#E1E1E1"/>
		<stop  offset="1" style="stop-color:#D2D2D2"/>
	</linearGradient>
	<polygon opacity="0.5195" fill="url(#SVGID_23_)" points="120.224,48.967 95.656,29.454 101.748,50.064 120.224,51.164 	"/>
	
		<linearGradient id="SVGID_24_" gradientUnits="userSpaceOnUse" x1="-126.7065" y1="164.3809" x2="-149.9344" y2="165.8478" gradientTransform="matrix(1 0 0 -1 179.04 213.3398)">
		<stop  offset="0" style="stop-color:#999999"/>
		<stop  offset="1" style="stop-color:#858585"/>
	</linearGradient>
	<path opacity="0.5089" fill="url(#SVGID_24_)" d="M54.835,46.271l-2.675,5.518l-23.232-1.494L54.835,46.271L54.835,46.271z"/>
	
		<linearGradient id="SVGID_25_" gradientUnits="userSpaceOnUse" x1="-121.3677" y1="156.3398" x2="-104.7499" y2="158.7602" gradientTransform="matrix(1 0 0 -1 179.04 213.3398)">
		<stop  offset="0" style="stop-color:#ADADAD"/>
		<stop  offset="1" style="stop-color:#C2C2C2"/>
	</linearGradient>
	<path opacity="0.3781" fill="url(#SVGID_25_)" d="M78.89,53.297L57.76,57.6l16.609-2.463L78.89,53.297L78.89,53.297z"/>
	
		<linearGradient id="SVGID_26_" gradientUnits="userSpaceOnUse" x1="-103.7354" y1="153.7617" x2="-90.6822" y2="152.4731" gradientTransform="matrix(1 0 0 -1 179.04 213.3398)">
		<stop  offset="0" style="stop-color:#C5C5C5"/>
		<stop  offset="1" style="stop-color:#ABABAB"/>
	</linearGradient>
	<path opacity="0.2417" fill="url(#SVGID_26_)" d="M101.748,50.064L74.122,71.563l13.073,1.314L101.748,50.064L101.748,50.064z"/>
	
		<linearGradient id="SVGID_27_" gradientUnits="userSpaceOnUse" x1="-100.1509" y1="138.7197" x2="-79.0495" y2="171.6248" gradientTransform="matrix(1 0 0 -1 179.04 213.3398)">
		<stop  offset="0" style="stop-color:#D2D2D2"/>
		<stop  offset="1" style="stop-color:#C3C3C3"/>
	</linearGradient>
	<path opacity="0.9379" fill="url(#SVGID_27_)" d="M101.748,50.064L74.122,71.563l20.829-33.08L101.748,50.064L101.748,50.064z"/>
	
		<linearGradient id="SVGID_28_" gradientUnits="userSpaceOnUse" x1="-77.9658" y1="151.4824" x2="-56.513" y2="150.2277" gradientTransform="matrix(1 0 0 -1 179.04 213.3398)">
		<stop  offset="0" style="stop-color:#E2E2E2"/>
		<stop  offset="1" style="stop-color:#CCCCCC"/>
	</linearGradient>
	<polygon opacity="0.727" fill="url(#SVGID_28_)" points="120.224,51.164 101.748,50.064 87.195,72.877 120.224,53.131 	"/>
	
		<linearGradient id="SVGID_29_" gradientUnits="userSpaceOnUse" x1="-61.4746" y1="141.7881" x2="-47.3746" y2="156.483" gradientTransform="matrix(1 0 0 -1 179.04 213.3398)">
		<stop  offset="0" style="stop-color:#DDDDDD"/>
		<stop  offset="1" style="stop-color:#E8E8E8"/>
	</linearGradient>
	<polygon opacity="0.4034" fill="url(#SVGID_29_)" points="120.224,68.424 117.413,71.406 120.224,69.141 	"/>
	
		<linearGradient id="SVGID_30_" gradientUnits="userSpaceOnUse" x1="-107.563" y1="148.1719" x2="-121.5227" y2="122.8665" gradientTransform="matrix(1 0 0 -1 179.04 213.3398)">
		<stop  offset="0" style="stop-color:#9E9E9E"/>
		<stop  offset="1" style="stop-color:#A7A7A7"/>
	</linearGradient>
	<path opacity="0.2473" fill="url(#SVGID_30_)" d="M57.76,57.6L43.996,83.014l34.841,1.25L57.76,57.6L57.76,57.6z"/>
	
		<linearGradient id="SVGID_31_" gradientUnits="userSpaceOnUse" x1="-93.3364" y1="133.2324" x2="-110.6206" y2="153.0006" gradientTransform="matrix(1 0 0 -1 179.04 213.3398)">
		<stop  offset="0" style="stop-color:#ABABAB"/>
		<stop  offset="1" style="stop-color:#BFBFBF"/>
	</linearGradient>
	<path opacity="0.4536" fill="url(#SVGID_31_)" d="M74.369,55.137l4.468,29.127l12.637-9.201L74.369,55.137L74.369,55.137z"/>
	
		<linearGradient id="SVGID_32_" gradientUnits="userSpaceOnUse" x1="-66.5781" y1="138.9072" x2="-55.008" y2="131.9504" gradientTransform="matrix(1 0 0 -1 179.04 213.3398)">
		<stop  offset="0" style="stop-color:#D2D2D2"/>
		<stop  offset="1" style="stop-color:#B5B5B5"/>
	</linearGradient>
	<polygon opacity="0.7858" fill="url(#SVGID_32_)" points="120.224,85 120.224,81.623 117.413,71.406 109.861,78.758 120.055,85 	
		"/>
	
		<linearGradient id="SVGID_33_" gradientUnits="userSpaceOnUse" x1="-58.3853" y1="138.7656" x2="-44.1644" y2="153.5865" gradientTransform="matrix(1 0 0 -1 179.04 213.3398)">
		<stop  offset="0" style="stop-color:#DADADA"/>
		<stop  offset="1" style="stop-color:#DBDBDB"/>
	</linearGradient>
	<polygon opacity="0.3537" fill="url(#SVGID_33_)" points="120.224,68.424 117.413,71.406 120.224,81.623 	"/>
	
		<linearGradient id="SVGID_34_" gradientUnits="userSpaceOnUse" x1="-128.2783" y1="129.2266" x2="-150.7299" y2="142.581" gradientTransform="matrix(1 0 0 -1 179.04 213.3398)">
		<stop  offset="0" style="stop-color:#8A8A8A"/>
		<stop  offset="1" style="stop-color:#9C9C9C"/>
	</linearGradient>
	<path opacity="0.232" fill="url(#SVGID_34_)" d="M43.996,83.014l7.942-0.879L29.596,68.598L43.996,83.014L43.996,83.014z"/>
	
		<linearGradient id="SVGID_35_" gradientUnits="userSpaceOnUse" x1="-100.2227" y1="129.1309" x2="-130.1502" y2="119.8162" gradientTransform="matrix(1 0 0 -1 179.04 213.3398)">
		<stop  offset="0" style="stop-color:#A6A6A6"/>
		<stop  offset="1" style="stop-color:#B2B2B2"/>
	</linearGradient>
	<polygon opacity="0.7819" fill="url(#SVGID_35_)" points="76.089,85 76.512,85 78.835,84.264 77.591,84.518 	"/>
	
		<linearGradient id="SVGID_36_" gradientUnits="userSpaceOnUse" x1="-116.0664" y1="126.3623" x2="-121.0147" y2="136.9086" gradientTransform="matrix(1 0 0 -1 179.04 213.3398)">
		<stop  offset="0" style="stop-color:#9E9E9E"/>
		<stop  offset="1" style="stop-color:#888888"/>
	</linearGradient>
	<polygon opacity="0.5554" fill="url(#SVGID_36_)" points="44.91,85 76.512,85 78.837,84.264 43.996,83.014 	"/>
	
		<linearGradient id="SVGID_37_" gradientUnits="userSpaceOnUse" x1="-93.1123" y1="126.0264" x2="-71.0055" y2="130.9887" gradientTransform="matrix(1 0 0 -1 179.04 213.3398)">
		<stop  offset="0" style="stop-color:#CDCDCD"/>
		<stop  offset="1" style="stop-color:#C7C7C7"/>
	</linearGradient>
	<polygon opacity="0.9208" fill="url(#SVGID_37_)" points="110.413,85 109.861,78.758 104.779,85 	"/>
	
		<linearGradient id="SVGID_38_" gradientUnits="userSpaceOnUse" x1="-70.7324" y1="135.8711" x2="-91.1827" y2="111.207" gradientTransform="matrix(1 0 0 -1 179.04 213.3398)">
		<stop  offset="0" style="stop-color:#CACACA"/>
		<stop  offset="1" style="stop-color:#D2D2D2"/>
	</linearGradient>
	<polygon opacity="0.5777" fill="url(#SVGID_38_)" points="104.779,85 109.861,78.758 105.941,77.049 101.056,85 	"/>
	
		<linearGradient id="SVGID_39_" gradientUnits="userSpaceOnUse" x1="-62.6211" y1="115.1904" x2="-64.4058" y2="135.0123" gradientTransform="matrix(1 0 0 -1 179.04 213.3398)">
		<stop  offset="0" style="stop-color:#D2D2D2"/>
		<stop  offset="1" style="stop-color:#C9C9C9"/>
	</linearGradient>
	<polygon opacity="0.8069" fill="url(#SVGID_39_)" points="120.055,85 109.861,78.758 110.413,85 	"/>
	
		<linearGradient id="SVGID_40_" gradientUnits="userSpaceOnUse" x1="-126.8662" y1="131.1816" x2="-130.151" y2="96.5235" gradientTransform="matrix(1 0 0 -1 179.04 213.3398)">
		<stop  offset="0" style="stop-color:#939393"/>
		<stop  offset="1" style="stop-color:#888888"/>
	</linearGradient>
	<polygon opacity="0.2194" fill="url(#SVGID_40_)" points="52.141,85 51.938,82.137 51.672,85 	"/>
	
		<linearGradient id="SVGID_41_" gradientUnits="userSpaceOnUse" x1="-82.8306" y1="116.8271" x2="-101.5557" y2="128.653" gradientTransform="matrix(1 0 0 -1 179.04 213.3398)">
		<stop  offset="0" style="stop-color:#A9A9A9"/>
		<stop  offset="1" style="stop-color:#A6A6A6"/>
	</linearGradient>
	<polygon opacity="0.961" fill="url(#SVGID_41_)" points="78.343,85 77.591,84.518 77.609,85 	"/>
</g>
</svg>
