<?xml version="1.0" encoding="utf-8"?>
<!-- Generator: Adobe Illustrator 16.0.0, SVG Export Plug-In . SVG Version: 6.00 Build 0)  -->
<!DOCTYPE svg PUBLIC "-//W3C//DTD SVG 1.1//EN" "http://www.w3.org/Graphics/SVG/1.1/DTD/svg11.dtd">
<svg version="1.1" xmlns="http://www.w3.org/2000/svg" xmlns:xlink="http://www.w3.org/1999/xlink" x="0px" y="0px" width="500px"
	 height="500px" viewBox="0 0 500 500" enable-background="new 0 0 500 500" xml:space="preserve">
<g id="Background_Complete">
	<g>
		<g>
			<g>
				<g>
					<g>
						<path fill="#F5F5F5" d="M268.589,451.49c-18.11-8.575-25.337-28.956-27.891-47.945c-0.426-3.169-1.334-6.432-0.304-9.451
							c1.032-3.019,4.21-5.5,7.256-4.648c2.527,0.705,4.007,3.255,5.698,5.285c2.248,2.7,5.263,4.741,8.585,5.808
							c2.184,0.702,4.773,0.92,6.569-0.509c2.465-1.959,2.15-5.77,1.6-8.9c-1.025-5.836-2.048-11.671-3.073-17.507
							c-0.55-3.13-1.101-6.329-0.629-9.469c0.471-3.139,2.158-6.267,4.997-7.607c2.842-1.339,6.819-0.244,7.968,2.718
							c0.479,1.232,0.442,2.602,0.749,3.888c0.309,1.286,1.158,2.624,2.455,2.776c1.313,0.156,2.417-0.944,3.198-2.021
							c2.699-3.712,4.205-8.159,5.571-12.562c1.365-4.401,2.654-8.889,5.007-12.838c2.351-3.948,5.949-7.37,10.395-8.384
							c4.446-1.014,9.697,0.948,11.577,5.162c1.885,4.228,0.065,9.146-2.135,13.198c-3.265,6.012-7.394,11.536-12.219,16.35
							c-0.869,0.868-1.812,1.807-1.992,3.032c-0.328,2.204,2.003,3.945,4.183,4.282c2.468,0.384,4.962-0.288,7.454-0.413
							c2.493-0.126,5.322,0.504,6.638,2.658c1.826,2.986-0.285,6.798-2.55,9.442c-4.534,5.297-9.973,9.796-16.005,13.24
							c-2.163,1.233-4.464,2.384-6.05,4.318c-1.586,1.936-2.231,4.941-0.733,6.959c1.497,2.021,4.5,2.239,6.84,1.382
							c2.339-0.855,4.278-2.533,6.433-3.791c4.032-2.354,9.645-2.998,13.034,0.258c2.228,2.14,2.963,5.521,2.539,8.593
							c-0.423,3.071-1.858,5.898-3.44,8.55c-5.534,9.268-13.269,17.283-22.675,22.438
							C288.234,450.937,279.134,453.441,268.589,451.49"/>
					</g>
				</g>
			</g>
		</g>
		<g>
			<g>
				<g>
					<g>
						<g>
							<path fill="#E0E0E0" d="M271.461,438.83c1.166-9.997,3.354-20.851,6.033-32.123c0.679-2.815,1.352-5.598,2.013-8.34
								c0.668-2.735,1.329-5.448,2.14-8.062c1.601-5.234,3.538-10.146,5.522-14.75c1.982-4.606,4.032-8.905,5.978-12.912
								c1.956-4.003,3.849-7.7,5.718-10.996c3.718-6.608,7.341-11.574,9.968-14.882c1.31-1.658,2.367-2.911,3.096-3.752
								c0.352-0.399,0.627-0.714,0.834-0.95c0.191-0.211,0.292-0.316,0.3-0.31c0.009,0.007-0.078,0.125-0.253,0.35
								c-0.197,0.245-0.459,0.571-0.79,0.987c-0.699,0.863-1.729,2.14-3.009,3.817c-2.567,3.347-6.125,8.332-9.787,14.947
								c-1.84,3.3-3.707,6.999-5.64,11.006c-1.927,4.013-3.956,8.313-5.921,12.913c-1.966,4.599-3.884,9.496-5.467,14.704
								c-0.803,2.601-1.457,5.29-2.124,8.032c-0.66,2.741-1.331,5.521-2.01,8.336c-2.676,11.264-4.874,22.087-6.067,32.052"/>
						</g>
					</g>
				</g>
			</g>
		</g>
		<g>
			<g>
				<g>
					<g>
						<g>
							<path fill="#E0E0E0" d="M281.808,390.255c-0.036,0.012-0.225-0.445-0.531-1.285c-0.312-0.838-0.722-2.065-1.206-3.59
								c-0.971-3.046-2.168-7.297-3.471-11.99c-1.303-4.696-2.559-8.918-3.572-11.94c-0.504-1.513-0.922-2.733-1.224-3.573
								c-0.296-0.842-0.442-1.315-0.406-1.331c0.038-0.016,0.256,0.429,0.617,1.247c0.366,0.815,0.847,2.019,1.4,3.519
								c1.12,2.998,2.442,7.22,3.746,11.92c1.273,4.634,2.425,8.827,3.306,12.029c0.406,1.445,0.75,2.662,1.026,3.64
								C281.733,389.759,281.847,390.242,281.808,390.255z"/>
						</g>
					</g>
				</g>
			</g>
		</g>
		<g>
			<g>
				<g>
					<g>
						<g>
							<path fill="#E0E0E0" d="M320.833,375.907c0.008,0.04-0.554,0.203-1.575,0.465c-1.018,0.267-2.493,0.645-4.302,1.171
								c-3.623,1.021-8.579,2.61-13.97,4.603c-5.39,2.001-10.189,4.02-13.619,5.58c-1.721,0.77-3.097,1.428-4.051,1.879
								c-0.952,0.453-1.487,0.688-1.508,0.651c-0.019-0.037,0.482-0.34,1.405-0.858c0.924-0.513,2.275-1.231,3.979-2.051
								c3.394-1.663,8.186-3.749,13.591-5.759c5.407-1.996,10.402-3.528,14.065-4.449c1.827-0.476,3.323-0.794,4.36-0.991
								C320.247,375.955,320.824,375.867,320.833,375.907z"/>
						</g>
					</g>
				</g>
			</g>
		</g>
		<g>
			<g>
				<g>
					<g>
						<g>
							<path fill="#E0E0E0" d="M271.831,438.004c-0.017,0.012-0.14-0.142-0.359-0.444c-0.252-0.363-0.562-0.806-0.936-1.341
								c-0.808-1.169-1.932-2.89-3.292-5.035c-2.727-4.287-6.304-10.328-10.162-17.048c-3.86-6.722-7.377-12.787-10.009-17.125
								c-1.286-2.108-2.345-3.842-3.132-5.131c-0.337-0.559-0.616-1.021-0.844-1.4c-0.187-0.323-0.278-0.498-0.262-0.511
								c0.017-0.011,0.141,0.143,0.36,0.446c0.253,0.362,0.562,0.805,0.936,1.34c0.807,1.168,1.932,2.889,3.292,5.034
								c2.726,4.287,6.304,10.329,10.163,17.051c3.859,6.72,7.375,12.784,10.008,17.124c1.287,2.106,2.345,3.841,3.132,5.129
								c0.338,0.56,0.616,1.022,0.845,1.401C271.757,437.818,271.848,437.994,271.831,438.004z"/>
						</g>
					</g>
				</g>
			</g>
		</g>
		<g>
			<g>
				<g>
					<g>
						<g>
							<path fill="#E0E0E0" d="M322.46,411.687c0.009,0.019-0.162,0.124-0.494,0.309c-0.396,0.212-0.88,0.471-1.467,0.785
								c-1.357,0.708-3.19,1.665-5.421,2.828c-4.576,2.39-10.858,5.762-17.795,9.497c-6.938,3.738-13.259,7.057-17.885,9.351
								c-2.313,1.148-4.194,2.06-5.507,2.661c-0.607,0.274-1.108,0.5-1.516,0.685c-0.349,0.151-0.538,0.221-0.546,0.202
								c-0.009-0.019,0.163-0.124,0.494-0.31c0.395-0.21,0.879-0.469,1.468-0.783c1.357-0.709,3.189-1.664,5.419-2.828
								c4.575-2.389,10.859-5.763,17.798-9.499c6.938-3.737,13.256-7.054,17.882-9.35c2.313-1.148,4.194-2.059,5.508-2.661
								c0.607-0.274,1.107-0.501,1.516-0.685C322.263,411.739,322.452,411.668,322.46,411.687z"/>
						</g>
					</g>
				</g>
			</g>
		</g>
	</g>
	<g>
		<g>
			<g>
				<path fill="#EBEBEB" d="M137.189,225.925c0,0-12.486,1.735-5.476,29.081c7.01,27.347,12.956,41.441,12.956,41.441
					s0.942,6.194-4.051,6.002c-4.994-0.19-15.174-4.245-18.627,1.143c-3.582,5.589-0.451,12.32,7.381,19.369
					c7.832,7.048,24.423,23.117,25.918,24.577c1.468,1.432,2.581,4.466-0.842,4.881c-3.422,0.414-27.727-2.438-28.39,9.175
					c-0.664,11.614,24.38,27.663,27.084,29.47s3.131,3.22,2.525,4.791s-8.685-0.157-15.631-0.686
					c-6.945-0.528-15.092,0.077-14.913,6.81c0.179,6.733,13.328,23.745,51.691,36.396l18.16,4.697l13.424-13.22
					c27.005-30.042,29.962-51.339,26.771-57.271c-3.19-5.931-10.561-2.407-16.326,1.502c-5.765,3.91-11.917,9.425-13.223,8.363
					c-1.307-1.063-1.64-2.501-0.191-5.412c1.449-2.913,15.206-29.284,8.859-39.033c-6.346-9.748-26.02,4.805-29.196,6.146
					c-3.176,1.34-3.718-1.847-3.156-3.817c0.572-2.009,6.984-24.2,10.278-34.208s2.665-17.405-3.219-20.476
					c-5.674-2.959-12.494,5.618-16.732,8.266c-4.239,2.646-6.5-3.195-6.5-3.195s-1.844-15.187-9.35-42.401
					c-7.506-27.214-19.475-22.338-19.475-22.338"/>
			</g>
		</g>
		<g>
			<g>
				<g>
					<path fill="#E0E0E0" d="M194.955,447.588c-5.434-20.008-14.494-55.732-22.433-86.362c-7.935-30.619-15.146-58.336-20.477-78.37
						c-2.672-9.996-4.836-18.095-6.339-23.719c-0.741-2.782-1.32-4.952-1.719-6.451c-0.186-0.722-0.33-1.28-0.433-1.681
						c-0.094-0.38-0.128-0.579-0.128-0.579s0.072,0.188,0.186,0.562c0.116,0.398,0.279,0.953,0.488,1.667
						c0.424,1.492,1.038,3.651,1.825,6.423c1.579,5.578,3.805,13.667,6.518,23.672c5.434,20.008,12.708,47.71,20.644,78.33
						c7.938,30.631,16.935,66.368,22.267,86.402"/>
				</g>
			</g>
		</g>
		<g>
			<g>
				<g>
					<path fill="#E0E0E0" d="M136.004,309.837c0.022-0.033,0.446,0.196,1.196,0.642c0.752,0.442,1.819,1.113,3.132,1.955
						c2.62,1.689,6.179,4.113,10.059,6.859c3.815,2.722,7.266,5.183,9.905,7.065c1.195,0.842,2.203,1.551,3.013,2.121
						c0.714,0.498,1.1,0.789,1.078,0.824c-0.021,0.034-0.448-0.192-1.201-0.633c-0.751-0.444-1.819-1.117-3.123-1.972
						c-2.604-1.715-6.13-4.185-10.009-6.932c-3.833-2.692-7.299-5.128-9.952-6.991c-1.2-0.835-2.212-1.54-3.026-2.106
						C136.365,310.167,135.982,309.872,136.004,309.837z"/>
				</g>
			</g>
		</g>
		<g>
			<g>
				<g>
					
						<ellipse transform="matrix(-0.5384 0.8427 -0.8427 -0.5384 534.3174 330.7147)" fill="#E0E0E0" cx="176.585" cy="311.692" rx="19.846" ry="0.291"/>
				</g>
			</g>
		</g>
		<g>
			<g>
				<g>
					<path fill="#E0E0E0" d="M175.966,375.995c-0.025-0.031,0.331-0.372,0.996-0.963c0.76-0.665,1.708-1.494,2.833-2.479
						c2.388-2.096,5.675-5.004,9.182-8.346c3.518-3.335,6.595-6.465,8.805-8.747c1.041-1.074,1.918-1.979,2.621-2.702
						c0.623-0.636,0.981-0.974,1.011-0.946c0.03,0.026-0.271,0.416-0.844,1.099c-0.572,0.683-1.417,1.654-2.488,2.831
						c-2.136,2.359-5.176,5.543-8.704,8.888c-3.518,3.352-6.857,6.22-9.317,8.238c-1.235,1.005-2.243,1.807-2.956,2.339
						C176.396,375.745,175.992,376.026,175.966,375.995z"/>
				</g>
			</g>
		</g>
		<g>
			<g>
				<g>
					<path fill="#E0E0E0" d="M145.228,365.143c0.013-0.039,0.456,0.071,1.245,0.301c0.905,0.28,2.015,0.624,3.326,1.029
						c2.799,0.893,6.654,2.163,10.899,3.603c4.247,1.438,8.081,2.771,10.847,3.763c1.287,0.476,2.377,0.877,3.266,1.204
						c0.767,0.298,1.185,0.479,1.172,0.517c-0.013,0.038-0.455-0.071-1.245-0.301c-0.904-0.28-2.015-0.624-3.325-1.028
						c-2.799-0.894-6.654-2.165-10.901-3.604c-4.246-1.438-8.08-2.771-10.845-3.763c-1.287-0.475-2.378-0.877-3.266-1.204
						C145.633,365.363,145.215,365.18,145.228,365.143z"/>
				</g>
			</g>
		</g>
		<g>
			<g>
				<g>
					<path fill="#E0E0E0" d="M148.779,408.276c0.012-0.038,0.578,0.106,1.589,0.402c1.111,0.339,2.545,0.776,4.266,1.302
						c3.594,1.124,8.547,2.715,14.006,4.506c5.461,1.792,10.395,3.444,13.956,4.668c1.698,0.598,3.112,1.093,4.208,1.479
						c0.99,0.361,1.531,0.579,1.518,0.617c-0.013,0.039-0.578-0.106-1.589-0.401c-1.111-0.34-2.545-0.777-4.266-1.303
						c-3.594-1.123-8.547-2.714-14.009-4.507c-5.459-1.791-10.392-3.443-13.953-4.667c-1.697-0.597-3.112-1.093-4.208-1.478
						C149.307,408.533,148.766,408.314,148.779,408.276z"/>
				</g>
			</g>
		</g>
		<g>
			<g>
				<g>
					<path fill="#E0E0E0" d="M187.464,420.673c-0.027-0.03,0.413-0.474,1.231-1.252c0.897-0.843,2.068-1.944,3.479-3.271
						c2.934-2.766,6.971-6.602,11.308-10.961c4.345-4.355,8.173-8.399,10.925-11.347c1.322-1.416,2.42-2.59,3.261-3.489
						c0.774-0.821,1.216-1.263,1.247-1.237c0.03,0.027-0.355,0.52-1.077,1.388c-0.722,0.867-1.786,2.107-3.126,3.615
						c-2.676,3.021-6.464,7.118-10.817,11.48c-4.344,4.368-8.434,8.163-11.441,10.854c-1.508,1.343-2.739,2.416-3.606,3.139
						C187.982,420.317,187.491,420.704,187.464,420.673z"/>
				</g>
			</g>
		</g>
	</g>
	<g>
		<path fill="#F5F5F5" d="M82.966,62.861l-10.255-3.2c0,0-2.686,8.611-11.683,5.974c-4.672-1.37-6.132-5.166-6.384-7.803
			c-0.292-3.063,1.016-6.042,3.322-8.079c2.635-2.325,7.259-3.743,13.791-0.369l7.214-23.123L68.83,23.098l-4.226,13.544
			c0,0-15.369-0.76-20.259,14.913c-4.678,14.996,7.684,22.675,13.44,24.471C62.188,77.399,77.516,81.013,82.966,62.861z"/>
		
			<rect x="71.449" y="10.06" transform="matrix(-0.9546 -0.2978 0.2978 -0.9546 145.6972 52.3877)" fill="#F5F5F5" width="10.781" height="10.069"/>
	</g>
	<g>
		<path fill="#EBEBEB" d="M111.271,36.754l4.107-1.083c0,0-0.91-3.448,2.658-4.456c1.852-0.522,3.139,0.442,3.777,1.272
			c0.741,0.964,0.929,2.237,0.584,3.403c-0.394,1.333-1.645,2.779-4.541,3.021l2.442,9.26l4.061-1.071l-1.431-5.424
			c0,0,5.307-2.974,3.651-9.251c-1.584-6.005-7.337-5.979-9.643-5.372C115.176,27.52,109.283,29.529,111.271,36.754z"/>
		
			<rect x="121.229" y="49.474" transform="matrix(0.9669 -0.255 0.255 0.9669 -9.045 33.1574)" fill="#EBEBEB" width="4.262" height="3.98"/>
	</g>
	<g>
		<path fill="#EBEBEB" d="M450.5,143.112l3.993,1.446c0,0,1.215-3.353,4.721-2.15c1.821,0.625,2.329,2.149,2.382,3.196
			c0.061,1.215-0.509,2.368-1.456,3.131c-1.082,0.871-2.934,1.349-5.453-0.101l-3.262,9.003l3.948,1.431l1.911-5.274
			c0,0,6.056,0.575,8.268-5.528c2.115-5.839-2.631-9.093-4.872-9.905C458.965,137.741,452.975,136.04,450.5,143.112z"/>
		
			<rect x="449.936" y="160.096" transform="matrix(0.9402 0.3406 -0.3406 0.9402 82.2463 -144.2943)" fill="#EBEBEB" width="4.262" height="3.981"/>
	</g>
	<g>
		<path fill="#F5F5F5" d="M26.7,188.849l8.452-3.256c0,0-2.734-7.096,4.591-10.063c3.805-1.542,6.757,0.202,8.304,1.813
			c1.797,1.871,2.493,4.523,2.035,7.076c-0.523,2.916-2.836,6.274-8.918,7.465l7.341,19.056l8.356-3.219l-4.3-11.163
			c0,0,10.553-7.545,5.577-20.461c-4.761-12.358-16.949-10.958-21.693-9.131C32.817,168.363,20.796,174.001,26.7,188.849z"/>
		
			<rect x="51.215" y="212.957" transform="matrix(0.9331 -0.3595 0.3595 0.9331 -74.3549 34.5655)" fill="#F5F5F5" width="9.088" height="8.489"/>
	</g>
	<g>
		<path fill="#F5F5F5" d="M453.785,220.91l-5.988,2.308c0,0,1.937,5.028-3.255,7.131c-2.695,1.093-4.788-0.143-5.884-1.285
			c-1.273-1.326-1.768-3.205-1.442-5.015c0.371-2.066,2.01-4.446,6.32-5.29l-5.202-13.503l-5.923,2.282l3.048,7.91
			c0,0-7.479,5.346-3.952,14.5c3.374,8.758,12.012,7.767,15.372,6.471C449.451,235.428,457.968,231.433,453.785,220.91z"/>
		
			<rect x="429.971" y="197.811" transform="matrix(-0.9332 0.3595 -0.3595 -0.9332 909.616 232.4966)" fill="#F5F5F5" width="6.441" height="6.016"/>
	</g>
</g>
<g id="Background_Simple" display="none">
	<path display="inline" fill="#EBEBEB" d="M440.297,102.518c-23.614-35.231-63.693-60.282-106.101-60.93
		c-42.407-0.648-85.276,25.617-99.561,65.551c-6.962,19.466-7.186,40.619-11.275,60.884s-13.573,41.35-32.115,50.494
		c-25.112,12.383-54.894-1.764-82.861-0.428c-31.649,1.511-60.34,24.648-71.5,54.302c-11.16,29.654-5.737,64.254,11.247,91.002
		s44.581,45.854,74.688,55.728s101.067,15.613,132.47,11.386l0,0c14.795-0.643,29.484-2.994,43.68-7.214
		c43.181-12.835,78.326-34.393,107.546-64.706c34.839-36.142,56.559-84.466,61.421-134.43
		C472.044,181.944,463.912,137.748,440.297,102.518z"/>
</g>
<g id="Floor">
</g>
<g id="Plant">
	<g>
		<g>
			<g>
				<path fill="#E8505B" d="M73.338,425.999c0.998-3.864-1.537-7.744-4.377-10.547c-2.84-2.805-6.236-5.316-7.714-9.024
					c-2.395-6.006,0.824-13.783-3.262-18.794c-2.403-2.948-6.713-3.935-8.846-7.084c-1.118-1.652-1.48-3.683-1.92-5.628
					c-2.242-9.927-7.211-19.224-14.217-26.604c-0.487,8.84,1.462,17.802,5.578,25.64c1.654,3.151,3.686,6.223,4.234,9.739
					c0.891,5.71-2.297,11.592-0.894,17.198c1.604,6.412,8.807,10.704,9.148,17.305c0.289,5.579-4.575,10.478-4.212,16.053
					c0.154,2.375,1.256,4.579,2.482,6.617c4.315,7.174,10.653,12.114,20.26,11.953l11.767,0.412L73.338,425.999z"/>
			</g>
		</g>
	</g>
	<g>
		<g>
			<g>
				<g>
					<linearGradient id="SVGID_1_" gradientUnits="userSpaceOnUse" x1="32.9287" y1="400.7759" x2="81.3657" y2="400.7759">
						<stop  offset="0" style="stop-color:#0096A6"/>
						<stop  offset="0.4273" style="stop-color:#0297A6"/>
						<stop  offset="0.5813" style="stop-color:#0999A4"/>
						<stop  offset="0.691" style="stop-color:#149EA1"/>
						<stop  offset="0.7797" style="stop-color:#25A49C"/>
						<stop  offset="0.8557" style="stop-color:#3BAD96"/>
						<stop  offset="0.9229" style="stop-color:#57B78F"/>
						<stop  offset="0.9823" style="stop-color:#76C387"/>
						<stop  offset="1" style="stop-color:#81C784"/>
					</linearGradient>
					<path fill="url(#SVGID_1_)" d="M73.338,425.999c0.998-3.864-1.537-7.744-4.377-10.547c-2.84-2.805-6.236-5.316-7.714-9.024
						c-2.395-6.006,0.824-13.783-3.262-18.794c-2.403-2.948-6.713-3.935-8.846-7.084c-1.118-1.652-1.48-3.683-1.92-5.628
						c-2.242-9.927-7.211-19.224-14.217-26.604c-0.487,8.84,1.462,17.802,5.578,25.64c1.654,3.151,3.686,6.223,4.234,9.739
						c0.891,5.71-2.297,11.592-0.894,17.198c1.604,6.412,8.807,10.704,9.148,17.305c0.289,5.579-4.575,10.478-4.212,16.053
						c0.154,2.375,1.256,4.579,2.482,6.617c4.315,7.174,10.653,12.114,20.26,11.953l11.767,0.412L73.338,425.999z"/>
				</g>
			</g>
		</g>
	</g>
	<g>
		<g>
			<g>
				<g>
					<g>
						<path fill="#263238" d="M83.749,453.542c0,0,1.122,0.261,3.24-0.069c1.055-0.155,2.353-0.435,3.824-0.963
							c1.462-0.535,3.127-1.297,4.722-2.587c0.766-0.669,1.531-1.494,1.943-2.588c0.405-1.09,0.479-2.288,0.554-3.517
							c0.063-1.23,0.064-2.511,0.274-3.806c0.199-1.295,0.708-2.569,1.438-3.785c1.388-2.437,3.691-4.743,4.436-8.053
							c0.805-3.255,0.228-6.777-0.32-10.314c-0.546-3.529-1.075-7.378,0.275-11.055c1.262-3.68,3.842-7.002,5.132-11.151
							c1.285-4.189,0.686-8.696,0.957-13.142c0.125-2.231,0.556-4.465,1.534-6.533c0.952-2.083,2.272-4.047,3.304-6.24
							c2.088-4.433,2.457-9.457,3.029-14.381c0.278-2.48,0.56-4.987,0.844-7.518c0.28-2.544,0.506-5.078,1.307-7.525
							c0.725-2.466,1.775-4.853,2.814-7.283c0.509-1.223,1.048-2.445,1.366-3.804c0.23-1.386,0.297-2.685,0.38-4.046
							c0.132-2.698,0.021-5.433-0.313-8.146c-0.32-2.717-0.81-5.408-1.101-8.13c-0.019-0.16-0.037-0.321-0.053-0.469l-0.061-0.542
							l-0.482,0.241c-2.52,1.262-4.677,3.142-6.334,5.346c-1.685,2.19-2.913,4.66-3.892,7.172
							c-1.966,5.056-2.673,10.354-3.664,15.409c-0.967,5.057-2.242,10.029-4.835,14.231c-1.289,2.096-2.85,4.009-4.215,6.053
							c-1.362,2.03-2.56,4.261-2.919,6.707c-0.696,4.979,2.045,9.35,1.475,13.758c-0.203,2.189-1.075,4.237-2.147,6.106
							c-1.068,1.881-2.324,3.623-3.515,5.376c-1.19,1.753-2.325,3.529-3.159,5.429c-0.849,1.894-1.317,3.918-1.446,5.898
							c-0.287,3.969,0.276,7.732-0.014,11.287c-0.239,3.56-1.489,6.787-2.904,9.671c-1.423,2.895-3.006,5.513-4.333,8.052
							c-0.667,1.268-1.282,2.506-1.784,3.75c-0.531,1.24-0.792,2.511-1.033,3.719c-0.386,2.44-0.348,4.714-0.086,6.717
							c0.511,4.031,2.015,6.934,3.366,8.564c0.31,0.437,0.669,0.744,0.952,1.031c0.276,0.298,0.549,0.499,0.772,0.656
							C83.514,453.394,83.749,453.542,83.749,453.542c0.052-0.06-0.969-0.6-2.279-2.253c-1.295-1.641-2.733-4.521-3.194-8.508
							c-0.237-1.98-0.25-4.224,0.149-6.619c0.248-1.184,0.514-2.429,1.041-3.632c0.5-1.214,1.123-2.446,1.794-3.7
							c1.337-2.516,2.937-5.123,4.391-8.037c1.443-2.898,2.741-6.189,3.005-9.841c0.31-3.629-0.237-7.408,0.063-11.282
							c0.135-1.938,0.59-3.868,1.418-5.7c0.815-1.839,1.933-3.582,3.123-5.321c1.19-1.74,2.461-3.49,3.56-5.409
							c1.1-1.906,2.022-4.039,2.245-6.357c0.567-4.695-2.154-9.096-1.447-13.723c0.339-2.29,1.478-4.422,2.821-6.415
							c1.344-2.006,2.912-3.921,4.24-6.069c2.674-4.323,3.969-9.392,4.947-14.469c1-5.087,1.709-10.329,3.64-15.28
							c0.961-2.462,2.161-4.869,3.79-6.983c1.603-2.131,3.667-3.922,6.068-5.126l-0.542-0.3c0.017,0.148,0.036,0.311,0.053,0.474
							c0.296,2.754,0.787,5.451,1.104,8.135c0.331,2.683,0.44,5.363,0.312,8.021c-0.077,1.312-0.157,2.688-0.362,3.926
							c-0.288,1.237-0.815,2.458-1.32,3.668c-1.033,2.421-2.098,4.843-2.836,7.362c-0.818,2.507-1.052,5.138-1.325,7.65
							c-0.281,2.533-0.559,5.042-0.834,7.524c-0.562,4.944-0.931,9.888-2.942,14.167c-0.993,2.131-2.312,4.102-3.292,6.252
							c-1.012,2.146-1.46,4.506-1.577,6.775c-0.256,4.541,0.334,8.979-0.894,13.003c-1.22,4.003-3.787,7.343-5.083,11.141
							c-1.389,3.836-0.813,7.81-0.252,11.327c0.568,3.543,1.139,6.991,0.381,10.12c-0.68,3.16-2.917,5.447-4.333,7.953
							c-0.737,1.243-1.265,2.591-1.46,3.936c-0.206,1.339-0.195,2.631-0.247,3.852c-0.061,1.212-0.13,2.401-0.502,3.42
							c-0.369,1.016-1.09,1.819-1.826,2.477c-1.536,1.271-3.171,2.049-4.609,2.6c-1.447,0.545-2.728,0.847-3.769,1.022
							c-1.043,0.189-1.852,0.216-2.394,0.231C84.03,453.534,83.749,453.542,83.749,453.542z"/>
					</g>
				</g>
			</g>
		</g>
		<g>
			<g>
				<g>
					<g>
						<path fill="#263238" d="M120.928,314.918c-0.013-0.003-0.051,0.118-0.114,0.355c-0.069,0.282-0.154,0.63-0.26,1.06
							c-0.231,0.926-0.508,2.325-0.952,4.074c-0.462,1.743-1.53,3.715-2.442,6.146c-0.949,2.411-1.912,5.207-2.797,8.347
							c-0.897,3.138-1.693,6.623-2.525,10.356c-0.858,3.725-1.713,7.722-3.767,11.491c-0.964,1.911-2.05,3.846-2.913,5.963
							c-0.884,2.116-1.361,4.429-1.694,6.751c-0.565,4.661-1.421,9.395-2.537,14.236c-2.359,9.644-4.607,18.827-6.653,27.189
							c-2.096,8.334-3.984,15.846-5.576,22.176c-1.549,6.273-2.808,11.371-3.696,14.967c-0.409,1.726-0.732,3.087-0.967,4.078
							c-0.094,0.433-0.171,0.782-0.233,1.065c-0.048,0.241-0.066,0.366-0.054,0.369c0.012,0.003,0.056-0.115,0.129-0.35
							c0.082-0.279,0.182-0.623,0.306-1.048c0.269-0.982,0.637-2.332,1.105-4.042c0.943-3.582,2.282-8.658,3.928-14.907
							c1.637-6.319,3.579-13.816,5.733-22.136c2.066-8.365,4.334-17.552,6.716-27.197c1.117-4.836,1.981-9.656,2.532-14.294
							c0.327-2.307,0.782-4.536,1.631-6.589c0.831-2.063,1.9-3.988,2.865-5.919c2.07-3.841,2.932-7.959,3.756-11.67
							c0.806-3.742,1.567-7.217,2.428-10.348c0.848-3.135,1.77-5.925,2.676-8.339c0.866-2.423,1.898-4.419,2.332-6.22
							c0.407-1.791,0.632-3.176,0.816-4.12c0.075-0.436,0.137-0.789,0.186-1.075C120.928,315.046,120.94,314.92,120.928,314.918z"/>
					</g>
				</g>
			</g>
		</g>
	</g>
	<g>
		<g>
			<g>
				<linearGradient id="SVGID_2_" gradientUnits="userSpaceOnUse" x1="43.3105" y1="362.0991" x2="93.9336" y2="362.0991">
					<stop  offset="0" style="stop-color:#0096A6"/>
					<stop  offset="0.4273" style="stop-color:#0297A6"/>
					<stop  offset="0.5813" style="stop-color:#0999A4"/>
					<stop  offset="0.691" style="stop-color:#149EA1"/>
					<stop  offset="0.7797" style="stop-color:#25A49C"/>
					<stop  offset="0.8557" style="stop-color:#3BAD96"/>
					<stop  offset="0.9229" style="stop-color:#57B78F"/>
					<stop  offset="0.9823" style="stop-color:#76C387"/>
					<stop  offset="1" style="stop-color:#81C784"/>
				</linearGradient>
				<path fill="url(#SVGID_2_)" d="M85.825,453.579c7.686-4.568,9.892-18.436,6.686-26.781c-3.206-8.348-8.818-15.974-9.684-24.873
					c-0.665-6.841,1.575-13.861-0.018-20.547c-2.15-9.023-10.959-16.014-10.858-25.289c0.056-5.203,3.018-10.101,2.781-15.301
					c-0.289-6.377-5.184-11.437-8.215-17.054c-4.641-8.6-4.946-18.767-6.532-28.408c-1.587-9.642-5.262-19.968-13.807-24.706
					c-1.262,8.186-3.417,13.792-2.74,24.882c0.243,3.982,4.87,11.606,5.499,20.335c0.376,5.216,0.637,10.44,0.956,15.662
					c0.31,5.08,0.64,10.253,2.46,15.006c1.395,3.642,3.638,6.95,4.673,10.711c1.95,7.074-0.612,14.737,0.962,21.904
					c1.333,6.072,5.537,11.298,6.395,17.456c1.206,8.651-4.393,17.64-1.527,25.892c1.422,4.096,4.791,7.383,5.747,11.612
					c0.741,3.28-0.067,6.753,0.604,10.049c1.082,5.31,11.209,9.433,16.618,9.105"/>
			</g>
		</g>
	</g>
	<g>
		<g>
			<g>
				<g>
					<path fill="#263238" d="M48.297,278.746c-0.013,0.002-0.001,0.158,0.034,0.462c0.044,0.344,0.101,0.787,0.173,1.346
						c0.177,1.183,0.375,2.919,0.774,5.163c0.43,2.258,1.593,4.798,2.522,7.861c0.981,3.056,1.957,6.58,2.819,10.525
						c0.877,3.944,1.61,8.309,2.381,13.006c0.795,4.663,1.61,9.815,3.939,14.706c1.078,2.456,2.288,4.915,3.195,7.535
						c0.931,2.61,1.359,5.418,1.622,8.306c0.397,5.798,1.169,11.828,2.254,17.904c2.354,12.128,4.596,23.681,6.637,34.196
						c2.151,10.474,4.089,19.908,5.721,27.853c1.647,7.886,2.984,14.284,3.92,18.765c0.471,2.174,0.841,3.88,1.104,5.094
						c0.126,0.549,0.228,0.983,0.306,1.321c0.073,0.297,0.117,0.447,0.129,0.445c0.013-0.003-0.005-0.159-0.053-0.461
						c-0.06-0.341-0.137-0.782-0.232-1.335c-0.23-1.221-0.553-2.938-0.965-5.123c-0.88-4.491-2.137-10.906-3.685-18.812
						c-1.586-7.953-3.47-17.399-5.562-27.886c-2.021-10.512-4.242-22.062-6.574-34.186c-1.084-6.083-1.852-12.024-2.262-17.847
						c-0.269-2.903-0.714-5.796-1.677-8.472c-0.935-2.675-2.162-5.145-3.24-7.58c-2.316-4.818-3.13-9.852-3.959-14.53
						c-0.796-4.688-1.563-9.066-2.478-13.018c-0.899-3.954-1.916-7.485-2.938-10.539c-0.977-3.074-2.175-5.594-2.636-7.793
						c-0.438-2.205-0.688-3.957-0.912-5.124c-0.103-0.554-0.184-0.992-0.247-1.334C48.347,278.896,48.31,278.744,48.297,278.746z"/>
				</g>
			</g>
		</g>
	</g>
</g>
<g id="Speech_Bubble">
	<g>
		<g>
			<path fill="#E8505B" d="M418.901,59.219h-4.185c0,0,0,3.512-3.649,3.576c-1.896,0.033-2.879-1.209-3.278-2.161
				c-0.464-1.104-0.323-2.363,0.299-3.387c0.709-1.17,2.264-2.234,5.083-1.737v-9.432h-4.136v5.525c0,0-5.802,1.5-5.802,7.894
				c0,6.117,5.485,7.538,7.833,7.538C412.862,67.034,418.98,66.6,418.901,59.219z"/>
			<rect x="408.984" y="40.213" fill="#E8505B" width="4.198" height="3.921"/>
		</g>
		<g>
			<g>
				<g>
					<g>
						<g>
							<g>
								<path fill="#263238" d="M441.811,53.622c0.012,0,0.015-0.179,0.009-0.529c-0.011-0.384-0.025-0.899-0.045-1.556
									c-0.015-0.342-0.015-0.726-0.05-1.147c-0.06-0.421-0.123-0.878-0.193-1.372c-0.071-0.498-0.147-1.032-0.229-1.602
									c-0.14-0.562-0.287-1.159-0.443-1.789c-0.646-2.513-1.752-5.559-3.781-8.672c-1.997-3.111-4.854-6.345-8.735-8.969
									c-3.887-2.575-8.775-4.562-14.268-5.088c-1.375-0.052-2.772-0.218-4.193-0.084c-0.709,0.049-1.43,0.035-2.146,0.138
									c-0.714,0.108-1.435,0.216-2.16,0.326c-2.864,0.585-5.8,1.438-8.533,2.914c-2.739,1.442-5.348,3.303-7.67,5.574
									c-2.273,2.315-4.247,5.021-5.769,8.031c-1.533,3.001-2.592,6.327-3.004,9.788c-0.17,0.857-0.17,1.735-0.222,2.611
									c-0.058,0.876-0.09,1.756-0.049,2.64c0.072,1.765,0.294,3.536,0.668,5.286c0.809,3.802,2.357,7.381,4.429,10.524
									l-0.032-0.32c-1.464,3.648-2.901,7.227-4.303,10.72l-0.255,0.635l0.659-0.181c3.934-1.082,7.759-2.133,11.46-3.151
									l-0.282-0.054c3.997,3.008,8.562,4.926,13.095,5.72c2.265,0.398,4.524,0.567,6.709,0.417c1.095-0.047,2.174-0.1,3.223-0.305
									c0.526-0.082,1.049-0.163,1.568-0.243c0.515-0.096,1.015-0.252,1.518-0.375c8.066-2.071,14.024-7.04,17.435-11.96
									c1.734-2.463,2.979-4.893,3.755-7.117c0.198-0.554,0.391-1.088,0.574-1.603c0.134-0.529,0.263-1.036,0.387-1.522
									c0.12-0.485,0.234-0.95,0.345-1.393c0.086-0.446,0.131-0.878,0.194-1.281c0.103-0.811,0.243-1.523,0.273-2.147
									c0.021-0.614,0.038-1.139,0.053-1.575c0.009-0.399,0.016-0.716,0.021-0.962C441.824,53.731,441.821,53.622,441.811,53.622
									s-0.024,0.11-0.045,0.325c-0.019,0.245-0.044,0.561-0.075,0.958c-0.029,0.434-0.064,0.955-0.105,1.565
									c-0.048,0.619-0.205,1.324-0.323,2.126c-0.579,3.155-1.837,7.885-5.369,12.716c-3.411,4.825-9.313,9.667-17.243,11.659
									c-0.494,0.117-0.985,0.27-1.492,0.361c-0.51,0.077-1.022,0.154-1.54,0.231c-1.03,0.197-2.09,0.243-3.164,0.284
									c-2.144,0.139-4.359-0.036-6.577-0.435c-4.439-0.794-8.902-2.686-12.811-5.642l-0.128-0.097l-0.155,0.042
									c-3.702,1.01-7.53,2.054-11.466,3.128l0.403,0.454c1.406-3.492,2.847-7.069,4.315-10.715l0.067-0.167l-0.101-0.152
									c-2.022-3.075-3.534-6.574-4.325-10.289c-0.365-1.71-0.583-3.441-0.653-5.167c-0.04-0.864-0.01-1.724,0.047-2.581
									c0.051-0.856,0.048-1.715,0.216-2.553c0.399-3.384,1.431-6.636,2.927-9.573c1.483-2.945,3.409-5.594,5.63-7.866
									c2.268-2.227,4.815-4.054,7.494-5.474c2.673-1.455,5.545-2.297,8.351-2.882c0.71-0.11,1.416-0.219,2.116-0.327
									c0.7-0.105,1.408-0.092,2.103-0.145c1.394-0.137,2.766,0.022,4.115,0.065c5.392,0.492,10.205,2.415,14.047,4.922
									c3.837,2.556,6.679,5.719,8.682,8.771c2.035,3.054,3.166,6.051,3.847,8.532c0.166,0.623,0.323,1.212,0.471,1.767
									c0.093,0.564,0.179,1.092,0.26,1.584c0.08,0.489,0.155,0.942,0.224,1.36c0.047,0.417,0.058,0.798,0.084,1.138
									c0.049,0.653,0.086,1.166,0.113,1.547C441.779,53.443,441.799,53.622,441.811,53.622z"/>
							</g>
						</g>
					</g>
				</g>
			</g>
		</g>
	</g>
</g>
<g id="Question_Mark">
	
		<linearGradient id="SVGID_3_" gradientUnits="userSpaceOnUse" x1="904.6782" y1="-8700.4805" x2="7226.9614" y2="-8700.4805" gradientTransform="matrix(0.0705 -0.0033 -0.0033 -0.0705 -67.1424 -134.9525)">
		<stop  offset="0" style="stop-color:#CFD8DC"/>
		<stop  offset="1" style="stop-color:#CFD8DC"/>
	</linearGradient>
	<path opacity="0.2" fill="url(#SVGID_3_)" enable-background="new    " d="M456.751,454.439
		c-47.313-1.299-94.784-0.858-142.234,0.28c-1.161-5.913-10.375-11.389-21.593-10.668c-62.293,4.034-200.24,3.896-261.392,12.547
		c-9.395,1.318-8.072,9.389,1.151,10.407c8.413,0.86-6.418,16.325,6.099,16.763c55.704,1.279,169.105-6.951,207.663-7.372
		c-2.463,7.071,1.812,5.056,16.656,5.056c65.438-0.44,131.197-1.6,196.136-5.914C477.842,474.219,475.541,455.02,456.751,454.439z"
		/>
	<g>
		<g>
			<g>
				<path fill="#E8505B" d="M128.436,177.558h60.691c0,0,0-50.958,52.956-51.87c27.502-0.474,41.762,17.541,47.555,31.342
					c6.729,16.027,4.692,34.292-4.322,49.154c-10.294,16.973-32.464,34.027-73.364,26.821l-0.387,135.212h60.01v-80.157
					c0,0,84.165-21.757,84.165-114.511c0-88.746-71.765-107.917-110.335-109.149c-21.463-0.686-29.242-1.608-55.787,2.161
					C155.79,71.364,127.72,110.641,128.436,177.558z"/>
				<rect x="211.395" y="396.409" fill="#E8505B" width="60.903" height="56.882"/>
				<rect x="211.395" y="396.409" opacity="0.1" width="60.903" height="56.882"/>
				<path opacity="0.1" d="M128.436,177.558h60.691c0,0,0-50.958,52.956-51.87c27.502-0.474,41.762,17.541,47.555,31.342
					c6.729,16.027,4.692,34.292-4.322,49.154c-10.294,16.973-32.464,34.027-73.364,26.821l-0.387,135.212h60.01v-80.157
					c0,0,84.165-21.757,84.165-114.511c0-88.746-71.765-107.917-110.335-109.149c-21.463-0.686-29.242-1.608-55.787,2.161
					C155.79,71.364,127.72,110.641,128.436,177.558z"/>
			</g>
			<g>
				<path fill="#E8505B" d="M103.296,177.558h60.69c0,0,0-50.958,52.956-51.87c27.502-0.474,41.762,17.541,47.556,31.342
					c6.728,16.027,4.691,34.292-4.323,49.154c-10.294,16.973-32.851,32.399-73.751,25.193v136.84h60.01v-80.157
					c0,0,84.166-21.757,84.166-114.511c0-88.746-79.586-109.358-113.652-109.358C190.897,64.192,102.151,70.49,103.296,177.558z"/>
				<path opacity="0.3" d="M103.296,177.558h60.69c0,0,0-50.958,52.956-51.87c27.502-0.474,41.762,17.541,47.556,31.342
					c6.728,16.027,4.691,34.292-4.323,49.154c-10.294,16.973-32.851,32.399-73.751,25.193v136.84h60.01v-80.157
					c0,0,84.166-21.757,84.166-114.511c0-88.746-79.586-109.358-113.652-109.358C190.897,64.192,102.151,70.49,103.296,177.558z"/>
				<rect x="186.256" y="396.409" fill="#E8505B" width="60.903" height="56.882"/>
				<rect x="186.256" y="396.409" opacity="0.3" width="60.903" height="56.882"/>
			</g>
		</g>
		<g>
			<path fill="#263238" d="M223.796,125.971c-0.003,0.018-0.316-0.002-0.908-0.056c-0.594-0.03-1.458-0.197-2.586-0.21
				c-2.248-0.149-5.521-0.091-9.516,0.395c-3.992,0.5-8.709,1.489-13.738,3.231c-2.5,0.901-5.1,1.937-7.655,3.292
				c-2.577,1.307-5.127,2.905-7.485,4.848c-2.373,1.923-4.378,4.168-6.127,6.473c-1.755,2.299-3.274,4.646-4.591,6.957
				c-2.581,4.653-4.344,9.142-5.435,13.016c-1.117,3.87-1.604,7.106-1.826,9.346c-0.129,1.12-0.164,1.995-0.194,2.588
				c-0.035,0.593-0.063,0.905-0.081,0.905c-0.019,0-0.029-0.312-0.029-0.907c-0.004-0.596-0.005-1.476,0.093-2.604
				c0.156-2.255,0.589-5.522,1.665-9.433c1.05-3.913,2.789-8.45,5.367-13.157c1.315-2.336,2.839-4.711,4.606-7.037
				c1.755-2.326,3.788-4.609,6.205-6.569c2.397-1.975,4.981-3.588,7.587-4.901c2.584-1.363,5.211-2.397,7.735-3.293
				c5.077-1.729,9.834-2.685,13.857-3.139c4.028-0.439,7.321-0.438,9.577-0.223c1.132,0.046,1.997,0.248,2.587,0.313
				C223.492,125.896,223.799,125.952,223.796,125.971z"/>
		</g>
		<g>
			<path fill="#263238" d="M315.238,115.136c-0.008,0.005-0.075-0.076-0.197-0.239c-0.137-0.189-0.313-0.43-0.531-0.731
				c-0.479-0.68-1.147-1.628-1.997-2.834c-0.438-0.612-0.895-1.314-1.446-2.043c-0.584-0.708-1.217-1.476-1.896-2.299
				c-0.679-0.827-1.403-1.708-2.172-2.644c-0.79-0.917-1.712-1.81-2.632-2.79c-0.941-0.959-1.878-2.015-2.944-3.022
				c-1.088-0.985-2.222-2.008-3.394-3.068c-0.591-0.523-1.17-1.083-1.799-1.603c-0.643-0.505-1.294-1.019-1.955-1.54
				c-1.334-1.027-2.659-2.148-4.104-3.182c-5.76-4.171-12.495-8.182-19.886-11.744c-1.869-0.846-3.717-1.682-5.537-2.505
				c-1.862-0.723-3.698-1.436-5.502-2.135c-1.789-0.742-3.618-1.27-5.386-1.853c-1.777-0.551-3.488-1.19-5.221-1.595
				c-1.72-0.452-3.397-0.892-5.026-1.32c-1.629-0.431-3.248-0.688-4.792-1.024c-1.554-0.291-3.037-0.677-4.495-0.858
				c-1.452-0.21-2.847-0.412-4.179-0.604c-2.655-0.455-5.093-0.545-7.219-0.759c-1.066-0.084-2.056-0.198-2.97-0.241
				c-0.912-0.025-1.748-0.047-2.504-0.067c-1.474-0.048-2.635-0.084-3.466-0.111c-0.371-0.018-0.668-0.032-0.902-0.043
				c-0.204-0.013-0.308-0.024-0.308-0.034c0-0.009,0.104-0.017,0.307-0.022c0.234-0.003,0.532-0.006,0.902-0.011
				c0.833,0.002,1.995,0.005,3.472,0.009c0.758,0.006,1.597,0.012,2.511,0.02c0.917,0.027,1.91,0.126,2.979,0.196
				c2.133,0.186,4.581,0.25,7.247,0.681c1.338,0.182,2.739,0.373,4.198,0.571c1.464,0.171,2.954,0.548,4.515,0.83
				c1.552,0.328,3.179,0.576,4.815,1.001c1.638,0.423,3.323,0.857,5.051,1.303c1.741,0.4,3.461,1.035,5.246,1.584
				c1.776,0.581,3.613,1.106,5.41,1.847c1.813,0.701,3.657,1.413,5.527,2.136c1.829,0.826,3.685,1.664,5.563,2.512
				c7.421,3.577,14.18,7.619,19.948,11.832c1.446,1.044,2.773,2.176,4.107,3.214c0.661,0.526,1.313,1.046,1.955,1.557
				c0.629,0.525,1.207,1.091,1.798,1.621c1.17,1.073,2.3,2.108,3.387,3.104c1.063,1.02,1.995,2.088,2.932,3.059
				c0.915,0.993,1.829,1.898,2.613,2.827c0.759,0.948,1.477,1.843,2.148,2.681c0.667,0.836,1.29,1.615,1.865,2.334
				c0.541,0.741,0.986,1.455,1.411,2.077c0.815,1.233,1.456,2.203,1.916,2.898c0.2,0.313,0.359,0.563,0.486,0.76
				C315.195,115.04,315.247,115.13,315.238,115.136z"/>
		</g>
		<g>
			<path fill="#263238" d="M308.916,245.437c0.015,0.011-0.144,0.229-0.459,0.63c-0.354,0.439-0.819,1.018-1.399,1.74
				c-0.606,0.758-1.364,1.673-2.292,2.693c-0.92,1.025-1.938,2.223-3.159,3.457c-1.196,1.258-2.515,2.627-4.003,4.025
				c-1.447,1.441-3.089,2.878-4.799,4.41c-3.476,2.997-7.436,6.137-11.79,9.16c-4.375,2.994-8.718,5.58-12.756,7.765
				c-2.04,1.053-3.968,2.077-5.829,2.916c-1.836,0.895-3.586,1.639-5.187,2.311c-1.587,0.701-3.068,1.228-4.354,1.723
				c-1.283,0.504-2.407,0.887-3.331,1.185c-0.881,0.286-1.587,0.515-2.124,0.688c-0.488,0.151-0.746,0.224-0.752,0.205
				c-0.006-0.018,0.241-0.124,0.717-0.309c0.527-0.199,1.221-0.46,2.088-0.786c0.911-0.327,2.022-0.738,3.292-1.269
				c1.272-0.522,2.739-1.07,4.312-1.794c1.588-0.691,3.322-1.455,5.144-2.363c1.847-0.854,3.76-1.891,5.785-2.951
				c4.011-2.199,8.328-4.788,12.686-7.772c4.336-3.01,8.288-6.124,11.771-9.089c1.712-1.517,3.359-2.935,4.815-4.357
				c1.496-1.379,2.826-2.729,4.037-3.967c1.235-1.213,2.27-2.389,3.21-3.391c0.947-0.999,1.727-1.891,2.357-2.626
				c0.612-0.694,1.103-1.251,1.477-1.672C308.713,245.618,308.901,245.424,308.916,245.437z"/>
		</g>
		<g>
			<path fill="#263238" d="M245.373,363.454c-0.152,0-0.274-16.88-0.274-37.697c0-20.825,0.122-37.7,0.274-37.7
				c0.151,0,0.273,16.875,0.273,37.7C245.646,346.574,245.524,363.454,245.373,363.454z"/>
		</g>
		<g>
			<path fill="#263238" d="M247.688,449.434c-0.151,0-0.273-11.846-0.273-26.454c0-14.615,0.122-26.458,0.273-26.458
				s0.274,11.843,0.274,26.458C247.961,437.588,247.838,449.434,247.688,449.434z"/>
		</g>
	</g>
</g>
<g id="Character">
	<g>
		<path fill="#263238" d="M260.425,192.29c3.492,4.194,8.221,7.254,13.383,8.743c1.834,0.525,3.843,0.876,5.77,0.525
			c1.917-0.351,3.752-1.49,4.638-3.236c0.863-1.751,0.35-4.199-1.237-5.249c2.802-0.175,5.337-2.009,6.306-4.632
			c0.957-2.622,0.258-5.682-1.668-7.697c4.119,0.701,8.396-1.133,11.189-4.106c2.885-3.06,4.378-7.083,5.077-11.194
			c1.484-8.656-1.05-18.011-6.727-24.919c3.05-1.139,2.092-10.144-5.337-14.424c-5.514-3.236-12.241-4.024-18.629-3.761
			s-12.765,2.534-17.312,6.996c-6.644,6.646-8.22,17.047-6.201,26.228c0.701,2.972,1.484,6.383-0.536,8.66
			c-0.958,1.046-2.441,1.572-3.751,2.185c-1.319,0.612-2.628,1.658-2.885,3.148c-0.35,2.708,3.4,4.543,3.4,7.345
			c0,2.01-1.917,3.406-3.585,4.632c-1.649,1.226-3.235,3.235-2.349,5.069c0.7,1.488,2.535,1.839,4.018,2.277
			c1.485,0.438,3.236,1.746,2.886,3.235c-0.35,1.396-2.101,1.921-2.535,3.323c-0.526,1.571,1.051,3.146,2.71,3.323
			c1.658,0.087,3.142-0.789,4.543-1.577C254.303,195.438,257.795,193.949,260.425,192.29z"/>
		<path fill="#E8505B" d="M253.63,226.104c-0.861,1.72,2.33,3.107,4.172,3.665c1.843,0.556,3.808,0.499,5.729,0.394
			c2.545-0.137,5.183-0.375,7.397-1.639c1.968-1.124,3.434-2.981,4.46-5.002c1.024-2.02,1.646-4.217,2.263-6.397
			C277.652,217.124,257.468,218.445,253.63,226.104z"/>
		<g opacity="0.4">
			<path d="M253.63,226.104c-0.861,1.72,2.33,3.107,4.172,3.665c1.843,0.556,3.808,0.499,5.729,0.394
				c2.545-0.137,5.183-0.375,7.397-1.639c1.968-1.124,3.434-2.981,4.46-5.002c1.024-2.02,1.646-4.217,2.263-6.397
				C277.652,217.124,257.468,218.445,253.63,226.104z"/>
		</g>
		<g>
			<path fill="#E8505B" d="M310.652,220.634c3.294,2.353,7.347,3.625,11.395,3.577c1.938-0.024,3.994-0.398,5.425-1.707
				c0.658-0.602,1.15-1.372,1.828-1.951c0.461-0.394,0.999-0.692,1.432-1.116c0.433-0.423,0.761-1.029,0.629-1.621
				c-0.133-0.605-0.641-1.581-1.179-1.887c-2.318-1.315-5.084-1.268-7.749-1.207s-5.29,0.682-7.816,1.533
				c-2.066,0.695-4.234,1.676-5.28,3.587"/>
			<g opacity="0.4">
				<path d="M331.36,217.817c-0.133-0.605-0.976-1.411-1.515-1.717c-2.318-1.314-4.748-1.437-7.413-1.376s-5.29,0.682-7.816,1.532
					c-2.066,0.695-4.234,1.676-5.28,3.588l1.316,0.79c3.294,2.353,7.347,3.625,11.395,3.577c1.938-0.024,3.994-0.398,5.425-1.707
					c0.658-0.602,1.15-1.372,1.828-1.951c0.461-0.394,0.999-0.692,1.432-1.116C331.164,219.015,331.492,218.408,331.36,217.817z"/>
			</g>
		</g>
		<linearGradient id="SVGID_4_" gradientUnits="userSpaceOnUse" x1="249.6694" y1="214.3286" x2="314.7476" y2="214.3286">
			<stop  offset="0" style="stop-color:#FF3F6F"/>
			<stop  offset="1" style="stop-color:#FDBCB8"/>
		</linearGradient>
		<path fill="url(#SVGID_4_)" d="M271.248,251.301l42.59,0.559c0.373,0.004,0.643-0.359,0.528-0.715l-4.997-15.583
			c0,0,0.737-7.788,1.754-17.158c1.544-14.22,3.6-32.1,3.625-32.051c-2.908-8.164-20.097-9.555-20.097-9.555l-19.591,1.165
			l-0.689-1.149l-5.638,2.621c-1.231,0.572-2.409,1.24-3.536,1.995c-3.721,2.493-12.696,8.202-14.333,14.573
			c-3.782,14.73,2.625,31.177,2.625,31.177l4.112-3.214c1.074-0.816,2.095-1.517,3.264-2.181l8.253,22.115
			c0,0-1.719,1.044-1.789,2.838C267.255,248.529,268.216,250.688,271.248,251.301"/>
		<g opacity="0.3">
			<path d="M289.503,225.226c1.353-7.26,0.637-14.726-0.08-22.075c-2.365,6.013-2.278,12.789-4.781,18.746
				c-0.271,0.642-0.571,1.283-0.668,1.973c-0.093,0.69,0.056,1.456,0.57,1.927c0.681,0.622,1.694,0.287,2.608,0.177
				C288.123,225.857,288.634,225.525,289.503,225.226"/>
		</g>
		<g opacity="0.4">
			<path d="M273.817,242.035c3.439,1.191,7.055-1.021,10.673-1.413c2.39-0.259,4.783,0.289,7.156,0.673
				c4.797,0.78,9.698,0.9,14.525,0.356c0.736-0.082,1.491-0.187,2.137-0.55c0.645-0.364,1.164-1.382,1.116-2.121
				c-8.043-0.825-16.086-1.318-24.128-2.143c-2.017-0.207-4.098-0.408-6.034,0.192c-2.431,0.753-4.305,2.662-6.018,4.544"/>
		</g>
		<linearGradient id="SVGID_5_" gradientUnits="userSpaceOnUse" x1="304.896" y1="203.1421" x2="331.3599" y2="203.1421">
			<stop  offset="0" style="stop-color:#FF3F6F"/>
			<stop  offset="1" style="stop-color:#FDBCB8"/>
		</linearGradient>
		<path fill="url(#SVGID_5_)" d="M330.131,215.003c-3.481-7.829-15.741-29.496-15.741-29.496l-9.494,11.904l2.215,23.366
			c0,0,5.014-5.596,19.033-5.708c3.267-0.025,5.216,2.748,5.216,2.748L330.131,215.003z"/>
		<g>
			
				<ellipse transform="matrix(0.2588 0.9659 -0.9659 0.2588 400.1071 -110.0266)" fill="#263238" cx="271.748" cy="205.699" rx="5.351" ry="0.221"/>
		</g>
		<g>
			<path fill="#263238" d="M304.178,195.827c0.021-0.022,0.333,0.244,0.88,0.747c0.532,0.515,1.285,1.284,2.114,2.324
				c1.658,2.052,3.686,5.261,4.533,9.278c0.425,1.996,0.494,3.967,0.272,5.722c-0.22,1.748-0.555,3.285-0.769,4.587
				c-0.228,1.299-0.36,2.355-0.428,3.089c-0.067,0.733-0.085,1.142-0.119,1.142c-0.027,0-0.068-0.409-0.054-1.152
				c0.015-0.742,0.101-1.815,0.289-3.127c0.176-1.313,0.479-2.863,0.672-4.586c0.195-1.714,0.115-3.632-0.299-5.583
				c-0.827-3.921-2.771-7.098-4.348-9.177C305.344,196.986,304.113,195.892,304.178,195.827z"/>
		</g>
		<g>
			<path fill="#263238" d="M295.483,249.439c0.007,0.03-0.322,0.125-0.927,0.27c-0.302,0.077-0.674,0.16-1.111,0.215
				c-0.438,0.062-0.935,0.157-1.492,0.182c-1.109,0.106-2.441,0.104-3.911-0.021c-1.467-0.153-3.069-0.445-4.7-0.942
				c-1.625-0.514-3.111-1.182-4.407-1.886c-1.283-0.729-2.382-1.48-3.235-2.197c-0.446-0.336-0.801-0.696-1.127-0.994
				c-0.33-0.294-0.588-0.573-0.794-0.808c-0.416-0.463-0.634-0.727-0.611-0.747c0.063-0.063,0.981,0.964,2.725,2.301
				c0.867,0.675,1.97,1.388,3.24,2.084c1.284,0.673,2.746,1.315,4.342,1.822c1.602,0.487,3.171,0.785,4.61,0.958
				c1.442,0.146,2.753,0.181,3.849,0.115C294.127,249.678,295.464,249.353,295.483,249.439z"/>
		</g>
		<g>
			<path fill="#263238" d="M308.635,244.567c0.051-0.011,0.219,0.455,0.328,1.247c0.103,0.786,0.123,1.922-0.229,3.113
				c-0.339,1.198-1.052,2.136-1.674,2.646c-0.625,0.519-1.104,0.684-1.126,0.642c-0.038-0.065,0.378-0.325,0.911-0.872
				c0.534-0.54,1.145-1.422,1.463-2.542C308.956,246.544,308.468,244.577,308.635,244.567z"/>
		</g>
		<g>
			<path fill="#263238" d="M306.319,247.576c0.112-0.026,0.338,1.221-0.216,2.628c-0.54,1.413-1.548,2.182-1.612,2.087
				c-0.095-0.093,0.702-0.941,1.198-2.247C306.202,248.746,306.187,247.582,306.319,247.576z"/>
		</g>
		<g>
			<path fill="#263238" d="M298.694,219.465c0.091,0.092-0.698,0.984-1.52,2.188c-0.827,1.198-1.375,2.255-1.494,2.204
				c-0.11-0.042,0.271-1.215,1.128-2.456C297.658,220.155,298.615,219.379,298.694,219.465z"/>
		</g>
		<g>
			<path fill="#263238" d="M269.464,198.775c-0.048,0.056-0.723-0.49-1.89-1.251c-1.164-0.762-2.847-1.704-4.832-2.449
				c-1.989-0.738-3.878-1.131-5.258-1.317c-1.378-0.189-2.245-0.22-2.244-0.292c-0.002-0.05,0.87-0.131,2.28-0.02
				c1.406,0.108,3.348,0.459,5.377,1.213c2.025,0.759,3.724,1.767,4.857,2.606C268.891,198.105,269.498,198.738,269.464,198.775z"/>
		</g>
		<g>
			<path fill="#263238" d="M314.396,185.224c0.083,0.118-2.223,1.525-4.317,4.039c-2.121,2.494-3.113,5.003-3.243,4.942
				c-0.051-0.02,0.131-0.669,0.595-1.657c0.461-0.986,1.234-2.294,2.309-3.571c1.076-1.275,2.231-2.261,3.126-2.884
				C313.758,185.467,314.368,185.178,314.396,185.224z"/>
		</g>
		<g>
			<path fill="#263238" d="M296.808,178.184c0.014-0.006,0.08,0.129,0.191,0.395c0.127,0.261,0.257,0.666,0.398,1.198
				c0.27,1.061,0.416,2.693-0.017,4.626c-0.443,1.911-1.51,4.136-3.485,5.888c-1.958,1.764-4.84,2.811-7.859,2.8
				c-3.027-0.02-5.866-1.056-7.937-2.652c-2.096-1.577-3.483-3.548-4.368-5.293c-0.868-1.767-1.272-3.319-1.454-4.396
				c-0.087-0.54-0.142-0.961-0.153-1.25c-0.021-0.287-0.023-0.438-0.008-0.439c0.044-0.005,0.097,0.597,0.331,1.655
				c0.231,1.056,0.677,2.571,1.565,4.286c0.902,1.694,2.283,3.597,4.332,5.108c2.02,1.53,4.765,2.515,7.692,2.536
				c2.921,0.009,5.696-0.987,7.59-2.662c1.912-1.667,2.978-3.806,3.448-5.653c0.459-1.871,0.366-3.464,0.153-4.516
				C297.018,178.753,296.755,178.203,296.808,178.184z"/>
		</g>
		<g opacity="0.3">
			<path d="M299.796,220.98c-0.014-0.427-0.067-0.93-0.439-1.144c-0.232-0.134-0.532-0.105-0.773,0.014
				c-0.242,0.117-0.437,0.312-0.619,0.51c-1.034,1.122-1.757,2.216-2.283,3.648l4.188-0.361
				C299.841,222.764,299.824,221.862,299.796,220.98z"/>
		</g>
		<g opacity="0.3">
			<path d="M313.698,212.169c-0.32-2.395-1.545-4.587-3.035-6.489c1.803,5.914,1.199,9.248,0.185,13.297l0.219-0.566
				C312.229,216.045,314.019,214.565,313.698,212.169z"/>
		</g>
		<g>
			<g>
				<polygon fill="#FFBE9D" points="305.333,410.77 302.778,449.088 286.118,448.892 283.494,409.053 				"/>
			</g>
			<g>
				<g>
					<g>
						<g>
							<path fill="#E8505B" d="M303.253,444.044l0.003,1.108c0,0,18.78,7.557,18.978,11.122l-37.301-0.218l0.58-12.409
								C291.044,446.249,296.847,446.57,303.253,444.044z"/>
						</g>
					</g>
					<g>
						<g>
							<g>
								<path fill="#FFFFFF" d="M289.267,447.638c-0.724,0.192-1.226,1-1.063,1.729c0.164,0.732,0.981,1.251,1.709,1.07
									c0.725-0.18,1.359-1.133,1.115-1.841c-0.244-0.706-1.237-1.263-1.899-0.914"/>
							</g>
						</g>
					</g>
					<g>
						<g>
							<path fill="#263238" d="M284.933,456.057l0.14-2.986l35.698,1.303c0,0,1.658,0.732,1.463,1.901L284.933,456.057z"/>
						</g>
					</g>
					<g>
						<g>
							<g>
								<path fill="#263238" d="M303.386,445.257c-0.007,0.183-0.918,0.259-1.817,0.839c-0.915,0.559-1.382,1.344-1.549,1.271
									c-0.167-0.037,0.11-1.123,1.213-1.808C302.328,444.866,303.428,445.09,303.386,445.257z"/>
							</g>
						</g>
					</g>
					<g>
						<g>
							<g>
								<path fill="#263238" d="M307.29,446.898c0.041,0.176-0.75,0.482-1.373,1.249c-0.646,0.748-0.807,1.58-0.988,1.57
									c-0.172,0.029-0.291-1.04,0.503-1.977C306.214,446.795,307.287,446.724,307.29,446.898z"/>
							</g>
						</g>
					</g>
					<g>
						<g>
							<g>
								<path fill="#263238" d="M309.484,451.594c-0.166,0.038-0.413-0.873,0.061-1.868c0.466-0.999,1.327-1.386,1.403-1.234
									c0.103,0.149-0.454,0.683-0.831,1.506C309.721,450.81,309.666,451.577,309.484,451.594z"/>
							</g>
						</g>
					</g>
				</g>
			</g>
		</g>
		<g>
			<g>
				<g>
					<g>
						<g>
							<g>
								<g>
									<linearGradient id="SVGID_6_" gradientUnits="userSpaceOnUse" x1="266.146" y1="159.4639" x2="299.8032" y2="159.4639">
										<stop  offset="0" style="stop-color:#FDDEDC"/>
										<stop  offset="1" style="stop-color:#FDBCB8"/>
									</linearGradient>
									<path fill="url(#SVGID_6_)" d="M294.651,176.798c-0.718-3.611-1.219-6.085-1.21-6.059c0,0,6.809-2.651,6.339-12.162
										c-0.232-4.73-2.037-12.188-3.71-18.241c-1.507-5.448-6.587-11.456-11.967-9.72l-16.27,7.947
										c-1.634,0.527-1.92,2.062-1.534,3.736l0.026,0.816l6.329,26.191l2.674,11.706c1.185,4.981,5.974,8.235,11.04,7.501l0,0
										C291.975,187.701,295.754,182.354,294.651,176.798z"/>
								</g>
							</g>
						</g>
					</g>
				</g>
			</g>
		</g>
		<g>
			<g>
				<g>
					<g>
						<g>
							<g>
								<g>
									<g>
										<path fill="#263238" d="M295.961,146.663c0.152,0.619-0.245,1.258-0.888,1.429c-0.643,0.171-1.289-0.189-1.441-0.809
											c-0.152-0.619,0.246-1.259,0.888-1.431C295.163,145.681,295.809,146.044,295.961,146.663z"/>
									</g>
								</g>
							</g>
						</g>
					</g>
				</g>
			</g>
			<g>
				<g>
					<g>
						<g>
							<g>
								<g>
									<g>
										<g>
											<path fill="#263238" d="M295.259,144.844c-0.113,0.185-1.146-0.289-2.416-0.02c-1.272,0.251-2.066,1.1-2.237,0.974
												c-0.083-0.055,0.009-0.364,0.353-0.745c0.338-0.378,0.959-0.807,1.752-0.97c0.791-0.162,1.519-0.011,1.962,0.208
												C295.127,144.509,295.318,144.76,295.259,144.844z"/>
										</g>
									</g>
								</g>
							</g>
						</g>
					</g>
				</g>
			</g>
		</g>
		<g>
			<g>
				<g>
					<g>
						<g>
							<g>
								<g>
									<g>
										<path fill="#263238" d="M283.6,149.498c0.152,0.618-0.245,1.258-0.889,1.429c-0.642,0.171-1.288-0.19-1.44-0.809
											c-0.153-0.619,0.245-1.259,0.887-1.431C282.801,148.516,283.448,148.878,283.6,149.498z"/>
									</g>
								</g>
							</g>
						</g>
					</g>
				</g>
			</g>
			<g>
				<g>
					<g>
						<g>
							<g>
								<g>
									<g>
										<g>
											<path fill="#263238" d="M282.977,147.855c-0.114,0.185-1.148-0.289-2.418-0.019c-1.271,0.251-2.066,1.1-2.236,0.973
												c-0.082-0.055,0.007-0.364,0.352-0.744c0.338-0.378,0.96-0.807,1.752-0.971c0.792-0.161,1.518-0.009,1.963,0.209
												C282.842,147.521,283.034,147.772,282.977,147.855z"/>
										</g>
									</g>
								</g>
							</g>
						</g>
					</g>
				</g>
			</g>
		</g>
		<g>
			<g>
				<g>
					<g>
						<g>
							<g>
								<g>
									<g>
										<path fill="#263238" d="M289.41,155.891c-0.021-0.071,0.74-0.373,1.986-0.805c0.316-0.103,0.61-0.23,0.618-0.463
											c0.027-0.251-0.182-0.571-0.418-0.916c-0.471-0.721-0.961-1.477-1.478-2.269c-2.069-3.237-3.641-5.926-3.51-6.009
											c0.131-0.082,1.915,2.475,3.984,5.712c0.503,0.799,0.983,1.562,1.44,2.292c0.199,0.343,0.499,0.717,0.436,1.238
											c-0.037,0.26-0.237,0.487-0.435,0.586c-0.193,0.107-0.375,0.149-0.533,0.192
											C290.227,155.789,289.429,155.962,289.41,155.891z"/>
									</g>
								</g>
							</g>
						</g>
					</g>
				</g>
			</g>
		</g>
		<g>
			<g>
				<g>
					<g>
						<g>
							<g>
								<g>
									<path fill="#EB996E" d="M293.441,170.739c0,0-6.109,1.698-13.017-0.703c0,0,4.472,5.844,13.504,3.051L293.441,170.739z"/>
								</g>
							</g>
						</g>
					</g>
				</g>
			</g>
		</g>
		<g>
			<g>
				<g>
					<g>
						<g>
							<g>
								<g>
									<path fill="#263238" d="M283.216,146.045c-0.084,0.366-1.391,0.356-2.88,0.723c-1.496,0.336-2.66,0.928-2.9,0.638
										c-0.107-0.14,0.065-0.495,0.516-0.894c0.447-0.398,1.188-0.815,2.084-1.027c0.895-0.21,1.743-0.167,2.321-0.01
										C282.939,145.63,283.252,145.872,283.216,146.045z"/>
								</g>
							</g>
						</g>
					</g>
				</g>
			</g>
		</g>
		<g>
			<g>
				<g>
					<g>
						<g>
							<g>
								<g>
									<path fill="#263238" d="M294.778,140.804c-0.204,0.344-1.301,0.262-2.55,0.509c-1.255,0.21-2.259,0.677-2.563,0.425
										c-0.138-0.124-0.032-0.448,0.37-0.817c0.397-0.368,1.109-0.749,1.971-0.907c0.858-0.156,1.656-0.051,2.149,0.155
										C294.658,140.372,294.866,140.639,294.778,140.804z"/>
								</g>
							</g>
						</g>
					</g>
				</g>
			</g>
		</g>
		<g>
			<path fill="#263238" d="M271.835,132.442c0.376,1.845,1.605,3.498,3.265,4.387c1.658,0.89,3.715,1,5.459,0.292
				c1.354-0.55,2.748-1.58,4.122-1.083c1.444,0.522,1.897,2.442,3.237,3.192c1.916,1.072,4.223-0.786,6.412-0.603
				c1.688,0.142,2.999,1.458,4.32,2.518c1.324,1.06,3.16,1.949,4.652,1.146c-0.397-1.409-0.801-2.833-1.512-4.115
				c-0.709-1.281-1.766-2.426-3.129-2.959c-0.748-0.292-1.567-0.396-2.28-0.762c-1.544-0.793-2.234-2.585-3.359-3.905
				c-1.45-1.702-3.761-2.628-5.983-2.398c-1.851,0.19-3.604,1.121-5.462,1.042c-1.374-0.058-2.689-0.668-4.063-0.646
				c-2.679,0.045-4.688,2.389-6.174,4.617"/>
		</g>
		<path fill="#263238" d="M280.837,134.398c-1.223-0.091-3.739-0.349-4.566-1.221c-1.796-1.896-4.476-2.89-6.871-2.253
			c-2.394,0.634-4.323,3.03-4.288,5.691c-2.926,0.63-5.404,3.064-6.236,6.127c-0.831,3.062,0.017,6.628,2.136,8.974
			c0.554,0.615,1.4,2.031,1.4,2.031s-1.098,1.372-1.52,2.305c-1.952,4.323,3.348,5.979,3.348,5.979
			c0.014,2.905,2.691,2.891,4.41,2.883c1.652-0.008,2.669,4.573,4.005,4.395l-1.357-14.149c0.165,0.066,0.367,0.108,0.627,0.113
			c3.237,0.058,2.394-6.069,1.344-7.654c0.912-1.226,1.835-2.469,2.427-3.909c0.593-1.439,0.631-5.038,0.128-6.55
			C276.95,136.992,281.375,134.438,280.837,134.398z"/>
		<g>
			<g>
				<g>
					<g>
						<g>
							<g>
								<g>
									<g>
										<g>
											<g>
												
													<linearGradient id="SVGID_7_" gradientUnits="userSpaceOnUse" x1="266.3716" y1="157.8955" x2="273.1704" y2="157.8955">
													<stop  offset="0" style="stop-color:#FDDEDC"/>
													<stop  offset="1" style="stop-color:#FDBCB8"/>
												</linearGradient>
												<path fill="url(#SVGID_7_)" d="M271.78,155.906c-0.504-1.938-2.908-2.804-4.404-1.47
													c-0.818,0.732-1.309,1.964-0.791,4.026c1.38,5.5,6.616,2.981,6.586,2.821
													C273.152,161.184,272.372,158.177,271.78,155.906z"/>
											</g>
										</g>
									</g>
								</g>
							</g>
						</g>
					</g>
				</g>
			</g>
		</g>
		<g>
			<g>
				<g>
					<g>
						<g>
							<g>
								<g>
									<g>
										<g>
											<g>
												<g>
													<linearGradient id="SVGID_8_" gradientUnits="userSpaceOnUse" x1="267.896" y1="157.9019" x2="270.979" y2="157.9019">
														<stop  offset="0" style="stop-color:#FDDEDC"/>
														<stop  offset="1" style="stop-color:#FDBCB8"/>
													</linearGradient>
													<path fill="url(#SVGID_8_)" d="M270.968,159.621c-0.028-0.011-0.079,0.091-0.223,0.206
														c-0.139,0.111-0.398,0.229-0.712,0.195c-0.635-0.068-1.354-0.867-1.631-1.852c-0.139-0.497-0.154-1-0.075-1.439
														c0.067-0.444,0.257-0.791,0.537-0.916c0.272-0.14,0.524-0.017,0.63,0.121c0.113,0.135,0.104,0.254,0.138,0.256
														c0.019,0.01,0.095-0.122-0.007-0.337c-0.052-0.104-0.147-0.218-0.303-0.291c-0.159-0.075-0.367-0.08-0.564-0.007
														c-0.417,0.135-0.701,0.622-0.787,1.104c-0.109,0.49-0.105,1.058,0.051,1.616c0.314,1.099,1.142,1.994,1.994,2.024
														c0.412,0.004,0.706-0.193,0.84-0.365C270.993,159.756,270.989,159.626,270.968,159.621z"/>
												</g>
											</g>
										</g>
									</g>
								</g>
							</g>
						</g>
					</g>
				</g>
			</g>
		</g>
		<g>
			<path fill="#455A64" d="M301.28,148.224c-0.033-0.042,0.498-0.384,1.2-1.243c0.688-0.851,1.522-2.3,1.719-4.272
				c0.093-0.974,0.045-2.073-0.309-3.168c-0.352-1.088-0.981-2.185-1.952-3.035c-1.896-1.724-5.036-2.522-7.853-1.529
				c-0.258,0.083-0.496,0.211-0.739,0.312c-0.233,0.123-0.454,0.26-0.672,0.382l-0.338,0.19l-0.006-0.376
				c-0.008-0.662-0.258-1.304-0.69-1.795c-0.431-0.494-0.986-0.871-1.579-1.127c-1.199-0.528-2.489-0.537-3.667-0.269
				c-2.358,0.535-4.358,1.613-6.247,1.831c-1.871,0.239-3.425-0.226-4.262-0.856c-0.433-0.301-0.675-0.638-0.836-0.854
				c-0.138-0.236-0.202-0.362-0.189-0.369c0.044-0.037,0.276,0.524,1.119,1.086c0.829,0.562,2.326,0.961,4.127,0.692
				c0.895-0.132,1.852-0.452,2.868-0.828c1.021-0.373,2.11-0.819,3.337-1.093c0.612-0.131,1.255-0.228,1.929-0.194
				c0.671,0.035,1.347,0.188,1.992,0.458c0.642,0.275,1.254,0.68,1.741,1.237c0.49,0.551,0.796,1.308,0.802,2.081l-0.345-0.186
				c0.232-0.132,0.468-0.278,0.717-0.409c0.259-0.108,0.515-0.244,0.787-0.332c2.997-1.052,6.282-0.197,8.278,1.643
				c1.021,0.909,1.68,2.082,2.031,3.23c0.354,1.158,0.384,2.303,0.268,3.312c-0.244,2.042-1.154,3.512-1.899,4.349
				c-0.376,0.422-0.707,0.717-0.951,0.884C301.419,148.151,301.29,148.237,301.28,148.224z"/>
		</g>
		<g>
			<path fill="#455A64" d="M300.163,128.911c-0.031,0.062-0.585-0.433-1.771-0.608c-0.584-0.076-1.322-0.072-2.102,0.191
				c-0.778,0.242-1.6,0.757-2.165,1.574l-0.211,0.302l-0.127-0.342c-0.691-1.843-2.71-3.596-5.212-3.87
				c-1.879-0.216-3.588,0.631-5.009,1.448c-1.432,0.838-2.74,1.657-3.971,2.054c-1.219,0.428-2.297,0.475-3.006,0.353
				c-0.357-0.061-0.624-0.145-0.798-0.218c-0.174-0.076-0.261-0.121-0.255-0.136c0.013-0.04,0.38,0.113,1.074,0.183
				c0.69,0.065,1.712-0.026,2.876-0.478c1.181-0.42,2.431-1.242,3.872-2.113c0.726-0.425,1.51-0.86,2.394-1.168
				c0.877-0.316,1.871-0.473,2.87-0.368c2.686,0.296,4.814,2.185,5.522,4.175l-0.338-0.04c0.645-0.894,1.552-1.425,2.39-1.658
				c0.841-0.253,1.623-0.224,2.231-0.111c0.614,0.12,1.06,0.338,1.341,0.512C300.044,128.777,300.173,128.897,300.163,128.911z"/>
		</g>
		<path fill="#E8505B" d="M288.917,158.417c-0.387-0.375-0.966-0.497-1.501-0.436c-0.503,0.057-1.12,0.506-1.439,1.051
			c-0.008,0.01-0.016,0.021-0.022,0.032c-0.014,0.024-0.034,0.045-0.046,0.07l0.021-0.014c-0.117,0.194-0.186,0.421-0.16,0.645
			c0.053,0.504,0.437,0.928,0.892,1.155c0.721,0.361,1.678,0.256,2.237-0.325C289.459,160.015,289.499,158.977,288.917,158.417z"/>
		<g>
			<path fill="#263238" d="M289.343,161.074c-0.065,0.013-0.149-0.253-0.377-0.611c-0.222-0.356-0.62-0.803-1.189-1.063
				c-0.57-0.258-1.169-0.264-1.583-0.198c-0.419,0.064-0.675,0.176-0.708,0.117c-0.031-0.044,0.177-0.265,0.633-0.422
				c0.443-0.159,1.155-0.213,1.843,0.098c0.688,0.314,1.114,0.887,1.285,1.324C289.426,160.765,289.397,161.067,289.343,161.074z"/>
		</g>
		<g>
			<path fill="#E8505B" d="M271.908,162.131c0.041-0.027,0.243,0.427-0.077,1.075c-0.159,0.308-0.454,0.648-0.911,0.823
				c-0.456,0.183-1.04,0.115-1.507-0.179c-0.465-0.293-0.78-0.791-0.812-1.282c-0.039-0.487,0.141-0.901,0.349-1.178
				c0.446-0.568,0.943-0.581,0.936-0.533c0.03,0.067-0.373,0.194-0.674,0.709c-0.144,0.25-0.253,0.595-0.202,0.957
				c0.041,0.358,0.281,0.72,0.642,0.95c0.363,0.226,0.791,0.285,1.133,0.169c0.348-0.111,0.611-0.359,0.775-0.597
				C271.893,162.553,271.833,162.134,271.908,162.131z"/>
		</g>
		<g>
			<path fill="#E8505B" d="M269.023,161.801c0.048,0.022-0.027,0.292-0.398,0.473c-0.181,0.084-0.432,0.137-0.709,0.07
				c-0.28-0.065-0.547-0.273-0.7-0.556c-0.151-0.283-0.182-0.62-0.082-0.889c0.095-0.27,0.277-0.451,0.447-0.557
				c0.355-0.211,0.62-0.126,0.613-0.074c0.004,0.067-0.21,0.111-0.423,0.324c-0.218,0.206-0.378,0.604-0.163,0.984
				c0.201,0.387,0.62,0.471,0.912,0.401C268.814,161.917,268.969,161.761,269.023,161.801z"/>
		</g>
		<g>
			<path fill="#FFBE9D" d="M278.417,237.676c0,0,21.152,1.226,33.655,1.341c9.685,0.089,14.001-2.483,15.938-8.706
				c1.626-5.225-1.866-15.243-1.866-15.243c-6.549,0.033-10.59,0.936-14.805,2.911l1.123,4.581l-34.105,2.94L278.417,237.676z"/>
			<g>
				<path fill="#EB996E" d="M319.572,227.448c-0.117,0.08-1.111-1.773-3.192-3.168c-2.06-1.429-4.149-1.677-4.117-1.815
					c0.006-0.052,0.53-0.065,1.356,0.119c0.823,0.18,1.938,0.599,3.011,1.329c1.07,0.732,1.867,1.616,2.337,2.316
					C319.438,226.931,319.619,227.424,319.572,227.448z"/>
			</g>
			<g>
				<path fill="#FFBE9D" d="M270.671,217.95L270.671,217.95c0,0-6.543,1.568-11.346,4.782l5.108,13.894
					c1.707,4.56,6.936,6.801,11.077,4.435c6.433-3.676,8.702-14.408,8.702-14.408l7.069-30.651l-11.711-7.339L270.671,217.95"/>
				<g>
					<path fill="#FFBE9D" d="M279.572,188.663l0.472-10.081l-2.615-10.21c-0.146-0.566-0.217-1.271,0.241-1.616
						c0.479-0.36,1.194-0.342,1.579,0.05c0.716,0.732,4.132,9.7,4.132,9.7s5.183-3.116,6.107-3.267
						c0.926-0.152,2.078,2.637,2.151,2.857c0.072,0.221,0.009,1.875,0.009,1.875s3.206,0.095,3.493,0.536
						c0.286,0.44,0.368,2.719,0.368,2.719s1.356,0.434,1.574,1.463c0.22,1.029,0.655,2.719,0.017,3.09
						c-0.639,0.37-1.988,1.112-1.988,1.112s-0.544,5.23-0.683,5.707c-0.141,0.476-3.146,3.405-3.146,3.405L279.572,188.663z"/>
					<g>
						<path fill="#EB996E" d="M268.676,241.271c0.014-0.029,0.318,0.182,0.982,0.397c0.656,0.221,1.693,0.418,3.02,0.239
							c1.313-0.177,2.928-0.753,4.373-2.017c1.425-1.29,2.867-2.998,4.064-5.146c0.597-1.074,1.133-2.254,1.582-3.53
							c0.462-1.272,0.763-2.653,1.097-4.094c0.671-2.879,1.394-5.979,2.161-9.273c1.541-6.591,3.266-13.958,5.123-21.894
							l0.013-0.059l0.045-0.043c0.588-0.577,1.179-1.171,1.765-1.78c0.292-0.306,0.583-0.616,0.861-0.935
							c0.137-0.159,0.279-0.323,0.388-0.483c0.101-0.103,0.104-0.309,0.144-0.527c0.232-1.71,0.412-3.477,0.601-5.258l0.014-0.112
							l0.099-0.056c0.534-0.3,1.078-0.604,1.628-0.913c0.124-0.074,0.307-0.164,0.385-0.225c0.067-0.055,0.128-0.151,0.153-0.286
							c0.063-0.261,0.042-0.579,0.01-0.885c-0.076-0.602-0.219-1.302-0.379-1.857c-0.214-0.518-0.799-0.892-1.36-1.098l-0.146-0.054
							l-0.007-0.149c-0.021-0.495-0.055-1.004-0.11-1.511c-0.027-0.252-0.062-0.508-0.113-0.75c-0.027-0.115-0.06-0.246-0.098-0.316
							c-0.028-0.056-0.015-0.014-0.054-0.05c-0.046-0.019-0.082-0.044-0.144-0.06c-0.949-0.261-2.068-0.3-3.129-0.353l-0.223-0.011
							l0.006-0.22c0.017-0.528,0.039-1.116,0.016-1.669c0.014-0.146-0.12-0.368-0.198-0.573c-0.093-0.206-0.189-0.409-0.295-0.609
							c-0.206-0.398-0.433-0.787-0.697-1.128c-0.134-0.167-0.279-0.328-0.436-0.426c-0.173-0.104-0.246-0.128-0.453-0.052
							c-0.397,0.139-0.807,0.354-1.205,0.552c-1.595,0.83-3.145,1.736-4.663,2.638l-0.223,0.132l-0.096-0.239
							c-0.808-2.024-1.604-4.021-2.393-5.99c-0.393-0.984-0.782-1.962-1.169-2.931c-0.141-0.491-0.483-0.768-0.939-0.879
							c-0.451-0.116-0.898,0.024-1.111,0.408c-0.106,0.181-0.153,0.398-0.13,0.608c0.024,0.19,0.118,0.478,0.174,0.712
							c0.131,0.493,0.259,0.983,0.387,1.471c0.257,0.977,0.511,1.945,0.763,2.903c0.504,1.917,0.998,3.799,1.481,5.64l0.008,0.03
							l-0.001,0.03c-0.172,3.508-0.334,6.875-0.489,10.08l-0.001,0.024l-0.007,0.021c-3.228,10.506-5.905,19.219-7.782,25.326
							c-0.943,3.026-1.686,5.407-2.196,7.05c-0.256,0.796-0.452,1.412-0.592,1.849c-0.136,0.417-0.221,0.628-0.221,0.628
							s0.048-0.223,0.166-0.645c0.128-0.44,0.308-1.063,0.539-1.864c0.489-1.651,1.198-4.041,2.099-7.079
							c1.842-6.118,4.467-14.847,7.634-25.373l-0.009,0.045c0.147-3.206,0.299-6.573,0.458-10.082l0.006,0.06
							c-0.488-1.839-0.985-3.719-1.494-5.636c-0.253-0.958-0.509-1.926-0.768-2.902c-0.13-0.488-0.259-0.979-0.39-1.471
							c-0.062-0.262-0.139-0.458-0.188-0.773c-0.032-0.3,0.03-0.609,0.185-0.871c0.154-0.262,0.393-0.475,0.692-0.582
							c0.299-0.099,0.598-0.09,0.883-0.027c0.283,0.067,0.558,0.193,0.783,0.398c0.228,0.188,0.384,0.512,0.459,0.736
							c0.389,0.97,0.78,1.946,1.175,2.931c0.788,1.968,1.587,3.965,2.397,5.988l-0.317-0.107c1.526-0.908,3.072-1.813,4.688-2.654
							c0.411-0.205,0.806-0.416,1.268-0.58c0.125-0.036,0.249-0.081,0.43-0.061c0.156,0.022,0.299,0.085,0.405,0.162
							c0.229,0.148,0.389,0.335,0.541,0.523c0.296,0.38,0.53,0.787,0.745,1.201c0.106,0.208,0.208,0.417,0.304,0.631
							c0.08,0.221,0.223,0.401,0.237,0.725c0.027,0.605,0.003,1.175-0.014,1.715l-0.216-0.23c1.1,0.06,2.165,0.078,3.263,0.378
							c0.066,0.017,0.146,0.059,0.221,0.095c0.065,0.033,0.203,0.154,0.22,0.224c0.084,0.164,0.105,0.293,0.142,0.433
							c0.057,0.271,0.091,0.533,0.121,0.795c0.056,0.522,0.09,1.034,0.11,1.543l-0.152-0.202c0.66,0.25,1.314,0.633,1.633,1.349
							c0.206,0.705,0.314,1.297,0.409,1.977c0.032,0.334,0.063,0.672-0.021,1.039c-0.037,0.177-0.129,0.384-0.311,0.529
							c-0.178,0.128-0.29,0.169-0.436,0.258c-0.554,0.309-1.1,0.615-1.637,0.915l0.111-0.169c-0.192,1.786-0.373,3.544-0.61,5.276
							l-0.053,0.332c-0.01,0.103-0.09,0.291-0.159,0.372c-0.136,0.198-0.278,0.357-0.421,0.525
							c-0.287,0.327-0.583,0.638-0.878,0.947c-0.59,0.615-1.184,1.209-1.777,1.788l0.058-0.103
							c-1.879,7.931-3.623,15.293-5.185,21.879c-0.783,3.291-1.519,6.387-2.203,9.263c-0.341,1.433-0.653,2.833-1.13,4.119
							c-0.463,1.288-1.014,2.479-1.627,3.562c-1.229,2.166-2.7,3.88-4.158,5.171c-1.497,1.279-3.149,1.842-4.487,2.002
							c-1.354,0.161-2.407-0.064-3.063-0.31c-0.33-0.123-0.571-0.236-0.726-0.329C268.751,241.322,268.673,241.276,268.676,241.271z
							"/>
					</g>
					<g>
						<path fill="#EB996E" d="M291.647,177.953c-0.002,0.062-0.289,0.095-0.739,0.116c-0.45,0.026-1.069,0.039-1.703,0.202
							c-0.63,0.163-1.144,0.479-1.449,0.774c-0.313,0.292-0.449,0.54-0.512,0.513c-0.053-0.016-0.017-0.328,0.276-0.721
							c0.286-0.395,0.855-0.813,1.571-0.996c0.717-0.182,1.373-0.14,1.827-0.085C291.376,177.814,291.651,177.893,291.647,177.953z"
							/>
					</g>
					<g>
						
							<ellipse transform="matrix(-0.3516 0.9362 -0.9362 -0.3516 557.254 -30.9131)" fill="#EB996E" cx="289.333" cy="177.535" rx="0.546" ry="0.222"/>
					</g>
					<g>
						<path fill="#EB996E" d="M295.65,181.149c-0.001,0.129-1.144,0.262-2.535,0.351c-0.688,0.061-1.207,0.309-1.41,0.679
							c-0.226,0.35-0.15,0.639-0.216,0.657c-0.042,0.039-0.272-0.288-0.065-0.799c0.096-0.241,0.305-0.509,0.61-0.678
							c0.301-0.173,0.666-0.259,1.027-0.301C294.498,180.965,295.654,181.033,295.65,181.149z"/>
					</g>
					<g>
						
							<ellipse transform="matrix(0.0453 -0.999 0.999 0.0453 96.2252 471.9327)" fill="#EB996E" cx="295.017" cy="185.624" rx="1.402" ry="0.223"/>
					</g>
				</g>
			</g>
		</g>
		<g>
			<path fill="#FFFFFF" d="M298.632,207.233l0.76-2.619c0.151-0.526,0.814-0.693,1.196-0.301l0.992,1.011l0.619-2.463
				c0.163-0.649,1.05-0.738,1.339-0.135l1.399,2.917L298.632,207.233z"/>
			<g>
				
					<ellipse transform="matrix(0.9707 -0.2404 0.2404 0.9707 -41.0349 78.6551)" fill="#FFFFFF" cx="301.88" cy="207.524" rx="3.164" ry="0.223"/>
			</g>
		</g>
		<g>
			<path fill="#FFFFFF" d="M272.123,180.544c0.005,0.006-0.063,0.042-0.191,0.105c-0.173,0.083-0.358,0.171-0.563,0.269
				c-0.488,0.233-1.193,0.576-2.042,1.045c-1.707,0.918-3.982,2.336-6.421,4.012c-2.438,1.677-4.6,3.262-6.18,4.39
				c-0.727,0.514-1.35,0.957-1.876,1.329c-0.188,0.127-0.356,0.244-0.516,0.352c-0.12,0.079-0.185,0.118-0.189,0.113
				c-0.002-0.004,0.055-0.054,0.169-0.142c0.151-0.117,0.315-0.242,0.495-0.378c0.518-0.385,1.131-0.843,1.844-1.375
				c1.56-1.154,3.711-2.755,6.153-4.436c2.441-1.679,4.733-3.084,6.462-3.977c0.856-0.456,1.574-0.783,2.072-0.996
				c0.21-0.088,0.4-0.166,0.578-0.24C272.051,180.564,272.122,180.539,272.123,180.544z"/>
		</g>
		<g>
			<path fill="#FFFFFF" d="M312.869,186.102c-0.004,0.004-0.054-0.033-0.144-0.108c-0.122-0.105-0.25-0.215-0.384-0.333
				c-0.337-0.285-0.837-0.683-1.497-1.115c-1.306-0.886-3.255-1.885-5.491-2.78c-2.241-0.895-4.332-1.53-5.856-1.948
				c-0.762-0.211-1.382-0.367-1.813-0.473c-0.172-0.044-0.335-0.086-0.492-0.126c-0.112-0.031-0.171-0.05-0.17-0.056
				c0.001-0.007,0.063,0.001,0.177,0.021c0.16,0.029,0.325,0.06,0.502,0.093c0.434,0.085,1.062,0.222,1.829,0.419
				c1.536,0.387,3.642,1.006,5.89,1.905c2.246,0.898,4.2,1.921,5.496,2.84C312.224,185.346,312.869,186.102,312.869,186.102z"/>
		</g>
		<g>
			<path fill="#FFFFFF" d="M272.366,251.315c-0.004,0.011-0.124-0.025-0.333-0.114c-0.208-0.087-0.505-0.233-0.848-0.453
				c-0.67-0.424-1.584-1.259-1.857-2.516c-0.283-1.233-0.018-2.397,0.329-3.127c0.174-0.369,0.356-0.647,0.496-0.825
				c0.14-0.18,0.229-0.268,0.236-0.26c0.03,0.021-0.308,0.399-0.616,1.136c-0.31,0.725-0.544,1.852-0.272,3.036
				c0.259,1.197,1.113,2.007,1.755,2.453C271.912,251.1,272.38,251.284,272.366,251.315z"/>
		</g>
		<g>
			
				<ellipse transform="matrix(-0.2801 -0.96 0.96 -0.2801 112.1663 570.4389)" fill="#FFFFFF" cx="269.967" cy="243.163" rx="1.143" ry="0.09"/>
		</g>
		<g>
			<path fill="#263238" d="M281.198,433.612l26.06-0.131l-0.473-90.096l-0.243-91.646l-35.294-0.438l-6.345,11.963
				c-2.56,4.826-4.301,10.07-4.88,15.503c-0.445,4.141,2.655,17.643,3.74,21.079l9.714,30.808L281.198,433.612z"/>
			<path fill="#263238" d="M314.189,251.864l28.634,78.061c3.362,10.461,2.238,20.834-3.53,30.499l-33.245,64.891l-18.692-23.386
				l27.817-58.132l-24.523-39.729l4.126-52.121l11.552-0.185L314.189,251.864z"/>
		</g>
		<g>
			<path fill="#455A64" d="M304.162,278.015c0,0,0.022,0.135,0.041,0.4c0.018,0.284,0.042,0.674,0.073,1.176
				c0.057,1.056,0.139,2.577,0.242,4.526c0.19,3.951,0.465,9.632,0.805,16.647c0.324,7.034,0.709,15.402,1.137,24.691
				c0.208,4.649,0.428,9.526,0.656,14.583c0.163,2.527,0.088,5.106,0.117,7.72c0.009,2.614,0.017,5.266,0.024,7.95
				c0.038,21.471,0.068,40.903,0.092,54.995c-0.009,7.021-0.017,12.71-0.022,16.664c-0.011,1.954-0.021,3.475-0.028,4.533
				c-0.008,0.503-0.014,0.894-0.019,1.178c-0.008,0.265-0.022,0.401-0.022,0.401s-0.016-0.137-0.024-0.401
				c-0.006-0.284-0.014-0.675-0.023-1.178c-0.013-1.059-0.032-2.579-0.055-4.531c-0.029-3.956-0.069-9.644-0.119-16.663
				c-0.057-14.088-0.136-33.522-0.222-54.99c-0.009-2.682-0.016-5.336-0.021-7.949c-0.03-2.611,0.047-5.19-0.113-7.717
				c-0.218-5.057-0.429-9.936-0.629-14.582c-0.393-9.289-0.745-17.658-1.042-24.694c-0.279-7.016-0.506-12.697-0.664-16.651
				c-0.067-1.95-0.121-3.472-0.158-4.527c-0.012-0.503-0.022-0.895-0.029-1.179C304.154,278.152,304.162,278.015,304.162,278.015z"
				/>
		</g>
		<g>
			<path fill="#455A64" d="M303.509,253.404c0.031-0.004,0.094,0.299,0.182,0.848c0.088,0.551,0.194,1.349,0.308,2.337
				c0.228,1.976,0.468,4.716,0.606,7.749c0.135,3.035,0.143,5.784,0.094,7.773c-0.023,0.994-0.058,1.799-0.096,2.354
				c-0.038,0.557-0.074,0.862-0.105,0.861c-0.063-0.001-0.081-1.231-0.113-3.217c-0.031-1.984-0.089-4.727-0.224-7.752
				c-0.138-3.024-0.327-5.759-0.476-7.738C303.539,254.637,303.446,253.412,303.509,253.404z"/>
		</g>
		<g>
			<path fill="#455A64" d="M297.767,255.163c0.046,0.056-0.443,0.277-0.577,0.974c-0.063,0.332,0.007,0.757,0.331,1.041
				c0.307,0.288,0.847,0.432,1.281,0.234c0.433-0.2,0.676-0.703,0.66-1.124c-0.004-0.432-0.278-0.761-0.571-0.931
				c-0.614-0.353-1.103-0.127-1.115-0.198c-0.013-0.023,0.083-0.112,0.303-0.178c0.216-0.063,0.571-0.078,0.958,0.097
				c0.376,0.159,0.803,0.591,0.836,1.188c0.042,0.57-0.248,1.245-0.885,1.55c-0.647,0.283-1.348,0.062-1.751-0.343
				c-0.433-0.416-0.479-1.02-0.354-1.409c0.119-0.407,0.362-0.666,0.554-0.789C297.628,255.151,297.758,255.137,297.767,255.163z"/>
		</g>
		<g>
			<path fill="#455A64" d="M284.095,253.615c0.023-0.005,0.13,0.279,0.234,0.817c0.107,0.538,0.173,1.34,0.075,2.321
				c-0.095,0.982-0.391,2.142-0.986,3.312c-0.591,1.166-1.51,2.329-2.741,3.227c-1.243,0.88-2.64,1.379-3.935,1.565
				c-1.299,0.189-2.492,0.101-3.452-0.124c-0.962-0.223-1.7-0.541-2.176-0.813c-0.477-0.272-0.713-0.463-0.698-0.484
				c0.041-0.087,1.05,0.637,2.937,0.989c1.842,0.368,4.682,0.201,7.064-1.493c2.368-1.718,3.436-4.354,3.676-6.215
				C284.362,254.814,283.999,253.626,284.095,253.615z"/>
		</g>
		<g>
			<path fill="#455A64" d="M317.617,261.094c0.001,0.043-0.646,0.092-1.641-0.194c-0.991-0.278-2.294-0.978-3.363-2.15
				c-1.066-1.179-1.636-2.544-1.816-3.556c-0.188-1.018-0.078-1.657-0.035-1.652c0.079-0.001,0.083,0.628,0.342,1.582
				c0.252,0.95,0.83,2.21,1.839,3.327c1.014,1.11,2.212,1.81,3.136,2.151C316.999,260.95,317.626,261.016,317.617,261.094z"/>
		</g>
		<g>
			<path fill="#455A64" d="M327.793,345.251c0.031,0.038-0.492,0.561-1.509,1.202c-0.511,0.31-1.156,0.65-1.944,0.85
				c-0.78,0.202-1.724,0.228-2.623-0.069c-1.818-0.602-2.954-1.968-3.649-2.905c-0.695-0.968-1.046-1.611-1.002-1.646
				c0.056-0.04,0.502,0.547,1.249,1.451c0.747,0.878,1.874,2.131,3.538,2.675c1.672,0.559,3.273-0.098,4.275-0.629
				C327.156,345.628,327.751,345.191,327.793,345.251z"/>
		</g>
		<g>
			
				<ellipse transform="matrix(0.5796 0.8149 -0.8149 0.5796 416.5566 -113.9964)" fill="#455A64" cx="318.756" cy="346.7" rx="4.34" ry="0.221"/>
		</g>
		<g>
			
				<ellipse transform="matrix(0.3715 0.9284 -0.9284 0.3715 433.9294 -81.2998)" fill="#FAFAFA" cx="277.015" cy="279.863" rx="1.272" ry="0.221"/>
		</g>
		<g>
			<ellipse fill="#FAFAFA" cx="294.031" cy="282.462" rx="0.223" ry="0.945"/>
		</g>
		<g>
			
				<ellipse transform="matrix(0.0676 0.9977 -0.9977 0.0676 558.2805 -14.9759)" fill="#FAFAFA" cx="287.153" cy="291.209" rx="1.184" ry="0.222"/>
		</g>
		<g>
			<path fill="#FAFAFA" d="M274.811,299.004c-0.102,0.075-0.455-0.238-0.912-0.567c-0.454-0.333-0.861-0.572-0.821-0.692
				c0.032-0.115,0.565-0.046,1.082,0.332C274.68,298.453,274.908,298.937,274.811,299.004z"/>
		</g>
		<g>
			
				<ellipse transform="matrix(-0.5548 0.832 -0.832 -0.5548 717.1855 229.5393)" fill="#FAFAFA" cx="297.182" cy="306.646" rx="0.851" ry="0.223"/>
		</g>
		<g>
			<ellipse fill="#FAFAFA" cx="283.16" cy="308.143" rx="0.222" ry="1.577"/>
		</g>
		<g>
			
				<ellipse transform="matrix(0.809 0.5878 -0.5878 0.809 240.4028 -102.4872)" fill="#FAFAFA" cx="277.902" cy="318.672" rx="1.071" ry="0.223"/>
		</g>
		<g>
			<path fill="#FAFAFA" d="M292.455,322.638c0.05,0.111-0.227,0.343-0.619,0.516c-0.39,0.176-0.748,0.228-0.798,0.112
				c-0.051-0.112,0.227-0.344,0.617-0.517C292.048,322.573,292.407,322.523,292.455,322.638z"/>
		</g>
		<g>
			
				<ellipse transform="matrix(0.4471 0.8945 -0.8945 0.4471 457.2577 -66.4395)" fill="#FAFAFA" cx="282.372" cy="336.658" rx="1.762" ry="0.223"/>
		</g>
		<g>
			
				<ellipse transform="matrix(-0.4704 0.8825 -0.8825 -0.4704 735.7054 229.738)" fill="#FAFAFA" cx="298.915" cy="335.634" rx="1.339" ry="0.224"/>
		</g>
		<g>
			<path fill="#FAFAFA" d="M291.667,350.048c-0.126-0.018-0.116-0.692-0.247-1.494c-0.122-0.804-0.34-1.441-0.225-1.498
				c0.103-0.059,0.527,0.548,0.665,1.43C292.002,349.365,291.784,350.073,291.667,350.048z"/>
		</g>
		<g>
			<path fill="#FAFAFA" d="M284.579,357.612c-0.092,0.083-0.518-0.239-0.954-0.719c-0.434-0.476-0.713-0.933-0.622-1.015
				s0.517,0.238,0.952,0.718C284.389,357.073,284.669,357.529,284.579,357.612z"/>
		</g>
		<g>
			
				<ellipse transform="matrix(-0.7017 0.7125 -0.7125 -0.7017 771.2213 396.3251)" fill="#FAFAFA" cx="302.645" cy="359.609" rx="1.225" ry="0.223"/>
		</g>
		<g>
			<path fill="#FAFAFA" d="M291.888,371.8c-0.121-0.019-0.123-0.669-0.004-1.453c0.12-0.788,0.313-1.407,0.435-1.391
				c0.121,0.02,0.124,0.67,0.004,1.455C292.205,371.198,292.01,371.817,291.888,371.8z"/>
		</g>
		<g>
			<path fill="#FAFAFA" d="M285.229,377.292c-0.106,0.062-0.479-0.379-0.834-0.983c-0.354-0.605-0.557-1.146-0.451-1.207
				c0.107-0.063,0.48,0.377,0.837,0.982C285.132,376.69,285.334,377.231,285.229,377.292z"/>
		</g>
		<g>
			
				<ellipse transform="matrix(0.8131 -0.5821 0.5821 0.8131 -168.0194 246.6758)" fill="#FAFAFA" cx="300.169" cy="385.016" rx="1.355" ry="0.223"/>
		</g>
		<g>
			<path fill="#FAFAFA" d="M287.91,393.225c-0.118-0.044,0.033-0.732,0.104-1.582c0.079-0.851,0.05-1.554,0.175-1.576
				c0.116-0.025,0.353,0.697,0.27,1.615C288.378,392.598,288.019,393.27,287.91,393.225z"/>
		</g>
		<g>
			
				<ellipse transform="matrix(0.6246 0.781 -0.781 0.6246 426.4152 -76.343)" fill="#FAFAFA" cx="292.613" cy="405.348" rx="1.008" ry="0.222"/>
		</g>
		<g>
			
				<ellipse transform="matrix(0.5665 0.8241 -0.8241 0.5665 464.9984 -56.8637)" fill="#FAFAFA" cx="286.547" cy="413.539" rx="1.53" ry="0.224"/>
		</g>
		<g>
			
				<ellipse transform="matrix(-0.3509 0.9364 -0.9364 -0.3509 787.9468 260.4013)" fill="#FAFAFA" cx="303.72" cy="403.299" rx="0.672" ry="0.222"/>
		</g>
		<g>
			<path fill="#FAFAFA" d="M296.393,424.568c-0.11-0.06,0.103-0.668,0.27-1.428c0.171-0.761,0.234-1.402,0.36-1.408
				c0.119-0.011,0.258,0.678,0.072,1.504C296.915,424.064,296.497,424.626,296.393,424.568z"/>
		</g>
		<g>
			<path fill="#FAFAFA" d="M301,292.527c-0.11,0.054-0.382-0.29-0.604-0.768c-0.224-0.475-0.313-0.903-0.203-0.955
				c0.112-0.053,0.383,0.291,0.605,0.767C301.022,292.049,301.113,292.475,301,292.527z"/>
		</g>
		<g>
			<path fill="#FAFAFA" d="M289.147,265.921c0.066,0.107-0.534,0.589-1.169,1.271c-0.643,0.678-1.083,1.31-1.194,1.249
				c-0.105-0.051,0.182-0.825,0.87-1.553C288.335,266.156,289.089,265.819,289.147,265.921z"/>
		</g>
		<g>
			<path fill="#FAFAFA" d="M299.703,265.606c-0.125,0.024-0.325-0.483-0.622-1.068c-0.29-0.588-0.575-1.054-0.48-1.137
				c0.087-0.082,0.557,0.29,0.878,0.938C299.804,264.985,299.82,265.585,299.703,265.606z"/>
		</g>
		<g>
			
				<ellipse transform="matrix(-0.368 0.9298 -0.9298 -0.368 619.5847 125.0818)" fill="#FAFAFA" cx="267.284" cy="273.103" rx="1.272" ry="0.222"/>
		</g>
		<g>
			
				<ellipse transform="matrix(0.7683 0.6401 -0.6401 0.7683 245.1794 -104.5024)" fill="#FAFAFA" cx="266.933" cy="286.401" rx="1.23" ry="0.221"/>
		</g>
		<g>
			
				<ellipse transform="matrix(0.3718 0.9283 -0.9283 0.3718 418.2677 -108.2945)" fill="#FAFAFA" cx="289.148" cy="254.893" rx="0.848" ry="0.224"/>
		</g>
		<g>
			
				<ellipse transform="matrix(-0.2138 0.9769 -0.9769 -0.2138 631.5831 13.4765)" fill="#FAFAFA" cx="310.369" cy="260.887" rx="1.128" ry="0.223"/>
		</g>
		<g>
			
				<ellipse transform="matrix(-0.3806 0.9247 -0.9247 -0.3806 685.6907 81.5473)" fill="#FAFAFA" cx="315.535" cy="270.411" rx="1.448" ry="0.221"/>
		</g>
		<g>
			
				<ellipse transform="matrix(0.4471 0.8945 -0.8945 0.4471 420.7053 -124.1907)" fill="#FAFAFA" cx="310.81" cy="278.21" rx="1.585" ry="0.222"/>
		</g>
		<g>
			
				<ellipse transform="matrix(-0.3593 0.9332 -0.9332 -0.3593 701.3987 91.4234)" fill="#FAFAFA" cx="319.316" cy="286.481" rx="1.097" ry="0.222"/>
		</g>
		<g>
			
				<ellipse transform="matrix(0.5296 0.8483 -0.8483 0.5296 396.6188 -125.9999)" fill="#FAFAFA" cx="311.912" cy="294.594" rx="0.743" ry="0.222"/>
		</g>
		<g>
			<path fill="#FAFAFA" d="M313.718,311.14c-0.09,0.086-0.622-0.342-1.188-0.951c-0.565-0.608-0.95-1.169-0.861-1.252
				c0.091-0.085,0.622,0.342,1.188,0.95C313.422,310.497,313.808,311.057,313.718,311.14z"/>
		</g>
		<g>
			
				<ellipse transform="matrix(-0.4285 0.9035 -0.9035 -0.4285 751.2958 151.3627)" fill="#FAFAFA" cx="327.779" cy="313.279" rx="1.48" ry="0.222"/>
		</g>
		<g>
			<path fill="#FAFAFA" d="M317.032,325c-0.107,0.065-0.505-0.41-1.055-0.912c-0.546-0.509-1.05-0.865-0.993-0.979
				c0.05-0.108,0.696,0.095,1.295,0.651C316.881,324.315,317.136,324.944,317.032,325z"/>
		</g>
		<g>
			<ellipse fill="#FAFAFA" cx="316.717" cy="335.713" rx="0.945" ry="0.223"/>
		</g>
		<g>
			<path fill="#FAFAFA" d="M328.061,332.718c-0.108-0.065,0.11-0.598,0.273-1.27c0.173-0.67,0.229-1.24,0.356-1.25
				c0.117-0.013,0.266,0.611,0.077,1.359C328.583,332.305,328.16,332.787,328.061,332.718z"/>
		</g>
		<g>
			
				<ellipse transform="matrix(0.3311 0.9436 -0.9436 0.3311 542.0337 -94.8206)" fill="#FAFAFA" cx="337.896" cy="334.901" rx="1.494" ry="0.222"/>
		</g>
		<g>
			
				<ellipse transform="matrix(-0.4646 0.8855 -0.8855 -0.4646 803.8358 212.9768)" fill="#FAFAFA" cx="337.53" cy="349.508" rx="1.692" ry="0.223"/>
		</g>
		<g>
			
				<ellipse transform="matrix(0.3798 0.9251 -0.9251 0.3798 534.0137 -80.0894)" fill="#FAFAFA" cx="326.739" cy="358.234" rx="1.521" ry="0.223"/>
		</g>
		<g>
			<path fill="#FAFAFA" d="M316.875,362.969c0,0.123-0.353,0.221-0.788,0.221c-0.435,0-0.787-0.098-0.787-0.221
				c0-0.125,0.353-0.224,0.787-0.224C316.522,362.746,316.875,362.844,316.875,362.969z"/>
		</g>
		<g>
			
				<ellipse transform="matrix(0.2572 0.9664 -0.9664 0.2572 602.4624 -32.7694)" fill="#FAFAFA" cx="322.546" cy="375.493" rx="1.223" ry="0.222"/>
		</g>
		<g>
			
				<ellipse transform="matrix(-0.5142 0.8577 -0.8577 -0.5142 796.6075 291.4114)" fill="#FAFAFA" cx="315.771" cy="371.317" rx="0.918" ry="0.221"/>
		</g>
		<g>
			
				<ellipse transform="matrix(0.1166 0.9932 -0.9932 0.1166 661.5192 28.0642)" fill="#FAFAFA" cx="314.984" cy="385.891" rx="1.349" ry="0.223"/>
		</g>
	</g>
</g>
</svg>
