<?xml version="1.0" encoding="utf-8"?>
<!-- Generator: Adobe Illustrator 23.0.3, SVG Export Plug-In . SVG Version: 6.00 Build 0)  -->
<svg version="1.1" id="Layer_1" xmlns="http://www.w3.org/2000/svg" xmlns:xlink="http://www.w3.org/1999/xlink" x="0px" y="0px"
	 viewBox="0 0 346 200" style="enable-background:new 0 0 346 200;" xml:space="preserve">
<style type="text/css">
	.st0{fill:#606E79;}
	.st1{fill:#561D10;}
	.st2{fill:#FFA47C;}
	.st3{fill:#4F2718;}
	.st4{fill:#FFBD95;}
	.st5{fill:#8D3B26;}
	.st6{fill:#002D56;}
	.st7{fill:#00233F;}
	.st8{fill:#99A2A9;}
	.st9{fill:#6D361A;}
	.st10{fill:#191919;}
	.st11{fill:#74A940;}
	.st12{fill:#88BD4F;}
	.st13{fill:#303030;}
	.st14{fill:#B8D1FF;}
	.st15{fill:#CEE0FF;}
	.st16{fill:#3B1B1D;}
	.st17{fill:#722C1D;}
	.st18{fill:#E0F2FF;}
	.st19{fill:#E8E2D6;}
	.st20{fill:#90A4A2;}
	.st21{fill:#4B5B60;}
	.st22{fill:#C9DAD8;}
	.st23{fill:#424249;}
	.st24{fill:#79858E;}
	.st25{fill:#B9B9BD;}
	.st26{fill:#8E8E8E;}
	.st27{opacity:0.5;fill:#757575;}
	.st28{fill:#757575;}
</style>
<g>
	<g>
		<polygon class="st0" points="167.73,72.9 140.22,102.99 143.85,41.73 166.37,35.06 		"/>
		<path class="st1" d="M167.14,28.96c0,0-2.61-1.91-8.31-2.53c-5.7-0.62-8.6,0.38-8.6,0.38l-0.75-9.26l2.16-8.99l13.2,2.27
			l2.32,9.76V28.96z"/>
		<g>
			<path class="st2" d="M150.85,165.58c-0.09,1.68-1.13,3.21-1.55,4.04c-0.5,1-0.38,2.68,0.11,3.14c1.33,1.25,2.86,0.79,4.47,1.79
				c1.6,1,4.03,4.6,5.39,4.93c1.36,0.33,4.45,0.19,4.64-0.45c0.19-0.65-3.05-3.02-3.05-3.02c-4.87-5.98-5.42-9.09-5.42-9.09
				S150.86,165.33,150.85,165.58z"/>
			<path class="st3" d="M160.86,176.02c0,0,0.93,0.78,0.78,1.02c-0.21,0.35-1.61,0.22-1.98,0.03c-3.29-1.66-7.69-5.27-8.6-6.39
				c-0.95-1.16-1.07-2.43-1.07-2.43c-0.28,0.02-1.43,1.88-1.14,3.29c0.07,0.31,0.42,1.08,0.57,1.22c0.75,0.7,3.29,1.92,3.99,2.36
				c1.61,1,3.84,4.61,5.2,4.94c1.36,0.33,5.95,0.25,6.14-0.4C164.89,179.15,162.38,177.07,160.86,176.02z"/>
			<path class="st3" d="M148.81,171.28c0,0,0.96,2.59,1.25,3.46c0.43,1.31,0.72,4.13,0.72,4.13l0.59-0.04c0,0-0.78-5.31,2.03-3.71
				C154.28,175.61,148.81,171.28,148.81,171.28z"/>
		</g>
		<path class="st2" d="M162.48,127.75c-4.55,2.35-8.05,11.05-8.91,14.54c-0.86,3.49-2.45,23.17-2.92,24.4
			c-0.46,1.21,4.52,1.24,4.7,0.53c1.75-7.04,9.28-24.74,10.12-26.46c0.84-1.72,4.32-9.68,4.58-10.49
			C171.4,126.09,165.09,126.41,162.48,127.75z"/>
		<g>
			<path class="st2" d="M189.08,94.95c0,0,0.15,1.9,0.03,2.37c-0.12,0.47-0.44,1.07-0.65,1.52c-0.21,0.45-0.15,1.22-0.04,1.32
				c0.34,0.27,0.77-0.33,0.94-0.7c0.17-0.37,0.57-1.21,0.69-1.77c0.12-0.56,0.48-1.92,0.38-2.34
				C190.33,94.93,189.08,94.95,189.08,94.95z"/>
			<path class="st2" d="M189.18,94.36c0,0-0.38,1.73-0.62,2.12c-0.23,0.38-0.54,0.43-0.99,0.75c-0.37,0.27-0.79,0.76-0.7,1.16
				c0.08,0.39,0.7,0.05,1.04-0.12c0.43-0.22,1.13-0.74,1.39-1.2c0.26-0.47,0.94-1.58,0.97-1.98
				C190.3,94.68,189.18,94.36,189.18,94.36z"/>
			<path class="st2" d="M189.11,94.1c0,0-0.57,1.38-0.82,1.66c-0.25,0.28-0.51,0.28-0.93,0.47c-0.35,0.16-0.77,0.51-0.76,0.85
				c0.01,0.34,0.58,0.15,0.88,0.06c0.39-0.11,1.05-0.44,1.33-0.79c0.28-0.35,1.02-1.17,1.1-1.49C190,94.54,189.11,94.1,189.11,94.1z
				"/>
			<path class="st4" d="M185.19,98.33c0.17,0.21,0.75-0.13,1.09-0.59c0.37-0.5,0.43-1.64,0.31-2.23c-0.12-0.57-0.05-1.44,0.37-1.52
				c0.42-0.08,1.94,0.61,2.17,1.07c0.39,0.75,1.04,1.73,1.04,2.29c0,0.56-0.39,1.61-0.55,2.09c-0.16,0.48-0.41,1.13-0.32,1.52
				c0.08,0.39,0.29,0.45,0.5,0.5c0.21,0.06,0.32-0.78,0.74-1.41c0.43-0.63,1.16-2.27,1.19-2.41c0.04-0.14-0.35-2.52-0.5-3.23
				c-0.15-0.71-2.47-3.64-2.43-3.93c0.03-0.29-2.25-5.23-2.25-5.23l-3.94,0.99c0,0,2.17,3.44,2.18,4.08
				c0.02,0.64-0.18,1.44-0.3,2.15c-0.2,1.23,0.43,2.73,0.6,3.33C185.39,96.85,184.93,97.99,185.19,98.33z"/>
		</g>
		<path class="st5" d="M145.81,163.6c0,0,0.32,2.39-0.31,3.75c-0.63,1.36-2.97,4.2-4.08,3.88c-1.12-0.32-2.32-3.46-2.46-3.96
			c-0.84-3.1,1.06-8.04,1.06-8.04L145.81,163.6z"/>
		<path class="st2" d="M168.15,36.34c2.41-0.31,5.14,6.91,6,14.88c1.5,13.85,4.01,18.13-0.2,19.07c-3.82,0.86-4.68-4.76-7.55-16.37
			C164.16,44.84,163.16,36.99,168.15,36.34z"/>
		<path class="st4" d="M136.62,32.8c1.24-1.85,7.15-1.89,9.37-2.14c2.26-0.26,8.66,0.64,8.66,0.64s6.32,1.34,8.36,2.36
			c1.99,1,7.53,3.06,8.07,5.22c0.81,3.26-11.46,18.36-7.35,28.98c1.36,3.53,9.36,12.85,9.4,16.63c0.04,4.62-13.6,11.15-13.6,11.15
			l-0.84,0.23l-0.84,0.23c0,0-15.08,1.17-17.35-2.85c-1.86-3.29,1.89-19.7,1.42-24.24C140.71,57.32,134.74,35.59,136.62,32.8z"/>
		<path class="st2" d="M173.14,85.3c1.92,2.94,2.26,8.48,1.98,15.74c-0.39,9.9-3.76,24.57-4.05,25.99c-1.33,6.49-7.65,6.71-9,1.73
			c-0.37-1.37-3.64-29.21-3.53-32.37c0.11-3.16,0.02-8.93,2.02-12.59C162.04,81.09,170.27,80.92,173.14,85.3z"/>
		<path class="st4" d="M150.62,27.22c0.94-1.56,1.99-7.89,1.99-7.89l4.02,0.71l4.02,0.71c0,0-1.18,6.31-0.83,8.1
			c0.35,1.79,3.18,4.82,3.18,4.82l-8.51-1.5l-8.51-1.5C145.98,30.66,149.68,28.78,150.62,27.22z"/>
		<path class="st4" d="M172.62,64.68c2.1-0.75,6.18,1.72,8.97,8.26c3.21,7.54,7.99,18.26,6.2,19.11c-0.84,0.4-1.94-0.27-2.73-1.87
			c-1.66-3.36-6.1-8.13-9.29-12.42C170.86,71.14,168.59,66.12,172.62,64.68z"/>
		<path class="st2" d="M150.62,27.22c0,0,1.14-3.61,1.14-3.61c0.27-1.17,0.5-2.35,0.65-3.18l0-0.01l3.86-0.45l0.35,0.06l4.02,0.71
			c0,0-1.18,6.31-0.83,8.1c0.35,1.79,3.18,4.82,3.18,4.82s-5.28-2.34-6.25-2.89C155.79,30.21,150.62,27.22,150.62,27.22z"/>
		<path class="st4" d="M166.14,16.48c-1.12,6.31-7.44,10.47-10.66,9.9c-3.14-0.56-6.47-6.47-5.95-12.95
			c0.52-6.39,5.06-9.81,9.83-8.97C164.13,5.31,167.26,10.16,166.14,16.48z"/>
		<path class="st5" d="M154.49,8.77c0.66,1.79,2.4,2.89,6.25,3.27c2.75,0.27,4.47,4.13,4.41,5.64c-0.02,0.58,1.99,11.28,1.99,11.28
			s3.3-13.53-1.89-20.91c-5.19-7.39-11.75-3.36-11.82-2.8C153.38,5.82,154.17,7.91,154.49,8.77z"/>
		<path class="st5" d="M156.09,7.32c0,0-0.03,2.69-2.31,3.15c-4.31,0.86-3.56,16.35-3.56,16.35s-4.64-19.41,3.21-21.56
			C157.92,4.02,156.09,7.32,156.09,7.32z"/>
		<path class="st4" d="M146.52,157.06c0,0-0.62,6.86-0.92,7.58c-0.3,0.72-2.21,3.17-3.23,2.76c-2.85-1.17-3-7.06-2.16-8.73
			c0.49-0.97,0.96-2.01,1.33-2.68c1.02-1.81,1.89-2.59,1.89-2.59L146.52,157.06z"/>
		<path class="st4" d="M163.39,124.06c2.68,2.41,2.81,4.69-1.1,11.29c-3.91,6.6-15.92,23.28-16.73,22.73
			c-0.81-0.55-3.86-2.99-2.3-4.91c1.06-1.3,1.24-3.78,2.67-7.61c2.46-6.58,5.76-14.86,6.56-16.21
			C153.76,127.2,159.1,120.19,163.39,124.06z"/>
		<path class="st4" d="M140.14,89.44c-0.76,3.43,0.86,8.74,3.68,15.43c3.84,9.13,12.15,21.69,12.92,22.92
			c3.53,5.61,9.52,3.59,9.03-1.54c-0.14-1.41-6.85-28.63-8.06-31.55c-1.21-2.92-3.15-8.36-6.31-11.08
			C149.05,81.6,141.28,84.33,140.14,89.44z"/>
		<g>
			<path class="st6" d="M166.37,35.06l-0.03,15.18c0,0-3.54,10.45-2.19,15.61c1.35,5.15,7.03,11.02,10.28,18.17
				c3.25,7.15,0,30.55,0,30.55s-8.69,2.78-11.42-0.06c-2.73-2.84-6.95-1.87-8.51-0.71c-1.56,1.16-5.51,5.03-5.51,5.03
				s-7.89-12.71-9.56-24.6c-1.33-9.5,2.22-21.41,1.52-26.25c-0.7-4.84-3.58-24.36-3.58-24.36s4.1,0.41,8.56,0.63
				c1.34,0.07-2.62-12.53-1.32-12.51c3.18,0.03,4.26,13.67,12.21,11.88c5.91-1.33,5.77-10.42,5.77-10.42L166.37,35.06z"/>
			<path class="st7" d="M143.88,54.43c1.74-1.16,12.61,2.47,16.92,1.59c3.43-0.69,4.89-3.93,5.34-5.23c-0.7,2.22-3.17,10.59-2,15.04
				c1.35,5.15,7.03,11.02,10.28,18.17c3.25,7.15,0,30.55,0,30.55s-8.69,2.78-11.42-0.06c-0.05-0.05-0.1-0.08-0.15-0.13l-4.94-14.56
				c0,0,8,2.32,7.88-4.64c-0.12-6.96-6.98-22.62-8.99-26.68C154.81,64.44,142.14,55.59,143.88,54.43z"/>
		</g>
		<path class="st8" d="M145.98,30.66c0,0,2.16,5.96,2.88,10.07c0.72,4.11-6.64,37.58-7.86,44.53c-1.22,6.95-0.78,17.73-0.78,17.73
			l-4.14-4.03c0,0,2.89-18.04,2.82-27.96s-4.06-34.16-3.3-37.35C136.36,30.47,145.98,30.66,145.98,30.66z"/>
		<path class="st8" d="M163.76,33.66c0,0,1.96,15.49,1.73,19.4s2.24,19.84,2.24,19.84s4.13-31.76,3.75-33.8
			C170.95,36.28,163.76,33.66,163.76,33.66z"/>
		<path class="st2" d="M137.64,32.1c2.1-0.77,4.95,3.95,6.21,9.63c2.18,9.89,4.66,12.48,1.02,14.13c-3.31,1.5-4.41-2.46-7.66-10.39
			C134.67,39.27,133.3,33.7,137.64,32.1z"/>
		<path class="st2" d="M141.3,54.65c-1.37-1.69,2.12-6.77,8.72-11c7.6-4.88,18.39-12.01,19.52-10.45
			c1.54,2.14-7.33,8.83-13.66,15.09C149.45,54.64,144.13,58.16,141.3,54.65z"/>
		<path class="st2" d="M164.43,35.41c0,0,1.32-0.94,1.07-3.35c-0.25-2.4,1.3-4.07,1.55-4.36c0.26-0.29,1.93-2.35,2.18-2.42
			c0.72-0.19,0.47,0.68,0.68,0.61c0.21-0.07,0.96-0.31,1.03,0.41c0.07,0.75,0.26,0.59,0.51,0.69c0.25,0.09,0.37,0.7,0.23,1.01
			c-0.13,0.28,0.27,0.45,0.26,0.85c0,0.19-0.14,0.73-0.56,1.17c-0.7,0.74-1.08,1.62-1.09,3.11c-0.01,1.5-0.16,3.9-2.51,4.48
			C165.41,38.21,164.43,35.41,164.43,35.41z"/>
	</g>
	<g>
		<path class="st9" d="M207.72,5.93c0,0,1.16-4.89,6.03-4.7c4.16,0.16,7.48,4.03,5.95,9.94c-1.69,6.54-0.54,12,0.09,11.89
			c0.62-0.11,0.45,1.59-0.94,1.9c-1.39,0.31-5.66,0.22-6.04-4.38c-0.38-4.6-2.71-7.38-2.71-7.38L207.72,5.93z"/>
		<path class="st5" d="M210.57,168.1c0,0,1.09,0.45,1.15,1.63c0.04,0.89,0.13,6.46,0.13,6.46s-1.21,0.4-2.59,1.64
			c-1.15,1.03-2.2,3.28-3.76,3.92c-1.91,0.79-4.11,0.85-4.97,0.5c-0.7-0.29-0.46-1.87,0.56-3.49c1.53-2.45,3.38-5.42,3.38-5.42
			L210.57,168.1z"/>
		<path class="st4" d="M205.42,167.09c0,0-0.12,1.49-0.57,3.31c-0.6,2.45-1.62,5.51-2.19,6.62c-0.72,1.41-0.6,2.45,1.63,1.8
			c2.23-0.65,5.78-6.38,6.45-8.79c0.3-1.09-0.35-2.24-0.49-2.94C209.95,165.43,205.42,167.09,205.42,167.09z"/>
		<path class="st5" d="M234.3,175.51c0,0,1.34,1.94,1.44,3.44c0.09,1.5-0.55,5.11-1.62,5.37c-1.07,0.26-3.49-1.93-3.82-2.3
			c-2.1-2.32-2.76-7.56-2.76-7.56L234.3,175.51z"/>
		<path class="st4" d="M231.93,169.43c0,0,2.59,6.32,2.67,7.1c0.08,0.78-0.39,3.85-1.43,3.97c-2.88,0.34-5.67-4.76-5.72-6.62
			c-0.06-1.87-0.15-3.89-0.15-3.89L231.93,169.43z"/>
		<path class="st10" d="M200.84,33.26c-1.97-1.37-7.64,3.73-12.01,10.32c-7.59,11.45-11.74,14.06-8.48,16.8
			c2.96,2.49,6.26-2.04,14.04-10.92C200.47,42.52,204.91,36.09,200.84,33.26z"/>
		<path class="st6" d="M197.53,79.55c-1.12,2.93-1.98,5.66-1.59,7.17c1.14,4.42,14.19,8.16,14.19,8.16h0.86V80.56
			C205.96,80.56,202.55,79.55,197.53,79.55z"/>
		<path class="st6" d="M196.55,84.05c-1.67,3.04-1.59,8.52-0.76,15.64c1.13,9.71,4.32,25.17,4.71,26.55
			c1.8,6.29,7.99,6.02,8.94,1.03c0.26-1.38,2.38-29.28,2.03-32.38c-0.34-3.1-2.04-8.79-4.28-12.23
			C205.53,80.09,199.03,79.52,196.55,84.05z"/>
		<path class="st4" d="M227.12,35.86c-0.89-2.01-5.5-2.89-7.61-3.52c-2.15-0.64-8.53-0.86-8.53-0.86s-10.08,1.01-12.27,0.93
			c-0.92-0.03-1.6,3.29-1.96,4.24c-2,5.32-4.37,11.52,0.63,15.84c1.14,0.99,2.14,12.22,2.14,17.42c0,2.17-0.44,5.6-2,9.65
			c5.03,0,8.43,1.01,13.46,1.01c5.03,0,10.05,0,15.08,0c-1.55-4.05-3.23-8.53-3.62-10.66C219.51,53.89,228.46,38.89,227.12,35.86z"
			/>
		<path class="st6" d="M210.98,133.31c-0.26-9.65-2.93-11.54-6.38-11.54c-5.52,0-4.6,10.3-4.51,13.44
			c0.08,3.06,4.26,27.93,5.33,31.88c1.63,0,3.25,0,4.84,0C210.9,160.34,211.19,141.21,210.98,133.31z"/>
		<path class="st11" d="M198,32.25c3.35-0.02,5.29,2.14,3.82,7.72c-1.47,5.58-7.22,12.18-7.22,12.18l-8.53-7.14
			C186.08,45.01,194.84,32.27,198,32.25z"/>
		<path class="st4" d="M215.59,28.21c-0.65-1.68-0.58-8.01-0.58-8.01h-4.03h-4.03c0,0,0.06,6.33-0.58,8.01
			c-0.65,1.68-3.92,4.14-3.92,4.14h8.53h8.53C219.51,32.34,216.24,29.89,215.59,28.21z"/>
		<path class="st12" d="M227.12,35.86c-0.89-2.01-6.56-3.75-8.67-4.38c0,0-4.13,5.38-11.36,4.63c-2.36-0.25-4.63-3.77-4.63-3.77
			c-1.24-0.05-2.85,0.1-3.74,0.07c-0.92-0.03-1.6,3.29-1.96,4.24c-2,5.32-4.37,11.52,0.63,15.84c1.14,0.99,2.14,12.22,2.14,17.42
			c0,2.17-0.44,5.6-2,9.65c5.03,0,8.43,1.01,13.46,1.01c5.03,0,10.05,0,15.08,0c-1.55-4.05-3.23-8.53-3.62-10.66
			C219.51,53.89,228.46,38.89,227.12,35.86z"/>
		<path class="st7" d="M232.08,169.45c0.05-3.38-3.18-30-3.99-33.22c-0.81-3.22-2.34-15.37-9.99-12.95
			c-3.3,1.04-3.98,3.45-1.49,13.36c2.03,8.06,8.03,27.05,10.71,33.8C228.89,170.3,232.08,169.67,232.08,169.45z"/>
		<path class="st6" d="M210.98,80.56v14.32h0.86c0,0,14.67-2.73,15.81-7.15c0.39-1.52-0.47-4.24-1.59-7.17
			C221.04,80.56,216.01,80.56,210.98,80.56z"/>
		<path class="st6" d="M226.79,84.11c1.85,2.93,2.11,8.4,1.71,15.56c-0.54,9.76-2.92,24.22-3.23,25.62
			c-1.41,6.39-8.81,6.47-10.06,1.54c-0.34-1.36-3.15-28.87-3-31.99c0.15-3.12,0.15-8.81,2.18-12.39
			C215.91,79.79,224.03,79.74,226.79,84.11z"/>
		<path class="st2" d="M215.05,23.33c-0.05-1.69-0.04-3.13-0.04-3.13h-4.03h-4.03c0,0,0.06,6.33-0.58,8.01
			c-0.65,1.68-3.92,4.14-3.92,4.14L215.05,23.33L215.05,23.33z"/>
		<path class="st4" d="M216.81,15.37c0.09,6.33-5.27,11.53-8.5,11.57c-3.14,0.04-7.47-5.07-8.16-11.45
			c-0.68-6.29,3.08-10.45,7.87-10.51C212.79,4.91,216.73,9.04,216.81,15.37z"/>
		<path class="st5" d="M205.94,9.99c0.97,1.61,3.17,2.07,6.97,1.73c2.72-0.25,3.42,2.54,3.64,4.02c0.09,0.57-0.22,3-0.22,3
			s4.04-5.41-1.58-12.32c-3.91-4.8-9.52-1.6-10.48-0.57C203.88,6.26,205.47,9.21,205.94,9.99z"/>
		<path class="st5" d="M206.92,8.04c-0.08,0.96-0.94,3.39-3.2,3.79c-3.63,0.63-3.49,4.31-3.49,4.31s-4.01-7.73,2.04-10.38
			C206.13,4.06,206.99,7.17,206.92,8.04z"/>
		<path class="st11" d="M216.75,53.29c-4.06,1.61-7.99-0.82-11.27-0.57c-6.89,0.52-9.24-3.38-10.26-4.9
			c-0.99-1.47-0.06-6.43-0.01-6.71c-1.19,4.08-1.46,8.22,2.18,11.37c1.14,0.99,2.14,12.22,2.14,17.42c0,2.17-0.44,5.6-2,9.65
			c3.19,0,5.72,0.41,8.43,0.7c0,0-0.44-3.78-0.89-5.72c-0.45-1.94,0-7.61,1.65-10.82c1.65-3.21,11.34-5.23,12.28-6.18
			C221.7,54.81,223.39,50.67,216.75,53.29z"/>
		<path class="st7" d="M217.69,129.49c-0.52-3.49-1.31-19.19-2.36-27.75c-0.78-6.31-2.34-7.02-3.11-6.96c0,0.02,0,0.05,0,0.07
			c-0.14,3.09,2.29,28.72,2.89,33.31c0.05,1.95,0.54,4.66,1.5,8.48c2.03,8.06,8.03,27.05,10.71,33.8c0.4-0.04,1.8-0.13,2.33-0.21
			l1.09-0.35c0,0-6.32-21.83-9.84-32.5C219.99,134.59,218.08,132.12,217.69,129.49z"/>
		<path class="st7" d="M198.4,88.91c-0.26-3.95,4.75-7.49,7.02-8.71c-3.18-0.2-7.9-0.64-7.9-0.64c-3.12,4.63-2.57,13.02-1.74,20.14
			c1.11,9.58,4.22,24.72,4.69,26.46c-0.74,3.2-0.43,7.28-0.38,9.06c0.08,3.06,4.26,27.93,5.33,31.88l-3.15-39.23
			C202.27,127.85,198.76,94.36,198.4,88.91z"/>
		<g>
			<path class="st2" d="M182.58,60.63c-2.03,0.82-5.33-2.68-6.71-8.48c-1.6-6.68-4.06-16.2-2.23-16.85
				c2.5-0.89,5.26,7.07,8.58,12.96C185.57,54.24,186.78,58.94,182.58,60.63z"/>
		</g>
		<path class="st4" d="M235.16,63.69c2.11,0.45,2.77,6.09,0.58,12.86c-2.53,7.8-5.98,19.04-7.83,18.54
			c-2.52-0.68-0.21-10.51,0.48-18.6C229.09,68.3,230.8,62.75,235.16,63.69z"/>
		<path class="st13" d="M221.98,34.68c2.53-0.99,6.93,5.9,9.45,14.08c4.39,14.22,7.96,18.05,3.62,20.2
			c-3.94,1.95-5.99-3.74-11.41-15.23C219.4,44.74,216.74,36.73,221.98,34.68z"/>
		<path class="st2" d="M176.27,40.59c0,0,0.22-2.19,0.74-2.82c0.52-0.64,1.68-3.15,1.49-4.49c-0.19-1.34,0.54-3.6,0.72-3.98
			c0.18-0.38-0.63-0.53-1.21,0.03c-0.58,0.56-0.74,3.35-1.18,3.4c-0.44,0.05-1.57-7.58-2.14-7.65c-0.86-0.11,0.1,5.14-0.22,5.24
			c-0.69,0.21-1.36-5.25-2.06-5.25c-0.91,0,0.54,5.68,0.2,5.73c-0.34,0.05-2.25-4.66-2.91-4.43c-0.82,0.29,1.75,4.84,1.32,5.02
			c-0.26,0.11-2.24-2.38-2.64-1.98c-0.24,0.24,1.77,3.02,2.05,3.52c0.28,0.5,1.73,4.94,2.3,5.15c0.58,0.21,1.32,2.25,1.32,2.25
			L176.27,40.59z"/>
		<g>
			<path class="st10" d="M182.58,60.63c-2.03,0.82-4.94-0.96-7.04-8.29c-1.9-6.6-2.46-11.98-2.56-12.76c-0.13-1,4.26-1.48,4.96-0.08
				c1.82,3.65,2.89,5.19,4.91,9.21C186.03,55.07,186.78,58.94,182.58,60.63z"/>
		</g>
		<path class="st13" d="M235.16,63.69c2.11,0.45,3.04,5.99,0.84,12.76c-1.83,5.65-3.55,11.29-4.53,13.69
			c-0.44,1.09-4.88-0.42-4.86-0.98c0.1-2.26,0.66-4.5,1.35-12.6C228.66,68.37,230.8,62.75,235.16,63.69z"/>
		<path class="st12" d="M218.2,36.21c1.4-3.05,5.27-4.33,8.87,0.18c3.61,4.51,4.89,14.08,4.89,14.08l-10.82,2.59
			C221.13,53.06,215.35,42.42,218.2,36.21z"/>
		<path class="st4" d="M226.9,91.03c0,0-1.32,1.05-1.49,1.25c-0.17,0.21-1.36,2.13-1.95,2.51c-0.59,0.38-1.04,0.43-1.13,0.55
			c-0.09,0.12-0.07,1.46,1.04,1.04c1.12-0.42,2.03-1.38,2.39-1.34c0.36,0.04,0.41,2.59,0.2,3.11c-0.2,0.53-1.98,3.83-2.05,4
			c-0.07,0.17-0.19,0.67-0.06,0.79c0.13,0.13,1.03-0.09,1.2-0.23c0.17-0.14,0.3,0.31,0.5,0.27c0.2-0.04,0.9-0.27,0.9-0.27
			s0.85-0.06,1.14-0.27c0.3-0.21,1.54-1.25,1.63-1.42c0.09-0.17,1.8-3.08,1.9-3.85c0.1-0.77-0.64-5.76-0.64-5.76L226.9,91.03z"/>
	</g>
	<g>
		<path class="st4" d="M238.56,48.29c0.07,4.19-3.37,5.5-7.5,5.31c-4.13-0.2-25.01-5.57-25.8-6.65c-0.79-1.08-0.1-7.09,1.71-7.73
			c1.81-0.64,20.26,1.22,23.62,1.97C233.95,41.95,238.48,43.37,238.56,48.29z"/>
		<path class="st14" d="M237.41,44.73c-0.91-1.31-3.58-4.15-9.99-4.88c-4.28-0.49-12.48-1.22-12.48-1.22s-1.78,2.73-2.02,6.53
			c-0.28,4.41,1.28,7.12,1.28,7.12s17.09,1.94,20.34,0.6C235.5,52.48,239.93,48.38,237.41,44.73z"/>
		<path class="st4" d="M211.73,45.72c-1.28,4.38-10.1,0.96-14.32-0.92c-4.22-1.89-16.54-9.55-16.54-9.55l2.07-3.05
			c0,0,12.51,1.02,24.41,5.6C208.58,38.26,213.03,41.26,211.73,45.72z"/>
		<path class="st10" d="M269.64,188.92c0,0-2.9,5.35-2.44,6.5c0.26,0.65,2.42,2.77,5.42,2.31c2.28-0.35,5.52-3.19,6.08-3.37
			c1.3-0.42-0.24-7.55-0.24-7.55L269.64,188.92z"/>
		<path class="st4" d="M241.99,21.95c0,0,3.72,11.7,4.56,12.09c2.62,1.21,10.81,0.61,13.1,3.32c2.78,3.29-2.74,25.48-2.49,31.41
			c0.25,5.93,5.58,15.95,6.46,21.63c0.89,5.68-16.95,12.59-17.61,12.59c-0.66,0-6.42-5.36-7.51-7.21
			c-1.1-1.85,0.33-13.48-0.64-17.06c-0.97-3.58-6.08-17.13-6.47-17.91c-2.56-5.2-2.32-9.9-2.42-11.12c-0.1-1.22-0.69-3.14-0.31-4.04
			c0.76-1.79,6.68-5.48,6.59-6.25c-0.09-0.77-2-11.28-2-11.28L241.99,21.95z"/>
		<path class="st15" d="M246.55,34.04l-8.72,9.01l-2.58-3.65c0,0-5.59-0.31-6,0.84c-0.61,1.68-1.64,9.66-1.19,13.08
			c0.17,1.26,1.94,5.42,3.69,10.05c1.03,2.71,1.95,6.41,3.65,11.03c1.46,3.96,2.27,12.51,2.27,12.51s4.01,0.16,10.23-0.16
			c7.2-0.37,14.47-1.49,14.79-1.75c1.39-1.14-4.02-13.8-4.09-15.06c-0.08-1.25,3.31-26.86,2.72-29.6c-0.59-2.74-2.46-4.15-4.78-4.61
			C254.21,35.28,246.55,34.04,246.55,34.04z"/>
		<path class="st14" d="M255.38,35.52c0,0,7.79,1.92,2.47,8.93c-2.3,3.02-4.46,14.24-6.86,15.74c-8.56,5.37,1.39,20.09,2.54,21.71
			c1.15,1.62,1.13,3.83,1.13,3.83l9.3-1.07c2.89,0.56-5.35-14.81-5.07-17.98c0.28-3.17,3.01-24.15,2.43-26.33
			C260.01,35.53,255.38,35.52,255.38,35.52z"/>
		<polygon class="st2" points="234.07,32.68 243.56,26.07 245.5,32.22 242.79,35.06 		"/>
		<g>
			<path class="st4" d="M227.3,13.47c2.11-3.05,9.47-7.08,14.49-2.78c5.02,4.3,4.49,9.78,3.12,13.42c-1.07,2.83-2.34,4.55-5.15,6.67
				c-0.57,0.43-6.13,2.74-7.37,2.61c-0.85-0.09-2.76-5.71-2.99-5.64c-0.23,0.08-0.94-0.12-1.08-0.58c-0.2-0.67-0.4-4.98-0.67-5.37
				C227.38,21.39,224.88,16.96,227.3,13.47z"/>
			<path class="st5" d="M226.28,16.4c0,0,3.84-3.48,10.46,0.28c1.42,0.81,0.23,5.89,0.62,6.23c0.42,0.36,3.59-4.33,3.55-3.78
				c-0.39,5.65,2,8.18,2.5,8.1c1.49-0.23,4.31-8.73,0.71-14.26c-3.61-5.53-10.22-4.67-11.7-4C230.94,9.64,226.34,11.04,226.28,16.4z
				"/>
			<path class="st4" d="M238.6,20.88c-0.13,1.8,0.14,4.13,1.11,4.19c0.97,0.06,1.87-1.35,2.01-3.15c0.13-1.8-0.55-3.32-1.52-3.38
				C239.22,18.48,238.73,19.08,238.6,20.88z"/>
		</g>
		<g>
			
				<rect x="246.39" y="189.3" transform="matrix(-1 -1.224647e-16 1.224647e-16 -1 499.7495 379.8958)" class="st10" width="6.96" height="1.3"/>
			<path class="st10" d="M253.08,180.14c0.91,1.28,1.53,3.75,1.62,4.89c0.11,1.37-0.71,4.27-1.61,4.27c-2.63,0-5.78,0.11-8.5,0.47
				c-2.72,0.37-3.73,1.93-10.68,1.91c-2.03,0-5.6-0.13-5.6-0.96c0-3.6,6.66-2.32,8.78-4.27c5.35-4.93,8.91-6.12,8.91-6.12
				S252.9,179.88,253.08,180.14z"/>
		</g>
		<path class="st10" d="M249.77,85.25c0,0,9.28,9.27,9.7,13.32c0.42,4.04-3.48,16.98-4.86,27.16c-1.38,10.18-2.24,12.23-1.89,14.64
			c0.34,2.4,3.07,12.13,2.98,18.61c-0.11,7.56,0.29,23.04,0.29,23.04s-2.02,1.58-7.23,1.56c-3.35-0.02-6.24-2.39-6.24-2.39
			s-2.09-38-2.52-41.99c-0.27-2.58-2.39-20.41-3.03-34.94c-0.21-4.68,0.87-18.05,0.87-19.98L249.77,85.25z"/>
		<polygon class="st14" points="237.63,40.47 237.83,43.05 242.44,38.34 		"/>
		<polygon class="st14" points="237.83,43.05 236.15,40.23 235.11,41.61 		"/>
		<path class="st13" d="M264.22,84.61c0,0,3.71,9.09,5.18,15.16c1.47,6.08,3.23,37.52,3.75,40.48s2.38,12,3.8,20.93
			c1.43,8.93,2.28,26.88,2.28,26.88l-11.44,1.79c0,0-6.82-37.63-7.9-43.54c-1.07-5.91-12.42-47.85-12.42-47.85l-1.4-13.5
			L264.22,84.61z"/>
		<path class="st10" d="M263.87,110.31c0.96,4.03,3.76,31.37,3.98,32.92c0.22,1.51,7.3,43.48,7.63,45.42l3.77-0.59
			c0,0-0.85-17.94-2.28-26.88c-1.43-8.93-3.28-17.98-3.8-20.93c-0.53-2.96-2.28-34.4-3.76-40.48c-1.47-6.08-5.18-15.16-5.18-15.16
			l-10.02,0.3C254.2,84.91,262.91,106.28,263.87,110.31z"/>
		<path class="st16" d="M264.48,84.61c0,0-17.61,0.29-18.66,0.32c-1.05,0.03-7.98-0.65-7.98-0.65l-0.13,2.78
			c0,0,6.71,0.56,9.93,0.56c3.22,0,17.49-0.75,17.49-0.75L264.48,84.61z"/>
		<path class="st17" d="M244.8,87.97h1.48c0.82,0,1.5-0.67,1.5-1.5v-0.22c0-0.82-0.67-1.5-1.5-1.5h-1.48c-0.82,0-1.5,0.67-1.5,1.5
			v0.22C243.3,87.3,243.97,87.97,244.8,87.97z"/>
		<polygon class="st10" points="239.33,40.95 235.16,40.99 236.33,44.09 238.43,44.02 		"/>
		<path class="st10" d="M236.33,44.09c0,0-2.78,6.53-1.52,15.42c1.26,8.89,1.15,29.02,1.15,29.02l2.32,4.08l2.8-4.82
			c0,0-1.9-21.96-2.95-28.44c-1.05-6.48,0.3-15.33,0.3-15.33L236.33,44.09z"/>
		<polygon class="st18" points="248.15,34.29 245.5,32.22 237.63,40.47 240.03,43.42 		"/>
		<polygon class="st18" points="236.15,40.23 234.6,43.4 233.52,40.75 234.9,38.45 		"/>
		<path class="st4" d="M252.12,38.12c2.35-3.54,5.92-2.73,9.17-0.29c3.25,2.44,19.61,20.73,19.64,22.06
			c0.02,1.33-3.99,5.98-5.83,5.51c-1.84-0.47-18.24-14.47-20.55-16.96C252.23,45.97,249.37,42.28,252.12,38.12z"/>
		<path class="st15" d="M250.75,41.53c0.01,1.62,0.63,5.39,3.1,7.24c3.49,2.63,12.16,10.18,12.16,10.18s3.06-1.27,5.43-4.31
			c2.76-3.53,3-6.7,3-6.7s-13.29-11.07-16.69-12.14C255.02,34.94,250.73,37.03,250.75,41.53z"/>
		<path class="st4" d="M279.87,58.45c3.75,2.71-2.5,9.98-5.73,13.38c-3.23,3.4-12.77,13.55-12.77,13.55l-3.88-3.28
			c0,0,4.91-12.33,13.33-22.16C271.68,58.93,276.05,55.69,279.87,58.45z"/>
		<g>
			<path class="st4" d="M256.31,92.86L256.31,92.86c-0.43-0.25-0.58-0.8-0.33-1.23l1.91-3.33c0.25-0.43,0.8-0.58,1.23-0.33l0,0
				c0.43,0.25,0.57,0.8,0.33,1.22l-1.91,3.33C257.29,92.96,256.74,93.11,256.31,92.86z"/>
			<path class="st4" d="M254.77,92.16L254.77,92.16c-0.43-0.25-0.58-0.8-0.33-1.23l1.91-3.33c0.25-0.43,0.8-0.58,1.23-0.33l0,0
				c0.43,0.25,0.57,0.8,0.33,1.22L256,91.83C255.75,92.26,255.2,92.41,254.77,92.16z"/>
			<path class="st4" d="M253.31,91.39L253.31,91.39c-0.43-0.25-0.58-0.8-0.33-1.23l1.91-3.33c0.25-0.43,0.8-0.58,1.23-0.33l0,0
				c0.43,0.25,0.57,0.8,0.33,1.22l-1.91,3.33C254.3,91.49,253.74,91.64,253.31,91.39z"/>
			<path class="st4" d="M251.98,90.51L251.98,90.51c-0.43-0.25-0.58-0.8-0.33-1.23l1.91-3.33c0.25-0.43,0.8-0.58,1.23-0.33l0,0
				c0.43,0.25,0.57,0.8,0.33,1.22l-1.91,3.33C252.96,90.61,252.41,90.76,251.98,90.51z"/>
			<path class="st4" d="M259.72,79.34c0,0-5.13,3.76-5.87,4.75c-0.74,0.99-2.32,5.58-2.32,5.58s2.13-0.47,3.01,0.21
				c0.88,0.68,2.98,2.65,2.98,2.65s2.97-2.99,3.83-4.75c0.87-1.76,1.32-3.69,1.32-3.69L259.72,79.34z"/>
		</g>
		<g>
			<path class="st4" d="M182.53,35.71c0,0-3.77,0.99-5.2-1.08c-1.43-2.06-0.84-5.09-0.89-5.81c-0.2-2.97-3.25-5.22-3.67-6.97
				c-0.43-1.75,0.6-2.21,0.96-1.65c2,3.15,4.2,4.45,4.91,5.95c0.71,1.5,4.83,6.25,4.83,6.25L182.53,35.71z"/>
			<path class="st4" d="M179.92,35.91c0,0-2.74-0.58-3.83-1.81c-1.09-1.23-0.71-3.37-1.48-4.52c-0.77-1.15,0.1-1.13,0.34-1.11
				c0.24,0.02,1.17,1.45,1.69,2.03S180.6,32.58,179.92,35.91z"/>
		</g>
	</g>
	<g>
		<g>
			<g>
				<path class="st10" d="M136,178.55c-0.99,1.41-1.67,4.14-1.76,5.4c-0.12,1.51,0.77,4.71,1.76,4.71c2.87,0,6.29,0.12,9.25,0.52
					c2.96,0.4,4.06,2.13,11.63,2.11c2.21-0.01,6.22-0.15,6.1-1.06c-0.12-0.91-7.26-2.56-9.56-4.71c-5.82-5.44-9.7-6.76-9.7-6.76
					S136.2,178.26,136,178.55z"/>
				<rect x="135.7" y="188.65" class="st10" width="7.58" height="1.43"/>
				<path class="st7" d="M109.26,118.71c0,0,28.47,9.31,29.64,10.64c1.17,1.33,9.16,51.6,9.16,51.6s-1.99,1.85-7.13,2.25
					c-5.14,0.4-6.89,0-6.89,0s-7.83-32.25-7.58-36.52c0.25-4.26-1.39-10.66-1.39-10.66s-33.09-1.64-35.36-3.6
					c-12.93-11.16,1.3-17.54,1.3-17.54l18.43,1.3L109.26,118.71z"/>
			</g>
			<path class="st14" d="M113.86,76.2c1.9,4.22,5.43,3.85,9.27,1.87c3.84-1.98,21.2-15.06,21.47-17.81c0.14-1.43-2.07-5.47-4.1-5.32
				c-2.03,0.15-18.42,9.11-21.27,11.31C116.38,68.45,111.64,71.26,113.86,76.2z"/>
			<path class="st4" d="M105.95,47.76c0,0-3.74,12.02-5.02,13.14c-2.43,2.13-8.41,2.82-10.92,5.77c-3.05,3.57-0.96,22.64-1.26,29.09
				c-0.3,6.46-5.33,19.01-7.89,24.71c-2.56,5.71,13.8,14.16,14.48,14.35c0.69,0.19,9.73-3.52,11.42-5.15
				c1.68-1.63,3.3-17.5,4.38-21.4c1.07-3.9,5.74-17.31,6.16-18.15c2.82-5.64,2.57-10.77,2.69-12.1c0.12-1.32,0.77-3.41,0.36-4.4
				c-0.82-1.95-7.25-6-7.14-6.84c0.11-0.83,2.23-12.27,2.23-12.27L105.95,47.76z"/>
			<g>
				<rect x="118.9" y="194.52" class="st10" width="7.58" height="1.48"/>
				<path class="st10" d="M119.2,184.09c-0.99,1.46-1.67,4.27-1.76,5.57c-0.12,1.56,0.77,4.86,1.76,4.86c2.87,0,6.29,0.12,9.25,0.54
					c2.96,0.42,4.06,2.2,11.63,2.18c2.21-0.01,6.22-0.15,6.1-1.09c-0.12-0.94-7.26-2.64-9.56-4.86c-5.82-5.62-9.7-6.98-9.7-6.98
					S119.41,183.79,119.2,184.09z"/>
			</g>
			<path class="st15" d="M100.92,60.9l10.09,10.76l2.18-4.86c0,0,4.32-1.57,6.03-0.56c1.67,0.99,2.07,11.27,2.03,12.65
				c-0.04,1.38-2.44,8.99-4.37,14.03c-1.13,2.95-2.16,6.97-4.03,12c-1.61,4.31-3.6,14.32-3.6,14.32s-4.97,1.56-11.42-0.56
				c-7.46-2.45-15.42-3.7-15.68-4.07c-1.13-1.6,4.24-11.25,5.01-17.57c0.17-1.36,0.58-25.43,1.24-28.41c0.66-2.98,2.7-4.5,5.23-5
				C96.17,63.14,100.92,60.9,100.92,60.9z"/>
			<path class="st14" d="M106.24,83.07C99.65,63.93,94.9,64.09,94.9,64.09l-0.95-0.54c-0.1,0.02-0.21,0.06-0.31,0.08
				c-2.53,0.49-4.57,2.02-5.23,5c-0.66,2.98-1.07,27.05-1.24,28.41c-0.77,6.32-6.14,15.98-5.01,17.57
				c0.24,0.33,6.66,1.37,13.36,3.35l12.3,1.58c0.89-0.15,1.43-0.3,1.43-0.3s1.99-10.01,3.6-14.32c1.04-2.79,4.53-13.19,5.21-15.34
				c0,0-2.61,4.52-5.4,3.91C110.37,92.99,109.87,93.63,106.24,83.07z"/>
			<path class="st6" d="M82.02,114.47c0,0-2.01,6.53-1.27,11.94s2.07,11.5,14.72,12.67c12.64,1.18,20.52,1.85,20.92,1.89
				c0.4,0.04-0.96,10.87-0.45,18.43c0.51,7.56,1.39,27.57,1.39,27.57s2.74,0.79,7.76,0.89c5.02,0.1,6.65-1.67,6.65-1.67
				s3.45-47.36,2.24-51.29c-2.04-6.64-23.23-12.07-24.03-13.24c-0.66-0.97-0.49-5.45-0.49-5.45L82.02,114.47z"/>
			<path class="st15" d="M93.8,64.12c-4.61,0.5-5.51,4.62-4.64,9.3c0.86,4.68,8.8,25.2,10.11,25.94c1.3,0.75,9.88,1.85,10.3-0.3
				c0.42-2.15-6.53-21.83-7.88-25.56C100.33,69.77,99.2,63.54,93.8,64.12z"/>
			<polygon class="st2" points="106.52,50.53 114.72,58.03 113.98,62.28 104.55,61.44 102.1,58.66 105.4,49.84 			"/>
			<path class="st4" d="M114.42,35.05c-3.61-2.12-12.93-2.72-15.84,4.12c-2.91,6.85,0.31,12.24,3.46,15.32
				c2.46,2.4,4.57,3.56,8.41,4.38c0.78,0.17,7.47-0.13,8.64-0.87c0.81-0.5-0.04-7.21,0.22-7.24c0.26-0.03,0.88-0.58,0.8-1.12
				c-0.13-0.79-2.04-5.32-1.97-5.86C118.22,43.25,118.55,37.48,114.42,35.05z"/>
			<path class="st5" d="M116.87,37.57c0,0-5.54-1.73-10.31,5.32c-1.03,1.52,2.66,6.17,2.43,6.71c-0.24,0.58-5.71-2.73-5.4-2.18
				c3.16,5.63,2.01,9.39,1.48,9.54c-1.6,0.48-8.59-6.91-7.7-14.34c0.89-7.44,7.91-9.74,9.72-9.75
				C108.91,32.86,114.19,32.09,116.87,37.57z"/>
			<path class="st4" d="M106.77,48.13c1.02,1.79,1.89,4.32,0.94,4.85c-0.94,0.54-2.53-0.48-3.55-2.27
				c-1.02-1.79-1.08-3.68-0.14-4.21C104.97,45.96,105.75,46.34,106.77,48.13z"/>
			<polygon class="st14" points="111.11,68.9 111.01,71.66 108.63,69.16 			"/>
			<path class="st4" d="M138.62,60.9c3.04,4.02,9.94-1.69,13.56-5.29c3.62-3.6,12.38-15.37,12.38-15.37l-3.08-3.54
				c0,0-18.19,13.72-19.27,14.69C141.14,52.37,135.53,56.81,138.62,60.9z"/>
			<polygon class="st14" points="111.01,71.66 111.98,68.99 112.67,70.45 			"/>
			<polygon class="st16" points="82.02,114.47 81.18,117.36 109.48,119.37 109.45,116.21 			"/>
			<path class="st17" d="M107.83,119.37h-0.85c-0.93,0-1.7-0.76-1.7-1.7l0,0c0-0.93,0.76-1.7,1.7-1.7h0.85c0.93,0,1.7,0.76,1.7,1.7
				l0,0C109.53,118.61,108.76,119.37,107.83,119.37z"/>
			<polygon class="st19" points="99.65,61.1 102.1,58.66 111.11,68.9 109.18,71.8 			"/>
			<ellipse class="st19" cx="103.14" cy="96.25" rx="6.73" ry="5.73"/>
			<path class="st15" d="M110.56,96.25c0,3.16-3.01,5.73-6.73,5.73c-3.72,0-6.73-2.56-6.73-5.73c0-3.16,3.01-5.73,6.73-5.73
				C107.54,90.52,110.56,93.09,110.56,96.25z"/>
			<path class="st19" d="M110.56,97.02c0,3.16-3.01,5.73-6.73,5.73c-3.72,0-6.73-2.56-6.73-5.73c0-3.16,3.01-5.73,6.73-5.73
				C107.54,91.3,110.56,93.86,110.56,97.02z"/>
			<polygon class="st19" points="111.98,68.99 113.45,65.3 114.72,67.36 112.98,71.66 			"/>
			<g>
				<path class="st20" d="M146.75,87.58l0.47-0.92c0.11-0.21,0.37-0.29,0.57-0.19l0,0c0.21,0.11,0.29,0.37,0.19,0.57l-0.47,0.92
					c-0.11,0.21-0.37,0.29-0.57,0.19l0,0C146.72,88.04,146.64,87.78,146.75,87.58z"/>
				<path class="st21" d="M140.39,101.74L140.39,101.74c-0.37-0.18,0.15-2.02,0.33-2.39l5.67-11.66c0.18-0.37,0.63-0.53,1-0.35l0,0
					c0.37,0.18,0.53,0.63,0.35,1L142.07,100C141.89,100.37,140.76,101.91,140.39,101.74z"/>
				
					<rect x="145.75" y="88.62" transform="matrix(0.91 0.4147 -0.4147 0.91 50.0984 -52.763)" class="st20" width="1.62" height="0.76"/>
				<path class="st22" d="M144.92,92.68L144.92,92.68c-0.12-0.06-0.17-0.2-0.12-0.32l1.83-3.91c0.06-0.12,0.2-0.17,0.32-0.12l0,0
					c0.12,0.06,0.17,0.2,0.12,0.32l-1.83,3.91C145.18,92.69,145.04,92.74,144.92,92.68z"/>
			</g>
			<path class="st4" d="M98.87,97.39c-0.71,4.99,9.72,5.58,14.82,5.61c5.11,0.03,21.81-1.31,21.81-1.31l-2.32-4.64
				c0,0-25.62-4-27.06-4.08C104.68,92.89,99.6,92.31,98.87,97.39z"/>
			<g>
				<path class="st4" d="M145.3,101.17L145.3,101.17c0.01-0.47-0.36-0.86-0.82-0.88l-3.63-0.11c-0.47-0.01-0.86,0.36-0.87,0.83v0
					c-0.01,0.47,0.36,0.86,0.82,0.87l3.63,0.11C144.89,102.01,145.29,101.64,145.3,101.17z"/>
				<path class="st4" d="M145.5,99.58L145.5,99.58c0.01-0.47-0.36-0.86-0.82-0.88l-3.63-0.11c-0.47-0.01-0.86,0.36-0.87,0.83l0,0
					c-0.01,0.47,0.36,0.86,0.82,0.87l3.63,0.11C145.09,100.43,145.48,100.05,145.5,99.58z"/>
				<path class="st4" d="M145.6,98.03L145.6,98.03c0.01-0.47-0.36-0.86-0.82-0.88l-3.63-0.11c-0.47-0.01-0.86,0.36-0.87,0.83v0
					c-0.01,0.47,0.36,0.86,0.82,0.87l3.63,0.11C145.19,98.87,145.58,98.5,145.6,98.03z"/>
				<path class="st4" d="M145.55,96.52L145.55,96.52c0.01-0.47-0.36-0.86-0.82-0.88l-3.63-0.11c-0.47-0.01-0.86,0.36-0.87,0.83l0,0
					c-0.01,0.47,0.36,0.86,0.82,0.87l3.63,0.11C145.14,97.36,145.54,96.99,145.55,96.52z"/>
				<path class="st4" d="M132.71,97.24c0,0,5.57-2.27,6.74-2.38c1.17-0.11,5.65,0.89,5.65,0.89s-1.44,1.49-1.32,2.53
					c0.12,1.05,0.66,3.72,0.66,3.72s-3.88,0.91-5.73,0.74c-1.85-0.17-3.63-0.76-3.63-0.76L132.71,97.24z"/>
			</g>
			<path class="st4" d="M160.55,37.94c0,0,1.67-1.19,1.35-4.22c-0.32-3.03,1.64-5.13,1.96-5.5c0.32-0.37,2.44-2.97,2.74-3.05
				c0.9-0.24,0.59,0.86,0.85,0.77c0.26-0.09,1.21-0.4,1.29,0.52c0.09,0.94,0.32,0.75,0.64,0.87c0.31,0.12,0.47,0.88,0.28,1.27
				c-0.16,0.35,0.34,0.56,0.33,1.07c-0.01,0.24-0.18,0.92-0.71,1.47c-0.88,0.93-1.36,2.04-1.38,3.92c-0.02,1.89-0.2,4.91-3.16,5.65
				C161.79,41.46,160.55,37.94,160.55,37.94z"/>
			<path class="st15" d="M134.83,57.38c0.02,0.44,1.21,4.58,2.87,6.17c1.66,1.6,3.71,1.85,3.93,1.67c0.21-0.18,0.47-0.94,1.27-1.8
				c0.79-0.86,2.41-0.81,2.32-1.55c-0.08-0.74-2.85-1.42-4.43-3.48s-1.11-3.83-1.48-4.04c-0.37-0.21-1.52,1.19-2.15,1.46
				C136.51,56.08,134.74,55.68,134.83,57.38z"/>
		</g>
		<g>
			
				<rect x="89.78" y="140.26" transform="matrix(-1 -1.224647e-16 1.224647e-16 -1 186.3962 329.0414)" class="st8" width="6.83" height="48.53"/>
			
				<rect x="73.16" y="127.25" transform="matrix(-1 -1.224647e-16 1.224647e-16 -1 150.0994 268.0124)" class="st8" width="3.78" height="13.5"/>
			<path class="st13" d="M76.68,144.98h37.93c1.95,0,3.52-1.58,3.52-3.52v-2.74c0-1.95-1.58-3.52-3.52-3.52H76.68
				c-1.95,0-3.52,1.58-3.52,3.52v2.74C73.16,143.4,74.74,144.98,76.68,144.98z"/>
			<path class="st13" d="M66.96,71.82l1.1-0.13c1.63-0.19,3.12,0.99,3.31,2.62l6.33,53.8c0.19,1.63-0.99,3.12-2.62,3.31l-1.1,0.13
				c-1.63,0.19-3.12-0.99-3.31-2.62l-6.33-53.8C64.15,73.5,65.33,72.01,66.96,71.82z"/>
			<path class="st23" d="M68.88,73.38L68.88,73.38c0.63-0.07,1.2,0.38,1.27,1l6.24,53.08c0.07,0.62-0.38,1.2-1,1.27l0,0
				c-0.63,0.07-1.2-0.38-1.27-1l-6.24-53.08C67.8,74.03,68.25,73.46,68.88,73.38z"/>
			<path class="st13" d="M106.77,194.43c0,2.19,1.78,3.97,3.97,3.97c2.19,0,3.97-1.78,3.97-3.97c0-2.19-1.78-3.97-3.97-3.97
				C108.55,190.45,106.77,192.23,106.77,194.43z"/>
			<path class="st13" d="M70.76,194.43c0,2.19,1.78,3.97,3.97,3.97s3.97-1.78,3.97-3.97c0-2.19-1.78-3.97-3.97-3.97
				S70.76,192.23,70.76,194.43z"/>
			<path class="st8" d="M69.48,192.13h47.43l0,0c0-1.85-1.5-3.34-3.34-3.34H72.82C70.98,188.78,69.48,190.28,69.48,192.13
				L69.48,192.13z"/>
			
				<rect x="90.89" y="144.49" transform="matrix(-1 -1.224647e-16 1.224647e-16 -1 183.4873 333.2712)" class="st8" width="1.71" height="44.3"/>
		</g>
	</g>
	<g>
		
			<rect x="66.99" y="148.13" transform="matrix(6.123234e-17 -1 1 6.123234e-17 -36.0213 266.5785)" class="st24" width="96.59" height="6.34"/>
		
			<rect x="202.36" y="148.13" transform="matrix(6.123234e-17 -1 1 6.123234e-17 99.3539 401.9537)" class="st24" width="96.59" height="6.34"/>
		<rect x="113" y="104.53" class="st24" width="139.77" height="13.73"/>
		<polygon class="st25" points="253.71,113.82 112.11,115.19 112.11,110.63 253.71,110.68 		"/>
		<rect x="104.46" y="102.75" class="st8" width="157.35" height="7.98"/>
	</g>
	<g>
		<polygon class="st26" points="148.56,100.62 185.43,100.62 189.57,72.9 152.71,72.9 		"/>
		<rect x="134.39" y="100.62" class="st26" width="14.17" height="2.13"/>
		<polygon class="st27" points="152.71,72.9 185.39,100.62 148.56,100.62 		"/>
		
			<rect x="148.56" y="100.62" transform="matrix(-1 -1.224647e-16 1.224647e-16 -1 333.9456 203.3713)" class="st28" width="36.83" height="2.13"/>
		<path class="st14" d="M168.69,87.13c-0.37,1.66,0.46,3.27,1.85,3.57c1.39,0.31,2.82-0.79,3.19-2.45c0.37-1.66-0.46-3.27-1.85-3.57
			C170.49,84.37,169.06,85.47,168.69,87.13z"/>
	</g>
</g>
</svg>
