<?xml version="1.0" encoding="utf-8"?>
<!-- Generator: Adobe Illustrator 22.1.0, SVG Export Plug-In . SVG Version: 6.00 Build 0)  -->
<svg version="1.1" id="Layer_1" xmlns="http://www.w3.org/2000/svg" xmlns:xlink="http://www.w3.org/1999/xlink" x="0px" y="0px"
	 viewBox="0 0 311.5 362" style="enable-background:new 0 0 311.5 362;" xml:space="preserve">
<style type="text/css">
	.st0{display:none;}
	.st1{display:inline;opacity:0.3;fill:url(#SVGID_1_);enable-background:new    ;}
	.st2{display:inline;fill:#192C55;}
	.st3{display:inline;}
	.st4{fill:url(#SVGID_2_);}
	.st5{fill:url(#SVGID_3_);}
	.st6{fill:url(#SVGID_4_);}
	.st7{fill:url(#SVGID_5_);}
	.st8{fill:url(#SVGID_6_);}
	.st9{fill:url(#SVGID_7_);}
	.st10{display:inline;fill:url(#SVGID_8_);}
	.st11{fill:#FFA726;}
	.st12{fill:#5D4037;}
	.st13{fill:url(#SVGID_9_);}
	.st14{fill:#192C55;}
	.st15{display:inline;fill:url(#SVGID_10_);}
	.st16{fill:url(#SVGID_11_);}
	.st17{display:inline;fill:url(#SVGID_12_);}
	.st18{fill:url(#SVGID_13_);}
	.st19{fill:url(#SVGID_14_);}
	.st20{fill:url(#SVGID_15_);}
	.st21{fill:url(#SVGID_16_);}
	.st22{fill:url(#SVGID_17_);}
	.st23{fill:url(#SVGID_18_);}
	.st24{fill:#EEEBD4;}
	.st25{fill:#CCCBC4;}
	.st26{fill:#C5C4BB;}
	.st27{fill:#C0AFAE;}
	.st28{fill:#D6D5CA;}
	.st29{fill:#FFFFFF;}
	.st30{opacity:0.2;enable-background:new    ;}
	.st31{fill:#231F20;}
	.st32{fill:#1385A4;}
	.st33{fill:none;stroke:#9A9FB3;stroke-linecap:round;stroke-linejoin:round;stroke-miterlimit:10;}
	.st34{fill:url(#SVGID_19_);}
	.st35{opacity:0.1;}
	.st36{opacity:0.46;fill:#9FA9D1;enable-background:new    ;}
	.st37{fill:#9FA9D1;}
	.st38{display:inline;fill:#FFFFFF;}
	.st39{display:inline;opacity:0.2;enable-background:new    ;}
	.st40{display:inline;fill:url(#SVGID_20_);}
	.st41{display:inline;fill:url(#SVGID_21_);}
	.st42{display:inline;fill:url(#SVGID_22_);filter:url(#Adobe_OpacityMaskFilter);}
	.st43{display:inline;mask:url(#id0_2_);}
	.st44{display:inline;fill:#263136;}
	.st45{display:inline;fill:#424242;}
	.st46{display:inline;fill:#DBDBDB;}
	.st47{display:inline;fill:#E4E4E4;}
	.st48{display:inline;fill:url(#SVGID_23_);filter:url(#Adobe_OpacityMaskFilter_1_);}
	.st49{display:inline;mask:url(#id2_2_);fill:url(#SVGID_24_);}
	.st50{display:inline;fill:url(#SVGID_25_);filter:url(#Adobe_OpacityMaskFilter_2_);}
	.st51{display:inline;mask:url(#id4_2_);fill:url(#SVGID_26_);}
	.st52{display:inline;fill:#AFBDC4;}
	.st53{display:inline;fill:url(#SVGID_27_);filter:url(#Adobe_OpacityMaskFilter_3_);}
	.st54{display:inline;mask:url(#id6_2_);fill:url(#SVGID_28_);}
	.st55{display:inline;fill:#0C627E;}
	.st56{display:inline;fill:#F4F4F4;}
	.st57{display:inline;fill:url(#SVGID_29_);filter:url(#Adobe_OpacityMaskFilter_4_);}
	.st58{display:inline;mask:url(#id8_2_);fill:url(#SVGID_30_);}
	.st59{display:inline;fill:#212121;}
	.st60{display:inline;fill:url(#SVGID_31_);}
	.st61{display:inline;fill:url(#SVGID_32_);}
	.st62{display:inline;fill:url(#SVGID_33_);filter:url(#Adobe_OpacityMaskFilter_5_);}
	.st63{display:inline;mask:url(#id10_2_);fill:url(#SVGID_34_);}
	.st64{display:inline;fill:url(#SVGID_35_);filter:url(#Adobe_OpacityMaskFilter_6_);}
	.st65{display:inline;mask:url(#id12_2_);fill:url(#SVGID_36_);}
	.st66{display:inline;fill:#263138;}
	.st67{display:inline;fill:#EFF2F2;}
	.st68{display:inline;fill:url(#SVGID_37_);}
	.st69{display:inline;fill:url(#SVGID_38_);filter:url(#Adobe_OpacityMaskFilter_7_);}
	.st70{display:inline;mask:url(#id14_2_);fill:url(#SVGID_39_);}
	.st71{display:inline;fill:url(#SVGID_40_);filter:url(#Adobe_OpacityMaskFilter_8_);}
	.st72{display:inline;mask:url(#id16_2_);fill:url(#SVGID_41_);}
	.st73{display:inline;fill:url(#SVGID_42_);filter:url(#Adobe_OpacityMaskFilter_9_);}
	.st74{display:inline;mask:url(#id18_2_);fill:url(#SVGID_43_);}
	.st75{display:inline;fill:url(#SVGID_44_);filter:url(#Adobe_OpacityMaskFilter_10_);}
	.st76{display:inline;mask:url(#id20_2_);fill:url(#SVGID_45_);}
	.st77{display:inline;fill:url(#SVGID_46_);filter:url(#Adobe_OpacityMaskFilter_11_);}
	.st78{display:inline;mask:url(#id22_2_);fill:url(#SVGID_47_);}
	.st79{display:inline;fill:url(#SVGID_48_);filter:url(#Adobe_OpacityMaskFilter_12_);}
	.st80{display:inline;mask:url(#id24_2_);fill:url(#SVGID_49_);}
	.st81{display:inline;fill:url(#SVGID_50_);fill-opacity:0.302;}
	.st82{display:inline;fill:#201E1E;}
	.st83{display:inline;fill:#231F1F;}
	.st84{opacity:0.3;fill:url(#SVGID_51_);enable-background:new    ;}
	.st85{fill:#FEFEFE;}
	.st86{fill:url(#SVGID_52_);stroke:#373435;stroke-width:6.5806;}
	.st87{fill:#DCECFC;}
	.st88{fill:#9DCBFC;}
	.st89{fill:#C3D0DE;}
	.st90{fill:#C0D9F8;}
	.st91{fill:#8AA7C7;}
	.st92{fill:#67AAF7;}
	.st93{fill:#64A9F6;}
	.st94{fill:#60A4F7;}
	.st95{fill:#5BA4F7;}
	.st96{fill:#3E4095;fill-opacity:0.2;}
	.st97{fill:url(#SVGID_53_);}
	.st98{fill:url(#SVGID_54_);}
	.st99{fill:url(#SVGID_55_);}
	.st100{fill:#00AFEF;}
	.st101{fill:#373435;fill-opacity:0.6;}
	.st102{fill:#D1E2F0;}
	.st103{fill:#E4EEF7;}
	.st104{fill:#95B5DA;}
	.st105{fill:#89A9CF;}
	.st106{fill:#B6D0EB;}
	.st107{fill:#152A69;}
	.st108{fill:#D29B73;}
	.st109{opacity:0.3;fill:url(#SVGID_56_);enable-background:new    ;}
	.st110{fill:#970238;}
	.st111{fill:#0E1A3D;}
	.st112{fill:#B5825C;}
	.st113{fill:#DDA798;}
	.st114{fill:#201E1E;}
	.st115{fill:#E09E93;}
	.st116{fill:url(#SVGID_57_);}
	.st117{fill:url(#SVGID_58_);}
	.st118{fill:url(#SVGID_59_);}
	.st119{fill:#F2CCC2;}
	.st120{fill:#5C4657;}
	.st121{fill:#3E4095;}
	.st122{fill:#383B7A;}
	.st123{fill:url(#SVGID_60_);}
	.st124{fill:url(#SVGID_61_);}
	.st125{fill:url(#SVGID_62_);}
	.st126{fill:#9087F0;}
	.st127{fill:#7271D2;}
	.st128{fill:#A5A6E3;}
	.st129{fill:#091330;}
	.st130{fill:url(#SVGID_63_);}
	.st131{fill:#B00051;}
</style>
<g class="st0">
	
		<linearGradient id="SVGID_1_" gradientUnits="userSpaceOnUse" x1="1" y1="28.3" x2="283" y2="28.3" gradientTransform="matrix(1 0 0 -1 0 364)">
		<stop  offset="0" style="stop-color:#4F8CA5"/>
		<stop  offset="1" style="stop-color:#192C55"/>
	</linearGradient>
	<ellipse class="st1" cx="142" cy="335.7" rx="141" ry="23.7"/>
	<polygon class="st2" points="151.1,326.8 143.3,319.6 135.1,317.5 129.9,325.1 159.6,335.5 158.8,332.1 	"/>
	<g class="st3">
		<g>
			
				<linearGradient id="SVGID_2_" gradientUnits="userSpaceOnUse" x1="156.0543" y1="224.55" x2="170.4543" y2="224.55" gradientTransform="matrix(1 0 0 -1 0 364)">
				<stop  offset="0" style="stop-color:#FAE8DC"/>
				<stop  offset="1" style="stop-color:#FAB9AB;stop-opacity:0.9697"/>
			</linearGradient>
			<polygon class="st4" points="158.9,132.2 170.5,136.9 164.9,146.7 158.3,143.4 156.1,137.7 			"/>
			<g>
				<g>
					
						<linearGradient id="SVGID_3_" gradientUnits="userSpaceOnUse" x1="167.6289" y1="224.7417" x2="178.1173" y2="224.7417" gradientTransform="matrix(1 0 0 -1 0 364)">
						<stop  offset="0" style="stop-color:#FAE8DC"/>
						<stop  offset="1" style="stop-color:#FAB9AB;stop-opacity:0.9697"/>
					</linearGradient>
					<path class="st5" d="M168.5,138.2c3.2,0.3,5.9,1.6,8.1,3.9c0.9,1,2.2-0.6,1.3-1.6c-2.4-2.5-5.6-4.1-9-4.4
						C167.5,136.1,167.1,138.1,168.5,138.2L168.5,138.2z"/>
				</g>
			</g>
			<g>
				<g>
					
						<linearGradient id="SVGID_4_" gradientUnits="userSpaceOnUse" x1="166.2166" y1="221.2617" x2="178.3559" y2="221.2617" gradientTransform="matrix(1 0 0 -1 0 364)">
						<stop  offset="0" style="stop-color:#FAE8DC"/>
						<stop  offset="1" style="stop-color:#FAB9AB;stop-opacity:0.9697"/>
					</linearGradient>
					<path class="st6" d="M167,141.3c3.8,0.3,7.1,1.9,9.7,4.7c0.9,0.9,2.2-0.6,1.3-1.6c-2.8-3-6.6-4.8-10.7-5.2
						C166.1,139.2,165.7,141.2,167,141.3L167,141.3z"/>
				</g>
			</g>
			<g>
				<g>
					
						<linearGradient id="SVGID_5_" gradientUnits="userSpaceOnUse" x1="163.2621" y1="218.8618" x2="175.4038" y2="218.8618" gradientTransform="matrix(1 0 0 -1 0 364)">
						<stop  offset="0" style="stop-color:#FAE8DC"/>
						<stop  offset="1" style="stop-color:#FAB9AB;stop-opacity:0.9697"/>
					</linearGradient>
					<path class="st7" d="M164.1,143.7c3.8,0.3,7.1,1.9,9.7,4.7c0.9,0.9,2.2-0.6,1.3-1.6c-2.9-3-6.6-4.8-10.7-5.2
						C163.1,141.6,162.8,143.6,164.1,143.7L164.1,143.7z"/>
				</g>
			</g>
			<g>
				<g>
					
						<linearGradient id="SVGID_6_" gradientUnits="userSpaceOnUse" x1="159.4236" y1="217.1584" x2="170.3672" y2="217.1584" gradientTransform="matrix(1 0 0 -1 0 364)">
						<stop  offset="0" style="stop-color:#FAE8DC"/>
						<stop  offset="1" style="stop-color:#FAB9AB;stop-opacity:0.9697"/>
					</linearGradient>
					<path class="st8" d="M160.2,144.4c3.6,1.1,6.4,3.3,8.3,6.5c0.7,1.1,2.3-0.1,1.7-1.2c-2.2-3.6-5.6-6.1-9.7-7.3
						C159.3,142,159,144,160.2,144.4L160.2,144.4z"/>
				</g>
			</g>
		</g>
		
			<linearGradient id="SVGID_7_" gradientUnits="userSpaceOnUse" x1="120.6257" y1="265.1914" x2="109.1074" y2="235.1742" gradientTransform="matrix(1 0 0 -1 0 364)">
			<stop  offset="0" style="stop-color:#FAE8DC"/>
			<stop  offset="1" style="stop-color:#FAB9AB;stop-opacity:0.9697"/>
		</linearGradient>
		<path class="st9" d="M158.9,132.2l-47.8-0.4L94,87.4c-2.3-6.4-9.2-11.3-15.1-7.9l0,0c-5.1,2.9-5.2,10-2.5,15.2l24.2,52.9
			c0.9,2.2,55.8-9,55.8-9L158.9,132.2z"/>
	</g>
	
		<linearGradient id="SVGID_8_" gradientUnits="userSpaceOnUse" x1="124.735" y1="7.946" x2="96.811" y2="162.9237" gradientTransform="matrix(1 0 0 -1 0 364)">
		<stop  offset="0" style="stop-color:#4F8CA5"/>
		<stop  offset="1" style="stop-color:#192C55"/>
	</linearGradient>
	<path class="st10" d="M97.9,176.6c2.7,1,31,67.4,31,67.4l14.1,74.8l-7.4-2l-18.1-48.6V247L70,190.9L97.9,176.6z"/>
	<g class="st3">
		<g>
			<polygon class="st11" points="133.1,330.2 135.4,330.5 143.7,168.6 141.5,168.3 			"/>
			<polygon class="st11" points="216.7,330.2 214.4,330.5 206,168.6 208.3,168.3 			"/>
		</g>
		<rect x="124" y="162.8" class="st11" width="101.8" height="3.9"/>
		<rect x="133.4" y="166.7" class="st11" width="83.1" height="3.9"/>
		<g>
			<polygon class="st11" points="123.5,342.9 126.3,343.2 136.6,168.6 133.8,168.3 			"/>
			<polygon class="st11" points="226.3,342.9 223.5,343.2 213.2,168.6 216,168.3 			"/>
		</g>
	</g>
	<g class="st3">
		<g>
			<path class="st11" d="M39.2,332.8v2.8c0,4,14.1,7.2,31.5,7.2s31.5-3.2,31.5-7.2v-2.8c0-4-14.1-7.2-31.5-7.2
				C53.3,325.6,39.2,328.8,39.2,332.8z"/>
			<path class="st11" d="M39.2,332.8c0-4,14.1-7.2,31.5-7.2c3.1,0,6.2,0.1,9,0.3l-13.9,13.9C50.8,339.3,39.2,336.4,39.2,332.8z"/>
			<path class="st11" d="M102.3,332.8c0,4-14.1,7.2-31.5,7.2c-1.7,0-3.3,0-4.9-0.1L79.8,326C92.8,326.8,102.3,329.5,102.3,332.8z"/>
		</g>
		<rect x="69.5" y="190.9" class="st11" width="3.3" height="139.7"/>
		<g>
			<path class="st11" d="M42.8,285.1c0-6.3,14.2-9.6,28.2-9.6s28.2,3.3,28.2,9.6c0,6.3-14.2,9.6-28.2,9.6S42.8,291.4,42.8,285.1z
				 M45.8,285.1c0,2.7,9.8,6.6,25.3,6.6c15.4,0,25.3-3.9,25.3-6.6s-9.8-6.6-25.3-6.6C55.6,278.4,45.8,282.4,45.8,285.1z"/>
		</g>
		<g>
			<path class="st12" d="M102.3,189.7v10c0,4-14.1,7.2-31.5,7.2s-31.5-3.2-31.5-7.2v-10H102.3z"/>
			<path class="st12" d="M39.2,189.7c0,4,14.1,7.2,31.5,7.2s31.5-3.2,31.5-7.2s-14.1-7.2-31.5-7.2S39.2,185.7,39.2,189.7z"/>
		</g>
	</g>
	<path class="st2" d="M72.5,84.3c4,4.8,9.4,8.3,15.3,10c2.1,0.6,4.4,1,6.6,0.6c2.2-0.4,4.3-1.7,5.3-3.7s0.4-4.8-1.4-6
		c3.2-0.2,6.1-2.3,7.2-5.3s0.3-6.5-1.9-8.8c4.7,0.8,9.6-1.3,12.8-4.7c3.3-3.5,5-8.1,5.8-12.8c1.7-9.9-1.2-20.6-7.7-28.5
		c3.5-1.3,2.4-11.6-6.1-16.5c-6.3-3.7-14-4.6-21.3-4.3c-7.3,0.3-14.6,2.9-19.8,8c-7.6,7.6-9.4,19.5-7.1,30c0.8,3.4,1.7,7.3-0.6,9.9
		c-1.1,1.2-2.8,1.8-4.3,2.5s-3,1.9-3.3,3.6c-0.4,3.1,3.9,5.2,3.9,8.4c0,2.3-2.2,3.9-4.1,5.3s-3.7,3.7-2.7,5.8
		c0.8,1.7,2.9,2.1,4.6,2.6c1.7,0.5,3.7,2,3.3,3.7c-0.4,1.6-2.4,2.2-2.9,3.8c-0.6,1.8,1.2,3.6,3.1,3.8c1.9,0.1,3.6-0.9,5.2-1.8
		C65.5,87.9,69.5,86.2,72.5,84.3z"/>
	<g class="st3">
		
			<linearGradient id="SVGID_9_" gradientUnits="userSpaceOnUse" x1="75.9155" y1="227.323" x2="162.4781" y2="-45.6277" gradientTransform="matrix(1 0 0 -1 0 364)">
			<stop  offset="0" style="stop-color:#4F8CA5"/>
			<stop  offset="1" style="stop-color:#192C55"/>
		</linearGradient>
		<path class="st13" d="M60.1,163.8c-7.5,0.5-15.3-6.2-20.5-4.9c-3,0.8-4.6,6.5-4.5,8.8c0.2,6,0.7,13.9,4.2,18.5
			c9.6,12.8,87.8,22.6,87.8,22.6l-16.5,19.4l-18,51.9L98,285l50.8-86.2C148.7,198.9,80.3,162.5,60.1,163.8z"/>
		<polygon class="st14" points="100.8,296.7 97.2,286.6 91,280.9 82.8,285.2 104.3,308.3 105,305 		"/>
	</g>
	
		<linearGradient id="SVGID_10_" gradientUnits="userSpaceOnUse" x1="34.5623" y1="247.0705" x2="105.1235" y2="247.0705" gradientTransform="matrix(1 0 0 -1 0 364)">
		<stop  offset="0" style="stop-color:#E2795A"/>
		<stop  offset="1" style="stop-color:#D81B60"/>
	</linearGradient>
	<path class="st15" d="M94.7,77.1c-3-4.6-4.3-13.1-10.3-13.8c-14.3-1.7-22.2,12.3-23.6,24.1c-0.9,7.8-1.5,15.5-2.2,23.3
		c-0.4,4.7-0.1,11.5-2.4,15.8c-4.1,7.5-14.2,24.2-20,33.8c-1.9,3.2-2.8,6.8,1,7.1l50.6,3.3c0,0,1.3-20.6,0-32
		c-0.9-8.1,2.5-13.1,4.8-20.7c1.1-3.5,1.4-5.3,4-8.3c2.5-2.8,7.2-6.1,8.1-10C106.7,91.5,99.2,84,94.7,77.1z"/>
	<g class="st3">
		
			<linearGradient id="SVGID_11_" gradientUnits="userSpaceOnUse" x1="75.2599" y1="315.4583" x2="109.782" y2="315.4583" gradientTransform="matrix(1 0 0 -1 0 364)">
			<stop  offset="0" style="stop-color:#FAE8DC"/>
			<stop  offset="1" style="stop-color:#FAB9AB;stop-opacity:0.9697"/>
		</linearGradient>
		<path class="st16" d="M107.7,45.4c-1.8-1.5-2-4.2-1.6-6.4c0.5-2.3,1.5-4.4,1.8-6.7s-0.3-5-2.3-6.1c0,0-14-2.6-17.2,7.1
			c-1.4,4.4-4.8,7.5-4.8,7.5c0.1-5.5-4.7-4.1-5.9-2.9c-1.2,1.2-1.4,3.2-0.6,4.7c0.8,1.5,2.4,2.6,4.1,2.4l-6.1,21
			c3.3,1.9,6.7,3.5,10,5.2c0.6-0.7,1.2-1.7,1.5-2.8c1.4-4.6,4.6-8.7,6-8.3c2.9,0.8,5.6,3.5,8.3,2.3c2.1-0.9,2.6-3.7,2.7-6
			c0.2-2.3,0.5-5,2.5-6.1c1.3-0.7,3.4-0.9,3.5-2.4C109.8,46.7,108.6,46.1,107.7,45.4z"/>
	</g>
	
		<linearGradient id="SVGID_12_" gradientUnits="userSpaceOnUse" x1="69" y1="296.0053" x2="88.5748" y2="296.0053" gradientTransform="matrix(1 0 0 -1 0 364)">
		<stop  offset="0" style="stop-color:#E2795A"/>
		<stop  offset="1" style="stop-color:#D81B60"/>
	</linearGradient>
	<path class="st17" d="M74.2,72.1c-1.4-0.1-3-0.3-4-1.3C69.3,70,69,68.7,69,67.5c0-1.2,0.4-2.4,0.8-3.5c2.2-0.8,4.4-1.5,6.7-1.6
		s4.8,0.5,6.4,2.2c0.6,0.6,1,1.3,1.4,2c1.4,2.3,2.8,4.7,4.3,7C83.8,73.1,79,72.6,74.2,72.1z"/>
	<g class="st3">
		<g>
			
				<linearGradient id="SVGID_13_" gradientUnits="userSpaceOnUse" x1="139.025" y1="216.5" x2="153.4103" y2="216.5" gradientTransform="matrix(1 0 0 -1 0 364)">
				<stop  offset="0" style="stop-color:#FAE8DC"/>
				<stop  offset="1" style="stop-color:#FAB9AB;stop-opacity:0.9697"/>
			</linearGradient>
			<polygon class="st18" points="142.6,139.9 153.4,146.1 146.5,155.1 140.5,150.9 139,145 			"/>
			<g>
				<g>
					
						<linearGradient id="SVGID_14_" gradientUnits="userSpaceOnUse" x1="150.5287" y1="215.1072" x2="160.3897" y2="215.1072" gradientTransform="matrix(1 0 0 -1 0 364)">
						<stop  offset="0" style="stop-color:#FAE8DC"/>
						<stop  offset="1" style="stop-color:#FAB9AB;stop-opacity:0.9697"/>
					</linearGradient>
					<path class="st19" d="M151.2,147.2c3.1,0.7,5.6,2.4,7.4,5c0.8,1.1,2.3-0.3,1.5-1.4c-2-2.9-4.9-4.8-8.4-5.6
						C150.6,145,150,146.9,151.2,147.2L151.2,147.2z"/>
				</g>
			</g>
			<g>
				<g>
					
						<linearGradient id="SVGID_15_" gradientUnits="userSpaceOnUse" x1="148.7067" y1="211.8069" x2="160.0934" y2="211.8069" gradientTransform="matrix(1 0 0 -1 0 364)">
						<stop  offset="0" style="stop-color:#FAE8DC"/>
						<stop  offset="1" style="stop-color:#FAB9AB;stop-opacity:0.9697"/>
					</linearGradient>
					<path class="st20" d="M149.4,150c3.7,0.9,6.7,2.9,9,6c0.8,1.1,2.3-0.3,1.5-1.4c-2.4-3.4-5.8-5.7-9.9-6.6
						C148.7,147.8,148.1,149.8,149.4,150L149.4,150z"/>
				</g>
			</g>
			<g>
				<g>
					
						<linearGradient id="SVGID_16_" gradientUnits="userSpaceOnUse" x1="145.4748" y1="209.8072" x2="156.8625" y2="209.8072" gradientTransform="matrix(1 0 0 -1 0 364)">
						<stop  offset="0" style="stop-color:#FAE8DC"/>
						<stop  offset="1" style="stop-color:#FAB9AB;stop-opacity:0.9697"/>
					</linearGradient>
					<path class="st21" d="M146.2,152c3.7,0.9,6.7,2.9,9,6c0.8,1.1,2.3-0.3,1.5-1.4c-2.4-3.4-5.8-5.7-9.9-6.6
						C145.5,149.8,144.9,151.7,146.2,152L146.2,152z"/>
				</g>
			</g>
			<g>
				<g>
					
						<linearGradient id="SVGID_17_" gradientUnits="userSpaceOnUse" x1="141.5807" y1="208.8941" x2="151.4909" y2="208.8941" gradientTransform="matrix(1 0 0 -1 0 364)">
						<stop  offset="0" style="stop-color:#FAE8DC"/>
						<stop  offset="1" style="stop-color:#FAB9AB;stop-opacity:0.9697"/>
					</linearGradient>
					<path class="st22" d="M142.2,152.1c3.4,1.5,5.9,4.2,7.4,7.5c0.5,1.2,2.3,0.3,1.8-0.9c-1.7-3.9-4.7-6.8-8.6-8.6
						C141.6,149.7,141,151.6,142.2,152.1L142.2,152.1z"/>
				</g>
			</g>
		</g>
		
			<linearGradient id="SVGID_18_" gradientUnits="userSpaceOnUse" x1="65.2161" y1="251.9628" x2="142.678" y2="251.9628" gradientTransform="matrix(1 0 0 -1 0 364)">
			<stop  offset="0" style="stop-color:#FAE8DC"/>
			<stop  offset="1" style="stop-color:#FAB9AB;stop-opacity:0.9697"/>
		</linearGradient>
		<path class="st23" d="M142.6,139.9L95.3,133L84.5,86.6C83.1,80,77,74.2,70.7,76.7l0,0c-5.5,2.2-6.5,9.2-4.6,14.7l16.7,55.8
			c0.6,2.3,56.5-1.3,56.5-1.3L142.6,139.9z"/>
	</g>
	<g class="st3">
		<path class="st24" d="M162.7,160.4H211l7.2-29.6c0.7-2.7-1.4-5.3-4.2-5.3h-39.4c-2,0-3.7,1.4-4.2,3.3L162.7,160.4z"/>
		<path class="st25" d="M219.5,127.2c0.7,1,1,2.3,0.7,3.6l-7.2,29.6h-26.7L219.5,127.2z"/>
		<path class="st26" d="M142.8,160.4h41.7l-2.4,2.4h-41.7C140.3,161.5,141.4,160.4,142.8,160.4z"/>
		<path class="st27" d="M213,160.4c0,1.3-1.1,2.4-2.4,2.4H182l2.4-2.4H213z"/>
		<path class="st24" d="M140.3,162.9h21.9c1.3,0,2.4-1.1,2.4-2.4h-21.9C141.4,160.4,140.3,161.5,140.3,162.9z"/>
		<g>
			<path class="st28" d="M164.7,160.4l7.7-31.7c0.5-1.9,2.2-3.3,4.2-3.3H216c1.5,0,2.7,0.7,3.5,1.8l-33.2,33.2H164.7z"/>
			<path class="st29" d="M197.5,144.4c-0.1,1.5-1.3,2.7-2.7,2.7s-2.4-1.2-2.3-2.7c0.1-1.5,1.3-2.7,2.7-2.7
				C196.6,141.7,197.7,142.9,197.5,144.4z"/>
		</g>
	</g>
	<g class="st3">
		<path class="st30" d="M184.1,73.8h-43.9c-2,0-3.6-1.6-3.6-3.6v-37c0-2,1.6-3.6,3.6-3.6h43.9c2,0,3.6,1.6,3.6,3.6v37.1
			C187.7,72.2,186.1,73.8,184.1,73.8z"/>
		<path class="st29" d="M183.9,72.7h-45.8c-1.4,0-2.6-1.2-2.6-2.6v-39c0-1.4,1.2-2.6,2.6-2.6h45.8c1.4,0,2.6,1.2,2.6,2.6v39
			C186.5,71.5,185.3,72.7,183.9,72.7z"/>
		<rect x="135.5" y="40" class="st30" width="51" height="1"/>
		<g>
			<path class="st31" d="M146.5,38.1h-1.3v-3.7H144v-1h3.6v1h-1.2v3.7H146.5z"/>
			<path class="st31" d="M152.8,35.8c0,0.8-0.2,1.4-0.6,1.8c-0.4,0.4-1,0.6-1.7,0.6c-0.7,0-1.3-0.2-1.7-0.6c-0.4-0.4-0.6-1-0.6-1.8
				s0.2-1.4,0.6-1.8c0.4-0.4,1-0.6,1.7-0.6c0.8,0,1.3,0.2,1.7,0.6S152.8,35,152.8,35.8z M149.5,35.8c0,0.9,0.3,1.4,1,1.4
				c0.3,0,0.6-0.1,0.7-0.3c0.2-0.2,0.2-0.6,0.2-1c0-0.5-0.1-0.8-0.2-1c-0.2-0.2-0.4-0.3-0.7-0.3C149.9,34.4,149.5,34.8,149.5,35.8z"
				/>
			<path class="st31" d="M159.4,35.7c0,0.8-0.2,1.4-0.7,1.8c-0.4,0.4-1,0.6-1.8,0.6h-1.5v-4.7h1.6c0.8,0,1.3,0.2,1.8,0.6
				C159.2,34.4,159.4,34.9,159.4,35.7z M158.1,35.7c0-0.4-0.1-0.8-0.3-1s-0.4-0.3-0.8-0.3h-0.4v2.7h0.3c0.4,0,0.7-0.1,0.9-0.3
				S158.1,36.2,158.1,35.7z"/>
			<path class="st31" d="M164.7,35.8c0,0.8-0.2,1.4-0.6,1.8s-1,0.6-1.7,0.6s-1.3-0.2-1.7-0.6c-0.4-0.4-0.6-1-0.6-1.8
				s0.2-1.4,0.6-1.8s1-0.6,1.7-0.6c0.8,0,1.3,0.2,1.7,0.6S164.7,35,164.7,35.8z M161.4,35.8c0,0.9,0.3,1.4,1,1.4
				c0.3,0,0.6-0.1,0.7-0.3c0.2-0.2,0.2-0.6,0.2-1c0-0.5-0.1-0.8-0.2-1c-0.2-0.2-0.4-0.3-0.7-0.3C161.8,34.4,161.4,34.8,161.4,35.8z"
				/>
			<path class="st31" d="M167.3,38.1v-4.7h1.3v3.7h1.8v1H167.3z"/>
			<path class="st31" d="M171.2,38.1v-4.7h1.3v4.7H171.2z"/>
			<path class="st31" d="M176.6,36.7c0,0.3-0.1,0.6-0.2,0.8c-0.1,0.2-0.4,0.4-0.6,0.5s-0.6,0.2-1,0.2c-0.3,0-0.6,0-0.8-0.1
				c-0.2,0-0.4-0.1-0.7-0.2v-1.1c0.2,0.1,0.5,0.2,0.8,0.3s0.5,0.1,0.7,0.1s0.3,0,0.4-0.1s0.1-0.2,0.1-0.3s0-0.1-0.1-0.2
				c0,0-0.1-0.1-0.2-0.1s-0.3-0.2-0.6-0.3s-0.5-0.3-0.7-0.4c-0.2-0.1-0.3-0.3-0.3-0.5s-0.1-0.4-0.1-0.6c0-0.4,0.2-0.8,0.5-1
				s0.8-0.4,1.3-0.4s1,0.1,1.5,0.3l-0.4,1c-0.4-0.2-0.8-0.3-1.1-0.3c-0.2,0-0.3,0-0.4,0.1c-0.1,0.1-0.1,0.1-0.1,0.2
				c0,0.1,0,0.2,0.1,0.3s0.4,0.2,0.8,0.4c0.4,0.2,0.7,0.4,0.9,0.6C176.5,36.1,176.6,36.4,176.6,36.7z"/>
			<path class="st31" d="M179.4,38.1h-1.3v-3.7H177v-1h3.6v1h-1.2L179.4,38.1L179.4,38.1z"/>
		</g>
		<path class="st32" d="M170,49.8h-28.8c-1,0-1.8-0.8-1.8-1.8l0,0c0-1,0.8-1.8,1.8-1.8H170c1,0,1.8,0.8,1.8,1.8l0,0
			C171.8,49,171,49.8,170,49.8z"/>
		<path class="st32" d="M170,57.5h-28.8c-1,0-1.8-0.8-1.8-1.8l0,0c0-1,0.8-1.8,1.8-1.8H170c1,0,1.8,0.8,1.8,1.8l0,0
			C171.8,56.7,171,57.5,170,57.5z"/>
		<path class="st32" d="M170,65.3h-28.8c-1,0-1.8-0.8-1.8-1.8l0,0c0-1,0.8-1.8,1.8-1.8H170c1,0,1.8,0.8,1.8,1.8l0,0
			C171.8,64.5,171,65.3,170,65.3z"/>
		<polyline class="st33" points="176.2,47.5 178.6,50 181.9,45.8 		"/>
		<polyline class="st33" points="176.2,55.2 178.6,57.8 181.9,53.6 		"/>
		<polyline class="st33" points="176.2,63 178.6,65.5 181.9,61.3 		"/>
	</g>
	<g class="st3">
		
			<linearGradient id="SVGID_19_" gradientUnits="userSpaceOnUse" x1="268.8" y1="210.9521" x2="268.8" y2="193.4303" gradientTransform="matrix(1 0 0 -1 0 364)">
			<stop  offset="0" style="stop-color:#1385A4"/>
			<stop  offset="1.706618e-02" style="stop-color:#218CA9"/>
			<stop  offset="7.932097e-02" style="stop-color:#4FA4BB"/>
			<stop  offset="0.1473" style="stop-color:#79BACB"/>
			<stop  offset="0.2196" style="stop-color:#9DCDD9"/>
			<stop  offset="0.2973" style="stop-color:#BCDCE5"/>
			<stop  offset="0.3822" style="stop-color:#D4E9EF"/>
			<stop  offset="0.4771" style="stop-color:#E8F3F6"/>
			<stop  offset="0.5876" style="stop-color:#F5FAFB"/>
			<stop  offset="0.7282" style="stop-color:#FDFEFE"/>
			<stop  offset="1" style="stop-color:#FFFFFF"/>
		</linearGradient>
		<path class="st34" d="M308.9,177.7l1.3-15.5c0.2-2.1-1.4-3.9-3.5-3.9h-10.9h-54h-10.9c-2.1,0-3.7,1.7-3.5,3.9l1.3,15.5H308.9z"/>
		<g class="st35">
			<path class="st32" d="M241.7,158.3h64.9c2.1,0,3.7-1.7,3.5-3.9l-3.9-46.8c-0.1-1.7-1.5-3-3.2-3h-69.7l4.2,49.7
				C237.7,156.6,239.6,158.3,241.7,158.3z"/>
		</g>
		<path class="st29" d="M295.7,158.3h-64.9c-2.1,0-3.7-1.7-3.5-3.9l4.2-49.7H304l-4.2,49.7C299.7,156.6,297.8,158.3,295.7,158.3z"/>
		<polygon class="st32" points="302.8,119.1 230.2,119.1 231.4,105 304,105 		"/>
		<g>
			<path class="st29" d="M241.3,114.3h-1.5l0.5-5.7h3.4l-0.1,1.2h-1.9l-0.1,1.1h1.7l-0.1,1.2h-1.7L241.3,114.3z"/>
			<path class="st29" d="M249.1,114.3h-3.4l0.5-5.7h3.4l-0.1,1.2h-1.8l-0.1,0.9h1.7l-0.1,1.2h-1.7l-0.1,1.1h1.8L249.1,114.3z"/>
			<path class="st29" d="M252.1,108.6h2c0.8,0,1.3,0.1,1.7,0.3c0.4,0.2,0.5,0.6,0.5,1.1c0,0.3-0.1,0.6-0.3,0.8
				c-0.2,0.2-0.4,0.4-0.7,0.4l0,0c0.3,0.1,0.6,0.3,0.7,0.5c0.1,0.2,0.2,0.5,0.2,0.9c0,0.5-0.3,0.9-0.7,1.2c-0.4,0.3-1,0.4-1.6,0.4
				h-2.2L252.1,108.6z M253.4,111.9l-0.1,1.2h0.5c0.5,0,0.7-0.2,0.8-0.6c0-0.2,0-0.3-0.2-0.4c-0.1-0.1-0.3-0.2-0.5-0.2H253.4z
				 M253.5,110.8h0.5c0.2,0,0.4,0,0.5-0.1s0.2-0.2,0.2-0.4c0-0.3-0.2-0.5-0.7-0.5h-0.4L253.5,110.8z"/>
			<path class="st29" d="M260.3,112.2l-0.2,2.1h-1.5l0.5-5.7h1.9c1.5,0,2.3,0.6,2.2,1.7c-0.1,0.7-0.4,1.2-1.1,1.5l1.5,2.5h-1.7
				l-1-2.1H260.3z M260.4,111.1h0.3c0.5,0,0.8-0.2,0.9-0.7c0-0.4-0.2-0.6-0.7-0.6h-0.3L260.4,111.1z"/>
			<path class="st29" d="M270.9,108.6l-0.3,3.4c-0.1,0.7-0.3,1.3-0.8,1.7c-0.5,0.4-1.1,0.6-1.9,0.6c-0.8,0-1.4-0.2-1.7-0.6
				c-0.4-0.4-0.5-1-0.5-1.7l0.3-3.5h1.5l-0.3,3.3c0,0.4,0,0.7,0.2,0.9c0.1,0.2,0.3,0.3,0.6,0.3s0.5-0.1,0.7-0.3
				c0.2-0.2,0.3-0.5,0.3-0.9l0.3-3.3L270.9,108.6L270.9,108.6z"/>
			<path class="st29" d="M276.7,114.3l-0.2-1.1h-1.8l-0.4,1.1h-1.7l2.3-5.7h2.1l1.4,5.7H276.7z M276.3,112l-0.2-0.9
				c0-0.2-0.1-0.5-0.1-0.8c-0.1-0.3-0.1-0.6-0.1-0.7c0,0.1-0.1,0.4-0.2,0.7c-0.1,0.3-0.3,0.9-0.6,1.8L276.3,112L276.3,112z"/>
			<path class="st29" d="M282.4,112.2l-0.2,2.1h-1.5l0.5-5.7h1.9c1.5,0,2.3,0.6,2.2,1.7c-0.1,0.7-0.4,1.2-1.1,1.5l1.5,2.5H284
				l-1-2.1H282.4z M282.5,111.1h0.3c0.5,0,0.8-0.2,0.9-0.7c0-0.4-0.2-0.6-0.7-0.6h-0.3L282.5,111.1z"/>
			<path class="st29" d="M290,110.7l1.2-2.1h1.7l-2.2,3.5l-0.2,2.2H289l0.2-2.2l-1.6-3.5h1.7L290,110.7z"/>
		</g>
		<g>
			<polygon class="st32" points="241.8,122.7 235.5,122.7 235.6,121.8 241.8,121.8 			"/>
			<polygon class="st32" points="251,122.7 244.7,122.7 244.8,121.8 251,121.8 			"/>
			<polygon class="st32" points="260.2,122.7 253.9,122.7 254,121.8 260.2,121.8 			"/>
			<polygon class="st32" points="269.3,122.7 263.1,122.7 263.1,121.8 269.4,121.8 			"/>
			<polygon class="st32" points="278.5,122.7 272.3,122.7 272.3,121.8 278.6,121.8 			"/>
			<polygon class="st32" points="287.7,122.7 281.4,122.7 281.5,121.8 287.8,121.8 			"/>
			<polygon class="st32" points="296.9,122.7 290.6,122.7 290.7,121.8 297,121.8 			"/>
		</g>
		<g>
			<g>
				<path class="st36" d="M240.3,127.4c-0.1,1.1-1.1,2-2.2,2c-1.1,0-2-0.9-1.9-2c0.1-1.1,1.1-2,2.2-2
					C239.5,125.4,240.4,126.3,240.3,127.4z"/>
				<path class="st36" d="M249.5,127.4c-0.1,1.1-1.1,2-2.2,2s-2-0.9-1.9-2c0.1-1.1,1.1-2,2.2-2C248.7,125.4,249.6,126.3,249.5,127.4
					z"/>
				<path class="st37" d="M258.7,127.4c-0.1,1.1-1.1,2-2.2,2c-1.1,0-2-0.9-1.9-2c0.1-1.1,1.1-2,2.2-2
					C257.9,125.4,258.8,126.3,258.7,127.4z"/>
				<path class="st37" d="M267.9,127.4c-0.1,1.1-1.1,2-2.2,2c-1.1,0-2-0.9-1.9-2c0.1-1.1,1.1-2,2.2-2
					C267.1,125.4,267.9,126.3,267.9,127.4z"/>
				<path class="st37" d="M277,127.4c-0.1,1.1-1.1,2-2.2,2c-1.1,0-2-0.9-1.9-2c0.1-1.1,1.1-2,2.2-2
					C276.3,125.4,277.1,126.3,277,127.4z"/>
				<path class="st37" d="M286.2,127.4c-0.1,1.1-1.1,2-2.2,2c-1.1,0-2-0.9-1.9-2c0.1-1.1,1.1-2,2.2-2S286.3,126.3,286.2,127.4z"/>
				<path class="st37" d="M295.4,127.4c-0.1,1.1-1.1,2-2.2,2s-2-0.9-1.9-2c0.1-1.1,1.1-2,2.2-2C294.7,125.4,295.5,126.3,295.4,127.4
					z"/>
			</g>
		</g>
		<g>
			<g>
				<path class="st32" d="M239.7,134.6c-0.1,1.1-1.1,2-2.2,2c-1.1,0-2-0.9-1.9-2s1.1-2,2.2-2S239.8,133.5,239.7,134.6z"/>
				<path class="st37" d="M248.9,134.6c-0.1,1.1-1.1,2-2.2,2s-2-0.9-1.9-2s1.1-2,2.2-2C248.1,132.6,249,133.5,248.9,134.6z"/>
				<path class="st37" d="M258.1,134.6c-0.1,1.1-1.1,2-2.2,2s-2-0.9-1.9-2s1.1-2,2.2-2C257.3,132.6,258.2,133.5,258.1,134.6z"/>
				<path class="st37" d="M267.2,134.6c-0.1,1.1-1.1,2-2.2,2s-2-0.9-1.9-2s1.1-2,2.2-2C266.5,132.6,267.3,133.5,267.2,134.6z"/>
				<path class="st37" d="M276.4,134.6c-0.1,1.1-1.1,2-2.2,2c-1.1,0-2-0.9-1.9-2c0.1-1.1,1.1-2,2.2-2S276.5,133.5,276.4,134.6z"/>
				<path class="st37" d="M285.6,134.6c-0.1,1.1-1.1,2-2.2,2c-1.1,0-2-0.9-1.9-2c0.1-1.1,1.1-2,2.2-2
					C284.9,132.6,285.7,133.5,285.6,134.6z"/>
				<path class="st37" d="M294.8,134.6c-0.1,1.1-1.1,2-2.2,2s-2-0.9-1.9-2s1.1-2,2.2-2S294.9,133.5,294.8,134.6z"/>
			</g>
		</g>
		<g>
			<g>
				<path class="st32" d="M239.1,141.8c-0.1,1.1-1.1,2-2.2,2s-2-0.9-1.9-2s1.1-2,2.2-2S239.2,140.7,239.1,141.8z"/>
				<path class="st37" d="M248.3,141.8c-0.1,1.1-1.1,2-2.2,2c-1.1,0-2-0.9-1.9-2s1.1-2,2.2-2S248.4,140.7,248.3,141.8z"/>
				<path class="st37" d="M257.4,141.8c-0.1,1.1-1.1,2-2.2,2s-2-0.9-1.9-2s1.1-2,2.2-2C256.7,139.8,257.5,140.7,257.4,141.8z"/>
				<path class="st37" d="M266.6,141.8c-0.1,1.1-1.1,2-2.2,2c-1.1,0-2-0.9-1.9-2c0.1-1.1,1.1-2,2.2-2
					C265.9,139.8,266.7,140.7,266.6,141.8z"/>
				<path class="st37" d="M275.8,141.8c-0.1,1.1-1.1,2-2.2,2s-2-0.9-1.9-2s1.1-2,2.2-2C275.1,139.8,275.9,140.7,275.8,141.8z"/>
				<path class="st37" d="M285,141.8c-0.1,1.1-1.1,2-2.2,2c-1.1,0-2-0.9-1.9-2c0.1-1.1,1.1-2,2.2-2S285.1,140.7,285,141.8z"/>
				<path class="st37" d="M294.2,141.8c-0.1,1.1-1.1,2-2.2,2s-2-0.9-1.9-2s1.1-2,2.2-2C293.5,139.8,294.3,140.7,294.2,141.8z"/>
			</g>
		</g>
		<g>
			<g>
				<path class="st32" d="M238.5,149.1c-0.1,1.1-1.1,2-2.2,2c-1.1,0-2-0.9-1.9-2s1.1-2,2.2-2C237.7,147,238.6,147.9,238.5,149.1z"/>
				<path class="st37" d="M247.7,149.1c-0.1,1.1-1.1,2-2.2,2s-2-0.9-1.9-2s1.1-2,2.2-2C246.9,147,247.7,147.9,247.7,149.1z"/>
				<path class="st37" d="M256.8,149.1c-0.1,1.1-1.1,2-2.2,2c-1.1,0-2-0.9-1.9-2s1.1-2,2.2-2C256.1,147,256.9,147.9,256.8,149.1z"/>
				<path class="st37" d="M266,149.1c-0.1,1.1-1.1,2-2.2,2c-1.1,0-2-0.9-1.9-2c0.1-1.1,1.1-2,2.2-2S266.1,147.9,266,149.1z"/>
				<path class="st36" d="M275.2,149.1c-0.1,1.1-1.1,2-2.2,2c-1.1,0-2-0.9-1.9-2s1.1-2,2.2-2C274.5,147,275.3,147.9,275.2,149.1z"/>
				<path class="st36" d="M284.4,149.1c-0.1,1.1-1.1,2-2.2,2c-1.1,0-2-0.9-1.9-2c0.1-1.1,1.1-2,2.2-2S284.5,147.9,284.4,149.1z"/>
				<path class="st36" d="M293.6,149.1c-0.1,1.1-1.1,2-2.2,2s-2-0.9-1.9-2s1.1-2,2.2-2C292.9,147,293.7,147.9,293.6,149.1z"/>
			</g>
		</g>
	</g>
	<path class="st38" d="M181.6,117c0,0.5-0.4,0.9-0.9,0.9s-0.9-0.4-0.9-0.9s0.4-0.9,0.9-0.9C181.1,116.1,181.6,116.5,181.6,117z"/>
	<path class="st39" d="M222.1,99.4H187c-1.8,0-3.3-1.5-3.3-3.3V85.5c0-1.8,1.5-3.3,3.3-3.3h35.1c1.8,0,3.3,1.5,3.3,3.3v10.6
		C225.4,97.9,223.9,99.4,222.1,99.4z"/>
	<path class="st38" d="M220.9,98.7h-35.1c-1.8,0-3.3-1.5-3.3-3.3V84.8c0-1.8,1.5-3.3,3.3-3.3h35.1c1.8,0,3.3,1.5,3.3,3.3v10.6
		C224.2,97.2,222.7,98.7,220.9,98.7z"/>
	<g class="st3">
		<path class="st31" d="M196.4,89.9c0,2.4-0.9,3.7-2.4,3.7c-1.4,0-2.3-1.3-2.3-3.6c0-2.3,1-3.6,2.4-3.6
			C195.6,86.4,196.4,87.7,196.4,89.9z M192.6,90c0,1.8,0.6,2.8,1.4,2.8c1,0,1.4-1.1,1.4-2.9c0-1.7-0.4-2.8-1.4-2.8
			C193.2,87.1,192.6,88.1,192.6,90z"/>
		<path class="st31" d="M201.5,87.1c-0.2,0-0.4,0-0.8,0c-0.5,0.1-1.1,0.3-1.4,0.7c-0.5,0.4-0.8,1-0.9,1.8l0,0
			c0.4-0.5,0.9-0.7,1.6-0.7c1.2,0,2,0.9,2,2.1c0,1.3-0.9,2.5-2.4,2.5c-1.4,0-2.3-1.2-2.3-2.9c0-1.5,0.5-2.6,1.2-3.2
			c0.5-0.5,1.3-0.8,2-0.9c0.3-0.1,0.6-0.1,0.9-0.1L201.5,87.1L201.5,87.1z M201.2,91.1c0-0.9-0.5-1.5-1.3-1.5
			c-0.6,0-1.1,0.3-1.4,0.7c-0.1,0.1-0.1,0.2-0.1,0.3c0,1.2,0.4,2.1,1.4,2.1C200.6,92.8,201.2,92.1,201.2,91.1z"/>
		<path class="st31" d="M202.8,88.1c0-0.4,0.3-0.7,0.6-0.7c0.4,0,0.6,0.3,0.6,0.7c0,0.4-0.2,0.7-0.6,0.7S202.8,88.5,202.8,88.1z
			 M202.8,91.9c0-0.4,0.3-0.7,0.6-0.7c0.4,0,0.6,0.3,0.6,0.7c0,0.4-0.2,0.7-0.6,0.7C203,92.5,202.8,92.3,202.8,91.9z"/>
		<path class="st31" d="M209.5,89.9c0,2.4-0.9,3.7-2.4,3.7c-1.4,0-2.3-1.3-2.3-3.6c0-2.3,1-3.6,2.4-3.6
			C208.7,86.4,209.5,87.7,209.5,89.9z M205.8,90c0,1.8,0.6,2.8,1.4,2.8c1,0,1.4-1.1,1.4-2.9c0-1.7-0.4-2.8-1.4-2.8
			C206.4,87.1,205.8,88.1,205.8,90z"/>
		<path class="st31" d="M215,89.9c0,2.4-0.9,3.7-2.4,3.7c-1.4,0-2.3-1.3-2.3-3.6c0-2.3,1-3.6,2.4-3.6C214.2,86.4,215,87.7,215,89.9z
			 M211.2,90c0,1.8,0.6,2.8,1.4,2.8c1,0,1.4-1.1,1.4-2.9c0-1.7-0.4-2.8-1.4-2.8C211.8,87.1,211.2,88.1,211.2,90z"/>
	</g>
</g>
<g class="st0">
	
		<linearGradient id="SVGID_20_" gradientUnits="userSpaceOnUse" x1="683.515" y1="-1668.5223" x2="3701.7158" y2="-1668.5223" gradientTransform="matrix(6.563689e-02 0 0 -6.563689e-02 0.9344 24.8307)">
		<stop  offset="0" style="stop-color:#E47F62"/>
		<stop  offset="1" style="stop-color:#D93268"/>
	</linearGradient>
	<path class="st40" d="M243.9,134.3c0,54.7-44.3,99.1-99,99.1c-54.7,0-99.1-44.3-99.1-99.1c0-54.7,44.3-99,99.1-99
		C199.6,35.3,243.9,79.6,243.9,134.3z"/>
	
		<linearGradient id="SVGID_21_" gradientUnits="userSpaceOnUse" x1="930.6192" y1="-1668.218" x2="3455.2202" y2="-1668.218" gradientTransform="matrix(6.563689e-02 0 0 -6.563689e-02 0.9344 24.8307)">
		<stop  offset="0" style="stop-color:#F9E8DC"/>
		<stop  offset="1" style="stop-color:#F9BBAD;stop-opacity:0.9686"/>
	</linearGradient>
	<path class="st41" d="M227.7,134.3c0,45.8-37.1,82.9-82.9,82.9c-45.8,0-82.9-37.1-82.9-82.9c0-45.7,37.1-82.9,82.9-82.9
		C190.6,51.5,227.7,88.6,227.7,134.3z"/>
	<path class="st38" d="M222.9,134.3c0,43.1-35,78-78,78c-43.1,0-78-34.9-78-78c0-43.1,34.9-78,78-78
		C187.9,56.3,222.9,91.3,222.9,134.3z"/>
	<defs>
		<filter id="Adobe_OpacityMaskFilter" filterUnits="userSpaceOnUse" x="139" y="130.6" width="11.8" height="11.7">
			<feColorMatrix  type="matrix" values="1 0 0 0 0  0 1 0 0 0  0 0 1 0 0  0 0 0 1 0"/>
		</filter>
	</defs>
	<mask maskUnits="userSpaceOnUse" x="139" y="130.6" width="11.8" height="11.7" id="id0_2_" class="st3">
		
			<linearGradient id="SVGID_22_" gradientUnits="userSpaceOnUse" x1="2103.1101" y1="-1700.4755" x2="2282.3884" y2="-1700.4755" gradientTransform="matrix(6.563689e-02 0 0 -6.563689e-02 0.9344 24.8307)">
			<stop  offset="0" style="stop-color:#FFFFFF;stop-opacity:0.2"/>
			<stop  offset="1" style="stop-color:#FFFFFF;stop-opacity:0.1922"/>
		</linearGradient>
		<rect x="138.9" y="130.5" style="fill:url(#SVGID_22_);filter:url(#Adobe_OpacityMaskFilter);" width="11.9" height="11.9"/>
	</mask>
	<path class="st43" d="M150.7,136.4c0,3.2-2.6,5.9-5.9,5.9c-3.3,0-5.9-2.6-5.9-5.9c0-3.3,2.6-5.9,5.9-5.9
		C148.1,130.6,150.7,133.2,150.7,136.4z"/>
	<polygon class="st3" points="141.9,64.7 141.9,81.8 138,81.8 138,68.8 134.9,69.6 134,66.3 138.4,64.7 	"/>
	<path class="st3" d="M144.1,79l5.8-6c1-1,1.8-2,1.8-3c0-1.1-0.7-1.8-1.8-1.8c-1.2,0-2.1,0.8-2.6,1.8l-3.3-1.9
		c1.1-2.6,3.4-3.8,5.8-3.8c3.1,0,5.8,2,5.8,5.5c0,2-1.1,3.8-2.7,5.4L150,78h5.8v3.8h-11.7V79z"/>
	<path class="st3" d="M151.2,202.6c0,3.6-2.6,6.1-6.4,6.1c-3.8,0-6.4-2.5-6.4-6.1c0-1.3,0.4-2.5,1-3.5l5.2-7.9h4.5l-3.7,5.4
		C148.9,196.8,151.2,199.3,151.2,202.6z M147.3,202.6L147.3,202.6c0-1.5-1.2-2.4-2.4-2.4c-1.3,0-2.5,0.8-2.5,2.4
		c0,1.5,1.2,2.4,2.5,2.4C146.1,205,147.3,204.1,147.3,202.6z"/>
	<path class="st3" d="M90.8,135.1l-5.2,7.9h-4.5l3.7-5.4c-3.4-0.3-5.7-2.7-5.7-6c0-3.6,2.6-6,6.4-6c3.8,0,6.4,2.5,6.4,6
		C91.8,133,91.5,134.2,90.8,135.1z M85.4,134L85.4,134c1.4,0,2.5-0.8,2.5-2.4s-1.1-2.4-2.5-2.4c-1.3,0-2.4,0.9-2.4,2.4
		S84.1,134,85.4,134z"/>
	<path class="st3" d="M210.4,137.4c0,3.8-2.9,5.7-6.2,5.7c-2.6,0-5-1.2-6-3.7l3.4-2c0.4,1.1,1.1,1.8,2.6,1.8c1.6,0,2.3-0.9,2.3-1.9
		c0-1.1-0.7-1.9-2.3-1.9h-0.8l-1.5-2.2l3.1-4h-6.3v-3.6h11v3.2l-3,3.8C208.9,133.3,210.4,135,210.4,137.4z"/>
	<path class="st3" d="M151.2,134.3c0,3.5-2.8,6.4-6.4,6.4c-3.5,0-6.4-2.9-6.4-6.4c0-3.5,2.9-6.4,6.4-6.4
		C148.4,128,151.2,130.8,151.2,134.3z"/>
	<path class="st3" d="M186.9,79.7c0,1.6-1.3,2.8-2.8,2.8c-1.6,0-2.8-1.2-2.8-2.8c0-1.6,1.2-2.8,2.8-2.8
		C185.6,76.9,186.9,78.1,186.9,79.7z"/>
	<path class="st3" d="M204.2,100.5c0,1.6-1.2,2.8-2.8,2.8s-2.8-1.2-2.8-2.8c0-1.5,1.2-2.8,2.8-2.8S204.2,99,204.2,100.5z"/>
	<path class="st3" d="M186.9,189c0-1.6-1.3-2.8-2.8-2.8c-1.6,0-2.8,1.2-2.8,2.8c0,1.5,1.2,2.8,2.8,2.8
		C185.6,191.8,186.9,190.5,186.9,189z"/>
	<path class="st3" d="M204.2,168.2c0-1.5-1.2-2.8-2.8-2.8s-2.8,1.3-2.8,2.8c0,1.6,1.2,2.8,2.8,2.8S204.2,169.7,204.2,168.2z"/>
	<path class="st3" d="M102.8,79.7c0,1.6,1.2,2.8,2.8,2.8c1.5,0,2.8-1.2,2.8-2.8c0-1.6-1.3-2.8-2.8-2.8
		C104.1,76.9,102.8,78.1,102.8,79.7z"/>
	<path class="st3" d="M85.5,100.5c0,1.6,1.3,2.8,2.8,2.8c1.6,0,2.8-1.2,2.8-2.8c0-1.5-1.2-2.8-2.8-2.8C86.8,97.7,85.5,99,85.5,100.5
		z"/>
	<path class="st3" d="M102.8,189c0-1.6,1.2-2.8,2.8-2.8c1.5,0,2.8,1.2,2.8,2.8c0,1.5-1.3,2.8-2.8,2.8
		C104.1,191.8,102.8,190.5,102.8,189z"/>
	<path class="st3" d="M85.5,168.2c0-1.5,1.3-2.8,2.8-2.8c1.6,0,2.8,1.3,2.8,2.8c0,1.6-1.2,2.8-2.8,2.8
		C86.8,171,85.5,169.7,85.5,168.2z"/>
	<path class="st3" d="M147.3,91.1c0,1.4-1.1,2.4-2.4,2.4c-1.4,0-2.5-1.1-2.5-2.4s1.1-2.4,2.5-2.4C146.2,88.7,147.3,89.8,147.3,91.1z
		"/>
	<path class="st3" d="M144.9,169.8c1.4,0,2.4,1.1,2.4,2.4c0,1.4-1.1,2.4-2.4,2.4c-1.4,0-2.5-1.1-2.5-2.4
		C142.4,170.9,143.5,169.8,144.9,169.8z"/>
	<path class="st44" d="M191.7,251.3l-5.8,9.4c-4.2,6.8-7.2,14.2-9,22c0,0-2,13.1-3.7,24.2c0,0.2,0,0.3,0,0.4
		c0.7,1.8-1.5,2.4-1.2,3.8c-0.2,0.3-0.4,0.6-0.5,0.9c-0.6,1.2-2.8,9.1-3.9,9.3c-1.9,1.7,0.5,2.2,0.4,3.4c0,0.2,0,0.2,0,0.2h9.6
		l0.5-1.2c0-0.1,0.1-0.2,0.2-0.3c1.9-1.3,2.2-2.9,2.3-4.6c0-0.2,0-0.3,0-0.5c0.6-0.5,1.1-1,1.4-1.5c0.1-0.1,0.2-0.2,0.2-0.4
		c-1.4-3.4,1.4-3.6,2.6-6.9c0-0.2,0-0.3,0-0.5c0-0.1,0.1-0.2,0.2-0.3c10.3-22.5,27.3-59.8,27.3-59.8l13.4-83.8l-39.8-2.6
		L191.7,251.3z"/>
	<path class="st45" d="M216.7,301.8c-0.3-8.5-1-15.3-0.1-16.8c0.1-0.2,0.2-0.4,0.3-0.5c-2.2-2.4-4.4-4.8-6.6-7.2
		c-3.1,1.3-9.1,3.7-9.6,5.7c-0.4,2.2,2.7,6.7,5.3,9.3c2.9,2.9,1.6,4.8,3.6,8.4c1.3,2.3,8.9,12.7,10.1,10.3
		C220.4,309.5,216.7,302,216.7,301.8z"/>
	<path class="st45" d="M190.8,336c-6.8-5-12.6-8.7-13.3-10.3c-0.1-0.2-0.2-0.4-0.2-0.6c-3.2,0.3-6.4,0.4-9.7,0.7
		c-0.9,3.2-2.8,9.5-1.5,11c1.4,1.7,6.9,2,10.6,1.6c4-0.5,4.8,1.8,8.8,2.4c2.6,0.4,15.5,0.9,14.3-1.5
		C199,337.8,190.9,336.1,190.8,336z"/>
	<path class="st45" d="M184.1,158c-2,9.7-2.5,18.5,3.8,26c8.4,10.1,70.7,42.5,66.6,44.2c-9.7,3.9-22.5,21.4-34.1,37
		c-0.1,0.1-0.2,0.2-0.2,0.3c-0.4,2.9-3.6,2.9-5.4,4.9c-0.1,0.1-0.2,0.3-0.2,0.4c-0.4,1.1-0.2,2.7-0.9,3.1c-0.1,0.1-0.1,0.2-0.2,0.3
		c-0.6,0.7-1.1,1.4-1.7,2.1c2.4,3.2,3.3,4.4,5.7,7.6c0.1,0,0.4-0.3,0.8-0.6c0.1-0.1,0.2-0.2,0.4-0.3c3.5,0.7,3.5-0.9,4-3.3
		c0.1-0.1,0.3-0.2,0.4-0.3c0.1-0.1,0.2-0.2,0.4-0.3c3.5,0.6,2.7-1.1,4.3-3.5c0.1-0.1,0.3-0.2,0.4-0.4c15.1-12.3,41.9-34.4,51.3-43.1
		c1.9-1.8,2.1-4.8,0.4-6.8c-14.4-17.6-45.5-54.7-50.1-59.4c-2.9-3-3.8-5-3.7-8H184.1z"/>
	<path class="st44" d="M184.1,158c-2,9.7-2.5,18.5,3.8,26c8.4,10.1,70.7,42.5,66.6,44.2c-9.7,3.9-22.5,21.4-34.1,37
		c-0.1,0.1-0.2,0.2-0.2,0.3c-0.4,2.9-3.6,2.9-5.4,4.9c-0.1,0.1-0.2,0.3-0.2,0.4c-0.4,1.1-0.2,2.7-0.9,3.1c-0.1,0.1-0.1,0.2-0.2,0.3
		c-0.6,0.7-1.1,1.4-1.7,2.1c2.4,3.2,3.3,4.4,5.7,7.6c0.1,0,0.4-0.3,0.8-0.6c0.1-0.1,0.2-0.2,0.4-0.3c3.5,0.7,3.5-0.9,4-3.3
		c0.1-0.1,0.3-0.2,0.4-0.3c0.1-0.1,0.2-0.2,0.4-0.3c3.5,0.6,2.7-1.1,4.3-3.5c0.1-0.1,0.3-0.2,0.4-0.4c15.1-12.3,41.9-34.4,51.3-43.1
		c1.9-1.8,2.1-4.8,0.4-6.8c-14.4-17.6-45.5-54.7-50.1-59.4c-2.9-3-3.8-5-3.7-8H184.1z"/>
	<polygon class="st46" points="255.3,122.3 273.6,132.7 288.4,98.9 271.9,89.7 	"/>
	<polygon class="st46" points="253.8,120.7 271.6,129.3 288.6,98.5 270.3,88.1 	"/>
	<polygon class="st47" points="253.8,120.7 271.6,129.3 288.6,98.5 270.3,88.1 	"/>
	<defs>
		<filter id="Adobe_OpacityMaskFilter_1_" filterUnits="userSpaceOnUse" x="225.3" y="120.6" width="29.4" height="13.3">
			<feColorMatrix  type="matrix" values="1 0 0 0 0  0 1 0 0 0  0 0 1 0 0  0 0 0 1 0"/>
		</filter>
	</defs>
	<mask maskUnits="userSpaceOnUse" x="225.3" y="120.6" width="29.4" height="13.3" id="id2_2_" class="st3">
		
			<linearGradient id="SVGID_23_" gradientUnits="userSpaceOnUse" x1="3521.147" y1="-1559.5774" x2="3764.3987" y2="-1559.5774" gradientTransform="matrix(6.563689e-02 0 0 -6.563689e-02 0.9344 24.8307)">
			<stop  offset="0" style="stop-color:#FFFFFF"/>
			<stop  offset="1" style="stop-color:#FFFFFF;stop-opacity:0.9686"/>
		</linearGradient>
		<rect x="221" y="111" style="fill:url(#SVGID_23_);filter:url(#Adobe_OpacityMaskFilter_1_);" width="38" height="32.3"/>
	</mask>
	
		<linearGradient id="SVGID_24_" gradientUnits="userSpaceOnUse" x1="3521.147" y1="-1559.8817" x2="3764.3987" y2="-1559.8817" gradientTransform="matrix(6.563689e-02 0 0 -6.563689e-02 0.9344 24.8307)">
		<stop  offset="0" style="stop-color:#F9E8DC"/>
		<stop  offset="1" style="stop-color:#F9BBAD"/>
	</linearGradient>
	<path class="st49" d="M226.4,133.8c7.6-1.9,28.3-8.7,28.3-8.7l-2.6-4.5l-26.8,0C226.5,122.9,225.6,131.5,226.4,133.8z"/>
	<defs>
		<filter id="Adobe_OpacityMaskFilter_2_" filterUnits="userSpaceOnUse" x="250.3" y="116.2" width="15.1" height="8.9">
			<feColorMatrix  type="matrix" values="1 0 0 0 0  0 1 0 0 0  0 0 1 0 0  0 0 0 1 0"/>
		</filter>
	</defs>
	<mask maskUnits="userSpaceOnUse" x="250.3" y="116.2" width="15.1" height="8.9" id="id4_2_" class="st3">
		
			<linearGradient id="SVGID_25_" gradientUnits="userSpaceOnUse" x1="3799.7234" y1="-1459.762" x2="4029.9688" y2="-1459.762" gradientTransform="matrix(6.563689e-02 0 0 -6.563689e-02 0.9344 24.8307)">
			<stop  offset="0" style="stop-color:#FFFFFF"/>
			<stop  offset="1" style="stop-color:#FFFFFF;stop-opacity:0.9686"/>
		</linearGradient>
		<rect x="250.3" y="116.1" style="fill:url(#SVGID_25_);filter:url(#Adobe_OpacityMaskFilter_2_);" width="15.3" height="9.1"/>
	</mask>
	
		<linearGradient id="SVGID_26_" gradientUnits="userSpaceOnUse" x1="3799.687" y1="-1459.7126" x2="4029.8726" y2="-1459.7126" gradientTransform="matrix(6.563689e-02 0 0 -6.563689e-02 0.9344 24.8307)">
		<stop  offset="0" style="stop-color:#F9E8DC"/>
		<stop  offset="1" style="stop-color:#F9BBAD"/>
	</linearGradient>
	<path class="st51" d="M262.5,122.9c1.2-0.5,2.6-1.2,2.9-2.4c0.2-0.8,0-1.7-0.6-2.4c-0.5-0.7-1.2-1.2-1.9-1.8
		c-1.2-1-12.4,3.2-12.6,6.7c0,1.1,0.9,1.4,1.9,1.8C254.6,125.8,259.3,124.2,262.5,122.9z"/>
	<path class="st52" d="M262,122c1.9,0.1,4.7-4.8,4.6-6.7c-0.1-1-1.8-2.4-2.8-2.2c-0.3,1,0.9,1.2,1.2,1.9c0.2,0.6-0.3,1.1-0.8,1.7
		C263.1,118.3,260.6,119.4,262,122z"/>
	<path class="st52" d="M263.5,122c1.5,0.3,4.2-3.2,4.4-4.6c0.1-0.8-1.1-2.1-1.9-2.1c-0.4,0.7,0.6,1,0.7,1.6c0.1,0.5-0.4,0.8-0.8,1.2
		C264.8,119.2,262.8,119.8,263.5,122z"/>
	<defs>
		<filter id="Adobe_OpacityMaskFilter_3_" filterUnits="userSpaceOnUse" x="258.4" y="113.4" width="6.3" height="8.2">
			<feColorMatrix  type="matrix" values="1 0 0 0 0  0 1 0 0 0  0 0 1 0 0  0 0 0 1 0"/>
		</filter>
	</defs>
	<mask maskUnits="userSpaceOnUse" x="258.4" y="113.4" width="6.3" height="8.2" id="id6_2_" class="st3">
		
			<linearGradient id="SVGID_27_" gradientUnits="userSpaceOnUse" x1="3922.04" y1="-1411.3757" x2="4017.3762" y2="-1411.3757" gradientTransform="matrix(6.563689e-02 0 0 -6.563689e-02 0.9344 24.8307)">
			<stop  offset="0" style="stop-color:#FFFFFF"/>
			<stop  offset="1" style="stop-color:#FFFFFF;stop-opacity:0.9686"/>
		</linearGradient>
		<rect x="258.3" y="113.3" style="fill:url(#SVGID_27_);filter:url(#Adobe_OpacityMaskFilter_3_);" width="6.4" height="8.4"/>
	</mask>
	
		<linearGradient id="SVGID_28_" gradientUnits="userSpaceOnUse" x1="3922.04" y1="-1411.4695" x2="4017.3762" y2="-1411.4695" gradientTransform="matrix(6.563689e-02 0 0 -6.563689e-02 0.9344 24.8307)">
		<stop  offset="0" style="stop-color:#F9E8DC"/>
		<stop  offset="1" style="stop-color:#F9BBAD"/>
	</linearGradient>
	<path class="st54" d="M258.5,121.5c1.8,0.6,5.7-3.5,6.1-5.3c0.2-1-1.1-2.8-2.2-2.9c-0.6,0.9,0.6,1.4,0.6,2.2c0.1,0.7-0.6,1-1.1,1.4
		C260.4,118.1,257.8,118.7,258.5,121.5z"/>
	<path class="st52" d="M258.3,120c1.4,0.3,4-2.9,4.2-4.2c0.1-0.8-1-2-1.8-2c-0.4,0.7,0.5,1,0.6,1.6c0.1,0.5-0.4,0.8-0.8,1.1
		C259.6,117.4,257.6,117.9,258.3,120z"/>
	<path class="st55" d="M267.4,125.8c0.4,0.2,0.9,0.1,1.2-0.2l20.1-27c0.3-0.4,0.2-0.8-0.2-1.1L267.4,125.8z"/>
	<polygon class="st56" points="267.4,125.8 248.5,114.8 269.5,86.4 288.4,97.4 	"/>
	<defs>
		<filter id="Adobe_OpacityMaskFilter_4_" filterUnits="userSpaceOnUse" x="252.2" y="112.7" width="5.5" height="11.4">
			<feColorMatrix  type="matrix" values="1 0 0 0 0  0 1 0 0 0  0 0 1 0 0  0 0 0 1 0"/>
		</filter>
	</defs>
	<mask maskUnits="userSpaceOnUse" x="252.2" y="112.7" width="5.5" height="11.4" id="id8_2_" class="st3">
		
			<linearGradient id="SVGID_29_" gradientUnits="userSpaceOnUse" x1="3822.9612" y1="-1425.6786" x2="3925.7466" y2="-1425.6786" gradientTransform="matrix(6.563689e-02 0 0 -6.563689e-02 0.9344 24.8307)">
			<stop  offset="0" style="stop-color:#FFFFFF"/>
			<stop  offset="1" style="stop-color:#FFFFFF;stop-opacity:0.9686"/>
		</linearGradient>
		<rect x="250.1" y="111.6" style="fill:url(#SVGID_29_);filter:url(#Adobe_OpacityMaskFilter_4_);" width="10.2" height="13.6"/>
	</mask>
	
		<linearGradient id="SVGID_30_" gradientUnits="userSpaceOnUse" x1="3822.9612" y1="-1425.6786" x2="3925.7466" y2="-1425.6786" gradientTransform="matrix(6.563689e-02 0 0 -6.563689e-02 0.9344 24.8307)">
		<stop  offset="0" style="stop-color:#F9E8DC"/>
		<stop  offset="1" style="stop-color:#F9BBAD"/>
	</linearGradient>
	<path class="st58" d="M252.2,120.3l2.8,3.8c0.2-0.4,0.7-0.7,1-1c0.8-0.6,1.6-1.3,1.7-2.4c0.1-1.2-0.9-2.3-0.8-3.4
		c0-1,1.4-4.4-0.4-4.6C254.4,119.6,252.6,116.7,252.2,120.3z"/>
	<polygon class="st59" points="249.6,91.3 248.4,90.1 246.9,91.5 248.1,92.7 	"/>
	<polygon class="st55" points="248.3,92.9 259.6,104.6 261.1,103.1 249.8,91.5 	"/>
	<path class="st59" d="M261.8,103.9c-0.1-0.1-0.2-0.2-0.2-0.3l-0.2-0.2l-1.5,1.4l0.2,0.2c0,0.1,0.1,0.2,0.2,0.2L261.8,103.9z"/>
	<path class="st59" d="M260.7,105.6c1,0.8,2.6,1.9,2.9,1.6c0.3-0.3-0.8-1.9-1.5-2.9L260.7,105.6z"/>
	
		<linearGradient id="SVGID_31_" gradientUnits="userSpaceOnUse" x1="2690.7798" y1="-1284.5287" x2="3508.6296" y2="-1284.5287" gradientTransform="matrix(6.563689e-02 0 0 -6.563689e-02 0.9344 24.8307)">
		<stop  offset="0" style="stop-color:#E47F62"/>
		<stop  offset="1" style="stop-color:#D93268"/>
	</linearGradient>
	<path class="st60" d="M177.5,84.9l4.7,63.2c0.2,4.6-1,9.5,2.4,12.5c10.8,9.7,40.3-2,40.3-2c4.1,0,0.8-5.5,1.2-9.6l4.8-59.2
		c1.7-13.1-6-36.2-18.9-36.2C195.2,53.8,179.7,67.7,177.5,84.9z"/>
	
		<linearGradient id="SVGID_32_" gradientUnits="userSpaceOnUse" x1="2690.7798" y1="-1284.5287" x2="3508.6296" y2="-1284.5287" gradientTransform="matrix(6.563689e-02 0 0 -6.563689e-02 0.9344 24.8307)">
		<stop  offset="0" style="stop-color:#E47F62"/>
		<stop  offset="1" style="stop-color:#D93268"/>
	</linearGradient>
	<path class="st61" d="M177.5,84.9l4.7,63.2c0.2,4.6-1,9.5,2.4,12.5c10.8,9.7,40.3-2,40.3-2c4.1,0,0.8-5.5,1.2-9.6l4.8-59.2
		c1.7-13.1-6-36.2-18.9-36.2C195.2,53.8,179.7,67.7,177.5,84.9z"/>
	<defs>
		<filter id="Adobe_OpacityMaskFilter_5_" filterUnits="userSpaceOnUse" x="204.2" y="43" width="18.1" height="23.7">
			<feColorMatrix  type="matrix" values="1 0 0 0 0  0 1 0 0 0  0 0 1 0 0  0 0 0 1 0"/>
		</filter>
	</defs>
	<mask maskUnits="userSpaceOnUse" x="204.2" y="43" width="18.1" height="23.7" id="id10_2_" class="st3">
		
			<linearGradient id="SVGID_33_" gradientUnits="userSpaceOnUse" x1="3102.2629" y1="-457.0425" x2="3368.0217" y2="-457.0425" gradientTransform="matrix(6.563689e-02 0 0 -6.563689e-02 0.9344 24.8307)">
			<stop  offset="0" style="stop-color:#FFFFFF"/>
			<stop  offset="1" style="stop-color:#FFFFFF;stop-opacity:0.9686"/>
		</linearGradient>
		<rect x="204" y="42.8" style="fill:url(#SVGID_33_);filter:url(#Adobe_OpacityMaskFilter_5_);" width="18.6" height="24"/>
	</mask>
	
		<linearGradient id="SVGID_34_" gradientUnits="userSpaceOnUse" x1="3102.2629" y1="-457.3468" x2="3368.0217" y2="-457.3468" gradientTransform="matrix(6.563689e-02 0 0 -6.563689e-02 0.9344 24.8307)">
		<stop  offset="0" style="stop-color:#F9E8DC"/>
		<stop  offset="1" style="stop-color:#F9BBAD"/>
	</linearGradient>
	<polygon class="st63" points="204.2,55.9 218.4,66.7 221.4,64.8 222.3,50.8 207.2,43 	"/>
	<defs>
		<filter id="Adobe_OpacityMaskFilter_6_" filterUnits="userSpaceOnUse" x="202.4" y="17.3" width="29.8" height="36.2">
			<feColorMatrix  type="matrix" values="1 0 0 0 0  0 1 0 0 0  0 0 1 0 0  0 0 0 1 0"/>
		</filter>
	</defs>
	<mask maskUnits="userSpaceOnUse" x="202.4" y="17.3" width="29.8" height="36.2" id="id12_2_" class="st3">
		
			<linearGradient id="SVGID_35_" gradientUnits="userSpaceOnUse" x1="3191.9448" y1="-169.4644" x2="3402.0259" y2="-169.4644" gradientTransform="matrix(6.563689e-02 0 0 -6.563689e-02 0.9344 24.8307)">
			<stop  offset="0" style="stop-color:#FFFFFF"/>
			<stop  offset="1" style="stop-color:#FFFFFF;stop-opacity:0.9686"/>
		</linearGradient>
		<rect x="195.8" y="12" style="fill:url(#SVGID_35_);filter:url(#Adobe_OpacityMaskFilter_6_);" width="43.1" height="47.9"/>
	</mask>
	
		<linearGradient id="SVGID_36_" gradientUnits="userSpaceOnUse" x1="3191.9448" y1="-161.5974" x2="3402.0259" y2="-161.5974" gradientTransform="matrix(6.563689e-02 0 0 -6.563689e-02 0.9344 24.8307)">
		<stop  offset="0" style="stop-color:#F9E8DC"/>
		<stop  offset="1" style="stop-color:#F9BBAD"/>
	</linearGradient>
	<path class="st65" d="M213.8,17.3l-0.6,8l-1.9,2.6l-1.4,8.6l-1.6,0.1l-0.1-1.8c-0.1-1.6-1.4-2.8-3-2.8h0c-1.6,0-2.6,0.9-2.6,2.6
		v2.2c0,1.7,1.1,3,2.7,3c1,0,1.6,0.9,1.6,1.9v2.9c0,2.1,5.7,5.4,11.6,7.4c6.3,2.1,13.1,2.6,13.8-1.4c0.1-0.4,0.1-0.8,0.1-1.2l0,0
		c0-0.2,0-0.8,0-1l-0.2-31H213.8z"/>
	<path class="st66" d="M231.9,27.6h-4.4c-1.1,0-2,0.8-2.2,1.9h-0.8c-0.3-1.1-1.2-1.9-2.4-1.9h-5c-1.1,0-2.1,0.8-2.4,1.9h-7.7
		c-2,0-4,0.8-5.6,2.1l-0.3,0.2c-0.2,0.2-0.2,0.6,0,0.8c0.2,0.2,0.6,0.3,0.8,0.1l0.2-0.2c1.4-1.2,3.1-1.8,4.9-1.8h7.7l0,0.9
		c0,2.7,2.2,4.8,4.8,4.8h0.7c2.3,0,4.2-1.9,4.2-4.3v-1.4h0.7l0,0.9c0,2.7,2,4.8,4.4,4.8h0.6c2.1,0,3.9-1.9,3.9-4.3v-1.9
		C234.2,28.7,233.2,27.6,231.9,27.6z M223.4,32L223.4,32c0,1.8-1.4,3.2-3.1,3.2h-0.7c-2,0-3.7-1.6-3.7-3.7l0-1.4
		c0-0.7,0.6-1.3,1.3-1.3h5c0.7,0,1.3,0.6,1.3,1.4V32z M233.1,32L233.1,32c0,1.8-1.2,3.2-2.8,3.2h-0.6c-1.8,0-3.2-1.6-3.3-3.7l0-1.4
		c0-0.7,0.5-1.3,1.1-1.3h4.4c0.6,0,1.2,0.6,1.2,1.4V32z"/>
	<path class="st67" d="M187.7,64.7c-1.6,0.6-3,1.5-4.3,2.8c-5.1,5.2-5.4,13.3-5.8,20.5c0,0.8-0.1,1.6-0.6,2.2
		c-0.6,1-1.9,1.4-2.2,2.5c-0.6,1.7,1.8,3.2,1.7,5c-0.1,0.9-0.6,1.6-0.8,2.4c-0.1,0.7,0.1,1.4,0.2,2c1.1,4.3,1.6,8.7,1.4,13.1
		c-0.1,2.6,1.6,11.9,2.1,14.5c0.6,2.5,2.3,4.9,4.8,5.4c1.5,0.3,3.1-0.1,4.7-0.5c2.2-0.6,4.4-1.2,6.1,0.3c0.2,0.2,0.5,0.6,0.8,0.7
		c1.4,0.8,2.8-1,3.4-2.4l0,0c1,0.7,2.2,0.5,3-0.3c0.3-0.3,0.6-0.5,1-0.7c1-0.4,2.1-0.6,3.1-1c0.2-0.1,0.5-0.2,0.7-0.4
		c0.7-3.4-0.6-13.5-0.3-17c-1.1,0-2.1-0.1-2.8-0.8c-0.6-0.5-0.8-1.3-1.4-1.8c-0.6-0.6,0.4-10.1,0.4-10.8c0-0.6-0.4-1.2-0.5-1.8
		c-0.1-0.6,0.2-1.2,0.4-1.8c0.7-1.8,0.5-3.8,0.4-5.7c-0.1-4,0.5-7.9,1.2-11.9c0-0.1,0-0.2,0.1-0.4c1.4-8.1-4.9-15-12.3-15
		C190.7,63.8,189.2,64.1,187.7,64.7z"/>
	
		<linearGradient id="SVGID_37_" gradientUnits="userSpaceOnUse" x1="3242.948" y1="-1434.1995" x2="3614.9248" y2="-1434.1995" gradientTransform="matrix(6.563689e-02 0 0 -6.563689e-02 0.9344 24.8307)">
		<stop  offset="0" style="stop-color:#F9E8DC"/>
		<stop  offset="1" style="stop-color:#F9BBAD;stop-opacity:0.9686"/>
	</linearGradient>
	<polygon class="st68" points="206.6,113.7 206.3,131.1 245.7,111.7 243.9,106.8 	"/>
	<defs>
		<filter id="Adobe_OpacityMaskFilter_7_" filterUnits="userSpaceOnUse" x="206.3" y="106.8" width="39.4" height="24.2">
			<feColorMatrix  type="matrix" values="1 0 0 0 0  0 1 0 0 0  0 0 1 0 0  0 0 0 1 0"/>
		</filter>
	</defs>
	<mask maskUnits="userSpaceOnUse" x="206.3" y="106.8" width="39.4" height="24.2" id="id14_2_" class="st3">
		
			<linearGradient id="SVGID_38_" gradientUnits="userSpaceOnUse" x1="3128.7263" y1="-1434.5038" x2="3729.1406" y2="-1434.5038" gradientTransform="matrix(6.563689e-02 0 0 -6.563689e-02 0.9344 24.8307)">
			<stop  offset="0" style="stop-color:#FFFFFF"/>
			<stop  offset="1" style="stop-color:#FFFFFF;stop-opacity:0.9686"/>
		</linearGradient>
		<rect x="194.2" y="87.2" style="fill:url(#SVGID_38_);filter:url(#Adobe_OpacityMaskFilter_7_);" width="63.6" height="63.5"/>
	</mask>
	
		<linearGradient id="SVGID_39_" gradientUnits="userSpaceOnUse" x1="3128.9941" y1="-1434.1995" x2="3729.1042" y2="-1434.1995" gradientTransform="matrix(6.563689e-02 0 0 -6.563689e-02 0.9344 24.8307)">
		<stop  offset="0" style="stop-color:#F9E8DC"/>
		<stop  offset="1" style="stop-color:#F9BBAD"/>
	</linearGradient>
	<polygon class="st70" points="206.6,113.7 206.3,131.1 245.7,111.7 243.9,106.8 	"/>
	<defs>
		<filter id="Adobe_OpacityMaskFilter_8_" filterUnits="userSpaceOnUse" x="243.7" y="96.9" width="10" height="14.8">
			<feColorMatrix  type="matrix" values="1 0 0 0 0  0 1 0 0 0  0 0 1 0 0  0 0 0 1 0"/>
		</filter>
	</defs>
	<mask maskUnits="userSpaceOnUse" x="243.7" y="96.9" width="10" height="14.8" id="id16_2_" class="st3">
		
			<linearGradient id="SVGID_40_" gradientUnits="userSpaceOnUse" x1="3678.2043" y1="-1211.4406" x2="3866.0159" y2="-1211.4406" gradientTransform="matrix(6.563689e-02 0 0 -6.563689e-02 0.9344 24.8307)">
			<stop  offset="0" style="stop-color:#FFFFFF"/>
			<stop  offset="1" style="stop-color:#FFFFFF;stop-opacity:0.9686"/>
		</linearGradient>
		<rect x="235.1" y="90.9" style="fill:url(#SVGID_40_);filter:url(#Adobe_OpacityMaskFilter_8_);" width="26.8" height="26.8"/>
	</mask>
	
		<linearGradient id="SVGID_41_" gradientUnits="userSpaceOnUse" x1="3678.2043" y1="-1210.8395" x2="3866.0159" y2="-1210.8395" gradientTransform="matrix(6.563689e-02 0 0 -6.563689e-02 0.9344 24.8307)">
		<stop  offset="0" style="stop-color:#F9E8DC"/>
		<stop  offset="1" style="stop-color:#F9BBAD"/>
	</linearGradient>
	<path class="st72" d="M249.7,96.9c-1.3,0.2-2.1,1.5-2.7,2.7c-1.6,3-4.4,7.1-2.9,10.1c0.5,1,0.5,2,1.6,2.1c3.5,0.1,8.8-10.6,7.9-12
		c-0.4-0.7-0.9-1.5-1.6-2c-0.6-0.5-1.2-0.8-2-0.8C250,96.9,249.9,96.9,249.7,96.9z"/>
	<defs>
		<filter id="Adobe_OpacityMaskFilter_9_" filterUnits="userSpaceOnUse" x="248.5" y="96.1" width="9" height="4.2">
			<feColorMatrix  type="matrix" values="1 0 0 0 0  0 1 0 0 0  0 0 1 0 0  0 0 0 1 0"/>
		</filter>
	</defs>
	<mask maskUnits="userSpaceOnUse" x="248.5" y="96.1" width="9" height="4.2" id="id18_2_" class="st3">
		
			<linearGradient id="SVGID_42_" gradientUnits="userSpaceOnUse" x1="3797.8735" y1="-1118.3199" x2="3888.1758" y2="-1118.3199" gradientTransform="matrix(6.563689e-02 0 0 -6.563689e-02 0.9344 24.8307)">
			<stop  offset="0" style="stop-color:#FFFFFF"/>
			<stop  offset="1" style="stop-color:#FFFFFF;stop-opacity:0.9686"/>
		</linearGradient>
		<rect x="246.4" y="91.5" style="fill:url(#SVGID_42_);filter:url(#Adobe_OpacityMaskFilter_9_);" width="13.5" height="13.5"/>
	</mask>
	
		<linearGradient id="SVGID_43_" gradientUnits="userSpaceOnUse" x1="3797.8735" y1="-1118.6243" x2="3888.1758" y2="-1118.6243" gradientTransform="matrix(6.563689e-02 0 0 -6.563689e-02 0.9344 24.8307)">
		<stop  offset="0" style="stop-color:#F9E8DC"/>
		<stop  offset="1" style="stop-color:#F9BBAD"/>
	</linearGradient>
	<path class="st74" d="M248.5,97.5c1.6,2.5,3.8,0.9,5.7,0.7c0.7-0.1,1.4-0.4,1.8,0.2c0.5,0.6,0.1,1.8,1.1,2c0.7-0.9,0.4-3-0.5-3.6
		c-0.7-0.4-2.1-0.6-3.6-0.6C251.1,96.1,249.1,96.5,248.5,97.5z"/>
	<defs>
		<filter id="Adobe_OpacityMaskFilter_10_" filterUnits="userSpaceOnUse" x="248.3" y="98.7" width="9" height="4.2">
			<feColorMatrix  type="matrix" values="1 0 0 0 0  0 1 0 0 0  0 0 1 0 0  0 0 0 1 0"/>
		</filter>
	</defs>
	<mask maskUnits="userSpaceOnUse" x="248.3" y="98.7" width="9" height="4.2" id="id20_2_" class="st3">
		
			<linearGradient id="SVGID_44_" gradientUnits="userSpaceOnUse" x1="3792.645" y1="-1157.2723" x2="3887.062" y2="-1157.2723" gradientTransform="matrix(6.563689e-02 0 0 -6.563689e-02 0.9344 24.8307)">
			<stop  offset="0" style="stop-color:#FFFFFF"/>
			<stop  offset="1" style="stop-color:#FFFFFF;stop-opacity:0.9686"/>
		</linearGradient>
		<rect x="246.2" y="94.1" style="fill:url(#SVGID_44_);filter:url(#Adobe_OpacityMaskFilter_10_);" width="13.5" height="13.5"/>
	</mask>
	
		<linearGradient id="SVGID_45_" gradientUnits="userSpaceOnUse" x1="3792.645" y1="-1156.968" x2="3887.062" y2="-1156.968" gradientTransform="matrix(6.563689e-02 0 0 -6.563689e-02 0.9344 24.8307)">
		<stop  offset="0" style="stop-color:#F9E8DC"/>
		<stop  offset="1" style="stop-color:#F9BBAD"/>
	</linearGradient>
	<path class="st76" d="M248.3,100.1c1.6,2.5,3.8,0.9,5.7,0.7c0.7-0.1,1.4-0.4,1.8,0.2c0.5,0.6,0.1,1.8,1.1,2c0.7-0.9,0.4-3-0.5-3.6
		c-0.7-0.4-2.1-0.6-3.6-0.6C250.9,98.7,248.9,99.1,248.3,100.1z"/>
	<defs>
		<filter id="Adobe_OpacityMaskFilter_11_" filterUnits="userSpaceOnUse" x="248.3" y="100.6" width="8.9" height="4.2">
			<feColorMatrix  type="matrix" values="1 0 0 0 0  0 1 0 0 0  0 0 1 0 0  0 0 0 1 0"/>
		</filter>
	</defs>
	<mask maskUnits="userSpaceOnUse" x="248.3" y="100.6" width="8.9" height="4.2" id="id22_2_" class="st3">
		
			<linearGradient id="SVGID_46_" gradientUnits="userSpaceOnUse" x1="3789.0178" y1="-1187.0953" x2="3887.5305" y2="-1187.0953" gradientTransform="matrix(6.563689e-02 0 0 -6.563689e-02 0.9344 24.8307)">
			<stop  offset="0" style="stop-color:#FFFFFF"/>
			<stop  offset="1" style="stop-color:#FFFFFF;stop-opacity:0.9686"/>
		</linearGradient>
		<rect x="246.1" y="96" style="fill:url(#SVGID_46_);filter:url(#Adobe_OpacityMaskFilter_11_);" width="13.5" height="13.5"/>
	</mask>
	
		<linearGradient id="SVGID_47_" gradientUnits="userSpaceOnUse" x1="3789.0178" y1="-1186.791" x2="3887.5305" y2="-1186.791" gradientTransform="matrix(6.563689e-02 0 0 -6.563689e-02 0.9344 24.8307)">
		<stop  offset="0" style="stop-color:#F9E8DC"/>
		<stop  offset="1" style="stop-color:#F9BBAD"/>
	</linearGradient>
	<path class="st78" d="M248.3,102c1.6,2.5,3.8,0.9,5.7,0.7c0.7-0.1,1.3-0.3,1.8,0.2c0.5,0.6,0.1,1.8,1.1,2c0.7-0.9,0.4-3-0.5-3.6
		c-0.7-0.4-2.1-0.7-3.6-0.7C250.8,100.6,248.8,101.1,248.3,102z"/>
	<defs>
		<filter id="Adobe_OpacityMaskFilter_12_" filterUnits="userSpaceOnUse" x="249.3" y="102.5" width="6.6" height="3.1">
			<feColorMatrix  type="matrix" values="1 0 0 0 0  0 1 0 0 0  0 0 1 0 0  0 0 0 1 0"/>
		</filter>
	</defs>
	<mask maskUnits="userSpaceOnUse" x="249.3" y="102.5" width="6.6" height="3.1" id="id24_2_" class="st3">
		
			<linearGradient id="SVGID_48_" gradientUnits="userSpaceOnUse" x1="3797.6907" y1="-1206.5714" x2="3873.4592" y2="-1206.5714" gradientTransform="matrix(6.563689e-02 0 0 -6.563689e-02 0.9344 24.8307)">
			<stop  offset="0" style="stop-color:#FFFFFF"/>
			<stop  offset="1" style="stop-color:#FFFFFF;stop-opacity:0.9686"/>
		</linearGradient>
		<rect x="247.7" y="99.1" style="fill:url(#SVGID_48_);filter:url(#Adobe_OpacityMaskFilter_12_);" width="9.9" height="9.9"/>
	</mask>
	
		<linearGradient id="SVGID_49_" gradientUnits="userSpaceOnUse" x1="3797.6907" y1="-1206.8757" x2="3873.4592" y2="-1206.8757" gradientTransform="matrix(6.563689e-02 0 0 -6.563689e-02 0.9344 24.8307)">
		<stop  offset="0" style="stop-color:#F9E8DC"/>
		<stop  offset="1" style="stop-color:#F9BBAD"/>
	</linearGradient>
	<path class="st80" d="M249.3,103.5c1.2,1.8,2.8,0.6,4.2,0.5c0.5-0.1,1-0.2,1.3,0.1c0.4,0.5,0.1,1.3,0.8,1.5
		c0.5-0.6,0.3-2.2-0.4-2.6c-0.5-0.3-1.5-0.5-2.6-0.5C251.2,102.5,249.7,102.8,249.3,103.5z"/>
	
		<linearGradient id="SVGID_50_" gradientUnits="userSpaceOnUse" x1="369.4615" y1="-4723.8496" x2="4015.7693" y2="-4723.8496" gradientTransform="matrix(6.563689e-02 0 0 -6.563689e-02 0.9344 24.8307)">
		<stop  offset="0" style="stop-color:#4F8CA5"/>
		<stop  offset="1" style="stop-color:#182B54"/>
	</linearGradient>
	<path class="st81" d="M144.9,314.8c66.1,0,119.6,9,119.6,20.1c0,11.1-53.6,20.1-119.6,20.1c-66.1,0-119.7-9-119.7-20.1
		C25.2,323.8,78.8,314.8,144.9,314.8z"/>
	<rect x="144.4" y="91.9" class="st82" width="0.9" height="39"/>
	<rect x="144.4" y="133.4" class="st82" width="0.9" height="39"/>
	<path class="st83" d="M207.1,45c0,0-9.1-8.1-8.8-18.8c0.4-10.8,0.4-10.3,1.2-11.9c0.8-1.6,13.6-6.8,12.4-5.7c-1.3,1-2,2.8-2,2.8
		l5.1-4.7l-1.2,3.4l10.8-3.5l-0.8,3.5l14.5-5.4c0,0-1.9,13.7-5.8,16.4c-1,1.2-0.7-2.3-0.7-2.3h-18.4v7.5l-2.1,3.1l-1.1,7.6h-1.8
		v-3.1c0,0-5.4-4.5-5.9,1.3c-0.5,5.8,4.2,4.4,4.2,4.4L207.1,45z"/>
</g>
<g id="Layer_x0020_1">
	<g id="_1069207024">
		<linearGradient id="SVGID_51_" gradientUnits="userSpaceOnUse" x1="60.9919" y1="319.5325" x2="118.9054" y2="319.5325">
			<stop  offset="0" style="stop-color:#4F8CA5"/>
			<stop  offset="1" style="stop-color:#192C55"/>
		</linearGradient>
		<ellipse class="st84" cx="89.9" cy="319.5" rx="29" ry="14.5"/>
		<path class="st85" d="M114.2,253.9l96.4-56.5c3.9-2.4,3.8-4.9-1-7.5L78.6,114c-26.1,34.6-22.3,77-28,114.5
			c15.4,8.5,30.5,17.3,45.9,25.8C104.1,258.5,108.4,257.6,114.2,253.9z"/>
		
			<radialGradient id="SVGID_52_" cx="4315.3066" cy="-5232.8521" r="1040.932" gradientTransform="matrix(-1.867288e-03 7.910724e-02 5.881946e-02 2.511351e-03 534.0105 -188.8688)" gradientUnits="userSpaceOnUse">
			<stop  offset="0" style="stop-color:#8BD4E0"/>
			<stop  offset="1" style="stop-color:#1E61A8"/>
		</radialGradient>
		<polygon class="st86" points="140.1,34.4 296.1,124.1 296.2,244.3 140.1,151.8 		"/>
		<path class="st87" d="M297.9,122.9c0.7,2.3,1.9,2.6,2.1,5.5c-2.5,39.6-2.5,80.8-0.5,120.4l3.7-2c1.3-0.8,1.4-2.3,1.4-3.7V130.8
			c0-6.6,0.5-8.5-2.5-11.6c-1.9-2.3-139.1-80.7-154.9-90.5c-1-0.6-2.6-1.7-4.2-1.6c-1,0-3.1,1.2-3.9,1.9
			C153.5,42.5,287.4,113,297.9,122.9z"/>
		<path class="st88" d="M163.8,170.1c-0.7,0.3-1.4,1.2-1.6,2c26.1,18.7,106.2,68.2,133.5,77.4c1.6,0.5,3.9-0.2,4.1-0.9l0.4-120.2
			c0-1.5,0.2-5.8-2.7-7.4L148.2,34.3l-9.2-5.4c-2.2,0.9-3.1,2.1-3.1,4.3c-0.2,10.2,0.7,91.4-0.5,92.4c1.1,0.7,2.8,1.7,3.9,2.3
			c2.2-0.6,2.4-3,3.6-1.8c0.4-0.5,0.5-76,0.5-83.3c0-2.8,1-2.5,3.3-1.1c45.7,27.9,94,55.4,140.9,81.4c2.5,1.4,4.9,2.1,5.3,5
			c0,13,0.7,108.6-0.5,109.8c-0.8,1.2-124.7-69.6-125.3-71.8L163.8,170.1z"/>
		<path class="st89" d="M255.8,254.6c0.5-1,6.6-4.5,7.8-4.5c1.2,0,7.1,3.4,7.8,4.5c-0.5,1-6.7,4.5-7.8,4.5c-1.2,0-3.3-1.5-4.2-2
			C257.8,256.1,256.3,255.6,255.8,254.6z M218.8,281.9l5.9,3.2c19.7-10.9,38.7-22.3,58-34.1l-126-73.1c-2.6-0.4-3.6,6.9-6.2,15
			c-2,1.5-0.7,1.7-1.7,4.9c9.7-10-25.6,19.8-1.5,4.8c-0.9,1.2-1.4,4.2-1.9,5.9c0.4,0.6-0.7,2.1-1,3.7l-0.5,1.7l-0.1,1.2
			c1.5,0.1,8.3,3.1,8.6,5c-1.1,0.8-3.2,1.9-4.5,2.7c-2.4,1.4-2.5,2-5.4,0.7c0-0.4-1.1,4.4-2.4,12.4L218.8,281.9z"/>
		<path class="st90" d="M185.3,315.2c1.1,0.7,3.1,1.7,5.8,0.9c6.3-2,16.6-9,28.7-15.6c26.1-14.4,59.9-34.8,73.3-43.7
			c2.2-1.5,3.6-2.6,4.6-3.4c0.2-1.7,0.1-2.8-1-3.4l-135.4-78.4l-4.2,6.3c41.9,24.4,83.8,48.6,125.7,73c-2.2,1.3-48.2,28.1-58,34.1
			l-85-49.8l-5.5,50.9C134.3,288.2,178.9,311.8,185.3,315.2z"/>
		<path class="st91" d="M138.7,242l-1.1,10.9l-2.2,25.5c0.1,1,0.2,1.9,0.3,2.8l36.1-22.9l-31.3-19.5l-2.7,1.5L138.7,242z"/>
		<path class="st92" d="M183,258.3c2.7,1.5,3.1,1.1,5.6-0.3c1.2-0.7,4.1-2.2,4.8-3.4c-1.1-1.7-38.5-22.6-42.4-24.8
			c-2.4-1.4-7.4-4.5-9.5-5.1l-0.2,0.3c-0.3,2.6-1.3,5.3-1.1,7.9C141.3,235.1,178.4,255.6,183,258.3z"/>
		<path class="st92" d="M214.7,264.1c0,0.2-0.1,0.3,1.5,1.4l5.2,3c2.3,1.3,4.3,2.5,6.8,3.9c1.7,0.9,5,3.9,7.5,3
			c0.9-0.3,2.5-1.4,3.5-1.9c0.6-0.3,1.1-0.6,1.7-1c0.1-0.1,0.8-0.5,0.9-0.5c0.6-0.5,0.2,0,0.7-0.8c-1-1.4-11.6-7.1-13.8-8.3
			c-1.9-1-5.1-3.8-7.4-2.9C220.3,260.4,215.3,263.4,214.7,264.1z"/>
		<path class="st93" d="M228.8,261.5c0.6,1.1-0.4,0.1,1.1,1l10,5.8c3.9,2.3,3.2,2.9,10.5-1.5c1.1-0.7,0.7-0.2,1.2-1.3
			c-0.7-1-9.4-5.7-11-6.6c-2.3-1.4-3.5-2.7-6.2-1C232.5,259,229.4,260.4,228.8,261.5z"/>
		<path class="st93" d="M241.2,257.6c0.7,0.8,8,4.8,9.8,5.9c2.7,1.7,3.3,1.5,5.7,0c4.4-2.7,6.2-2.8,4-4.4l-9-5.1
			c-3.2-2-3.1-1.5-8.3,1.6C242.2,256.3,241.4,256.3,241.2,257.6z"/>
		<path class="st94" d="M132.3,289.5c10.2,6,35,19.8,53.1,28.8c3.1,0.9,4.6,1,6.1,0.1c14.1-7.5,94.2-54.9,105.2-61.3
			c0.8-0.6,1.4-0.3,1.1-4.1c-16.3,9.7-38.8,23.3-55.4,32.7c-2.4,1.3-4.9,2.9-7.2,4.1c-4.5,3-19.9,11.3-25.9,14.9
			c-3.9,2.4-16.1,10-19.7,10.4c-7.1,0.7-46.7-24.2-55.8-28.9C133.3,288.3,132.9,287.9,132.3,289.5z"/>
		<path class="st92" d="M197.6,220.9c0.7,1.2,6.8,4.5,7.7,4.5c1.3,0,7.3-3.3,8-4.5c-0.5-1.3-6.7-4.6-7.7-4.6
			C204.2,216.3,198,219.9,197.6,220.9z"/>
		<path class="st92" d="M226.7,237.8c0.5,0.7-0.4-0.2,0.7,0.7c0.6,0.5,6.2,3.7,7.2,3.7c1.4,0,7.2-3.4,8-4.5c-0.5-1.2-7-4.5-7.7-4.6
			C233.7,233.1,227.4,236.5,226.7,237.8z"/>
		<path class="st92" d="M200.1,244.8c0.5,1.1,6.4,4.5,7.7,4.5c1.1,0,2.7-1,3.9-1.7c0.1-0.1,0.3-0.2,0.4-0.2c1.2-0.7,2.9-1.3,3.6-2.6
			c-0.6-1.1-6.5-4.6-7.8-4.6C206.7,240.3,200.6,243.7,200.1,244.8z"/>
		<path class="st92" d="M199.4,225.1c-2,0.7-2.3,1.1-4,2.1c-4.3,2.5-3.9,1.8,1.3,5.1c1.1,0.7,2.9,2.1,4.7,1.4c0.7-0.2,3-1.7,3.9-2.2
			c4.2-2.5,3.4-2.2-1.6-5.1C202.2,225.5,201.2,224.4,199.4,225.1z"/>
		<path class="st92" d="M175.7,242.1c0.6,0.9,6.5,4.4,7.8,4.4c1.2,0,7.1-3.6,7.8-4.4c-0.5-1.5-6.8-4.7-7.8-4.7
			C182.4,237.4,176.2,240.5,175.7,242.1z"/>
		<path class="st92" d="M195.9,254.2c1.2,1,6,3.6,7,3.5c1.2-0.1,7.3-3.7,7.7-4.5c-0.5-1.2-6.4-4.4-7.7-4.5c-1.5-0.1-7,3.4-7.3,3.7
			C194.7,253.2,195,253.5,195.9,254.2z"/>
		<path class="st92" d="M216.9,232.2c0.5,1.4,7.2,4.6,7.7,4.6c1,0,6.7-3.3,7.1-3.6c0.8-0.5,1.1-0.5,0.8-1c-0.6-1.3-6.7-4.5-7.8-4.4
			C223.5,227.8,217.4,231.3,216.9,232.2z"/>
		<path class="st92" d="M212,240.5c0.5,1,0.5,0.9,1.7,1.5c0.7,0.4,1.2,0.7,1.9,1.1c5.1,3,4.4,2.3,8.5,0c1.2-0.7,2.9-1.3,3.6-2.6
			c-0.7-1-6.8-4.4-7.8-4.4C218.5,236.1,212.6,239.4,212,240.5z"/>
		<path class="st92" d="M180.5,233.7l1.6,1.3c1.3,0.7,5.1,3.1,6.1,3.1c1.3,0,7.1-3.3,7.9-4.4c-0.7-1.5-6.8-4.6-7.6-4.6
			c-1.2-0.1-3,1.1-4.1,1.8c-0.7,0.5-1.2,0.7-1.9,1.1C181.1,232.6,181,232.5,180.5,233.7z"/>
		<path class="st92" d="M187.9,260.5c0.7,1.3,6.8,4.6,8.2,4.4c0.5-0.1,6.8-3.1,7.4-4.7c-0.6-0.7-6.8-4.4-8-4.3
			C194.2,256,188.3,259.3,187.9,260.5z"/>
		<path class="st92" d="M178.1,209.5c0.5,1.3,6.6,4.8,7.8,4.7c1.4,0,7.3-3.8,7.9-4.4c-0.8-1.2-6.5-4.6-7.8-4.6
			C184.9,205.1,179,208.4,178.1,209.5z"/>
		<path class="st92" d="M207.3,226.6c0.7,1.1,6.5,4.4,7.9,4.4c1.4,0,7.1-3.5,7.6-4.4c-0.5-1.4-7-4.6-7.7-4.6
			C213.8,222,207.8,225.1,207.3,226.6z"/>
		<path class="st92" d="M202.2,234.7c0.5,1.5,6.5,4.6,7.6,4.7c1,0.1,8.3-3.8,8-4.6c-0.2-0.5-1.3-1.1-3.4-2.4
			c-2.6-1.5-3.6-2.1-4.5-2.1C208.9,230.3,202.7,233.9,202.2,234.7z"/>
		<path class="st92" d="M183.1,224c0.7,0.9,6.4,4.3,7.9,4.2c0.7,0,7.1-3.2,7.6-4.6c-0.5-0.4-6.5-4.2-7.6-4.3
			C189.3,219.1,183.5,222.4,183.1,224z"/>
		<path class="st92" d="M165.9,236.4c0.6,0.7,6.3,4.4,7.9,4.5c1.1,0,4.2-2.1,6.1-3.1c3.1-1.7,1.2-2-1.9-3.9c-2.2-1.3-3.4-1.9-4.4-2
			C172.6,231.8,166.6,235.2,165.9,236.4z"/>
		<path class="st92" d="M187.9,215.2c0.5,1.1,6.6,4.6,7.8,4.6c1.5,0,7.1-3.7,7.8-4.6c-1-1-6.8-4.6-7.8-4.5
			C194.6,210.7,188.4,214.2,187.9,215.2z"/>
		<path class="st92" d="M158.7,198.4c0.5,1.1,6.6,4.6,7.7,4.6c0.7,0,7-2.8,7.8-4.6c-0.7-1.1-6.6-4.4-7.8-4.4
			C165.2,194,159.6,197.3,158.7,198.4z"/>
		<path class="st92" d="M185.3,247.5c0.5,1.1,6.6,4.5,7.7,4.5c1.1,0,7.8-3.3,7.8-4.5c0-1-6.8-4.5-7.8-4.4
			C191.8,243.1,185.7,246.8,185.3,247.5z"/>
		<path class="st92" d="M156.1,230.7c0.7,1.5,6.8,4.5,7.5,4.6c1.4,0.1,8.5-3.8,8-4.9c-0.2-0.4-6.7-4.1-7.8-4.2
			C162.8,226.1,156.6,229.8,156.1,230.7z"/>
		<path class="st92" d="M160.7,222.3c0.6,1.2,6.4,4.4,7.7,4.5c1.5,0.1,7.8-3.7,7.9-4.2c0.3-1-6.3-4.6-7.6-4.7
			C167.4,217.9,161.5,221.5,160.7,222.3z"/>
		<path class="st92" d="M190.2,239.1c0.6,1.3,6.8,4.6,7.6,4.6c1.5,0.1,2.8-1.2,4.1-1.9c2.2-1.2,3.3-1.4,3.8-2.7
			c-0.7-1-2.2-1.7-3.4-2.4c-5.6-3.2-4.2-2.2-8.3-0.1C192.7,237.3,191.2,237.8,190.2,239.1z"/>
		<path class="st93" d="M216.4,277.1c0.8,1.1,2.4,1.7,3.7,2.4c4.7,2.7,3.5,2.7,8.3,0c1.4-0.8,2.9-1.2,3.6-2.4
			c-0.7-1.4-6.8-4.5-7.8-4.5S217.1,275.8,216.4,277.1z"/>
		<path class="st92" d="M186.2,228c-0.5-1.2-6.7-4.5-7.9-4.5c-0.9,0-7.6,3.6-7.6,4.4c0,0.8,6.4,4.5,7.6,4.5c1.4,0,3.2-1.3,4.2-1.9
			C184.6,229.3,185.6,229.2,186.2,228z"/>
		<path class="st92" d="M197.5,266.5c1.1,1,6.8,4.2,8,4.1c1.7-0.1,7.1-3.4,7.6-4.5c-0.9-1-6.6-4.4-7.9-4.4
			C203.8,261.8,197.9,265.1,197.5,266.5z"/>
		<path class="st95" d="M255.8,254.6c0.5,1.1,2,1.5,3.6,2.5c0.9,0.5,3,2.1,4.2,2c1.1,0,7.3-3.6,7.8-4.5c-0.7-1.1-6.6-4.4-7.8-4.5
			C262.4,250.1,256.3,253.6,255.8,254.6z"/>
		<path class="st92" d="M231.5,251.9c0.6,0.7,6.5,4.4,7.8,4.4c0.7,0,7.3-3.3,7.7-4.7c-0.6-0.7-6.5-4.2-7.7-4.3
			C238.2,247.2,232.2,250.4,231.5,251.9z"/>
		<path class="st92" d="M219.3,256.2c0.6,0.7,6.5,4.3,7.8,4.3c0.8,0,7.2-3.2,7.7-4.6c-0.5-0.8-6.6-4.3-7.7-4.4
			C225.8,251.5,219.7,254.7,219.3,256.2z"/>
		<path class="st92" d="M168.6,203.9c0.3,1.5,6.8,4.7,7.4,4.7c2,0.2,7.4-3.5,8-4.4c-0.8-1.4-7-4.4-7.4-4.5
			C175,199.6,168.8,203.6,168.6,203.9z"/>
		<path class="st92" d="M163.6,212.5c0.5,0.8,6.5,4.4,7.6,4.4c1.2,0.1,7.2-3.4,7.8-4.4c-0.7-1.4-6.4-4.5-7.8-4.6
			C170.2,207.9,164,211.6,163.6,212.5z"/>
		<path class="st92" d="M173,218.1c0.5,1.4,7,4.6,7.7,4.6c1.3,0,7.2-3.2,7.8-4.6c-0.5-0.6-6.4-4.4-7.8-4.3
			C179.6,213.8,173.5,217.4,173,218.1z"/>
		<path class="st92" d="M236.2,243.3c0.4,0.7,0.1,0.3,0.7,0.8c0.5,0.4,6.1,3.7,7.1,3.7c1,0,6.7-3.3,7.1-3.7c0.6-0.5,0.5-0.2,0.7-1
			c-1-1-5.8-3.8-7.4-4.3C243.4,238.9,237.3,242,236.2,243.3z"/>
		<path class="st92" d="M151.4,216.9c0.7,0.9,6.8,4.3,7.8,4.3c1.2,0,7.2-3.6,7.7-4.3c-0.6-1.3-6.7-4.5-7.7-4.5
			C158,212.3,151.8,215.7,151.4,216.9z"/>
		<path class="st92" d="M146.6,225c0.5,1.3,6.8,4.5,7.4,4.6c1.6,0.1,7.1-3.3,8-4.2c0.1-0.4,0-0.5-0.5-0.9l-7-3.8
			C153,220.5,147.5,224,146.6,225z"/>
		<path class="st92" d="M169.4,206.8c-0.7-1-6.7-4.3-7.6-4.3c-1.2-0.1-7.7,3.5-7.6,4.3c0,1.2,7,4.4,7.3,4.5
			C162.6,211.3,168.7,207.9,169.4,206.8z"/>
		<path class="st92" d="M210,250.7c0.9,1.2,2.4,1.8,3.8,2.6c4.6,2.6,2.5,1.9,9.8-2c0.5-0.3,0.2-0.1,0.8-0.5c1-0.8,0.2,0,0.7-0.7
			c-1.3-1-6.2-4.1-7.7-4C215.9,246.1,210.5,249.3,210,250.7z"/>
		<path class="st92" d="M145.4,208.5l-1,3.7c0,1.7,3.7,3.7,5.3,3.7c1.5,0,7.1-3.7,7.7-4.6c-0.9-1.5-6.5-4.6-8.3-4.5
			C147.7,206.8,147.6,208.2,145.4,208.5z"/>
		<path class="st92" d="M148.8,197.7l-1.5,4.8c-0.5,1.9-0.6,0.7,0.7,1.6c1.8,1.2,3.3,1.8,4.9,1.5c1.6-0.3,5.7-2.7,6.7-4.1
			c-0.5-1.3-6.6-4.7-7.8-4.6C151,196.8,150.7,197.4,148.8,197.7z"/>
		<path class="st92" d="M142.4,222.1l0.1,1.2c2.9,1.2,2.9,0.6,5.4-0.7c1.2-0.7,3.4-1.8,4.5-2.7c-0.2-1.9-7.1-4.9-8.6-5
			C143.3,216.1,142.3,220.7,142.4,222.1z"/>
		<path class="st92" d="M235.4,231.5c0.5,1,0.1,0.6,1.2,1.3l4.5,2.6c1.3,0.7,1.9,1.3,3.6,0.7c0.7-0.3,2.5-1.4,3.1-2.2
			c-0.5-1.2-4.4-3.1-5.7-3.9c-1.8-1-3.4-1.5-6,0.7C235.6,231.1,235.7,230.8,235.4,231.5z"/>
		<path class="st92" d="M224.6,225.6c0,0.4,0,0.5,1.3,1.2l4.7,2.7c2.9,1.7,5.9-0.7,6.4-1.9c-1.1-1.3-4.7-3-6.1-3.8
			C227.9,222,225.1,224.5,224.6,225.6z"/>
		<path class="st92" d="M204.4,213.8c0.5,1.2,1.7,1.6,2.7,2.1c1,0.6,2.1,1.2,3,1.7c2.5,1.4,3.5,1.9,6.5-1.2c0.2-0.5,0.5-0.7-2.4-2.3
			c-2.9-1.5-4.6-3.3-6.8-2.4C206.2,212.2,204.9,213,204.4,213.8z"/>
		<path class="st93" d="M255.3,243.3c0.9,1,4.5,3,5.9,3.8c1.4,0.8,2,1.2,3.6,0.4c1.1-0.5,2.4-1.1,2.9-2.2c-0.7-1.2-4.4-2.8-6-3.8
			c-1.5-0.9-1.9-1.2-3.6-0.4C256.8,241.8,255.8,242.4,255.3,243.3z"/>
		<path class="st92" d="M214.4,219.3c0.5,1.5,0.5,0.8,2.7,2.1c2.3,1.4,4.8,3.4,6.8,2.4c0.9-0.4,2.4-1.2,2.9-2.2
			c-0.7-1.2-0.9-0.9-2.8-2c-4.1-2.2-4.5-3.9-8.8-1C214.5,219.1,214.9,218.8,214.4,219.3z"/>
		<path class="st92" d="M194.3,208.2c0.7,1.2,4.1,2.8,5.7,3.7c1.2,0.7,1.9,1.4,3.5,0.7c1-0.4,2.5-1.3,3.1-2.1
			c-0.3-1-6.6-5.6-9.3-4.5C196.2,206.5,194.7,207.3,194.3,208.2z"/>
		<path class="st92" d="M184.5,202.5c0,0,6.3,5.6,9.5,4.2c0.7-0.3,2.5-1.3,2.9-2.2c-0.7-1-1.5-1.2-2.8-1.9c-1.2-0.6-2.2-1.2-3.2-1.9
			C187.4,198.7,184.8,201.7,184.5,202.5z"/>
		<path class="st92" d="M164.2,190.7c0.7,1,7.6,4.9,8.2,4.9c1.7-0.4,3.9-1.7,4.3-2.9c-1.1-1-4.2-2.6-5.8-3.5
			C168.4,187.7,166.1,188.6,164.2,190.7z"/>
		<path class="st95" d="M265.3,249c0,0,6.6,5.7,9.5,4.2c1.7-0.8,2.4-1.1,2.8-2.2l-6-3.7C268.8,245.7,266.2,247.6,265.3,249z"/>
		<path class="st92" d="M174.5,196.4c0.4,1,4.6,3.3,5.7,3.9c1.3,0.8,1.9,1.3,3.7,0.6c0.9-0.4,2.4-1.4,2.9-2.2c0,0-6.5-5.5-9.3-4.3
			C176.9,194.7,174.9,196,174.5,196.4z"/>
		<path class="st93" d="M245.3,237.8c1.5,0.3,4.6,2.4,6,3.2c2.1,1.2,5,0,6.2-1.8c-0.7-1-5.4-3.6-6.7-4.1c-1.7-0.3-2.1,0.2-4.3,1.5
			c-0.6,0.4-0.1,0-0.6,0.4C245.9,237.1,245.3,237.8,245.3,237.8z"/>
		<path class="st92" d="M222,246.4c0.6,0.7,6.6,4.4,7.9,4.4c0.6,0,7.3-3.3,7.7-4.7c-0.5-0.7-6.5-4.3-7.7-4.3
			C228.6,241.7,222.6,244.9,222,246.4z"/>
		<path class="st92" d="M148.9,192.8c0.5,1.1,6.6,4.6,7.8,4.5c0.7,0,7-2.8,7.8-4.5c-0.7-1.1-6.6-4.4-7.8-4.4
			C155.4,188.4,149.8,191.6,148.9,192.8z"/>
		<path class="st92" d="M207.3,271.8c1.1,1,6.8,4.2,8,4.1c1.6-0.2,7.1-3.5,7.6-4.5c-0.9-1-6.6-4.4-7.9-4.4
			C213.5,267.1,207.6,270.4,207.3,271.8z"/>
		<path class="st92" d="M205.1,258.9c1.1,1,6.8,4.3,8,4.2c1.7-0.2,7.1-3.5,7.6-4.5c-0.9-1-6.6-4.4-7.9-4.4
			C211.4,254.2,205.4,257.6,205.1,258.9z"/>
		<path class="st92" d="M245.8,249.1c0.6,0.7,6.6,4.4,7.9,4.4c0.7,0,7.3-3.3,7.7-4.7c-0.5-0.7-6.5-4.2-7.7-4.3
			C252.5,244.4,246.4,247.6,245.8,249.1z"/>
		<path class="st96" d="M157.2,62.8l9.4,3.8c1.2,0.5,2.1,2,1.9,3.4L167.3,81c-0.1,1.4-1.2,2.1-2.4,1.6l-9.4-3.9
			c-1.2-0.5-2.1-2-1.9-3.4l1.2-11C154.8,63,156,62.3,157.2,62.8z"/>
		
			<linearGradient id="SVGID_53_" gradientUnits="userSpaceOnUse" x1="2053.8992" y1="-652.5399" x2="1998.9175" y2="-513.7401" gradientTransform="matrix(7.598137e-02 0 0 -7.598137e-02 0.924 28.5929)">
			<stop  offset="0" style="stop-color:#1392A1"/>
			<stop  offset="0.6" style="stop-color:#810FBF"/>
			<stop  offset="1" style="stop-color:#387DC0"/>
		</linearGradient>
		<path class="st97" d="M150.5,63l10.4,4c1.3,0.5,2.2,2,2,3.4l-1.1,10.7c-0.1,1.4-1.3,2.1-2.6,1.7l-10.4-4c-1.3-0.5-2.2-2-2-3.4
			l1.1-10.7C148.1,63.2,149.2,62.5,150.5,63z"/>
		
			<linearGradient id="SVGID_54_" gradientUnits="userSpaceOnUse" x1="1991.0803" y1="-499.9621" x2="2040.1708" y2="-682.8153" gradientTransform="matrix(7.598137e-02 0 0 -7.598137e-02 0.924 28.5929)">
			<stop  offset="0" style="stop-color:#1392A1"/>
			<stop  offset="1" style="stop-color:#12B8D6"/>
		</linearGradient>
		<path class="st98" d="M149.4,63.7l10.9,4.4c0.8,0.3,1.4,1.3,1.2,2.2l-1.3,12.2c-0.1,0.9-0.8,1.3-1.6,1L147.8,79
			c-0.8-0.3-1.3-1.3-1.2-2.2l1.3-12.2C147.9,63.8,148.7,63.3,149.4,63.7z"/>
		<path class="st96" d="M266.6,182.7l14,5.7c1.8,0.7,3.1,3,2.9,5.1l-1.7,16.3c-0.2,2-1.9,3.1-3.7,2.3l-14-5.7
			c-1.8-0.7-3.2-3-2.9-5.1l1.7-16.3C263.1,183,264.8,181.9,266.6,182.7z"/>
		
			<linearGradient id="SVGID_55_" gradientUnits="userSpaceOnUse" x1="3520.9429" y1="-2339.8555" x2="3438.7437" y2="-2132.3452" gradientTransform="matrix(7.598137e-02 0 0 -7.598137e-02 0.924 28.5929)">
			<stop  offset="0" style="stop-color:#1392A1"/>
			<stop  offset="0.6" style="stop-color:#810FBF"/>
			<stop  offset="1" style="stop-color:#387DC0"/>
		</linearGradient>
		<path class="st99" d="M258.8,183.7l15.6,6c1.9,0.7,3.3,3,3.1,5.1l-1.7,16.1c-0.2,2.1-1.9,3.2-3.8,2.4l-15.6-6
			c-1.9-0.7-3.2-3-3-5.1l1.7-16.1C255.1,184.1,256.8,183,258.8,183.7z"/>
		<path class="st100" d="M257.2,184.6l16.3,6.6c1.2,0.5,2,1.9,1.9,3.2l-1.9,18.4c-0.1,1.3-1.2,2-2.4,1.5l-16.3-6.6
			c-1.2-0.5-2-1.9-1.9-3.2l1.9-18.4C254.9,184.8,256,184.2,257.2,184.6z"/>
		<polygon class="st101" points="270.1,130 178.7,77 178.7,174.1 76,252.5 155.2,298.5 269.3,225.7 269.4,225.8 269.4,225.7 
			269.4,225.7 269.4,225.7 		"/>
		<path class="st102" d="M270.2,130c-30.5-17.8-60.9-35.6-91.3-53.4c-19.5,9.2-19.9,37.1-36.4,49.7c19.6,11.4,52.7,27.4,59.2,37.9
			c5.3,5.7,9.8,23,20.5,21c13.9-4.9,19.6-13.3,24.1-21.8C252.8,151,255.7,137.7,270.2,130z"/>
		<path class="st103" d="M100.4,102.5c-17.8-2.3-43.6,24.4-50.5,81.8c-6.9,57.3-3.1,66.5-8.8,70.7c13.9,8.8,66.2,38.7,66.2,38.7
			c-1.6,3.8-0.7,7,2.4,9.6c6.1,5.4,29.5,4.8,30.2-51.1c3.2-50.9,18.2-76.4,29-87.6c10.8-11.2,22.1-10,23.4-9.3c0.5,0-4.3-3.3-12.2-8
			C159.4,135,118.2,111.8,100.4,102.5z"/>
		<path class="st104" d="M41.2,254.9c22.2,12.9,44.3,25.9,66.5,38.8c-2.1,4.2,0.1,7.2,3.1,10.2L39.5,262L41.2,254.9z"/>
		<path class="st105" d="M174.1,160.4l39.7,21.9C201.5,167.2,198.5,143.8,174.1,160.4z"/>
		
			<rect x="217.6" y="57.8" transform="matrix(0.5033 -0.8641 0.8641 0.5033 16.4009 241.6136)" class="st106" width="1.5" height="97.5"/>
		
			<rect x="214.6" y="61.3" transform="matrix(0.5033 -0.8641 0.8641 0.5033 11.8344 240.7612)" class="st106" width="1.5" height="97.5"/>
		
			<rect x="211.8" y="64.4" transform="matrix(0.5033 -0.8641 0.8641 0.5033 7.7315 239.8822)" class="st106" width="1.5" height="97.5"/>
		
			<rect x="209.8" y="67.6" transform="matrix(0.5033 -0.8641 0.8641 0.5033 4.0435 239.7242)" class="st106" width="1.5" height="97.5"/>
		
			<rect x="207.6" y="70.4" transform="matrix(0.5033 -0.8641 0.8641 0.5033 0.5224 239.23)" class="st106" width="1.5" height="97.5"/>
		
			<rect x="205.9" y="73.6" transform="matrix(0.5033 -0.8641 0.8641 0.5033 -3.1005 239.3943)" class="st106" width="1.5" height="97.5"/>
		
			<rect x="204.9" y="76.8" transform="matrix(0.5033 -0.8641 0.8641 0.5033 -6.3229 240.0472)" class="st106" width="1.5" height="97.5"/>
		
			<rect x="204.1" y="80.2" transform="matrix(0.5033 -0.8641 0.8641 0.5033 -9.7113 241.0359)" class="st106" width="1.5" height="97.5"/>
		
			<rect x="202.6" y="83.3" transform="matrix(0.5033 -0.8641 0.8641 0.5033 -13.1399 241.3284)" class="st106" width="1.5" height="97.5"/>
		
			<rect x="200.9" y="86.5" transform="matrix(0.5033 -0.8641 0.8641 0.5033 -16.673 241.4406)" class="st106" width="1.5" height="97.5"/>
		
			<rect x="199.1" y="89.6" transform="matrix(0.5033 -0.8641 0.8641 0.5033 -20.3092 241.3726)" class="st106" width="1.5" height="97.5"/>
		
			<rect x="197.2" y="92.8" transform="matrix(0.5033 -0.8641 0.8641 0.5033 -24.0354 241.3564)" class="st106" width="1.5" height="97.5"/>
		
			<rect x="195" y="96.5" transform="matrix(0.5033 -0.8641 0.8641 0.5033 -28.2779 241.2768)" class="st106" width="1.5" height="97.5"/>
		
			<rect x="192.9" y="99.8" transform="matrix(0.5033 -0.8641 0.8641 0.5033 -32.1981 241.1322)" class="st106" width="1.5" height="97.5"/>
		
			<rect x="190.8" y="102.7" transform="matrix(0.5033 -0.8641 0.8641 0.5033 -35.7577 240.7803)" class="st106" width="1.5" height="97.5"/>
		
			<rect x="138.7" y="80.8" transform="matrix(0.4934 -0.8698 0.8698 0.4934 -40.9363 186.1875)" class="st106" width="1.4" height="94.9"/>
		
			<rect x="134.7" y="82.7" transform="matrix(0.4934 -0.8698 0.8698 0.4934 -44.5774 183.6916)" class="st106" width="1.4" height="94.9"/>
		
			<rect x="130.9" y="84.7" transform="matrix(0.4934 -0.8698 0.8698 0.4934 -48.2939 181.4827)" class="st106" width="1.4" height="94.9"/>
		
			<rect x="126.8" y="87.7" transform="matrix(0.4934 -0.8698 0.8698 0.4934 -52.9929 179.3599)" class="st106" width="1.4" height="94.9"/>
		
			<rect x="123.2" y="90.4" transform="matrix(0.4934 -0.8698 0.8698 0.4934 -57.1743 177.604)" class="st106" width="1.4" height="94.9"/>
		
			<rect x="120.3" y="93.7" transform="matrix(0.4934 -0.8698 0.8698 0.4934 -61.4851 176.7735)" class="st106" width="1.4" height="94.9"/>
		
			<rect x="117.7" y="96.6" transform="matrix(0.4934 -0.8698 0.8698 0.4934 -65.3461 175.985)" class="st106" width="1.4" height="94.9"/>
		
			<rect x="115.2" y="100.2" transform="matrix(0.4934 -0.8698 0.8698 0.4934 -69.6986 175.6046)" class="st106" width="1.4" height="94.9"/>
		
			<rect x="113" y="103.7" transform="matrix(0.4934 -0.8698 0.8698 0.4934 -73.8925 175.4957)" class="st106" width="1.4" height="94.9"/>
		
			<rect x="110.9" y="107.1" transform="matrix(0.4934 -0.8698 0.8698 0.4934 -77.8523 175.3723)" class="st106" width="1.4" height="94.9"/>
		
			<rect x="108.7" y="110.3" transform="matrix(0.4934 -0.8698 0.8698 0.4934 -81.774 175.1053)" class="st106" width="1.4" height="94.9"/>
		
			<rect x="106.7" y="113.9" transform="matrix(0.4934 -0.8698 0.8698 0.4934 -85.9529 175.2313)" class="st106" width="1.4" height="94.9"/>
		
			<rect x="105.2" y="117.3" transform="matrix(0.4934 -0.8698 0.8698 0.4934 -89.6485 175.5614)" class="st106" width="1.4" height="94.9"/>
		
			<rect x="103.8" y="121.1" transform="matrix(0.4934 -0.8698 0.8698 0.4934 -93.692 176.3372)" class="st106" width="1.4" height="94.9"/>
		
			<rect x="100.7" y="128.4" transform="matrix(0.4934 -0.8698 0.8698 0.4934 -101.6274 177.3145)" class="st106" width="1.4" height="94.9"/>
		
			<rect x="99.2" y="132.8" transform="matrix(0.4934 -0.8698 0.8698 0.4934 -106.1774 178.2635)" class="st106" width="1.4" height="94.9"/>
		
			<rect x="98" y="137.8" transform="matrix(0.4934 -0.8698 0.8698 0.4934 -111.1659 179.7111)" class="st106" width="1.4" height="94.9"/>
		
			<rect x="96.9" y="142.8" transform="matrix(0.4934 -0.8698 0.8698 0.4934 -116.0487 181.3402)" class="st106" width="1.4" height="94.9"/>
		
			<rect x="95.9" y="147.6" transform="matrix(0.4934 -0.8698 0.8698 0.4934 -120.7499 182.8635)" class="st106" width="1.4" height="94.9"/>
		
			<rect x="95.1" y="152.9" transform="matrix(0.4934 -0.8698 0.8698 0.4934 -125.7085 184.7798)" class="st106" width="1.4" height="94.9"/>
		
			<rect x="93" y="167.7" transform="matrix(0.4934 -0.8698 0.8698 0.4934 -139.6472 190.4686)" class="st106" width="1.4" height="94.9"/>
		
			<rect x="92.6" y="174.1" transform="matrix(0.4934 -0.8698 0.8698 0.4934 -145.4826 193.3819)" class="st106" width="1.4" height="94.9"/>
		
			<rect x="92.6" y="180.8" transform="matrix(0.4934 -0.8698 0.8698 0.4934 -151.2887 196.7636)" class="st106" width="1.4" height="94.9"/>
		
			<rect x="92.1" y="187.3" transform="matrix(0.4934 -0.8698 0.8698 0.4934 -157.1243 199.6765)" class="st106" width="1.4" height="94.9"/>
		
			<rect x="90.9" y="193.3" transform="matrix(0.4934 -0.8698 0.8698 0.4934 -163.02 201.6525)" class="st106" width="1.4" height="94.9"/>
		
			<rect x="89.8" y="199.2" transform="matrix(0.4934 -0.8698 0.8698 0.4934 -168.6284 203.7042)" class="st106" width="1.4" height="94.9"/>
		
			<rect x="88.4" y="204" transform="matrix(0.4934 -0.8698 0.8698 0.4934 -173.5409 204.8648)" class="st106" width="1.4" height="94.9"/>
		
			<rect x="87.1" y="208.8" transform="matrix(0.4934 -0.8698 0.8698 0.4934 -178.3482 206.207)" class="st106" width="1.4" height="94.9"/>
		
			<rect x="86.1" y="214.2" transform="matrix(0.4934 -0.8698 0.8698 0.4934 -183.594 208.0474)" class="st106" width="1.4" height="94.9"/>
		
			<rect x="84" y="218.1" transform="matrix(0.4934 -0.8698 0.8698 0.4934 -188.0979 208.241)" class="st106" width="1.4" height="94.9"/>
		
			<rect x="80.2" y="221.3" transform="matrix(0.4934 -0.8698 0.8698 0.4934 -192.7216 206.5603)" class="st106" width="1.4" height="94.9"/>
		
			<rect x="76.5" y="224.2" transform="matrix(0.4934 -0.8698 0.8698 0.4934 -197.1638 204.774)" class="st106" width="1.4" height="94.9"/>
		<path class="st107" d="M23.4,226.9c0.3,2.6,1.8,10.8,2.8,13.6c0.3,0.3,0.3,0.7,0.6,1c1,0.8,0.4-0.1,0.9,0.9c0.9,0.1,4.3,2,6,2.5
			c2.5,2,6.5,0.6,7.9,0.5h0.8c0.6-1,3.8-18.2,1.4-24.3c-1.5-4.5-4.6,0.3-9.8,0.9c-0.9,0.1-1.6,0-2.2,0c-1.2-0.1-2.8-0.3-5.6-2
			c-3-1.9-2.4-2.4-4.4-4.6L23.4,226.9z"/>
		<path class="st108" d="M34.7,245.4c0,0.2-2.8,16.9-1.9,22.6c0.3,2.3,1.5,6.6,0.6,8.7c0,0.1-0.2,0.5-0.2,0.5
			c-0.1,0.2-0.1,0-0.2,0.6c0.3,0.9,1.6,1.8,2.5,2.9c1,1.3,3.9,5.5,5.1,6c2,0.8,2.3-1.4,1.9-2.8c-4.2-2.8-2.4-15.1-1.6-19.7
			c1.3-6.2,3.6-13.2,4.1-19.2C43.7,245.3,35.6,245.9,34.7,245.4z"/>
		<linearGradient id="SVGID_56_" gradientUnits="userSpaceOnUse" x1="7.6422" y1="287.094" x2="64.2829" y2="287.094">
			<stop  offset="0" style="stop-color:#4F8CA5"/>
			<stop  offset="1" style="stop-color:#192C55"/>
		</linearGradient>
		<path class="st109" d="M26.3,280.9c-0.3-1.1-1-2.5-0.4-3.9c0.2-0.3,0.6-0.9,0.9-1.3c0.7-0.8,0.5-0.7,1.3-1
			c0.1-0.9,0.4-2.6,0.3-3.1c-18.1,0.8-28.2,13.8-14.5,24.6c0.8,0.7,1.2,1,2.2,1.7c1.7,1,3,1.6,4.9,2.4c1.2,0.5,1.2,0.5,2.6,0.9
			c1.9,0.6,4,1.1,6.2,1.3c4.2,0.8,10.7,0.6,15.1-0.2c6.6-1.2,16.3-4.9,18.7-12c3.7-12.2-10.5-19.5-23.7-19.1
			c-0.3,1.8-0.4,6.3,0.4,9.4c0.5,1.9,1.2,2.6,1.8,3.4c2.1-0.2,6,0,7.7,0.6c0.2,2.1-3.5,5-5.1,5.7c-1.4,0.7-3.1,0.9-4.5,0.1
			c-0.5-0.3-1.1-0.9-1.5-1.2c-0.8-0.7-0.7-0.7-1.6-1.1l-0.8-0.9c-1.2-1-1.9-1.6-3.4-1.4c-1,1.9-0.3,3.1-0.6,5.3l-1-0.1
			c-0.2-3.1,0.1-6.6-2.1-8.1c-1.4,1.7-0.9,3.6-1.1,5.2c-0.8-0.5-0.2,0.5-0.4-0.7C27.8,286.5,28.4,283.3,26.3,280.9z"/>
		<path class="st110" d="M15.5,181.7c-0.3,3.5-0.9,7.4-1,10.8c0,2,0.2,3.5,0.7,5.1c0.6,1.5,1.5,2.7,1.9,4l2.7,4.2
			c2.1-0.3,2.7-1.9,3.2-4c-0.2-2.2-1.2-5.1-1.6-7.3c-0.2-1.4-0.5-2.2-0.1-3.7c0.2-1.2,0.8-2.5,0.9-3.7c-0.1-2.3-0.1-0.7-0.7-2.4
			l-0.6-1.6c-1.5-2.6-2.9-5.8-3.5-8.8l-0.8,0.3C15.7,176.4,15.9,179.6,15.5,181.7z"/>
		<path class="st111" d="M40.4,218.5c-2.1,1.5-3.5,2.6-6.6,3.1l-3.2,0.3c10.3,2.7,17.4-15.8,11.8,23.5c1.1-0.1,1.9-0.2,2.5-0.3
			c1.8-6.3,4.6-19.4,4.4-27c-0.1-1.7-0.4-3.3-1.1-5.1C45.1,212.8,42.9,216.8,40.4,218.5z"/>
		<path class="st112" d="M28.5,272.6l-0.3,2.1c1,0.3,1.7,0.6,2.6,1.1c1,0.6,1.4,1.2,2.2,1.7c0.2-0.5,0.2-0.7,0.4-1.2
			c0.9-2.1,0-6.6-0.3-9c-0.6-3.7-0.3-7.3,0.2-11.2c0.3-2,0.3-4.5,1.5-10.8c-3.3-2.8-7.8-4.7-8.5-4.9c-0.8,2.5,0.1,18.2,0.7,22.2
			C27.3,265.8,28.8,269.5,28.5,272.6z"/>
		<path class="st110" d="M45.1,214.1c1.2-0.8,1.1-0.9,3.1-1.2c-1-4.1-2.7-8.6-2.8-12.7c-0.1-2.6,0.8-4.2,1.4-6.4
			c-0.8-0.7-5.3-4.3-6.1-4.6c-1.4,5.1,0.4,8,1,11C42.7,204.4,43.4,208,45.1,214.1z"/>
		<path class="st113" d="M36,166.6c2.9-0.8,3.4-1.1,4.4-4.1c0.3-1,0.9-6.4,0.7-7.6h-0.5c-0.2,1.9-1.7,1-2.4,6.1
			c-1.6-0.5-0.5-0.7-1.3-1.7C34.2,159.9,35.8,166.2,36,166.6z"/>
		<path class="st114" d="M40.6,154.9H41v-1c0.2-1,0.2-1.9-0.1-2.7c-2.4-7-13.9-7.6-17.2,0.2c-1.9,4.7,1,11.3-1.5,15.3
			c-0.4,1.5-5.3,5.8-2.3,11.5c1.1,2,2.4,2.7,5.8,3.6c2.9,0.9,7.2,2.4,9.5-0.2c3.9-4.4,2.7-4.1,2.1-9.7c-0.1-0.3-0.6-1.6-0.8-2.4
			c-0.3-1.1-0.5-1.7-0.6-2.9c-0.2-0.4-1.7-6.7,0.8-7.3c0.8,1-0.2,1.3,1.3,1.7C38.9,155.9,40.3,156.8,40.6,154.9z"/>
		<path class="st115" d="M19.9,205.8l1.2,3.7l2.9-7.7l-0.9,0C22.6,203.9,22,205.5,19.9,205.8z"/>
		
			<linearGradient id="SVGID_57_" gradientUnits="userSpaceOnUse" x1="1322.3159" y1="-2417.8135" x2="1220.7122" y2="-2450.4202" gradientTransform="matrix(7.598137e-02 0 0 -7.598137e-02 0.924 28.5929)">
			<stop  offset="0" style="stop-color:#FDDDDB"/>
			<stop  offset="1" style="stop-color:#FDBCB8"/>
		</linearGradient>
		<path class="st116" d="M99.9,210.1c0.5,0.1,0.9,0.5,1.1,1c0.2,0.5,0.3,1,0.4,1.5c0.1,0.9-5.3,5.4-7.3,4.4
			c-0.6-0.3-0.3-0.9-0.4-1.5c-0.2-2,2.4-3.4,3.9-4.6c0.4-0.3,0.8-0.6,1.3-0.7C99.3,210.1,99.6,210.1,99.9,210.1z"/>
		
			<linearGradient id="SVGID_58_" gradientUnits="userSpaceOnUse" x1="1351.1714" y1="-2367.2529" x2="1283.8232" y2="-2405.6309" gradientTransform="matrix(7.598137e-02 0 0 -7.598137e-02 0.924 28.5929)">
			<stop  offset="0" style="stop-color:#FDDDDB"/>
			<stop  offset="1" style="stop-color:#FDBCB8"/>
		</linearGradient>
		<path class="st117" d="M104.1,208.6c0.1,0.6-2.4,1.5-2.8,1.7c-1,0.6-1.8,1.9-3.3,1c0-0.8,2.9-2.1,4.7-2.6
			C103.6,208.4,104.2,208.4,104.1,208.6z"/>
		
			<linearGradient id="SVGID_59_" gradientUnits="userSpaceOnUse" x1="1339.1633" y1="-2399.97" x2="1293.1251" y2="-2429.6558" gradientTransform="matrix(7.598137e-02 0 0 -7.598137e-02 0.924 28.5929)">
			<stop  offset="0" style="stop-color:#FDDDDB"/>
			<stop  offset="1" style="stop-color:#FDBCB8"/>
		</linearGradient>
		<path class="st118" d="M102.9,211c0.6,0.3,0.8,1.6,0.4,2.1c-0.6-0.1-0.4-0.8-0.7-1.2c-0.3-0.3-0.7-0.2-1.1-0.1
			c-1.2,0.1-2.5,1-3.5-0.4c0.1-0.2,0.5-0.5,0.9-0.6C100.2,210.5,102.2,210.6,102.9,211z"/>
		<path class="st119" d="M101.6,213c0.4,0.2,0.7,1.1,0.5,1.5c-0.5,0-0.4-0.5-0.7-0.7c-0.2-0.2-0.4-0.1-0.6,0c-0.1,0-0.1,0-0.2,0l0,0
			c-1.5,1.6-5.1,4-6.5,3.3c-0.6-0.3-0.3-0.9-0.4-1.5c-0.2-2,2.4-3.4,3.9-4.6c0.4-0.3,0.8-0.6,1.3-0.7c0.1,0,0.2-0.1,0.4-0.1
			c1-0.6,2.4-1.1,3.4-1.4c0.8-0.2,1.4-0.3,1.4-0.1c0.1,0.6-2.4,1.5-2.8,1.7c-0.2,0.1-0.4,0.2-0.5,0.4c0.9,0,1.7,0.2,2.1,0.4
			c0.6,0.3,0.8,1.6,0.4,2.1c-0.6-0.1-0.4-0.8-0.7-1.2c-0.2-0.2-0.5-0.2-0.7-0.2l0,0c0.6,0.2,1.2,1.4,0.9,2c-0.6,0-0.6-0.7-1-1l0,0
			l0,0h0l0,0l0,0l0,0v0l0,0l0,0l0,0h0l0,0l0,0l0,0l0,0l0,0l0,0l0,0l0,0h0l0,0l0,0l0,0v0l0,0l0,0l0,0h0l0,0l0,0l0,0l0,0l0,0l0,0l0,0
			h0l0,0l0,0l0,0l0,0l0,0l0,0h0l0,0l0,0l0,0l0,0l0,0l0,0l0,0l0,0h0l0,0l0,0l0,0l0,0l0,0l0,0h0l0,0l0,0l0,0l0,0l0,0l0,0l0,0l0,0h0
			l0,0l0,0l0,0l0,0l0,0l0,0l0,0h0l0,0l0,0l0,0l0,0l0,0l0,0l0,0h0l0,0l0,0l0,0l0,0l0,0l0,0l0,0l0,0c0,0.1,0,0.2-0.1,0.2l0,0l0,0l0,0
			l0,0l0,0l0,0l0,0l0,0l0,0l0,0h0l0,0l0,0l0,0l0,0l0,0l0,0l0,0l0,0l0,0l0,0l0,0h0l0,0l0,0l0,0l0,0l0,0l0,0l0,0l0,0l0,0l0,0h0l0,0
			l0,0l0,0l0,0l0,0l0,0l0,0l0,0l0,0l0,0v0l0,0H101.6L101.6,213L101.6,213L101.6,213L101.6,213L101.6,213L101.6,213L101.6,213
			L101.6,213L101.6,213L101.6,213L101.6,213L101.6,213L101.6,213L101.6,213L101.6,213L101.6,213L101.6,213L101.6,213L101.6,213
			L101.6,213L101.6,213L101.6,213L101.6,213z"/>
		<path class="st114" d="M87.3,327.2h7.4v-0.7l4.5,0.5v0.7c8.4,0.8,12.6-3.1,10.5-5.6l-13.4,0.2c0,0-4.9,1.1-5.5,1.1
			c-0.6,0-3.8,0.7-3.8,0.7S86.8,325.9,87.3,327.2z"/>
		<path class="st120" d="M87,322.2c0.1,0.5-0.6,2.4,0.2,3c0.8,0.6,2.3,0.8,2.9,0.8c0.6,0,4.5,0.1,4.5,0.1s3.7,0.4,4.4,0.5
			c0.7,0.1,8.4,1.4,10.7-2.5c2.3-3.9-7.9-4.5-9.7-4.4c-1.8,0.1-6.8,2.9-8.1,2.9C90.6,322.5,87,322.1,87,322.2z"/>
		<path class="st121" d="M83.7,251.7c0,0,8.3,2.6,16.4,0.9c0.7,2.9,3.4,9.5,2.9,22.8c-0.5,13.2-6.1,28.4-5.3,33.9
			c0.7,5.4,2.4,9.7,2.3,10.4c-6.1,2.7-9.9,3.7-13,3.6c0.2-25.4,2.6-18.2,1.9-38.5C88.7,279.4,78.2,256.9,83.7,251.7z"/>
		<path class="st114" d="M75.8,316.4c0.6,1.4,1.3,2.1,2.5,1.9c3.3-0.3,7.6-6.3,7.5-7l-4.1,2.9l-3.5,2.7
			C78.1,317.1,75.8,316.4,75.8,316.4z"/>
		<path class="st120" d="M75.6,316.2c0,0,1.7,2.2,3.1,1.6c1.9-0.8,7.3-5.7,7.8-7.6c0.6-2.4-2.9-3-3.7-2.1l-1.7,3.2
			c0,0-0.7,1.7-0.8,2c-0.2,0.3-1,1.9-1.4,2.1c-0.3,0.2-0.9,0.4-1.4,0.5C77,316,75.6,316.2,75.6,316.2z"/>
		<path class="st122" d="M74.5,247.3c0,0-3.3,6.1-1.6,12.9c1.7,6.7,4.2,16.1,1.7,29.2c-0.2,2.6-1.3,20.2,1,26.9
			c3.9,0.5,7.7-4.2,8.2-6.8s3.4-28.4,3.6-29.7c0.2-1.4-2.2-11.4-2.4-12.9c-0.2-1.5-2.5-7.3-2.8-9.1c-0.3-1.9,1.5-5.8,1.5-5.8
			S74.6,247.3,74.5,247.3z"/>
		<path class="st113" d="M84.4,199.8c-0.1,1,0.7,0.7-1.1,1c-0.4,0.1-1.9,0-2.4,0l-1.4-0.7c0.2,0.4-0.5,1-0.8,1
			c0.2,0.9,0,0.7,0.3,1.3c0,0,9.5,5.1,10.8,4.9c-0.4-1.7-1.7-3.2,0.2-4.7l1.6-0.9c4.4,0.6,2.9-1.2,3.9-6.5c0.4-1.8,0.5-0.4,1.3-2.1
			c-0.7-1.8-0.7,0-1.1-3.4c-0.1-0.5-0.2-1.3-0.3-1.8c-0.1-1.1-0.5-1.4-1-1.4c-1.2,1.4-1.7,0.7-1.8,2.1c-0.1,1.1,0.5,1.5,0.3,3.3
			c-2,1.9-1,1-1.5,4.1l-3-0.6l-0.5,0c-1.2-0.2-2.2,2.3-2.7,3C84.8,198.9,84.8,199.4,84.4,199.8z"/>
		<path class="st114" d="M84.8,199l-0.4-0.5c-0.5-2-1-1.1,0.5-2c1-0.6,0.2,0.2,1-1.1c0.2-0.4,0.4-0.6,0.7-1l1.2,0.5
			c0.5,0.4,0.3,0,0.7,0.6l2.9,0.3c0.5-3.1-0.5-2.1,1.5-4.1c0.2-1.9-0.4-2.2-0.3-3.3c0.1-1.4,0.6-0.7,1.8-2.1
			c1.9-1.9,0.6-2.8-0.1-3.5c-6.8-5.8-18.6-1.4-18.8,8c-0.1,3.7,1.2,4.7,3,7.8c1.2,2.7,5.1,3,5.9,1.8C84.6,200.4,84.8,199.1,84.8,199
			z"/>
		<path class="st113" d="M85,199.1c0.6-0.6,0.9-1.6,1.2-2.3c0.5-0.9,1.1-1.5,2.2-1.5c-0.4-0.5-0.7-0.8-1.6-1.2
			c-1.7-0.6-4.7,2.7-2.2,4.9L85,199.1z"/>
		
			<linearGradient id="SVGID_60_" gradientUnits="userSpaceOnUse" x1="1703.8422" y1="-2358.9172" x2="1602.484" y2="-2424.0161" gradientTransform="matrix(7.598137e-02 0 0 -7.598137e-02 0.924 28.5929)">
			<stop  offset="0" style="stop-color:#FDDDDB"/>
			<stop  offset="1" style="stop-color:#FDBCB8"/>
		</linearGradient>
		<path class="st123" d="M127.1,205.6c0.6-0.1,1.2,0.1,1.7,0.5c0.5,0.3,0.8,0.8,1.2,1.2c0.6,0.9-2.5,8.1-4.9,8.2
			c-0.7,0-0.8-0.7-1.2-1.3c-1.2-1.9,0.6-4.6,1.5-6.7c0.2-0.5,0.5-1,0.9-1.4C126.5,205.9,126.7,205.7,127.1,205.6z"/>
		
			<linearGradient id="SVGID_61_" gradientUnits="userSpaceOnUse" x1="1713.9288" y1="-2291.9675" x2="1639.783" y2="-2348.9148" gradientTransform="matrix(7.598137e-02 0 0 -7.598137e-02 0.924 28.5929)">
			<stop  offset="0" style="stop-color:#FDDDDB"/>
			<stop  offset="1" style="stop-color:#FDBCB8"/>
		</linearGradient>
		<path class="st124" d="M130.5,201.8c0.4,0.5-1.6,2.7-1.9,3.2c-0.7,1.1-0.7,2.9-2.7,2.8c-0.4-0.8,1.9-3.7,3.4-5.1
			C129.9,202,130.5,201.6,130.5,201.8z"/>
		
			<linearGradient id="SVGID_62_" gradientUnits="userSpaceOnUse" x1="1704.9843" y1="-2315.6812" x2="1674.8018" y2="-2371.6455" gradientTransform="matrix(7.598137e-02 0 0 -7.598137e-02 0.924 28.5929)">
			<stop  offset="0" style="stop-color:#FDDDDB"/>
			<stop  offset="1" style="stop-color:#FDBCB8"/>
		</linearGradient>
		<path class="st125" d="M130.6,204.9c0.7,0,1.6,1.2,1.5,1.9c-0.7,0.2-0.8-0.6-1.3-0.8c-0.4-0.2-0.7,0.2-1.1,0.4
			c-1.1,0.7-1.9,2.3-3.7,1.4c0-0.3,0.2-0.7,0.6-1C127.6,205.8,129.7,204.9,130.6,204.9z"/>
		<path class="st119" d="M130.3,207.6L130.3,207.6L130.3,207.6L130.3,207.6L130.3,207.6L130.3,207.6L130.3,207.6L130.3,207.6
			L130.3,207.6L130.3,207.6h0.1l0,0h0l0,0l0,0l0,0l0,0l0,0h0l0,0l0,0l0,0h0l0,0h0l0,0v0l0,0h0l0,0h0l0,0l0,0l0,0l0,0l0,0h0l0,0l0,0
			l0,0l0,0l0,0h0l0,0v0l0,0h0l0,0h0l0,0v0h0l0,0l0,0l0,0l0,0l0,0l0,0l0,0h0l0,0v0l0,0h0v0l0,0l0,0l0,0l0,0l0,0l0,0l0,0h0v0l0,0l0,0
			l0,0l0,0l0,0l0,0v0l0,0l0,0l0,0l0,0v0l0,0l0,0v0l0,0l0,0v0l0,0l0,0l0,0l0,0v0l0,0l0,0v0l0,0l0,0l0,0v0v0l0,0h0v0l0,0h0l0,0l0,0h0
			l0,0l0,0l0,0h0l0,0l0,0l0,0c-0.2,0-0.4-0.2-0.6-0.3l0,0l0,0l0,0c0,0,0,0,0,0l0,0h0l0,0h0l0,0l0,0v0h0l0,0h0l0,0l0,0h0l0,0l0,0h0
			l0,0l0,0h0l0,0l0,0h0l0,0l0,0l0,0l0,0l0,0h0l0,0l0,0l0,0h0l0,0l0,0l0,0h0l0,0l0,0l0,0l0,0l0,0v0l0,0h0l0,0l0,0l0,0c0,0,0,0,0,0
			l0,0h0l0,0c-0.1,0.1-0.2,0.2-0.2,0.2l0,0l0,0l0,0l0,0l0,0l0,0l0,0l0,0l0,0l0,0l0,0l0,0l0,0l0,0l0,0l0,0l0,0l0,0l0,0l0,0l0,0l0,0
			l0,0l0,0l0,0l0,0l0,0l0,0l0,0l0,0l0,0l0,0l0,0h0l0,0v0l0,0l0,0l0,0l0,0l0,0l0,0l0,0l0,0l0,0l0,0l0,0l0,0l0,0l0,0l0,0l0,0l0,0h0
			l0,0v0l0,0l0,0l0,0l0,0l0,0l0,0l0,0l0,0l0,0l0,0l0,0l0,0l0,0c-0.7,2.4-3,6.6-4.8,6.6c-0.7,0-0.8-0.7-1.2-1.3
			c-1.2-1.9,0.6-4.6,1.5-6.7c0.2-0.5,0.5-1,0.9-1.4c0.1-0.1,0.2-0.2,0.3-0.2c0.7-1.1,1.8-2.4,2.7-3.2c0.7-0.7,1.2-1,1.3-0.8
			c0.4,0.5-1.6,2.7-1.9,3.2c-0.1,0.2-0.2,0.4-0.3,0.7c0.9-0.5,1.8-0.7,2.3-0.7c0.7,0,1.6,1.2,1.5,1.9c-0.7,0.2-0.8-0.6-1.3-0.8
			c-0.3-0.1-0.5,0-0.8,0.2l0,0l0,0h0c0.7-0.1,1.8,0.8,1.9,1.5c-0.6,0.3-1-0.4-1.5-0.5l0,0l0,0l0,0l0,0l0,0h0l0,0l0,0l0,0l0,0l0,0h0
			l0,0l0,0l0,0l0,0h0l0,0l0,0l0,0l0,0l0,0l0,0h0l0,0l0,0l0,0l0,0l0,0h0v0l0,0l0,0l0,0l0,0h0l0,0l0,0l0,0l0,0l0,0h0l0,0l0,0l0,0l0,0
			l0,0l0,0l0,0h0l0,0l0,0l0,0l0,0l0,0h0v0l0,0l0,0h0l0,0l0,0c0,0.1,0,0.2,0,0.3l0,0l0,0c0,0,0,0,0.1,0l0,0l0,0l0,0l0,0l0,0l0,0l0,0
			h0l0,0l0,0l0,0l0,0l0,0l0,0h0l0,0l0,0l0,0l0,0l0,0l0,0l0,0l0,0l0,0L130.3,207.6L130.3,207.6L130.3,207.6L130.3,207.6L130.3,207.6
			L130.3,207.6L130.3,207.6L130.3,207.6L130.3,207.6L130.3,207.6L130.3,207.6L130.3,207.6L130.3,207.6L130.3,207.6L130.3,207.6
			L130.3,207.6L130.3,207.6L130.3,207.6L130.3,207.6L130.3,207.6L130.3,207.6L130.3,207.6L130.3,207.6L130.3,207.6L130.3,207.6
			L130.3,207.6z"/>
		<path class="st126" d="M62.7,231.5c0.3,2,0.3,2.9,2.3,3.6c1-0.2,1.6,1.3,1.4-3.9c-0.1-3.4,1.2-8.3,1.8-11.8c0,0,8.2,14,7.4,20.4
			c-0.5,2-2.2,5.5-2,7.8c6.3,4.6,16.8,6.6,24.5,5.4l-2.5-9.9c1.6-6.8-0.5-8.2,0.1-12.1l-3.3-4.1c2.2,1.1,4.6,2.1,7.1,2.9l0.3,5.8
			l0.1-5.9l11.4,3.1c1.5,0.3,5.1,1.2,6.5,0.9c4-0.9,9.5-14.7,10.9-19.2c-1.2-1.4-3.7-2.6-5.5-3.1l-1.2,2.1c-1.8,2.3-4.8,7.2-6.2,9.9
			c-0.2,0.4-0.1,0.5-0.6,1c-2,0-14.6-7.5-17.8-9.2c-1.4-0.7-1.9-0.9-3-1.5c-1.6-0.8-0.9-1-2.1-1.9l-2.4-1.4c-0.1,0-0.2,0-0.2,0
			c-1.2-0.1-0.2,0.1-1.3-0.3l-7.1-2.4c-2.7-2.2-2.3-1.5-5.4-3.1c-9.1,0.1-8.8,4-10.7,9.4C62.3,221.9,62.2,222.8,62.7,231.5z"/>
		<path class="st127" d="M65,235.1c3.3,1.2,11.3,0.8,9.1-3.7c-1.4-3.9-3.3-8-5.7-12.7c-0.4,0.5-2.3,10.5-2.2,11.9
			C66.3,235.8,66,234.9,65,235.1z"/>
		<path class="st127" d="M99.9,237.1l0-1.2l0-0.4l0-5.9c-2.5-0.8-5.3-1.8-7.5-2.9l2.4,4.1c2.7,5.8-4.3,19.2-1.9,22.3
			c2.1,0.3,5.9-0.4,7.2-0.6L99.9,238V237.1z"/>
		<path class="st128" d="M92.3,211.9c-0.2-7.9-12.5-8.2-13.3-9.8c-0.2-0.5-0.1-0.1-0.3-1c0,0.1-0.1,0.1-0.1,0.2
			c-0.3,1.9-2.7,2.2-2.9,3.4C78.3,208.2,79.3,209.1,92.3,211.9z"/>
		<path class="st129" d="M27.8,287.3c0,0.1,0,0.3,0,0.8h0.5c0.5-1.5-0.3-3.5,1-5.2c2.2,1.5,1.9,5,2.1,8.1l1,0.1
			c0.3-2.2-0.4-3.4,0.6-5.3c1.9-0.3,4.3,2.1,5.8,3.4c0.4,0.3,1,1,1.5,1.2c1.4,0.8,3.2,0.6,4.5-0.1c1.6-0.7,5.4-3.6,5.1-5.7
			c-1.7-0.6-4.9-1-7.5-0.7c0.4,1.4,0.2,3.4-1.8,2.6c-1.2-0.5-4.1-4.7-5.1-6c-1-1.7-3.1-3.7-4.7-4.7c-1-0.5-1.6-0.8-2.6-1.1
			c-1,0.2-1.8,1.3-2.2,2.2C24.1,279.2,28,282.6,27.8,287.3z"/>
		
			<linearGradient id="SVGID_63_" gradientUnits="userSpaceOnUse" x1="932.3567" y1="-1941.7937" x2="847.0998" y2="-1996.5514" gradientTransform="matrix(7.598137e-02 0 0 -7.598137e-02 0.924 28.5929)">
			<stop  offset="0" style="stop-color:#FDDDDB"/>
			<stop  offset="1" style="stop-color:#FDBCB8"/>
		</linearGradient>
		<path class="st130" d="M69,174.3c0.5-0.1,1,0.1,1.4,0.4c0.4,0.3,0.7,0.7,1,1.1c0.5,0.7-2.1,6.8-4.1,6.9c-0.6,0-0.7-0.6-1-1.1
			c-1-1.6,0.5-3.9,1.3-5.6c0.2-0.4,0.4-0.8,0.7-1.2C68.5,174.5,68.7,174.3,69,174.3z"/>
		<path class="st119" d="M71.4,175.7c0,0.1,0,0.2,0,0.2c0.1,0,0.2,0,0.2,0c0.5,0,1.1,0.5,1.1,1c-0.4,0.2-0.5-0.3-0.9-0.4
			c-0.2,0-0.4,0.1-0.5,0.3c0,0-0.1,0.1-0.1,0.1l0,0c-0.6,2-2.5,5.6-4,5.6c-0.6,0-0.7-0.6-1-1.1c-1-1.6,0.5-3.9,1.3-5.6
			c0.2-0.4,0.4-0.8,0.7-1.2c0.1-0.1,0.2-0.2,0.3-0.2c0.6-0.9,1.5-2,2.2-2.7c0.6-0.6,1-0.9,1.1-0.7c0.4,0.5-1.4,2.3-1.6,2.7
			c-0.1,0.2-0.2,0.3-0.3,0.5c0.7-0.4,1.5-0.6,2-0.6c0.6,0,1.3,1,1.2,1.6c-0.6,0.1-0.7-0.5-1.1-0.7c-0.2-0.1-0.5,0-0.7,0.2h0
			c0.6-0.1,1.5,0.6,1.6,1.2c-0.5,0.3-0.8-0.3-1.2-0.4C71.7,175.6,71.5,175.7,71.4,175.7z"/>
		<path class="st119" d="M71.7,176c0.5,0,1.1,0.5,1.1,1c-0.4,0.2-0.5-0.3-0.9-0.4c-0.2,0-0.4,0.1-0.5,0.3c0,0-0.1,0.1-0.1,0.1
			c-0.2,0.1-0.3,0.3-0.4,0.5c-0.4,0.5-0.8,1.1-1.7,0.8c0,0,0-0.1,0-0.1c-0.2,0.1-0.5,0-0.9,0c-0.1-0.5,0.2-1.1,0.8-1.7
			c-0.3,0-0.6,0-1-0.2c0,0,0,0,0-0.1c0,0,0,0-0.1,0c-0.3-0.7,1.6-3.1,2.8-4.3c0.6-0.6,1-0.9,1.1-0.7c0.4,0.5-1.4,2.3-1.6,2.7
			c-0.1,0.2-0.2,0.3-0.3,0.5c0.7-0.4,1.5-0.6,2-0.6c0.6,0,1.3,1,1.2,1.6c-0.6,0.1-0.7-0.5-1.1-0.7c-0.2-0.1-0.5,0-0.7,0.2h0
			c0.6-0.1,1.5,0.6,1.6,1.2c-0.5,0.3-0.8-0.3-1.2-0.4c-0.4,0-0.5,0.2-0.8,0.5C71.3,176,71.5,176,71.7,176z"/>
		<path class="st131" d="M16.6,174.7l0.8-0.3c0.6,2.9,2.1,6.2,3.5,8.8l0.6,1.6c0.5,1.4,1.1,2.4,1.6,3.7l1.7,5.5c1,4.8,0.4,4-0.9,7.9
			l-2.9,7.7c-0.2,3,0.3,3.3,0.7,5.7c2,2.2,1.4,2.7,4.4,4.6c1.9,1.2,4.9,2.7,7.6,1.7c3.1-0.5,4.5-1.7,6.6-3.2c1.5-1,4.4-3.1,4.8-3.9
			c0.6-1.5,0-0.3-0.7-3.4c-0.2-0.8-0.6-2.3-0.8-3c-2-7.6-0.5-6.3-0.8-13.7c-0.1-2.7-2-3.8-2-5.3c0.7,0.3,5.4,4,6.1,4.6
			c1.8,1.6,5.8,4.7,9,5.4c2.2,0.4,4.4-2.3,5.2-3.5c0.8-1.1,1.6-2,2.4-3.2c0.9-1.4,1.5-2.3,2.2-3.5c0.7-1.2,3.9-6.6,4.4-7.1l0.5-1.2
			c-0.4-1.5-1.9-2.3-3.8-2.4c-1.4,0-1.2,0.1-1.9,1.2c-0.4,0.6-1,1.2-1.4,1.7c-1.2,1.7-5.7,6.6-7.6,7.7c-0.7-0.3-1.8-1.4-2.3-1.9
			c-2.4-2.1-3.4-3.1-5.4-5.6c-1.1-1.3-2.2-2.3-3.2-3.5c-1.5-1.9-5-5.1-7.6-6c0.6,5.6,1.8,5.2-2.1,9.7c-2.3,2.7-6.6,1.1-9.5,0.2
			c-3.4-1-4.7-1.6-5.8-3.6c-3-5.7,1.9-10,2.3-11.5c-0.3,1-0.8,0.7-1.9,1.2c-0.8,0.4-1.5,1-1.8,1.5C17.5,170.8,17,172.9,16.6,174.7z"
			/>
	</g>
</g>
</svg>
