<?xml version="1.0" encoding="utf-8"?>
<!-- Generator: Adobe Illustrator 16.0.0, SVG Export Plug-In . SVG Version: 6.00 Build 0)  -->
<!DOCTYPE svg PUBLIC "-//W3C//DTD SVG 1.1//EN" "http://www.w3.org/Graphics/SVG/1.1/DTD/svg11.dtd">
<svg version="1.1" id="Layer_1" xmlns="http://www.w3.org/2000/svg" xmlns:xlink="http://www.w3.org/1999/xlink" x="0px" y="0px"
	 width="750px" height="500px" viewBox="0 0 750 500" enable-background="new 0 0 750 500" xml:space="preserve">
<path opacity="0.4" fill="#F4F4F4" enable-background="new    " d="M532.355,218.936c-29.352,41.648-91.986,170.461-76.582,218.266
	l-224.707,0.05c0,0-32.47-22.912-64.015-62.75c-5.73-7.237-11.434-15.04-16.898-23.36c-5.806-8.819-11.341-18.221-16.374-28.17
	c-14.623-28.852-25.06-62.288-25.48-99.245C106.827,95.792,223.657-23.109,382.594,24.871
	C541.525,72.851,561.699,177.287,532.355,218.936z"/>
<g id="Background_Simple" display="none">
	<path display="inline" fill="#F5F5F5" d="M626.805,40.955l-1.396,0.85c-11.813,7.168-18.938,20.128-18.068,33.792
		c0.11,1.757,0.353,3.505,0.719,5.231c2.658,12.423,12.059,23.233,24.087,27.714c7.074,2.635,15.228,3.372,20.844,8.372
		c7.311,6.508,7.539,17.557,7.231,27.271c-0.304,9.714-0.045,20.771,7.295,27.248c4.601,4.056,11.136,5.345,17.286,5.018
		c16.296-0.866,30.867-12.221,38.109-26.663c7.242-14.441,7.891-31.443,4.705-47.248c-4.463-22.141-16.725-43.197-35.651-55.853
		C673.03,34.032,647.238,30.829,626.805,40.955z"/>
	<circle display="inline" fill="#F5F5F5" cx="77.147" cy="73.357" r="38.404"/>
</g>
<g opacity="0.5">
	<g>
		<g>
			<g>
				<g>
					<g>
						<g>
							<g>
								<g>
									<g>
										<g>
											<rect x="100.409" y="127.131" fill="#E0E0E0" width="56.254" height="58.641"/>
										</g>
									</g>
								</g>
							</g>
						</g>
					</g>
				</g>
			</g>
		</g>
	</g>
	<g>
		<g>
			<g>
				<g>
					<g>
						<g>
							<g>
								<g>
									<g>
										<g>
											<rect x="96.599" y="127.131" fill="#F5F5F5" width="56.255" height="58.641"/>
										</g>
									</g>
								</g>
							</g>
						</g>
					</g>
				</g>
			</g>
		</g>
		<g>
			<g>
				<g>
					<g>
						<g>
							<g>
								<g>
									<g>
										<g>
											<path fill="#E0E0E0" d="M152.87,185.788H96.581v-58.675h56.289V185.788z M96.616,185.753h56.22v-58.606h-56.22V185.753z"
												/>
										</g>
									</g>
								</g>
							</g>
						</g>
					</g>
				</g>
			</g>
		</g>
	</g>
	<g>
		<g>
			<g>
				<g>
					<g>
						<g>
							<g>
								<g>
									<g>
										<g>
											<rect x="104.162" y="135.013" fill="#FFFFFF" width="41.131" height="42.875"/>
										</g>
									</g>
								</g>
							</g>
						</g>
					</g>
				</g>
			</g>
		</g>
	</g>
	<g>
		<g>
			<g>
				<g>
					<g>
						<g>
							<g>
								<g>
									<g>
										<g>
											<g>
												<path fill="#E0E0E0" d="M104.162,178.171c0.032,0.039-0.359,0.488-1.016,1.181c-0.657,0.693-1.58,1.631-2.613,2.65
													c-1.034,1.02-1.986,1.928-2.687,2.572c-0.702,0.645-1.154,1.026-1.189,0.99c-0.036-0.036,0.352-0.481,1.009-1.176
													c0.656-0.692,1.582-1.632,2.62-2.655c1.038-1.022,1.991-1.933,2.692-2.578
													C103.68,178.513,104.128,178.134,104.162,178.171z"/>
											</g>
										</g>
									</g>
								</g>
							</g>
						</g>
					</g>
				</g>
			</g>
		</g>
	</g>
	<g>
		<g>
			<g>
				<g>
					<g>
						<g>
							<g>
								<g>
									<g>
										<g>
											<g>
												<path fill="#E0E0E0" d="M145.292,178.067c0.038-0.032,0.486,0.359,1.18,1.016c0.693,0.655,1.632,1.58,2.65,2.614
													c1.02,1.034,1.928,1.986,2.572,2.686c0.645,0.702,1.026,1.154,0.99,1.189c-0.035,0.036-0.481-0.352-1.176-1.009
													c-0.693-0.657-1.633-1.583-2.656-2.621s-1.932-1.991-2.576-2.691C145.631,178.551,145.254,178.1,145.292,178.067z"/>
											</g>
										</g>
									</g>
								</g>
							</g>
						</g>
					</g>
				</g>
			</g>
		</g>
	</g>
	<g>
		<g>
			<g>
				<g>
					<g>
						<g>
							<g>
								<g>
									<g>
										<g>
											<g>
												<path fill="#E0E0E0" d="M145.179,135.128c-0.033-0.04,0.358-0.488,1.015-1.181c0.655-0.693,1.58-1.631,2.615-2.65
													c1.035-1.02,1.986-1.928,2.688-2.573c0.7-0.644,1.154-1.026,1.189-0.989c0.035,0.036-0.353,0.481-1.011,1.175
													c-0.656,0.694-1.582,1.633-2.619,2.656c-1.039,1.022-1.991,1.932-2.692,2.576
													C145.66,134.787,145.211,135.165,145.179,135.128z"/>
											</g>
										</g>
									</g>
								</g>
							</g>
						</g>
					</g>
				</g>
			</g>
		</g>
	</g>
	<g>
		<g>
			<g>
				<g>
					<g>
						<g>
							<g>
								<g>
									<g>
										<g>
											<g>
												<path fill="#E0E0E0" d="M104.048,135.233c-0.038,0.033-0.486-0.358-1.179-1.015c-0.693-0.656-1.632-1.58-2.65-2.614
													c-1.019-1.035-1.927-1.986-2.572-2.687c-0.646-0.702-1.025-1.153-0.989-1.189c0.036-0.035,0.482,0.352,1.175,1.01
													c0.693,0.656,1.634,1.582,2.657,2.621c1.021,1.038,1.932,1.99,2.578,2.693
													C103.708,134.751,104.087,135.201,104.048,135.233z"/>
											</g>
										</g>
									</g>
								</g>
							</g>
						</g>
					</g>
				</g>
			</g>
		</g>
	</g>
	<g>
		<g>
			<g>
				<g>
					<g>
						<g>
							<g>
								<g>
									<g>
										<g>
											<g>
												<path fill="#E0E0E0" d="M145.179,177.887c-0.003-0.003-0.006-0.074-0.008-0.208c-0.002-0.147-0.005-0.344-0.009-0.599
													c-0.004-0.537-0.011-1.311-0.019-2.314c-0.011-2.031-0.024-4.986-0.041-8.737c-0.02-7.51-0.048-18.207-0.082-31.016
													l0.159,0.159c-11.975,0.006-26.035,0.014-41.014,0.023h-0.004l0.182-0.181c-0.009,15.736-0.019,30.458-0.025,42.874
													l-0.156-0.157c12.291,0.034,22.524,0.062,29.7,0.08c3.584,0.018,6.405,0.032,8.343,0.04
													c0.956,0.008,1.693,0.015,2.207,0.019c0.241,0.004,0.429,0.006,0.57,0.009
													C145.109,177.883,145.176,177.884,145.179,177.887c0.002,0.002-0.058,0.006-0.181,0.008
													c-0.136,0.002-0.317,0.005-0.554,0.009c-0.507,0.004-1.233,0.01-2.178,0.019c-1.928,0.008-4.737,0.023-8.307,0.04
													c-7.199,0.02-17.467,0.047-29.798,0.079h-0.157v-0.157c-0.008-12.416-0.016-27.138-0.026-42.874v-0.183h0.183h0.003
													c14.979,0.008,29.041,0.017,41.014,0.024h0.159v0.159c-0.035,12.851-0.061,23.583-0.081,31.117
													c-0.019,3.736-0.032,6.68-0.042,8.701c-0.008,0.991-0.014,1.754-0.019,2.285c-0.004,0.249-0.007,0.439-0.009,0.581
													C145.184,177.827,145.182,177.89,145.179,177.887z"/>
											</g>
										</g>
									</g>
								</g>
							</g>
						</g>
					</g>
				</g>
			</g>
		</g>
	</g>
	<g>
		<g>
			<g>
				<g>
					<g>
						<g>
							<g>
								<g>
									<g>
										<g>
											<rect x="117.865" y="149.588" fill="#EBEBEB" width="13.724" height="13.725"/>
										</g>
									</g>
								</g>
							</g>
						</g>
					</g>
				</g>
			</g>
		</g>
	</g>
</g>
<g opacity="0.5">
	<g>
		<g>
			<g>
				<g>
					<g>
						<g>
							<path fill="#F4F4F4" d="M527.933,139.032c2.344-1.418,4.847-2.494,7.426-3.227l1.529-7.351l12.419-0.218l1.787,7.292
								c2.603,0.641,5.142,1.629,7.535,2.964l6.277-4.114l8.934,8.628l-3.893,6.416c1.421,2.349,2.499,4.849,3.231,7.428l7.348,1.53
								l0.217,12.418l-7.292,1.789c-0.641,2.603-1.629,5.138-2.964,7.535l4.113,6.277l-8.626,8.935l-6.416-3.891
								c-2.349,1.42-4.85,2.495-7.428,3.227l-1.53,7.352l-12.419,0.217l-1.79-7.293c-2.601-0.641-5.139-1.629-7.531-2.965
								l-6.277,4.114l-8.936-8.627l3.89-6.417c-1.416-2.348-2.495-4.849-3.226-7.427l-7.352-1.529l-0.218-12.42l7.291-1.788
								c0.642-2.602,1.632-5.138,2.966-7.534l-4.112-6.276l8.625-8.936L527.933,139.032L527.933,139.032z M534.552,155.576
								c-5.111,5.294-4.962,13.729,0.332,18.84c5.294,5.112,13.729,4.963,18.84-0.331c5.111-5.296,4.959-13.73-0.335-18.841
								C548.1,150.134,539.664,150.282,534.552,155.576z"/>
						</g>
					</g>
				</g>
			</g>
		</g>
	</g>
</g>
<g opacity="0.5">
	<g>
		<g>
			<g>
				<g>
					<g>
						<path fill="#F4F4F4" d="M594.084,189.846c0.97-1.082,2.07-2.015,3.261-2.785l-0.363-3.96l6.257-2.033l2.031,3.416
							c1.419-0.078,2.855,0.029,4.281,0.335l2.543-3.056l5.861,2.987l-0.978,3.853c1.083,0.969,2.016,2.07,2.787,3.263l3.96-0.364
							l2.034,6.258l-3.417,2.036c0.078,1.417-0.03,2.855-0.335,4.277l3.057,2.543l-2.988,5.863l-3.853-0.976
							c-0.97,1.083-2.069,2.015-3.262,2.784l0.363,3.96l-6.258,2.034l-2.034-3.417c-1.417,0.078-2.856-0.03-4.278-0.334
							l-2.541,3.056l-5.864-2.987l0.975-3.854c-1.083-0.97-2.014-2.069-2.784-3.264l-3.965,0.364l-2.034-6.259l3.422-2.035
							c-0.081-1.417,0.028-2.855,0.334-4.275l-3.056-2.543l2.986-5.862L594.084,189.846L594.084,189.846z M600.001,197.203
							c-1.771,3.474-0.389,7.723,3.085,9.493s7.722,0.388,9.494-3.085c1.767-3.474,0.387-7.724-3.086-9.493
							C606.021,192.347,601.77,193.729,600.001,197.203z"/>
					</g>
				</g>
			</g>
		</g>
	</g>
</g>
<g opacity="0.5">
	<g>
		<g>
			<g>
				<g>
					<g>
						<path fill="#F5F5F5" d="M569.759,238.554c1.013-1.13,2.162-2.104,3.409-2.909l-0.379-4.139l6.541-2.126l2.123,3.57
							c1.482-0.081,2.984,0.03,4.473,0.35l2.657-3.194l6.131,3.122l-1.021,4.026c1.13,1.014,2.104,2.165,2.909,3.411l4.14-0.378
							l2.126,6.54l-3.574,2.125c0.081,1.482-0.028,2.984-0.349,4.47l3.196,2.657l-3.122,6.127l-4.028-1.021
							c-1.011,1.131-2.163,2.105-3.41,2.91l0.38,4.14l-6.541,2.125l-2.128-3.571c-1.479,0.082-2.981-0.031-4.467-0.351l-2.66,3.195
							l-6.127-3.122l1.022-4.026c-1.13-1.014-2.106-2.163-2.913-3.41l-4.139,0.38l-2.125-6.54l3.571-2.127
							c-0.081-1.481,0.031-2.984,0.35-4.469l-3.194-2.657l3.121-6.127L569.759,238.554L569.759,238.554z M575.941,246.241
							c-1.851,3.631-0.404,8.071,3.228,9.921c3.631,1.849,8.071,0.404,9.918-3.225c1.85-3.63,0.406-8.072-3.225-9.921
							C582.232,241.168,577.79,242.611,575.941,246.241z"/>
					</g>
				</g>
			</g>
		</g>
	</g>
</g>
<g opacity="0.5">
	<g>
		<g>
			<g>
				<g>
					<g>
						<path fill="#E0E0E0" d="M378.9,122.573c1.164-1.302,2.49-2.423,3.926-3.351l-0.438-4.765l7.531-2.447l2.447,4.111
							c1.704-0.094,3.434,0.035,5.144,0.403l3.058-3.676l7.055,3.593l-1.177,4.635c1.303,1.168,2.425,2.491,3.351,3.927l4.767-0.438
							l2.443,7.528l-4.111,2.448c0.095,1.705-0.035,3.435-0.4,5.145l3.679,3.059l-3.595,7.053l-4.633-1.176
							c-1.168,1.303-2.491,2.424-3.929,3.351l0.438,4.766l-7.53,2.447l-2.448-4.11c-1.706,0.094-3.436-0.036-5.145-0.403
							l-3.061,3.678l-7.052-3.593l1.174-4.637c-1.301-1.167-2.423-2.49-3.354-3.925l-4.76,0.438l-2.448-7.529l4.111-2.449
							c-0.094-1.705,0.036-3.435,0.403-5.145l-3.679-3.058l3.592-7.054L378.9,122.573L378.9,122.573z M386.017,131.423
							c-2.128,4.178-0.463,9.292,3.713,11.421c4.18,2.129,9.293,0.466,11.417-3.712c2.13-4.179,0.468-9.293-3.708-11.421
							C393.259,125.583,388.146,127.245,386.017,131.423z"/>
					</g>
				</g>
			</g>
		</g>
	</g>
</g>
<g opacity="0.5">
	<g>
		<g>
			<g>
				<path fill="#E0E0E0" d="M122.092,375.737c-2.897-1.819-6.214-2.961-9.617-3.31c-1.571-0.161-3.288-0.114-4.549,0.838
					c-0.268,0.204-0.527,0.5-0.468,0.832c0.044,0.24,0.249,0.42,0.444,0.564C111.816,377.647,117.734,378.024,122.092,375.737"/>
			</g>
		</g>
		<g>
			<g>
				<path fill="#E0E0E0" d="M121.846,375.465c-2.178-1.699-4.367-3.408-6.212-5.464c-1.844-2.054-3.343-4.495-3.893-7.2
					c-0.167-0.822-0.22-1.76,0.308-2.412C116.999,364.254,120.888,369.258,121.846,375.465"/>
			</g>
		</g>
		<g>
			<g>
				<path fill="#E0E0E0" d="M122.04,375.7c-0.373-2.709-0.507-5.493,0.115-8.154c0.622-2.662,2.07-5.212,4.344-6.729
					c0.855,1.996,0.488,4.303-0.115,6.39c-0.932,3.231-2.393,6.305-4.308,9.066"/>
			</g>
		</g>
		<g>
			<g>
				<path fill="#E0E0E0" d="M126.894,384.397c-2.947,0.357-5.512,1.909-7.712,3.903c-2.2,1.988-3.763,4.676-4.411,7.572
					c2.89-0.179,5.341-2.218,7.12-4.506c1.779-2.286,3.01-4.793,4.962-6.927"/>
			</g>
		</g>
		<g>
			<g>
				<path fill="#E0E0E0" d="M127.948,385.787c-2.373-5.845-1.513-12.889,2.197-17.991
					C131.824,373.767,131.207,380.51,127.948,385.787"/>
			</g>
		</g>
		<g>
			<g>
				<path fill="#E0E0E0" d="M134.362,393.424c-2.674-0.17-5.392,0.467-7.715,1.804c-2.323,1.336-4.238,3.366-5.438,5.763
					c-0.163,0.327-0.306,0.743-0.089,1.034c0.19,0.254,0.557,0.273,0.872,0.256c2.592-0.173,4.889-1.726,6.785-3.502
					c1.896-1.777,3.546-3.828,5.641-5.365"/>
			</g>
		</g>
		<g>
			<g>
				<path fill="#E0E0E0" d="M134.156,393.007c-1.379-4.412-1.465-9.222-0.245-13.681c0.483-1.762,1.291-3.615,2.92-4.443
					c0.139-0.071,0.302-0.136,0.447-0.08c0.138,0.053,0.219,0.195,0.282,0.327c0.579,1.211,0.748,2.587,0.689,3.928
					c-0.059,1.342-0.338,2.659-0.616,3.971c-0.513,2.432-0.785,5.043-2.118,7.135c-0.316,0.496-0.595,1.035-0.847,1.566
					c-0.252,0.531-0.255,0.72-0.485,1.144"/>
			</g>
		</g>
		<g>
			<g>
				<path fill="#E0E0E0" d="M151.13,395.537c-1.258-4.782,0.077-10.584,3.091-14.505c0.223-0.288,0.516-0.596,0.879-0.561
					c0.556,0.048,0.699,0.79,0.674,1.348C155.559,386.704,153.927,391.521,151.13,395.537"/>
			</g>
		</g>
		<g>
			<g>
				<path fill="#E0E0E0" d="M152.662,396.584c5.812,1.512,12.48,0.042,17.313-3.522c-2.865-1.447-6.242-1.862-9.373-1.15
					C157.472,392.627,154.611,394.029,152.662,396.584"/>
			</g>
		</g>
		<g>
			<g>
				<path fill="#E0E0E0" d="M153.953,393.398c3.255-5.306,9.495-8.773,15.714-9.089c-0.717,2.532-2.796,4.496-5.14,5.686
					c-2.345,1.187-4.962,1.703-7.543,2.205C155.98,392.395,154.603,392.61,153.953,393.398"/>
			</g>
		</g>
		<g>
			<g>
				<path fill="#E0E0E0" d="M151.455,377.943c0.882-3.019,1.768-6.067,2.008-9.205c0.242-3.135-0.206-6.411-1.833-9.099
					c-3.041,5.881-3.348,12.754-0.269,18.618"/>
			</g>
		</g>
		<g>
			<g>
				<path fill="#E0E0E0" d="M161.692,372.768c3.555-6.462,10.81-11.623,18.15-12.346C177.011,367.47,169.287,372.92,161.692,372.768
					"/>
			</g>
		</g>
		<g>
			<g>
				<path fill="#E0E0E0" d="M159.456,374.034c5.303,0.808,9.82,4.191,14.776,6.248c1.06,0.439,2.203,0.788,3.34,0.64
					c1.138-0.148,2.26-0.912,2.516-2.03c0.211-0.929-0.211-1.915-0.877-2.596c-0.666-0.683-1.547-1.105-2.427-1.474
					c-5.398-2.246-11.187-2.305-16.872-0.938"/>
			</g>
		</g>
		<g>
			<g>
				<path fill="#E0E0E0" d="M156.386,377.753c1.201,0.34,1.61,0.967,2.562,1.771c3.225,2.751,7.094,4.734,11.205,5.758
					c0.428,0.106,0.989,0.146,1.202-0.238c0.186-0.337-0.049-0.75-0.29-1.049c-1.723-2.153-4.179-3.63-6.765-4.596
					c-2.587-0.963-4.827-2.121-7.914-1.876"/>
			</g>
		</g>
		<g>
			<g>
				<path fill="#E0E0E0" d="M152.923,355.29c4.312,4.024,10.385,6.092,16.258,5.531c0.268-0.025,0.559-0.066,0.74-0.268
					c0.409-0.445-0.081-1.131-0.559-1.506C164.583,355.324,158.792,353.78,152.923,355.29"/>
			</g>
		</g>
		<g>
			<g>
				<path fill="#E0E0E0" d="M157.029,353.789c5.7-4.275,13.517-5.565,20.287-3.349c-2.555,2.519-6.099,3.87-9.667,4.246
					C164.081,355.056,160.508,354.661,157.029,353.789"/>
			</g>
		</g>
		<g>
			<g>
				<path fill="#E0E0E0" d="M155.396,343.467c-0.469-4.772-0.164-8.54-0.496-13.332c-0.027-0.383-0.108-0.845-0.467-0.981
					c-0.499-0.192-0.915,0.424-1.079,0.933c-1.421,4.416-0.644,9.482,2.035,13.276"/>
			</g>
		</g>
		<g>
			<g>
				<path fill="#E0E0E0" d="M155.054,343.991c3.234-1.996,5.66-4.609,7.903-7.681c1.561-2.136,2.876-4.694,2.522-7.315
					c-2.192-0.044-4.276,1.165-5.701,2.831c-1.426,1.668-2.273,3.748-2.906,5.848C156.24,339.772,155.796,341.929,155.054,343.991"
					/>
			</g>
		</g>
		<g>
			<g>
				<path fill="#E0E0E0" d="M162.818,341.834c7.098-2.626,13.718-6.528,19.449-11.471c-2.323-0.938-4.983-0.372-7.306,0.562
					c-5.307,2.143-9.643,5.757-12.244,10.854"/>
			</g>
		</g>
		<g>
			<g>
				<path fill="#E0E0E0" d="M157.237,346.603c3.59,0.396,7.236,0.65,10.799,0.053c3.501-0.585,6.811-1.974,10.082-3.351
					c0.27-0.113,0.565-0.251,0.684-0.522c0.128-0.293-0.008-0.649-0.246-0.863c-0.236-0.213-0.552-0.315-0.859-0.401
					c-3.557-0.997-7.396-0.528-10.896,0.651C163.302,343.351,160.433,344.753,157.237,346.603"/>
			</g>
		</g>
		<g>
			<g>
				<path fill="#E0E0E0" d="M136.735,355.452c-2.45-4.944-2.291-10.714-0.174-15.811c1.489,2.27,1.672,5.161,1.399,7.859
					c-0.272,2.7-1.094,5.483-1.148,8.197"/>
			</g>
		</g>
		<g>
			<g>
				<path fill="#E0E0E0" d="M126.951,350.517c-6.116-0.113-12.233,2.489-16.386,6.98c3.052,0.481,6.195-0.305,8.972-1.663
					c2.777-1.353,5.244-3.258,7.689-5.145"/>
			</g>
		</g>
		<g>
			<g>
				<path fill="#E0E0E0" d="M120.372,348.316c-2.992-0.239-5.871-0.612-8.747,0.271c-2.877,0.879-5.495,2.883-6.668,5.652
					c2.799,0.316,5.636-0.385,8.201-1.545C115.723,351.528,118.055,349.918,120.372,348.316"/>
			</g>
		</g>
		<g>
			<g>
				<path fill="#E0E0E0" d="M130.113,348.417c-2.691-1.762-5.456-3.556-8.589-4.287c-3.134-0.729-6.766-0.189-8.952,2.174
					c2.537,1.486,5.615,1.665,8.556,1.663c2.941-0.004,6.548-0.036,9.319,0.944"/>
			</g>
		</g>
		<g>
			<g>
				<path fill="#E0E0E0" d="M130.129,348.562c-4.602-4.519-6.346-12.636-4.495-18.813
					C129.251,335.244,130.87,342.022,130.129,348.562"/>
			</g>
		</g>
		<g>
			<g>
				<path fill="#E0E0E0" d="M142.781,335.758c0.869-2.021,1.478-4.135,2.258-6.19c0.777-2.055,1.745-4.071,3.217-5.706
					c1.47-1.633,3.505-2.846,5.699-2.95c-1.374,6.219-5.503,11.77-11.061,14.879"/>
			</g>
		</g>
		<g>
			<g>
				<path fill="#E0E0E0" d="M140.492,338.427c-1.436-1.98-3.095-4.665-5.042-6.135c-1.947-1.477-4.483-2.371-6.86-1.802
					C131.005,334.81,135.573,337.855,140.492,338.427"/>
			</g>
		</g>
		<g>
			<g>
				<path fill="#E0E0E0" d="M140.95,335.924c-0.941-2.394-1.89-4.809-2.271-7.352c-0.38-2.541-0.149-5.258,1.151-7.474
					c2.526,4.774,3.339,9.9,1.248,14.882"/>
			</g>
		</g>
		<g>
			<g>
				<path fill="#E0E0E0" d="M142.804,321.097c1.431-4.729,5.765-8.219,10.444-9.817c0.589-0.203,1.216-0.37,1.832-0.275
					c0.617,0.096,1.221,0.518,1.351,1.131c0.17,0.805-0.495,1.526-1.12,2.059C151.666,317.309,147.382,319.673,142.804,321.097"/>
			</g>
		</g>
		<g>
			<g>
				<path fill="#E0E0E0" d="M142.856,317.227c0.182-3.052,0.373-6.148,1.365-9.04c0.993-2.893,2.907-5.604,5.69-6.87
					c0.473,3.082-0.887,6.15-2.527,8.802c-1.641,2.654-3.616,5.154-4.602,8.113"/>
			</g>
		</g>
		<g>
			<g>
				<path fill="#E0E0E0" d="M142.781,319.326c-1.182-3.449-1.304-7.83-3.37-10.835c-1.444-2.103-3.756-3.531-5-5.757
					c-0.827,2.077-0.573,4.472,0.291,6.535c0.863,2.063,2.293,3.837,3.821,5.47C140.051,316.372,141.36,317.599,142.781,319.326"/>
			</g>
		</g>
		<g>
			<g>
				<g>
					<path fill="#E0E0E0" d="M142.804,420.91c-0.092,0-0.171-23.011-0.177-51.391c-0.006-28.389,0.063-51.395,0.154-51.395
						c0.093,0,0.172,23.008,0.178,51.395C142.965,397.899,142.896,420.91,142.804,420.91z"/>
				</g>
			</g>
		</g>
		<g>
			<g>
				<g>
					<path fill="#E0E0E0" d="M162.913,351.98c0.006,0.021-0.303,0.139-0.865,0.326c-0.621,0.209-1.422,0.479-2.381,0.805
						c-2.008,0.685-4.766,1.672-7.759,2.902c-2.964,1.27-5.759,2.304-7.352,3.681c-0.796,0.682-1.251,1.416-1.477,1.956
						c-0.229,0.54-0.27,0.871-0.299,0.865c-0.012-0.002-0.007-0.083,0.01-0.24c0.026-0.153,0.065-0.389,0.169-0.669
						c0.193-0.569,0.638-1.355,1.441-2.085c0.801-0.73,1.914-1.387,3.19-1.985c1.275-0.595,2.689-1.218,4.19-1.831
						c3.002-1.229,5.782-2.188,7.813-2.818c1.014-0.316,1.843-0.552,2.416-0.705C162.586,352.031,162.907,351.958,162.913,351.98z"
						/>
				</g>
			</g>
		</g>
		<g>
			<g>
				<g>
					<path fill="#E0E0E0" d="M169.505,335.791c0.008,0.008-0.077,0.097-0.242,0.257c-0.195,0.186-0.44,0.414-0.738,0.695
						c-0.686,0.621-1.619,1.471-2.756,2.499c-2.38,2.12-5.609,4.995-9.176,8.169c-3.581,3.188-6.676,6.233-8.821,8.527
						c-1.074,1.145-1.919,2.094-2.497,2.755c-0.27,0.307-0.49,0.559-0.667,0.762c-0.155,0.174-0.24,0.259-0.25,0.253
						c-0.008-0.01,0.06-0.111,0.198-0.295c0.14-0.186,0.342-0.464,0.619-0.804c0.547-0.688,1.369-1.667,2.423-2.835
						c2.106-2.341,5.185-5.423,8.774-8.615c3.593-3.18,6.864-6.035,9.241-8.098c1.166-1.003,2.123-1.821,2.826-2.423
						c0.315-0.266,0.574-0.479,0.78-0.65C169.399,335.854,169.497,335.782,169.505,335.791z"/>
				</g>
			</g>
		</g>
		<g>
			<g>
				<g>
					<path fill="#E0E0E0" d="M152.727,350.658c-0.095-0.044,0.654-1.77,1.4-3.955c0.753-2.184,1.106-4.029,1.202-4.013
						c0.086,0.011-0.126,1.905-0.887,4.12c-0.375,1.104-0.789,2.076-1.114,2.765C153,350.265,152.767,350.676,152.727,350.658z"/>
				</g>
			</g>
		</g>
		<g>
			<g>
				<g>
					<path fill="#E0E0E0" d="M142.826,364.585c-0.019,0.015-0.214-0.215-0.552-0.64c-0.374-0.48-0.848-1.088-1.414-1.813
						c-1.188-1.535-2.829-3.654-4.669-5.974c-1.842-2.317-3.533-4.398-4.758-5.904c-0.578-0.717-1.062-1.315-1.445-1.787
						c-0.337-0.429-0.515-0.67-0.498-0.687c0.017-0.017,0.229,0.201,0.596,0.598c0.369,0.397,0.891,0.987,1.526,1.721
						c1.273,1.468,2.994,3.527,4.839,5.849c1.843,2.32,3.457,4.466,4.597,6.036c0.57,0.785,1.025,1.428,1.33,1.877
						C142.683,364.317,142.844,364.571,142.826,364.585z"/>
				</g>
			</g>
		</g>
		<g>
			<g>
				<g>
					<path fill="#E0E0E0" d="M138.416,358.924c-0.055,0.059-1.231-1.337-1.848-3.454c-0.454-1.493-0.474-2.861-0.419-3.488
						l0.147,0.017c-0.066,0.266-0.114,0.403-0.141,0.399c-0.026-0.006-0.027-0.151-0.004-0.427l0.146,0.011
						c0.054,0.624,0.148,1.94,0.591,3.394C137.483,357.426,138.505,358.87,138.416,358.924z"/>
				</g>
			</g>
		</g>
		<g>
			<g>
				<g>
					<path fill="#E0E0E0" d="M132.724,351.765c-0.043,0.048-0.421-0.431-1.29-0.749c-0.861-0.335-2.159-0.406-3.581-0.285
						c-1.423,0.104-2.695,0.36-3.605,0.582c-0.911,0.226-1.466,0.403-1.484,0.358c-0.015-0.042,0.515-0.297,1.421-0.585
						c0.904-0.284,2.194-0.58,3.644-0.683c1.439-0.125,2.804-0.018,3.693,0.396C132.426,351.196,132.754,351.757,132.724,351.765z"
						/>
				</g>
			</g>
		</g>
		<g>
			<g>
				<g>
					<path fill="#E0E0E0" d="M131.375,350.029c-0.025,0.052-0.752-0.302-1.977-0.719c-1.223-0.42-2.963-0.861-4.929-1.013
						c-1.968-0.146-3.755,0.024-5.028,0.256c-1.273,0.23-2.044,0.465-2.063,0.409c-0.006-0.02,0.179-0.099,0.524-0.223
						c0.344-0.129,0.853-0.271,1.493-0.419c1.275-0.294,3.096-0.507,5.099-0.358c2.002,0.156,3.768,0.643,4.984,1.127
						c0.609,0.24,1.092,0.46,1.412,0.643C131.212,349.904,131.385,350.01,131.375,350.029z"/>
				</g>
			</g>
		</g>
		<g>
			<g>
				<g>
					
						<ellipse transform="matrix(-0.2467 -0.9691 0.9691 -0.2467 -150.7773 558.0699)" fill="#E0E0E0" cx="141.511" cy="337.636" rx="5.205" ry="0.167"/>
				</g>
			</g>
		</g>
		<g>
			<g>
				<g>
					<path fill="#E0E0E0" d="M142.873,342.691c-0.098,0.03-0.514-1.466-1.598-2.997c-1.053-1.562-2.399-2.346-2.351-2.426
						c0.018-0.034,0.389,0.102,0.907,0.468c0.519,0.362,1.162,0.973,1.715,1.767C142.673,341.097,142.953,342.685,142.873,342.691z"
						/>
				</g>
			</g>
		</g>
		<g>
			<g>
				<g>
					<path fill="#E0E0E0" d="M142.804,408.644c-0.036,0.006-0.104-0.557-0.363-1.529c-0.255-0.979-0.739-2.367-1.538-3.988
						c-1.59-3.249-4.483-7.368-8.16-11.495c-1.821-2.08-3.588-4.043-5.089-5.923c-1.501-1.877-2.736-3.667-3.638-5.245
						c-0.905-1.582-1.493-2.94-1.837-3.897c-0.168-0.48-0.292-0.854-0.361-1.113c-0.073-0.259-0.106-0.396-0.095-0.397
						c0.03-0.011,0.198,0.525,0.578,1.465c0.378,0.937,0.996,2.268,1.918,3.822c0.922,1.554,2.167,3.316,3.675,5.173
						c1.506,1.864,3.276,3.813,5.101,5.9c3.685,4.133,6.572,8.306,8.121,11.607c0.779,1.647,1.231,3.061,1.451,4.056
						c0.106,0.498,0.179,0.887,0.204,1.157C142.804,408.503,142.816,408.643,142.804,408.644z"/>
				</g>
			</g>
		</g>
		<g>
			<g>
				<g>
					<path fill="#E0E0E0" d="M160.976,388.119c0.011,0.023-0.337,0.201-0.953,0.535c-0.609,0.342-1.477,0.87-2.469,1.632
						c-0.993,0.761-2.104,1.759-3.245,2.959c-1.138,1.202-2.311,2.6-3.509,4.097c-2.393,3.003-4.632,5.656-5.972,7.781
						c-0.68,1.053-1.176,1.938-1.5,2.563c-0.327,0.621-0.5,0.97-0.524,0.963c-0.011-0.009,0.02-0.099,0.089-0.271
						c0.071-0.172,0.167-0.43,0.32-0.747c0.29-0.646,0.756-1.553,1.417-2.629c1.302-2.173,3.522-4.867,5.911-7.864
						c1.198-1.499,2.386-2.9,3.547-4.101c1.162-1.194,2.301-2.187,3.324-2.937c1.022-0.745,1.917-1.249,2.551-1.56
						c0.315-0.157,0.574-0.255,0.744-0.328C160.878,388.141,160.971,388.108,160.976,388.119z"/>
				</g>
			</g>
		</g>
		<g>
			<g>
				<g>
					<path fill="#E0E0E0" d="M161.332,394.777c0.003,0.049-0.77,0.143-2.014,0.292c-1.239,0.16-2.966,0.367-4.774,0.939
						c-1.801,0.588-3.299,1.481-4.274,2.244c-0.985,0.761-1.449,1.392-1.496,1.354c-0.016-0.015,0.08-0.184,0.298-0.463
						c0.215-0.283,0.568-0.654,1.048-1.07c0.96-0.826,2.472-1.774,4.321-2.376c1.852-0.586,3.602-0.757,4.853-0.859
						C160.549,394.744,161.327,394.733,161.332,394.777z"/>
				</g>
			</g>
		</g>
		<g>
			<g>
				<g>
					<path fill="#E0E0E0" d="M149.362,398.877c-0.105-0.06,0.802-1.444,1.506-3.309c0.66-1.88,0.814-3.531,0.932-3.512
						c0.043,0.007,0.041,0.418-0.034,1.081c-0.079,0.655-0.237,1.576-0.587,2.543c-0.352,0.965-0.812,1.769-1.167,2.334
						C149.654,398.575,149.399,398.899,149.362,398.877z"/>
				</g>
			</g>
		</g>
		<g>
			<g>
				<g>
					<path fill="#E0E0E0" d="M166.86,370.244c0.004,0.01-0.106,0.069-0.322,0.17c-0.25,0.114-0.563,0.257-0.946,0.432
						c-0.414,0.174-0.917,0.4-1.484,0.702c-0.567,0.293-1.232,0.594-1.923,1.009c-0.351,0.201-0.716,0.407-1.099,0.623
						c-0.38,0.218-0.757,0.48-1.159,0.729c-0.81,0.491-1.62,1.099-2.486,1.712c-1.694,1.288-3.474,2.81-5.19,4.566
						c-1.698,1.773-3.159,3.607-4.385,5.345c-0.588,0.886-1.164,1.718-1.626,2.544c-0.237,0.406-0.484,0.793-0.69,1.181
						c-0.204,0.389-0.4,0.761-0.586,1.12c-0.391,0.705-0.67,1.378-0.943,1.957c-0.28,0.58-0.488,1.088-0.652,1.51
						c-0.16,0.39-0.292,0.707-0.397,0.961c-0.095,0.217-0.149,0.329-0.159,0.327c-0.012-0.003,0.022-0.125,0.096-0.352
						c0.09-0.259,0.202-0.583,0.34-0.983c0.146-0.43,0.336-0.946,0.601-1.534c0.258-0.589,0.525-1.272,0.905-1.987
						c0.181-0.367,0.373-0.747,0.571-1.137c0.201-0.394,0.444-0.786,0.679-1.2c0.456-0.837,1.026-1.676,1.612-2.576
						c1.222-1.76,2.687-3.614,4.399-5.397c1.728-1.77,3.53-3.297,5.246-4.58c0.876-0.615,1.699-1.215,2.522-1.7
						c0.407-0.247,0.79-0.503,1.176-0.718c0.386-0.209,0.758-0.414,1.115-0.609c0.702-0.404,1.376-0.692,1.956-0.971
						c0.577-0.285,1.089-0.494,1.513-0.653c0.395-0.152,0.715-0.271,0.973-0.371C166.737,370.271,166.856,370.231,166.86,370.244z"
						/>
				</g>
			</g>
		</g>
		<g>
			<g>
				<g>
					<path fill="#E0E0E0" d="M152.479,379.879c-0.028-0.006,0.131-0.561,0.791-1.177c0.645-0.614,1.817-1.183,3.186-1.222
						c1.363-0.036,2.545,0.344,3.354,0.651c0.812,0.319,1.285,0.58,1.268,0.619c-0.02,0.047-0.525-0.136-1.346-0.397
						c-0.817-0.249-1.974-0.58-3.265-0.545c-1.289,0.043-2.399,0.536-3.044,1.067C152.764,379.412,152.532,379.912,152.479,379.879z
						"/>
				</g>
			</g>
		</g>
		<g>
			<g>
				<g>
					<path fill="#E0E0E0" d="M150.33,382.098c-0.092-0.051,0.719-1.24,0.905-2.943c0.213-1.705-0.302-3.045-0.202-3.074
						c0.038-0.016,0.217,0.298,0.375,0.857c0.157,0.558,0.261,1.369,0.159,2.255c-0.105,0.886-0.394,1.65-0.674,2.155
						C150.61,381.857,150.362,382.119,150.33,382.098z"/>
				</g>
			</g>
		</g>
	</g>
	<g>
		<g>
			<path fill="#E0E0E0" d="M126.912,411.94c0.496,8.794,3.145,17.738,7.221,26.779h17.726c3.887-8.952,6.354-17.881,6.793-26.779
				H126.912z"/>
		</g>
	</g>
	<g>
		<g>
			<g>
				<ellipse fill="#FAFAFA" cx="142.745" cy="426.171" rx="13.034" ry="0.167"/>
			</g>
		</g>
	</g>
	<g>
		<g>
			<g>
				<ellipse fill="#FAFAFA" cx="143.163" cy="429.356" rx="12.219" ry="0.167"/>
			</g>
		</g>
	</g>
	<g>
		<g>
			<g>
				<ellipse fill="#FAFAFA" cx="134.418" cy="421.798" rx="0.167" ry="4.083"/>
			</g>
		</g>
	</g>
	<g>
		<g>
			<g>
				<ellipse fill="#FAFAFA" cx="143.917" cy="421.943" rx="0.166" ry="4.228"/>
			</g>
		</g>
	</g>
	<g>
		<g>
			<g>
				<ellipse fill="#FAFAFA" cx="152.832" cy="421.955" rx="0.167" ry="4.313"/>
			</g>
		</g>
	</g>
	<g>
		<g>
			<g>
				<ellipse fill="#FAFAFA" cx="142.8" cy="417.715" rx="15.288" ry="0.166"/>
			</g>
		</g>
	</g>
</g>
<g opacity="0.2">
	<g>
		<path fill="#263238" d="M605.285,438.217c0,0.111-110.913,0.204-247.701,0.204c-136.831,0-247.721-0.091-247.721-0.204
			c0-0.108,110.89-0.199,247.721-0.199C494.372,438.018,605.285,438.108,605.285,438.217z"/>
	</g>
</g>
<path opacity="0.5" fill="#EFEFEF" enable-background="new    " d="M510.797,129.431H188.734c-5.552,0-10.053,4.5-10.053,10.052
	v227.479c0,5.558,4.501,10.054,10.053,10.054H312.34l-6.255,60.458l90.028-0.563l-5.149-59.889h119.834
	c5.552,0,10.05-4.502,10.05-10.051V139.484C520.85,133.931,516.35,129.431,510.797,129.431z"/>
<g opacity="0.5">
	<g>
		<g>
			<g>
				<g>
					<path fill="#FFFFFF" d="M354.066,355.092c4.378,6.262-2.475,13.119-8.741,8.738c-0.207-0.141-0.394-0.331-0.538-0.537
						c-4.369-6.258,2.48-13.104,8.74-8.737C353.733,354.697,353.921,354.886,354.066,355.092z"/>
				</g>
			</g>
		</g>
	</g>
</g>
<g opacity="0.5">
	<g>
		<g>
			<path fill="#FFFFFF" d="M515.303,337.401H184.228V143.01c0-4.092,3.318-7.411,7.411-7.411h316.254c4.093,0,7.41,3.318,7.41,7.411
				V337.401z"/>
		</g>
	</g>
</g>
<g opacity="0.5">
	<g>
		<path fill="#F5F5F5" d="M515.303,152.367H184.228v-9.773c0-3.864,3.132-6.997,6.995-6.997h318.338
			c3.169,0,5.744,2.572,5.744,5.745L515.303,152.367L515.303,152.367z"/>
	</g>
</g>
<g opacity="0.5">
	<g>
		<g>
			<circle fill="#E0E0E0" cx="194.77" cy="144.335" r="2.325"/>
		</g>
	</g>
	<g>
		<g>
			<circle fill="#E0E0E0" cx="201.704" cy="144.335" r="2.325"/>
		</g>
	</g>
	<g>
		<g>
			<circle fill="#E0E0E0" cx="208.296" cy="144.335" r="2.325"/>
		</g>
	</g>
</g>
<g opacity="0.5">
	<g>
		<path fill="#263238" d="M424.194,379.02c0,0.111-26.999,0.202-60.295,0.202c-33.31,0-60.3-0.086-60.3-0.202
			c0-0.108,26.991-0.198,60.3-0.198C397.195,378.821,424.194,378.911,424.194,379.02z"/>
	</g>
</g>
<g opacity="0.5">
	<rect x="184.228" y="152.367" fill="#EBEBEB" width="54.417" height="185.033"/>
</g>
<g opacity="0.5">
	<g>
		<g>
			<g>
				<g>
					<g>
						<g>
							<path fill="#E0E0E0" d="M208.143,156.323c0.287-0.174,0.591-0.304,0.906-0.394l0.187-0.897l1.515-0.027l0.219,0.89
								c0.317,0.079,0.626,0.198,0.919,0.362l0.766-0.502l1.09,1.053l-0.475,0.783c0.174,0.287,0.305,0.59,0.394,0.907l0.896,0.186
								l0.027,1.516l-0.89,0.217c-0.078,0.318-0.198,0.626-0.361,0.92l0.502,0.766l-1.053,1.09l-0.783-0.475
								c-0.287,0.173-0.591,0.304-0.907,0.393l-0.186,0.897l-1.515,0.027l-0.217-0.89c-0.318-0.078-0.627-0.198-0.92-0.361
								l-0.765,0.501l-1.09-1.053l0.475-0.782c-0.174-0.287-0.305-0.592-0.395-0.906l-0.896-0.187l-0.027-1.515l0.89-0.219
								c0.079-0.316,0.198-0.625,0.361-0.919l-0.502-0.766l1.052-1.089L208.143,156.323L208.143,156.323z M208.95,158.34
								c-0.625,0.646-0.604,1.677,0.041,2.299c0.646,0.624,1.674,0.605,2.297-0.041c0.624-0.646,0.605-1.675-0.04-2.299
								C210.603,157.676,209.574,157.694,208.95,158.34z"/>
						</g>
					</g>
				</g>
			</g>
		</g>
	</g>
</g>
<g opacity="0.5">
	<path fill="#E0E0E0" d="M220.713,198.781h-23.722c-1.347,0-2.436-1.091-2.436-2.438l0,0c0-1.346,1.091-2.438,2.436-2.438h23.722
		c1.346,0,2.438,1.092,2.438,2.438l0,0C223.152,197.69,222.06,198.781,220.713,198.781z"/>
</g>
<g opacity="0.5">
	<path fill="#E0E0E0" d="M220.713,186.362h-23.722c-1.347,0-2.436-1.091-2.436-2.438l0,0c0-1.348,1.091-2.438,2.436-2.438h23.722
		c1.346,0,2.438,1.092,2.438,2.438l0,0C223.152,185.27,222.06,186.362,220.713,186.362z"/>
</g>
<g opacity="0.5">
	<path fill="#E0E0E0" d="M220.713,175h-23.722c-1.347,0-2.436-1.091-2.436-2.437l0,0c0-1.347,1.091-2.438,2.436-2.438h23.722
		c1.346,0,2.438,1.092,2.438,2.438l0,0C223.152,173.909,222.06,175,220.713,175z"/>
</g>
<g opacity="0.5">
	<g>
		<path fill="#434344" d="M284.45,173.601h-22.47c-1.346,0-2.437-1.092-2.437-2.439l0,0c0-1.345,1.092-2.437,2.437-2.437h22.47
			c1.346,0,2.437,1.091,2.437,2.437l0,0C286.887,172.509,285.796,173.601,284.45,173.601z"/>
	</g>
</g>
<g opacity="0.5">
	<path fill="#E0E0E0" d="M284.45,186.362h-22.47c-1.346,0-2.437-1.091-2.437-2.438l0,0c0-1.348,1.092-2.438,2.437-2.438h22.47
		c1.346,0,2.437,1.092,2.437,2.438l0,0C286.887,185.27,285.796,186.362,284.45,186.362z"/>
</g>
<g opacity="0.5">
	<g>
		<path fill="#4FC0D0" d="M284.45,199.55h-22.47c-1.346,0-2.437-1.092-2.437-2.438l0,0c0-1.346,1.092-2.438,2.437-2.438h22.47
			c1.346,0,2.437,1.092,2.437,2.438l0,0C286.887,198.458,285.796,199.55,284.45,199.55z"/>
	</g>
</g>
<g opacity="0.5">
	<g>
		<path fill="#434344" d="M274.865,225.044H261.98c-1.346,0-2.437-1.09-2.437-2.437l0,0c0-1.347,1.092-2.438,2.437-2.438h12.885
			c1.346,0,2.438,1.091,2.438,2.438l0,0C277.303,223.955,276.211,225.044,274.865,225.044z"/>
	</g>
</g>
<g opacity="0.5">
	<g>
		<path fill="#434344" d="M274.865,238.261H261.98c-1.346,0-2.437-1.091-2.437-2.437l0,0c0-1.346,1.092-2.438,2.437-2.438h12.885
			c1.346,0,2.438,1.092,2.438,2.438l0,0C277.303,237.17,276.211,238.261,274.865,238.261z"/>
	</g>
</g>
<g opacity="0.5">
	<path fill="#E0E0E0" d="M313.157,238.261h-23.625c-1.346,0-2.438-1.091-2.438-2.437l0,0c0-1.346,1.091-2.438,2.438-2.438h23.625
		c1.346,0,2.437,1.092,2.437,2.438l0,0C315.595,237.17,314.503,238.261,313.157,238.261z"/>
</g>
<g opacity="0.5">
	<g>
		<path fill="#4FC0D0" d="M299.794,250.015h-23.625c-1.348,0-2.438-1.091-2.438-2.437l0,0c0-1.348,1.09-2.439,2.438-2.439h23.625
			c1.347,0,2.437,1.092,2.437,2.439l0,0C302.232,248.924,301.141,250.015,299.794,250.015z"/>
	</g>
</g>
<g opacity="0.5">
	<g>
		<path fill="#4FC0D0" d="M304.316,263.419h-14.806c-1.312,0-2.375-1.062-2.375-2.374v-0.126c0-1.312,1.063-2.375,2.375-2.375
			h14.806c1.313,0,2.375,1.063,2.375,2.375v0.126C306.692,262.357,305.63,263.419,304.316,263.419z"/>
	</g>
</g>
<g opacity="0.5">
	<g>
		<path fill="#4FC0D0" d="M304.254,289.691h-14.681c-1.346,0-2.437-1.092-2.437-2.438l0,0c0-1.347,1.091-2.436,2.437-2.436h14.681
			c1.347,0,2.438,1.093,2.438,2.436l0,0C306.692,288.601,305.601,289.691,304.254,289.691z"/>
	</g>
</g>
<g opacity="0.5">
	<path fill="#FF725E" d="M304.254,317.441h-14.681c-1.346,0-2.437-1.093-2.437-2.438l0,0c0-1.346,1.091-2.438,2.437-2.438h14.681
		c1.347,0,2.438,1.096,2.438,2.438l0,0C306.692,316.35,305.601,317.441,304.254,317.441z"/>
</g>
<g opacity="0.5">
	<path fill="#455A64" d="M340.342,317.441h-25.736c-1.349,0-2.437-1.093-2.437-2.438l0,0c0-1.346,1.091-2.438,2.437-2.438h25.736
		c1.345,0,2.436,1.096,2.436,2.438l0,0C342.78,316.35,341.688,317.441,340.342,317.441z"/>
</g>
<g opacity="0.5">
	<path fill="#E0E0E0" d="M358.356,317.441h-3.71c-1.346,0-2.438-1.093-2.438-2.438l0,0c0-1.346,1.092-2.438,2.438-2.438h3.71
		c1.346,0,2.437,1.096,2.437,2.438l0,0C360.793,316.35,359.703,317.441,358.356,317.441z"/>
</g>
<g opacity="0.5">
	<path fill="#E0E0E0" d="M338.799,289.691H317.05c-1.346,0-2.437-1.092-2.437-2.438l0,0c0-1.347,1.092-2.436,2.437-2.436h21.749
		c1.349,0,2.438,1.093,2.438,2.436l0,0C341.238,288.601,340.146,289.691,338.799,289.691z"/>
</g>
<g opacity="0.5">
	<path fill="#E0E0E0" d="M386.492,301.874H317.05c-1.346,0-2.437-1.092-2.437-2.438l0,0c0-1.346,1.092-2.437,2.437-2.437h69.442
		c1.347,0,2.438,1.094,2.438,2.437l0,0C388.93,300.782,387.839,301.874,386.492,301.874z"/>
</g>
<g opacity="0.5">
	<g>
		<path fill="#434344" d="M394.515,289.691h-44.336c-1.349,0-2.438-1.092-2.438-2.438l0,0c0-1.347,1.092-2.436,2.438-2.436h44.336
			c1.346,0,2.437,1.093,2.437,2.436l0,0C396.951,288.601,395.859,289.691,394.515,289.691z"/>
	</g>
</g>
<g opacity="0.5">
	<g>
		<path fill="#434344" d="M333.947,263.419h-18.494c-1.311,0-2.372-1.062-2.372-2.374v-0.126c0-1.312,1.062-2.375,2.372-2.375
			h18.494c1.311,0,2.375,1.063,2.375,2.375v0.126C336.322,262.357,335.259,263.419,333.947,263.419z"/>
	</g>
</g>
<g opacity="0.5">
	<path fill="#E0E0E0" d="M349.845,263.419h-4.689c-1.311,0-2.375-1.062-2.375-2.374v-0.126c0-1.312,1.065-2.375,2.375-2.375h4.689
		c1.312,0,2.375,1.063,2.375,2.375v0.126C352.22,262.357,351.156,263.419,349.845,263.419z"/>
</g>
<g opacity="0.5">
	<path fill="#E0E0E0" d="M384.865,263.419h-23.091c-1.314,0-2.375-1.062-2.375-2.374v-0.126c0-1.312,1.065-2.375,2.375-2.375h23.091
		c1.312,0,2.373,1.063,2.373,2.375v0.126C387.241,262.357,386.177,263.419,384.865,263.419z"/>
</g>
<g opacity="0.5">
	<g>
		<path fill="#434344" d="M315.796,250.015h-5.263c-1.349,0-2.438-1.091-2.438-2.437l0,0c0-1.348,1.094-2.439,2.438-2.439h5.263
			c1.347,0,2.437,1.092,2.437,2.439l0,0C318.234,248.924,317.144,250.015,315.796,250.015z"/>
	</g>
</g>
<g opacity="0.5">
	<path fill="#E0E0E0" d="M360.398,250.015h-33.519c-1.347,0-2.438-1.091-2.438-2.437l0,0c0-1.348,1.093-2.439,2.438-2.439h33.519
		c1.347,0,2.436,1.092,2.436,2.439l0,0C362.835,248.924,361.745,250.015,360.398,250.015z"/>
</g>
<g opacity="0.5">
	<g>
		<path fill="#4FC0D0" d="M320.447,173.601h-22.469c-1.347,0-2.438-1.092-2.438-2.439l0,0c0-1.345,1.091-2.437,2.438-2.437h22.469
			c1.346,0,2.438,1.091,2.438,2.437l0,0C322.885,172.509,321.792,173.601,320.447,173.601z"/>
	</g>
</g>
<g opacity="0.5">
	<g>
		<path fill="#434344" d="M349.398,186.362h-51.42c-1.347,0-2.438-1.091-2.438-2.438l0,0c0-1.348,1.091-2.438,2.438-2.438h51.42
			c1.347,0,2.438,1.092,2.438,2.438l0,0C351.835,185.27,350.746,186.362,349.398,186.362z"/>
	</g>
</g>
<g opacity="0.5">
	<path fill="#E0E0E0" d="M404.759,199.55H297.978c-1.347,0-2.438-1.092-2.438-2.438l0,0c0-1.346,1.091-2.438,2.438-2.438h106.781
		c1.347,0,2.436,1.092,2.436,2.438l0,0C407.195,198.458,406.105,199.55,404.759,199.55z"/>
</g>
<g opacity="0.5">
	<path fill="#E0E0E0" d="M348.327,208.837h-50.349c-1.347,0-2.438-1.092-2.438-2.437l0,0c0-1.347,1.091-2.439,2.438-2.439h50.349
		c1.346,0,2.437,1.092,2.437,2.439l0,0C350.764,207.746,349.673,208.837,348.327,208.837z"/>
</g>
<g opacity="0.5">
	<path fill="#434344" d="M338.026,225.044h-50.348c-1.347,0-2.439-1.09-2.439-2.437l0,0c0-1.347,1.092-2.438,2.439-2.438h50.348
		c1.347,0,2.438,1.091,2.438,2.438l0,0C340.464,223.955,339.373,225.044,338.026,225.044z"/>
</g>
<g opacity="0.5">
	<g>
		<path fill="#4FC0D0" d="M366.212,225.044h-16.878c-1.345,0-2.436-1.09-2.436-2.437l0,0c0-1.347,1.091-2.438,2.436-2.438h16.878
			c1.345,0,2.438,1.091,2.438,2.438l0,0C368.651,223.955,367.558,225.044,366.212,225.044z"/>
	</g>
</g>
<g opacity="0.5">
	<g>
		<path fill="#434344" d="M409.36,224.967h-31.878c-1.348,0-2.437-1.093-2.437-2.438l0,0c0-1.346,1.093-2.438,2.437-2.438h31.878
			c1.346,0,2.438,1.092,2.438,2.438l0,0C411.798,223.874,410.706,224.967,409.36,224.967z"/>
	</g>
</g>
<g opacity="0.5">
	<path fill="#E0E0E0" d="M452.744,224.967h-31.88c-1.348,0-2.436-1.093-2.436-2.438l0,0c0-1.346,1.09-2.438,2.436-2.438h31.881
		c1.348,0,2.437,1.092,2.437,2.438l0,0C455.182,223.874,454.092,224.967,452.744,224.967z"/>
</g>
<g opacity="0.5">
	<path fill="#E0E0E0" d="M210.44,211.928h-13.448c-1.346,0-2.437-1.091-2.437-2.438l0,0c0-1.346,1.091-2.438,2.437-2.438h13.448
		c1.346,0,2.438,1.091,2.438,2.438l0,0C212.879,210.837,211.786,211.928,210.44,211.928z"/>
</g>
<g opacity="0.5">
	<path fill="#E0E0E0" d="M206.416,251.367h-9.424c-1.347,0-2.436-1.09-2.436-2.438l0,0c0-1.347,1.091-2.438,2.436-2.438h9.424
		c1.346,0,2.438,1.092,2.438,2.438l0,0C208.853,250.277,207.762,251.367,206.416,251.367z"/>
</g>
<g opacity="0.5">
	<path fill="#E0E0E0" d="M223.152,225.075h-26.161c-1.347,0-2.436-1.091-2.436-2.438l0,0c0-1.348,1.091-2.438,2.436-2.438h26.161
		c1.346,0,2.437,1.09,2.437,2.438l0,0C225.589,223.983,224.498,225.075,223.152,225.075z"/>
</g>
<g opacity="0.5">
	<path fill="#E0E0E0" d="M218.561,238.221h-21.57c-1.347,0-2.437-1.092-2.437-2.437l0,0c0-1.347,1.09-2.439,2.437-2.439h21.57
		c1.346,0,2.438,1.092,2.438,2.439l0,0C221,237.129,219.907,238.221,218.561,238.221z"/>
</g>
<g opacity="0.5">
	<circle fill="#434344" cx="248.491" cy="171.163" r="2.476"/>
</g>
<g opacity="0.5">
	<circle fill="#434344" cx="248.491" cy="183.885" r="2.477"/>
</g>
<g opacity="0.5">
	<circle fill="#434344" cx="248.491" cy="197.111" r="2.476"/>
</g>
<g opacity="0.5">
	<circle fill="#434344" cx="248.491" cy="210.337" r="2.476"/>
</g>
<g opacity="0.5">
	<circle fill="#434344" cx="248.491" cy="223.562" r="2.476"/>
</g>
<g opacity="0.5">
	<circle fill="#434344" cx="248.491" cy="236.789" r="2.477"/>
</g>
<g opacity="0.5">
	<circle fill="#434344" cx="248.491" cy="250.014" r="2.476"/>
</g>
<g opacity="0.5">
	<circle fill="#434344" cx="248.491" cy="263.24" r="2.476"/>
</g>
<g opacity="0.5">
	<circle fill="#434344" cx="248.491" cy="276.466" r="2.477"/>
</g>
<g opacity="0.5">
	<circle fill="#434344" cx="248.491" cy="289.691" r="2.477"/>
</g>
<g opacity="0.5">
	<circle fill="#455A64" cx="248.491" cy="302.917" r="2.476"/>
</g>
<g opacity="0.5">
	<circle fill="#434344" cx="248.491" cy="316.145" r="2.477"/>
</g>
<g opacity="0.5">
	<g>
		<g>
			<g>
				<g>
					<g>
						<path fill="#D6D6D6" d="M562.144,438.2l-87.342-0.052c-10.505-0.006-19.017-8.454-19.014-18.873l0.044-217.195
							c0.005-10.425,8.523-18.875,19.035-18.868l87.342,0.051c10.505,0.006,19.016,8.455,19.015,18.876l-0.043,217.193
							C581.179,429.758,572.653,438.207,562.144,438.2z"/>
					</g>
				</g>
			</g>
		</g>
	</g>
</g>
<g opacity="0.5">
	<g>
		<g>
			<g>
				<g>
					<g>
						<path fill="#FFFFFF" d="M561.921,191.007l-16.933-0.01c-2.271,0-4.113,1.908-4.113,4.262l-0.002,3.046
							c0,2.355-1.841,4.263-4.111,4.262l-33.008-0.02c-2.271,0-4.112-1.911-4.111-4.266l0.001-3.047c0-2.355-1.84-4.266-4.111-4.266
							l-5.957-0.004l-14.82-0.009c-7.36-0.003-13.33,5.913-13.331,13.214l-0.043,211.999c-0.002,7.298,5.96,13.218,13.316,13.22
							l87.167,0.051c7.359,0.005,13.329-5.912,13.331-13.214l0.042-212C575.238,196.929,569.277,191.011,561.921,191.007z"/>
					</g>
				</g>
			</g>
		</g>
	</g>
</g>
<g opacity="0.5">
	<path fill="#EBEBEB" d="M492.568,429.585H475.31c-7.64,0-13.834-6.193-13.834-13.834V223.013h31.092L492.568,429.585
		L492.568,429.585z"/>
</g>
<g opacity="0.5">
	<path fill="#434344" d="M525.27,237.431h-14.808c-0.887,0-1.607-0.755-1.607-1.69l0,0c0-0.933,0.718-1.69,1.607-1.69h14.808
		c0.889,0,1.608,0.757,1.608,1.69l0,0C526.878,236.676,526.159,237.431,525.27,237.431z"/>
</g>
<g opacity="0.5">
	<path fill="#E0E0E0" d="M525.732,246.252h-14.809c-0.887,0-1.608-0.756-1.608-1.688l0,0c0-0.935,0.72-1.692,1.608-1.692h14.809
		c0.884,0,1.605,0.758,1.605,1.692l0,0C527.338,245.496,526.619,246.252,525.732,246.252z"/>
</g>
<g opacity="0.5">
	<g>
		<path fill="#4FC0D0" d="M525.91,256.343h-14.81c-0.886,0-1.605-0.758-1.605-1.691l0,0c0-0.934,0.715-1.69,1.605-1.69h14.81
			c0.887,0,1.607,0.757,1.607,1.69l0,0C527.517,255.586,526.797,256.343,525.91,256.343z"/>
	</g>
</g>
<g opacity="0.5">
	<path fill="#E0E0E0" d="M549.056,263.99h-14.81c-0.888,0-1.607-0.758-1.607-1.69l0,0c0-0.935,0.718-1.689,1.607-1.689h14.81
		c0.887,0,1.606,0.756,1.606,1.689l0,0C550.661,263.232,549.942,263.99,549.056,263.99z"/>
</g>
<g opacity="0.5">
	<path fill="#263238" d="M522.114,274.021h-8.492c-0.888,0-1.607-0.758-1.607-1.691l0,0c0-0.933,0.718-1.69,1.607-1.69h8.492
		c0.886,0,1.604,0.757,1.604,1.69l0,0C523.719,273.264,523,274.021,522.114,274.021z"/>
</g>
<g opacity="0.5">
	<path fill="#263238" d="M522.114,283.186h-8.492c-0.888,0-1.607-0.758-1.607-1.691l0,0c0-0.934,0.718-1.69,1.607-1.69h8.492
		c0.886,0,1.604,0.757,1.604,1.69l0,0C523.719,282.427,523,283.186,522.114,283.186z"/>
</g>
<g opacity="0.5">
	<path fill="#E0E0E0" d="M547.35,283.186H531.78c-0.886,0-1.608-0.758-1.608-1.691l0,0c0-0.934,0.72-1.69,1.608-1.69h15.57
		c0.886,0,1.607,0.757,1.607,1.69l0,0C548.958,282.427,548.235,283.186,547.35,283.186z"/>
</g>
<g opacity="0.5">
	<g>
		<path fill="#4FC0D0" d="M529.175,293.987h-15.57c-0.888,0-1.608-0.757-1.608-1.69l0,0c0-0.934,0.72-1.69,1.608-1.69h15.57
			c0.888,0,1.606,0.757,1.606,1.69l0,0C530.781,293.23,530.063,293.987,529.175,293.987z"/>
	</g>
</g>
<g opacity="0.5">
	<g>
		<path fill="#4FC0D0" d="M530.23,301.592h-9.595c-0.908,0-1.646-0.736-1.646-1.646v-0.088c0-0.906,0.737-1.642,1.646-1.642h9.595
			c0.909,0,1.646,0.737,1.646,1.642v0.088C531.877,300.855,531.14,301.592,530.23,301.592z"/>
	</g>
</g>
<g opacity="0.5">
	<g>
		<path fill="#4FC0D0" d="M524.488,316.405h-9.675c-0.888,0-1.608-0.757-1.608-1.69l0,0c0-0.935,0.719-1.69,1.608-1.69h9.675
			c0.884,0,1.606,0.756,1.606,1.69l0,0C526.095,315.648,525.376,316.405,524.488,316.405z"/>
	</g>
</g>
<g opacity="0.5">
	<g>
		<path fill="#4FC0D0" d="M524.488,335.648h-9.675c-0.888,0-1.608-0.754-1.608-1.69l0,0c0-0.937,0.719-1.691,1.608-1.691h9.675
			c0.884,0,1.606,0.755,1.606,1.691l0,0C526.095,334.891,525.376,335.648,524.488,335.648z"/>
	</g>
</g>
<g opacity="0.5">
	<path fill="#434344" d="M548.271,335.648h-16.959c-0.887,0-1.607-0.754-1.607-1.69l0,0c0-0.937,0.719-1.691,1.607-1.691h16.959
		c0.887,0,1.608,0.755,1.608,1.691l0,0C549.88,334.891,549.158,335.648,548.271,335.648z"/>
</g>
<g opacity="0.5">
	<path fill="#434344" d="M569.784,316.772h-16.96c-0.889,0-1.607-0.757-1.607-1.689l0,0c0-0.937,0.716-1.689,1.607-1.689h16.96
		c0.888,0,1.607,0.753,1.607,1.689l0,0C571.392,316.016,570.672,316.772,569.784,316.772z"/>
</g>
<g opacity="0.5">
	<path fill="#434344" d="M549.404,323.962h-16.961c-0.888,0-1.606-0.755-1.606-1.691l0,0c0-0.933,0.716-1.688,1.606-1.688h16.961
		c0.887,0,1.607,0.755,1.607,1.688l0,0C551.012,323.204,550.291,323.962,549.404,323.962z"/>
</g>
<g opacity="0.5">
	<path fill="#E0E0E0" d="M560.144,335.648H557.7c-0.883,0-1.606-0.754-1.606-1.69l0,0c0-0.937,0.718-1.691,1.606-1.691h2.443
		c0.888,0,1.608,0.755,1.608,1.691l0,0C561.751,334.891,561.031,335.648,560.144,335.648z"/>
</g>
<g opacity="0.5">
	<path fill="#E0E0E0" d="M547.256,316.405h-14.335c-0.884,0-1.605-0.757-1.605-1.69l0,0c0-0.935,0.716-1.69,1.605-1.69h14.335
		c0.886,0,1.609,0.756,1.609,1.69l0,0C548.862,315.648,548.142,316.405,547.256,316.405z"/>
</g>
<g opacity="0.5">
	<path fill="#434344" d="M549.758,301.592h-12.024c-0.908,0-1.643-0.736-1.643-1.646v-0.088c0-0.906,0.736-1.642,1.643-1.642h12.024
		c0.909,0,1.646,0.737,1.646,1.642v0.088C551.405,300.855,550.668,301.592,549.758,301.592z"/>
</g>
<g opacity="0.5">
	<path fill="#E0E0E0" d="M560.235,301.592h-2.928c-0.907,0-1.646-0.736-1.646-1.646v-0.088c0-0.906,0.74-1.642,1.646-1.642h2.928
		c0.909,0,1.646,0.737,1.646,1.642v0.088C561.883,300.855,561.146,301.592,560.235,301.592z"/>
</g>
<g opacity="0.5">
	<path fill="#434344" d="M539.722,293.987h-3.468c-0.888,0-1.606-0.757-1.606-1.69l0,0c0-0.934,0.716-1.69,1.606-1.69h3.468
		c0.888,0,1.608,0.757,1.608,1.69l0,0C541.328,293.23,540.609,293.987,539.722,293.987z"/>
</g>
<g opacity="0.5">
	<path fill="#E0E0E0" d="M569.117,293.987h-22.091c-0.887,0-1.606-0.757-1.606-1.69l0,0c0-0.934,0.716-1.69,1.606-1.69h22.091
		c0.888,0,1.607,0.757,1.607,1.69l0,0C570.725,293.23,570.005,293.987,569.117,293.987z"/>
</g>
<g opacity="0.5">
	<path fill="#455A64" d="M547.554,237.431h-14.808c-0.888,0-1.607-0.755-1.607-1.69l0,0c0-0.933,0.718-1.69,1.607-1.69h14.808
		c0.889,0,1.607,0.757,1.607,1.69l0,0C549.16,236.676,548.442,237.431,547.554,237.431z"/>
</g>
<g opacity="0.5">
	<path fill="#434344" d="M566.106,246.252h-33.891c-0.889,0-1.606-0.756-1.606-1.688l0,0c0-0.935,0.717-1.692,1.606-1.692h33.891
		c0.885,0,1.606,0.758,1.606,1.692l0,0C567.713,245.496,566.991,246.252,566.106,246.252z"/>
</g>
<g opacity="0.5">
	<path fill="#E0E0E0" d="M566.756,256.273h-33.184c-0.887,0-1.608-0.758-1.608-1.69l0,0c0-0.934,0.72-1.69,1.608-1.69h33.184
		c0.886,0,1.605,0.757,1.605,1.69l0,0C568.361,255.516,567.642,256.273,566.756,256.273z"/>
</g>
<g opacity="0.5">
	<path fill="#434344" d="M563.74,274.021h-33.183c-0.888,0-1.606-0.758-1.606-1.691l0,0c0-0.933,0.716-1.69,1.606-1.69h33.183
		c0.888,0,1.607,0.757,1.607,1.69l0,0C565.347,273.264,564.628,274.021,563.74,274.021z"/>
</g>
<g opacity="0.5">
	<path fill="#263238" d="M522.114,402.49h-8.492c-0.888,0-1.607-0.752-1.607-1.689l0,0c0-0.934,0.718-1.691,1.607-1.691h8.492
		c0.886,0,1.604,0.758,1.604,1.691l0,0C523.719,401.734,523,402.49,522.114,402.49z"/>
</g>
<g opacity="0.5">
	<path fill="#263238" d="M522.114,411.655h-8.492c-0.888,0-1.607-0.758-1.607-1.691l0,0c0-0.934,0.718-1.69,1.607-1.69h8.492
		c0.886,0,1.604,0.757,1.604,1.69l0,0C523.719,410.897,523,411.655,522.114,411.655z"/>
</g>
<g opacity="0.5">
	<path fill="#434344" d="M563.74,402.49h-33.183c-0.888,0-1.606-0.752-1.606-1.689l0,0c0-0.934,0.716-1.691,1.606-1.691h33.183
		c0.888,0,1.607,0.758,1.607,1.691l0,0C565.347,401.734,564.628,402.49,563.74,402.49z"/>
</g>
<g opacity="0.5">
	<path fill="#E0E0E0" d="M479.653,267.194h-8.866c-0.889,0-1.607-0.759-1.607-1.691l0,0c0-0.935,0.717-1.691,1.607-1.691h8.866
		c0.883,0,1.605,0.757,1.605,1.691l0,0C481.259,266.436,480.54,267.194,479.653,267.194z"/>
</g>
<g opacity="0.5">
	<path fill="#E0E0E0" d="M479.653,276.6h-8.866c-0.889,0-1.607-0.758-1.607-1.69l0,0c0-0.934,0.717-1.69,1.607-1.69h8.866
		c0.883,0,1.605,0.757,1.605,1.69l0,0C481.259,275.842,480.54,276.6,479.653,276.6z"/>
</g>
<g opacity="0.5">
	<path fill="#E0E0E0" d="M479.653,286.005h-8.866c-0.889,0-1.607-0.757-1.607-1.689l0,0c0-0.936,0.717-1.691,1.607-1.691h8.866
		c0.883,0,1.605,0.756,1.605,1.691l0,0C481.259,285.248,480.54,286.005,479.653,286.005z"/>
</g>
<g opacity="0.5">
	<path fill="#E0E0E0" d="M479.653,257.786h-8.866c-0.889,0-1.607-0.755-1.607-1.688l0,0c0-0.936,0.717-1.691,1.607-1.691h8.866
		c0.883,0,1.605,0.756,1.605,1.691l0,0C481.259,257.031,480.54,257.786,479.653,257.786z"/>
</g>
<g opacity="0.5">
	<path fill="#E0E0E0" d="M479.653,248.384h-8.866c-0.889,0-1.607-0.758-1.607-1.691l0,0c0-0.934,0.717-1.69,1.607-1.69h8.866
		c0.883,0,1.605,0.757,1.605,1.69l0,0C481.259,247.625,480.54,248.384,479.653,248.384z"/>
</g>
<g opacity="0.5">
	<path fill="#E0E0E0" d="M479.653,238.977h-8.866c-0.889,0-1.607-0.755-1.607-1.69l0,0c0-0.934,0.717-1.69,1.607-1.69h8.866
		c0.883,0,1.605,0.756,1.605,1.69l0,0C481.259,238.221,480.54,238.977,479.653,238.977z"/>
</g>
<g opacity="0.5">
	<path fill="#E0E0E0" d="M476.998,295.411h-6.21c-0.887,0-1.606-0.757-1.606-1.691l0,0c0-0.936,0.717-1.691,1.606-1.691h6.21
		c0.889,0,1.608,0.756,1.608,1.691l0,0C478.606,294.654,477.887,295.411,476.998,295.411z"/>
</g>
<g opacity="0.5">
	<g>
		<ellipse fill="#434344" cx="499.957" cy="235.741" rx="1.656" ry="1.717"/>
	</g>
	<g>
		<ellipse fill="#434344" cx="499.957" cy="244.563" rx="1.656" ry="1.717"/>
	</g>
	<g>
		<ellipse fill="#434344" cx="499.957" cy="253.733" rx="1.656" ry="1.717"/>
	</g>
	<g>
		<ellipse fill="#434344" cx="499.957" cy="262.905" rx="1.656" ry="1.716"/>
	</g>
	<g>
		<ellipse fill="#434344" cx="499.957" cy="272.075" rx="1.656" ry="1.718"/>
	</g>
	<g>
		<ellipse fill="#434344" cx="499.957" cy="281.246" rx="1.656" ry="1.717"/>
	</g>
	<g>
		<ellipse fill="#434344" cx="499.957" cy="290.417" rx="1.656" ry="1.716"/>
	</g>
	<g>
		<ellipse fill="#434344" cx="499.957" cy="299.587" rx="1.656" ry="1.716"/>
	</g>
	<g>
		<ellipse fill="#434344" cx="499.957" cy="308.758" rx="1.656" ry="1.717"/>
	</g>
	<g>
		<ellipse fill="#434344" cx="499.957" cy="317.928" rx="1.656" ry="1.716"/>
	</g>
	<g>
		<ellipse fill="#434344" cx="499.957" cy="327.099" rx="1.656" ry="1.717"/>
	</g>
	<g>
		<ellipse fill="#434344" cx="499.957" cy="336.27" rx="1.656" ry="1.718"/>
	</g>
</g>
<g opacity="0.5">
	<g>
		<path fill="#4FC0D0" d="M529.175,348.731h-15.57c-0.888,0-1.608-0.754-1.608-1.69l0,0c0-0.933,0.72-1.689,1.608-1.689h15.57
			c0.888,0,1.606,0.757,1.606,1.689l0,0C530.781,347.977,530.063,348.731,529.175,348.731z"/>
	</g>
</g>
<g opacity="0.5">
	<g>
		<path fill="#4FC0D0" d="M530.23,356.337h-9.595c-0.908,0-1.646-0.735-1.646-1.646v-0.085c0-0.909,0.737-1.646,1.646-1.646h9.595
			c0.909,0,1.646,0.736,1.646,1.646v0.085C531.877,355.602,531.14,356.337,530.23,356.337z"/>
	</g>
</g>
<g opacity="0.5">
	<g>
		<path fill="#4FC0D0" d="M524.488,371.151h-9.675c-0.888,0-1.608-0.758-1.608-1.691l0,0c0-0.934,0.719-1.69,1.608-1.69h9.675
			c0.884,0,1.606,0.757,1.606,1.69l0,0C526.095,370.393,525.376,371.151,524.488,371.151z"/>
	</g>
</g>
<g opacity="0.5">
	<g>
		<path fill="#4FC0D0" d="M524.488,390.391h-9.675c-0.888,0-1.608-0.753-1.608-1.689l0,0c0-0.934,0.719-1.691,1.608-1.691h9.675
			c0.884,0,1.606,0.758,1.606,1.691l0,0C526.095,389.635,525.376,390.391,524.488,390.391z"/>
	</g>
</g>
<g opacity="0.5">
	<path fill="#434344" d="M548.271,390.391h-16.959c-0.887,0-1.607-0.753-1.607-1.689l0,0c0-0.934,0.719-1.691,1.607-1.691h16.959
		c0.887,0,1.608,0.758,1.608,1.691l0,0C549.88,389.635,549.158,390.391,548.271,390.391z"/>
</g>
<g opacity="0.5">
	<path fill="#434344" d="M569.784,371.517h-16.96c-0.889,0-1.607-0.754-1.607-1.689l0,0c0-0.938,0.716-1.691,1.607-1.691h16.96
		c0.888,0,1.607,0.754,1.607,1.691l0,0C571.392,370.763,570.672,371.517,569.784,371.517z"/>
</g>
<g opacity="0.5">
	<path fill="#434344" d="M549.404,378.706h-16.961c-0.888,0-1.606-0.752-1.606-1.688l0,0c0-0.937,0.716-1.691,1.606-1.691h16.961
		c0.887,0,1.607,0.755,1.607,1.691l0,0C551.012,377.948,550.291,378.706,549.404,378.706z"/>
</g>
<g opacity="0.5">
	<path fill="#E0E0E0" d="M560.144,390.391H557.7c-0.883,0-1.606-0.753-1.606-1.689l0,0c0-0.934,0.718-1.691,1.606-1.691h2.443
		c0.888,0,1.608,0.758,1.608,1.691l0,0C561.751,389.635,561.031,390.391,560.144,390.391z"/>
</g>
<g opacity="0.5">
	<path fill="#E0E0E0" d="M547.256,371.151h-14.335c-0.884,0-1.605-0.758-1.605-1.691l0,0c0-0.934,0.716-1.69,1.605-1.69h14.335
		c0.886,0,1.609,0.757,1.609,1.69l0,0C548.862,370.393,548.142,371.151,547.256,371.151z"/>
</g>
<g opacity="0.5">
	<path fill="#434344" d="M549.758,356.337h-12.024c-0.908,0-1.643-0.735-1.643-1.646v-0.085c0-0.909,0.736-1.646,1.643-1.646h12.024
		c0.909,0,1.646,0.736,1.646,1.646v0.085C551.405,355.602,550.668,356.337,549.758,356.337z"/>
</g>
<g opacity="0.5">
	<path fill="#E0E0E0" d="M560.235,356.337h-2.928c-0.907,0-1.646-0.735-1.646-1.646v-0.085c0-0.909,0.74-1.646,1.646-1.646h2.928
		c0.909,0,1.646,0.736,1.646,1.646v0.085C561.883,355.602,561.146,356.337,560.235,356.337z"/>
</g>
<g opacity="0.5">
	<path fill="#434344" d="M539.722,348.731h-3.468c-0.888,0-1.606-0.754-1.606-1.69l0,0c0-0.933,0.716-1.689,1.606-1.689h3.468
		c0.888,0,1.608,0.757,1.608,1.689l0,0C541.328,347.977,540.609,348.731,539.722,348.731z"/>
</g>
<g opacity="0.5">
	<path fill="#E0E0E0" d="M569.117,348.731h-22.091c-0.887,0-1.606-0.754-1.606-1.69l0,0c0-0.933,0.716-1.689,1.606-1.689h22.091
		c0.888,0,1.607,0.757,1.607,1.689l0,0C570.725,347.977,570.005,348.731,569.117,348.731z"/>
</g>
<g opacity="0.5">
	<g>
		<ellipse fill="#434344" cx="499.957" cy="345.16" rx="1.656" ry="1.717"/>
	</g>
	<g>
		<ellipse fill="#434344" cx="499.957" cy="354.332" rx="1.656" ry="1.717"/>
	</g>
	<g>
		<ellipse fill="#434344" cx="499.957" cy="363.502" rx="1.656" ry="1.717"/>
	</g>
	<g>
		<ellipse fill="#434344" cx="499.957" cy="372.672" rx="1.656" ry="1.717"/>
	</g>
	<g>
		<ellipse fill="#434344" cx="499.957" cy="381.843" rx="1.656" ry="1.717"/>
	</g>
	<g>
		<ellipse fill="#434344" cx="499.957" cy="391.013" rx="1.656" ry="1.716"/>
	</g>
	<g>
		<ellipse fill="#434344" cx="499.957" cy="400.8" rx="1.656" ry="1.717"/>
	</g>
	<g>
		<ellipse fill="#434344" cx="499.957" cy="410.589" rx="1.656" ry="1.717"/>
	</g>
</g>
<g opacity="0.5">
	<path fill="#F5F5F5" d="M561.921,191.007l-16.933-0.01c-2.271,0-4.113,1.908-4.113,4.262l-0.002,3.046
		c0,2.355-1.841,4.264-4.111,4.262l-33.008-0.02c-2.271,0-4.112-1.911-4.111-4.266l0.001-3.047c0-2.354-1.84-4.266-4.111-4.266
		l-5.957-0.003l-14.82-0.01c-7.36-0.003-13.33,5.913-13.331,13.214l-0.005,18.843h113.815l0.003-18.787
		C575.238,196.929,569.277,191.011,561.921,191.007z"/>
</g>
<g opacity="0.5">
	<g>
		<circle fill="#E0E0E0" cx="469.002" cy="215.585" r="2.101"/>
	</g>
	<g>
		<circle fill="#E0E0E0" cx="475.485" cy="215.585" r="2.101"/>
	</g>
	<g>
		<circle fill="#E0E0E0" cx="481.969" cy="215.585" r="2.101"/>
	</g>
</g>
<g opacity="0.5">
	<g>
		<g>
			<g>
				<g>
					<g>
						<g>
							<g>
								<path fill="#E0E0E0" d="M519.048,208.281c0.424-0.255,0.875-0.45,1.341-0.582l0.271-1.326l2.245-0.04l0.324,1.316
									c0.47,0.116,0.927,0.294,1.359,0.535l1.131-0.742l1.612,1.557l-0.702,1.157c0.257,0.424,0.451,0.876,0.583,1.342
									l1.326,0.276l0.039,2.242l-1.315,0.322c-0.116,0.468-0.297,0.927-0.535,1.36l0.743,1.133l-1.558,1.611l-1.158-0.703
									c-0.425,0.257-0.874,0.451-1.341,0.583l-0.275,1.327l-2.242,0.04l-0.323-1.317c-0.469-0.115-0.93-0.293-1.359-0.534
									l-1.134,0.743l-1.607-1.559l0.701-1.157c-0.256-0.423-0.45-0.875-0.586-1.341l-1.324-0.276l-0.039-2.241l1.316-0.322
									c0.116-0.47,0.295-0.927,0.534-1.359l-0.745-1.134l1.557-1.612L519.048,208.281L519.048,208.281z M520.242,211.268
									c-0.923,0.956-0.896,2.477,0.059,3.4c0.956,0.921,2.479,0.896,3.401-0.059c0.923-0.956,0.896-2.479-0.061-3.401
									C522.688,210.285,521.164,210.312,520.242,211.268z"/>
							</g>
						</g>
					</g>
				</g>
			</g>
		</g>
	</g>
</g>
<g opacity="0.5">
	<g>
		<path fill="#F4F4F4" d="M191.438,250.976H134.94c-4.167,0-7.544-3.378-7.544-7.544v-56.497c0-4.167,3.377-7.543,7.544-7.543
			h56.497c4.167,0,7.543,3.377,7.543,7.543v56.497C198.98,247.6,195.605,250.976,191.438,250.976z"/>
	</g>
</g>
<g opacity="0.5">
	<g>
		<g>
			<g>
				<g>
					<g>
						<g>
							<path fill="#FFFFFF" d="M150.131,206.191c1.268-0.766,2.617-1.348,4.01-1.743l0.827-3.968l6.706-0.118l0.965,3.938
								c1.405,0.347,2.775,0.878,4.069,1.601l3.39-2.222l4.824,4.659l-2.101,3.464c0.767,1.269,1.347,2.619,1.743,4.011l3.969,0.825
								l0.118,6.706l-3.937,0.965c-0.347,1.406-0.88,2.775-1.602,4.069l2.221,3.389l-4.658,4.825l-3.465-2.101
								c-1.268,0.765-2.618,1.346-4.011,1.742l-0.826,3.97l-6.706,0.116l-0.965-3.936c-1.406-0.347-2.775-0.88-4.069-1.601
								l-3.389,2.221l-4.824-4.66l2.101-3.463c-0.766-1.269-1.347-2.618-1.742-4.011l-3.969-0.828l-0.118-6.705l3.937-0.964
								c0.346-1.406,0.88-2.775,1.601-4.07l-2.223-3.39l4.659-4.825L150.131,206.191L150.131,206.191z M153.706,215.124
								c-2.76,2.859-2.68,7.414,0.179,10.174c2.859,2.76,7.414,2.68,10.174-0.18c2.76-2.858,2.68-7.414-0.179-10.173
								C161.02,212.184,156.466,212.265,153.706,215.124z"/>
						</g>
					</g>
				</g>
			</g>
		</g>
	</g>
	<g>
		<g>
			<g>
				<g>
					<g>
						<g>
							<path fill="#FFFFFF" d="M175.086,193.541c0.386-0.431,0.824-0.802,1.298-1.108l-0.145-1.576l2.49-0.81l0.809,1.36
								c0.564-0.031,1.137,0.012,1.702,0.134l1.011-1.216l2.333,1.188l-0.389,1.532c0.43,0.387,0.802,0.825,1.107,1.299l1.577-0.145
								l0.809,2.489l-1.359,0.81c0.031,0.564-0.013,1.137-0.133,1.701l1.216,1.012l-1.188,2.333l-1.533-0.389
								c-0.386,0.432-0.824,0.802-1.299,1.109l0.145,1.576l-2.49,0.81l-0.809-1.36c-0.564,0.032-1.136-0.012-1.701-0.133
								l-1.012,1.216l-2.333-1.188l0.389-1.534c-0.431-0.386-0.801-0.825-1.108-1.298l-1.576,0.145l-0.81-2.49l1.36-0.811
								c-0.032-0.564,0.012-1.136,0.133-1.701l-1.216-1.011l1.188-2.333L175.086,193.541L175.086,193.541z M177.44,196.468
								c-0.704,1.383-0.154,3.073,1.228,3.777c1.382,0.703,3.073,0.154,3.776-1.228c0.704-1.382,0.154-3.073-1.227-3.777
								C179.835,194.536,178.144,195.085,177.44,196.468z"/>
						</g>
					</g>
				</g>
			</g>
		</g>
	</g>
</g>
<g opacity="0.5">
	<g>
		<polygon fill="#D6D6D6" points="502.919,150.658 518.41,171.726 535.087,150.63 		"/>
	</g>
	<g>
		<g>
			<path fill="#D6D6D6" d="M526.951,154.224h-15.896v-22.716c0-4.736-1.691-6.326-2.247-6.848
				c-2.384-2.243-6.908-2.819-10.346-2.604c-0.199,0.012-0.461,0.024-0.78,0.024c-0.016,0-0.022,0-0.035,0
				c-5.602,0-9.455,1.498-11.458,4.454c-1.606,2.367-1.696,5.016-1.696,5.043v-0.132l-15.896,0.123
				c-0.008-1.026,0.133-10.236,7.32-17.458c5.222-5.247,12.509-7.912,21.66-7.925c4.26-0.253,14.734-0.05,22.12,6.894
				c3.309,3.11,7.254,8.835,7.254,18.427V154.224L526.951,154.224z"/>
		</g>
	</g>
</g>
<g opacity="0.5">
	<path fill="#CCBEBC" d="M245.115,316.998c0.67,0,1.266,0.592,1.266,1.261h-6.774l1.266-1.261H245.115z"/>
	<path fill="#D4D3C8" d="M233.652,316.998h7.22l-1.265,1.261h-7.221C232.387,317.592,232.907,316.998,233.652,316.998z"/>
</g>
<g>
	<g>
		<g>
			
				<linearGradient id="SVGID_1_" gradientUnits="userSpaceOnUse" x1="-1560.0381" y1="-1737.7388" x2="-1555.332" y2="-1737.7388" gradientTransform="matrix(2.139 0 0 -2.139 3619.0576 -3426.1687)">
				<stop  offset="0" style="stop-color:#F4E6DB"/>
				<stop  offset="1" style="stop-color:#E8B7A9;stop-opacity:0.9697"/>
			</linearGradient>
			<polygon fill="url(#SVGID_1_)" points="284.094,285.752 292.202,289.038 288.287,295.956 283.674,293.58 282.137,289.598 			"/>
			<g>
				<g>
					
						<linearGradient id="SVGID_2_" gradientUnits="userSpaceOnUse" x1="-1556.2612" y1="-1737.6924" x2="-1552.834" y2="-1737.6924" gradientTransform="matrix(2.139 0 0 -2.139 3619.0576 -3426.1687)">
						<stop  offset="0" style="stop-color:#F4E6DB"/>
						<stop  offset="1" style="stop-color:#E8B7A9;stop-opacity:0.9697"/>
					</linearGradient>
					<path fill="url(#SVGID_2_)" d="M290.803,290.017c2.237,0.21,4.124,1.117,5.663,2.725c0.629,0.699,1.538-0.418,0.909-1.118
						c-1.678-1.75-3.915-2.865-6.291-3.075C290.104,288.479,289.895,289.876,290.803,290.017L290.803,290.017z"/>
				</g>
			</g>
			<g>
				<g>
					
						<linearGradient id="SVGID_3_" gradientUnits="userSpaceOnUse" x1="-1556.7178" y1="-1738.7969" x2="-1552.7505" y2="-1738.7969" gradientTransform="matrix(2.139 0 0 -2.139 3619.0576 -3426.1687)">
						<stop  offset="0" style="stop-color:#F4E6DB"/>
						<stop  offset="1" style="stop-color:#E8B7A9;stop-opacity:0.9697"/>
					</linearGradient>
					<path fill="url(#SVGID_3_)" d="M289.825,292.112c2.656,0.209,4.962,1.328,6.779,3.285c0.629,0.628,1.538-0.42,0.908-1.122
						c-1.956-2.098-4.612-3.355-7.478-3.632C289.125,290.646,288.916,292.041,289.825,292.112L289.825,292.112z"/>
				</g>
			</g>
			<g>
				<g>
					
						<linearGradient id="SVGID_4_" gradientUnits="userSpaceOnUse" x1="-1557.687" y1="-1739.5811" x2="-1553.7207" y2="-1739.5811" gradientTransform="matrix(2.139 0 0 -2.139 3619.0576 -3426.1687)">
						<stop  offset="0" style="stop-color:#F4E6DB"/>
						<stop  offset="1" style="stop-color:#E8B7A9;stop-opacity:0.9697"/>
					</linearGradient>
					<path fill="url(#SVGID_4_)" d="M287.729,293.79c2.656,0.21,4.962,1.328,6.78,3.284c0.628,0.629,1.537-0.418,0.909-1.118
						c-2.028-2.101-4.613-3.359-7.479-3.635C287.099,292.321,286.82,293.72,287.729,293.79L287.729,293.79z"/>
				</g>
			</g>
			<g>
				<g>
					
						<linearGradient id="SVGID_5_" gradientUnits="userSpaceOnUse" x1="-1558.9438" y1="-1740.1377" x2="-1555.3694" y2="-1740.1377" gradientTransform="matrix(2.139 0 0 -2.139 3619.0576 -3426.1687)">
						<stop  offset="0" style="stop-color:#F4E6DB"/>
						<stop  offset="1" style="stop-color:#E8B7A9;stop-opacity:0.9697"/>
					</linearGradient>
					<path fill="url(#SVGID_5_)" d="M285.002,294.278c2.517,0.767,4.473,2.306,5.801,4.543c0.489,0.769,1.607-0.071,1.188-0.839
						c-1.538-2.517-3.915-4.263-6.779-5.102C284.374,292.602,284.163,294,285.002,294.278L285.002,294.278z"/>
				</g>
			</g>
		</g>
		
			<linearGradient id="SVGID_6_" gradientUnits="userSpaceOnUse" x1="-1571.6328" y1="-1724.4541" x2="-1575.396" y2="-1734.2614" gradientTransform="matrix(2.139 0 0 -2.139 3619.0576 -3426.1687)">
			<stop  offset="0" style="stop-color:#F4E6DB"/>
			<stop  offset="1" style="stop-color:#E8B7A9;stop-opacity:0.9697"/>
		</linearGradient>
		<path fill="url(#SVGID_6_)" d="M284.094,285.752l-33.407-0.279l-11.952-31.032c-1.608-4.475-6.43-7.899-10.554-5.522l0,0
			c-3.564,2.026-3.634,6.99-1.747,10.623l16.913,36.972c0.629,1.54,38.999-6.292,38.999-6.292L284.094,285.752z"/>
	</g>
	<path fill="#161616" d="M241.461,316.782c1.887,0.702,21.666,47.105,21.666,47.105l9.854,52.273l-5.172-1.396L255.159,380.8
		v-14.813l-33.267-39.277L241.461,316.782z"/>
	<g>
		<g>
			<polygon fill="#434344" points="258.234,424.134 260.262,424.344 267.6,311.193 265.574,310.982 			"/>
			<polygon fill="#434344" points="331.549,424.134 329.592,424.344 322.253,311.193 324.209,310.982 			"/>
		</g>
		<rect x="250.289" y="307.204" fill="#434344" width="89.25" height="2.728"/>
		<rect x="258.466" y="309.945" fill="#434344" width="72.895" height="2.727"/>
		<g>
			<polygon fill="#434344" points="249.848,433.079 252.295,433.289 261.309,311.193 258.863,310.982 			"/>
			<polygon fill="#434344" points="339.936,433.079 337.488,433.289 328.474,311.193 330.919,310.982 			"/>
		</g>
	</g>
	<g>
		<g>
			<g>
				<path fill="#1B6B93" d="M200.436,425.95v1.957c0,2.796,9.853,5.032,22.015,5.032c12.162,0,22.016-2.235,22.016-5.032v-1.957
					c0-2.796-9.854-5.033-22.016-5.033C210.361,420.918,200.436,423.224,200.436,425.95z"/>
				<path fill="#1B6B93" d="M200.436,425.95c0-2.796,9.853-5.033,22.015-5.033c2.167,0,4.332,0.071,6.291,0.209l-9.714,9.716
					C208.543,430.563,200.436,428.467,200.436,425.95z"/>
				<path fill="#1B6B93" d="M244.535,425.95c0,2.794-9.854,5.035-22.014,5.035c-1.189,0-2.307,0-3.424-0.073l9.714-9.714
					C237.897,421.757,244.535,423.715,244.535,425.95z"/>
			</g>
			<rect x="221.584" y="326.799" fill="#1B6B93" width="2.308" height="97.635"/>
			<g>
				<path fill="#1B6B93" d="M202.952,392.611c0-4.403,9.925-6.708,19.709-6.708c9.785,0,19.708,2.304,19.708,6.708
					c0,4.406-9.924,6.713-19.708,6.713C212.877,399.324,202.952,397.017,202.952,392.611z M205.048,392.611
					c0,1.887,6.85,4.616,17.683,4.616c10.763,0,17.682-2.729,17.682-4.616c0-1.886-6.849-4.611-17.682-4.611
					C211.898,388,205.048,390.726,205.048,392.611z"/>
			</g>
			<g>
				<path fill="#1B6B93" d="M244.535,325.938v6.988c0,2.796-9.854,5.033-22.014,5.033c-12.161,0-22.015-2.234-22.015-5.033v-6.988
					H244.535z"/>
				<path fill="#1B6B93" d="M200.436,325.938c0,2.796,9.853,5.033,22.015,5.033c12.162,0,22.016-2.233,22.016-5.033
					c0-2.795-9.854-5.032-22.016-5.032C210.361,320.906,200.436,323.144,200.436,325.938z"/>
			</g>
		</g>
	</g>
	<path fill="#333333" d="M223.78,252.346c2.795,3.354,6.569,5.8,10.693,6.988c1.468,0.419,3.076,0.699,4.612,0.419
		c1.537-0.28,3.005-1.188,3.704-2.586c0.7-1.396,0.28-3.355-0.978-4.192c2.236-0.142,4.263-1.608,5.033-3.706
		c0.769-2.097,0.209-4.542-1.329-6.149c3.286,0.56,6.71-0.91,8.946-3.286c2.306-2.445,3.494-5.662,4.053-8.946
		c1.118-7.058-0.909-14.538-5.451-20.059c2.446-0.908,1.676-8.107-4.262-11.531c-4.404-2.587-9.785-3.215-14.887-3.006
		c-5.102,0.21-10.204,2.027-13.838,5.591c-5.313,5.312-6.571,13.628-4.962,20.967c0.559,2.377,1.188,5.102-0.419,6.918
		c-0.769,0.839-1.957,1.259-3.005,1.748c-1.049,0.491-2.098,1.329-2.307,2.517c-0.28,2.168,2.726,3.635,2.726,5.872
		c0,1.607-1.538,2.725-2.865,3.703c-1.328,0.979-2.586,2.585-1.887,4.053c0.559,1.188,2.027,1.468,3.214,1.817
		c1.188,0.348,2.587,1.398,2.307,2.585c-0.28,1.117-1.677,1.537-2.028,2.656c-0.418,1.259,0.839,2.517,2.167,2.657
		c1.328,0.071,2.517-0.629,3.634-1.258C218.818,254.861,221.613,253.602,223.78,252.346z"/>
	<path fill="#161616" d="M215.042,307.906c-5.24,0.351-10.692-4.332-14.327-3.424c-2.097,0.559-3.215,4.544-3.145,6.149
		c0.14,4.193,0.49,9.714,2.936,12.932c6.708,8.945,61.362,15.795,61.362,15.795l-11.532,13.559l-12.58,36.272l3.774,3.425
		l35.503-60.244C276.966,332.368,229.23,306.928,215.042,307.906z"/>
	<polygon fill="#C60000" points="243.557,400.721 240.972,393.731 236.639,389.677 230.977,392.753 245.935,408.828 
		246.422,406.592 	"/>
	<path fill="#4FC0D0" d="M239.225,247.313c-2.097-3.214-3.005-9.156-7.199-9.644c-9.995-1.189-15.516,8.596-16.493,16.844
		c-0.63,5.452-1.049,10.833-1.539,16.284c-0.28,3.283-0.071,8.036-1.677,11.041c-2.866,5.243-9.924,16.913-13.978,23.621
		c-1.327,2.238-1.957,4.756,0.7,4.964l35.364,2.309c0,0,0.909-14.397,0-22.367c-0.629-5.662,1.747-9.155,3.354-14.467
		c0.769-2.446,0.979-3.703,2.796-5.8c1.747-1.958,5.031-4.263,5.66-6.99C247.681,257.308,242.37,252.065,239.225,247.313z"/>
	<g>
		
			<linearGradient id="SVGID_7_" gradientUnits="userSpaceOnUse" x1="-1586.4399" y1="-1708.0518" x2="-1575.1533" y2="-1708.0518" gradientTransform="matrix(2.139 0 0 -2.139 3619.0576 -3426.1687)">
			<stop  offset="0" style="stop-color:#F4E6DB"/>
			<stop  offset="1" style="stop-color:#E8B7A9;stop-opacity:0.9697"/>
		</linearGradient>
		<path fill="url(#SVGID_7_)" d="M248.31,225.157c-1.257-1.047-1.396-2.934-1.118-4.473c0.35-1.608,1.049-3.076,1.258-4.683
			c0.21-1.606-0.209-3.494-1.607-4.263c0,0-9.785-1.817-12.021,4.963c-0.979,3.075-3.354,5.242-3.354,5.242
			c0.07-3.843-3.284-2.865-4.124-2.026c-0.838,0.838-0.978,2.235-0.418,3.284c0.559,1.047,1.677,1.816,2.864,1.676l-4.262,14.677
			c2.306,1.33,4.682,2.446,6.989,3.634c0.419-0.49,0.838-1.188,1.048-1.958c0.979-3.212,3.214-6.081,4.192-5.801
			c2.028,0.56,3.915,2.446,5.801,1.607c1.467-0.626,1.817-2.585,1.886-4.193c0.14-1.607,0.35-3.494,1.748-4.262
			c0.909-0.489,2.376-0.629,2.446-1.678C249.848,226.065,248.938,225.647,248.31,225.157z"/>
	</g>
	<path fill="#4FC0D0" d="M224.897,243.749c-0.979-0.071-2.097-0.21-2.796-0.908c-0.629-0.56-0.839-1.468-0.839-2.306
		s0.28-1.678,0.559-2.446c1.539-0.56,3.076-1.049,4.683-1.121c1.608-0.069,3.354,0.349,4.473,1.54
		c0.419,0.42,0.699,0.908,0.978,1.398c0.979,1.607,1.958,3.284,3.006,4.892C231.606,244.447,228.252,244.098,224.897,243.749z"/>
	<g>
		<g>
			
				<linearGradient id="SVGID_8_" gradientUnits="userSpaceOnUse" x1="-1565.6069" y1="-1740.3691" x2="-1560.9019" y2="-1740.3691" gradientTransform="matrix(2.139 0 0 -2.139 3619.0576 -3426.1687)">
				<stop  offset="0" style="stop-color:#F4E6DB"/>
				<stop  offset="1" style="stop-color:#E8B7A9;stop-opacity:0.9697"/>
			</linearGradient>
			<polygon fill="url(#SVGID_8_)" points="272.701,291.134 280.25,295.537 275.427,301.827 271.233,298.822 270.186,294.698 			"/>
			<g>
				<g>
					
						<linearGradient id="SVGID_9_" gradientUnits="userSpaceOnUse" x1="-1561.8447" y1="-1740.8076" x2="-1558.624" y2="-1740.8076" gradientTransform="matrix(2.139 0 0 -2.139 3619.0576 -3426.1687)">
						<stop  offset="0" style="stop-color:#F4E6DB"/>
						<stop  offset="1" style="stop-color:#E8B7A9;stop-opacity:0.9697"/>
					</linearGradient>
					<path fill="url(#SVGID_9_)" d="M278.782,296.235c2.167,0.489,3.915,1.679,5.171,3.495c0.56,0.765,1.607-0.21,1.048-0.979
						c-1.397-2.027-3.424-3.354-5.87-3.914C278.292,294.698,277.874,296.025,278.782,296.235L278.782,296.235z"/>
				</g>
			</g>
			<g>
				<g>
					
						<linearGradient id="SVGID_10_" gradientUnits="userSpaceOnUse" x1="-1562.4404" y1="-1741.9189" x2="-1558.7212" y2="-1741.9189" gradientTransform="matrix(2.139 0 0 -2.139 3619.0576 -3426.1687)">
						<stop  offset="0" style="stop-color:#F4E6DB"/>
						<stop  offset="1" style="stop-color:#E8B7A9;stop-opacity:0.9697"/>
					</linearGradient>
					<path fill="url(#SVGID_10_)" d="M277.455,298.263c2.586,0.629,4.683,2.025,6.291,4.196c0.559,0.766,1.608-0.211,1.048-0.979
						c-1.679-2.377-4.054-3.984-6.92-4.616C277.036,296.725,276.615,298.053,277.455,298.263L277.455,298.263z"/>
				</g>
			</g>
			<g>
				<g>
					
						<linearGradient id="SVGID_11_" gradientUnits="userSpaceOnUse" x1="-1563.5093" y1="-1742.54" x2="-1559.7897" y2="-1742.54" gradientTransform="matrix(2.139 0 0 -2.139 3619.0576 -3426.1687)">
						<stop  offset="0" style="stop-color:#F4E6DB"/>
						<stop  offset="1" style="stop-color:#E8B7A9;stop-opacity:0.9697"/>
					</linearGradient>
					<path fill="url(#SVGID_11_)" d="M275.217,299.591c2.587,0.63,4.683,2.026,6.291,4.193c0.56,0.77,1.607-0.21,1.049-0.978
						c-1.677-2.377-4.054-3.984-6.919-4.614C274.728,298.053,274.309,299.38,275.217,299.591L275.217,299.591z"/>
				</g>
			</g>
			<g>
				<g>
					
						<linearGradient id="SVGID_12_" gradientUnits="userSpaceOnUse" x1="-1564.77" y1="-1742.8662" x2="-1561.5332" y2="-1742.8662" gradientTransform="matrix(2.139 0 0 -2.139 3619.0576 -3426.1687)">
						<stop  offset="0" style="stop-color:#F4E6DB"/>
						<stop  offset="1" style="stop-color:#E8B7A9;stop-opacity:0.9697"/>
					</linearGradient>
					<path fill="url(#SVGID_12_)" d="M272.422,299.73c2.376,1.047,4.124,2.936,5.172,5.242c0.35,0.838,1.606,0.209,1.258-0.63
						c-1.188-2.726-3.284-4.753-6.01-6.01C272.072,297.982,271.653,299.312,272.422,299.73L272.422,299.73z"/>
				</g>
			</g>
		</g>
		
			<linearGradient id="SVGID_13_" gradientUnits="userSpaceOnUse" x1="-1589.7329" y1="-1728.7656" x2="-1564.4492" y2="-1728.7656" gradientTransform="matrix(2.139 0 0 -2.139 3619.0576 -3426.1687)">
			<stop  offset="0" style="stop-color:#F4E6DB"/>
			<stop  offset="1" style="stop-color:#E8B7A9;stop-opacity:0.9697"/>
		</linearGradient>
		<path fill="url(#SVGID_13_)" d="M272.701,291.134l-33.057-4.824l-7.548-32.428c-0.979-4.613-5.243-8.666-9.646-6.919l0,0
			c-3.842,1.538-4.542,6.429-3.213,10.273l11.671,39c0.419,1.607,39.488-0.911,39.488-0.911L272.701,291.134z"/>
	</g>
	<g>
		<path fill="#1B6B93" d="M285.352,305.531h33.757l5.033-20.688c0.489-1.887-0.979-3.704-2.936-3.704h-27.537
			c-1.397,0-2.585,0.978-2.935,2.307L285.352,305.531z"/>
		<path fill="#1B6B93" d="M325.119,282.326c0.489,0.703,0.699,1.609,0.489,2.518l-5.033,20.688h-18.66L325.119,282.326z"/>
		<path fill="#1B6B93" d="M271.444,305.531h29.144l-1.677,1.678h-29.145C269.766,306.23,270.536,305.531,271.444,305.531z"/>
		<path fill="#1B6B93" d="M320.575,305.531c0,0.908-0.767,1.678-1.677,1.678h-19.987l1.677-1.678H320.575z"/>
		<path fill="#1B6B93" d="M269.766,307.209h15.307c0.908,0,1.677-0.77,1.677-1.678h-15.305
			C270.536,305.531,269.766,306.23,269.766,307.209z"/>
		<g>
			<path fill="#1B6B93" d="M286.75,305.531l5.381-22.155c0.35-1.331,1.539-2.306,2.936-2.306h27.535c1.049,0,1.888,0.49,2.447,1.256
				l-23.134,23.206L286.75,305.531L286.75,305.531z"/>
			<path fill="#1B6B93" d="M309.743,294.278c-0.07,1.046-0.908,1.887-1.886,1.887c-0.979,0-1.678-0.838-1.608-1.887
				c0.071-1.051,0.91-1.888,1.887-1.888C309.114,292.391,309.812,293.229,309.743,294.278z"/>
		</g>
	</g>
	<g>
		<path fill="#60A9BE" d="M333.365,281.629v9.576c0,0.207,0.209,0.419,0.42,0.419c0.209,0,0.417-0.21,0.417-0.419v-4.821
			c0-0.841,0.631-1.469,1.47-1.469l0,0c0.839,0,1.467,0.629,1.467,1.469v4.891c0,1.814-1.467,3.212-3.214,3.212h-0.07
			c-0.209,0-0.419,0.209-0.419,0.418v4.264c0,0.211-0.211,0.419-0.419,0.419h-0.63v-19.43
			C332.945,280.441,333.365,281,333.365,281.629z"/>
		<path fill="#49818C" d="M328.124,284.983L328.124,284.983c0.84,0,1.468,0.63,1.468,1.468v6.986c0,0.21,0.21,0.42,0.419,0.42
			c0.208,0,0.419-0.21,0.419-0.42v-0.698v-1.049v-9.994c0-0.84,0.63-1.468,1.468-1.468l0,0c0.14,0,0.282,0,0.419,0.07v19.43h-1.468
			c-0.209,0-0.419-0.208-0.419-0.419v-2.098c0-0.211-0.209-0.418-0.419-0.418h-0.14c-1.748,0-3.214-1.396-3.214-3.214v-7.129
			C326.726,285.613,327.356,284.983,328.124,284.983z"/>
		<path fill="#2E5175" d="M325.258,302.945v-5.242h12.649v0.7l-8.804,8.804C326.936,306.998,325.258,305.182,325.258,302.945z"/>
		<path fill="#253055" d="M337.908,298.403v4.543c0,2.376-1.886,4.261-4.261,4.261h-4.124c-0.139,0-0.282,0-0.419,0L337.908,298.403
			z"/>
	</g>
	<polygon fill="#C60000" points="278.922,422.247 273.401,417.285 267.6,415.887 264.106,421.268 284.932,428.187 284.304,425.95 	
		"/>
</g>
<g>
	<path fill="#20C3C5" d="M593.563,341.209c-1.796,5.983-10.039,17.581-17.563,30.002c-8.229,13.551-15.583,28.072-12.705,37.291
		c0.715,2.317,1.04,4.012,1.04,5.233c0.026,4.012-3.298,2.765-6.655,0.485c-3.426-2.322-6.894-5.724-6.894-5.724l0.252-17.872
		c0,0-11.061-9.31-1.979-29.678c0.574-1.287,1.237-2.623,1.979-4.014c12.509-23.146,31.265-47.434,13.506-54.315
		C589.072,301.245,597.327,328.7,593.563,341.209z"/>
	<g opacity="0.53">
		<path d="M564.545,302.623c0,0,0.435,0.063,1.225,0.278c0.787,0.222,1.919,0.615,3.265,1.302c1.347,0.676,2.884,1.687,4.354,3.115
			c1.476,1.428,2.883,3.26,3.983,5.465c1.057,2.222,1.832,4.761,2.276,7.504c0.418,2.767-0.189,5.73-1.014,8.635
			c-1.746,5.838-4.592,11.756-7.514,17.6c-5.898,11.669-12.335,23.136-15.736,32.233c-0.826,2.272-1.549,4.369-1.974,6.267
			c-0.26,0.943-0.366,1.84-0.529,2.661c-0.064,0.826-0.211,1.588-0.188,2.27c-0.04,1.369,0.121,2.428,0.296,3.123
			c0.204,0.689,0.313,1.054,0.313,1.054l0.026,0.082c0.077,0.265-0.097,0.538-0.39,0.61c-0.287,0.077-0.585-0.085-0.667-0.351
			v-0.003c0,0-0.116-0.411-0.337-1.177c-0.188-0.771-0.346-1.924-0.285-3.365c-0.017-0.728,0.137-1.506,0.219-2.371
			c0.175-0.845,0.302-1.774,0.573-2.729c0.456-1.941,1.209-4.063,2.073-6.354c3.533-9.151,10.092-20.56,16.111-32.163
			c2.979-5.808,5.877-11.686,7.672-17.474c0.853-2.893,1.479-5.774,1.098-8.52c-0.411-2.729-1.155-5.256-2.179-7.472
			c-1.071-2.196-2.45-4.031-3.9-5.463c-1.446-1.437-2.972-2.454-4.305-3.142c-1.333-0.693-2.464-1.1-3.247-1.328
			C564.981,302.69,564.545,302.623,564.545,302.623z"/>
	</g>
	<path fill="#169799" d="M582.307,377.333c-7.496,18.108,0,31.839-11.258,33.799c-5.154,0.894-7.426-2.602-8.371-6.663
		c-1.121-4.813-0.376-10.406-0.376-10.406s1.906-4.476,5.923-8.817C571.495,381.705,576.141,378.258,582.307,377.333z"/>
	<path fill="#B8E3E2" d="M556.167,399.773c-0.043,4.218-1.081,7.789-3.218,9.667c-0.212,0.193-0.424,0.361-0.615,0.503
		c-5.323,3.948-8.719-3.278-8.719-3.278s-14.152-6.395-21.17-19.367c-5.376-9.965-6.572-23.828,6.076-41.653
		c1.854,12.692,9.449,21.337,16.977,29.539c0,0.014,0,0.014,0,0.014c0.938,1.026,1.864,2.027,2.793,3.041
		C553.499,383.97,556.234,392.766,556.167,399.773z"/>
	<g opacity="0.53">
		<path d="M528.517,345.647c0,0-0.265,1.019-0.563,2.83c-0.292,1.804-0.619,4.405-0.682,7.534c-0.02,0.783-0.03,1.6,0.008,2.442
			c0.007,0.844,0.06,1.715,0.142,2.609c0.127,1.786,0.417,3.66,0.818,5.573c0.202,0.959,0.503,1.915,0.752,2.891
			c0.351,0.948,0.645,1.934,1.055,2.877c0.818,1.891,1.792,3.8,3.014,5.541c1.148,1.779,2.549,3.433,3.93,5.034
			c1.428,1.581,2.877,3.096,4.312,4.557c1.429,1.455,2.798,2.882,4.05,4.283c0.622,0.698,1.188,1.416,1.753,2.097
			c0.507,0.72,1.045,1.388,1.473,2.081c0.874,1.377,1.53,2.728,1.965,3.973c0.188,0.635,0.38,1.224,0.521,1.776
			c0.08,0.562,0.151,1.078,0.219,1.546c0.092,0.469,0.094,0.89,0.077,1.252c-0.007,0.364-0.012,0.679-0.017,0.93
			c-0.007,0.507-0.012,0.775-0.012,0.775c-0.005,0.278-0.253,0.497-0.555,0.492c-0.301-0.005-0.541-0.23-0.536-0.507
			c0-0.002,0-0.002,0-0.007v-0.07c0,0,0.01-0.254,0.023-0.728c0.005-0.237,0.015-0.533,0.029-0.874
			c0.022-0.349,0.026-0.742-0.053-1.18c-0.054-0.441-0.115-0.929-0.178-1.46c-0.13-0.519-0.303-1.076-0.466-1.677
			c-0.39-1.184-0.997-2.48-1.818-3.821c-0.401-0.678-0.916-1.335-1.391-2.041c-0.543-0.673-1.085-1.379-1.691-2.08
			c-1.211-1.398-2.548-2.832-3.956-4.31c-1.404-1.474-2.846-3.023-4.253-4.635c-1.372-1.642-2.753-3.319-3.9-5.154
			c-1.211-1.795-2.148-3.707-2.955-5.647c-0.398-0.968-0.682-1.962-1.018-2.93c-0.236-0.99-0.524-1.958-0.711-2.926
			c-0.37-1.938-0.635-3.827-0.732-5.62c-0.068-0.898-0.104-1.775-0.104-2.624c-0.022-0.845,0.005-1.664,0.033-2.447
			c0.118-3.139,0.485-5.735,0.813-7.538C528.233,346.661,528.517,345.647,528.517,345.647z"/>
	</g>
	<g opacity="0.25">
		<path d="M582.313,377.333c0,0-1.638,1.69-3.896,4.372c-1.115,1.35-2.409,2.933-3.701,4.679c-0.661,0.869-1.314,1.783-1.965,2.721
			c-0.67,0.925-1.275,1.907-1.914,2.867c-0.629,0.969-1.191,1.968-1.782,2.933c-0.533,0.993-1.057,1.968-1.566,2.914
			c-0.452,0.968-0.908,1.895-1.297,2.786c-0.355,0.906-0.692,1.761-0.999,2.551c-0.245,0.807-0.466,1.547-0.665,2.2
			c-0.227,0.65-0.281,1.241-0.395,1.715c-0.189,0.954-0.298,1.501-0.298,1.501l-0.012,0.051c-0.054,0.271-0.336,0.449-0.634,0.404
			c-0.298-0.052-0.495-0.313-0.44-0.585c0-0.005,0.003-0.009,0.003-0.014c0,0,0.129-0.56,0.355-1.545
			c0.13-0.487,0.209-1.1,0.461-1.76c0.224-0.668,0.476-1.418,0.75-2.239c0.341-0.793,0.708-1.657,1.098-2.572
			c0.42-0.894,0.917-1.82,1.397-2.791c0.54-0.941,1.103-1.912,1.674-2.901c0.622-0.959,1.221-1.953,1.884-2.909
			c0.67-0.95,1.309-1.918,2.01-2.831c0.68-0.925,1.362-1.826,2.052-2.676c1.35-1.72,2.697-3.271,3.85-4.595
			C580.623,378.982,582.313,377.333,582.313,377.333z"/>
	</g>
	<path fill="#B8E3E2" d="M577.76,408.953l-4.804,27.004c-0.24,1.134-1.318,1.958-2.584,1.958h-29.918
		c-1.264,0-2.345-0.824-2.585-1.958l-3.902-21.924l-0.896-5.08c-0.298-1.477,0.941-2.841,2.584-2.841h39.518
		C576.816,406.112,578.053,407.477,577.76,408.953z"/>
	<path fill="#86BFBC" d="M582.307,414.459h-53.785l1.422-7.357c0.308-1.545,1.768-2.674,3.479-2.674h43.997
		c1.7,0,3.175,1.129,3.468,2.674L582.307,414.459z"/>
	<path opacity="0.25" enable-background="new    " d="M562.302,394.063c0,0-0.745,5.569,0.362,10.368h-7.035
		c0.336-1.399,0.505-2.982,0.533-4.657c0.072-7.008-2.666-15.804-7.873-21.533c-0.927-1.013-1.854-2.015-2.794-3.04c0,0,0,0,0-0.015
		c0.108-3.95,1.093-8.68,3.563-14.235c0.408,6.494,2.151,17.786,9.223,18.981c5.379,0.898,12.382-3.987,17.719-8.719
		c-2.822,4.641-5.531,9.4-7.779,14.032C564.208,389.587,562.302,394.063,562.302,394.063z"/>
	<path opacity="0.25" enable-background="new    " d="M558.314,437.915h-17.86c-1.264,0-2.345-0.824-2.585-1.958l-3.832-21.496
		h15.431c-0.381,3.008-0.845,8.625,0.322,12.984C550.705,430.904,554.02,435.354,558.314,437.915z"/>
</g>
<g>
	<g opacity="0.7">
		<path fill="#169799" d="M195.672,396.67c0,0,10.745-8.458,16.454-29.607c-32.908,24.097-40.965,45.557-40.965,45.557
			L195.672,396.67z"/>
		<g opacity="0.25">
			<path d="M212.126,367.063c0,0-1.697,2.134-4.244,5.333c-1.261,1.606-2.737,3.479-4.286,5.503
				c-1.566,2.017-3.209,4.182-4.826,6.361c-0.807,1.091-1.644,2.165-2.414,3.253c-0.778,1.083-1.544,2.149-2.284,3.181
				c-0.742,1.031-1.467,2.024-2.097,2.997c-0.646,0.964-1.256,1.877-1.819,2.719c-0.566,0.84-1.089,1.608-1.48,2.328
				c-0.409,0.709-0.768,1.328-1.064,1.837c-0.591,1.019-0.928,1.601-0.928,1.601c-0.091,0.156-0.018,0.348,0.165,0.425
				c0.18,0.08,0.401,0.016,0.492-0.142c0-0.001,0-0.001,0-0.003l0.02-0.033c0,0,0.322-0.579,0.889-1.594
				c0.281-0.506,0.626-1.123,1.019-1.828c0.372-0.717,0.878-1.49,1.429-2.335c0.547-0.847,1.14-1.761,1.764-2.73
				c0.612-0.979,1.317-1.979,2.04-3.017c0.721-1.04,1.467-2.115,2.224-3.209c0.749-1.096,1.567-2.18,2.354-3.28
				c1.578-2.199,3.181-4.386,4.711-6.42c1.51-2.047,2.954-3.937,4.187-5.56C210.467,369.218,212.126,367.063,212.126,367.063z"/>
		</g>
		<path fill="#20C3C5" d="M171.83,408.56c5.915-4.605,14.678-9.17,23.015-14.085c11.088-6.534,21.423-13.71,23.335-22.475
			c4.354,31.629-38.237,45.869-38.237,45.869l-0.085,0.107l-15.468,19.487C164.387,437.462,158.065,419.292,171.83,408.56z"/>
		<g opacity="0.25">
			<path d="M218.179,372c0,0,0.019,0.33-0.024,0.947c-0.047,0.615-0.131,1.522-0.389,2.654c-0.244,1.133-0.632,2.499-1.279,4.002
				c-0.292,0.762-0.711,1.536-1.125,2.363c-0.225,0.405-0.482,0.812-0.729,1.231c-0.24,0.427-0.522,0.844-0.829,1.261
				c-1.139,1.713-2.672,3.406-4.424,5.081c-0.457,0.404-0.919,0.816-1.386,1.232c-0.46,0.423-1,0.783-1.506,1.185
				c-1.015,0.794-2.11,1.563-3.267,2.286c-4.607,2.92-9.9,5.569-14.937,8.562c-5.05,2.965-9.872,6.294-13.67,10.037
				c-1.902,1.862-3.546,3.814-4.897,5.774c-1.342,1.969-2.365,3.946-3.163,5.815c-0.186,0.471-0.368,0.934-0.545,1.385
				c-0.174,0.452-0.296,0.907-0.442,1.343c-0.302,0.871-0.484,1.719-0.678,2.51c-0.352,1.591-0.569,2.991-0.665,4.149
				c-0.145,1.156-0.143,2.07-0.168,2.693c-0.022,0.622-0.033,0.953-0.033,0.953c-0.006,0.176,0.153,0.32,0.356,0.325
				c0.202,0.006,0.371-0.132,0.377-0.306v-0.003v-0.018c0,0,0.008-0.327,0.024-0.94c0.021-0.613,0.01-1.515,0.144-2.656
				c0.084-1.143,0.285-2.523,0.618-4.091c0.184-0.78,0.356-1.616,0.647-2.475c0.139-0.431,0.254-0.88,0.423-1.325
				c0.171-0.445,0.348-0.901,0.526-1.367c0.769-1.845,1.759-3.8,3.065-5.748c1.316-1.942,2.922-3.881,4.789-5.737
				c3.728-3.728,8.489-7.07,13.5-10.061c5-3.015,10.269-5.696,14.871-8.66c1.157-0.733,2.242-1.507,3.259-2.316
				c0.504-0.406,1.043-0.771,1.501-1.2c0.468-0.421,0.928-0.837,1.382-1.247c1.746-1.692,3.269-3.404,4.4-5.131
				c0.304-0.421,0.583-0.841,0.819-1.269c0.245-0.426,0.5-0.832,0.721-1.24c0.408-0.832,0.822-1.61,1.108-2.377
				c0.635-1.511,1.011-2.882,1.245-4.016c0.25-1.135,0.325-2.042,0.368-2.659C218.201,372.33,218.179,372,218.179,372z"/>
		</g>
	</g>
	<g opacity="0.7">
		<path fill="#169799" d="M126.308,351.595c2.76,6.916,6.058,12.954,9.505,18.404c11.917,18.805,25.755,30.767,26.272,48.301
			c0,0,4.296-16.519,0.848-35.337c-1.93-10.57-6.301-21.863-15.245-31.368c-24.878-26.428-21.192-50.464-21.192-50.464
			S114.023,320.845,126.308,351.595z"/>
		<g opacity="0.25">
			<path d="M155.52,397.71c0,0.001,0.021-0.092,0.051-0.294c0.034-0.202,0.07-0.494,0.104-0.869
				c0.067-0.758,0.123-1.865,0.041-3.271c-0.047-1.405-0.287-3.103-0.65-5.031c-0.445-1.914-0.983-4.075-1.878-6.351
				c-0.823-2.295-1.981-4.698-3.29-7.204c-0.718-1.226-1.429-2.498-2.224-3.765c-0.849-1.24-1.637-2.55-2.586-3.804
				c-1.854-2.539-3.907-5.05-5.618-7.791c-1.737-2.734-3.276-5.62-4.644-8.565c-2.734-5.895-4.806-12.014-6.316-17.827
				c-1.512-5.813-2.483-11.326-2.995-16.073c-0.501-4.748-0.554-8.739-0.204-11.507c0.179-1.381,0.407-2.462,0.691-3.166
				c0.108-0.362,0.266-0.616,0.354-0.794c0.091-0.176,0.137-0.267,0.137-0.267s-0.049,0.091-0.14,0.266
				c-0.091,0.178-0.25,0.429-0.365,0.79c-0.297,0.702-0.542,1.783-0.741,3.165c-0.392,2.769-0.397,6.768,0.033,11.529
				c0.456,4.763,1.381,10.291,2.837,16.134c1.457,5.839,3.474,11.99,6.163,17.938c1.347,2.971,2.867,5.886,4.591,8.659
				c1.707,2.791,3.751,5.345,5.584,7.851c0.937,1.246,1.712,2.547,2.555,3.778c0.786,1.257,1.487,2.519,2.196,3.732
				c1.288,2.482,2.43,4.862,3.234,7.131c0.88,2.25,1.402,4.381,1.838,6.267c0.362,1.896,0.616,3.563,0.67,4.939
				c0.09,1.378,0.042,2.461-0.019,3.19c-0.03,0.369-0.063,0.644-0.093,0.824c-0.022,0.18-0.048,0.284-0.048,0.284
				c-0.04,0.171,0.09,0.338,0.287,0.371c0.197,0.034,0.388-0.075,0.43-0.243L155.52,397.71z"/>
		</g>
		<path opacity="0.25" enable-background="new    " d="M135.814,369.999c11.917,18.805,25.756,30.767,26.273,48.301
			c0,0,4.296-16.519,0.847-35.337C155.21,380.237,144.349,375.795,135.814,369.999z"/>
		<path fill="#20C3C5" d="M155.18,436.863c0,0,8.702-12.853-11.894-28.709c-20.592-15.858-36.713-36.832-33.579-53.801
			c19.698,19.767,72.083,47.798,57.308,82.508L155.18,436.863z"/>
		<g opacity="0.25">
			<path d="M109.708,354.354c0,0,0.046,0.088,0.131,0.259c0.087,0.173,0.219,0.423,0.412,0.744c0.187,0.323,0.421,0.722,0.691,1.188
				c0.3,0.455,0.645,0.98,1.031,1.565c0.731,1.192,1.833,2.53,3.006,4.11c0.59,0.79,1.328,1.563,2.044,2.414
				c0.366,0.422,0.742,0.854,1.125,1.297c0.38,0.444,0.771,0.901,1.22,1.329c0.872,0.878,1.779,1.791,2.721,2.736
				c0.473,0.47,0.94,0.962,1.442,1.436c0.525,0.457,1.059,0.92,1.596,1.393c1.081,0.942,2.188,1.91,3.323,2.897
				c0.55,0.51,1.172,0.963,1.793,1.43c0.619,0.467,1.246,0.938,1.876,1.41c1.262,0.951,2.546,1.916,3.845,2.893
				c0.657,0.479,1.319,0.958,1.983,1.442c0.642,0.504,1.287,1.013,1.932,1.521c2.542,2.081,4.939,4.366,7.141,6.781
				c4.406,4.829,8.022,10.183,10.624,15.483c2.611,5.299,4.184,10.551,4.746,15.119c0.285,2.283,0.322,4.393,0.191,6.249
				c-0.043,0.929-0.192,1.791-0.297,2.591c-0.176,0.789-0.281,1.524-0.489,2.166c-0.175,0.649-0.347,1.225-0.543,1.713
				c-0.176,0.493-0.327,0.913-0.493,1.241c-0.304,0.66-0.465,1.015-0.465,1.015l-0.013,0.021c-0.074,0.162,0.02,0.346,0.207,0.41
				c0.188,0.063,0.401-0.016,0.476-0.178l0-0.002c0,0,0.165-0.364,0.47-1.049c0.168-0.338,0.318-0.768,0.499-1.274
				c0.198-0.504,0.369-1.094,0.542-1.76c0.208-0.659,0.312-1.409,0.485-2.217c0.101-0.817,0.246-1.695,0.283-2.643
				c0.12-1.891,0.063-4.031-0.243-6.342c-0.605-4.622-2.231-9.909-4.901-15.229c-2.657-5.321-6.334-10.683-10.797-15.51
				c-2.229-2.414-4.654-4.695-7.226-6.771c-0.652-0.509-1.306-1.017-1.955-1.521c-0.669-0.48-1.335-0.96-1.998-1.436
				c-1.303-0.967-2.591-1.924-3.857-2.863c-0.634-0.47-1.262-0.938-1.884-1.399c-0.624-0.461-1.25-0.911-1.803-1.417
				c-1.139-0.98-2.253-1.94-3.338-2.874c-0.542-0.468-1.078-0.927-1.604-1.381c-0.506-0.47-0.975-0.958-1.452-1.425
				c-0.946-0.938-1.86-1.847-2.738-2.717c-0.452-0.427-0.846-0.879-1.229-1.321c-0.387-0.44-0.766-0.87-1.133-1.289
				c-0.724-0.848-1.468-1.615-2.063-2.401c-1.183-1.572-2.294-2.902-3.036-4.091c-0.391-0.584-0.739-1.104-1.042-1.558
				c-0.276-0.467-0.508-0.863-0.7-1.184c-0.194-0.32-0.33-0.57-0.416-0.742C109.754,354.441,109.708,354.354,109.708,354.354z"/>
		</g>
	</g>
</g>
</svg>
