<?xml version="1.0" encoding="utf-8"?>
<!-- Generator: Adobe Illustrator 16.0.0, SVG Export Plug-In . SVG Version: 6.00 Build 0)  -->
<!DOCTYPE svg PUBLIC "-//W3C//DTD SVG 1.1//EN" "http://www.w3.org/Graphics/SVG/1.1/DTD/svg11.dtd">
<svg version="1.1" id="Layer_1" xmlns="http://www.w3.org/2000/svg" xmlns:xlink="http://www.w3.org/1999/xlink" x="0px" y="0px"
	 width="750px" height="500px" viewBox="0 0 750 500" enable-background="new 0 0 750 500" xml:space="preserve">
<path opacity="0.4" fill="#F4F4F4" enable-background="new    " d="M593.724,241.484c-29.353,43.943-91.986,179.857-76.582,230.297
	l-224.708,0.054c0,0-32.47-24.177-64.015-66.209c-5.73-7.637-11.434-15.87-16.898-24.648c-5.806-9.306-11.341-19.226-16.374-29.723
	c-14.623-30.441-25.06-65.722-25.48-104.716C168.194,111.553,285.025-13.902,443.961,36.722
	C602.893,87.347,623.066,197.54,593.724,241.484z"/>
<path fill="#263238" d="M352.438,408.074c-0.098,0.099-0.816-0.633-1.969-0.962c-1.154-0.331-2.138-0.147-2.18-0.289
	c-0.028-0.142,1.013-0.584,2.322-0.184C351.918,407.041,352.559,408.02,352.438,408.074z"/>
<g>
	<g id="freepik--background-complete--inject-2">
		<path fill="#4FC0D0" d="M162.153,117.813c-0.116,0-0.225-11.29-0.225-25.213c0-13.928,0.109-25.214,0.225-25.214
			c0.125,0,0.223,11.287,0.223,25.214C162.376,106.522,162.288,117.813,162.153,117.813z"/>
		<path fill="#4FC0D0" d="M219.628,115.469c0,0.131-13.394,0.229-29.906,0.229c-16.514,0-29.909-0.098-29.909-0.229
			c0-0.134,13.384-0.229,29.909-0.229C206.244,115.24,219.628,115.316,219.628,115.469z"/>
		<path fill="#4FC0D0" d="M220.803,113.124c-0.136,0-0.243-9.696-0.243-21.698c0-12.006,0.107-21.696,0.243-21.696
			c0.134,0,0.233,9.69,0.233,21.696C221.036,103.428,220.902,113.124,220.803,113.124z"/>
		<path fill="#4FC0D0" d="M210.25,68.554c0,0.126-10.506,0.229-23.471,0.229c-12.945,0-23.453-0.103-23.453-0.229
			c0-0.121,10.508-0.229,23.453-0.229C199.745,68.325,210.25,68.434,210.25,68.554z"/>
		<path fill="#4FC0D0" d="M219.145,67.841c0.072,0.099-12.677,10.772-28.49,23.84c-15.835,13.07-28.707,23.573-28.798,23.479
			c-0.098-0.099,12.677-10.773,28.491-23.798C206.162,78.341,219.073,67.725,219.145,67.841z"/>
		<path fill="#4FC0D0" d="M221.099,111.838c-0.081,0.103-13.224-9.131-29.281-20.615c-16.055-11.484-29.083-20.854-29.011-20.993
			c0.072-0.144,13.142,9.132,29.281,20.621C208.208,102.344,221.17,111.739,221.099,111.838z"/>
		<path fill="#4FC0D0" d="M377.775,147.116c-0.128,0-0.234-11.29-0.234-25.215c0-13.922,0.106-25.213,0.234-25.213
			c0.124,0,0.23,11.292,0.23,25.213C378.006,135.824,377.871,147.116,377.775,147.116z"/>
		<path fill="#4FC0D0" d="M435.223,144.772c0,0.13-13.395,0.23-29.918,0.23c-16.51,0-29.916-0.1-29.916-0.23
			c0-0.134,13.394-0.228,29.916-0.228C421.828,144.544,435.223,144.646,435.223,144.772z"/>
		<path fill="#4FC0D0" d="M436.39,142.428c-0.127,0-0.224-9.696-0.224-21.701c0-12,0.097-21.695,0.224-21.695
			c0.133,0,0.23,9.695,0.23,21.695C436.62,132.732,436.513,142.428,436.39,142.428z"/>
		<path fill="#4FC0D0" d="M425.827,97.862c0,0.122-10.496,0.229-23.453,0.229c-12.955,0-23.454-0.107-23.454-0.229
			c0-0.126,10.499-0.233,23.454-0.233C415.331,97.629,425.827,97.691,425.827,97.862z"/>
		<path fill="#4FC0D0" d="M188.501,423.1c-0.125,0-0.232-11.287-0.232-25.219c0-13.924,0.107-25.22,0.232-25.22
			c0.116,0,0.223,11.286,0.223,25.22C188.724,411.813,188.618,423.1,188.501,423.1z"/>
		<path fill="#4FC0D0" d="M272.559,420.758c0,0.119-19.579,0.228-43.74,0.228s-43.75-0.108-43.75-0.228
			c0-0.124,19.589-0.23,43.75-0.23S272.559,420.617,272.559,420.758z"/>
		<path fill="#4FC0D0" d="M274.28,418.401c-0.125,0-0.224-9.691-0.224-21.703c0-11.996,0.098-21.696,0.224-21.696
			c0.135,0,0.233,9.701,0.233,21.696C274.513,408.71,274.405,418.401,274.28,418.401z"/>
		<path fill="#4FC0D0" d="M258.842,373.836c0,0.127-15.367,0.225-34.318,0.225c-18.952,0-34.31-0.098-34.31-0.225
			c0-0.133,15.358-0.232,34.31-0.232C243.475,373.604,258.842,373.709,258.842,373.836z"/>
		<path fill="#4FC0D0" d="M487.688,413.615c0-0.243,0.743-0.434,1.668-0.434l-0.432,0.434l0,0v-0.154c0-0.054,0-0.107,0-0.16
			c0-0.063,0-0.188,0-0.303c0.009-0.189,0.036-0.371,0.08-0.541c0.082-0.305,0.189-0.483,0.313-0.483
			c0.109,0,0.224,0.178,0.305,0.483c0,0.154,0.072,0.323,0.091,0.541c0.036,0.194,0,0.223,0,0.303v0.314l0,0
			c-0.187,0.188,0.449-0.434-0.431,0.438C488.431,414.08,487.688,413.856,487.688,413.615z"/>
		<path fill="#4FC0D0" d="M480.996,413.615c0-0.243,0.748-0.434,1.672-0.434c0.932,0,1.676,0.19,1.676,0.434
			c0,0.241-0.744,0.438-1.676,0.438C481.744,414.054,480.996,413.856,480.996,413.615z"/>
		<path fill="#4FC0D0" d="M474.309,413.615c0-0.243,0.756-0.434,1.681-0.434c0.922,0,1.667,0.19,1.667,0.434
			c0,0.241-0.745,0.438-1.667,0.438C475.064,414.054,474.309,413.856,474.309,413.615z"/>
		<path fill="#4FC0D0" d="M467.666,413.615c0-0.243,0.747-0.434,1.68-0.434c0.923,0,1.665,0.19,1.665,0.434
			c0,0.241-0.752,0.438-1.665,0.438C468.43,414.054,467.666,413.856,467.666,413.615z"/>
		<path fill="#4FC0D0" d="M460.952,413.615c0-0.243,0.752-0.434,1.678-0.434c0.924,0,1.657,0.19,1.657,0.434
			c0,0.241-0.744,0.438-1.657,0.438C461.704,414.054,460.952,413.856,460.952,413.615z"/>
		<path fill="#4FC0D0" d="M454.273,413.615c0-0.243,0.745-0.434,1.669-0.434c0.914,0,1.673,0.19,1.673,0.434
			c0,0.241-0.749,0.438-1.673,0.438S454.273,413.856,454.273,413.615z"/>
		<path fill="#4FC0D0" d="M447.595,413.615c0-0.243,0.752-0.434,1.666-0.434s1.668,0.19,1.668,0.434
			c0,0.241-0.741,0.438-1.668,0.438C448.328,414.054,447.595,413.856,447.595,413.615z"/>
		<path fill="#4FC0D0" d="M440.905,413.615c0-0.243,0.746-0.434,1.67-0.434c0.934,0,1.678,0.19,1.678,0.434
			c0,0.241-0.744,0.438-1.678,0.438C441.649,414.054,440.905,413.856,440.905,413.615z"/>
		<path fill="#4FC0D0" d="M434.219,413.615c0-0.243,0.752-0.434,1.684-0.434c0.915,0,1.661,0.19,1.661,0.434
			c0,0.241-0.746,0.438-1.661,0.438C434.971,414.054,434.219,413.856,434.219,413.615z"/>
		<path fill="#4FC0D0" d="M427.546,413.615c0-0.243,0.748-0.434,1.67-0.434c0.933,0,1.666,0.19,1.666,0.434
			c0,0.241-0.753,0.438-1.666,0.438C428.301,414.054,427.546,413.856,427.546,413.615z"/>
		<path fill="#4FC0D0" d="M420.861,413.615c0-0.243,0.753-0.434,1.666-0.434c0.914,0,1.678,0.19,1.678,0.434
			c0,0.241-0.753,0.438-1.678,0.438C421.604,414.054,420.861,413.856,420.861,413.615z"/>
		<path fill="#4FC0D0" d="M414.183,413.615c0-0.243,0.742-0.434,1.666-0.434c0.914,0,1.677,0.19,1.677,0.434
			c0,0.241-0.753,0.438-1.677,0.438S414.183,413.856,414.183,413.615z"/>
		<path fill="#4FC0D0" d="M407.504,413.615c0-0.243,0.733-0.434,1.666-0.434c0.924,0,1.669,0.19,1.669,0.434
			c0,0.241-0.745,0.438-1.669,0.438C408.237,414.054,407.504,413.856,407.504,413.615z"/>
		<path fill="#4FC0D0" d="M400.815,413.615c0-0.243,0.751-0.434,1.667-0.434c0.932,0,1.686,0.19,1.686,0.434
			c0,0.241-0.754,0.438-1.686,0.438C401.564,414.054,400.815,413.856,400.815,413.615z"/>
		<path fill="#4FC0D0" d="M394.128,413.615c0-0.243,0.752-0.434,1.684-0.434c0.913,0,1.66,0.19,1.66,0.434
			c0,0.241-0.747,0.438-1.66,0.438C394.88,414.054,394.128,413.856,394.128,413.615z"/>
		<path fill="#4FC0D0" d="M389.123,411.957c0.243,0,0.43,0.742,0.43,1.658l-0.43-0.434h0.341h0.306
			c0.18,0.02,0.359,0.048,0.537,0.093c0.306,0.079,0.486,0.187,0.486,0.304c0,0.119-0.181,0.225-0.486,0.313
			c-0.178,0.038-0.357,0.073-0.537,0.091h-0.306h-0.341l-0.438-0.439C388.686,412.699,388.883,411.957,389.123,411.957z"/>
		<path fill="#4FC0D0" d="M389.123,405.268c0.243,0,0.43,0.754,0.43,1.669c0,0.914-0.187,1.656-0.43,1.656
			c-0.23,0-0.438-0.742-0.438-1.656C388.686,406.021,388.883,405.268,389.123,405.268z"/>
		<path fill="#4FC0D0" d="M389.123,398.669c0.243,0,0.43,0.735,0.43,1.651c0,0.923-0.187,1.667-0.43,1.667
			c-0.23,0-0.438-0.744-0.438-1.667C388.686,399.404,388.883,398.669,389.123,398.669z"/>
		<path fill="#4FC0D0" d="M389.123,392.053c0.243,0,0.43,0.745,0.43,1.668c0,0.915-0.187,1.647-0.43,1.647
			c-0.23,0-0.438-0.732-0.438-1.647C388.686,392.798,388.883,392.053,389.123,392.053z"/>
		<path fill="#4FC0D0" d="M389.123,385.383c0.243,0,0.43,0.745,0.43,1.658c0,0.923-0.187,1.669-0.43,1.669
			c-0.23,0-0.438-0.746-0.438-1.669C388.686,386.128,388.883,385.383,389.123,385.383z"/>
		<path fill="#4FC0D0" d="M389.123,378.74c0.243,0,0.43,0.752,0.43,1.67c0,0.912-0.187,1.654-0.43,1.654
			c-0.23,0-0.438-0.742-0.438-1.654C388.686,379.492,388.883,378.74,389.123,378.74z"/>
		<path fill="#4FC0D0" d="M389.123,372.104c0.243,0,0.43,0.746,0.43,1.66c0,0.912-0.187,1.667-0.43,1.667
			c-0.23,0-0.438-0.755-0.438-1.667C388.686,372.851,388.883,372.104,389.123,372.104z"/>
		<path fill="#4FC0D0" d="M389.123,365.462c0.243,0,0.43,0.753,0.43,1.669c0,0.914-0.187,1.65-0.43,1.65
			c-0.23,0-0.438-0.736-0.438-1.65C388.686,366.215,388.883,365.462,389.123,365.462z"/>
		<path fill="#4FC0D0" d="M389.123,358.828c0.243,0,0.43,0.733,0.43,1.649c0,0.913-0.187,1.666-0.43,1.666
			c-0.23,0-0.438-0.753-0.438-1.666C388.686,359.562,388.883,358.828,389.123,358.828z"/>
		<path fill="#4FC0D0" d="M390.793,353.837c0,0.241-0.756,0.438-1.67,0.438l0.43-0.438l0,0v0.313c0,0.089,0,0.196,0,0.322
			c-0.017,0.18-0.035,0.358-0.089,0.531c-0.074,0.293-0.189,0.483-0.303,0.483c-0.108,0-0.232-0.19-0.308-0.483
			c-0.041-0.174-0.08-0.352-0.098-0.531c0-0.126,0-0.233,0-0.322v-0.313l0,0l0.44-0.441
			C390.037,353.396,390.793,353.592,390.793,353.837z"/>
		<path fill="#4FC0D0" d="M397.472,353.837c0,0.241-0.747,0.438-1.66,0.438c-0.922,0-1.684-0.196-1.684-0.438
			c0-0.245,0.752-0.441,1.684-0.441C396.725,353.396,397.472,353.592,397.472,353.837z"/>
		<path fill="#4FC0D0" d="M404.168,353.837c0,0.241-0.754,0.438-1.689,0.438c-0.914,0-1.663-0.196-1.663-0.438
			c0-0.245,0.749-0.441,1.663-0.441C403.414,353.396,404.168,353.592,404.168,353.837z"/>
		<path fill="#4FC0D0" d="M410.839,353.837c0,0.241-0.745,0.438-1.669,0.438c-0.933,0-1.666-0.196-1.666-0.438
			c0-0.245,0.733-0.441,1.666-0.441C410.094,353.396,410.839,353.592,410.839,353.837z"/>
		<path fill="#4FC0D0" d="M417.525,353.837c0,0.241-0.753,0.438-1.677,0.438s-1.666-0.196-1.666-0.438
			c0-0.245,0.742-0.441,1.666-0.441C416.763,353.396,417.525,353.592,417.525,353.837z"/>
		<path fill="#4FC0D0" d="M424.205,353.837c0,0.241-0.755,0.438-1.667,0.438c-0.916,0-1.677-0.196-1.677-0.438
			c0-0.245,0.752-0.441,1.677-0.441C423.46,353.396,424.205,353.592,424.205,353.837z"/>
		<path fill="#4FC0D0" d="M430.882,353.837c0,0.241-0.753,0.438-1.666,0.438c-0.915,0-1.67-0.196-1.67-0.438
			c0-0.245,0.748-0.441,1.67-0.441C430.148,353.396,430.882,353.592,430.882,353.837z"/>
		<path fill="#4FC0D0" d="M437.563,353.837c0,0.241-0.746,0.438-1.661,0.438c-0.932,0-1.684-0.196-1.684-0.438
			c0-0.245,0.752-0.441,1.684-0.441C436.817,353.396,437.563,353.592,437.563,353.837z"/>
		<path fill="#4FC0D0" d="M444.251,353.837c0,0.241-0.746,0.438-1.678,0.438c-0.924,0-1.668-0.196-1.668-0.438
			c0-0.245,0.744-0.441,1.668-0.441C443.509,353.396,444.251,353.592,444.251,353.837z"/>
		<path fill="#4FC0D0" d="M450.929,353.837c0,0.241-0.754,0.438-1.685,0.438c-0.916,0-1.658-0.196-1.658-0.438
			c0-0.245,0.742-0.441,1.658-0.441C450.178,353.396,450.929,353.592,450.929,353.837z"/>
		<path fill="#4FC0D0" d="M457.615,353.837c0,0.241-0.749,0.438-1.673,0.438s-1.669-0.196-1.669-0.438
			c0-0.245,0.745-0.441,1.669-0.441C456.856,353.396,457.615,353.592,457.615,353.837z"/>
		<path fill="#4FC0D0" d="M464.287,353.837c0,0.241-0.744,0.438-1.657,0.438c-0.926,0-1.678-0.196-1.678-0.438
			c0-0.245,0.752-0.441,1.678-0.441C463.554,353.396,464.287,353.592,464.287,353.837z"/>
		<path fill="#4FC0D0" d="M470.977,353.837c0,0.241-0.754,0.438-1.667,0.438c-0.915,0-1.68-0.196-1.68-0.438
			c0-0.245,0.755-0.441,1.68-0.441C470.231,353.396,470.977,353.592,470.977,353.837z"/>
		<path fill="#4FC0D0" d="M477.656,353.837c0,0.241-0.745,0.438-1.667,0.438c-0.925,0-1.681-0.196-1.681-0.438
			c0-0.245,0.756-0.441,1.681-0.441C476.911,353.396,477.656,353.592,477.656,353.837z"/>
		<path fill="#4FC0D0" d="M484.344,353.837c0,0.241-0.746,0.438-1.678,0.438c-0.922,0-1.67-0.196-1.67-0.438
			c0-0.245,0.748-0.441,1.67-0.441C483.6,353.396,484.344,353.592,484.344,353.837z"/>
		<path fill="#4FC0D0" d="M489.355,355.505c-0.245,0-0.432-0.746-0.432-1.668l0.432,0.438h-0.342h-0.324
			c-0.168-0.019-0.35-0.055-0.52-0.092c-0.305-0.088-0.484-0.194-0.484-0.313c0-0.115,0.178-0.222,0.484-0.313
			c0.17-0.034,0.352-0.069,0.52-0.089h0.324h0.342c0.186,0.197-0.432-0.432,0.43,0.439
			C489.785,354.759,489.588,355.505,489.355,355.505z"/>
		<path fill="#4FC0D0" d="M489.355,362.144c-0.245,0-0.432-0.752-0.432-1.665c0-0.915,0.187-1.649,0.432-1.649
			c0.232,0,0.43,0.734,0.43,1.649C489.785,361.392,489.588,362.144,489.355,362.144z"/>
		<path fill="#4FC0D0" d="M489.355,368.781c-0.245,0-0.432-0.736-0.432-1.65c0-0.915,0.187-1.668,0.432-1.668
			c0.232,0,0.43,0.753,0.43,1.668C489.785,368.045,489.588,368.781,489.355,368.781z"/>
		<path fill="#4FC0D0" d="M489.355,375.432c-0.245,0-0.432-0.755-0.432-1.667c0-0.914,0.187-1.66,0.432-1.66
			c0.232,0,0.43,0.746,0.43,1.66C489.785,374.677,489.588,375.432,489.355,375.432z"/>
		<path fill="#4FC0D0" d="M489.355,382.064c-0.245,0-0.432-0.742-0.432-1.654c0-0.918,0.187-1.67,0.432-1.67
			c0.232,0,0.43,0.752,0.43,1.67C489.785,381.322,489.588,382.064,489.355,382.064z"/>
		<path fill="#4FC0D0" d="M489.355,388.71c-0.245,0-0.432-0.745-0.432-1.669c0-0.913,0.187-1.656,0.432-1.656
			c0.232,0,0.43,0.743,0.43,1.656C489.785,387.965,489.588,388.71,489.355,388.71z"/>
		<path fill="#4FC0D0" d="M489.355,395.344c-0.245,0-0.432-0.742-0.432-1.658c0-0.915,0.187-1.667,0.432-1.667
			c0.232,0,0.43,0.752,0.43,1.667C489.785,394.602,489.588,395.344,489.355,395.344z"/>
		<path fill="#4FC0D0" d="M489.355,401.987c-0.245,0-0.432-0.744-0.432-1.667c0-0.916,0.187-1.651,0.432-1.651
			c0.232,0,0.43,0.735,0.43,1.651C489.785,401.243,489.588,401.987,489.355,401.987z"/>
		<path fill="#4FC0D0" d="M489.355,408.621c-0.245,0-0.432-0.737-0.432-1.652c0-0.91,0.187-1.664,0.432-1.664
			c0.232,0,0.43,0.754,0.43,1.664C489.785,407.884,489.588,408.621,489.355,408.621z"/>
		<rect x="386.739" y="410.737" fill="#4FC0D0" width="4.769" height="4.788"/>
		<rect x="386.739" y="351.45" fill="#4FC0D0" width="4.769" height="4.777"/>
		<rect x="486.962" y="351.45" fill="#4FC0D0" width="4.777" height="4.777"/>
		<rect x="486.962" y="410.52" fill="#4FC0D0" width="4.777" height="4.782"/>
		<rect x="436.854" y="410.52" fill="#4FC0D0" width="4.769" height="4.782"/>
		<rect x="436.854" y="351.45" fill="#4FC0D0" width="4.769" height="4.777"/>
		<rect x="386.739" y="381.331" fill="#4FC0D0" width="4.769" height="4.778"/>
		<rect x="486.962" y="381.331" fill="#4FC0D0" width="4.777" height="4.778"/>
	</g>
	<path fill="#50C0CB" d="M209.354,129.831c0,1.268-1.03,2.294-2.294,2.294c-1.274,0-2.296-1.026-2.296-2.294
		c0-1.262,1.022-2.29,2.296-2.29l0,0c1.272,0,2.294,1.022,2.294,2.281C209.354,129.827,209.354,129.831,209.354,129.831z"/>
	<path fill="#50C0CB" d="M274.979,124.193c0,1.264-1.022,2.29-2.297,2.29c-1.263,0-2.285-1.026-2.285-2.29
		c0-1.263,1.022-2.292,2.285-2.292C273.958,121.906,274.979,122.928,274.979,124.193z"/>
	<path fill="#50C0CB" d="M207.508,128.106h-0.879v-18.885c0-8.508,5.541-15.416,12.336-15.416h20.978
		c6.814,0,12.337,6.908,12.337,15.416v8.875c0,3.121,1.981,5.659,4.401,5.659h15.716v0.879h-15.644c-2.915,0-5.29-2.933-5.29-6.538
		v-8.875c0-8.01-5.157-14.532-11.449-14.532h-20.978c-6.338,0-11.458,6.522-11.458,14.532L207.508,128.106z"/>
	<path fill="#50C0CB" d="M340.588,85.925c0,1.269-1.023,2.295-2.287,2.295c-1.264,0-2.289-1.026-2.289-2.295
		c0-1.264,1.025-2.292,2.289-2.292C339.564,83.634,340.588,84.661,340.588,85.925L340.588,85.925z"/>
	<path fill="#50C0CB" d="M462.603,134.435c0,1.264-1.021,2.296-2.275,2.3c-1.277,0.003-2.3-1.018-2.307-2.28
		c-0.012-1.269,1.014-2.296,2.288-2.301l0,0C461.57,132.153,462.603,133.171,462.603,134.435z"/>
	<path fill="#50C0CB" d="M460.758,134.435h-0.891V82.056c-0.01-10.09-8.194-18.271-18.28-18.284h-84.559
		c-10.097,0.012-18.271,8.194-18.288,18.284v3.87h-0.879v-3.87c0.009-10.577,8.588-19.159,19.167-19.167h84.559
		c10.579,0.007,19.149,8.589,19.171,19.167V134.435z"/>
	<path fill="#FFFFFF" d="M506.62,134.838l-17.06-0.08c-2.338,0.044-4.206,1.977-4.162,4.316c0,0.005,0,0.005,0,0.005v3.093
		c0.047,2.341-1.818,4.273-4.158,4.316l0,0l-33.271-0.157c-2.338-0.062-4.187-2.013-4.125-4.352l0,0v-3.094
		c0.058-2.338-1.782-4.289-4.123-4.356h-6.004l-14.974-0.067c-7.424-0.032-13.469,5.957-13.501,13.376l-0.878,215.402
		c-0.021,7.413,5.95,13.446,13.371,13.481l87.827,0.342c7.423,0.036,13.466-5.953,13.501-13.367l0,0l0.879-215.402
		C519.952,140.913,514.009,134.901,506.62,134.838z"/>
	<path fill="#263238" d="M519.085,143.239c-1.116-2.721-3.087-5.007-5.604-6.513c-1.532-0.938-3.255-1.538-5.032-1.762
		c-0.445-0.073-0.905-0.104-1.359-0.107h-0.469h0.469c0.446,0.013,0.894,0.058,1.343,0.134c1.774,0.229,3.48,0.829,5.004,1.763
		c2.492,1.505,4.437,3.783,5.522,6.486c1.416,3.206,0.822,7.297,0.888,11.739c-0.1,17.899-0.234,43.781-0.405,75.79
		c-0.16,32.011-0.323,70.08-0.521,112.371c0,5.288-0.019,10.649-0.071,16.064v4.071c0.035,1.344-0.144,2.688-0.503,3.999
		c-0.377,1.288-0.95,2.526-1.685,3.655c-0.764,1.132-1.687,2.134-2.732,2.995c-2.146,1.731-4.779,2.745-7.541,2.896
		c-2.762,0.073-5.596,0-8.41,0l-17.089-0.053l-35.087-0.17l-17.959-0.092h-9.062c-3.032,0.162-6.018-0.673-8.518-2.376
		c-2.457-1.731-4.267-4.259-5.125-7.144c-0.399-1.437-0.576-2.927-0.521-4.414c0-1.515,0-3.021,0-4.525
		c0-6.033,0.024-12.015,0.071-17.959c0.051-11.885,0.104-23.576,0.149-35.107c0.091-23.024,0.171-45.229,0.263-66.368
		c0.089-21.145,0.16-41.258,0.231-60.063c0.035-9.401,0.07-18.478,0.106-27.223c0.063-2.178-0.164-4.407,0.36-6.419
		c0.481-2.035,1.434-3.936,2.775-5.541c2.657-3.152,6.617-4.889,10.731-4.716l11.703,0.045h5.635h2.755
		c0.896-0.055,1.768,0.192,2.501,0.694c0.71,0.502,1.244,1.215,1.532,2.036c0.244,0.834,0.332,1.704,0.25,2.564
		c0,0.882-0.052,1.763,0,2.645c0.108,0.884,0.487,1.717,1.062,2.39c0.573,0.663,1.325,1.137,2.178,1.358
		c0.421,0.093,0.843,0.139,1.265,0.121h1.238h4.85l17.705,0.062h7.811c0.618,0,1.229,0,1.854,0c0.619-0.062,1.217-0.272,1.758-0.609
		c1.003-0.628,1.713-1.642,1.965-2.801c0.096-0.551,0.132-1.108,0.104-1.664c0-0.548,0-1.085,0-1.605
		c-0.025-0.515,0-1.03,0.074-1.542c0.079-0.489,0.242-0.96,0.485-1.395c0.455-0.83,1.192-1.48,2.077-1.833
		c0.853-0.268,1.75-0.362,2.646-0.273h8.704h5.352c1.223,0,1.83,0,1.83,0h-1.83l-5.342-0.053l-8.714-0.059
		c-0.896-0.085-1.793,0.009-2.646,0.27c-0.923,0.362-1.677,1.036-2.159,1.896c-0.253,0.453-0.431,0.941-0.521,1.448
		c-0.072,0.516-0.09,1.036-0.072,1.56c0,0.529,0,1.067,0,1.61c0.019,0.546-0.018,1.089-0.107,1.622
		c-0.254,1.099-0.933,2.053-1.891,2.646c-0.496,0.314-1.059,0.506-1.639,0.573c-0.585,0-1.225,0-1.833,0l-7.799-0.053l-17.715-0.099
		h-4.849c-0.815,0.04-1.635,0-2.441-0.13c-0.794-0.202-1.513-0.65-2.034-1.277c-0.547-0.632-0.887-1.413-0.987-2.242
		c-0.08-0.815,0-1.76,0-2.581c0.071-0.887-0.016-1.784-0.268-2.64c-0.305-0.878-0.879-1.64-1.63-2.18
		c-0.79-0.528-1.714-0.793-2.658-0.756h-2.761h-5.629l-11.696-0.062c-2.057-0.067-4.099,0.308-5.983,1.111
		c-1.937,0.838-3.637,2.112-5.011,3.706c-1.389,1.649-2.357,3.602-2.859,5.698c-0.135,0.521-0.18,1.063-0.279,1.593
		c-0.098,0.527-0.063,1.092-0.081,1.64c0,1.077,0,2.161,0,3.255c-0.044,8.736-0.087,17.808-0.125,27.221
		c-0.092,18.804-0.179,38.899-0.277,60.054c-0.099,21.149-0.187,43.364-0.295,66.369c-0.047,11.511-0.101,23.22-0.151,35.107
		c0,5.951-0.028,11.94-0.073,17.966v4.536c-0.046,1.532,0.134,3.067,0.547,4.556c0.878,2.986,2.745,5.594,5.287,7.387
		c2.577,1.759,5.649,2.617,8.76,2.455h9.064l17.95,0.092l35.104,0.161l17.106,0.072c2.826,0,5.623,0.071,8.446,0
		c2.833-0.163,5.559-1.204,7.783-2.994c1.083-0.886,2.034-1.938,2.813-3.104c0.783-1.155,1.382-2.436,1.757-3.783
		c0.377-1.333,0.559-2.724,0.541-4.105c0-1.362,0-2.716,0-4.067c0-5.415,0.023-10.761,0.067-16.049
		c0.166-42.307,0.306-80.386,0.435-112.378c0.125-31.992,0.18-57.878,0.24-75.795c0-2.237,0-4.344,0-6.325
		C520.196,146.83,519.816,144.97,519.085,143.239z"/>
	<path fill="#D6D6D6" d="M503.61,377.656h-2.646h-2.996l-79.222-0.37c-3.185,0.172-6.332-0.716-8.947-2.508
		c-2.626-1.84-4.547-4.511-5.442-7.576c-0.422-1.523-0.62-3.084-0.559-4.662l0.959-214.5c0-0.421,0-0.879,0.064-1.288v-0.358
		c0-0.219,0.072-0.408,0.098-0.591c0.046-0.364,0.108-0.723,0.198-1.078c0.513-2.137,1.507-4.132,2.922-5.814
		c2.778-3.301,6.938-5.124,11.26-4.94l20.082,0.108c1.015-0.044,2.01,0.242,2.841,0.811c0.819,0.583,1.429,1.398,1.769,2.345
		c0.241,0.745,0.342,1.529,0.279,2.31c0,0.147,0,0.309,0,0.457c0,0.309,0,0.619,0,0.937c-0.029,0.538-0.029,1.075,0,1.614
		c0.078,0.756,0.381,1.474,0.885,2.062c0.485,0.568,1.129,0.977,1.855,1.17c0.529,0.103,1.06,0.138,1.596,0.116
		c0.263,0,0.522,0,0.781,0l30.355,0.175h0.663c0.378,0.022,0.754,0.022,1.129,0c0.54-0.059,1.04-0.233,1.49-0.52
		c0.905-0.553,1.544-1.448,1.766-2.479c0.08-0.431,0.115-0.87,0.107-1.313v-2.21c-0.009-0.427,0.018-0.852,0.092-1.267
		c0.1-0.54,0.276-1.058,0.546-1.535c0.537-0.946,1.381-1.667,2.401-2.044c0.728-0.258,1.49-0.357,2.26-0.29h0.53l14.102,0.103h1.819
		h0.467c0.115,0.008,0.224,0.008,0.331,0c0.366,0.004,0.726,0.036,1.077,0.099c1.826,0.22,3.573,0.821,5.145,1.762
		c2.592,1.542,4.606,3.887,5.737,6.674l0,0c0.718,1.776,1.059,3.677,1.004,5.585v6.329l-0.305,93.252l-0.44,115.082
		c0.025,1.424-0.163,2.841-0.548,4.203c-0.374,1.382-0.977,2.683-1.757,3.874c-0.805,1.191-1.772,2.26-2.887,3.173
		c-2.278,1.83-5.065,2.905-7.979,3.065C505.494,377.638,504.549,377.656,503.61,377.656z M498.228,376.508h2.736
		c1.766,0,3.638,0,5.424,0c2.688-0.145,5.254-1.132,7.351-2.805c1.006-0.856,1.9-1.841,2.637-2.933
		c0.733-1.096,1.284-2.304,1.646-3.568c0.349-1.273,0.523-2.582,0.504-3.899l1.007-208.274c0-1.152,0-2.291,0-3.385
		c0.051-3.039,0.115-5.913-0.891-8.22c-1.059-2.641-2.947-4.864-5.387-6.34c-1.479-0.919-3.139-1.52-4.868-1.762
		c-0.324-0.062-0.644-0.098-0.979-0.102h-0.375h-0.429h-1.812h-14.104c-0.179,0-0.365,0-0.556,0
		c-0.653-0.06-1.318,0.026-1.928,0.245c-0.823,0.323-1.495,0.924-1.917,1.691c-0.234,0.403-0.377,0.838-0.458,1.287
		c-0.063,0.372-0.082,0.742-0.063,1.121v2.192c0.021,0.505-0.026,1.008-0.124,1.501c-0.271,1.251-1.021,2.336-2.117,3.012
		c-0.556,0.353-1.189,0.579-1.854,0.655c-0.42,0-0.825,0-1.228,0h-0.646l-31.521-0.125c-0.444,0.017-0.912-0.032-1.352-0.14
		c-0.905-0.237-1.73-0.748-2.342-1.466c-0.628-0.721-1.021-1.609-1.128-2.555c-0.055-0.587-0.073-1.174-0.043-1.763
		c0-0.308,0-0.609,0-0.882c0-0.166,0-0.323,0-0.485c0.043-0.663-0.03-1.331-0.229-1.963c-0.268-0.766-0.77-1.426-1.434-1.887
		c-0.662-0.463-1.472-0.691-2.277-0.646l-20.116-0.066c-1.954-0.069-3.909,0.291-5.721,1.057c-1.826,0.803-3.459,2.008-4.75,3.524
		c-1.316,1.568-2.241,3.418-2.706,5.409c-0.316,1.49-0.432,3.013-0.36,4.532c0,0.602,0,1.207,0,1.816l-0.834,211.237
		c-0.056,1.471,0.116,2.925,0.513,4.329c0.818,2.824,2.588,5.29,5.003,6.967c2.437,1.667,5.351,2.482,8.29,2.32l79.245,0.367h0.192
		V376.508z"/>
	<path fill="#D6D6D6" d="M416.96,178.323c-0.239-0.12-0.473-0.278-0.673-0.466c-0.402-0.327-0.992-0.82-1.702-1.438
		c-1.418-1.232-3.336-3.003-5.344-5.056l-0.152-0.161l0.137-0.158l0.123-0.125c1.936-2.174,3.709-4.124,5.005-5.523
		c0.663-0.789,1.398-1.524,2.17-2.206c-0.577,0.852-1.221,1.659-1.92,2.417c-1.256,1.451-2.987,3.447-4.914,5.621l-0.117,0.125
		v-0.319c2.018,2.053,3.882,3.851,5.245,5.146C415.58,176.844,416.29,177.563,416.96,178.323z"/>
	<path fill="#D6D6D6" d="M425.101,181.947c-0.171-3.015-0.177-6.03-0.044-9.043c-0.021-3.015,0.113-6.032,0.412-9.036
		c0.172,3.012,0.177,6.029,0.054,9.046C425.541,175.93,425.397,178.943,425.101,181.947z"/>
	<path fill="#D6D6D6" d="M501.573,163.877c0,0.126-16.988,0.178-37.896,0.126c-20.918-0.055-37.895-0.21-37.895-0.337
		c0-0.12,16.967-0.184,37.895-0.12C484.603,163.603,501.573,163.792,501.573,163.877z"/>
	<path fill="#D6D6D6" d="M501.979,178.207c-0.31-2.376-0.451-4.769-0.434-7.163c-0.151-2.386-0.151-4.779,0-7.167
		c0.288,2.375,0.44,4.765,0.434,7.159C502.12,173.425,502.12,175.818,501.979,178.207z"/>
	<path fill="#D6D6D6" d="M482.271,167.736c0.172-0.153,0.378-0.26,0.61-0.295c0.617-0.121,1.267-0.01,1.812,0.313
		c0.842,0.467,1.398,1.326,1.47,2.294c0.025,0.58-0.18,1.145-0.56,1.579c-0.4,0.457-0.932,0.785-1.523,0.95
		c-0.571,0.16-1.182,0.16-1.758,0c-0.553-0.175-1.021-0.538-1.328-1.022c-0.479-0.83-0.553-1.835-0.196-2.726
		c0.217-0.587,0.627-1.088,1.149-1.425c0.197-0.136,0.411-0.21,0.645-0.22c0,0.04-0.213,0.122-0.537,0.369
		c-0.446,0.357-0.771,0.847-0.948,1.393c-0.29,0.785-0.199,1.658,0.241,2.372c0.261,0.395,0.652,0.69,1.118,0.83
		c0.502,0.139,1.022,0.139,1.527,0c0.987-0.221,1.702-1.071,1.755-2.08c-0.124-1.448-1.382-2.529-2.832-2.443
		C482.503,167.67,482.298,167.78,482.271,167.736z"/>
	<path fill="#D6D6D6" d="M492.608,176.262c-1.545-0.753-3.021-1.636-4.403-2.645c-1.477-0.896-2.868-1.918-4.177-3.057
		c3.031,1.654,5.909,3.572,8.599,5.738L492.608,176.262z"/>
	<path fill="#D6D6D6" d="M418.761,245.468c-0.124,0-0.394-11.34-0.606-25.325c-0.206-13.986-0.281-25.332-0.145-25.332
		c0.125,0,0.395,11.337,0.61,25.332C418.825,234.137,418.896,245.468,418.761,245.468z"/>
	<path fill="#D6D6D6" d="M480.093,196.688c0,0.127-13.862,0.229-30.946,0.229c-17.099,0-30.961-0.101-30.961-0.229
		c0-0.121,13.862-0.228,30.961-0.228C466.241,196.46,480.093,196.56,480.093,196.688z"/>
	<path fill="#D6D6D6" d="M478.247,244.528c-0.125,0-0.232-10.293-0.232-22.988c0-12.688,0.107-22.972,0.232-22.972
		c0.114,0,0.224,10.283,0.224,22.972C478.471,234.235,478.347,244.528,478.247,244.528z"/>
	<path fill="#D6D6D6" d="M486.666,244.528c0,0.119-15.545,0.228-34.715,0.228c-19.169,0-34.702-0.108-34.702-0.228
		c0-0.124,15.533-0.229,34.702-0.229C471.116,244.298,486.666,244.398,486.666,244.528z"/>
	<path fill="#D6D6D6" d="M476.338,234.209c0,0.119-10.919,0.229-24.387,0.229c-13.466,0-24.384-0.109-24.384-0.229
		c0-0.127,10.918-0.23,24.384-0.23C465.437,233.979,476.338,234.082,476.338,234.209z"/>
	<path fill="#D6D6D6" d="M461.331,225.763c0,0.125-6.707,0.228-14.98,0.228c-8.268,0-14.984-0.103-14.984-0.228
		c0-0.122,6.724-0.229,14.984-0.229C454.605,225.535,461.331,225.642,461.331,225.763z"/>
	<path fill="#D6D6D6" d="M424.616,204.03c0,0,0.057-0.07,0.172-0.183c0.196-0.17,0.396-0.313,0.627-0.426
		c0.841-0.403,1.793-0.525,2.708-0.345c1.398,0.246,2.602,1.116,3.271,2.361c0.368,0.763,0.466,1.623,0.276,2.445
		c-0.41,1.767-1.763,3.155-3.521,3.611c-0.816,0.198-1.676,0.113-2.446-0.246c-1.256-0.653-2.143-1.85-2.4-3.241
		c-0.211-0.913-0.093-1.868,0.302-2.715c0.108-0.229,0.254-0.439,0.411-0.627c0.108-0.121,0.182-0.184,0.189-0.176
		c0.009,0.01-0.207,0.301-0.438,0.885c-0.775,2.102,0.133,4.451,2.112,5.494c0.681,0.314,1.433,0.386,2.168,0.199
		c1.591-0.417,2.834-1.672,3.218-3.272c0.175-0.721,0.101-1.484-0.222-2.158c-0.6-1.151-1.687-1.968-2.956-2.23
		c-0.854-0.197-1.76-0.134-2.565,0.188C424.912,203.831,424.651,204.076,424.616,204.03z"/>
	<path fill="#D6D6D6" d="M492.009,245.468c-0.126,0-0.377-11.34-0.558-25.325c-0.177-13.986-0.215-25.332-0.088-25.332
		c0.123,0,0.372,11.337,0.553,25.332C492.086,234.137,492.135,245.468,492.009,245.468z"/>
	<path fill="#D6D6D6" d="M544.087,196.688c0,0.127-11.772,0.229-26.295,0.229c-14.507,0-26.27-0.101-26.27-0.229
		c0-0.121,11.763-0.228,26.27-0.228C532.314,196.46,544.087,196.56,544.087,196.688z"/>
	<path fill="#D6D6D6" d="M542.492,244.528c-0.12,0-0.225-10.293-0.225-22.988c0-12.688,0.104-22.972,0.225-22.972
		c0.125,0,0.223,10.283,0.223,22.972C542.715,234.235,542.581,244.528,542.492,244.528z"/>
	<path fill="#D6D6D6" d="M542.492,244.528c0,0.119-11.594,0.228-25.884,0.228c-14.288,0-25.889-0.108-25.889-0.228
		c0-0.124,11.58-0.229,25.889-0.229C530.918,244.298,542.492,244.398,542.492,244.528z"/>
	<path fill="#D6D6D6" d="M540.895,234.209c0,0.119-9.27,0.229-20.698,0.229c-11.434,0-20.719-0.109-20.719-0.229
		c0-0.127,9.267-0.23,20.719-0.23C531.645,233.979,540.895,234.082,540.895,234.209z"/>
	<path fill="#D6D6D6" d="M534.809,225.763c0,0.125-6.726,0.228-14.98,0.228c-8.258,0-14.983-0.103-14.983-0.228
		c0-0.122,6.705-0.229,14.983-0.229C528.093,225.535,534.809,225.642,534.809,225.763z"/>
	<path fill="#D6D6D6" d="M498.087,204.03c0,0,0.052-0.07,0.177-0.183c0.182-0.17,0.396-0.31,0.611-0.426
		c0.843-0.403,1.79-0.525,2.715-0.345c1.39,0.246,2.602,1.116,3.275,2.361c0.366,0.758,0.465,1.623,0.278,2.445
		c-0.414,1.767-1.768,3.155-3.525,3.611c-0.826,0.198-1.685,0.113-2.457-0.246c-1.256-0.653-2.133-1.85-2.392-3.241
		c-0.208-0.913-0.099-1.868,0.295-2.715c0.104-0.229,0.252-0.439,0.422-0.627c0.117-0.121,0.17-0.184,0.186-0.176
		c0,0.01-0.203,0.301-0.444,0.885c-0.764,2.102,0.143,4.451,2.109,5.494c0.687,0.314,1.455,0.386,2.173,0.199
		c1.595-0.417,2.833-1.672,3.229-3.272c0.179-0.721,0.09-1.484-0.225-2.158c-1.067-1.968-3.434-2.841-5.522-2.043
		C498.372,203.831,498.122,204.076,498.087,204.03z"/>
	<path fill="#D6D6D6" d="M511.981,256.715c0,0.136-20.995,0.229-46.894,0.229c-25.903,0-46.902-0.093-46.902-0.229
		c0-0.13,20.999-0.228,46.902-0.228C490.983,256.487,511.981,256.595,511.981,256.715z"/>
	<path fill="#4FC0D0" d="M437.875,270.793c0,0.124-4.194,0.23-9.377,0.23c-5.181,0-9.375-0.106-9.375-0.23
		c0-0.13,4.194-0.235,9.375-0.235C433.681,270.558,437.875,270.656,437.875,270.793z"/>
	<path fill="#4FC0D0" d="M465.088,271.724c-2.971,0.234-5.938,0.304-8.904,0.234c-2.976,0.069-5.955,0-8.91-0.234
		c2.957-0.225,5.935-0.306,8.91-0.233C459.15,271.418,462.117,271.499,465.088,271.724z"/>
	<path fill="#4FC0D0" d="M496.982,269.85c-2.805,0.226-5.631,0.306-8.442,0.226c-2.817,0.08-5.642,0-8.447-0.226
		c2.806-0.225,5.63-0.307,8.447-0.233C491.354,269.543,494.178,269.625,496.982,269.85z"/>
	<path fill="#D6D6D6" d="M413.4,322.376c-0.115,0-0.225-9.028-0.225-20.172c0-11.138,0.109-20.154,0.225-20.154
		c0.125,0,0.234,9.017,0.234,20.154C413.635,313.348,413.546,322.376,413.4,322.376z"/>
	<path fill="#D6D6D6" d="M459.367,320.51c0,0.117-10.707,0.226-23.92,0.226c-13.204,0-23.92-0.108-23.92-0.226
		c0-0.126,10.716-0.231,23.92-0.231C448.66,320.278,459.367,320.368,459.367,320.51z"/>
	<path fill="#D6D6D6" d="M460.309,318.629c-0.128,0-0.226-7.773-0.226-17.356c0-9.574,0.098-17.356,0.226-17.356
		c0.132,0,0.233,7.774,0.233,17.356C460.542,310.865,460.432,318.629,460.309,318.629z"/>
	<path fill="#D6D6D6" d="M451.86,282.981c0,0.129-8.389,0.226-18.753,0.226c-10.365,0-18.757-0.097-18.757-0.226
		c0-0.134,8.376-0.213,18.757-0.213C443.49,282.769,451.86,282.858,451.86,282.981z"/>
	<path fill="#D6D6D6" d="M468.755,318.629c-0.128,0-0.237-7.567-0.237-16.891c0-9.322,0.109-16.885,0.237-16.885
		c0.132,0,0.23,7.562,0.23,16.885C468.985,311.063,468.88,318.629,468.755,318.629z"/>
	<path fill="#D6D6D6" d="M512.834,320.51c0,0.117-10.291,0.226-22.975,0.226c-12.679,0-22.989-0.108-22.989-0.226
		c0-0.126,10.293-0.231,22.989-0.231C502.561,320.278,512.834,320.368,512.834,320.51z"/>
	<path fill="#D6D6D6" d="M510.781,320.025c-0.128,0-0.234-7.925-0.234-17.82c0-9.879,0.106-17.816,0.234-17.816
		c0.127,0,0.232,7.973,0.232,17.816S510.913,320.025,510.781,320.025z"/>
	<path fill="#D6D6D6" d="M512.834,282.05c0,0.117-10.104,0.225-22.565,0.225c-12.46,0-22.557-0.107-22.557-0.225
		c0-0.124,10.097-0.232,22.557-0.232C502.729,281.817,512.834,281.888,512.834,282.05z"/>
	<path fill="#D6D6D6" d="M413.4,368.797c-0.115,0-0.225-9.037-0.225-20.171c0-11.136,0.109-20.163,0.225-20.163
		c0.125,0,0.234,9.027,0.234,20.163C413.635,359.76,413.546,368.797,413.4,368.797z"/>
	<path fill="#D6D6D6" d="M459.367,366.921c0,0.12-10.707,0.227-23.92,0.227c-13.204,0-23.92-0.106-23.92-0.227
		c0-0.125,10.716-0.221,23.92-0.221C448.66,366.7,459.367,366.791,459.367,366.921z"/>
	<path fill="#D6D6D6" d="M460.309,365.052c-0.128,0-0.226-7.783-0.226-17.355c0-9.577,0.098-17.359,0.226-17.359
		c0.132,0,0.233,7.766,0.233,17.359C460.542,357.287,460.432,365.052,460.309,365.052z"/>
	<path fill="#D6D6D6" d="M451.86,329.395c0,0.137-8.389,0.225-18.753,0.225c-10.365,0-18.757-0.09-18.757-0.225
		c0-0.134,8.392-0.222,18.757-0.222C443.461,329.173,451.86,329.279,451.86,329.395z"/>
	<path fill="#D6D6D6" d="M468.755,365.052c-0.128,0-0.237-7.567-0.237-16.893s0.109-16.889,0.237-16.889
		c0.132,0,0.23,7.564,0.23,16.889C468.985,357.484,468.88,365.052,468.755,365.052z"/>
	<path fill="#D6D6D6" d="M512.834,366.921c0,0.12-10.291,0.227-22.975,0.227c-12.679,0-22.989-0.106-22.989-0.227
		c0-0.125,10.293-0.221,22.989-0.221C502.561,366.7,512.834,366.791,512.834,366.921z"/>
	<path fill="#D6D6D6" d="M510.781,366.494c-0.128,0-0.234-7.979-0.234-17.821c0-9.844,0.106-17.813,0.234-17.813
		c0.127,0,0.232,7.969,0.232,17.813C511.014,358.515,510.913,366.494,510.781,366.494z"/>
	<path fill="#D6D6D6" d="M512.834,328.463c0,0.118-10.104,0.224-22.565,0.224c-12.46,0-22.557-0.105-22.557-0.224
		c0-0.126,10.097-0.223,22.557-0.223C502.729,328.24,512.834,328.337,512.834,328.463z"/>
	<path fill="#D6D6D6" d="M458.987,282.409c0.084,0.108-10.102,8.652-22.76,19.106c-12.644,10.445-22.96,18.835-23.043,18.744
		c-0.079-0.096,10.098-8.644,22.754-19.095C448.598,290.711,458.909,282.319,458.987,282.409z"/>
	<path fill="#D6D6D6" d="M460.542,317.599c-0.074,0.099-10.582-7.262-23.438-16.453c-12.854-9.179-23.252-16.736-23.183-16.828
		c0.089-0.088,10.579,7.262,23.452,16.452C450.229,309.97,460.611,317.49,460.542,317.599z"/>
	<path fill="#D6D6D6" d="M512.484,285.549c-0.105,0.161-0.234,0.303-0.376,0.43l-1.165,1.2c-1.014,1.022-2.518,2.492-4.408,4.257
		c-3.786,3.525-9.192,8.24-15.494,13.02c-6.295,4.776-12.338,8.722-16.746,11.403c-2.206,1.355-4.026,2.394-5.29,3.092l-1.452,0.807
		c-0.18,0.092-0.36,0.178-0.537,0.251c0.148-0.123,0.313-0.241,0.481-0.33l1.426-0.889c1.246-0.735,3.02-1.838,5.211-3.209
		c4.399-2.76,10.326-6.741,16.619-11.457c6.294-4.726,11.718-9.43,15.554-12.91c1.923-1.756,3.453-3.154,4.51-4.143l1.222-1.128
		C512.172,285.787,512.321,285.654,512.484,285.549z"/>
	<path fill="#D6D6D6" d="M512.023,319.58c-0.168-0.107-0.312-0.235-0.453-0.377l-1.222-1.14l-4.501-4.211
		c-3.809-3.525-9.161-8.313-15.302-13.335c-6.135-5.02-11.898-9.321-16.118-12.336c-2.081-1.488-3.793-2.689-5.01-3.565
		l-1.365-0.977c-0.162-0.109-0.322-0.227-0.468-0.36c0.179,0.07,0.36,0.171,0.52,0.276l1.401,0.877
		c1.236,0.79,2.977,1.965,5.109,3.453c4.268,2.97,10.078,7.236,16.229,12.257c6.146,5.025,11.455,9.862,15.23,13.445
		c1.89,1.768,3.387,3.281,4.41,4.324c0.485,0.501,0.876,0.876,1.156,1.208C511.783,319.266,511.912,319.418,512.023,319.58z"/>
	<path fill="#D6D6D6" d="M512.737,330.354c0.068,0.108-9.863,8.303-22.219,18.29c-12.345,9.997-22.414,18.036-22.482,17.932
		c-0.091-0.109,9.86-8.283,22.195-18.281C502.587,338.299,512.609,330.246,512.737,330.354z"/>
	<path fill="#D6D6D6" d="M513.084,367.094c-0.151-0.105-0.296-0.232-0.439-0.36l-1.166-1.126l-4.294-4.045
		c-3.63-3.404-8.712-8.05-14.497-12.99c-5.781-4.95-11.15-9.252-15.088-12.347l-4.663-3.611l-1.264-0.987
		c-0.158-0.109-0.294-0.235-0.427-0.377c0.168,0.091,0.328,0.187,0.484,0.306l1.317,0.878c1.14,0.808,2.77,2.01,4.761,3.531
		c3.979,2.996,9.394,7.265,15.185,12.213c5.793,4.944,10.831,9.626,14.414,13.107c1.761,1.757,3.229,3.153,4.197,4.159l1.112,1.146
		C512.968,366.931,513.093,367.078,513.084,367.094z"/>
	<path fill="#D6D6D6" d="M459.949,328.311c-0.123,0.171-0.27,0.323-0.432,0.448l-1.29,1.21c-1.146,1.049-2.806,2.538-4.877,4.364
		c-4.159,3.641-9.97,8.571-16.553,13.825c-6.585,5.256-12.699,9.829-17.174,13.047c-2.233,1.609-4.053,2.912-5.323,3.774
		l-1.475,1.001c-0.159,0.128-0.341,0.234-0.535,0.323c0.152-0.142,0.303-0.278,0.484-0.393l1.415-1.065l5.245-3.902
		c4.403-3.3,10.487-7.935,17.07-13.162c6.588-5.224,12.424-10.127,16.63-13.715l4.966-4.248l1.354-1.145
		C459.607,328.544,459.777,328.418,459.949,328.311z"/>
	<path fill="#D6D6D6" d="M462.385,365.202c-0.177-0.099-0.336-0.223-0.483-0.35l-1.323-1.075c-1.148-0.948-2.808-2.296-4.877-3.963
		c-4.136-3.308-9.936-7.764-16.589-12.338c-6.642-4.56-12.863-8.461-17.425-11.151c-2.279-1.343-4.124-2.419-5.416-3.155
		l-1.47-0.879c-0.18-0.098-0.344-0.208-0.501-0.33c0.187,0.063,0.375,0.142,0.545,0.25l1.514,0.783
		c1.311,0.688,3.196,1.723,5.489,3.028c4.606,2.653,10.863,6.462,17.534,11.063c6.659,4.611,12.425,9.091,16.516,12.479
		c2.041,1.696,3.675,3.084,4.787,4.072l1.264,1.146C462.11,364.908,462.253,365.052,462.385,365.202z"/>
	<path fill="#FFFFFF" d="M383.172,86.332L366.1,86.233c-2.348,0.044-4.205,1.978-4.157,4.318v0.003v3.094
		c0.038,2.335-1.813,4.264-4.152,4.307c-0.008,0-0.008,0-0.008,0l-33.279-0.148c-2.332-0.067-4.177-2.017-4.125-4.357v-3.093
		c0.064-2.341-1.784-4.291-4.122-4.353h-6.007l-14.936-0.072c-7.416-0.032-13.449,5.948-13.484,13.362c0,0.004,0,0.004,0,0.009
		l-0.88,215.414c-0.026,7.406,5.953,13.438,13.368,13.483l87.85,0.395c7.414,0.037,13.456-5.943,13.491-13.357l0,0l0.88-215.415
		c0.044-7.414-5.946-13.452-13.349-13.492C383.182,86.332,383.172,86.332,383.172,86.332z"/>
	<path fill="#D6D6D6" d="M395.93,94.609c-1.14-2.789-3.148-5.135-5.729-6.681c-1.577-0.946-3.337-1.546-5.155-1.765
		c-0.35-0.059-0.711-0.09-1.077-0.095h-0.327h-0.469h-1.83l-14.093-0.107h-0.536c-0.772-0.059-1.544,0.045-2.26,0.3
		c-0.986,0.394-1.809,1.112-2.333,2.035c-0.257,0.484-0.446,1.005-0.539,1.542c-0.067,0.416-0.097,0.837-0.088,1.264v2.219
		c0.021,0.439-0.016,0.882-0.106,1.312c-0.225,1.028-0.861,1.92-1.757,2.477c-0.448,0.282-0.959,0.461-1.489,0.519
		c-0.375,0.022-0.753,0.022-1.137,0h-0.653l-30.356-0.174h-0.791c-0.527,0.027-1.057-0.014-1.578-0.121
		c-0.734-0.183-1.397-0.592-1.874-1.174c-0.493-0.582-0.797-1.296-0.889-2.053c-0.023-0.539-0.023-1.075,0-1.614
		c0-0.318,0-0.633,0-0.942c0-0.151,0-0.299,0-0.448c0.065-0.784-0.036-1.569-0.276-2.312c-0.332-0.942-0.942-1.763-1.767-2.345
		c-0.825-0.57-1.829-0.856-2.833-0.812l-20.091-0.103c-4.313-0.184-8.471,1.636-11.25,4.925c-1.407,1.664-2.412,3.628-2.933,5.738
		c-0.089,0.354-0.152,0.714-0.205,1.076c0,0.184-0.054,0.368-0.091,0.592v0.375c0,0.423-0.054,0.885-0.054,1.269l-0.878,192.021
		l-0.108,22.483c-0.053,1.569,0.136,3.138,0.557,4.654c0.905,3.064,2.824,5.738,5.442,7.565c2.628,1.806,5.765,2.688,8.947,2.529
		l79.225,0.358c1.004,0,2.007,0,2.995,0h2.653c0.936,0,1.884,0,2.823,0c2.914-0.161,5.712-1.236,7.988-3.066
		c1.112-0.913,2.079-1.973,2.878-3.176c0.782-1.181,1.382-2.49,1.765-3.87c0.379-1.363,0.566-2.779,0.538-4.206l0.447-114.892
		l0.289-93.404v-6.312C396.978,98.284,396.634,96.383,395.93,94.609z M383.942,86.727c0.321,0.009,0.652,0.045,0.966,0.108
		c1.739,0.238,3.4,0.838,4.88,1.764c2.439,1.469,4.33,3.691,5.378,6.337c1.04,2.308,0.978,5.173,0.888,8.211
		c0,1.104-0.044,2.237,0,3.394l-1.004,208.26c0.025,1.315-0.153,2.635-0.503,3.908c-0.366,1.263-0.912,2.467-1.642,3.567
		c-0.732,1.104-1.633,2.09-2.643,2.932c-2.092,1.688-4.665,2.663-7.343,2.814c-1.758,0.037-3.641,0-5.436,0h-2.725h-0.252
		l-79.234-0.375c-2.939,0.162-5.862-0.653-8.291-2.312c-2.412-1.688-4.187-4.146-5.013-6.977c-0.394-1.436-0.563-2.922-0.502-4.401
		l0.878-211.165c0-0.605,0-1.216,0-1.815c-0.08-1.515,0.038-3.04,0.35-4.529c0.467-1.988,1.39-3.845,2.708-5.41
		c2.592-3.076,6.465-4.779,10.481-4.603l20.109,0.08c0.816-0.044,1.612,0.184,2.287,0.646c0.662,0.463,1.155,1.12,1.425,1.883
		c0.196,0.637,0.277,1.303,0.221,1.967c0,0.158,0,0.318,0,0.476c0,0.31,0,0.618,0,0.885c-0.035,0.586-0.035,1.173,0,1.761
		c0.126,0.941,0.522,1.833,1.131,2.555c0.609,0.716,1.435,1.229,2.349,1.46c0.449,0.108,0.895,0.157,1.354,0.144l31.603,0.103h0.644
		c0.395,0,0.807,0,1.237,0c0.682-0.084,1.33-0.327,1.903-0.703c1.074-0.677,1.845-1.766,2.104-3.014
		c0.098-0.493,0.145-0.996,0.128-1.496v-2.179c-0.009-0.375,0.007-0.749,0.063-1.121c0.081-0.448,0.233-0.888,0.454-1.286
		c0.42-0.767,1.105-1.363,1.922-1.69c0.617-0.225,1.28-0.305,1.925-0.247h0.557h14.101h1.803h0.439L383.942,86.727z"/>
	<path fill="#D6D6D6" d="M297.223,124.193c-0.243-0.13-0.466-0.292-0.673-0.475c-0.403-0.327-0.985-0.812-1.693-1.43
		c-1.425-1.231-3.336-3.002-5.352-5.063l-0.143-0.15l0.143-0.16l0.107-0.122c1.937-2.177,3.712-4.137,5.001-5.526
		c0.675-0.789,1.399-1.526,2.18-2.206c-0.583,0.851-1.229,1.658-1.928,2.417c-1.246,1.455-2.976,3.446-4.913,5.622l-0.107,0.125
		v-0.319c2.008,2.052,3.863,3.849,5.235,5.144C295.833,122.718,296.549,123.432,297.223,124.193z"/>
	<path fill="#D6D6D6" d="M369.445,118.509c0,0.126-14.495,0.23-32.37,0.23c-17.888,0-32.393-0.104-32.393-0.23
		c0-0.126,14.497-0.228,32.393-0.228C354.957,118.279,369.445,118.375,369.445,118.509z"/>
	<path fill="#D6D6D6" d="M379.639,110.144c0.25-0.179,0.539-0.292,0.845-0.326c1.423-0.221,2.846,0.411,3.64,1.62
		c0.357,0.58,0.529,1.261,0.48,1.942c-0.094,1.579-1.145,2.937-2.643,3.434c-1.553,0.375-3.164-0.216-4.115-1.498
		c-0.414-0.534-0.666-1.183-0.701-1.861c-0.088-1.433,0.611-2.801,1.822-3.576c0.243-0.185,0.526-0.297,0.832-0.328
		c0,0-0.283,0.142-0.734,0.479c-0.617,0.472-1.085,1.117-1.344,1.852c-0.41,1.067-0.234,2.273,0.468,3.179
		c0.843,1.122,2.274,1.628,3.639,1.296c1.327-0.439,2.259-1.637,2.356-3.03c0.08-1.138-0.492-2.228-1.479-2.801
		c-0.662-0.422-1.436-0.615-2.205-0.547C379.952,110.032,379.656,110.189,379.639,110.144z"/>
	<path fill="#D6D6D6" d="M389.48,119.724c-1.286-0.7-2.5-1.534-3.617-2.484c-1.211-0.828-2.334-1.784-3.348-2.856
		c1.291,0.705,2.501,1.538,3.623,2.494C387.348,117.711,388.46,118.661,389.48,119.724z"/>
	<path fill="#FF725E" d="M293.716,212.633c-0.134,0-0.232-16.007-0.232-35.758c0-19.75,0.099-35.752,0.232-35.752
		c0.126,0,0.232,16.002,0.232,35.752C293.949,196.626,293.842,212.633,293.716,212.633z"/>
	<path fill="#FF725E" d="M330.186,212.633c0,0.131-8.157,0.231-18.233,0.231c-10.078,0-18.226-0.1-18.226-0.231
		c0-0.135,8.159-0.228,18.226-0.228C322.009,212.406,330.186,212.508,330.186,212.633z"/>
	<path fill="#D6D6D6" d="M334.435,135.439c0.128,0,0.235,17.069,0.235,38.125c0,21.053-0.108,38.124-0.235,38.124
		c-0.114,0-0.223-17.071-0.223-38.124C334.212,152.509,334.321,135.439,334.435,135.439z"/>
	<path fill="#D6D6D6" d="M331.127,137.81c0,0.122-8.274,0.229-18.511,0.229c-10.23,0-18.504-0.106-18.504-0.229
		c0-0.125,8.265-0.229,18.504-0.229C322.863,137.582,331.127,137.676,331.127,137.81z"/>
	<path fill="#D6D6D6" d="M341.787,231.864c-0.124,0-0.222-16.017-0.222-35.757c0-19.742,0.099-35.753,0.222-35.753
		c0.136,0,0.234,16.003,0.234,35.753C342.021,215.856,341.915,231.864,341.787,231.864z"/>
	<path fill="#FF725E" d="M378.26,231.864c0,0.122-8.167,0.229-18.238,0.229c-10.059,0-18.235-0.107-18.235-0.229
		c0-0.127,8.157-0.229,18.235-0.229C370.1,231.635,378.26,231.736,378.26,231.864z"/>
	<path fill="#D6D6D6" d="M382.516,154.669c0.139,0,0.225,17.069,0.225,38.116s-0.089,38.124-0.225,38.124
		c-0.135,0-0.223-17.06-0.223-38.124S382.397,154.669,382.516,154.669z"/>
	<path fill="#D6D6D6" d="M379.21,157.031c0,0.131-8.269,0.238-18.516,0.238c-10.237,0-18.513-0.108-18.513-0.238
		c0-0.135,8.276-0.229,18.513-0.229C370.941,156.803,379.21,156.906,379.21,157.031z"/>
	<path fill="#D6D6D6" d="M341.787,319.238c-0.124,0-0.222-16.012-0.222-35.753c0-19.756,0.099-35.757,0.222-35.757
		c0.136,0,0.234,16.001,0.234,35.757C342.021,303.227,341.915,319.238,341.787,319.238z"/>
	<path fill="#D6D6D6" d="M378.26,319.238c0,0.125-8.167,0.234-18.238,0.234c-10.059,0-18.235-0.109-18.235-0.234
		c0-0.127,8.157-0.233,18.235-0.233C370.1,319.005,378.26,319.114,378.26,319.238z"/>
	<path fill="#D6D6D6" d="M382.516,242.043c0.139,0,0.225,17.069,0.225,38.126c0,21.05-0.089,38.117-0.225,38.117
		c-0.135,0-0.223-17.067-0.223-38.117C382.293,259.112,382.397,242.043,382.516,242.043z"/>
	<path fill="#D6D6D6" d="M379.21,244.411c0,0.124-8.269,0.232-18.516,0.232c-10.237,0-18.513-0.106-18.513-0.232
		c0-0.122,8.276-0.23,18.513-0.23C370.941,244.182,379.21,244.279,379.21,244.411z"/>
	<path fill="#FF725E" d="M293.716,302.687c-0.134,0-0.232-15.993-0.232-35.751c0-19.747,0.099-35.753,0.232-35.753
		c0.126,0,0.232,16.006,0.232,35.753C293.949,286.693,293.842,302.687,293.716,302.687z"/>
	<path fill="#FF725E" d="M330.186,302.687c0,0.146-8.157,0.234-18.233,0.234c-10.078,0-18.226-0.089-18.226-0.234
		c0-0.124,8.159-0.223,18.226-0.223C322.009,302.464,330.186,302.572,330.186,302.687z"/>
	<path fill="#FF725E" d="M334.435,225.48c0.128,0,0.235,17.075,0.235,38.127c0,21.053-0.108,38.131-0.235,38.131
		c-0.114,0-0.223-17.078-0.223-38.131C334.212,242.556,334.321,225.48,334.435,225.48z"/>
	<path fill="#FF725E" d="M331.127,227.87c0,0.128-8.274,0.23-18.511,0.23c-10.23,0-18.504-0.103-18.504-0.23
		c0-0.121,8.265-0.229,18.504-0.229C322.863,227.64,331.127,227.741,331.127,227.87z"/>
	<path fill="#FF725E" d="M301.104,153.692c-0.162-0.816-0.233-1.64-0.233-2.468c-0.072-1.525-0.162-3.631-0.233-5.967
		c0-0.363,0-0.722,0-1.068h0.466c-0.205,1.762-0.655,3.483-1.346,5.114c-0.242,0.672-0.582,1.311-1.013,1.882
		c0.924-2.263,1.56-4.629,1.91-7.049h0.449c0,0.345,0,0.708,0,1.066c0.071,2.326,0.089,4.406,0.089,5.966
		C301.248,152.011,301.212,152.853,301.104,153.692z"/>
	<path fill="#FF725E" d="M303.399,154.58c-1.965,0.237-3.954,0.166-5.898-0.219c0.977-0.188,1.973-0.229,2.958-0.126
		C301.445,154.204,302.449,154.316,303.399,154.58z"/>
	<path fill="#D6D6D6" d="M354.232,170.681c-0.737,0.144-1.488,0.22-2.25,0.23c-1.409,0.088-3.361,0.187-5.604,0.272h-0.573
		l0.403-0.403c0.37-0.373,0.742-0.768,1.103-1.176c0.834-0.854,1.4-1.945,1.595-3.128c0.182-0.945-0.14-1.918-0.823-2.592
		c-0.485-0.43-1.122-0.652-1.775-0.612c-0.231,0.035-0.476,0.084-0.71,0.156c0,0,0.188-0.238,0.692-0.335
		c0.719-0.112,1.435,0.089,1.997,0.545c0.827,0.713,1.229,1.807,1.048,2.883c-0.186,1.277-0.77,2.46-1.664,3.383
		c-0.379,0.426-0.756,0.82-1.13,1.193l-0.165-0.389c2.227-0.062,4.198-0.103,5.604-0.112
		C352.733,170.556,353.488,170.587,354.232,170.681z"/>
	<path fill="#FF725E" d="M296.944,244.087c0.25,0.019,0.503,0.054,0.753,0.104c0.646,0.064,1.31-0.072,1.9-0.377
		c0.871-0.42,1.489-1.24,1.651-2.195c0.125-1.173-0.369-2.331-1.319-3.039c-0.206-0.143-0.421-0.265-0.654-0.354l-0.575-0.236
		l0.575-0.194c1.049-0.313,1.765-1.277,1.765-2.371c-0.025-0.872-0.636-1.622-1.497-1.824c-0.573-0.091-1.165,0.103-1.578,0.52
		c-0.306,0.301-0.358,0.549-0.394,0.529c-0.055-0.021,0-0.272,0.258-0.642c0.432-0.52,1.095-0.788,1.766-0.717
		c1.021,0.184,1.794,1.055,1.857,2.098c0.045,1.285-0.763,2.444-1.99,2.837v-0.402c0.279,0.103,0.528,0.239,0.761,0.411
		c1.093,0.802,1.65,2.134,1.47,3.474c-0.195,1.075-0.913,1.991-1.917,2.42c-0.646,0.312-1.38,0.404-2.08,0.272
		C297.426,244.362,297.168,244.261,296.944,244.087z"/>
	<path fill="#D6D6D6" d="M350.949,256.891c0,0,0,0.18-0.195,0.416c-0.27,0.323-0.644,0.551-1.06,0.65
		c-0.605,0.166-1.272,0.098-1.837-0.184c-0.696-0.381-1.226-1.012-1.479-1.762c-0.252-0.715-0.341-1.48-0.244-2.231
		c0.081-0.601,0.231-1.192,0.448-1.762c0.153-0.53,0.404-1.029,0.725-1.472c-0.089,0.534-0.223,1.063-0.409,1.568
		c-0.432,1.192-0.465,2.499-0.082,3.713c0.225,0.634,0.654,1.171,1.228,1.524c0.484,0.253,1.042,0.337,1.577,0.236
		C350.126,257.496,350.592,257.252,350.949,256.891z"/>
	<path fill="#D6D6D6" d="M350.592,268.53c-0.181-2.758-0.214-5.522-0.088-8.281c-0.029-2.767,0.088-5.534,0.367-8.286
		c0.179,2.762,0.206,5.533,0.088,8.295C350.987,263.022,350.86,265.789,350.592,268.53z"/>
	<path fill="#FFFFFF" d="M250.29,135.404l-17.052-0.082c-2.331,0.045-4.197,1.973-4.16,4.313v3.093
		c0.044,2.34-1.811,4.272-4.161,4.317l0,0l-33.259-0.157c-2.332-0.063-4.187-2.009-4.124-4.344v-3.105
		c0.053-2.335-1.794-4.282-4.134-4.344h-5.999l-14.988-0.062c-7.398-0.027-13.421,5.934-13.466,13.336l-0.888,215.401
		c-0.035,7.416,5.935,13.437,13.35,13.482c0,0,0.01,0,0.019,0l87.84,0.404c7.424,0.034,13.457-5.935,13.502-13.35
		c0-0.008,0-0.008,0-0.018l0.878-215.401C263.665,141.477,257.694,135.448,250.29,135.404z"/>
	<path fill="#D6D6D6" d="M263.046,143.669c-1.138-2.789-3.146-5.132-5.737-6.67c-1.57-0.945-3.327-1.545-5.139-1.762
		c-0.357-0.071-0.716-0.103-1.085-0.108h-0.329h-0.466h-1.831l-14.101-0.115h-0.539c-0.761-0.063-1.532,0.04-2.25,0.3
		c-0.986,0.385-1.812,1.106-2.322,2.04c-0.276,0.475-0.458,0.998-0.557,1.542c-0.062,0.412-0.089,0.838-0.082,1.26v2.209
		c0.02,0.444-0.017,0.889-0.088,1.323c-0.233,1.027-0.879,1.919-1.766,2.478c-0.458,0.281-0.961,0.459-1.497,0.521
		c-0.36,0-0.727,0-1.131,0h-0.664l-30.355-0.17c-0.252,0-0.521,0-0.779,0c-0.529,0.032-1.066-0.008-1.587-0.112
		c-0.726-0.188-1.38-0.6-1.865-1.175c-0.494-0.582-0.798-1.294-0.878-2.053c-0.036-0.539-0.036-1.082,0-1.623
		c0-0.309,0-0.623,0-0.933v-0.458c0.055-0.783-0.044-1.563-0.287-2.308c-0.663-1.962-2.545-3.247-4.609-3.156l-20.099-0.107
		c-4.302-0.179-8.455,1.645-11.242,4.937c-1.417,1.663-2.431,3.635-2.951,5.755c-0.089,0.354-0.151,0.713-0.206,1.075
		c0,0.184-0.054,0.367-0.09,0.596v0.381c0,0.421-0.054,0.884-0.054,1.27l-0.986,214.473c-0.052,1.577,0.134,3.137,0.557,4.662
		c0.896,3.064,2.815,5.737,5.442,7.566c2.627,1.795,5.765,2.682,8.938,2.511l79.225,0.36h3.004h2.636c0.951,0,1.9,0,2.843,0
		c2.914-0.164,5.71-1.241,7.987-3.07c1.11-0.911,2.081-1.97,2.878-3.172c0.781-1.183,1.371-2.491,1.765-3.865
		c0.376-1.37,0.566-2.787,0.539-4.204l0.521-132.505l0.259-82.103C264.105,147.345,263.756,145.443,263.046,143.669z
		 M251.087,135.793c0.332,0.005,0.655,0.041,0.968,0.104c1.731,0.241,3.381,0.841,4.869,1.763c2.438,1.473,4.322,3.696,5.396,6.337
		c1.022,2.31,0.97,5.183,0.879,8.221c0,1.094-0.045,2.232,0,3.385l-1.005,208.246c0.02,1.311-0.143,2.628-0.502,3.893
		c-0.357,1.274-0.913,2.474-1.648,3.586c-0.727,1.096-1.614,2.08-2.636,2.925c-2.097,1.685-4.662,2.671-7.343,2.814
		c-1.766,0.053-3.612,0-5.387,0h-3.013l-79.234-0.378c-2.949,0.18-5.873-0.609-8.32-2.259c-2.429-1.712-4.196-4.197-5.012-7.054
		c-0.385-1.409-0.564-2.871-0.511-4.332l0.88-211.228c0-0.61,0-1.22,0-1.824c-0.082-1.52,0.035-3.043,0.349-4.532
		c0.465-1.99,1.389-3.839,2.698-5.408c2.6-3.073,6.473-4.767,10.488-4.592l20.109,0.076c0.814-0.04,1.613,0.18,2.287,0.638
		c0.663,0.466,1.146,1.124,1.416,1.887c0.215,0.631,0.287,1.301,0.233,1.964v0.484c0,0.31,0,0.609,0,0.883
		c-0.037,0.586-0.037,1.174,0,1.763c0.116,0.944,0.52,1.837,1.138,2.555c0.601,0.726,1.425,1.241,2.34,1.464
		c0.447,0.108,0.896,0.158,1.354,0.139l31.602,0.117c0.216,0,0.431,0,0.654,0c0.404,0.021,0.815,0.021,1.229,0
		c0.663-0.078,1.291-0.297,1.855-0.646c1.085-0.676,1.846-1.77,2.117-3.022c0.097-0.493,0.134-0.995,0.115-1.496v-2.218
		c-0.018-0.373,0-0.75,0.053-1.122c0.082-0.447,0.233-0.883,0.466-1.286c0.42-0.762,1.093-1.358,1.909-1.681
		c0.619-0.218,1.282-0.309,1.937-0.255h0.546h14.103c1.085,0,1.694,0,1.766,0h0.43C250.809,135.785,250.936,135.785,251.087,135.793
		z"/>
	<path fill="#DBDBDB" d="M159.275,340.78c-0.135,0-0.968-39.007-1.883-87.121c-0.906-48.12-1.532-87.147-1.407-87.147
		c0.126,0,0.968,38.999,1.875,87.136C158.754,301.793,159.401,340.78,159.275,340.78z"/>
	<path fill="#D6D6D6" d="M247.403,164.177c0,0.135-20.943,0.228-46.781,0.228c-25.828,0-46.79-0.093-46.79-0.228
		c0-0.129,20.944-0.229,46.79-0.229C226.479,163.948,247.403,164.055,247.403,164.177z"/>
	<path fill="#DBDBDB" d="M258.519,349.559c-0.134,0-0.241-43.331-0.241-96.775c0-53.44,0.107-96.792,0.241-96.792
		c0.126,0,0.225,43.325,0.225,96.792C258.744,306.257,258.646,349.559,258.519,349.559z"/>
	<path fill="#DBDBDB" d="M260.276,349.559c0,0.126-23.057,0.231-51.46,0.231c-28.418,0-51.477-0.105-51.477-0.231
		c0-0.125,23.041-0.225,51.477-0.225C237.236,349.334,260.276,349.434,260.276,349.559z"/>
	<path fill="#D6D6D6" d="M249.106,170.426c0.143,0.017,0.287,0.058,0.421,0.116c0.171,0.049,0.333,0.116,0.494,0.202
		c0.224,0.104,0.438,0.225,0.646,0.363c2.242,1.538,3.424,4.217,3.047,6.917c-0.196,1.25-0.78,2.415-1.659,3.329
		c-0.959,1.015-2.179,1.74-3.523,2.099c-2.978,0.887-6.186-0.385-7.737-3.076c-0.743-1.179-1.155-2.537-1.192-3.931
		c-0.053-1.259,0.251-2.509,0.878-3.603c0.555-0.942,1.31-1.749,2.205-2.372c1.291-0.915,2.832-1.413,4.411-1.427
		c0.242-0.027,0.483-0.027,0.726,0c0.179,0.01,0.358,0.037,0.529,0.077c0.143,0.022,0.288,0.063,0.43,0.117
		c0,0.054-0.61-0.107-1.686-0.054c-1.524,0.085-2.978,0.613-4.213,1.515c-0.833,0.614-1.543,1.395-2.062,2.291
		c-0.593,1.04-0.87,2.224-0.807,3.412c0.035,1.313,0.43,2.596,1.139,3.703c0.744,1.188,1.837,2.11,3.129,2.645
		c1.318,0.502,2.762,0.57,4.114,0.193c1.265-0.304,2.43-0.955,3.344-1.879c0.843-0.847,1.398-1.932,1.596-3.103
		c0.162-1.025,0.09-2.074-0.224-3.066c-0.43-1.461-1.327-2.738-2.555-3.64C250.093,170.941,249.608,170.667,249.106,170.426z"/>
	<path fill="#D6D6D6" d="M243.01,180.533c0.682-1.447,1.497-2.828,2.439-4.125c0.807-1.379,1.748-2.675,2.815-3.877
		c-0.681,1.448-1.506,2.829-2.44,4.125C245.019,178.037,244.068,179.337,243.01,180.533z"/>
	<path fill="#D6D6D6" d="M251.311,181.188c-1.613-1.075-3.155-2.271-4.589-3.577c-1.524-1.196-2.959-2.505-4.286-3.921
		c1.622,1.063,3.156,2.253,4.59,3.568C248.551,178.454,249.985,179.766,251.311,181.188z"/>
	<path fill="#DBDBDB" d="M173.495,269.068c-0.126,0-0.234-14.354-0.234-32.039c0-17.689,0.109-32.048,0.234-32.048
		c0.116,0,0.223,14.34,0.223,32.048C173.717,254.733,173.61,269.068,173.495,269.068z"/>
	<path fill="#DBDBDB" d="M244.185,268.494c0,0.118-15.771,0.228-35.207,0.228c-19.438,0-35.198-0.109-35.198-0.228
		c0-0.124,15.76-0.23,35.198-0.23C228.414,268.264,244.185,268.37,244.185,268.494z"/>
	<path fill="#DBDBDB" d="M243.323,209.003c0.116,0,0.225,13.218,0.225,29.602c0,16.383-0.107,29.605-0.225,29.605
		c-0.125,0-0.224-13.22-0.224-29.605C243.099,222.222,243.188,209.003,243.323,209.003z"/>
	<path fill="#DBDBDB" d="M244.185,206.712c0,0.121-16.021,0.228-35.782,0.228c-19.758,0-35.78-0.106-35.78-0.228
		c0-0.126,16.021-0.242,35.78-0.242C228.164,206.47,244.185,206.577,244.185,206.712z"/>
	<path fill="#4FC0D0" d="M207.884,253.986c-0.1-0.131-0.18-0.27-0.252-0.418l-0.644-1.232c-0.565-1.065-1.38-2.644-2.457-4.487
		c-1.076-1.843-2.413-4.061-4.007-6.433c-0.771-1.17-1.659-2.433-2.538-3.595c-0.394-0.614-1.111-0.956-1.847-0.884
		c-0.735,0.198-1.416,0.613-1.918,1.192c-4.501,4.793-8.321,9.39-11.028,12.757l-3.173,4.014l-0.88,1.094
		c-0.097,0.129-0.215,0.251-0.331,0.364c0.063-0.153,0.144-0.292,0.242-0.418l0.806-1.144c0.7-0.989,1.757-2.398,3.058-4.109
		c2.645-3.431,6.428-8.058,10.955-12.894c0.584-0.642,1.345-1.094,2.188-1.305c0.439-0.071,0.897,0,1.301,0.212
		c0.357,0.207,0.69,0.479,0.95,0.812c0.968,1.27,1.765,2.503,2.582,3.704c1.577,2.388,2.886,4.607,3.935,6.504
		c1.051,1.891,1.82,3.469,2.34,4.563c0.252,0.547,0.449,0.975,0.575,1.269C207.803,253.689,207.848,253.834,207.884,253.986z"/>
	<path fill="#4FC0D0" d="M238.016,244.809c-0.116-0.099-0.232-0.211-0.331-0.336l-0.879-0.994l-3.264-3.751
		c-2.76-3.248-6.526-7.671-10.741-12.633h0.332l-1.354,1.395l-12.586,12.715l-3.837,3.815l-1.059,1.022
		c-0.25,0.239-0.385,0.354-0.393,0.338c0.089-0.143,0.197-0.28,0.322-0.401l1.004-1.105l3.739-3.922
		c3.236-3.313,7.629-7.828,12.47-12.815l1.345-1.376l0.178-0.176l0.162,0.192l10.65,12.727l3.139,3.838l0.878,1.059
		C237.89,244.523,237.964,244.662,238.016,244.809z"/>
	<path fill="#DBDBDB" d="M205.976,218.94c0,0,0.062-0.06,0.223-0.141c0.215-0.115,0.457-0.191,0.709-0.227
		c0.914-0.154,1.856,0.026,2.644,0.501c0.575,0.329,1.041,0.793,1.382,1.357c0.393,0.655,0.555,1.422,0.466,2.173
		c-0.198,1.783-1.49,3.243-3.229,3.651c-1.766,0.256-3.505-0.609-4.366-2.165c-0.385-0.663-0.545-1.426-0.474-2.187
		c0.072-0.651,0.287-1.274,0.626-1.824c0.503-0.808,1.237-1.427,2.115-1.763c0.234-0.093,0.484-0.154,0.737-0.175
		c0.17,0,0.251,0,0.251,0s-0.341,0.075-0.879,0.331c-0.798,0.381-1.461,0.995-1.9,1.762c-0.304,0.52-0.484,1.097-0.539,1.694
		c-0.045,0.676,0.117,1.353,0.457,1.938c0.798,1.379,2.34,2.142,3.916,1.931c1.543-0.372,2.701-1.663,2.898-3.24
		c0.089-0.674-0.045-1.359-0.367-1.952c-0.289-0.506-0.699-0.936-1.202-1.25c-0.735-0.479-1.614-0.694-2.492-0.611
		C206.314,218.821,205.993,218.986,205.976,218.94z"/>
	<path fill="#DBDBDB" d="M235.155,285.083c-0.179,0.052-0.368,0.088-0.555,0.088l-1.605,0.161l-5.917,0.502
		c-2.511,0.181-5.459,0.477-8.813,0.655c-0.86,0.027-1.73-0.037-2.582-0.179c-0.888-0.179-1.749-0.477-2.555-0.881
		c-0.815-0.411-1.641-0.778-2.493-1.083c-0.852-0.331-1.784-0.368-2.644-0.098c-1.758,0.601-2.779,2.375-4.501,3.218
		c-0.851,0.42-1.846,0.468-2.733,0.143c-0.809-0.33-1.57-0.761-2.261-1.284c-0.636-0.472-1.317-0.869-2.043-1.188
		c-0.673-0.289-1.417-0.358-2.134-0.217c-1.299,0.367-2.527,0.933-3.658,1.668c-0.977,0.607-2.098,0.95-3.255,0.968
		c-0.895-0.034-1.721-0.5-2.241-1.231c-0.35-0.443-0.503-1.01-0.413-1.571c0.027-0.19,0.108-0.369,0.215-0.522
		c0,0-0.071,0.179-0.125,0.538c-0.037,0.527,0.125,1.039,0.466,1.441c0.501,0.666,1.273,1.068,2.115,1.087
		c1.112-0.045,2.188-0.395,3.12-1.005c1.147-0.781,2.404-1.372,3.748-1.766c0.781-0.162,1.596-0.089,2.339,0.207
		c0.753,0.333,1.479,0.745,2.144,1.228c0.664,0.492,1.388,0.896,2.151,1.22c0.789,0.287,1.668,0.233,2.412-0.142
		c1.56-0.747,2.582-2.513,4.537-3.211c0.959-0.296,1.981-0.269,2.914,0.088c0.878,0.324,1.721,0.701,2.546,1.115
		c0.78,0.413,1.604,0.697,2.455,0.886c0.824,0.144,1.649,0.208,2.483,0.188c3.291-0.152,6.286-0.412,8.813-0.557l5.925-0.359
		l1.623-0.071C234.806,285.083,234.986,285.083,235.155,285.083z"/>
	<path fill="#DBDBDB" d="M239.63,305.219c0,0.124-14.874,0.23-33.207,0.23c-18.342,0-33.215-0.106-33.215-0.23
		c0-0.126,14.864-0.235,33.215-0.235C224.774,304.983,239.63,305.083,239.63,305.219z"/>
	<path fill="#DBDBDB" d="M242.616,311.41c0,0.119-15.277,0.224-34.085,0.224c-18.819,0-34.085-0.104-34.085-0.224
		c0-0.123,15.257-0.232,34.085-0.232C227.356,311.178,242.616,311.287,242.616,311.41z"/>
	<path fill="#DBDBDB" d="M242.857,319.096c0,0.126-15.205,0.231-33.96,0.231s-33.951-0.105-33.951-0.231
		c0-0.125,15.187-0.197,33.951-0.197C227.662,318.898,242.857,318.961,242.857,319.096z"/>
	<path fill="#DBDBDB" d="M197.412,340.298c-0.573,0.26-1.039,0.718-1.337,1.281c-0.295,0.592-0.313,1.291-0.062,1.901
		c0.593,1.041,1.92,1.396,2.959,0.797c0.368-0.207,0.664-0.528,0.86-0.905c0.215-0.629,0.163-1.328-0.169-1.901
		c-0.323-0.537-0.817-0.968-1.408-1.201c0.189-0.036,0.376-0.009,0.539,0.072c0.484,0.196,0.878,0.536,1.147,0.968
		c0.431,0.662,0.529,1.47,0.288,2.215c-0.592,1.282-2.117,1.854-3.406,1.264c-0.512-0.242-0.933-0.646-1.201-1.139
		c-0.279-0.726-0.216-1.55,0.179-2.225c0.233-0.456,0.61-0.815,1.076-1.031C197.215,340.262,197.412,340.271,197.412,340.298z"/>
	<path fill="#DBDBDB" d="M205.213,339.866c0.196-0.046,0.412-0.018,0.592,0.063c0.521,0.198,0.969,0.537,1.272,1.005
		c0.485,0.717,0.601,1.595,0.332,2.421c-0.636,1.361-2.269,1.962-3.64,1.327c-0.583-0.278-1.058-0.755-1.336-1.327
		c-0.26-0.826-0.125-1.713,0.348-2.421c0.297-0.468,0.745-0.835,1.265-1.022c0.197-0.091,0.403-0.107,0.61-0.063
		c0,0-0.216,0.072-0.539,0.224c-0.448,0.234-0.825,0.592-1.058,1.041c-0.386,0.627-0.467,1.389-0.224,2.077
		c0.582,1.167,1.998,1.616,3.146,1.031c0.448-0.222,0.808-0.583,1.032-1.031c0.241-0.681,0.17-1.451-0.216-2.077
		c-0.241-0.449-0.619-0.807-1.065-1.041C205.418,339.938,205.203,339.911,205.213,339.866z"/>
	<path fill="#DBDBDB" d="M211.902,340.262c-0.575,0.26-1.041,0.708-1.328,1.255c-0.294,0.584-0.323,1.264-0.089,1.864
		c0.351,0.72,1.085,1.158,1.883,1.12c0.788,0.038,1.523-0.394,1.882-1.111c0.233-0.609,0.197-1.289-0.091-1.873
		c-0.286-0.547-0.752-0.994-1.325-1.255c0.187-0.027,0.376,0.009,0.537,0.1c0.456,0.212,0.833,0.564,1.076,1.003
		c0.386,0.665,0.457,1.471,0.189,2.188c-0.62,1.255-2.134,1.774-3.38,1.146c-0.503-0.241-0.916-0.643-1.157-1.146
		c-0.27-0.718-0.208-1.523,0.188-2.188c0.242-0.438,0.619-0.791,1.076-1.003C211.524,340.271,211.714,340.234,211.902,340.262z"/>
	<polygon fill="#FFBE9D" points="358.391,429.92 361.602,445.092 372.232,446.042 376.697,441.002 372.609,422.895 	"/>
	<path fill="#FF725E" d="M378.815,439.317l0.042,1.181c0,0,20.325,7.497,20.65,11.297l-39.916,0.962l0.232-13.296
		C365.822,442.061,372.047,442.231,378.815,439.317z"/>
	<g opacity="0.6">
		<path fill="#FFFFFF" d="M363.969,443.603c-0.792,0.269-1.256,1.074-1.086,1.893c0.241,0.799,1.048,1.274,1.865,1.085
			c0.834-0.271,1.323-1.139,1.13-1.99c-0.323-0.818-1.23-1.22-2.054-0.935"/>
	</g>
	<path fill="#263238" d="M359.592,452.757l0.064-3.201l38.237,0.271c0,0,2.149,1.057,1.936,3.137L359.592,452.757z"/>
	<path fill="#263238" d="M379.003,440.616c0,0.2-0.978,0.295-1.927,0.959c-0.934,0.646-1.434,1.472-1.615,1.399
		c-0.173-0.071,0.091-1.201,1.236-1.973C377.854,440.24,379.029,440.431,379.003,440.616z"/>
	<path fill="#263238" d="M383.225,442.286c0.052,0.186-0.791,0.537-1.436,1.37c-0.644,0.843-0.806,1.765-1.004,1.765
		c-0.197,0-0.338-1.112,0.484-2.133C382.088,442.267,383.208,442.061,383.225,442.286z"/>
	<path fill="#263238" d="M385.709,447.207c-0.182,0.037-0.478-0.931,0-2.008c0.473-1.074,1.372-1.524,1.458-1.362
		c0.092,0.16-0.454,0.735-0.841,1.639C385.951,446.373,385.916,447.172,385.709,447.207z"/>
	<path fill="#FFBE9D" d="M296.641,426.356c-0.162,0.5,0,19.388,0,19.388l5.96,3.524l7.783-4.661l1.639-18.271L296.641,426.356z"/>
	<path fill="#FF725E" d="M310.939,442.975c0,0-10.579,7.521-15.733,1.003l-1.345,3.157l-5.979,22.468
		c-0.422,1.459,0.306,3.002,1.695,3.603c1.057,0.432,2.257,0.198,3.083-0.591c4.355-4.144,20.323-19.482,20.17-21.562l-0.062-5.513
		c-0.011-1.146-0.709-2.164-1.768-2.582L310.939,442.975z"/>
	<path fill="#263238" d="M290.05,473.385l22.745-24.224v1.201c0.091,1.006-0.314,1.993-1.075,2.656
		c-5.962,7.171-12.345,13.984-19.105,20.413c-0.708,0.673-2.035,0.079-2.554-0.063L290.05,473.385z"/>
	<g opacity="0.6">
		<path fill="#FFFFFF" d="M309.459,445.575c-0.717,0.519-0.931,1.516-0.484,2.296c0.502,0.742,1.496,0.967,2.268,0.51
			c0.771-0.563,0.996-1.61,0.512-2.438c-0.608-0.726-1.686-0.851-2.43-0.261"/>
	</g>
	<path fill="#263238" d="M296.604,460.978c-0.163,0.08-0.79-1.416-2.483-2.223c-1.695-0.809-3.238-0.467-3.274-0.646
		c-0.035-0.172,0.342-0.276,1.005-0.378c1.783-0.179,3.524,0.68,4.456,2.226C296.641,460.538,296.692,460.96,296.604,460.978z"/>
	<path fill="#263238" d="M300.405,456.119c-0.143,0.124-1.532-1.311-3.747-2.169c-2.223-0.873-4.213-0.818-4.232-1.006
		c0-0.197,2.081-0.539,4.455,0.412C299.257,454.324,300.538,456.028,300.405,456.119z"/>
	<path fill="#263238" d="M300.907,449.269c-0.082,0.172-1.65-0.501-3.694-0.573c-2.043-0.082-3.667,0.403-3.73,0.222
		c-0.054-0.169,1.561-0.966,3.757-0.876C299.437,448.121,300.996,449.135,300.907,449.269z"/>
	<path fill="#263238" d="M296.047,448.621c-0.026-0.356,0.027-0.717,0.162-1.057c0.27-0.97,0.735-1.864,1.363-2.644
		c0.394-0.614,0.994-1.068,1.685-1.3c0.485-0.108,0.986,0.092,1.255,0.502c0.223,0.402,0.296,0.877,0.198,1.345
		c-0.485,1.908-2.278,3.209-4.25,3.082c-1.927-0.16-3.567-1.472-4.161-3.326c-0.144-0.456-0.071-0.958,0.179-1.372
		c0.305-0.393,0.834-0.537,1.3-0.375c0.655,0.287,1.237,0.735,1.659,1.308c0.654,0.755,1.165,1.605,1.505,2.528
		c0.152,0.33,0.233,0.682,0.243,1.051c-0.521-1.192-1.221-2.305-2.073-3.291c-0.394-0.475-0.905-0.86-1.479-1.095
		c-0.25-0.097-0.538-0.017-0.708,0.199c-0.134,0.268-0.161,0.591-0.072,0.878c0.557,1.576,1.982,2.69,3.641,2.84
		c1.667,0.1,3.182-0.958,3.655-2.562c0.073-0.314,0.039-0.656-0.105-0.942c-0.145-0.233-0.421-0.359-0.691-0.287
		c-0.582,0.197-1.085,0.572-1.444,1.076C297.087,446.203,296.459,447.368,296.047,448.621z"/>
	<path fill="#263238" d="M322.782,157.041c0.108-0.265,0.269-0.49,0.502-0.655c1.157-1.026,1.836-2.484,1.882-4.026
		c0.018-1.56-0.789-3.012-2.116-3.819c1.955-1.303,2.151-4.406,0.611-6.231c-1.668-1.748-4.25-2.303-6.492-1.397
		c0.396-1.43-0.197-2.947-1.453-3.73c-1.256-0.74-2.708-1.05-4.162-0.879c-1.917,0.12-4.087,0.879-4.758,2.712
		c-0.387-1.129-1.769-1.614-2.914-1.605c-3.301,0.121-5.991,2.703-6.224,5.992c-1.102-0.519-2.33-0.69-3.531-0.493
		c-1.22,0.251-2.133,1.291-2.224,2.537c-0.879-0.851-2.134-1.187-3.325-0.878c-0.871,0.086-1.695,0.439-2.358,1.004
		c-0.664,0.591-0.889,1.533-0.556,2.362c-1.856-0.232-3.542,1.076-3.776,2.928c-0.206,1.649,0.816,3.204,2.412,3.661
		c-1.731,1.627-1.82,4.349-0.197,6.083c0.466,0.494,1.041,0.871,1.678,1.103c-0.575,0.3-0.798,1.009-0.493,1.583
		c0.044,0.085,0.108,0.165,0.17,0.242c0.529,0.515,1.282,0.744,2.007,0.614l0.977,7.478c0.126,1.619,0.512,3.205,1.14,4.703
		c0.636,1.52,1.962,2.639,3.568,3.025l28.911-13.327c1.884-2.28,2.269-5.451,0.986-8.117
		C322.871,157.659,322.782,157.349,322.782,157.041z"/>
	<path fill="#FFBE9D" d="M321.042,158.894c-1.112-5.985-8.336-11.221-14.271-9.864l-17.555,5.949l0.466,3.232l4.661,39.299
		c0.763,6.248,4.94,11.083,11.206,10.506l0,0c6.394-0.6,11.09-6.266,10.49-12.657c-0.017-0.243-0.055-0.486-0.089-0.723
		l-0.547-3.358c0,0,7.558-2.214,7.934-12.462C323.516,173.707,322.254,165.553,321.042,158.894z"/>
	<path fill="#263238" d="M319.743,166.794c0.089,0.699-0.386,1.341-1.085,1.458c-0.673,0.134-1.327-0.301-1.471-0.974
		c0-0.009,0-0.021,0-0.035c-0.089-0.695,0.386-1.341,1.074-1.455c0.682-0.133,1.336,0.297,1.472,0.968
		C319.734,166.771,319.734,166.786,319.743,166.794z"/>
	<path fill="#263238" d="M319.787,163.365c-0.144,0.199-1.212-0.413-2.591-0.247c-1.389,0.171-2.322,0.995-2.501,0.839
		c-0.171-0.158,0-0.385,0.448-0.757c1.121-1.004,2.743-1.197,4.062-0.476C319.671,162.998,319.859,163.29,319.787,163.365z"/>
	<path fill="#263238" d="M307.451,168.822c0.09,0.7-0.385,1.343-1.075,1.457c-0.682,0.135-1.326-0.299-1.47-0.972
		c0-0.01,0-0.023,0-0.032c-0.089-0.699,0.385-1.341,1.076-1.447c0.68-0.135,1.326,0.296,1.469,0.967
		C307.451,168.803,307.451,168.812,307.451,168.822z"/>
	<path fill="#263238" d="M306.25,165.553c-0.143,0.184-1.21-0.421-2.591-0.247c-1.389,0.174-2.32,0.986-2.501,0.838
		c-0.171-0.153,0.054-0.391,0.447-0.767c0.556-0.493,1.248-0.803,1.982-0.883c0.717-0.091,1.442,0.053,2.077,0.402
		C306.133,165.2,306.322,165.491,306.25,165.553z"/>
	<path fill="#263238" d="M312.463,174.967c0.7-0.323,1.443-0.552,2.195-0.69c0.351-0.077,0.683-0.184,0.71-0.43
		c-0.011-0.372-0.135-0.727-0.359-1.024l-1.372-2.571c-1.919-3.667-3.362-6.697-3.211-6.769c0.145-0.072,1.82,2.829,3.748,6.497
		l1.327,2.588c0.27,0.4,0.396,0.884,0.358,1.368c-0.068,0.264-0.268,0.484-0.518,0.587c-0.197,0.077-0.395,0.129-0.594,0.162
		C313.995,174.868,313.224,174.963,312.463,174.967z"/>
	<path fill="#EB996E" d="M315.402,191.26c-4.724,0.664-9.53,0-13.896-1.913c0,0,4.402,6.594,14.372,4.407L315.402,191.26z"/>
	<path fill="#EB996E" d="M312.274,178.377c-0.618-0.608-1.506-0.86-2.348-0.664c-0.609,0.135-1.148,0.512-1.471,1.041
		c-0.323,0.521-0.287,1.185,0.09,1.667c0.51,0.458,1.255,0.552,1.874,0.238c0.618-0.31,1.183-0.739,1.64-1.269
		c0.144-0.13,0.261-0.287,0.35-0.461c0.081-0.17,0.054-0.373-0.07-0.52"/>
	<path fill="#263238" d="M308.49,176.418c0.225-0.045,0.414,1.465,1.831,2.371c1.416,0.908,3.003,0.558,3.039,0.769
		c0.036,0.208-0.322,0.333-0.997,0.429c-0.876,0.12-1.774-0.073-2.527-0.543c-0.716-0.462-1.238-1.18-1.435-2.014
		C308.267,176.817,308.384,176.418,308.49,176.418z"/>
	<path fill="#455A64" d="M320.216,171.847c1.184-0.3,2.646-0.749,3.03-1.25c0.574-0.754,0.879-3.283,1.176-5.663
		c0-0.309,0.054-0.509,0.061-0.568L324,164.241c-0.036,0.21-0.071,0.421-0.08,0.637c-0.144,1.277-0.51,4.68-1.067,5.411
		c-0.557,0.73-7.046,2.098-7.728,1.762c-0.413-0.265-1.694-3.094-2.474-5.017l-0.073-0.175l-2.581,0.255v0.175
		c-0.313,1.412-1.354,5.289-2.384,6.074c-1.292,1.03-6.851,1.339-7.352,0.81c-1.049-1.886-1.963-3.844-2.726-5.862l-0.089-0.184
		l-7.801,1.314l0.092,0.502l7.386-1.278c0.429,1.039,2.169,5.216,2.743,5.832c0.807,0.838,6.725,0.273,8.034-0.763
		c1.298-1.039,2.302-5.245,2.525-6.172l1.839-0.184c0.458,1.085,1.945,4.663,2.646,5.074c0.698,0.418,3.819-0.254,4.178-0.331
		C319.446,172.04,319.76,171.959,320.216,171.847z"/>
	<path fill="#455A64" d="M309.96,167.978l0.396-0.927c-3.667-1.515-9.807-1.542-13.34,1.048l0.594,0.812
		C300.763,166.603,306.538,166.566,309.96,167.978z"/>
	<path fill="#455A64" d="M324.243,164.917l0.26-0.979c-4.348-1.103-9.566,0.126-12.425,2.909l0.707,0.723
		C315.357,165.051,320.289,163.903,324.243,164.917z"/>
	<path fill="#263238" d="M306.062,160.563c-0.08,0.399-1.498,0.39-3.102,0.775c-1.606,0.39-2.86,1.006-3.121,0.686
		c-0.117-0.146,0.071-0.523,0.557-0.958c1.326-1.076,3.074-1.488,4.743-1.11C305.766,160.125,306.107,160.38,306.062,160.563z"/>
	<path fill="#263238" d="M318.783,159.386c-0.208,0.34-1.201,0.128-2.349,0.254c-1.146,0.12-2.097,0.465-2.357,0.166
		c-0.125-0.148,0-0.484,0.385-0.884c0.521-0.43,1.166-0.69,1.847-0.749c0.673-0.071,1.363,0.077,1.953,0.417
		C318.729,158.94,318.872,159.251,318.783,159.386z"/>
	<path fill="#263238" d="M293.322,167.543c0.153,2.067,0,4.147-0.446,6.173c-0.18,0.879-0.521,1.816-1.345,2.103
		c-0.808,0.197-1.64-0.161-2.054-0.879c-0.401-0.689-0.626-1.465-0.653-2.264c-0.234-2.82-0.288-5.648-0.145-8.472"/>
	<path fill="#FFBE9D" d="M291.404,170.18c-0.126-0.044-5.29-1.153-4.752,3.984c0.539,5.138,5.595,3.523,5.585,3.395
		C292.229,177.424,291.404,170.18,291.404,170.18z"/>
	<path fill="#EB996E" d="M290.525,175.769c0,0-0.089,0.077-0.232,0.157c-0.197,0.116-0.439,0.146-0.663,0.089
		c-0.718-0.362-1.193-1.081-1.238-1.888c-0.052-0.439-0.017-0.883,0.126-1.305c0.053-0.336,0.287-0.623,0.601-0.757
		c0.207-0.081,0.439,0.004,0.548,0.193c0.088,0.135,0.071,0.239,0.088,0.246c0.037,0.009,0.107-0.094,0-0.309
		c-0.035-0.121-0.125-0.229-0.232-0.3c-0.144-0.089-0.331-0.121-0.502-0.076c-0.429,0.116-0.762,0.453-0.877,0.878
		c-0.179,0.471-0.233,0.978-0.162,1.475c0.045,0.937,0.644,1.756,1.533,2.08c0.296,0.054,0.581-0.026,0.815-0.22
		C290.525,175.899,290.525,175.778,290.525,175.769z"/>
	<path fill="#263238" d="M315.494,147.802c1.209,2.435,0.224,5.384-2.214,6.595c-1.209,0.604-2.618,0.681-3.892,0.211
		c0.709,0.65,0.827,1.73,0.251,2.509c-0.581,0.739-1.434,1.216-2.366,1.332c-1.956,0.354-3.962-0.166-5.506-1.416
		c-0.017,2.752-2.269,4.971-5.021,4.949c-0.521-0.004-1.039-0.089-1.532-0.252c2.018,1.507,2.43,4.372,0.923,6.388
		c-1.506,2.022-4.374,2.434-6.393,0.923c-0.689-0.514-1.22-1.219-1.533-2.024c-2.696-0.776-4.266-3.596-3.487-6.303
		c0.135-0.438,0.315-0.866,0.557-1.26c-1.067-0.25-1.908-1.048-2.215-2.099c-0.304-1.03-0.321-2.124-0.071-3.169
		c0.447-2.612,1.937-4.931,4.123-6.428c2.242-1.46,5.162-1.413,7.352,0.135c0.216,0.211,0.484,0.359,0.771,0.413
		c0.405,0,0.717-0.34,0.95-0.669c1.066-1.438,2.178-2.979,3.838-3.657c2.081-0.802,4.427-0.071,5.694,1.762
		c0.94-2.287,3.262-3.689,5.728-3.457c2.366,0.382,4.231,3.054,3.408,5.291"/>
	<path fill="#FFFFFF" d="M301.391,156.046c0,0,0.063,0,0.171,0h0.484c0.61,0,1.229-0.078,1.82-0.234
		c0.421-0.107,0.834-0.27,1.219-0.484c0.458-0.255,0.862-0.601,1.185-1.013c0.356-0.48,0.601-1.036,0.698-1.633
		c0.108-0.667-0.026-1.353-0.393-1.926l-0.144,0.155c1.291,0.698,2.779,0.96,4.251,0.74c0.788-0.106,1.559-0.367,2.267-0.758
		c0.368-0.191,0.709-0.448,1.004-0.747c0.313-0.314,0.529-0.712,0.619-1.144c0.089-0.502,0.072-1.018-0.063-1.51
		c-0.115-0.466-0.279-0.918-0.458-1.363c-0.16-0.444-0.394-0.86-0.689-1.237c-0.288-0.396-0.737-0.642-1.23-0.669v0.247
		c0.915,0.158,1.84,0.009,2.655-0.42c0.717-0.385,1.328-0.959,1.758-1.667c0.375-0.637,0.556-1.367,0.511-2.106
		c-0.118-1.51-1.03-2.851-2.395-3.524c-0.269-0.144-0.574-0.232-0.877-0.272c0.304,0.098,0.59,0.21,0.877,0.344
		c0.753,0.4,1.364,1.014,1.766,1.763c0.278,0.529,0.441,1.116,0.475,1.717c0.037,0.696-0.143,1.381-0.502,1.973
		c-0.412,0.671-1.004,1.219-1.703,1.57c-0.753,0.403-1.633,0.538-2.474,0.389v0.247c0.412,0.032,0.797,0.247,1.04,0.582
		c0.278,0.354,0.493,0.75,0.645,1.17c0.422,0.838,0.591,1.78,0.503,2.717c-0.217,0.774-0.752,1.42-1.487,1.761
		c-0.683,0.373-1.418,0.619-2.188,0.73c-1.398,0.22-2.842-0.021-4.097-0.685l-0.404-0.22l0.252,0.375
		c0.34,0.525,0.465,1.153,0.375,1.763c-0.09,0.565-0.305,1.098-0.645,1.55c-0.305,0.405-0.682,0.74-1.112,0.991
		c-0.375,0.214-0.771,0.385-1.184,0.5c-0.574,0.157-1.165,0.251-1.757,0.284C301.624,156.037,301.391,156.028,301.391,156.046z"/>
	<path fill="#FFFFFF" d="M316.964,151.877c0.116,0.058,0.241,0.099,0.368,0.112c0.34,0.071,0.698,0.071,1.038,0
		c0.53-0.098,1.014-0.358,1.39-0.738c0.234-0.233,0.368-0.553,0.368-0.883c0-0.381-0.233-0.726-0.582-0.878l-0.063,0.246h0.089
		c1.201,0.18,2.402-0.175,3.317-0.968c0.269-0.242,0.501-0.516,0.681-0.819c0.127-0.211,0.179-0.347,0.162-0.354
		c-0.287,0.372-0.608,0.717-0.97,1.031c-0.877,0.718-2.025,1.037-3.146,0.884h-0.089l-1.266-0.188l1.203,0.442
		c0.252,0.117,0.413,0.373,0.413,0.651c0,0.273-0.109,0.538-0.297,0.73c-0.339,0.354-0.779,0.605-1.246,0.726
		C317.877,151.935,317.419,151.939,316.964,151.877z"/>
	<path fill="#EB996E" d="M307.326,177.092c0.036,0,0.089-0.109,0.198-0.244c0.134-0.179,0.322-0.323,0.519-0.421
		c0.503-0.218,0.985-0.281,0.969-0.371c-0.359-0.089-0.754-0.045-1.077,0.135c-0.25,0.116-0.457,0.318-0.573,0.564
		C307.271,176.948,307.271,177.083,307.326,177.092z"/>
	<path fill="#EB996E" d="M306.447,177.953c0.07,0,0.134-0.394,0.278-0.879c0.134-0.488,0.313-0.831,0.26-0.883
		c-0.071-0.055-0.359,0.282-0.502,0.785C306.322,177.477,306.394,177.953,306.447,177.953z"/>
	<path fill="#263238" d="M285.433,270.234c-3.182,6.078-5.666,12.499-7.433,19.134c-3.271,11.813-6.965,17.75-5.622,39.523
		c0.682,11.121,10.312,41.285,12.525,51.9c1.82,8.736,7.541,49.794,10.427,60.641h16.575l1.696-121.53
		c0,0,26.342,70.923,29.711,79.115c3.38,8.207,15.078,40.685,15.078,40.685l20.612-5.235c0,0-12.595-58.166-15.735-72.608
		c-3.138-14.434-11.653-55.297-15.258-67.633c-3.623-12.338-7.055-25.263-7.055-25.263L285.433,270.234z"/>
	<path fill="#455A64" d="M287.451,291.751c-0.027,0.215-0.082,0.413-0.171,0.61c-0.206,0.526-0.457,1.041-0.753,1.523
		c-0.968,1.632-2.276,3.032-3.836,4.09c-1.561,1.083-3.317,1.817-5.183,2.168c-0.556,0.1-1.128,0.153-1.702,0.153
		c-0.395,0-0.628,0-0.628-0.046c0-0.053,0.888-0.107,2.258-0.432c3.605-0.841,6.76-3.028,8.822-6.103
		C287.002,292.539,287.369,291.715,287.451,291.751z"/>
	<path fill="#455A64" d="M349.688,300.591c-0.193,0.089-0.388,0.145-0.603,0.16c-0.557,0.109-1.131,0.173-1.705,0.18
		c-0.861,0.021-1.711-0.07-2.543-0.251c-1.026-0.224-2.018-0.584-2.95-1.058c-1.669-0.916-3.14-2.151-4.33-3.64
		c-0.52-0.575-0.951-1.239-1.274-1.945c0.061-0.049,0.573,0.681,1.524,1.766c1.227,1.378,2.683,2.545,4.303,3.432
		c1.633,0.853,3.443,1.337,5.288,1.39C348.8,300.645,349.679,300.501,349.688,300.591z"/>
	<path fill="#455A64" d="M313.861,293.723c0.097,0.322,0.153,0.646,0.18,0.978c0.081,0.636,0.188,1.562,0.277,2.699
		c0.207,2.275,0.359,5.443,0.322,8.929c-0.035,3.499-0.242,6.671-0.484,8.947c-0.108,1.128-0.224,2.044-0.323,2.681
		c-0.018,0.329-0.09,0.663-0.196,0.979c-0.037-0.324-0.037-0.665,0-0.995c0.053-0.745,0.106-1.643,0.179-2.7
		c0.161-2.275,0.322-5.422,0.358-8.91c0.018-3.477-0.089-6.634-0.197-8.911c-0.053-1.059-0.099-1.954-0.135-2.697
		C313.809,294.386,313.816,294.045,313.861,293.723z"/>
	<path fill="#4FC0D0" d="M347.317,291.93c0,0-8.291-56.524-9.26-63.996l-3.515-28.582l-14.2-0.74l-0.448-5.463l-28.195,1.763v5.1
		l-14.981,6.832l2.099,26.137c0,0,1.758,1.979,4.643,15.98c2.878,14.005-6.742,41.27-6.742,41.27L347.317,291.93z"/>
	<path fill="#263238" d="M295.287,201.359c-0.225-1.066-0.306-2.155-0.225-3.241c-0.082-1.087,0-2.177,0.225-3.244
		c0.223,1.067,0.313,2.157,0.223,3.244C295.59,199.204,295.51,200.297,295.287,201.359z"/>
	<path fill="#263238" d="M301.679,201.688c-0.216-1.202-0.297-2.432-0.225-3.649c-0.073-1.218,0.009-2.446,0.225-3.648
		c0.232,1.202,0.313,2.43,0.232,3.648C301.992,199.256,301.911,200.485,301.679,201.688z"/>
	<path fill="#263238" d="M308.267,200.912c-0.232-1.13-0.315-2.281-0.225-3.43c-0.09-1.143-0.008-2.294,0.225-3.419
		c0.224,1.125,0.295,2.277,0.224,3.419C308.562,198.63,308.49,199.782,308.267,200.912z"/>
	<path fill="#263238" d="M314.318,199.379c-0.314-1.973-0.314-3.98,0-5.949C314.624,195.398,314.624,197.406,314.318,199.379z"/>
	<path fill="#263238" d="M356.975,250.722c-0.179-0.491-0.251-1.016-0.214-1.541c-0.021-2.548,0.897-5.017,2.562-6.945
		c0.63-0.72,1.131-1.065,1.165-1.021c-2.327,2.617-3.584,6.012-3.531,9.507H356.975L356.975,250.722z"/>
	<g opacity="0.2">
		<path d="M284.608,241.346c-0.369-2.109-1.308-4.063-1.757-6.168l-2.025,2.898c0.761,3.252,1.435,5.87,2.205,9.122
			C284.645,245.877,284.985,243.451,284.608,241.346z"/>
	</g>
	<path fill="#263238" d="M376.105,231.125l-15.803,9.954l-9.325-23.882l0.223-0.129c0,0-1.364-2.592-5.2-9.333
		c-5.045-8.818-11.458-8.383-11.458-8.383l-7.728,11.457l8.192,17.564c0,0,14.995,27.948,19.189,29.349
		c14.488,4.823,30.504-28.501,30.504-28.501L376.105,231.125z"/>
	<g opacity="0.2">
		<path d="M340.692,251.699c0-0.933-0.538-1.78-1.379-2.182c-0.734-0.117-1.479,0.048-2.098,0.456l-58.828,29.962l-0.197,4.589
			c9.502,0.154,18.504-3.997,27.094-8.058c8.802-4.144,17.543-8.292,26.07-12.937c2.412-1.17,4.625-2.717,6.562-4.577
			C339.852,257.06,340.873,254.414,340.692,251.699z"/>
	</g>
	<path fill="#FF725E" d="M213.479,304.416L213.479,304.416c2.492,6.718,9.952,10.133,16.667,7.631
		c0.547-0.198,1.066-0.431,1.578-0.709l181.303-98.193l23.155-34.866L396.37,184.6L219.234,287.34
		C213.388,290.855,210.951,298.08,213.479,304.416z"/>
	<g opacity="0.3">
		<polygon points="396.37,184.554 219.234,287.285 221.358,291.411 399.433,189.902 		"/>
	</g>
	<g opacity="0.3">
		<polygon points="409.923,207.545 229.669,307.388 231.724,311.338 413.025,213.099 		"/>
	</g>
	<g opacity="0.3">
		<polygon points="402.753,195.604 224.363,297.183 227.213,302.654 406.04,201.122 		"/>
	</g>
	<path fill="#263238" d="M219.234,287.296c-5.863,3.523-8.311,10.784-5.756,17.12l0,0c2.492,6.718,9.952,10.133,16.667,7.631
		c0.547-0.198,1.066-0.431,1.578-0.709L219.234,287.296z"/>
	<g opacity="0.4">
		<polygon fill="#FFFFFF" points="413.025,213.099 396.37,184.554 420.733,180.694 428.229,190.211 		"/>
	</g>
	<path fill="#FFBE9D" d="M376.41,233.007l3.524-3.715c0,0-0.412-8.474,1.028-10.582l0.754-1.241c0,0-0.746-4.124,1.474-5.073
		c0.627-1.551,1.435-2.188,2.536-1.322c0,0-0.629-3.102,2.27-3.529c2.887-0.42,3.71,12.701,3.71,12.701s1.454,5.89-1.855,5.89
		c0,0-1.854,2.07-3.919,2.273c0,0-0.629,3.522-3.534,3.303L376.41,233.007z"/>
	<path fill="#EB996E" d="M385.466,226.938c0,0,0.178,0.104,0.341,0.412c0.197,0.456,0.26,0.964,0.161,1.458
		c-0.128,0.731-0.521,1.397-1.075,1.881c-0.684,0.565-1.471,0.991-2.313,1.261c-1.492,0.516-3.031,0.812-4.601,0.884
		c-0.652,0.079-1.301,0.044-1.944-0.101c2.168-0.183,4.312-0.6,6.391-1.242c0.791-0.251,1.524-0.637,2.178-1.141
		c0.521-0.422,0.881-0.991,1.05-1.631C385.779,228.116,385.716,227.496,385.466,226.938z"/>
	<path fill="#EB996E" d="M388.047,222.274c-0.143,0-0.161-2.645-0.788-5.8c-0.637-3.155-1.605-5.612-1.47-5.667
		c0.322,0.476,0.582,1.004,0.75,1.562c1.016,2.608,1.561,5.377,1.615,8.176C388.211,221.123,388.171,221.708,388.047,222.274z"/>
	<path fill="#EB996E" d="M385.545,223.719c-0.133,0-0.385-2.564-1.045-5.676c-0.668-3.111-1.464-5.573-1.33-5.618
		c0.843,1.75,1.434,3.605,1.757,5.521C385.412,219.831,385.619,221.774,385.545,223.719z"/>
	<path fill="#EB996E" d="M390.166,223.617c0.104-0.063,0.538,0.748,0.257,1.762c-0.278,1.011-1.057,1.506-1.11,1.397
		c-0.056-0.103,0.441-0.65,0.67-1.524C390.207,224.377,390.037,223.656,390.166,223.617z"/>
	<path fill="#EB996E" d="M382.088,224.203c-0.189-1.062-0.281-2.139-0.261-3.213c-0.144-1.072-0.198-2.151-0.144-3.228
		c0.414,1.017,0.609,2.106,0.592,3.2C382.418,222.042,382.353,223.146,382.088,224.203z"/>
	<path fill="#FFBE9D" d="M290.884,259.527c0.646-1.413,1.595-2.665,2.788-3.668c2.018-1.763,6.446-3.121,7.056-4.802
		c0.59-1.687,2.249-0.37,1.856,1.716c-0.243,1.341-3.003,4.842-3.003,4.842s3.226,0.803,5.378-0.433
		c2.152-1.234,9.699-3.463,10.461-2.404c0.763,1.057-1.056,1.573-1.899,2.063c-0.647,0.356-5.639,2.837-5.639,2.837
		s9.95-0.336,11.196,0.139c1.248,0.475,0,1.713-0.653,1.76c-0.406,0-2.099,1.543-3.309,2.645c-0.816,0.768-1.892,1.207-3.021,1.218
		h-2.305l7.056,0.742c0,0,1.204,1.111-0.484,1.687c-0.753,0.258-22.026,3.327-23.686,3.423c-2.851,0.164-7.379,0.881-7.379,0.881
		l1.157-13.222L290.884,259.527z"/>
	<path fill="#EB996E" d="M318.575,261.678c-1.476,0.737-3.074,1.225-4.723,1.435c-1.614,0.362-3.282,0.463-4.932,0.292
		c0-0.131,2.189-0.264,4.86-0.741C316.434,262.189,318.532,261.551,318.575,261.678z"/>
	<path fill="#263238" d="M336.552,215.919c-0.136,0-0.556-1.989-1.397-4.406c-0.843-2.417-1.758-4.204-1.652-4.266
		c0.932,1.237,1.642,2.629,2.081,4.118C336.176,212.813,336.507,214.356,336.552,215.919z"/>
	<path fill="#FAFAFA" d="M423.207,183.824c-0.053,0.063-0.115,0.126-0.178,0.185l-0.521,0.512l-1.946,1.85
		c-1.667,1.542-3.898,3.734-6.498,6.029c-1.218,1.085-2.599,1.978-4.087,2.641c-1.239,0.492-2.546,0.806-3.893,0.927
		c-0.886,0.094-1.794,0.067-2.681-0.088c-0.334-0.055-0.64-0.148-0.942-0.284c0,0,0.333,0.107,0.962,0.211
		c0.867,0.116,1.764,0.116,2.645,0c1.307-0.139,2.599-0.461,3.816-0.95c1.472-0.678,2.832-1.568,4.053-2.646
		c2.583-2.28,4.831-4.454,6.519-5.974l1.981-1.816l0.546-0.484C423.056,183.891,423.129,183.855,423.207,183.824z"/>
	<path fill="#FAFAFA" d="M428.088,190.368c-0.254-0.236-0.56-0.425-0.88-0.543c-0.897-0.281-1.848-0.237-2.718,0.123
		c-1.299,0.487-2.501,1.222-3.521,2.159c-1.239,1.157-2.414,2.372-3.524,3.649c-1.123,1.287-2.429,2.403-3.884,3.303
		c-1.217,0.699-2.561,1.152-3.951,1.341c-0.934,0.125-1.876,0.125-2.808,0c-0.35-0.041-0.679-0.108-1.022-0.203h0.27l0.753,0.096
		c0.932,0.094,1.866,0.067,2.787-0.067c1.375-0.203,2.683-0.663,3.882-1.358c1.437-0.897,2.727-2.003,3.839-3.282
		c1.112-1.275,2.286-2.501,3.531-3.657c1.023-0.932,2.225-1.664,3.516-2.146c0.895-0.356,1.882-0.383,2.788-0.074
		c0.242,0.098,0.454,0.238,0.646,0.412C428.015,190.303,428.088,190.368,428.088,190.368z"/>
	<path fill="#FAFAFA" d="M416.449,203.33c-0.259,0.228-0.557,0.42-0.878,0.569c-0.896,0.421-1.9,0.596-2.888,0.511
		c-0.33-0.015-0.664-0.087-0.967-0.212c-0.37-0.12-0.646-0.426-0.728-0.803c-0.024-0.408,0.151-0.802,0.491-1.048
		c0.306-0.259,0.646-0.479,1.023-0.659c1.595-0.852,3.442-1.139,5.235-0.811c0.485,0.076,0.935,0.318,1.275,0.676
		c0.291,0.396,0.394,0.907,0.249,1.377c-0.269,0.837-0.751,1.586-1.4,2.179c-1.057,1.035-2.383,1.753-3.835,2.071
		c-0.958,0.224-1.956,0.256-2.931,0.094c-0.257-0.04-0.528-0.103-0.781-0.184L410.05,207c0,0,0.375,0.116,1.058,0.206
		c0.965,0.136,1.952,0.082,2.902-0.152c1.409-0.331,2.7-1.045,3.731-2.061c0.627-0.576,1.092-1.302,1.348-2.108
		c0.121-0.417,0.051-0.871-0.216-1.215c-0.309-0.332-0.719-0.547-1.169-0.62c-1.749-0.31-3.55-0.036-5.128,0.785
		c-0.348,0.178-0.679,0.391-0.986,0.637c-0.287,0.196-0.455,0.528-0.449,0.878c0.074,0.328,0.307,0.592,0.631,0.699
		c0.285,0.121,0.61,0.193,0.925,0.211c0.978,0.098,1.962-0.059,2.859-0.449c0.23-0.108,0.472-0.229,0.698-0.364
		C416.315,203.405,416.387,203.359,416.449,203.33z"/>
	<path fill="#FAFAFA" d="M414.89,209.962c-0.358,0.403-0.853,0.687-1.381,0.802c-0.527,0.167-1.093,0.167-1.611,0
		c0.519-0.021,1.039-0.083,1.557-0.193C413.948,210.402,414.425,210.199,414.89,209.962z"/>
	<path fill="#FAFAFA" d="M411.634,185.823c0.028-0.107,0.083-0.21,0.138-0.309c0.151-0.292,0.347-0.556,0.59-0.785
		c0.916-0.797,2.097-1.241,3.312-1.26c0.383,0,0.779,0,1.19,0c0.44-0.036,0.878,0.004,1.311,0.117
		c0.23,0.091,0.411,0.301,0.446,0.552c0.045,0.254,0,0.51-0.125,0.734c-0.289,0.404-0.646,0.762-1.042,1.054
		c-1.686,1.397-3.648,2.423-5.757,3.025c-1.092,0.313-2.204,0.501-3.333,0.564c-0.557,0.041-1.112-0.045-1.615-0.247
		c-0.499-0.233-0.859-0.687-0.968-1.22c-0.124-0.982,0.199-1.962,0.88-2.685c0.526-0.645,1.163-1.191,1.882-1.624
		c1.039-0.599,2.134-1.08,3.279-1.42l0.942-0.277l0.332-0.09l-0.313,0.122l-0.924,0.31c-1.138,0.371-2.224,0.865-3.254,1.471
		c-0.689,0.434-1.319,0.976-1.838,1.604c-0.629,0.694-0.926,1.627-0.807,2.554c0.108,0.485,0.428,0.892,0.877,1.095
		c0.483,0.192,1.005,0.274,1.524,0.227c1.121-0.066,2.224-0.253,3.301-0.559c2.079-0.592,4.008-1.595,5.684-2.954
		c0.376-0.288,0.717-0.623,1.004-1.004c0.231-0.332,0.163-0.797-0.172-1.035c-0.026-0.013-0.046-0.028-0.062-0.041
		c-0.412-0.098-0.835-0.135-1.259-0.107c-0.41,0-0.805,0-1.181,0c-1.193,0-2.35,0.421-3.263,1.183
		C412.093,185.107,411.844,185.447,411.634,185.823z"/>
	<path fill="#FAFAFA" d="M399.469,189.234c-0.036-0.071-0.072-0.143-0.089-0.221c-0.056-0.209-0.089-0.425-0.102-0.645
		c-0.061-0.721,0.048-1.444,0.291-2.125c0.242-0.677,0.637-1.296,1.139-1.815c0.153-0.157,0.319-0.296,0.501-0.421
		c0.13-0.09,0.198-0.134,0.198-0.125C399.874,185.205,399.138,187.231,399.469,189.234z"/>
	<path fill="#263238" d="M270.532,254.019l10.975-16.893l0,0l0.968-1.519l0,0l1.488-2.283l-6.167-26.975
		c0,0-5.756,3.267-8.821,7.483c-3.066,4.211-6.724,11.976-6.724,11.976s-10.722,24.539-12.48,28.201
		c-1.766,3.666-4.608,10.443,0,14.245c4.608,3.792,35.467,3.937,35.467,3.937l2.079-15.501L270.532,254.019z"/>
	<path fill="#263238" d="M284.052,230.56c-0.089,0,0.154-1.157,0.261-3.008c0.116-2.407-0.117-4.824-0.708-7.162
		c-0.6-2.341-1.55-4.574-2.815-6.63c-0.968-1.575-1.766-2.457-1.668-2.512c0.097-0.053,0.233,0.184,0.583,0.574
		c0.493,0.553,0.95,1.144,1.354,1.763c1.372,2.042,2.385,4.304,2.994,6.688c0.602,2.385,0.799,4.854,0.593,7.305
		c-0.073,0.74-0.19,1.475-0.359,2.197C284.25,230.043,284.168,230.313,284.052,230.56z"/>
</g>
<g opacity="0.4">
	<path fill="#169799" d="M512.273,420.899c0,0-11.99-10.928-18.36-38.251c36.722,31.132,45.713,58.856,45.713,58.856
		L512.273,420.899z"/>
	<g opacity="0.25">
		<path d="M493.913,382.648c0,0,1.894,2.757,4.735,6.89c1.407,2.076,3.055,4.494,4.782,7.11c1.748,2.604,3.581,5.401,5.386,8.218
			c0.9,1.409,1.834,2.797,2.693,4.202c0.868,1.399,1.723,2.777,2.549,4.11c0.828,1.332,1.637,2.615,2.34,3.871
			c0.721,1.246,1.401,2.425,2.03,3.513c0.632,1.085,1.216,2.078,1.651,3.008c0.457,0.916,0.857,1.716,1.188,2.373
			c0.659,1.316,1.035,2.068,1.035,2.068c0.102,0.202,0.02,0.448-0.184,0.549c-0.201,0.103-0.447,0.021-0.549-0.183
			c0-0.002,0-0.002,0-0.004l-0.021-0.043c0,0-0.359-0.748-0.992-2.06c-0.314-0.653-0.699-1.451-1.138-2.362
			c-0.415-0.926-0.979-1.925-1.595-3.016c-0.61-1.094-1.271-2.275-1.969-3.528c-0.683-1.264-1.47-2.557-2.275-3.897
			c-0.805-1.344-1.637-2.732-2.482-4.146c-0.836-1.416-1.748-2.815-2.626-4.237c-1.761-2.842-3.55-5.666-5.257-8.295
			c-1.686-2.644-3.296-5.086-4.672-7.183C495.764,385.433,493.913,382.648,493.913,382.648z"/>
	</g>
	<path fill="#20C3C5" d="M538.879,436.261c-6.6-5.951-16.379-11.848-25.682-18.197c-12.373-8.441-23.905-17.713-26.039-29.036
		c-4.857,40.862,42.668,59.261,42.668,59.261l0.096,0.138l17.261,25.177C547.184,473.601,554.238,450.126,538.879,436.261z"/>
	<g opacity="0.25">
		<path d="M487.158,389.027c0,0-0.021,0.427,0.027,1.224c0.053,0.795,0.146,1.968,0.434,3.43c0.272,1.463,0.705,3.229,1.428,5.17
			c0.326,0.984,0.794,1.984,1.256,3.053c0.251,0.524,0.538,1.049,0.814,1.592c0.268,0.551,0.582,1.09,0.924,1.629
			c1.271,2.213,2.982,4.4,4.938,6.563c0.51,0.522,1.025,1.056,1.547,1.593c0.513,0.547,1.116,1.012,1.681,1.53
			c1.133,1.026,2.354,2.021,3.646,2.953c5.141,3.772,11.047,7.196,16.668,11.062c5.635,3.83,11.016,8.131,15.254,12.967
			c2.123,2.406,3.957,4.929,5.465,7.461c1.498,2.543,2.639,5.099,3.529,7.513c0.207,0.608,0.41,1.206,0.608,1.789
			c0.194,0.584,0.331,1.172,0.493,1.735c0.338,1.125,0.541,2.22,0.757,3.242c0.394,2.055,0.635,3.864,0.741,5.36
			c0.162,1.494,0.16,2.675,0.188,3.479c0.024,0.805,0.037,1.231,0.037,1.231c0.007,0.228-0.171,0.414-0.397,0.421
			c-0.226,0.007-0.414-0.171-0.42-0.396v-0.004v-0.022c0,0-0.01-0.423-0.027-1.215c-0.023-0.792-0.012-1.957-0.16-3.432
			c-0.094-1.476-0.318-3.26-0.689-5.285c-0.205-1.008-0.397-2.088-0.723-3.197c-0.154-0.557-0.283-1.137-0.472-1.712
			c-0.191-0.575-0.388-1.164-0.587-1.767c-0.857-2.383-1.963-4.908-3.42-7.426c-1.469-2.509-3.262-5.014-5.344-7.412
			c-4.16-4.815-9.474-9.135-15.064-12.998c-5.58-3.895-11.459-7.359-16.594-11.188c-1.291-0.948-2.502-1.947-3.637-2.993
			c-0.563-0.524-1.164-0.997-1.676-1.551c-0.521-0.544-1.035-1.081-1.542-1.61c-1.948-2.188-3.647-4.398-4.909-6.629
			c-0.339-0.544-0.65-1.087-0.914-1.64c-0.273-0.55-0.558-1.074-0.805-1.603c-0.455-1.074-0.917-2.08-1.236-3.07
			c-0.709-1.952-1.128-3.723-1.39-5.188c-0.278-1.466-0.362-2.638-0.41-3.435C487.134,389.454,487.158,389.027,487.158,389.027z"/>
	</g>
</g>
<line fill="none" stroke="#A5A5A5" stroke-miterlimit="10" x1="103.051" y1="472.827" x2="627.412" y2="472.827"/>
<g opacity="0.4">
	<path fill="#169799" d="M589.676,362.665c-3.08,8.936-6.76,16.736-10.606,23.777c-13.298,24.295-28.74,39.748-29.317,62.401
		c0,0-4.794-21.341-0.945-45.652c2.153-13.656,7.031-28.247,17.011-40.526c27.761-34.143,23.648-65.196,23.648-65.196
		S603.385,322.938,589.676,362.665z"/>
	<g opacity="0.25">
		<path d="M557.079,422.243c0,0.001-0.023-0.119-0.057-0.38c-0.038-0.261-0.078-0.639-0.116-1.123
			c-0.075-0.979-0.137-2.409-0.046-4.227c0.053-1.815,0.32-4.008,0.726-6.5c0.496-2.473,1.097-5.265,2.096-8.204
			c0.918-2.966,2.211-6.07,3.671-9.308c0.802-1.583,1.595-3.228,2.482-4.863c0.947-1.603,1.826-3.295,2.886-4.915
			c2.068-3.279,4.359-6.523,6.269-10.064c1.938-3.533,3.655-7.262,5.182-11.066c3.051-7.615,5.362-15.521,7.048-23.031
			c1.688-7.512,2.771-14.633,3.342-20.767c0.559-6.134,0.617-11.29,0.228-14.865c-0.199-1.784-0.454-3.182-0.771-4.091
			c-0.121-0.468-0.297-0.796-0.395-1.025c-0.102-0.228-0.152-0.345-0.152-0.345s0.055,0.117,0.156,0.343
			c0.102,0.229,0.279,0.555,0.407,1.021c0.331,0.906,0.604,2.304,0.826,4.089c0.438,3.577,0.443,8.743-0.037,14.896
			c-0.509,6.152-1.541,13.295-3.166,20.843c-1.625,7.544-3.877,15.491-6.877,23.175c-1.503,3.838-3.199,7.604-5.123,11.188
			c-1.904,3.605-4.186,6.904-6.23,10.143c-1.046,1.609-1.911,3.29-2.851,4.881c-0.878,1.624-1.66,3.254-2.451,4.822
			c-1.438,3.207-2.712,6.281-3.609,9.213c-0.981,2.906-1.564,5.659-2.052,8.096c-0.404,2.45-0.688,4.604-0.747,6.382
			c-0.101,1.779-0.048,3.179,0.021,4.121c0.034,0.477,0.07,0.832,0.104,1.065c0.025,0.232,0.054,0.366,0.054,0.367
			c0.045,0.221-0.101,0.437-0.32,0.479c-0.22,0.045-0.434-0.097-0.479-0.313L557.079,422.243z"/>
	</g>
	<path opacity="0.25" enable-background="new    " d="M579.068,386.442c-13.298,24.295-28.74,39.748-29.317,62.401
		c0,0-4.794-21.341-0.945-45.652C557.424,399.669,569.545,393.93,579.068,386.442z"/>
	<path fill="#20C3C5" d="M557.459,472.827c0,0-9.711-16.604,13.271-37.091c22.979-20.488,40.968-47.585,37.47-69.507
		c-21.98,25.537-80.436,61.752-63.949,106.595L557.459,472.827z"/>
	<g opacity="0.25">
		<path d="M608.2,366.229c0,0-0.051,0.113-0.146,0.334c-0.097,0.224-0.244,0.547-0.459,0.961c-0.209,0.418-0.47,0.933-0.771,1.535
			c-0.335,0.588-0.72,1.266-1.15,2.021c-0.816,1.541-2.045,3.27-3.354,5.311c-0.658,1.021-1.481,2.021-2.281,3.119
			c-0.408,0.545-0.827,1.104-1.255,1.676c-0.425,0.574-0.86,1.164-1.362,1.717c-0.973,1.135-1.985,2.313-3.035,3.535
			c-0.528,0.606-1.05,1.242-1.609,1.854c-0.586,0.591-1.182,1.188-1.781,1.799c-1.205,1.218-2.441,2.468-3.707,3.743
			c-0.614,0.659-1.309,1.245-2.002,1.848c-0.69,0.603-1.39,1.211-2.094,1.822c-1.408,1.229-2.841,2.475-4.29,3.736
			c-0.733,0.618-1.473,1.238-2.214,1.863c-0.716,0.651-1.436,1.309-2.155,1.967c-2.837,2.688-5.511,5.641-7.968,8.761
			c-4.917,6.238-8.952,13.155-11.855,20.003c-2.913,6.846-4.668,13.632-5.296,19.533c-0.318,2.95-0.359,5.675-0.214,8.073
			c0.049,1.2,0.215,2.313,0.331,3.348c0.197,1.019,0.314,1.969,0.547,2.798c0.194,0.839,0.387,1.582,0.605,2.213
			c0.196,0.638,0.365,1.18,0.551,1.604c0.339,0.854,0.519,1.312,0.519,1.312l0.014,0.027c0.083,0.21-0.021,0.446-0.23,0.53
			c-0.209,0.082-0.447-0.021-0.53-0.229l-0.001-0.003c0,0-0.184-0.471-0.524-1.354c-0.188-0.437-0.355-0.992-0.557-1.647
			c-0.221-0.65-0.412-1.413-0.604-2.273c-0.231-0.852-0.348-1.82-0.541-2.863c-0.112-1.056-0.274-2.19-0.315-3.414
			c-0.134-2.442-0.071-5.208,0.271-8.193c0.675-5.972,2.49-12.803,5.469-19.676c2.966-6.875,7.068-13.801,12.049-20.038
			c2.488-3.118,5.193-6.065,8.063-8.748c0.729-0.657,1.458-1.313,2.182-1.964c0.747-0.621,1.49-1.24,2.229-1.854
			c1.454-1.249,2.892-2.485,4.305-3.7c0.707-0.606,1.408-1.211,2.103-1.808c0.696-0.596,1.396-1.177,2.012-1.83
			c1.271-1.267,2.515-2.507,3.725-3.713c0.604-0.604,1.202-1.198,1.79-1.785c0.564-0.606,1.088-1.237,1.62-1.84
			c1.056-1.213,2.076-2.386,3.056-3.511c0.505-0.551,0.943-1.135,1.371-1.706c0.433-0.569,0.854-1.125,1.265-1.666
			c0.808-1.095,1.638-2.087,2.302-3.103c1.32-2.031,2.56-3.75,3.388-5.285c0.436-0.754,0.824-1.426,1.163-2.012
			c0.308-0.604,0.567-1.115,0.781-1.529c0.217-0.414,0.368-0.737,0.464-0.959C608.148,366.343,608.2,366.229,608.2,366.229z"/>
	</g>
</g>
<g>
	<path fill="#20C3C5" d="M202.381,356.352c-1.984,7.211-11.086,21.194-19.395,36.169c-9.086,16.341-17.208,33.845-14.032,44.961
		c0.792,2.792,1.149,4.835,1.149,6.307c0.03,4.837-3.642,3.334-7.349,0.587c-3.782-2.802-7.611-6.898-7.611-6.898l0.276-21.548
		c0,0-12.216-11.225-2.185-35.78c0.635-1.552,1.364-3.161,2.185-4.839c13.814-27.906,34.527-57.189,14.915-65.485
		C197.422,308.171,206.538,341.269,202.381,356.352z"/>
	<g opacity="0.53">
		<path d="M170.335,309.83c0,0,0.479,0.075,1.353,0.336c0.867,0.27,2.12,0.743,3.604,1.568c1.486,0.815,3.185,2.033,4.809,3.759
			c1.627,1.717,3.183,3.929,4.398,6.586c1.167,2.678,2.022,5.738,2.515,9.048c0.461,3.334-0.21,6.908-1.121,10.408
			c-1.928,7.041-5.071,14.174-8.295,21.221c-6.519,14.067-13.625,27.892-17.38,38.86c-0.913,2.739-1.711,5.268-2.181,7.555
			c-0.285,1.138-0.403,2.22-0.584,3.209c-0.069,0.997-0.232,1.915-0.206,2.736c-0.045,1.65,0.134,2.927,0.327,3.765
			c0.225,0.83,0.344,1.271,0.344,1.271l0.027,0.098c0.086,0.32-0.104,0.649-0.426,0.737c-0.32,0.09-0.649-0.101-0.737-0.423v-0.003
			c0,0-0.129-0.496-0.372-1.42c-0.206-0.928-0.383-2.319-0.317-4.056c-0.019-0.877,0.154-1.817,0.242-2.859
			c0.193-1.018,0.334-2.14,0.634-3.294c0.504-2.34,1.336-4.894,2.288-7.655c3.902-11.035,11.146-24.789,17.794-38.778
			c3.29-7.002,6.489-14.088,8.471-21.063c0.942-3.488,1.635-6.965,1.212-10.272c-0.455-3.29-1.276-6.336-2.406-9.008
			c-1.183-2.648-2.706-4.861-4.308-6.585c-1.597-1.732-3.281-2.962-4.753-3.79c-1.472-0.837-2.72-1.324-3.584-1.602
			C170.816,309.912,170.335,309.83,170.335,309.83z"/>
	</g>
	<path fill="#169799" d="M189.949,399.902c-8.278,21.83,0,38.384-12.433,40.746c-5.69,1.08-8.202-3.134-9.242-8.031
		c-1.238-5.801-0.417-12.547-0.417-12.547s2.108-5.395,6.54-10.631C178.01,405.173,183.143,401.02,189.949,399.902z"/>
	<path fill="#B8E3E2" d="M161.082,426.955c-0.047,5.084-1.195,9.393-3.551,11.659c-0.233,0.229-0.467,0.433-0.683,0.604
		c-5.876,4.76-9.628-3.954-9.628-3.954s-15.627-7.707-23.376-23.346c-5.939-12.016-7.258-28.729,6.71-50.218
		c2.048,15.301,10.435,25.72,18.746,35.609c0,0.018,0,0.018,0,0.018c1.039,1.238,2.061,2.446,3.086,3.669
		C158.135,407.903,161.158,418.507,161.082,426.955z"/>
	<g opacity="0.53">
		<path d="M130.549,361.703c0,0-0.293,1.228-0.622,3.408c-0.323,2.178-0.683,5.314-0.754,9.087
			c-0.021,0.945-0.035,1.928,0.008,2.944c0.009,1.017,0.066,2.065,0.156,3.143c0.141,2.156,0.464,4.414,0.907,6.723
			c0.222,1.155,0.553,2.308,0.828,3.482c0.387,1.146,0.713,2.33,1.165,3.473c0.904,2.278,1.979,4.578,3.327,6.68
			c1.27,2.143,2.817,4.136,4.342,6.068c1.574,1.904,3.179,3.733,4.76,5.493c1.577,1.754,3.092,3.474,4.472,5.162
			c0.687,0.845,1.315,1.708,1.938,2.525c0.557,0.872,1.151,1.676,1.623,2.512c0.966,1.662,1.691,3.29,2.172,4.793
			c0.206,0.763,0.417,1.473,0.573,2.137c0.089,0.681,0.17,1.303,0.243,1.867c0.1,0.563,0.103,1.07,0.083,1.51
			c-0.006,0.44-0.012,0.818-0.016,1.12c-0.01,0.608-0.013,0.934-0.013,0.934c-0.006,0.336-0.28,0.599-0.614,0.593
			c-0.331-0.005-0.598-0.277-0.592-0.61c0-0.003,0-0.004,0-0.006l0.001-0.086c0,0,0.008-0.306,0.026-0.879
			c0.006-0.285,0.017-0.641,0.03-1.054c0.024-0.418,0.03-0.894-0.056-1.423c-0.061-0.53-0.127-1.119-0.2-1.758
			c-0.14-0.628-0.33-1.299-0.511-2.021c-0.432-1.429-1.101-2.99-2.008-4.608c-0.443-0.815-1.011-1.61-1.538-2.46
			c-0.599-0.813-1.198-1.665-1.867-2.509c-1.336-1.686-2.814-3.414-4.367-5.193c-1.552-1.78-3.143-3.647-4.698-5.589
			c-1.515-1.979-3.039-4.003-4.308-6.216c-1.338-2.163-2.372-4.467-3.262-6.809c-0.44-1.167-0.751-2.366-1.126-3.531
			c-0.261-1.194-0.576-2.361-0.784-3.527c-0.412-2.336-0.701-4.611-0.81-6.777c-0.075-1.083-0.115-2.138-0.112-3.16
			c-0.026-1.02,0.003-2.005,0.036-2.951c0.128-3.783,0.536-6.914,0.895-9.091C130.235,362.925,130.549,361.703,130.549,361.703z"/>
	</g>
	<g opacity="0.25">
		<path d="M189.955,399.902c0,0-1.809,2.039-4.301,5.271c-1.23,1.628-2.66,3.534-4.088,5.643c-0.73,1.046-1.451,2.149-2.167,3.278
			c-0.74,1.114-1.409,2.299-2.114,3.456c-0.694,1.167-1.316,2.371-1.969,3.537c-0.589,1.196-1.169,2.371-1.73,3.512
			c-0.495,1.168-1.001,2.287-1.432,3.361c-0.392,1.089-0.763,2.12-1.103,3.073c-0.271,0.974-0.516,1.864-0.734,2.653
			c-0.25,0.783-0.313,1.497-0.435,2.067c-0.21,1.149-0.328,1.81-0.328,1.81l-0.013,0.062c-0.061,0.327-0.373,0.543-0.701,0.485
			c-0.329-0.061-0.546-0.374-0.485-0.702c0-0.006,0.001-0.012,0.003-0.018c0,0,0.143-0.677,0.393-1.865
			c0.141-0.586,0.229-1.323,0.507-2.121c0.248-0.804,0.526-1.708,0.83-2.696c0.375-0.959,0.781-1.999,1.211-3.101
			c0.465-1.082,1.013-2.199,1.544-3.369c0.598-1.133,1.219-2.304,1.847-3.496c0.688-1.155,1.351-2.355,2.081-3.506
			c0.74-1.146,1.446-2.315,2.221-3.413c0.75-1.115,1.503-2.201,2.266-3.227c1.49-2.076,2.977-3.946,4.251-5.542
			C188.09,401.89,189.955,399.902,189.955,399.902z"/>
	</g>
	<path fill="#B8E3E2" d="M184.926,438.024l-5.303,32.557c-0.265,1.368-1.458,2.359-2.854,2.359h-33.037
		c-1.396,0-2.589-0.991-2.854-2.359l-4.311-26.434l-0.991-6.123c-0.327-1.78,1.04-3.425,2.853-3.425h43.643
		C183.886,434.6,185.251,436.244,184.926,438.024z"/>
	<path fill="#86BFBC" d="M189.949,444.66h-59.397l1.57-8.868c0.34-1.862,1.952-3.225,3.844-3.225h48.585
		c1.876,0,3.505,1.362,3.831,3.225L189.949,444.66z"/>
	<path opacity="0.25" enable-background="new    " d="M167.855,420.07c0,0-0.822,6.716,0.402,12.5h-7.767
		c0.372-1.689,0.558-3.597,0.589-5.615c0.078-8.448-2.947-19.052-8.696-25.956c-1.025-1.223-2.048-2.431-3.086-3.669
		c0,0,0,0,0-0.018c0.123-4.762,1.208-10.463,3.936-17.16c0.451,7.829,2.374,21.441,10.186,22.882
		c5.938,1.085,13.673-4.806,19.565-10.512c-3.115,5.597-6.108,11.334-8.591,16.917C169.963,414.676,167.855,420.07,167.855,420.07z"
		/>
	<path opacity="0.25" enable-background="new    " d="M163.452,472.94h-19.721c-1.396,0-2.589-0.991-2.854-2.359l-4.232-25.918
		h17.041c-0.421,3.627-0.934,10.401,0.355,15.655C155.05,464.489,158.71,469.853,163.452,472.94z"/>
</g>
</svg>
