<?xml version="1.0" encoding="utf-8"?>
<!-- Generator: Adobe Illustrator 16.0.0, SVG Export Plug-In . SVG Version: 6.00 Build 0)  -->
<!DOCTYPE svg PUBLIC "-//W3C//DTD SVG 1.1//EN" "http://www.w3.org/Graphics/SVG/1.1/DTD/svg11.dtd">
<svg version="1.1" id="Layer_1" xmlns="http://www.w3.org/2000/svg" xmlns:xlink="http://www.w3.org/1999/xlink" x="0px" y="0px"
	 width="966px" height="966px" viewBox="0 0 966 966" enable-background="new 0 0 966 966" xml:space="preserve">
<circle fill="#F7B202" cx="733.074" cy="697.823" r="216.678"/>
<circle fill="#F7B202" cx="140.227" cy="296.833" r="58.344"/>
<circle fill="#F7B202" cx="140.227" cy="483.146" r="58.344"/>
<circle fill="#F7B202" cx="140.227" cy="670.5" r="58.344"/>
<path d="M77.902,841.606H483v-31.168H77.902c-25.814,0-46.742-20.928-46.742-46.741V78.148c0-25.821,20.928-46.742,46.742-46.742
	H763.45c25.825,0,46.742,20.92,46.742,46.742V436.5h31.168V78.148c-0.051-43.004-34.901-77.851-77.91-77.902H77.902
	C34.905,0.297,0.055,35.144,0,78.148v685.549C0.055,806.701,34.905,841.548,77.902,841.606z"/>
<path d="M62.328,62.574h31.156V93.73H62.328V62.574z"/>
<path d="M124.644,62.574h31.167V93.73h-31.167V62.574z"/>
<path d="M186.967,62.574h31.164V93.73h-31.164V62.574z"/>
<path d="M62.328,124.89h716.705v31.168H62.328V124.89z"/>
<path d="M222.696,191.779l-39.576,39.576c-33.452-22.147-78.25-15.352-103.637,15.718c-25.384,31.066-23.107,76.32,5.26,104.684
	c28.364,28.375,73.622,30.652,104.691,5.264c31.066-25.384,37.865-70.188,15.715-103.633l39.572-39.576L222.696,191.779z
	 M140.222,343.017c-25.81,0-46.738-20.924-46.738-46.738c0-25.817,20.928-46.738,46.738-46.738
	c6.951,0.023,13.789,1.617,20.026,4.667l-31.035,31.039l22.026,22.034l31.058-31.02c3.05,6.232,4.647,13.071,4.671,20.018
	C186.967,322.093,166.047,343.017,140.222,343.017z"/>
<path d="M264.873,249.541h264.865v31.156H264.873V249.541z"/>
<path d="M264.873,311.86h109.062v31.156H264.873V311.86z"/>
<path d="M405.098,311.86h218.124v31.156H405.098V311.86z"/>
<path d="M560.901,249.541h155.808v31.156H560.901V249.541z"/>
<path d="M222.696,378.746l-39.576,39.575c-33.452-22.146-78.25-15.352-103.637,15.719c-25.384,31.07-23.107,76.32,5.26,104.691
	c28.364,28.368,73.622,30.645,104.691,5.257c31.066-25.388,37.865-70.178,15.715-103.634l39.572-39.575L222.696,378.746z
	 M140.222,529.988c-25.81,0-46.738-20.929-46.738-46.742c0-25.817,20.928-46.746,46.738-46.746
	c6.951,0.027,13.789,1.625,20.026,4.675l-31.035,31.047l22.026,22.025l31.058-31.023c3.05,6.237,4.647,13.075,4.671,20.022
	C186.967,509.06,166.047,529.988,140.222,529.988z"/>
<path d="M264.873,436.5h264.865v31.164H264.873V436.5z"/>
<path d="M264.873,498.828h109.062v31.16H264.873V498.828z"/>
<path d="M405.098,498.828h124.64v31.16h-124.64V498.828z"/>
<path d="M560.901,436.5h62.32v31.164h-62.32V436.5z"/>
<path d="M222.696,565.713l-39.576,39.576c-33.452-22.147-78.25-15.352-103.637,15.718c-25.384,31.07-23.107,76.32,5.26,104.692
	c28.364,28.371,73.622,30.64,104.691,5.256c31.066-25.388,37.865-70.181,15.715-103.637l39.572-39.572L222.696,565.713z
	 M140.222,716.955c-25.81,0-46.738-20.929-46.738-46.742c0-25.817,20.928-46.741,46.738-46.741
	c6.951,0.023,13.789,1.616,20.026,4.671l-31.035,31.046l22.026,22.025l31.058-31.022c3.05,6.236,4.647,13.078,4.671,20.021
	C186.967,696.026,166.047,716.955,140.222,716.955z"/>
<path d="M264.873,623.472h202.545v31.167H264.873V623.472z"/>
<path d="M264.873,685.795h109.062v31.16H264.873V685.795z"/>
<path d="M405.098,685.795h62.32v31.16h-62.32V685.795z"/>
<path d="M732.295,935.09C861.374,935.09,966,830.445,966,701.377c0-129.08-104.626-233.713-233.705-233.713
	c-129.08,0-233.713,104.633-233.713,233.713C498.734,830.387,603.277,934.934,732.295,935.09z M732.295,498.828
	c111.857,0,202.549,90.684,202.549,202.549s-90.691,202.545-202.549,202.545c-111.87,0-202.558-90.68-202.558-202.545
	C529.87,589.566,620.476,498.953,732.295,498.828z"/>
<path fill="#FFFFFF" d="M637.253,709.988l-27.892,13.926l31.164,62.324c2.233,4.482,6.498,7.619,11.446,8.419
	c0.805,0.125,1.608,0.191,2.417,0.203c4.128,0,8.092-1.644,11.021-4.565l186.96-186.967l-22.025-22.033l-171.69,171.682
	L637.253,709.988z"/>
</svg>
