<?xml version="1.0" encoding="utf-8"?>
<!-- Generator: Adobe Illustrator 16.0.0, SVG Export Plug-In . SVG Version: 6.00 Build 0)  -->
<!DOCTYPE svg PUBLIC "-//W3C//DTD SVG 1.1//EN" "http://www.w3.org/Graphics/SVG/1.1/DTD/svg11.dtd">
<svg version="1.1" id="Capa_1" xmlns="http://www.w3.org/2000/svg" xmlns:xlink="http://www.w3.org/1999/xlink" x="0px" y="0px"
	 width="699.992px" height="700px" viewBox="0 0 699.992 700" enable-background="new 0 0 699.992 700" xml:space="preserve">
<g>
	<rect x="574.493" y="240.34" fill="#F7B202" width="81.671" height="401.16"/>
	<rect x="444.325" y="396.5" fill="#F7B202" width="81.671" height="245"/>
	<rect x="315.993" y="479.5" fill="#F7B202" width="81.671" height="168.003"/>
	<rect x="187.662" y="536.5" fill="#F7B202" width="81.671" height="111.003"/>
	<g>
		<g>
			<rect x="59.333" y="70.008" fill="#FFFFFF" width="151.665" height="23.333"/>
		</g>
	</g>
	<g>
		<g>
			<rect x="59.333" y="116.674" fill="#F7B202" width="151.665" height="23.333"/>
		</g>
	</g>
	<g>
		<g>
			<rect x="59.333" y="163.34" fill="#F7B202" width="104.999" height="23.333"/>
		</g>
	</g>
	<g>
		<g>
			<rect x="59.333" y="210.006" fill="#F7B202" width="104.999" height="23.333"/>
		</g>
	</g>
	<g>
		<g>
			<rect x="1" y="676.667" fill="#FFFFFF" width="699.992" height="23.333"/>
		</g>
	</g>
	<g>
		<g>
			<path fill="#FFFFFF" d="M676.434,99.792L629.768,6.46c-2.877-5.766-9.883-8.108-15.647-5.231
				c-0.003,0.001-0.006,0.003-0.009,0.004L520.779,47.9c-5.768,2.88-8.107,9.89-5.228,15.656c2.88,5.766,9.891,8.107,15.656,5.227
				l67.596-33.774l-18.444,52.663C499.288,318.565,290.473,480.548,46.674,501.67l1.983,23.333
				c252.983-21.915,469.656-190.025,553.74-429.631l18.829-53.806l34.322,68.657c2.88,5.766,9.892,8.107,15.656,5.227
				C676.975,112.569,679.313,105.56,676.434,99.792z"/>
		</g>
	</g>
	<g>
		<g>
			<path fill="#FFFFFF" d="M140.999,560.002H59.333c-6.442,0-11.666,5.224-11.666,11.666v69.999c0,6.443,5.224,11.667,11.666,11.667
				h81.666c6.442,0,11.666-5.224,11.666-11.667v-69.999C152.665,565.226,147.441,560.002,140.999,560.002z M129.332,630.001H71
				v-46.666h58.332V630.001L129.332,630.001z"/>
		</g>
	</g>
	<g>
		<g>
			<path fill="#FFFFFF" d="M269.33,525.002h-81.665c-6.443,0-11.667,5.224-11.667,11.667v104.998
				c0,6.443,5.224,11.667,11.667,11.667h81.665c6.443,0,11.667-5.224,11.667-11.667V536.669
				C280.997,530.226,275.773,525.002,269.33,525.002z M257.664,630.001h-58.333v-81.666h58.333V630.001z"/>
		</g>
	</g>
	<g>
		<g>
			<path fill="#FFFFFF" d="M397.662,466.67h-81.666c-6.442,0-11.666,5.224-11.666,11.666v163.331
				c0,6.443,5.224,11.667,11.666,11.667h81.666c6.443,0,11.666-5.224,11.666-11.667V478.336
				C409.328,471.894,404.105,466.67,397.662,466.67z M385.996,630.001h-58.333V490.003h58.333V630.001z"/>
		</g>
	</g>
	<g>
		<g>
			<path fill="#FFFFFF" d="M525.994,385.004h-81.666c-6.442,0-11.666,5.224-11.666,11.667v244.996
				c0,6.443,5.224,11.667,11.666,11.667h81.666c6.442,0,11.666-5.224,11.666-11.667V396.671
				C537.66,390.228,532.436,385.004,525.994,385.004z M514.327,630.001h-58.332V408.337h58.332V630.001L514.327,630.001z"/>
		</g>
	</g>
	<g>
		<g>
			<path fill="#FFFFFF" d="M654.325,221.673H572.66c-6.443,0-11.667,5.224-11.667,11.667v408.328
				c0,6.443,5.224,11.667,11.667,11.667h81.665c6.442,0,11.667-5.224,11.667-11.667V233.339
				C665.992,226.896,660.768,221.673,654.325,221.673z M642.659,630.001h-58.333V245.006h58.333V630.001z"/>
		</g>
	</g>
</g>
</svg>
