<?xml version="1.0" encoding="utf-8"?>
<!-- Generator: Adobe Illustrator 22.1.0, SVG Export Plug-In . SVG Version: 6.00 Build 0)  -->
<svg version="1.1" id="Layer_1" xmlns="http://www.w3.org/2000/svg" xmlns:xlink="http://www.w3.org/1999/xlink" x="0px" y="0px"
	 viewBox="0 0 311.5 362" style="enable-background:new 0 0 311.5 362;" xml:space="preserve">
<style type="text/css">
	.st0{display:none;}
	.st1{display:inline;opacity:0.3;fill:url(#SVGID_1_);enable-background:new    ;}
	.st2{display:inline;fill:#192C55;}
	.st3{display:inline;}
	.st4{fill:url(#SVGID_2_);}
	.st5{fill:url(#SVGID_3_);}
	.st6{fill:url(#SVGID_4_);}
	.st7{fill:url(#SVGID_5_);}
	.st8{fill:url(#SVGID_6_);}
	.st9{fill:url(#SVGID_7_);}
	.st10{display:inline;fill:url(#SVGID_8_);}
	.st11{fill:#FFA726;}
	.st12{fill:#5D4037;}
	.st13{fill:url(#SVGID_9_);}
	.st14{fill:#192C55;}
	.st15{display:inline;fill:url(#SVGID_10_);}
	.st16{fill:url(#SVGID_11_);}
	.st17{display:inline;fill:url(#SVGID_12_);}
	.st18{fill:url(#SVGID_13_);}
	.st19{fill:url(#SVGID_14_);}
	.st20{fill:url(#SVGID_15_);}
	.st21{fill:url(#SVGID_16_);}
	.st22{fill:url(#SVGID_17_);}
	.st23{fill:url(#SVGID_18_);}
	.st24{fill:#EEEBD4;}
	.st25{fill:#CCCBC4;}
	.st26{fill:#C5C4BB;}
	.st27{fill:#C0AFAE;}
	.st28{fill:#D6D5CA;}
	.st29{fill:#FFFFFF;}
	.st30{opacity:0.2;enable-background:new    ;}
	.st31{fill:#231F20;}
	.st32{fill:#1385A4;}
	.st33{fill:none;stroke:#9A9FB3;stroke-linecap:round;stroke-linejoin:round;stroke-miterlimit:10;}
	.st34{fill:url(#SVGID_19_);}
	.st35{opacity:0.1;}
	.st36{opacity:0.46;fill:#9FA9D1;enable-background:new    ;}
	.st37{fill:#9FA9D1;}
	.st38{display:inline;fill:#FFFFFF;}
	.st39{display:inline;opacity:0.2;enable-background:new    ;}
	.st40{fill:url(#SVGID_20_);}
	.st41{fill:url(#SVGID_21_);}
	.st42{fill:url(#SVGID_22_);filter:url(#Adobe_OpacityMaskFilter);}
	.st43{mask:url(#id0_2_);}
	.st44{fill:#263136;}
	.st45{fill:#424242;}
	.st46{fill:#DBDBDB;}
	.st47{fill:#E4E4E4;}
	.st48{fill:url(#SVGID_23_);filter:url(#Adobe_OpacityMaskFilter_1_);}
	.st49{mask:url(#id2_2_);fill:url(#SVGID_24_);}
	.st50{fill:url(#SVGID_25_);filter:url(#Adobe_OpacityMaskFilter_2_);}
	.st51{mask:url(#id4_2_);fill:url(#SVGID_26_);}
	.st52{fill:#AFBDC4;}
	.st53{fill:url(#SVGID_27_);filter:url(#Adobe_OpacityMaskFilter_3_);}
	.st54{mask:url(#id6_2_);fill:url(#SVGID_28_);}
	.st55{fill:#0C627E;}
	.st56{fill:#F4F4F4;}
	.st57{fill:url(#SVGID_29_);filter:url(#Adobe_OpacityMaskFilter_4_);}
	.st58{mask:url(#id8_2_);fill:url(#SVGID_30_);}
	.st59{fill:#212121;}
	.st60{fill:url(#SVGID_31_);}
	.st61{fill:url(#SVGID_32_);}
	.st62{fill:url(#SVGID_33_);filter:url(#Adobe_OpacityMaskFilter_5_);}
	.st63{mask:url(#id10_2_);fill:url(#SVGID_34_);}
	.st64{fill:url(#SVGID_35_);filter:url(#Adobe_OpacityMaskFilter_6_);}
	.st65{mask:url(#id12_2_);fill:url(#SVGID_36_);}
	.st66{fill:#263138;}
	.st67{fill:#EFF2F2;}
	.st68{fill:url(#SVGID_37_);}
	.st69{fill:url(#SVGID_38_);filter:url(#Adobe_OpacityMaskFilter_7_);}
	.st70{mask:url(#id14_2_);fill:url(#SVGID_39_);}
	.st71{fill:url(#SVGID_40_);filter:url(#Adobe_OpacityMaskFilter_8_);}
	.st72{mask:url(#id16_2_);fill:url(#SVGID_41_);}
	.st73{fill:url(#SVGID_42_);filter:url(#Adobe_OpacityMaskFilter_9_);}
	.st74{mask:url(#id18_2_);fill:url(#SVGID_43_);}
	.st75{fill:url(#SVGID_44_);filter:url(#Adobe_OpacityMaskFilter_10_);}
	.st76{mask:url(#id20_2_);fill:url(#SVGID_45_);}
	.st77{fill:url(#SVGID_46_);filter:url(#Adobe_OpacityMaskFilter_11_);}
	.st78{mask:url(#id22_2_);fill:url(#SVGID_47_);}
	.st79{fill:url(#SVGID_48_);filter:url(#Adobe_OpacityMaskFilter_12_);}
	.st80{mask:url(#id24_2_);fill:url(#SVGID_49_);}
	.st81{fill:url(#SVGID_50_);fill-opacity:0.302;}
	.st82{fill:#201E1E;}
	.st83{fill:#231F1F;}
</style>
<g class="st0">
	
		<linearGradient id="SVGID_1_" gradientUnits="userSpaceOnUse" x1="1" y1="28.3" x2="283" y2="28.3" gradientTransform="matrix(1 0 0 -1 0 364)">
		<stop  offset="0" style="stop-color:#4F8CA5"/>
		<stop  offset="1" style="stop-color:#192C55"/>
	</linearGradient>
	<ellipse class="st1" cx="142" cy="335.7" rx="141" ry="23.7"/>
	<polygon class="st2" points="120.9,327 113,319.9 104.9,317.7 99.7,325.4 129.4,335.7 128.5,332.4 	"/>
	<g class="st3">
		<g>
			
				<linearGradient id="SVGID_2_" gradientUnits="userSpaceOnUse" x1="156.0543" y1="224.55" x2="170.4543" y2="224.55" gradientTransform="matrix(1 0 0 -1 0 364)">
				<stop  offset="0" style="stop-color:#FAE8DC"/>
				<stop  offset="1" style="stop-color:#FAB9AB;stop-opacity:0.9697"/>
			</linearGradient>
			<polygon class="st4" points="158.9,132.2 170.5,136.9 164.9,146.7 158.3,143.4 156.1,137.7 			"/>
			<g>
				<g>
					
						<linearGradient id="SVGID_3_" gradientUnits="userSpaceOnUse" x1="167.6289" y1="224.7417" x2="178.1173" y2="224.7417" gradientTransform="matrix(1 0 0 -1 0 364)">
						<stop  offset="0" style="stop-color:#FAE8DC"/>
						<stop  offset="1" style="stop-color:#FAB9AB;stop-opacity:0.9697"/>
					</linearGradient>
					<path class="st5" d="M168.5,138.2c3.2,0.3,5.9,1.6,8.1,3.9c0.9,1,2.2-0.6,1.3-1.6c-2.4-2.5-5.6-4.1-9-4.4
						C167.5,136.1,167.1,138.1,168.5,138.2L168.5,138.2z"/>
				</g>
			</g>
			<g>
				<g>
					
						<linearGradient id="SVGID_4_" gradientUnits="userSpaceOnUse" x1="166.2166" y1="221.2617" x2="178.3559" y2="221.2617" gradientTransform="matrix(1 0 0 -1 0 364)">
						<stop  offset="0" style="stop-color:#FAE8DC"/>
						<stop  offset="1" style="stop-color:#FAB9AB;stop-opacity:0.9697"/>
					</linearGradient>
					<path class="st6" d="M167,141.3c3.8,0.3,7.1,1.9,9.7,4.7c0.9,0.9,2.2-0.6,1.3-1.6c-2.8-3-6.6-4.8-10.7-5.2
						C166.1,139.2,165.7,141.2,167,141.3L167,141.3z"/>
				</g>
			</g>
			<g>
				<g>
					
						<linearGradient id="SVGID_5_" gradientUnits="userSpaceOnUse" x1="163.2621" y1="218.8618" x2="175.4038" y2="218.8618" gradientTransform="matrix(1 0 0 -1 0 364)">
						<stop  offset="0" style="stop-color:#FAE8DC"/>
						<stop  offset="1" style="stop-color:#FAB9AB;stop-opacity:0.9697"/>
					</linearGradient>
					<path class="st7" d="M164.1,143.7c3.8,0.3,7.1,1.9,9.7,4.7c0.9,0.9,2.2-0.6,1.3-1.6c-2.9-3-6.6-4.8-10.7-5.2
						C163.1,141.6,162.8,143.6,164.1,143.7L164.1,143.7z"/>
				</g>
			</g>
			<g>
				<g>
					
						<linearGradient id="SVGID_6_" gradientUnits="userSpaceOnUse" x1="159.4236" y1="217.1584" x2="170.3672" y2="217.1584" gradientTransform="matrix(1 0 0 -1 0 364)">
						<stop  offset="0" style="stop-color:#FAE8DC"/>
						<stop  offset="1" style="stop-color:#FAB9AB;stop-opacity:0.9697"/>
					</linearGradient>
					<path class="st8" d="M160.2,144.4c3.6,1.1,6.4,3.3,8.3,6.5c0.7,1.1,2.3-0.1,1.7-1.2c-2.2-3.6-5.6-6.1-9.7-7.3
						C159.3,142,159,144,160.2,144.4L160.2,144.4z"/>
				</g>
			</g>
		</g>
		
			<linearGradient id="SVGID_7_" gradientUnits="userSpaceOnUse" x1="120.6257" y1="265.1914" x2="109.1074" y2="235.1742" gradientTransform="matrix(1 0 0 -1 0 364)">
			<stop  offset="0" style="stop-color:#FAE8DC"/>
			<stop  offset="1" style="stop-color:#FAB9AB;stop-opacity:0.9697"/>
		</linearGradient>
		<path class="st9" d="M158.9,132.2l-47.8-0.4L94,87.4c-2.3-6.4-9.2-11.3-15.1-7.9l0,0c-5.1,2.9-5.2,10-2.5,15.2l24.2,52.9
			c0.9,2.2,55.8-9,55.8-9L158.9,132.2z"/>
	</g>
	
		<linearGradient id="SVGID_8_" gradientUnits="userSpaceOnUse" x1="124.735" y1="7.946" x2="96.811" y2="162.9237" gradientTransform="matrix(1 0 0 -1 0 364)">
		<stop  offset="0" style="stop-color:#4F8CA5"/>
		<stop  offset="1" style="stop-color:#192C55"/>
	</linearGradient>
	<path class="st10" d="M97.9,176.6c2.7,1,31,67.4,31,67.4l14.1,74.8l-7.4-2l-18.1-48.6V247L70,190.9L97.9,176.6z"/>
	<g class="st3">
		<g>
			<polygon class="st11" points="133.1,330.2 135.4,330.5 143.7,168.6 141.5,168.3 			"/>
			<polygon class="st11" points="216.7,330.2 214.4,330.5 206,168.6 208.3,168.3 			"/>
		</g>
		<rect x="124" y="162.8" class="st11" width="101.8" height="3.9"/>
		<rect x="133.4" y="166.7" class="st11" width="83.1" height="3.9"/>
		<g>
			<polygon class="st11" points="123.5,342.9 126.3,343.2 136.6,168.6 133.8,168.3 			"/>
			<polygon class="st11" points="226.3,342.9 223.5,343.2 213.2,168.6 216,168.3 			"/>
		</g>
	</g>
	<g class="st3">
		<g>
			<path class="st11" d="M39.2,332.8v2.8c0,4,14.1,7.2,31.5,7.2s31.5-3.2,31.5-7.2v-2.8c0-4-14.1-7.2-31.5-7.2
				C53.3,325.6,39.2,328.8,39.2,332.8z"/>
			<path class="st11" d="M39.2,332.8c0-4,14.1-7.2,31.5-7.2c3.1,0,6.2,0.1,9,0.3l-13.9,13.9C50.8,339.3,39.2,336.4,39.2,332.8z"/>
			<path class="st11" d="M102.3,332.8c0,4-14.1,7.2-31.5,7.2c-1.7,0-3.3,0-4.9-0.1L79.8,326C92.8,326.8,102.3,329.5,102.3,332.8z"/>
		</g>
		<rect x="69.5" y="190.9" class="st11" width="3.3" height="139.7"/>
		<g>
			<path class="st11" d="M42.8,285.1c0-6.3,14.2-9.6,28.2-9.6s28.2,3.3,28.2,9.6c0,6.3-14.2,9.6-28.2,9.6S42.8,291.4,42.8,285.1z
				 M45.8,285.1c0,2.7,9.8,6.6,25.3,6.6c15.4,0,25.3-3.9,25.3-6.6s-9.8-6.6-25.3-6.6C55.6,278.4,45.8,282.4,45.8,285.1z"/>
		</g>
		<g>
			<path class="st12" d="M102.3,189.7v10c0,4-14.1,7.2-31.5,7.2s-31.5-3.2-31.5-7.2v-10H102.3z"/>
			<path class="st12" d="M39.2,189.7c0,4,14.1,7.2,31.5,7.2s31.5-3.2,31.5-7.2s-14.1-7.2-31.5-7.2S39.2,185.7,39.2,189.7z"/>
		</g>
	</g>
	<path class="st2" d="M72.5,84.3c4,4.8,9.4,8.3,15.3,10c2.1,0.6,4.4,1,6.6,0.6c2.2-0.4,4.3-1.7,5.3-3.7s0.4-4.8-1.4-6
		c3.2-0.2,6.1-2.3,7.2-5.3s0.3-6.5-1.9-8.8c4.7,0.8,9.6-1.3,12.8-4.7c3.3-3.5,5-8.1,5.8-12.8c1.7-9.9-1.2-20.6-7.7-28.5
		c3.5-1.3,2.4-11.6-6.1-16.5c-6.3-3.7-14-4.6-21.3-4.3c-7.3,0.3-14.6,2.9-19.8,8c-7.6,7.6-9.4,19.5-7.1,30c0.8,3.4,1.7,7.3-0.6,9.9
		c-1.1,1.2-2.8,1.8-4.3,2.5s-3,1.9-3.3,3.6c-0.4,3.1,3.9,5.2,3.9,8.4c0,2.3-2.2,3.9-4.1,5.3s-3.7,3.7-2.7,5.8
		c0.8,1.7,2.9,2.1,4.6,2.6c1.7,0.5,3.7,2,3.3,3.7c-0.4,1.6-2.4,2.2-2.9,3.8c-0.6,1.8,1.2,3.6,3.1,3.8c1.9,0.1,3.6-0.9,5.2-1.8
		C65.5,87.9,69.5,86.2,72.5,84.3z"/>
	<g class="st3">
		
			<linearGradient id="SVGID_9_" gradientUnits="userSpaceOnUse" x1="75.9155" y1="227.323" x2="162.4781" y2="-45.6277" gradientTransform="matrix(1 0 0 -1 0 364)">
			<stop  offset="0" style="stop-color:#4F8CA5"/>
			<stop  offset="1" style="stop-color:#192C55"/>
		</linearGradient>
		<path class="st13" d="M60.1,163.8c-7.5,0.5-15.3-6.2-20.5-4.9c-3,0.8-4.6,6.5-4.5,8.8c0.2,6,0.7,13.9,4.2,18.5
			c9.6,12.8,87.8,22.6,87.8,22.6l-16.5,19.4l-18,51.9L98,285l50.8-86.2C148.7,198.9,80.3,162.5,60.1,163.8z"/>
		<polygon class="st14" points="100.8,296.7 97.2,286.6 91,280.9 82.8,285.2 104.3,308.3 105,305 		"/>
	</g>
	
		<linearGradient id="SVGID_10_" gradientUnits="userSpaceOnUse" x1="34.5623" y1="247.0705" x2="105.1235" y2="247.0705" gradientTransform="matrix(1 0 0 -1 0 364)">
		<stop  offset="0" style="stop-color:#E2795A"/>
		<stop  offset="1" style="stop-color:#D81B60"/>
	</linearGradient>
	<path class="st15" d="M94.7,77.1c-3-4.6-4.3-13.1-10.3-13.8c-14.3-1.7-22.2,12.3-23.6,24.1c-0.9,7.8-1.5,15.5-2.2,23.3
		c-0.4,4.7-0.1,11.5-2.4,15.8c-4.1,7.5-14.2,24.2-20,33.8c-1.9,3.2-2.8,6.8,1,7.1l50.6,3.3c0,0,1.3-20.6,0-32
		c-0.9-8.1,2.5-13.1,4.8-20.7c1.1-3.5,1.4-5.3,4-8.3c2.5-2.8,7.2-6.1,8.1-10C106.7,91.5,99.2,84,94.7,77.1z"/>
	<g class="st3">
		
			<linearGradient id="SVGID_11_" gradientUnits="userSpaceOnUse" x1="75.2599" y1="315.4583" x2="109.782" y2="315.4583" gradientTransform="matrix(1 0 0 -1 0 364)">
			<stop  offset="0" style="stop-color:#FAE8DC"/>
			<stop  offset="1" style="stop-color:#FAB9AB;stop-opacity:0.9697"/>
		</linearGradient>
		<path class="st16" d="M107.7,45.4c-1.8-1.5-2-4.2-1.6-6.4c0.5-2.3,1.5-4.4,1.8-6.7s-0.3-5-2.3-6.1c0,0-14-2.6-17.2,7.1
			c-1.4,4.4-4.8,7.5-4.8,7.5c0.1-5.5-4.7-4.1-5.9-2.9c-1.2,1.2-1.4,3.2-0.6,4.7c0.8,1.5,2.4,2.6,4.1,2.4l-6.1,21
			c3.3,1.9,6.7,3.5,10,5.2c0.6-0.7,1.2-1.7,1.5-2.8c1.4-4.6,4.6-8.7,6-8.3c2.9,0.8,5.6,3.5,8.3,2.3c2.1-0.9,2.6-3.7,2.7-6
			c0.2-2.3,0.5-5,2.5-6.1c1.3-0.7,3.4-0.9,3.5-2.4C109.8,46.7,108.6,46.1,107.7,45.4z"/>
	</g>
	
		<linearGradient id="SVGID_12_" gradientUnits="userSpaceOnUse" x1="69" y1="296.0053" x2="88.5748" y2="296.0053" gradientTransform="matrix(1 0 0 -1 0 364)">
		<stop  offset="0" style="stop-color:#E2795A"/>
		<stop  offset="1" style="stop-color:#D81B60"/>
	</linearGradient>
	<path class="st17" d="M74.2,72.1c-1.4-0.1-3-0.3-4-1.3C69.3,70,69,68.7,69,67.5c0-1.2,0.4-2.4,0.8-3.5c2.2-0.8,4.4-1.5,6.7-1.6
		s4.8,0.5,6.4,2.2c0.6,0.6,1,1.3,1.4,2c1.4,2.3,2.8,4.7,4.3,7C83.8,73.1,79,72.6,74.2,72.1z"/>
	<g class="st3">
		<g>
			
				<linearGradient id="SVGID_13_" gradientUnits="userSpaceOnUse" x1="139.025" y1="216.5" x2="153.4103" y2="216.5" gradientTransform="matrix(1 0 0 -1 0 364)">
				<stop  offset="0" style="stop-color:#FAE8DC"/>
				<stop  offset="1" style="stop-color:#FAB9AB;stop-opacity:0.9697"/>
			</linearGradient>
			<polygon class="st18" points="142.6,139.9 153.4,146.1 146.5,155.1 140.5,150.9 139,145 			"/>
			<g>
				<g>
					
						<linearGradient id="SVGID_14_" gradientUnits="userSpaceOnUse" x1="150.5287" y1="215.1072" x2="160.3897" y2="215.1072" gradientTransform="matrix(1 0 0 -1 0 364)">
						<stop  offset="0" style="stop-color:#FAE8DC"/>
						<stop  offset="1" style="stop-color:#FAB9AB;stop-opacity:0.9697"/>
					</linearGradient>
					<path class="st19" d="M151.2,147.2c3.1,0.7,5.6,2.4,7.4,5c0.8,1.1,2.3-0.3,1.5-1.4c-2-2.9-4.9-4.8-8.4-5.6
						C150.6,145,150,146.9,151.2,147.2L151.2,147.2z"/>
				</g>
			</g>
			<g>
				<g>
					
						<linearGradient id="SVGID_15_" gradientUnits="userSpaceOnUse" x1="148.7067" y1="211.8069" x2="160.0934" y2="211.8069" gradientTransform="matrix(1 0 0 -1 0 364)">
						<stop  offset="0" style="stop-color:#FAE8DC"/>
						<stop  offset="1" style="stop-color:#FAB9AB;stop-opacity:0.9697"/>
					</linearGradient>
					<path class="st20" d="M149.4,150c3.7,0.9,6.7,2.9,9,6c0.8,1.1,2.3-0.3,1.5-1.4c-2.4-3.4-5.8-5.7-9.9-6.6
						C148.7,147.8,148.1,149.8,149.4,150L149.4,150z"/>
				</g>
			</g>
			<g>
				<g>
					
						<linearGradient id="SVGID_16_" gradientUnits="userSpaceOnUse" x1="145.4748" y1="209.8072" x2="156.8625" y2="209.8072" gradientTransform="matrix(1 0 0 -1 0 364)">
						<stop  offset="0" style="stop-color:#FAE8DC"/>
						<stop  offset="1" style="stop-color:#FAB9AB;stop-opacity:0.9697"/>
					</linearGradient>
					<path class="st21" d="M146.2,152c3.7,0.9,6.7,2.9,9,6c0.8,1.1,2.3-0.3,1.5-1.4c-2.4-3.4-5.8-5.7-9.9-6.6
						C145.5,149.8,144.9,151.7,146.2,152L146.2,152z"/>
				</g>
			</g>
			<g>
				<g>
					
						<linearGradient id="SVGID_17_" gradientUnits="userSpaceOnUse" x1="141.5807" y1="208.8941" x2="151.4909" y2="208.8941" gradientTransform="matrix(1 0 0 -1 0 364)">
						<stop  offset="0" style="stop-color:#FAE8DC"/>
						<stop  offset="1" style="stop-color:#FAB9AB;stop-opacity:0.9697"/>
					</linearGradient>
					<path class="st22" d="M142.2,152.1c3.4,1.5,5.9,4.2,7.4,7.5c0.5,1.2,2.3,0.3,1.8-0.9c-1.7-3.9-4.7-6.8-8.6-8.6
						C141.6,149.7,141,151.6,142.2,152.1L142.2,152.1z"/>
				</g>
			</g>
		</g>
		
			<linearGradient id="SVGID_18_" gradientUnits="userSpaceOnUse" x1="65.2161" y1="251.9628" x2="142.678" y2="251.9628" gradientTransform="matrix(1 0 0 -1 0 364)">
			<stop  offset="0" style="stop-color:#FAE8DC"/>
			<stop  offset="1" style="stop-color:#FAB9AB;stop-opacity:0.9697"/>
		</linearGradient>
		<path class="st23" d="M142.6,139.9L95.3,133L84.5,86.6C83.1,80,77,74.2,70.7,76.7l0,0c-5.5,2.2-6.5,9.2-4.6,14.7l16.7,55.8
			c0.6,2.3,56.5-1.3,56.5-1.3L142.6,139.9z"/>
	</g>
	<g class="st3">
		<path class="st24" d="M162.7,160.4H211l7.2-29.6c0.7-2.7-1.4-5.3-4.2-5.3h-39.4c-2,0-3.7,1.4-4.2,3.3L162.7,160.4z"/>
		<path class="st25" d="M219.5,127.2c0.7,1,1,2.3,0.7,3.6l-7.2,29.6h-26.7L219.5,127.2z"/>
		<path class="st26" d="M142.8,160.4h41.7l-2.4,2.4h-41.7C140.3,161.5,141.4,160.4,142.8,160.4z"/>
		<path class="st27" d="M213,160.4c0,1.3-1.1,2.4-2.4,2.4H182l2.4-2.4H213z"/>
		<path class="st24" d="M140.3,162.9h21.9c1.3,0,2.4-1.1,2.4-2.4h-21.9C141.4,160.4,140.3,161.5,140.3,162.9z"/>
		<g>
			<path class="st28" d="M164.7,160.4l7.7-31.7c0.5-1.9,2.2-3.3,4.2-3.3H216c1.5,0,2.7,0.7,3.5,1.8l-33.2,33.2H164.7z"/>
			<path class="st29" d="M197.5,144.4c-0.1,1.5-1.3,2.7-2.7,2.7s-2.4-1.2-2.3-2.7c0.1-1.5,1.3-2.7,2.7-2.7
				C196.6,141.7,197.7,142.9,197.5,144.4z"/>
		</g>
	</g>
	<g class="st3">
		<path class="st30" d="M184.1,73.8h-43.9c-2,0-3.6-1.6-3.6-3.6v-37c0-2,1.6-3.6,3.6-3.6h43.9c2,0,3.6,1.6,3.6,3.6v37.1
			C187.7,72.2,186.1,73.8,184.1,73.8z"/>
		<path class="st29" d="M183.9,72.7h-45.8c-1.4,0-2.6-1.2-2.6-2.6v-39c0-1.4,1.2-2.6,2.6-2.6h45.8c1.4,0,2.6,1.2,2.6,2.6v39
			C186.5,71.5,185.3,72.7,183.9,72.7z"/>
		<rect x="135.5" y="40" class="st30" width="51" height="1"/>
		<g>
			<path class="st31" d="M146.5,38.1h-1.3v-3.7H144v-1h3.6v1h-1.2v3.7H146.5z"/>
			<path class="st31" d="M152.8,35.8c0,0.8-0.2,1.4-0.6,1.8c-0.4,0.4-1,0.6-1.7,0.6c-0.7,0-1.3-0.2-1.7-0.6c-0.4-0.4-0.6-1-0.6-1.8
				s0.2-1.4,0.6-1.8c0.4-0.4,1-0.6,1.7-0.6c0.8,0,1.3,0.2,1.7,0.6S152.8,35,152.8,35.8z M149.5,35.8c0,0.9,0.3,1.4,1,1.4
				c0.3,0,0.6-0.1,0.7-0.3c0.2-0.2,0.2-0.6,0.2-1c0-0.5-0.1-0.8-0.2-1c-0.2-0.2-0.4-0.3-0.7-0.3C149.9,34.4,149.5,34.8,149.5,35.8z"
				/>
			<path class="st31" d="M159.4,35.7c0,0.8-0.2,1.4-0.7,1.8c-0.4,0.4-1,0.6-1.8,0.6h-1.5v-4.7h1.6c0.8,0,1.3,0.2,1.8,0.6
				C159.2,34.4,159.4,34.9,159.4,35.7z M158.1,35.7c0-0.4-0.1-0.8-0.3-1s-0.4-0.3-0.8-0.3h-0.4v2.7h0.3c0.4,0,0.7-0.1,0.9-0.3
				S158.1,36.2,158.1,35.7z"/>
			<path class="st31" d="M164.7,35.8c0,0.8-0.2,1.4-0.6,1.8s-1,0.6-1.7,0.6s-1.3-0.2-1.7-0.6c-0.4-0.4-0.6-1-0.6-1.8
				s0.2-1.4,0.6-1.8s1-0.6,1.7-0.6c0.8,0,1.3,0.2,1.7,0.6S164.7,35,164.7,35.8z M161.4,35.8c0,0.9,0.3,1.4,1,1.4
				c0.3,0,0.6-0.1,0.7-0.3c0.2-0.2,0.2-0.6,0.2-1c0-0.5-0.1-0.8-0.2-1c-0.2-0.2-0.4-0.3-0.7-0.3C161.8,34.4,161.4,34.8,161.4,35.8z"
				/>
			<path class="st31" d="M167.3,38.1v-4.7h1.3v3.7h1.8v1H167.3z"/>
			<path class="st31" d="M171.2,38.1v-4.7h1.3v4.7H171.2z"/>
			<path class="st31" d="M176.6,36.7c0,0.3-0.1,0.6-0.2,0.8c-0.1,0.2-0.4,0.4-0.6,0.5s-0.6,0.2-1,0.2c-0.3,0-0.6,0-0.8-0.1
				c-0.2,0-0.4-0.1-0.7-0.2v-1.1c0.2,0.1,0.5,0.2,0.8,0.3s0.5,0.1,0.7,0.1s0.3,0,0.4-0.1s0.1-0.2,0.1-0.3s0-0.1-0.1-0.2
				c0,0-0.1-0.1-0.2-0.1s-0.3-0.2-0.6-0.3s-0.5-0.3-0.7-0.4c-0.2-0.1-0.3-0.3-0.3-0.5s-0.1-0.4-0.1-0.6c0-0.4,0.2-0.8,0.5-1
				s0.8-0.4,1.3-0.4s1,0.1,1.5,0.3l-0.4,1c-0.4-0.2-0.8-0.3-1.1-0.3c-0.2,0-0.3,0-0.4,0.1c-0.1,0.1-0.1,0.1-0.1,0.2
				c0,0.1,0,0.2,0.1,0.3s0.4,0.2,0.8,0.4c0.4,0.2,0.7,0.4,0.9,0.6C176.5,36.1,176.6,36.4,176.6,36.7z"/>
			<path class="st31" d="M179.4,38.1h-1.3v-3.7H177v-1h3.6v1h-1.2L179.4,38.1L179.4,38.1z"/>
		</g>
		<path class="st32" d="M170,49.8h-28.8c-1,0-1.8-0.8-1.8-1.8l0,0c0-1,0.8-1.8,1.8-1.8H170c1,0,1.8,0.8,1.8,1.8l0,0
			C171.8,49,171,49.8,170,49.8z"/>
		<path class="st32" d="M170,57.5h-28.8c-1,0-1.8-0.8-1.8-1.8l0,0c0-1,0.8-1.8,1.8-1.8H170c1,0,1.8,0.8,1.8,1.8l0,0
			C171.8,56.7,171,57.5,170,57.5z"/>
		<path class="st32" d="M170,65.3h-28.8c-1,0-1.8-0.8-1.8-1.8l0,0c0-1,0.8-1.8,1.8-1.8H170c1,0,1.8,0.8,1.8,1.8l0,0
			C171.8,64.5,171,65.3,170,65.3z"/>
		<polyline class="st33" points="176.2,47.5 178.6,50 181.9,45.8 		"/>
		<polyline class="st33" points="176.2,55.2 178.6,57.8 181.9,53.6 		"/>
		<polyline class="st33" points="176.2,63 178.6,65.5 181.9,61.3 		"/>
	</g>
	<g class="st3">
		
			<linearGradient id="SVGID_19_" gradientUnits="userSpaceOnUse" x1="268.8" y1="210.9521" x2="268.8" y2="193.4303" gradientTransform="matrix(1 0 0 -1 0 364)">
			<stop  offset="0" style="stop-color:#1385A4"/>
			<stop  offset="1.706618e-02" style="stop-color:#218CA9"/>
			<stop  offset="7.932097e-02" style="stop-color:#4FA4BB"/>
			<stop  offset="0.1473" style="stop-color:#79BACB"/>
			<stop  offset="0.2196" style="stop-color:#9DCDD9"/>
			<stop  offset="0.2973" style="stop-color:#BCDCE5"/>
			<stop  offset="0.3822" style="stop-color:#D4E9EF"/>
			<stop  offset="0.4771" style="stop-color:#E8F3F6"/>
			<stop  offset="0.5876" style="stop-color:#F5FAFB"/>
			<stop  offset="0.7282" style="stop-color:#FDFEFE"/>
			<stop  offset="1" style="stop-color:#FFFFFF"/>
		</linearGradient>
		<path class="st34" d="M308.9,177.7l1.3-15.5c0.2-2.1-1.4-3.9-3.5-3.9h-10.9h-54h-10.9c-2.1,0-3.7,1.7-3.5,3.9l1.3,15.5H308.9z"/>
		<g class="st35">
			<path class="st32" d="M241.7,158.3h64.9c2.1,0,3.7-1.7,3.5-3.9l-3.9-46.8c-0.1-1.7-1.5-3-3.2-3h-69.7l4.2,49.7
				C237.7,156.6,239.6,158.3,241.7,158.3z"/>
		</g>
		<path class="st29" d="M295.7,158.3h-64.9c-2.1,0-3.7-1.7-3.5-3.9l4.2-49.7H304l-4.2,49.7C299.7,156.6,297.8,158.3,295.7,158.3z"/>
		<polygon class="st32" points="302.8,119.1 230.2,119.1 231.4,105 304,105 		"/>
		<g>
			<path class="st29" d="M241.3,114.3h-1.5l0.5-5.7h3.4l-0.1,1.2h-1.9l-0.1,1.1h1.7l-0.1,1.2h-1.7L241.3,114.3z"/>
			<path class="st29" d="M249.1,114.3h-3.4l0.5-5.7h3.4l-0.1,1.2h-1.8l-0.1,0.9h1.7l-0.1,1.2h-1.7l-0.1,1.1h1.8L249.1,114.3z"/>
			<path class="st29" d="M252.1,108.6h2c0.8,0,1.3,0.1,1.7,0.3c0.4,0.2,0.5,0.6,0.5,1.1c0,0.3-0.1,0.6-0.3,0.8
				c-0.2,0.2-0.4,0.4-0.7,0.4l0,0c0.3,0.1,0.6,0.3,0.7,0.5c0.1,0.2,0.2,0.5,0.2,0.9c0,0.5-0.3,0.9-0.7,1.2c-0.4,0.3-1,0.4-1.6,0.4
				h-2.2L252.1,108.6z M253.4,111.9l-0.1,1.2h0.5c0.5,0,0.7-0.2,0.8-0.6c0-0.2,0-0.3-0.2-0.4c-0.1-0.1-0.3-0.2-0.5-0.2H253.4z
				 M253.5,110.8h0.5c0.2,0,0.4,0,0.5-0.1s0.2-0.2,0.2-0.4c0-0.3-0.2-0.5-0.7-0.5h-0.4L253.5,110.8z"/>
			<path class="st29" d="M260.3,112.2l-0.2,2.1h-1.5l0.5-5.7h1.9c1.5,0,2.3,0.6,2.2,1.7c-0.1,0.7-0.4,1.2-1.1,1.5l1.5,2.5h-1.7
				l-1-2.1H260.3z M260.4,111.1h0.3c0.5,0,0.8-0.2,0.9-0.7c0-0.4-0.2-0.6-0.7-0.6h-0.3L260.4,111.1z"/>
			<path class="st29" d="M270.9,108.6l-0.3,3.4c-0.1,0.7-0.3,1.3-0.8,1.7c-0.5,0.4-1.1,0.6-1.9,0.6c-0.8,0-1.4-0.2-1.7-0.6
				c-0.4-0.4-0.5-1-0.5-1.7l0.3-3.5h1.5l-0.3,3.3c0,0.4,0,0.7,0.2,0.9c0.1,0.2,0.3,0.3,0.6,0.3s0.5-0.1,0.7-0.3
				c0.2-0.2,0.3-0.5,0.3-0.9l0.3-3.3L270.9,108.6L270.9,108.6z"/>
			<path class="st29" d="M276.7,114.3l-0.2-1.1h-1.8l-0.4,1.1h-1.7l2.3-5.7h2.1l1.4,5.7H276.7z M276.3,112l-0.2-0.9
				c0-0.2-0.1-0.5-0.1-0.8c-0.1-0.3-0.1-0.6-0.1-0.7c0,0.1-0.1,0.4-0.2,0.7c-0.1,0.3-0.3,0.9-0.6,1.8L276.3,112L276.3,112z"/>
			<path class="st29" d="M282.4,112.2l-0.2,2.1h-1.5l0.5-5.7h1.9c1.5,0,2.3,0.6,2.2,1.7c-0.1,0.7-0.4,1.2-1.1,1.5l1.5,2.5H284
				l-1-2.1H282.4z M282.5,111.1h0.3c0.5,0,0.8-0.2,0.9-0.7c0-0.4-0.2-0.6-0.7-0.6h-0.3L282.5,111.1z"/>
			<path class="st29" d="M290,110.7l1.2-2.1h1.7l-2.2,3.5l-0.2,2.2H289l0.2-2.2l-1.6-3.5h1.7L290,110.7z"/>
		</g>
		<g>
			<polygon class="st32" points="241.8,122.7 235.5,122.7 235.6,121.8 241.8,121.8 			"/>
			<polygon class="st32" points="251,122.7 244.7,122.7 244.8,121.8 251,121.8 			"/>
			<polygon class="st32" points="260.2,122.7 253.9,122.7 254,121.8 260.2,121.8 			"/>
			<polygon class="st32" points="269.3,122.7 263.1,122.7 263.1,121.8 269.4,121.8 			"/>
			<polygon class="st32" points="278.5,122.7 272.3,122.7 272.3,121.8 278.6,121.8 			"/>
			<polygon class="st32" points="287.7,122.7 281.4,122.7 281.5,121.8 287.8,121.8 			"/>
			<polygon class="st32" points="296.9,122.7 290.6,122.7 290.7,121.8 297,121.8 			"/>
		</g>
		<g>
			<g>
				<path class="st36" d="M240.3,127.4c-0.1,1.1-1.1,2-2.2,2c-1.1,0-2-0.9-1.9-2c0.1-1.1,1.1-2,2.2-2
					C239.5,125.4,240.4,126.3,240.3,127.4z"/>
				<path class="st36" d="M249.5,127.4c-0.1,1.1-1.1,2-2.2,2s-2-0.9-1.9-2c0.1-1.1,1.1-2,2.2-2C248.7,125.4,249.6,126.3,249.5,127.4
					z"/>
				<path class="st37" d="M258.7,127.4c-0.1,1.1-1.1,2-2.2,2c-1.1,0-2-0.9-1.9-2c0.1-1.1,1.1-2,2.2-2
					C257.9,125.4,258.8,126.3,258.7,127.4z"/>
				<path class="st37" d="M267.9,127.4c-0.1,1.1-1.1,2-2.2,2c-1.1,0-2-0.9-1.9-2c0.1-1.1,1.1-2,2.2-2
					C267.1,125.4,267.9,126.3,267.9,127.4z"/>
				<path class="st37" d="M277,127.4c-0.1,1.1-1.1,2-2.2,2c-1.1,0-2-0.9-1.9-2c0.1-1.1,1.1-2,2.2-2
					C276.3,125.4,277.1,126.3,277,127.4z"/>
				<path class="st37" d="M286.2,127.4c-0.1,1.1-1.1,2-2.2,2c-1.1,0-2-0.9-1.9-2c0.1-1.1,1.1-2,2.2-2S286.3,126.3,286.2,127.4z"/>
				<path class="st37" d="M295.4,127.4c-0.1,1.1-1.1,2-2.2,2s-2-0.9-1.9-2c0.1-1.1,1.1-2,2.2-2C294.7,125.4,295.5,126.3,295.4,127.4
					z"/>
			</g>
		</g>
		<g>
			<g>
				<path class="st32" d="M239.7,134.6c-0.1,1.1-1.1,2-2.2,2c-1.1,0-2-0.9-1.9-2s1.1-2,2.2-2S239.8,133.5,239.7,134.6z"/>
				<path class="st37" d="M248.9,134.6c-0.1,1.1-1.1,2-2.2,2s-2-0.9-1.9-2s1.1-2,2.2-2C248.1,132.6,249,133.5,248.9,134.6z"/>
				<path class="st37" d="M258.1,134.6c-0.1,1.1-1.1,2-2.2,2s-2-0.9-1.9-2s1.1-2,2.2-2C257.3,132.6,258.2,133.5,258.1,134.6z"/>
				<path class="st37" d="M267.2,134.6c-0.1,1.1-1.1,2-2.2,2s-2-0.9-1.9-2s1.1-2,2.2-2C266.5,132.6,267.3,133.5,267.2,134.6z"/>
				<path class="st37" d="M276.4,134.6c-0.1,1.1-1.1,2-2.2,2c-1.1,0-2-0.9-1.9-2c0.1-1.1,1.1-2,2.2-2S276.5,133.5,276.4,134.6z"/>
				<path class="st37" d="M285.6,134.6c-0.1,1.1-1.1,2-2.2,2c-1.1,0-2-0.9-1.9-2c0.1-1.1,1.1-2,2.2-2
					C284.9,132.6,285.7,133.5,285.6,134.6z"/>
				<path class="st37" d="M294.8,134.6c-0.1,1.1-1.1,2-2.2,2s-2-0.9-1.9-2s1.1-2,2.2-2S294.9,133.5,294.8,134.6z"/>
			</g>
		</g>
		<g>
			<g>
				<path class="st32" d="M239.1,141.8c-0.1,1.1-1.1,2-2.2,2s-2-0.9-1.9-2s1.1-2,2.2-2S239.2,140.7,239.1,141.8z"/>
				<path class="st37" d="M248.3,141.8c-0.1,1.1-1.1,2-2.2,2c-1.1,0-2-0.9-1.9-2s1.1-2,2.2-2S248.4,140.7,248.3,141.8z"/>
				<path class="st37" d="M257.4,141.8c-0.1,1.1-1.1,2-2.2,2s-2-0.9-1.9-2s1.1-2,2.2-2C256.7,139.8,257.5,140.7,257.4,141.8z"/>
				<path class="st37" d="M266.6,141.8c-0.1,1.1-1.1,2-2.2,2c-1.1,0-2-0.9-1.9-2c0.1-1.1,1.1-2,2.2-2
					C265.9,139.8,266.7,140.7,266.6,141.8z"/>
				<path class="st37" d="M275.8,141.8c-0.1,1.1-1.1,2-2.2,2s-2-0.9-1.9-2s1.1-2,2.2-2C275.1,139.8,275.9,140.7,275.8,141.8z"/>
				<path class="st37" d="M285,141.8c-0.1,1.1-1.1,2-2.2,2c-1.1,0-2-0.9-1.9-2c0.1-1.1,1.1-2,2.2-2S285.1,140.7,285,141.8z"/>
				<path class="st37" d="M294.2,141.8c-0.1,1.1-1.1,2-2.2,2s-2-0.9-1.9-2s1.1-2,2.2-2C293.5,139.8,294.3,140.7,294.2,141.8z"/>
			</g>
		</g>
		<g>
			<g>
				<path class="st32" d="M238.5,149.1c-0.1,1.1-1.1,2-2.2,2c-1.1,0-2-0.9-1.9-2s1.1-2,2.2-2C237.7,147,238.6,147.9,238.5,149.1z"/>
				<path class="st37" d="M247.7,149.1c-0.1,1.1-1.1,2-2.2,2s-2-0.9-1.9-2s1.1-2,2.2-2C246.9,147,247.7,147.9,247.7,149.1z"/>
				<path class="st37" d="M256.8,149.1c-0.1,1.1-1.1,2-2.2,2c-1.1,0-2-0.9-1.9-2s1.1-2,2.2-2C256.1,147,256.9,147.9,256.8,149.1z"/>
				<path class="st37" d="M266,149.1c-0.1,1.1-1.1,2-2.2,2c-1.1,0-2-0.9-1.9-2c0.1-1.1,1.1-2,2.2-2S266.1,147.9,266,149.1z"/>
				<path class="st36" d="M275.2,149.1c-0.1,1.1-1.1,2-2.2,2c-1.1,0-2-0.9-1.9-2s1.1-2,2.2-2C274.5,147,275.3,147.9,275.2,149.1z"/>
				<path class="st36" d="M284.4,149.1c-0.1,1.1-1.1,2-2.2,2c-1.1,0-2-0.9-1.9-2c0.1-1.1,1.1-2,2.2-2S284.5,147.9,284.4,149.1z"/>
				<path class="st36" d="M293.6,149.1c-0.1,1.1-1.1,2-2.2,2s-2-0.9-1.9-2s1.1-2,2.2-2C292.9,147,293.7,147.9,293.6,149.1z"/>
			</g>
		</g>
	</g>
	<path class="st38" d="M181.6,117c0,0.5-0.4,0.9-0.9,0.9s-0.9-0.4-0.9-0.9s0.4-0.9,0.9-0.9C181.1,116.1,181.6,116.5,181.6,117z"/>
	<path class="st39" d="M222.1,99.4H187c-1.8,0-3.3-1.5-3.3-3.3V85.5c0-1.8,1.5-3.3,3.3-3.3h35.1c1.8,0,3.3,1.5,3.3,3.3v10.6
		C225.4,97.9,223.9,99.4,222.1,99.4z"/>
	<path class="st38" d="M220.9,98.7h-35.1c-1.8,0-3.3-1.5-3.3-3.3V84.8c0-1.8,1.5-3.3,3.3-3.3h35.1c1.8,0,3.3,1.5,3.3,3.3v10.6
		C224.2,97.2,222.7,98.7,220.9,98.7z"/>
	<g class="st3">
		<path class="st31" d="M196.4,89.9c0,2.4-0.9,3.7-2.4,3.7c-1.4,0-2.3-1.3-2.3-3.6c0-2.3,1-3.6,2.4-3.6
			C195.6,86.4,196.4,87.7,196.4,89.9z M192.6,90c0,1.8,0.6,2.8,1.4,2.8c1,0,1.4-1.1,1.4-2.9c0-1.7-0.4-2.8-1.4-2.8
			C193.2,87.1,192.6,88.1,192.6,90z"/>
		<path class="st31" d="M201.5,87.1c-0.2,0-0.4,0-0.8,0c-0.5,0.1-1.1,0.3-1.4,0.7c-0.5,0.4-0.8,1-0.9,1.8l0,0
			c0.4-0.5,0.9-0.7,1.6-0.7c1.2,0,2,0.9,2,2.1c0,1.3-0.9,2.5-2.4,2.5c-1.4,0-2.3-1.2-2.3-2.9c0-1.5,0.5-2.6,1.2-3.2
			c0.5-0.5,1.3-0.8,2-0.9c0.3-0.1,0.6-0.1,0.9-0.1L201.5,87.1L201.5,87.1z M201.2,91.1c0-0.9-0.5-1.5-1.3-1.5
			c-0.6,0-1.1,0.3-1.4,0.7c-0.1,0.1-0.1,0.2-0.1,0.3c0,1.2,0.4,2.1,1.4,2.1C200.6,92.8,201.2,92.1,201.2,91.1z"/>
		<path class="st31" d="M202.8,88.1c0-0.4,0.3-0.7,0.6-0.7c0.4,0,0.6,0.3,0.6,0.7c0,0.4-0.2,0.7-0.6,0.7S202.8,88.5,202.8,88.1z
			 M202.8,91.9c0-0.4,0.3-0.7,0.6-0.7c0.4,0,0.6,0.3,0.6,0.7c0,0.4-0.2,0.7-0.6,0.7C203,92.5,202.8,92.3,202.8,91.9z"/>
		<path class="st31" d="M209.5,89.9c0,2.4-0.9,3.7-2.4,3.7c-1.4,0-2.3-1.3-2.3-3.6c0-2.3,1-3.6,2.4-3.6
			C208.7,86.4,209.5,87.7,209.5,89.9z M205.8,90c0,1.8,0.6,2.8,1.4,2.8c1,0,1.4-1.1,1.4-2.9c0-1.7-0.4-2.8-1.4-2.8
			C206.4,87.1,205.8,88.1,205.8,90z"/>
		<path class="st31" d="M215,89.9c0,2.4-0.9,3.7-2.4,3.7c-1.4,0-2.3-1.3-2.3-3.6c0-2.3,1-3.6,2.4-3.6C214.2,86.4,215,87.7,215,89.9z
			 M211.2,90c0,1.8,0.6,2.8,1.4,2.8c1,0,1.4-1.1,1.4-2.9c0-1.7-0.4-2.8-1.4-2.8C211.8,87.1,211.2,88.1,211.2,90z"/>
	</g>
</g>
<g>
	
		<linearGradient id="SVGID_20_" gradientUnits="userSpaceOnUse" x1="683.515" y1="-1668.5223" x2="3701.7158" y2="-1668.5223" gradientTransform="matrix(6.563689e-02 0 0 -6.563689e-02 0.9344 24.8307)">
		<stop  offset="0" style="stop-color:#E47F62"/>
		<stop  offset="1" style="stop-color:#D93268"/>
	</linearGradient>
	<path class="st40" d="M243.9,134.3c0,54.7-44.3,99.1-99,99.1c-54.7,0-99.1-44.3-99.1-99.1c0-54.7,44.3-99,99.1-99
		C199.6,35.3,243.9,79.6,243.9,134.3z"/>
	
		<linearGradient id="SVGID_21_" gradientUnits="userSpaceOnUse" x1="930.6192" y1="-1668.218" x2="3455.2202" y2="-1668.218" gradientTransform="matrix(6.563689e-02 0 0 -6.563689e-02 0.9344 24.8307)">
		<stop  offset="0" style="stop-color:#F9E8DC"/>
		<stop  offset="1" style="stop-color:#F9BBAD;stop-opacity:0.9686"/>
	</linearGradient>
	<path class="st41" d="M227.7,134.3c0,45.8-37.1,82.9-82.9,82.9c-45.8,0-82.9-37.1-82.9-82.9c0-45.7,37.1-82.9,82.9-82.9
		C190.6,51.5,227.7,88.6,227.7,134.3z"/>
	<path class="st29" d="M222.9,134.3c0,43.1-35,78-78,78c-43.1,0-78-34.9-78-78c0-43.1,34.9-78,78-78
		C187.9,56.3,222.9,91.3,222.9,134.3z"/>
	<defs>
		<filter id="Adobe_OpacityMaskFilter" filterUnits="userSpaceOnUse" x="139" y="130.6" width="11.8" height="11.7">
			<feColorMatrix  type="matrix" values="1 0 0 0 0  0 1 0 0 0  0 0 1 0 0  0 0 0 1 0"/>
		</filter>
	</defs>
	<mask maskUnits="userSpaceOnUse" x="139" y="130.6" width="11.8" height="11.7" id="id0_2_">
		
			<linearGradient id="SVGID_22_" gradientUnits="userSpaceOnUse" x1="2103.1101" y1="-1700.4755" x2="2282.3884" y2="-1700.4755" gradientTransform="matrix(6.563689e-02 0 0 -6.563689e-02 0.9344 24.8307)">
			<stop  offset="0" style="stop-color:#FFFFFF;stop-opacity:0.2"/>
			<stop  offset="1" style="stop-color:#FFFFFF;stop-opacity:0.1922"/>
		</linearGradient>
		<rect x="138.9" y="130.5" class="st42" width="11.9" height="11.9"/>
	</mask>
	<path class="st43" d="M150.7,136.4c0,3.2-2.6,5.9-5.9,5.9c-3.3,0-5.9-2.6-5.9-5.9c0-3.3,2.6-5.9,5.9-5.9
		C148.1,130.6,150.7,133.2,150.7,136.4z"/>
	<polygon points="141.9,64.7 141.9,81.8 138,81.8 138,68.8 134.9,69.6 134,66.3 138.4,64.7 	"/>
	<path d="M144.1,79l5.8-6c1-1,1.8-2,1.8-3c0-1.1-0.7-1.8-1.8-1.8c-1.2,0-2.1,0.8-2.6,1.8l-3.3-1.9c1.1-2.6,3.4-3.8,5.8-3.8
		c3.1,0,5.8,2,5.8,5.5c0,2-1.1,3.8-2.7,5.4L150,78h5.8v3.8h-11.7V79z"/>
	<path d="M151.2,202.6c0,3.6-2.6,6.1-6.4,6.1c-3.8,0-6.4-2.5-6.4-6.1c0-1.3,0.4-2.5,1-3.5l5.2-7.9h4.5l-3.7,5.4
		C148.9,196.8,151.2,199.3,151.2,202.6z M147.3,202.6L147.3,202.6c0-1.5-1.2-2.4-2.4-2.4c-1.3,0-2.5,0.8-2.5,2.4
		c0,1.5,1.2,2.4,2.5,2.4C146.1,205,147.3,204.1,147.3,202.6z"/>
	<path d="M90.8,135.1l-5.2,7.9h-4.5l3.7-5.4c-3.4-0.3-5.7-2.7-5.7-6c0-3.6,2.6-6,6.4-6c3.8,0,6.4,2.5,6.4,6
		C91.8,133,91.5,134.2,90.8,135.1z M85.4,134L85.4,134c1.4,0,2.5-0.8,2.5-2.4s-1.1-2.4-2.5-2.4c-1.3,0-2.4,0.9-2.4,2.4
		S84.1,134,85.4,134z"/>
	<path d="M210.4,137.4c0,3.8-2.9,5.7-6.2,5.7c-2.6,0-5-1.2-6-3.7l3.4-2c0.4,1.1,1.1,1.8,2.6,1.8c1.6,0,2.3-0.9,2.3-1.9
		c0-1.1-0.7-1.9-2.3-1.9h-0.8l-1.5-2.2l3.1-4h-6.3v-3.6h11v3.2l-3,3.8C208.9,133.3,210.4,135,210.4,137.4z"/>
	<path d="M151.2,134.3c0,3.5-2.8,6.4-6.4,6.4c-3.5,0-6.4-2.9-6.4-6.4c0-3.5,2.9-6.4,6.4-6.4C148.4,128,151.2,130.8,151.2,134.3z"/>
	<path d="M186.9,79.7c0,1.6-1.3,2.8-2.8,2.8c-1.6,0-2.8-1.2-2.8-2.8c0-1.6,1.2-2.8,2.8-2.8C185.6,76.9,186.9,78.1,186.9,79.7z"/>
	<path d="M204.2,100.5c0,1.6-1.2,2.8-2.8,2.8s-2.8-1.2-2.8-2.8c0-1.5,1.2-2.8,2.8-2.8S204.2,99,204.2,100.5z"/>
	<path d="M186.9,189c0-1.6-1.3-2.8-2.8-2.8c-1.6,0-2.8,1.2-2.8,2.8c0,1.5,1.2,2.8,2.8,2.8C185.6,191.8,186.9,190.5,186.9,189z"/>
	<path d="M204.2,168.2c0-1.5-1.2-2.8-2.8-2.8s-2.8,1.3-2.8,2.8c0,1.6,1.2,2.8,2.8,2.8S204.2,169.7,204.2,168.2z"/>
	<path d="M102.8,79.7c0,1.6,1.2,2.8,2.8,2.8c1.5,0,2.8-1.2,2.8-2.8c0-1.6-1.3-2.8-2.8-2.8C104.1,76.9,102.8,78.1,102.8,79.7z"/>
	<path d="M85.5,100.5c0,1.6,1.3,2.8,2.8,2.8c1.6,0,2.8-1.2,2.8-2.8c0-1.5-1.2-2.8-2.8-2.8C86.8,97.7,85.5,99,85.5,100.5z"/>
	<path d="M102.8,189c0-1.6,1.2-2.8,2.8-2.8c1.5,0,2.8,1.2,2.8,2.8c0,1.5-1.3,2.8-2.8,2.8C104.1,191.8,102.8,190.5,102.8,189z"/>
	<path d="M85.5,168.2c0-1.5,1.3-2.8,2.8-2.8c1.6,0,2.8,1.3,2.8,2.8c0,1.6-1.2,2.8-2.8,2.8C86.8,171,85.5,169.7,85.5,168.2z"/>
	<path d="M147.3,91.1c0,1.4-1.1,2.4-2.4,2.4c-1.4,0-2.5-1.1-2.5-2.4s1.1-2.4,2.5-2.4C146.2,88.7,147.3,89.8,147.3,91.1z"/>
	<path d="M144.9,169.8c1.4,0,2.4,1.1,2.4,2.4c0,1.4-1.1,2.4-2.4,2.4c-1.4,0-2.5-1.1-2.5-2.4C142.4,170.9,143.5,169.8,144.9,169.8z"
		/>
	<path class="st44" d="M191.7,251.3l-5.8,9.4c-4.2,6.8-7.2,14.2-9,22c0,0-2,13.1-3.7,24.2c0,0.2,0,0.3,0,0.4
		c0.7,1.8-1.5,2.4-1.2,3.8c-0.2,0.3-0.4,0.6-0.5,0.9c-0.6,1.2-2.8,9.1-3.9,9.3c-1.9,1.7,0.5,2.2,0.4,3.4c0,0.2,0,0.2,0,0.2h9.6
		l0.5-1.2c0-0.1,0.1-0.2,0.2-0.3c1.9-1.3,2.2-2.9,2.3-4.6c0-0.2,0-0.3,0-0.5c0.6-0.5,1.1-1,1.4-1.5c0.1-0.1,0.2-0.2,0.2-0.4
		c-1.4-3.4,1.4-3.6,2.6-6.9c0-0.2,0-0.3,0-0.5c0-0.1,0.1-0.2,0.2-0.3c10.3-22.5,27.3-59.8,27.3-59.8l13.4-83.8l-39.8-2.6
		L191.7,251.3z"/>
	<path class="st45" d="M216.7,301.8c-0.3-8.5-1-15.3-0.1-16.8c0.1-0.2,0.2-0.4,0.3-0.5c-2.2-2.4-4.4-4.8-6.6-7.2
		c-3.1,1.3-9.1,3.7-9.6,5.7c-0.4,2.2,2.7,6.7,5.3,9.3c2.9,2.9,1.6,4.8,3.6,8.4c1.3,2.3,8.9,12.7,10.1,10.3
		C220.4,309.5,216.7,302,216.7,301.8z"/>
	<path class="st45" d="M190.8,336c-6.8-5-12.6-8.7-13.3-10.3c-0.1-0.2-0.2-0.4-0.2-0.6c-3.2,0.3-6.4,0.4-9.7,0.7
		c-0.9,3.2-2.8,9.5-1.5,11c1.4,1.7,6.9,2,10.6,1.6c4-0.5,4.8,1.8,8.8,2.4c2.6,0.4,15.5,0.9,14.3-1.5
		C199,337.8,190.9,336.1,190.8,336z"/>
	<path class="st45" d="M184.1,158c-2,9.7-2.5,18.5,3.8,26c8.4,10.1,70.7,42.5,66.6,44.2c-9.7,3.9-22.5,21.4-34.1,37
		c-0.1,0.1-0.2,0.2-0.2,0.3c-0.4,2.9-3.6,2.9-5.4,4.9c-0.1,0.1-0.2,0.3-0.2,0.4c-0.4,1.1-0.2,2.7-0.9,3.1c-0.1,0.1-0.1,0.2-0.2,0.3
		c-0.6,0.7-1.1,1.4-1.7,2.1c2.4,3.2,3.3,4.4,5.7,7.6c0.1,0,0.4-0.3,0.8-0.6c0.1-0.1,0.2-0.2,0.4-0.3c3.5,0.7,3.5-0.9,4-3.3
		c0.1-0.1,0.3-0.2,0.4-0.3c0.1-0.1,0.2-0.2,0.4-0.3c3.5,0.6,2.7-1.1,4.3-3.5c0.1-0.1,0.3-0.2,0.4-0.4c15.1-12.3,41.9-34.4,51.3-43.1
		c1.9-1.8,2.1-4.8,0.4-6.8c-14.4-17.6-45.5-54.7-50.1-59.4c-2.9-3-3.8-5-3.7-8H184.1z"/>
	<path class="st44" d="M184.1,158c-2,9.7-2.5,18.5,3.8,26c8.4,10.1,70.7,42.5,66.6,44.2c-9.7,3.9-22.5,21.4-34.1,37
		c-0.1,0.1-0.2,0.2-0.2,0.3c-0.4,2.9-3.6,2.9-5.4,4.9c-0.1,0.1-0.2,0.3-0.2,0.4c-0.4,1.1-0.2,2.7-0.9,3.1c-0.1,0.1-0.1,0.2-0.2,0.3
		c-0.6,0.7-1.1,1.4-1.7,2.1c2.4,3.2,3.3,4.4,5.7,7.6c0.1,0,0.4-0.3,0.8-0.6c0.1-0.1,0.2-0.2,0.4-0.3c3.5,0.7,3.5-0.9,4-3.3
		c0.1-0.1,0.3-0.2,0.4-0.3c0.1-0.1,0.2-0.2,0.4-0.3c3.5,0.6,2.7-1.1,4.3-3.5c0.1-0.1,0.3-0.2,0.4-0.4c15.1-12.3,41.9-34.4,51.3-43.1
		c1.9-1.8,2.1-4.8,0.4-6.8c-14.4-17.6-45.5-54.7-50.1-59.4c-2.9-3-3.8-5-3.7-8H184.1z"/>
	<polygon class="st46" points="255.3,122.3 273.6,132.7 288.4,98.9 271.9,89.7 	"/>
	<polygon class="st46" points="253.8,120.7 271.6,129.3 288.6,98.5 270.3,88.1 	"/>
	<polygon class="st47" points="253.8,120.7 271.6,129.3 288.6,98.5 270.3,88.1 	"/>
	<defs>
		<filter id="Adobe_OpacityMaskFilter_1_" filterUnits="userSpaceOnUse" x="225.3" y="120.6" width="29.4" height="13.3">
			<feColorMatrix  type="matrix" values="1 0 0 0 0  0 1 0 0 0  0 0 1 0 0  0 0 0 1 0"/>
		</filter>
	</defs>
	<mask maskUnits="userSpaceOnUse" x="225.3" y="120.6" width="29.4" height="13.3" id="id2_2_">
		
			<linearGradient id="SVGID_23_" gradientUnits="userSpaceOnUse" x1="3521.147" y1="-1559.5774" x2="3764.3987" y2="-1559.5774" gradientTransform="matrix(6.563689e-02 0 0 -6.563689e-02 0.9344 24.8307)">
			<stop  offset="0" style="stop-color:#FFFFFF"/>
			<stop  offset="1" style="stop-color:#FFFFFF;stop-opacity:0.9686"/>
		</linearGradient>
		<rect x="221" y="111" class="st48" width="38" height="32.3"/>
	</mask>
	
		<linearGradient id="SVGID_24_" gradientUnits="userSpaceOnUse" x1="3521.147" y1="-1559.8817" x2="3764.3987" y2="-1559.8817" gradientTransform="matrix(6.563689e-02 0 0 -6.563689e-02 0.9344 24.8307)">
		<stop  offset="0" style="stop-color:#F9E8DC"/>
		<stop  offset="1" style="stop-color:#F9BBAD"/>
	</linearGradient>
	<path class="st49" d="M226.4,133.8c7.6-1.9,28.3-8.7,28.3-8.7l-2.6-4.5l-26.8,0C226.5,122.9,225.6,131.5,226.4,133.8z"/>
	<defs>
		<filter id="Adobe_OpacityMaskFilter_2_" filterUnits="userSpaceOnUse" x="250.3" y="116.2" width="15.1" height="8.9">
			<feColorMatrix  type="matrix" values="1 0 0 0 0  0 1 0 0 0  0 0 1 0 0  0 0 0 1 0"/>
		</filter>
	</defs>
	<mask maskUnits="userSpaceOnUse" x="250.3" y="116.2" width="15.1" height="8.9" id="id4_2_">
		
			<linearGradient id="SVGID_25_" gradientUnits="userSpaceOnUse" x1="3799.7234" y1="-1459.762" x2="4029.9688" y2="-1459.762" gradientTransform="matrix(6.563689e-02 0 0 -6.563689e-02 0.9344 24.8307)">
			<stop  offset="0" style="stop-color:#FFFFFF"/>
			<stop  offset="1" style="stop-color:#FFFFFF;stop-opacity:0.9686"/>
		</linearGradient>
		<rect x="250.3" y="116.1" class="st50" width="15.3" height="9.1"/>
	</mask>
	
		<linearGradient id="SVGID_26_" gradientUnits="userSpaceOnUse" x1="3799.687" y1="-1459.7126" x2="4029.8726" y2="-1459.7126" gradientTransform="matrix(6.563689e-02 0 0 -6.563689e-02 0.9344 24.8307)">
		<stop  offset="0" style="stop-color:#F9E8DC"/>
		<stop  offset="1" style="stop-color:#F9BBAD"/>
	</linearGradient>
	<path class="st51" d="M262.5,122.9c1.2-0.5,2.6-1.2,2.9-2.4c0.2-0.8,0-1.7-0.6-2.4c-0.5-0.7-1.2-1.2-1.9-1.8
		c-1.2-1-12.4,3.2-12.6,6.7c0,1.1,0.9,1.4,1.9,1.8C254.6,125.8,259.3,124.2,262.5,122.9z"/>
	<path class="st52" d="M262,122c1.9,0.1,4.7-4.8,4.6-6.7c-0.1-1-1.8-2.4-2.8-2.2c-0.3,1,0.9,1.2,1.2,1.9c0.2,0.6-0.3,1.1-0.8,1.7
		C263.1,118.3,260.6,119.4,262,122z"/>
	<path class="st52" d="M263.5,122c1.5,0.3,4.2-3.2,4.4-4.6c0.1-0.8-1.1-2.1-1.9-2.1c-0.4,0.7,0.6,1,0.7,1.6c0.1,0.5-0.4,0.8-0.8,1.2
		C264.8,119.2,262.8,119.8,263.5,122z"/>
	<defs>
		<filter id="Adobe_OpacityMaskFilter_3_" filterUnits="userSpaceOnUse" x="258.4" y="113.4" width="6.3" height="8.2">
			<feColorMatrix  type="matrix" values="1 0 0 0 0  0 1 0 0 0  0 0 1 0 0  0 0 0 1 0"/>
		</filter>
	</defs>
	<mask maskUnits="userSpaceOnUse" x="258.4" y="113.4" width="6.3" height="8.2" id="id6_2_">
		
			<linearGradient id="SVGID_27_" gradientUnits="userSpaceOnUse" x1="3922.04" y1="-1411.3757" x2="4017.3762" y2="-1411.3757" gradientTransform="matrix(6.563689e-02 0 0 -6.563689e-02 0.9344 24.8307)">
			<stop  offset="0" style="stop-color:#FFFFFF"/>
			<stop  offset="1" style="stop-color:#FFFFFF;stop-opacity:0.9686"/>
		</linearGradient>
		<rect x="258.3" y="113.3" class="st53" width="6.4" height="8.4"/>
	</mask>
	
		<linearGradient id="SVGID_28_" gradientUnits="userSpaceOnUse" x1="3922.04" y1="-1411.4695" x2="4017.3762" y2="-1411.4695" gradientTransform="matrix(6.563689e-02 0 0 -6.563689e-02 0.9344 24.8307)">
		<stop  offset="0" style="stop-color:#F9E8DC"/>
		<stop  offset="1" style="stop-color:#F9BBAD"/>
	</linearGradient>
	<path class="st54" d="M258.5,121.5c1.8,0.6,5.7-3.5,6.1-5.3c0.2-1-1.1-2.8-2.2-2.9c-0.6,0.9,0.6,1.4,0.6,2.2c0.1,0.7-0.6,1-1.1,1.4
		C260.4,118.1,257.8,118.7,258.5,121.5z"/>
	<path class="st52" d="M258.3,120c1.4,0.3,4-2.9,4.2-4.2c0.1-0.8-1-2-1.8-2c-0.4,0.7,0.5,1,0.6,1.6c0.1,0.5-0.4,0.8-0.8,1.1
		C259.6,117.4,257.6,117.9,258.3,120z"/>
	<path class="st55" d="M267.4,125.8c0.4,0.2,0.9,0.1,1.2-0.2l20.1-27c0.3-0.4,0.2-0.8-0.2-1.1L267.4,125.8z"/>
	<polygon class="st56" points="267.4,125.8 248.5,114.8 269.5,86.4 288.4,97.4 	"/>
	<defs>
		<filter id="Adobe_OpacityMaskFilter_4_" filterUnits="userSpaceOnUse" x="252.2" y="112.7" width="5.5" height="11.4">
			<feColorMatrix  type="matrix" values="1 0 0 0 0  0 1 0 0 0  0 0 1 0 0  0 0 0 1 0"/>
		</filter>
	</defs>
	<mask maskUnits="userSpaceOnUse" x="252.2" y="112.7" width="5.5" height="11.4" id="id8_2_">
		
			<linearGradient id="SVGID_29_" gradientUnits="userSpaceOnUse" x1="3822.9612" y1="-1425.6786" x2="3925.7466" y2="-1425.6786" gradientTransform="matrix(6.563689e-02 0 0 -6.563689e-02 0.9344 24.8307)">
			<stop  offset="0" style="stop-color:#FFFFFF"/>
			<stop  offset="1" style="stop-color:#FFFFFF;stop-opacity:0.9686"/>
		</linearGradient>
		<rect x="250.1" y="111.6" class="st57" width="10.2" height="13.6"/>
	</mask>
	
		<linearGradient id="SVGID_30_" gradientUnits="userSpaceOnUse" x1="3822.9612" y1="-1425.6786" x2="3925.7466" y2="-1425.6786" gradientTransform="matrix(6.563689e-02 0 0 -6.563689e-02 0.9344 24.8307)">
		<stop  offset="0" style="stop-color:#F9E8DC"/>
		<stop  offset="1" style="stop-color:#F9BBAD"/>
	</linearGradient>
	<path class="st58" d="M252.2,120.3l2.8,3.8c0.2-0.4,0.7-0.7,1-1c0.8-0.6,1.6-1.3,1.7-2.4c0.1-1.2-0.9-2.3-0.8-3.4
		c0-1,1.4-4.4-0.4-4.6C254.4,119.6,252.6,116.7,252.2,120.3z"/>
	<polygon class="st59" points="249.6,91.3 248.4,90.1 246.9,91.5 248.1,92.7 	"/>
	<polygon class="st55" points="248.3,92.9 259.6,104.6 261.1,103.1 249.8,91.5 	"/>
	<path class="st59" d="M261.8,103.9c-0.1-0.1-0.2-0.2-0.2-0.3l-0.2-0.2l-1.5,1.4l0.2,0.2c0,0.1,0.1,0.2,0.2,0.2L261.8,103.9z"/>
	<path class="st59" d="M260.7,105.6c1,0.8,2.6,1.9,2.9,1.6c0.3-0.3-0.8-1.9-1.5-2.9L260.7,105.6z"/>
	
		<linearGradient id="SVGID_31_" gradientUnits="userSpaceOnUse" x1="2690.7798" y1="-1284.5287" x2="3508.6296" y2="-1284.5287" gradientTransform="matrix(6.563689e-02 0 0 -6.563689e-02 0.9344 24.8307)">
		<stop  offset="0" style="stop-color:#E47F62"/>
		<stop  offset="1" style="stop-color:#D93268"/>
	</linearGradient>
	<path class="st60" d="M177.5,84.9l4.7,63.2c0.2,4.6-1,9.5,2.4,12.5c10.8,9.7,40.3-2,40.3-2c4.1,0,0.8-5.5,1.2-9.6l4.8-59.2
		c1.7-13.1-6-36.2-18.9-36.2C195.2,53.8,179.7,67.7,177.5,84.9z"/>
	
		<linearGradient id="SVGID_32_" gradientUnits="userSpaceOnUse" x1="2690.7798" y1="-1284.5287" x2="3508.6296" y2="-1284.5287" gradientTransform="matrix(6.563689e-02 0 0 -6.563689e-02 0.9344 24.8307)">
		<stop  offset="0" style="stop-color:#E47F62"/>
		<stop  offset="1" style="stop-color:#D93268"/>
	</linearGradient>
	<path class="st61" d="M177.5,84.9l4.7,63.2c0.2,4.6-1,9.5,2.4,12.5c10.8,9.7,40.3-2,40.3-2c4.1,0,0.8-5.5,1.2-9.6l4.8-59.2
		c1.7-13.1-6-36.2-18.9-36.2C195.2,53.8,179.7,67.7,177.5,84.9z"/>
	<defs>
		<filter id="Adobe_OpacityMaskFilter_5_" filterUnits="userSpaceOnUse" x="204.2" y="43" width="18.1" height="23.7">
			<feColorMatrix  type="matrix" values="1 0 0 0 0  0 1 0 0 0  0 0 1 0 0  0 0 0 1 0"/>
		</filter>
	</defs>
	<mask maskUnits="userSpaceOnUse" x="204.2" y="43" width="18.1" height="23.7" id="id10_2_">
		
			<linearGradient id="SVGID_33_" gradientUnits="userSpaceOnUse" x1="3102.2629" y1="-457.0425" x2="3368.0217" y2="-457.0425" gradientTransform="matrix(6.563689e-02 0 0 -6.563689e-02 0.9344 24.8307)">
			<stop  offset="0" style="stop-color:#FFFFFF"/>
			<stop  offset="1" style="stop-color:#FFFFFF;stop-opacity:0.9686"/>
		</linearGradient>
		<rect x="204" y="42.8" class="st62" width="18.6" height="24"/>
	</mask>
	
		<linearGradient id="SVGID_34_" gradientUnits="userSpaceOnUse" x1="3102.2629" y1="-457.3468" x2="3368.0217" y2="-457.3468" gradientTransform="matrix(6.563689e-02 0 0 -6.563689e-02 0.9344 24.8307)">
		<stop  offset="0" style="stop-color:#F9E8DC"/>
		<stop  offset="1" style="stop-color:#F9BBAD"/>
	</linearGradient>
	<polygon class="st63" points="204.2,55.9 218.4,66.7 221.4,64.8 222.3,50.8 207.2,43 	"/>
	<defs>
		<filter id="Adobe_OpacityMaskFilter_6_" filterUnits="userSpaceOnUse" x="202.4" y="17.3" width="29.8" height="36.2">
			<feColorMatrix  type="matrix" values="1 0 0 0 0  0 1 0 0 0  0 0 1 0 0  0 0 0 1 0"/>
		</filter>
	</defs>
	<mask maskUnits="userSpaceOnUse" x="202.4" y="17.3" width="29.8" height="36.2" id="id12_2_">
		
			<linearGradient id="SVGID_35_" gradientUnits="userSpaceOnUse" x1="3191.9448" y1="-169.4644" x2="3402.0259" y2="-169.4644" gradientTransform="matrix(6.563689e-02 0 0 -6.563689e-02 0.9344 24.8307)">
			<stop  offset="0" style="stop-color:#FFFFFF"/>
			<stop  offset="1" style="stop-color:#FFFFFF;stop-opacity:0.9686"/>
		</linearGradient>
		<rect x="195.8" y="12" class="st64" width="43.1" height="47.9"/>
	</mask>
	
		<linearGradient id="SVGID_36_" gradientUnits="userSpaceOnUse" x1="3191.9448" y1="-161.5974" x2="3402.0259" y2="-161.5974" gradientTransform="matrix(6.563689e-02 0 0 -6.563689e-02 0.9344 24.8307)">
		<stop  offset="0" style="stop-color:#F9E8DC"/>
		<stop  offset="1" style="stop-color:#F9BBAD"/>
	</linearGradient>
	<path class="st65" d="M213.8,17.3l-0.6,8l-1.9,2.6l-1.4,8.6l-1.6,0.1l-0.1-1.8c-0.1-1.6-1.4-2.8-3-2.8h0c-1.6,0-2.6,0.9-2.6,2.6
		v2.2c0,1.7,1.1,3,2.7,3c1,0,1.6,0.9,1.6,1.9v2.9c0,2.1,5.7,5.4,11.6,7.4c6.3,2.1,13.1,2.6,13.8-1.4c0.1-0.4,0.1-0.8,0.1-1.2l0,0
		c0-0.2,0-0.8,0-1l-0.2-31H213.8z"/>
	<path class="st66" d="M231.9,27.6h-4.4c-1.1,0-2,0.8-2.2,1.9h-0.8c-0.3-1.1-1.2-1.9-2.4-1.9h-5c-1.1,0-2.1,0.8-2.4,1.9h-7.7
		c-2,0-4,0.8-5.6,2.1l-0.3,0.2c-0.2,0.2-0.2,0.6,0,0.8c0.2,0.2,0.6,0.3,0.8,0.1l0.2-0.2c1.4-1.2,3.1-1.8,4.9-1.8h7.7l0,0.9
		c0,2.7,2.2,4.8,4.8,4.8h0.7c2.3,0,4.2-1.9,4.2-4.3v-1.4h0.7l0,0.9c0,2.7,2,4.8,4.4,4.8h0.6c2.1,0,3.9-1.9,3.9-4.3v-1.9
		C234.2,28.7,233.2,27.6,231.9,27.6z M223.4,32L223.4,32c0,1.8-1.4,3.2-3.1,3.2h-0.7c-2,0-3.7-1.6-3.7-3.7l0-1.4
		c0-0.7,0.6-1.3,1.3-1.3h5c0.7,0,1.3,0.6,1.3,1.4V32z M233.1,32L233.1,32c0,1.8-1.2,3.2-2.8,3.2h-0.6c-1.8,0-3.2-1.6-3.3-3.7l0-1.4
		c0-0.7,0.5-1.3,1.1-1.3h4.4c0.6,0,1.2,0.6,1.2,1.4V32z"/>
	<path class="st67" d="M187.7,64.7c-1.6,0.6-3,1.5-4.3,2.8c-5.1,5.2-5.4,13.3-5.8,20.5c0,0.8-0.1,1.6-0.6,2.2
		c-0.6,1-1.9,1.4-2.2,2.5c-0.6,1.7,1.8,3.2,1.7,5c-0.1,0.9-0.6,1.6-0.8,2.4c-0.1,0.7,0.1,1.4,0.2,2c1.1,4.3,1.6,8.7,1.4,13.1
		c-0.1,2.6,1.6,11.9,2.1,14.5c0.6,2.5,2.3,4.9,4.8,5.4c1.5,0.3,3.1-0.1,4.7-0.5c2.2-0.6,4.4-1.2,6.1,0.3c0.2,0.2,0.5,0.6,0.8,0.7
		c1.4,0.8,2.8-1,3.4-2.4l0,0c1,0.7,2.2,0.5,3-0.3c0.3-0.3,0.6-0.5,1-0.7c1-0.4,2.1-0.6,3.1-1c0.2-0.1,0.5-0.2,0.7-0.4
		c0.7-3.4-0.6-13.5-0.3-17c-1.1,0-2.1-0.1-2.8-0.8c-0.6-0.5-0.8-1.3-1.4-1.8c-0.6-0.6,0.4-10.1,0.4-10.8c0-0.6-0.4-1.2-0.5-1.8
		c-0.1-0.6,0.2-1.2,0.4-1.8c0.7-1.8,0.5-3.8,0.4-5.7c-0.1-4,0.5-7.9,1.2-11.9c0-0.1,0-0.2,0.1-0.4c1.4-8.1-4.9-15-12.3-15
		C190.7,63.8,189.2,64.1,187.7,64.7z"/>
	
		<linearGradient id="SVGID_37_" gradientUnits="userSpaceOnUse" x1="3242.948" y1="-1434.1995" x2="3614.9248" y2="-1434.1995" gradientTransform="matrix(6.563689e-02 0 0 -6.563689e-02 0.9344 24.8307)">
		<stop  offset="0" style="stop-color:#F9E8DC"/>
		<stop  offset="1" style="stop-color:#F9BBAD;stop-opacity:0.9686"/>
	</linearGradient>
	<polygon class="st68" points="206.6,113.7 206.3,131.1 245.7,111.7 243.9,106.8 	"/>
	<defs>
		<filter id="Adobe_OpacityMaskFilter_7_" filterUnits="userSpaceOnUse" x="206.3" y="106.8" width="39.4" height="24.2">
			<feColorMatrix  type="matrix" values="1 0 0 0 0  0 1 0 0 0  0 0 1 0 0  0 0 0 1 0"/>
		</filter>
	</defs>
	<mask maskUnits="userSpaceOnUse" x="206.3" y="106.8" width="39.4" height="24.2" id="id14_2_">
		
			<linearGradient id="SVGID_38_" gradientUnits="userSpaceOnUse" x1="3128.7263" y1="-1434.5038" x2="3729.1406" y2="-1434.5038" gradientTransform="matrix(6.563689e-02 0 0 -6.563689e-02 0.9344 24.8307)">
			<stop  offset="0" style="stop-color:#FFFFFF"/>
			<stop  offset="1" style="stop-color:#FFFFFF;stop-opacity:0.9686"/>
		</linearGradient>
		<rect x="194.2" y="87.2" class="st69" width="63.6" height="63.5"/>
	</mask>
	
		<linearGradient id="SVGID_39_" gradientUnits="userSpaceOnUse" x1="3128.9941" y1="-1434.1995" x2="3729.1042" y2="-1434.1995" gradientTransform="matrix(6.563689e-02 0 0 -6.563689e-02 0.9344 24.8307)">
		<stop  offset="0" style="stop-color:#F9E8DC"/>
		<stop  offset="1" style="stop-color:#F9BBAD"/>
	</linearGradient>
	<polygon class="st70" points="206.6,113.7 206.3,131.1 245.7,111.7 243.9,106.8 	"/>
	<defs>
		<filter id="Adobe_OpacityMaskFilter_8_" filterUnits="userSpaceOnUse" x="243.7" y="96.9" width="10" height="14.8">
			<feColorMatrix  type="matrix" values="1 0 0 0 0  0 1 0 0 0  0 0 1 0 0  0 0 0 1 0"/>
		</filter>
	</defs>
	<mask maskUnits="userSpaceOnUse" x="243.7" y="96.9" width="10" height="14.8" id="id16_2_">
		
			<linearGradient id="SVGID_40_" gradientUnits="userSpaceOnUse" x1="3678.2043" y1="-1211.4406" x2="3866.0159" y2="-1211.4406" gradientTransform="matrix(6.563689e-02 0 0 -6.563689e-02 0.9344 24.8307)">
			<stop  offset="0" style="stop-color:#FFFFFF"/>
			<stop  offset="1" style="stop-color:#FFFFFF;stop-opacity:0.9686"/>
		</linearGradient>
		<rect x="235.1" y="90.9" class="st71" width="26.8" height="26.8"/>
	</mask>
	
		<linearGradient id="SVGID_41_" gradientUnits="userSpaceOnUse" x1="3678.2043" y1="-1210.8395" x2="3866.0159" y2="-1210.8395" gradientTransform="matrix(6.563689e-02 0 0 -6.563689e-02 0.9344 24.8307)">
		<stop  offset="0" style="stop-color:#F9E8DC"/>
		<stop  offset="1" style="stop-color:#F9BBAD"/>
	</linearGradient>
	<path class="st72" d="M249.7,96.9c-1.3,0.2-2.1,1.5-2.7,2.7c-1.6,3-4.4,7.1-2.9,10.1c0.5,1,0.5,2,1.6,2.1c3.5,0.1,8.8-10.6,7.9-12
		c-0.4-0.7-0.9-1.5-1.6-2c-0.6-0.5-1.2-0.8-2-0.8C250,96.9,249.9,96.9,249.7,96.9z"/>
	<defs>
		<filter id="Adobe_OpacityMaskFilter_9_" filterUnits="userSpaceOnUse" x="248.5" y="96.1" width="9" height="4.2">
			<feColorMatrix  type="matrix" values="1 0 0 0 0  0 1 0 0 0  0 0 1 0 0  0 0 0 1 0"/>
		</filter>
	</defs>
	<mask maskUnits="userSpaceOnUse" x="248.5" y="96.1" width="9" height="4.2" id="id18_2_">
		
			<linearGradient id="SVGID_42_" gradientUnits="userSpaceOnUse" x1="3797.8735" y1="-1118.3199" x2="3888.1758" y2="-1118.3199" gradientTransform="matrix(6.563689e-02 0 0 -6.563689e-02 0.9344 24.8307)">
			<stop  offset="0" style="stop-color:#FFFFFF"/>
			<stop  offset="1" style="stop-color:#FFFFFF;stop-opacity:0.9686"/>
		</linearGradient>
		<rect x="246.4" y="91.5" class="st73" width="13.5" height="13.5"/>
	</mask>
	
		<linearGradient id="SVGID_43_" gradientUnits="userSpaceOnUse" x1="3797.8735" y1="-1118.6243" x2="3888.1758" y2="-1118.6243" gradientTransform="matrix(6.563689e-02 0 0 -6.563689e-02 0.9344 24.8307)">
		<stop  offset="0" style="stop-color:#F9E8DC"/>
		<stop  offset="1" style="stop-color:#F9BBAD"/>
	</linearGradient>
	<path class="st74" d="M248.5,97.5c1.6,2.5,3.8,0.9,5.7,0.7c0.7-0.1,1.4-0.4,1.8,0.2c0.5,0.6,0.1,1.8,1.1,2c0.7-0.9,0.4-3-0.5-3.6
		c-0.7-0.4-2.1-0.6-3.6-0.6C251.1,96.1,249.1,96.5,248.5,97.5z"/>
	<defs>
		<filter id="Adobe_OpacityMaskFilter_10_" filterUnits="userSpaceOnUse" x="248.3" y="98.7" width="9" height="4.2">
			<feColorMatrix  type="matrix" values="1 0 0 0 0  0 1 0 0 0  0 0 1 0 0  0 0 0 1 0"/>
		</filter>
	</defs>
	<mask maskUnits="userSpaceOnUse" x="248.3" y="98.7" width="9" height="4.2" id="id20_2_">
		
			<linearGradient id="SVGID_44_" gradientUnits="userSpaceOnUse" x1="3792.645" y1="-1157.2723" x2="3887.062" y2="-1157.2723" gradientTransform="matrix(6.563689e-02 0 0 -6.563689e-02 0.9344 24.8307)">
			<stop  offset="0" style="stop-color:#FFFFFF"/>
			<stop  offset="1" style="stop-color:#FFFFFF;stop-opacity:0.9686"/>
		</linearGradient>
		<rect x="246.2" y="94.1" class="st75" width="13.5" height="13.5"/>
	</mask>
	
		<linearGradient id="SVGID_45_" gradientUnits="userSpaceOnUse" x1="3792.645" y1="-1156.968" x2="3887.062" y2="-1156.968" gradientTransform="matrix(6.563689e-02 0 0 -6.563689e-02 0.9344 24.8307)">
		<stop  offset="0" style="stop-color:#F9E8DC"/>
		<stop  offset="1" style="stop-color:#F9BBAD"/>
	</linearGradient>
	<path class="st76" d="M248.3,100.1c1.6,2.5,3.8,0.9,5.7,0.7c0.7-0.1,1.4-0.4,1.8,0.2c0.5,0.6,0.1,1.8,1.1,2c0.7-0.9,0.4-3-0.5-3.6
		c-0.7-0.4-2.1-0.6-3.6-0.6C250.9,98.7,248.9,99.1,248.3,100.1z"/>
	<defs>
		<filter id="Adobe_OpacityMaskFilter_11_" filterUnits="userSpaceOnUse" x="248.3" y="100.6" width="8.9" height="4.2">
			<feColorMatrix  type="matrix" values="1 0 0 0 0  0 1 0 0 0  0 0 1 0 0  0 0 0 1 0"/>
		</filter>
	</defs>
	<mask maskUnits="userSpaceOnUse" x="248.3" y="100.6" width="8.9" height="4.2" id="id22_2_">
		
			<linearGradient id="SVGID_46_" gradientUnits="userSpaceOnUse" x1="3789.0178" y1="-1187.0953" x2="3887.5305" y2="-1187.0953" gradientTransform="matrix(6.563689e-02 0 0 -6.563689e-02 0.9344 24.8307)">
			<stop  offset="0" style="stop-color:#FFFFFF"/>
			<stop  offset="1" style="stop-color:#FFFFFF;stop-opacity:0.9686"/>
		</linearGradient>
		<rect x="246.1" y="96" class="st77" width="13.5" height="13.5"/>
	</mask>
	
		<linearGradient id="SVGID_47_" gradientUnits="userSpaceOnUse" x1="3789.0178" y1="-1186.791" x2="3887.5305" y2="-1186.791" gradientTransform="matrix(6.563689e-02 0 0 -6.563689e-02 0.9344 24.8307)">
		<stop  offset="0" style="stop-color:#F9E8DC"/>
		<stop  offset="1" style="stop-color:#F9BBAD"/>
	</linearGradient>
	<path class="st78" d="M248.3,102c1.6,2.5,3.8,0.9,5.7,0.7c0.7-0.1,1.3-0.3,1.8,0.2c0.5,0.6,0.1,1.8,1.1,2c0.7-0.9,0.4-3-0.5-3.6
		c-0.7-0.4-2.1-0.7-3.6-0.7C250.8,100.6,248.8,101.1,248.3,102z"/>
	<defs>
		<filter id="Adobe_OpacityMaskFilter_12_" filterUnits="userSpaceOnUse" x="249.3" y="102.5" width="6.6" height="3.1">
			<feColorMatrix  type="matrix" values="1 0 0 0 0  0 1 0 0 0  0 0 1 0 0  0 0 0 1 0"/>
		</filter>
	</defs>
	<mask maskUnits="userSpaceOnUse" x="249.3" y="102.5" width="6.6" height="3.1" id="id24_2_">
		
			<linearGradient id="SVGID_48_" gradientUnits="userSpaceOnUse" x1="3797.6907" y1="-1206.5714" x2="3873.4592" y2="-1206.5714" gradientTransform="matrix(6.563689e-02 0 0 -6.563689e-02 0.9344 24.8307)">
			<stop  offset="0" style="stop-color:#FFFFFF"/>
			<stop  offset="1" style="stop-color:#FFFFFF;stop-opacity:0.9686"/>
		</linearGradient>
		<rect x="247.7" y="99.1" class="st79" width="9.9" height="9.9"/>
	</mask>
	
		<linearGradient id="SVGID_49_" gradientUnits="userSpaceOnUse" x1="3797.6907" y1="-1206.8757" x2="3873.4592" y2="-1206.8757" gradientTransform="matrix(6.563689e-02 0 0 -6.563689e-02 0.9344 24.8307)">
		<stop  offset="0" style="stop-color:#F9E8DC"/>
		<stop  offset="1" style="stop-color:#F9BBAD"/>
	</linearGradient>
	<path class="st80" d="M249.3,103.5c1.2,1.8,2.8,0.6,4.2,0.5c0.5-0.1,1-0.2,1.3,0.1c0.4,0.5,0.1,1.3,0.8,1.5
		c0.5-0.6,0.3-2.2-0.4-2.6c-0.5-0.3-1.5-0.5-2.6-0.5C251.2,102.5,249.7,102.8,249.3,103.5z"/>
	
		<linearGradient id="SVGID_50_" gradientUnits="userSpaceOnUse" x1="369.4615" y1="-4723.8496" x2="4015.7693" y2="-4723.8496" gradientTransform="matrix(6.563689e-02 0 0 -6.563689e-02 0.9344 24.8307)">
		<stop  offset="0" style="stop-color:#4F8CA5"/>
		<stop  offset="1" style="stop-color:#182B54"/>
	</linearGradient>
	<path class="st81" d="M144.9,314.8c66.1,0,119.6,9,119.6,20.1c0,11.1-53.6,20.1-119.6,20.1c-66.1,0-119.7-9-119.7-20.1
		C25.2,323.8,78.8,314.8,144.9,314.8z"/>
	<rect x="144.4" y="91.9" class="st82" width="0.9" height="39"/>
	<rect x="144.4" y="133.4" class="st82" width="0.9" height="39"/>
	<path class="st83" d="M207.1,45c0,0-9.1-8.1-8.8-18.8c0.4-10.8,0.4-10.3,1.2-11.9c0.8-1.6,13.6-6.8,12.4-5.7c-1.3,1-2,2.8-2,2.8
		l5.1-4.7l-1.2,3.4l10.8-3.5l-0.8,3.5l14.5-5.4c0,0-1.9,13.7-5.8,16.4c-1,1.2-0.7-2.3-0.7-2.3h-18.4v7.5l-2.1,3.1l-1.1,7.6h-1.8
		v-3.1c0,0-5.4-4.5-5.9,1.3c-0.5,5.8,4.2,4.4,4.2,4.4L207.1,45z"/>
</g>
</svg>
