<?xml version="1.0" encoding="utf-8"?>
<!-- Generator: Adobe Illustrator 22.1.0, SVG Export Plug-In . SVG Version: 6.00 Build 0)  -->
<svg version="1.1" id="Capa_1" xmlns="http://www.w3.org/2000/svg" xmlns:xlink="http://www.w3.org/1999/xlink" x="0px" y="0px"
	 viewBox="0 0 512 512" style="enable-background:new 0 0 512 512;" xml:space="preserve">
<g>
	<g>
		<path d="M329.2,350.8v-8.9c2.5-2,4.9-4.3,7.3-6.6c18.6-20.5,30.3-46.3,33.5-73.8c16.7-2.5,31.8-11.5,42.1-25
			c14.1-19.9,15.3-48.5,3.6-84.3c-0.7-2.1-2.1-3.8-3.9-5l-5.3-3.6c0.8-32.4-10.4-63.9-31.4-88.5C349,25.7,309,10.9,256,10.7
			c-52.9,0-93,15-119.1,44c-21,24.6-32.2,56.1-31.4,88.5l-5.3,3.6c-1.8,1.2-3.2,3-3.9,5c-11.7,36-10.5,64.4,3.6,84.3
			c10.2,13.6,25.3,22.6,42.1,25.3c3.2,27.6,15,53.4,33.6,73.9c2.3,2.3,4.7,4.5,7.3,6.6v8.9C145.7,358-2.5,392.8,0,491.6
			c0,5.4,4.3,9.7,9.7,9.7h492.6c5.4,0,9.7-4.3,9.7-9.7C514.5,392.8,366.3,358,329.2,350.8z M136.1,239.8c-8.2-2.8-15.4-8-20.5-15
			l0.5,0.1c-9.7-14.1-10.6-35.6-1.9-63.9l7.1-4.7c3-2,4.6-5.5,4.3-9c-1.6-29,7.8-57.5,26.4-79.8c21.9-24.8,57.1-37.2,104.2-37.4
			s82.3,12.6,104.6,37.4c18.6,22.3,28,50.8,26.4,79.8c-0.4,3.6,1.3,7,4.3,9l7.1,4.7c8.6,28.2,8,49.7-1.9,63.9
			c-5.2,7-12.4,12.3-20.6,15c11.7-13.3,17.4-30.8,15.8-48.5c-1.8-10.6-7.3-20.2-15.6-27.1c-4.2-96.9-72.1-107.8-101.4-107.8
			c-6.2,0-12.4,0.4-18.5,1.4c-6.1-0.9-12.3-1.4-18.5-1.4c-29.1,0-96.9,10.7-101.4,107.8c-8.3,6.9-13.9,16.4-15.8,27
			C118.7,209,124.4,226.5,136.1,239.8z M356.5,160.3c-40.7,2.3-81.1-7.8-115.8-29.1c-3.9-2.8-9.3-2.2-12.6,1.3
			c-19.4,20.8-54.8,25.7-71.8,26.7c5.2-68.5,46.7-83.4,81.6-83.4c5.6,0,11.1,0.4,16.6,1.4c1.3,0.3,2.6,0.3,3.9,0
			c5.5-0.9,11-1.4,16.6-1.4c34.6,0,76.3,15.3,81.1,84.4L356.5,160.3z M159.7,241.6l0.4,0.1c0-2.4-0.8-4.7-2.4-6.5
			c-13.3-15.2-19.4-29.1-17.7-40.5c0.8-6.4,3.9-12.2,8.8-16.4c12.8,0,58.1-2.4,87.2-27.5c32.7,18.8,69.8,28.8,107.6,29.1
			c6.5,0,13.1,0,20-1.1c4.7,4.1,7.9,9.7,8.7,15.9c1.6,11.2-4.5,25.3-17.7,40.5c-1.6,1.8-2.4,4.1-2.4,6.5c0,0,0,1.9,0,5L295.7,277
			c-11.2-10.6-28.9-10.1-39.5,1.1c-10.6,11.2-10.1,28.9,1.1,39.5c11.2,10.6,28.9,10.1,39.5-1.1c4.9-5.2,7.6-12.1,7.6-19.2
			c0-0.9,0-1.7,0-2.6l44.5-23.8c-3.8,19.1-12.8,36.8-26,51.2c-17.2,16.5-40.4,25.2-64.2,24h-4.8c-23.8,1.2-47-7.5-64.1-23.9
			C159,291.5,159.7,242.1,159.7,241.6z M285,297.2c0,4.8-3.9,8.6-8.6,8.6c-4.8,0-8.6-3.9-8.6-8.6c0-4.8,3.9-8.6,8.6-8.6
			S285,292.5,285,297.2z M246.3,481.3H19.7c7.7-72.8,126-103.2,163-111.1v17.3c0,22,26.7,38.8,63.6,41.6V481.3z M202.1,387.6v-0.3
			v-33.1c16.1,7.5,33.7,11.2,51.5,10.9h4.8c17.8,0.3,35.3-3.4,51.5-10.9v33.4c0,9.2-21,22.5-53.9,22.5S202.1,396.8,202.1,387.6z
			 M265.6,481.6v-52.5c36.8-2.5,63.6-19.4,63.6-41.6v-17c37.3,7.8,155,38.2,163,111.1L265.6,481.6L265.6,481.6z"/>
	</g>
</g>
</svg>
