<?xml version="1.0" encoding="UTF-8"?>
<!DOCTYPE svg PUBLIC "-//W3C//DTD SVG 1.1//EN" "http://www.w3.org/Graphics/SVG/1.1/DTD/svg11.dtd">
<!-- Creator: CorelDRAW X7 -->
<svg xmlns="http://www.w3.org/2000/svg" xml:space="preserve" width="7.47684in" height="2.75084in" version="1.1" style="shape-rendering:geometricPrecision; text-rendering:geometricPrecision; image-rendering:optimizeQuality; fill-rule:evenodd; clip-rule:evenodd"
viewBox="0 0 7477 2751"
 xmlns:xlink="http://www.w3.org/1999/xlink">
 <defs>
  <style type="text/css">
   <![CDATA[
    .fil1 {fill:#F7B202}
    .fil0 {fill:white}
   ]]>
  </style>
 </defs>
 <g id="Layer_x0020_1">
  <metadata id="CorelCorpID_0Corel-Layer"/>
  <g id="_85481136">
   <path class="fil0" d="M3081 577c0,130 52,299 137,387 42,43 48,58 110,100 130,88 269,85 449,85l1690 0c38,-1 63,2 92,13 77,27 132,95 132,187 0,73 2,138 -58,199 -32,32 -79,58 -142,58l-2357 0 0 338 2362 0c113,0 223,-40 304,-101 319,-238 292,-824 -102,-987 -50,-20 -104,-38 -165,-45 -46,-5 -564,0 -637,0 -281,0 -562,0 -843,0 -104,0 -436,13 -514,-15 -171,-63 -155,-324 -63,-396 39,-31 97,-51 167,-51l2324 0 0 -338 -2343 0c-155,0 -263,57 -368,146 -28,23 -8,1 -36,35 -6,8 -10,10 -16,17 -82,91 -123,245 -123,368z"/>
   <polygon class="fil0" points="1586,1944 1910,1944 1910,15 1586,15 "/>
   <path class="fil0" d="M2357 30l0 1900c0,11 4,14 15,14l309 0 0 -1929 -309 0c-11,0 -15,4 -15,15z"/>
   <path class="fil1" d="M500 1920l324 0c37,-159 72,-320 108,-477l330 -1442 -291 0c-17,-1 -28,-4 -35,7l-187 818c-20,92 -43,183 -62,272 -20,93 -44,183 -63,275 -9,46 -20,88 -31,136 -10,47 -20,90 -31,135 -11,45 -20,89 -31,136l-31 140z"/>
   <path class="fil1" d="M6215 1920l309 0c18,0 15,-16 23,-48l96 -423c20,-80 38,-159 56,-240 18,-83 38,-160 54,-241 41,-195 97,-406 138,-601l81 -366 -324 0c0,21 -8,38 -12,59l-369 1617c-10,41 -52,214 -52,243z"/>
   <path class="fil1" d="M0 1920l324 0c1,-46 433,-1873 433,-1919l-324 0c0,29 -217,959 -217,959 -12,56 -216,932 -216,960z"/>
   <path class="fil1" d="M6715 1920l324 0 25 -117c58,-226 108,-487 165,-721 10,-39 20,-83 28,-120 41,-197 93,-403 137,-601l83 -360 -324 0 -220 956c-36,155 -72,332 -110,481l-108 482z"/>
   <path class="fil0" d="M567 2373l0 357c0,19 15,14 52,14l0 -314 174 279c25,42 17,35 74,35 11,0 14,-3 14,-14l0 -372c-67,0 -52,-17 -52,143 0,53 0,105 0,157 -13,-9 -17,-21 -26,-36l-72 -113c-17,-28 -30,-50 -48,-76 -60,-89 -23,-75 -102,-75 -11,0 -14,4 -14,15z"/>
   <path class="fil0" d="M4391 2730c0,18 11,14 38,14 23,0 14,-45 14,-67l0 -242 173 275c24,39 12,34 75,34 11,0 14,-3 14,-14l0 -357c0,-20 -15,-15 -52,-15l0 305c-12,-9 -38,-57 -50,-74l-99 -158c-52,-87 -36,-73 -113,-73l0 372z"/>
   <path class="fil0" d="M4053 2635l0 -167c0,-81 72,-72 124,-72 32,0 71,20 71,53l0 205c0,45 -60,52 -100,52 -55,0 -95,-17 -95,-71zm-57 -134c0,140 -29,248 157,248 71,0 152,-26 152,-95l0 -205c0,-113 -215,-117 -275,-61 -30,28 -34,58 -34,113z"/>
   <path class="fil0" d="M176 2454l0 195c0,105 155,106 241,93 82,-12 64,13 64,-207 0,-11 -3,-15 -14,-15l-115 0c-21,0 -21,48 0,48l72 0 0 128c-27,3 -191,36 -191,-52l0 -186c0,-95 196,-51 238,-47l0 -48c-36,-1 -64,-9 -133,-9 -74,0 -162,28 -162,100z"/>
   <path class="fil0" d="M2524 2635l0 -167c0,-81 72,-72 124,-72 32,0 71,20 71,53l0 205c0,45 -60,52 -100,52 -55,0 -95,-17 -95,-71zm-52 -186l0 214c0,111 304,122 304,-9l0 -205c0,-129 -304,-129 -304,0z"/>
   <path class="fil0" d="M3157 2658c0,118 286,135 286,-19l0 -281 -57 0 0 286c0,50 -39,62 -86,62 -68,0 -90,-17 -90,-86l0 -262 -53 0 0 300z"/>
   <path class="fil0" d="M6782 2658c0,-182 -17,-166 90,-166 71,0 52,48 52,176 0,46 -59,38 -100,38 -29,0 -42,-17 -42,-48zm142 -185c-57,-39 -195,-40 -195,52 0,146 -25,224 105,224 40,0 65,-10 90,-24 2,23 0,19 53,19l0 -414 -53 0 0 143z"/>
   <path class="fil0" d="M5334 2568l-34 0 0 -167c150,0 134,-10 134,119 0,43 -57,48 -100,48zm-91 162c0,18 13,14 43,14 11,0 14,-3 14,-14l0 -124c207,0 191,-29 191,-181 0,-26 -20,-44 -38,-53 -44,-20 -154,-14 -210,-14l0 372z"/>
   <path class="fil0" d="M4786 2458c0,190 200,56 200,143 0,75 26,118 -138,95 -18,-2 -35,-8 -52,-9l0 52c53,0 161,31 220,-18 39,-32 38,-131 18,-167 -41,-74 -191,15 -191,-81 0,-117 77,-67 186,-67 0,-51 19,-52 -119,-52 -32,0 -73,9 -92,22 -23,18 -32,52 -32,82z"/>
   <path class="fil0" d="M2143 2439c0,61 -5,113 73,127 50,9 127,-18 127,40 0,87 7,107 -142,90 -51,-6 -53,-24 -53,29 0,19 33,18 52,19 66,4 200,25 200,-100l0 -33c0,-162 -200,-39 -200,-124 0,-62 -10,-91 76,-91 42,0 70,10 105,10l0 -48c-66,0 -238,-34 -238,81z"/>
   <path class="fil0" d="M1114 2439c0,62 -8,115 78,128 107,15 122,-37 122,91 0,60 -109,43 -147,38 -46,-7 -48,-22 -48,29 0,30 177,32 218,-1 35,-28 35,-67 35,-113 0,-160 -200,-40 -200,-124 0,-60 -14,-91 76,-91 41,0 70,10 104,10l0 -48c-68,0 -238,-34 -238,81z"/>
   <path class="fil0" d="M1681 2392c0,25 54,14 124,14l0 324c0,20 16,14 57,14l0 -338c143,0 124,13 124,-48l-305 0 0 34z"/>
   <path class="fil0" d="M3505 2392c0,25 54,14 124,14l0 338c41,0 57,6 57,-14l0 -324c138,0 124,10 124,-33 0,-11 -3,-15 -14,-15l-291 0 0 34z"/>
   <path class="fil0" d="M6524 2382l0 72 -57 0 0 42 57 0c0,176 -24,253 100,253 27,0 29,-5 53,-5l0 -38c-112,0 -95,37 -95,-210 103,0 95,8 95,-28 0,-23 -35,-14 -95,-14l0 -86c-41,0 -58,-6 -58,14z"/>
   <path class="fil0" d="M5848 2382l0 72 -57 0 0 42 57 0c0,170 -25,253 100,253 27,0 28,-5 53,-5l0 -38c-113,0 -96,37 -96,-210 104,0 96,8 96,-28 0,-23 -35,-14 -96,-14l0 -86c-40,0 -57,-6 -57,14z"/>
   <path class="fil0" d="M2862 2730c0,11 3,14 14,14l220 0 0 -48 -177 0 0 -338 -57 0 0 372z"/>
   <path class="fil0" d="M6215 2744l219 0c21,0 21,-48 0,-48l-162 0 0 -338 -57 0 0 386z"/>
   <path class="fil0" d="M5634 2744c62,0 45,11 69,-64 9,-26 17,-50 25,-75 9,-26 17,-49 25,-75 7,-18 22,-56 24,-76l-48 0c-13,25 -42,132 -55,173 -6,16 -15,44 -16,60 -15,-11 -51,-146 -60,-173 -8,-22 -12,-43 -21,-60l-53 0c2,19 63,190 75,225 6,19 15,65 35,65z"/>
   <path class="fil0" d="M1567 2730c0,19 13,14 47,14 11,0 15,-3 15,-14l0 -357c0,-21 -19,-15 -62,-15l0 372z"/>
   <path class="fil0" d="M38 2730c0,19 14,14 48,14 11,0 14,-3 14,-14l0 -357c0,-21 -18,-15 -62,-15l0 372z"/>
   <path class="fil0" d="M3862 2744l43 0c11,0 14,-3 14,-14l0 -372 -57 0 0 386z"/>
   <path class="fil0" d="M981 2730c0,18 12,14 43,14 11,0 14,-3 14,-14l0 -372 -57 0 0 372z"/>
   <path class="fil0" d="M6058 2687c0,67 -10,57 57,57 20,0 14,-16 14,-57 0,-20 -16,-14 -57,-14 -11,0 -14,3 -14,14z"/>
   <path class="fil0" d="M7058 2687c0,67 -10,57 57,57 20,0 14,-16 14,-57 0,-20 -16,-14 -57,-14 -11,0 -14,3 -14,14z"/>
  </g>
 </g>
</svg>
