<?xml version="1.0" encoding="utf-8"?>
<!-- Generator: Adobe Illustrator 16.0.0, SVG Export Plug-In . SVG Version: 6.00 Build 0)  -->
<!DOCTYPE svg PUBLIC "-//W3C//DTD SVG 1.1//EN" "http://www.w3.org/Graphics/SVG/1.1/DTD/svg11.dtd">
<svg version="1.1" id="Capa_1" xmlns="http://www.w3.org/2000/svg" xmlns:xlink="http://www.w3.org/1999/xlink" x="0px" y="0px"
	 width="666.986px" height="700px" viewBox="0 0 666.986 700" enable-background="new 0 0 666.986 700" xml:space="preserve">
<g>
	<polygon fill="#F7B202" points="317.993,391.089 470.039,272.977 441.541,327.667 394.017,391.089 368.993,432.667 317.993,421 	
		"/>
	
		<rect x="589.493" y="88" transform="matrix(0.6685 0.7437 -0.7437 0.6685 287.5351 -420.0825)" fill="#F7B202" width="51" height="49"/>
	<rect x="278.993" y="15.5" fill="#F7B202" width="129" height="27.75"/>
	<rect x="317.993" y="35.5" fill="#F7B202" width="51" height="49"/>
	<path fill="#FFFFFF" d="M352.551,444.205c12.146-0.945,23.218-7.14,30.403-17.021L492.188,276.17
		c3.349-4.632,2.848-11.025-1.213-15.085c-4.061-4.048-10.453-4.55-15.085-1.213l-151.036,109.27
		c-9.849,7.163-16.042,18.235-16.987,30.38c-0.944,12.146,3.453,24.033,12.052,32.633c7.828,7.84,18.388,12.18,29.365,12.18
		C350.37,444.333,351.455,444.287,352.551,444.205z M331.132,401.342c0.408-5.332,3.139-10.197,7.433-13.323l92.132-66.65
		l-66.629,92.106c-3.149,4.329-8.015,7.048-13.347,7.468c-5.309,0.351-10.523-1.493-14.314-5.285
		C332.648,411.889,330.712,406.662,331.132,401.342z"/>
	<path fill="#FFFFFF" d="M613.885,229.247c-0.116-0.245-0.116-0.501-0.245-0.747c-0.141-0.233-0.361-0.362-0.514-0.583
		c-11.795-20.23-25.749-39.048-41.592-56.105l25.061-25.048l16.497,16.497l49.489-49.501l-49.489-49.49l-49.502,49.49l16.509,16.508
		l-25.062,25.048c-17.057-15.843-35.863-29.808-56.104-41.603c-0.223-0.152-0.352-0.374-0.584-0.514
		c-0.244-0.14-0.501-0.128-0.746-0.257c-36.085-20.79-76.627-34.638-119.853-39.713V59.333h17.5
		c16.089,0,29.166-13.079,29.166-29.167S411.328,1,395.24,1h-105c-16.089,0-29.167,13.078-29.167,29.167
		s13.078,29.167,29.167,29.167h17.5V72.82c-12.601,1.342-25.177,3.395-37.613,6.242c-6.276,1.435-10.209,7.7-8.762,13.977
		c1.436,6.277,7.699,10.22,13.977,8.762c10.733-2.461,21.571-4.316,32.435-5.565l12.518-0.968c3.827-0.292,7.352-0.501,10.78-0.665
		v23.065c0,6.452,5.215,11.667,11.667,11.667c6.451,0,11.666-5.215,11.666-11.667V94.684c43.879,2.018,85.227,13.801,121.987,33.191
		l-11.504,19.915c-3.221,5.588-1.308,12.717,4.271,15.937c1.832,1.062,3.838,1.563,5.821,1.563c4.037,0,7.957-2.088,10.115-5.833
		l11.468-19.868c36.506,23.158,67.516,54.168,90.674,90.673l-19.868,11.468c-5.564,3.22-7.479,10.348-4.247,15.937
		c2.17,3.745,6.078,5.833,10.115,5.833c1.983,0,3.99-0.501,5.821-1.563l19.915-11.503c19.657,37.287,31.477,79.31,33.237,123.888
		h-23.041c-6.451,0-11.666,5.216-11.666,11.667c0,6.452,5.215,11.667,11.666,11.667h23.041
		c-1.762,44.578-13.579,86.602-33.237,123.888l-19.915-11.503c-5.576-3.22-12.716-1.33-15.938,4.27
		c-3.22,5.59-1.307,12.718,4.271,15.938l19.868,11.468c-23.158,36.505-54.168,67.517-90.675,90.674l-11.468-19.867
		c-3.23-5.602-10.384-7.502-15.937-4.271c-5.589,3.22-7.502,10.36-4.271,15.938l11.503,19.915
		c-36.761,19.391-78.106,31.174-121.985,33.19v-22.96c0-6.451-5.216-11.666-11.666-11.666c-6.452,0-11.667,5.215-11.667,11.666
		v23.054c-18.633-0.642-37.321-2.975-55.721-7.197c-6.276-1.506-12.542,2.484-13.977,8.762c-1.447,6.276,2.483,12.542,8.761,13.977
		c23.288,5.363,47.076,8.07,70.678,8.07c0.572,0,1.12-0.035,1.692-0.047c0.081,0,0.14,0.047,0.21,0.047
		c0.093,0,0.175-0.059,0.268-0.059c56.082-0.386,108.699-15.528,154.224-41.686c0.361-0.163,0.746-0.245,1.096-0.455
		c0.234-0.14,0.362-0.361,0.584-0.514c47.121-27.463,86.496-66.791,114.019-113.878c0.223-0.315,0.502-0.562,0.699-0.91
		c0.142-0.245,0.129-0.502,0.245-0.747c26.646-46.199,41.965-99.703,41.965-156.753S640.52,275.447,613.885,229.247z M613.08,97.262
		l16.496,16.497l-16.496,16.508l-16.509-16.508L613.08,97.262z M331.073,71.245V36H290.24c-3.209,0-5.834-2.625-5.834-5.833
		s2.625-5.833,5.834-5.833h105c3.208,0,5.833,2.625,5.833,5.833S398.448,36,395.24,36h-40.834v35.245
		C350.347,71.081,346.474,71,342.74,71c-0.327,0-0.7,0.023-1.027,0.023c-0.291,0-0.583-0.023-0.875-0.023
		c-1.912,0-3.825,0.128-5.738,0.163C333.745,71.198,332.474,71.187,331.073,71.245z"/>
	<path fill="#FFFFFF" d="M237.74,164.333h-58.334c-6.451,0-11.666,5.215-11.666,11.667s5.215,11.667,11.666,11.667h58.334
		c6.451,0,11.666-5.215,11.666-11.667S244.191,164.333,237.74,164.333z"/>
	<path fill="#FFFFFF" d="M237.74,246H121.073c-6.452,0-11.667,5.215-11.667,11.667s5.215,11.667,11.667,11.667H237.74
		c6.451,0,11.666-5.215,11.666-11.667S244.191,246,237.74,246z"/>
	<path fill="#F7B202" d="M237.74,327.667h-175c-6.452,0-11.667,5.215-11.667,11.666c0,6.452,5.215,11.667,11.667,11.667h175
		c6.451,0,11.666-5.215,11.666-11.667C249.406,332.882,244.191,327.667,237.74,327.667z"/>
	<path fill="#F7B202" d="M237.74,409.333H16.073c-6.452,0-11.667,5.216-11.667,11.667c0,6.452,5.215,11.667,11.667,11.667H237.74
		c6.451,0,11.666-5.215,11.666-11.667C249.406,414.549,244.191,409.333,237.74,409.333z"/>
	<path fill="#F7B202" d="M237.74,491H86.073c-6.452,0-11.667,5.215-11.667,11.667c0,6.451,5.215,11.666,11.667,11.666H237.74
		c6.451,0,11.666-5.215,11.666-11.666C249.406,496.215,244.191,491,237.74,491z"/>
	<path fill="#F7B202" d="M237.74,572.667h-81.667c-6.452,0-11.667,5.215-11.667,11.666c0,6.452,5.215,11.667,11.667,11.667h81.667
		c6.451,0,11.666-5.215,11.666-11.667C249.406,577.882,244.191,572.667,237.74,572.667z"/>
</g>
</svg>
