<?xml version="1.0" encoding="utf-8"?>
<!-- Generator: Adobe Illustrator 22.1.0, SVG Export Plug-In . SVG Version: 6.00 Build 0)  -->
<svg version="1.1" id="Capa_1" xmlns="http://www.w3.org/2000/svg" xmlns:xlink="http://www.w3.org/1999/xlink" x="0px" y="0px"
	 viewBox="0 0 512 512" style="enable-background:new 0 0 512 512;" xml:space="preserve">
<style type="text/css">
	.st0{fill:#020202;}
</style>
<g>
	<g>
		<path class="st0" d="M503.7,165.8h-19.2c-5.7-20.3-27-79.4-91.4-115.8c-10.9-6.2-23.4-11.4-35.8-16.1c-13-4.2-27-7.8-41.5-9.9
			C190.1,6.4,129.3,73.9,116.3,91.6H8.3c-4.7,0-8.3,3.6-8.3,8.3v228.5c0,4.7,3.6,8.3,8.3,8.3h80l0,0l-13,27.5
			c-0.5,0.5-0.5,1.6-0.5,2.1c0,0,0,0,0,0.5c0,1,0,1.6,0,2.6v0.5c0,1,0.5,1.6,1,2.6l32.2,45.7c-1,10.4-2.6,41.5,13,59.7
			c7.3,8.8,17.7,13,30.1,13c53.5,0,144.4-22.8,144.4-109c0-4.7-3.6-8.3-8.3-8.3s-8.3,3.6-8.3,8.3c0,90.9-122,91.9-127.2,91.9
			c-7.3,0-13-2.6-17.1-7.3c-10.9-13-9.9-40-8.8-49.3c0.5-2.1,0-4.2-1.6-6.2l-24.4-34.8H121c4.7,0,8.3-3.6,8.3-8.3s-3.6-8.3-8.3-8.3
			H96.6l8.8-18.7c0.5-1,1-2.6,1-3.6H121c47.8,0,87.8-13,115.8-36.9c14-11.9,24.4-27,31.2-43.1h28c14,17.7,35.3,28,58.2,28
			c22.8,0,44.1-10.4,58.2-28h57.1c-5.2,24.4-28.6,55-38.4,65.4c-1.6,1.6-2.1,3.6-2.1,5.7v140.2c0,4.7,3.6,8.3,8.3,8.3
			c4.7,0,8.3-3.6,8.3-8.3V331.5c8.3-9.3,35.8-43.6,40.5-74.8h17.7c4.7,0,8.3-3.6,8.3-8.3v-74.3C512,169.4,508.4,165.8,503.7,165.8z
			 M398.8,72.9c44.1,30.6,62.8,73.2,69.1,92.9h-56.6c-3.6-4.7-7.8-8.8-12.5-12.5V72.9z M324.5,43.3c9.9,2.1,19.7,4.2,28.6,7.3
			c10.4,3.1,19.7,7.3,28.6,12.5v80.5c-8.8-3.6-18.7-5.7-28.6-5.7c-9.9,0-19.7,2.1-28.6,5.7V43.3z M45.2,320H16.6V108.7h28.6V320z
			 M224.8,287.3c-24.4,21.3-60.8,32.2-104.4,32.2H62.3V108.7h58.2c90.4,0,137.6,54.5,137.6,108C258.1,243.7,246.1,268.6,224.8,287.3
			z M262.2,165.8C243,127.9,201,97.3,137.6,92.1c21.3-21.8,74.3-62.8,169.8-51.4v112.7c-4.7,3.6-8.8,7.8-12.5,12.5H262.2z
			 M496.9,240.1h-89.8c-2.6,0-5.2,1.6-7.3,3.6c-10.4,15.6-28,24.4-46.7,24.4s-35.8-9.3-46.7-24.4c-1.6-2.1-4.2-3.6-7.3-3.6h-26.5
			c1.6-7.8,2.6-15.6,2.6-23.4c0-11.4-2.1-22.8-5.2-33.8h29.6c2.6,0,5.2-1.6,7.3-3.6c10.4-15.6,28-24.4,46.7-24.4
			c18.7,0,35.8,9.3,46.7,24.4c1.6,2.1,4.2,3.6,7.3,3.6h89.3L496.9,240.1L496.9,240.1z"/>
	</g>
</g>
<g>
	<g>
		<path class="st0" d="M353.1,174.6c-20.3,0-36.9,16.1-36.9,36.9c0,20.3,16.6,36.9,36.9,36.9s36.9-16.6,36.9-36.9
			S373.4,174.6,353.1,174.6z M353.1,231.2c-10.9,0-19.7-8.8-19.7-19.7c0-10.9,8.8-19.7,19.7-19.7s19.7,8.8,19.7,19.7
			S364,231.2,353.1,231.2z"/>
	</g>
</g>
</svg>
