<?xml version="1.0" encoding="utf-8"?>
<!-- Generator: Adobe Illustrator 16.0.0, SVG Export Plug-In . SVG Version: 6.00 Build 0)  -->
<!DOCTYPE svg PUBLIC "-//W3C//DTD SVG 1.1//EN" "http://www.w3.org/Graphics/SVG/1.1/DTD/svg11.dtd">
<svg version="1.1" id="Layer_1" xmlns="http://www.w3.org/2000/svg" xmlns:xlink="http://www.w3.org/1999/xlink" x="0px" y="0px"
	 width="750px" height="500px" viewBox="0 0 750 500" enable-background="new 0 0 750 500" xml:space="preserve">
<path opacity="0.4" fill="#F4F4F4" enable-background="new    " d="M578.731,232.669c-29.982,44.888-93.959,183.715-78.225,235.236
	L270.98,467.96c0,0-33.167-24.695-65.387-67.628c-5.854-7.801-11.679-16.211-17.261-25.178c-5.93-9.504-11.584-19.637-16.725-30.359
	C156.67,313.7,146.01,277.663,145.58,237.833C144.076,99.952,263.412-28.194,425.756,23.516
	C588.097,75.227,608.702,187.782,578.731,232.669z"/>
<path opacity="0.4" fill="#20C3C5" enable-background="new    " d="M319.608,191.098h-57.293c-2.828,0-5.121-2.294-5.121-5.123
	v-42.608c0-2.83,2.293-5.122,5.121-5.122h57.293c2.829,0,5.123,2.292,5.123,5.122v42.608
	C324.731,188.804,322.438,191.098,319.608,191.098z"/>
<path opacity="0.4" fill="#FFFFFF" enable-background="new    " d="M305.618,161.583h-2.12c-0.326-1.158-0.807-2.256-1.431-3.262
	l1.635-1.635c0.624-0.625,0.624-1.636,0-2.26l-2.302-2.301c-0.624-0.624-1.635-0.624-2.26,0l-1.739,1.738
	c-0.96-0.541-1.991-0.965-3.078-1.241v-2.606c0-0.883-0.715-1.599-1.598-1.599h-3.256c-0.882,0-1.597,0.715-1.597,1.599v2.636
	c-1.056,0.273-2.056,0.672-2.989,1.188l-1.909-1.909c-0.624-0.623-1.635-0.623-2.258,0l-2.302,2.302
	c-0.625,0.625-0.625,1.636,0,2.26l1.767,1.768c-0.59,0.941-1.055,1.965-1.39,3.049h-2.487c-0.881,0-1.597,0.715-1.597,1.598v3.256
	c0,0.881,0.715,1.596,1.597,1.596h2.18c0.243,1.203,0.657,2.349,1.224,3.411l-1.487,1.487c-0.625,0.624-0.625,1.636,0,2.257
	l2.301,2.303c0.623,0.625,1.634,0.625,2.259,0l1.292-1.292c1.079,0.702,2.265,1.244,3.525,1.594v1.807
	c0,0.882,0.716,1.598,1.598,1.598h3.256c0.883,0,1.598-0.715,1.598-1.598v-1.687c1.304-0.307,2.533-0.804,3.652-1.473l1.244,1.244
	c0.625,0.625,1.635,0.625,2.259,0l2.302-2.302c0.625-0.624,0.625-1.634,0-2.259l-1.277-1.276c0.635-1.09,1.111-2.278,1.405-3.541
	h1.982c0.881,0,1.597-0.714,1.597-1.597v-3.256C307.215,162.297,306.5,161.583,305.618,161.583z M292.703,173.165
	c-5.784,1.094-10.753-3.875-9.659-9.659c0.611-3.231,3.216-5.836,6.446-6.448c5.785-1.094,10.754,3.875,9.661,9.659
	C298.539,169.947,295.934,172.553,292.703,173.165z"/>
<path opacity="0.4" fill="#4FC0D0" enable-background="new    " d="M405.861,161.901h-57.292c-2.83,0-5.122-2.292-5.122-5.122
	v-42.608c0-2.827,2.292-5.121,5.122-5.121h57.292c2.828,0,5.123,2.294,5.123,5.121v42.608
	C410.984,159.608,408.689,161.901,405.861,161.901z"/>
<g opacity="0.4">
	<g>
		<g>
			<path fill="#FFFFFF" d="M365.813,144.359c-0.403,0-0.808-0.166-1.114-0.494l-7.118-7.619c-0.616-0.66-0.616-1.729,0-2.385
				l7.238-7.747c0.614-0.66,1.612-0.66,2.229,0c0.616,0.658,0.616,1.727,0,2.385l-6.123,6.553l6.003,6.425
				c0.616,0.659,0.616,1.728,0,2.387C366.619,144.193,366.216,144.359,365.813,144.359z"/>
		</g>
		<g>
			<path fill="#FFFFFF" d="M388.618,144.359c-0.404,0-0.809-0.166-1.115-0.494c-0.616-0.66-0.616-1.729,0-2.387l6.004-6.425
				l-6.124-6.553c-0.617-0.658-0.617-1.726,0-2.385c0.614-0.66,1.614-0.66,2.229,0l7.237,7.747c0.298,0.316,0.464,0.745,0.464,1.191
				c0,0.449-0.166,0.878-0.464,1.194l-7.117,7.619C389.425,144.193,389.021,144.359,388.618,144.359z"/>
		</g>
	</g>
	<g>
		<path fill="#FFFFFF" d="M373.681,146.451c-0.194,0-0.396-0.04-0.593-0.125c-0.808-0.35-1.193-1.334-0.866-2.198l7.065-18.575
			c0.329-0.862,1.245-1.283,2.056-0.927c0.809,0.351,1.193,1.336,0.866,2.198l-7.066,18.576
			C374.893,146.055,374.305,146.451,373.681,146.451z"/>
	</g>
</g>
<path opacity="0.4" fill="#FFFFFF" enable-background="new    " d="M457.578,172.057H315.426v-4.364
	c0-1.177,0.954-2.132,2.131-2.132h137.891c1.178,0,2.132,0.956,2.132,2.132L457.578,172.057L457.578,172.057z"/>
<path opacity="0.4" fill="#EFEFEF" enable-background="new    " d="M453.609,247.842H319.395c-2.19,0-3.969-1.776-3.969-3.969
	v-71.816h142.152v71.816C457.578,246.066,455.802,247.842,453.609,247.842z"/>
<g opacity="0.4">
	<circle fill="#4FC0D0" cx="449.756" cy="168.81" r="1"/>
	<circle fill="#4FC0D0" cx="445.887" cy="168.81" r="1"/>
	<circle fill="#4FC0D0" cx="442.017" cy="168.81" r="0.999"/>
</g>
<path opacity="0.4" fill="#9E9E9E" enable-background="new    " d="M401.732,182.298h-78.938c-0.759,0-1.373-0.615-1.373-1.373l0,0
	c0-0.76,0.614-1.375,1.373-1.375h78.938c0.76,0,1.373,0.615,1.373,1.375l0,0C403.105,181.684,402.492,182.298,401.732,182.298z"/>
<path opacity="0.4" fill="#9E9E9E" enable-background="new    " d="M401.732,191.042h-78.938c-0.759,0-1.373-0.616-1.373-1.374l0,0
	c0-0.759,0.614-1.374,1.373-1.374h78.938c0.76,0,1.373,0.615,1.373,1.374l0,0C403.105,190.426,402.492,191.042,401.732,191.042z"/>
<path opacity="0.4" fill="#9E9E9E" enable-background="new    " d="M364.075,199.785h-41.28c-0.759,0-1.373-0.615-1.373-1.374l0,0
	c0-0.759,0.614-1.375,1.373-1.375h41.28c0.758,0,1.374,0.615,1.374,1.375l0,0C365.449,199.169,364.833,199.785,364.075,199.785z"/>
<path opacity="0.4" fill="#DDDDDD" enable-background="new    " d="M401.732,217.27h-78.938c-0.759,0-1.373-0.615-1.373-1.374l0,0
	c0-0.759,0.614-1.374,1.373-1.374h78.938c0.76,0,1.373,0.615,1.373,1.374l0,0C403.105,216.655,402.492,217.27,401.732,217.27z"/>
<path opacity="0.4" fill="#DDDDDD" enable-background="new    " d="M364.075,226.014h-41.28c-0.759,0-1.373-0.616-1.373-1.375l0,0
	c0-0.76,0.614-1.374,1.373-1.374h41.28c0.758,0,1.374,0.614,1.374,1.374l0,0C365.449,225.398,364.833,226.014,364.075,226.014z"/>
<path opacity="0.4" fill="#9E9E9E" enable-background="new    " d="M364.075,234.757h-41.28c-0.759,0-1.373-0.616-1.373-1.374l0,0
	c0-0.759,0.614-1.374,1.373-1.374h41.28c0.758,0,1.374,0.614,1.374,1.374l0,0C365.449,234.141,364.833,234.757,364.075,234.757z"/>
<path opacity="0.4" fill="#FFFFFF" enable-background="new    " d="M401.732,199.785h-29.664c-0.761,0-1.374-0.615-1.374-1.374l0,0
	c0-0.759,0.613-1.375,1.374-1.375h29.664c0.76,0,1.373,0.615,1.373,1.375l0,0C403.105,199.169,402.492,199.785,401.732,199.785z"/>
<path opacity="0.4" fill="#DDDDDD" enable-background="new    " d="M440.915,180.151l-20.976,20.977
	c-0.536,0.537-1.406,0.537-1.942,0l0,0c-0.537-0.537-0.537-1.407,0-1.944l20.975-20.974c0.536-0.537,1.407-0.537,1.943,0l0,0
	C441.452,178.745,441.452,179.614,440.915,180.151z"/>
<circle opacity="0.4" fill="#DBDBDB" enable-background="new    " cx="429.456" cy="219.832" r="12.368"/>
<circle opacity="0.4" fill="#EFEFEF" enable-background="new    " cx="420.835" cy="228.451" r="7.001"/>
<path opacity="0.4" enable-background="new    " d="M244.407,280.543c-0.022,1.368-0.148,2.661-0.4,3.807H231.95
	c-3.543-2.354-9.324-7.013-12.793-14.002c3.226,3.512,8.734,7.789,14.349,9.092C238.404,280.575,242.051,280.092,244.407,280.543z"
	/>
<g>
	<g>
		<g>
			<path fill="#E03C03" d="M429.487,464.22c-0.462,0-0.918-0.202-1.229-0.589L305.854,311.439c-0.545-0.681-0.438-1.672,0.24-2.219
				c0.681-0.544,1.672-0.438,2.217,0.241L430.715,461.65c0.547,0.681,0.438,1.672-0.238,2.219
				C430.185,464.104,429.836,464.22,429.487,464.22z"/>
		</g>
		<g>
			<path fill="#FF6224" d="M239.614,464.22c-0.346,0-0.695-0.114-0.986-0.35c-0.68-0.547-0.787-1.538-0.24-2.219l122.403-152.188
				c0.548-0.68,1.539-0.785,2.217-0.24c0.68,0.545,0.786,1.537,0.24,2.217L240.845,463.631
				C240.532,464.018,240.075,464.22,239.614,464.22z"/>
		</g>
		<g>
			<path fill="#FF6224" d="M362.021,464.22c-0.461,0-0.918-0.202-1.229-0.589L238.388,311.439c-0.547-0.681-0.439-1.672,0.24-2.219
				c0.679-0.544,1.671-0.438,2.216,0.241L363.248,461.65c0.546,0.681,0.439,1.672-0.24,2.219
				C362.716,464.104,362.367,464.22,362.021,464.22z"/>
		</g>
		<path fill="#E03C03" d="M261.306,314.492h-56.869c-2.23,0-4.039-1.811-4.039-4.041l0,0c0-2.23,1.808-4.039,4.039-4.039h56.869
			c2.229,0,4.039,1.809,4.039,4.039l0,0C265.344,312.684,263.535,314.492,261.306,314.492z"/>
		<path fill="#FF6224" d="M424.926,314.492H262.391c-2.231,0-4.04-1.811-4.04-4.041l0,0c0-2.23,1.809-4.039,4.04-4.039h162.535
			V314.492z"/>
		<g>
			<circle fill="#E03C03" cx="300.817" cy="386.545" r="4.412"/>
		</g>
		<circle fill="#FFC947" cx="368.284" cy="386.546" r="4.413"/>
	</g>
	<g>
		<polygon fill="#86BFBC" points="285.328,266.627 335.756,266.627 353.991,301.727 303.565,301.727 		"/>
		<path fill="#FFFFFF" d="M304.586,299.129l-15.101-29.061c-0.316-0.609,0.127-1.338,0.813-1.338h43.625
			c0.341,0,0.654,0.188,0.813,0.494l15.099,29.061c0.316,0.607-0.125,1.336-0.813,1.336h-43.625
			C305.055,299.623,304.742,299.434,304.586,299.129z"/>
		<rect x="303.565" y="301.727" fill="#B8E3E2" width="40.841" height="4.687"/>
		<path fill="#9FCCC9" d="M379.494,301.727h-40.302c-1.293,0-2.343,1.049-2.343,2.342l0,0c0,1.296,1.05,2.345,2.343,2.345h40.302
			c1.295,0,2.344-1.05,2.344-2.345l0,0C381.838,302.775,380.789,301.727,379.494,301.727z"/>
		<path fill="#B8E3E2" d="M303.565,301.727l-18.236-35.1l-0.915,0.688c-0.589,0.442-0.771,1.248-0.426,1.899l19.577,37.195V301.727z
			"/>
		<rect x="317.428" y="303.914" fill="#9FCCC9" width="4.497" height="0.777"/>
		<rect x="323.081" y="303.914" fill="#9FCCC9" width="4.496" height="0.777"/>
		<rect x="328.731" y="303.914" fill="#9FCCC9" width="4.496" height="0.777"/>
	</g>
	<g>
		<path fill="#383873" d="M395.502,370.42c0,0-41.83,32.567-48.461,40.841c-2.504,3.134-6.866,8.621-11.386,14.244
			c-7.42,9.24-15.295,18.87-16.231,19.102c-1.492,0.379-14.045-9.177-14.422-11.236c-0.232-1.282,11.195-20.898,21.088-36.668
			c6.023-9.586,11.469-17.765,13.382-19.531c5.057-4.688,36.174-21.172,36.174-21.172L395.502,370.42z"/>
		
			<path opacity="0.15" fill="none" stroke="#000000" stroke-width="0.8185" stroke-linecap="round" stroke-miterlimit="10" enable-background="new    " d="
			M315.681,437.657c0,0,39.076-55.62,58.692-64.987"/>
		<path fill="#382424" d="M439.098,227.6c-0.44,1.01-0.946,2.061-1.516,3.132c-3.059,5.845-0.798,11.701-4.289,13.194
			c-0.209,0.083-0.44,0.168-0.703,0.22c-4.498,0.999-14.864-4.993-15.315-7.988c-0.452-2.998,3.194-8.128,0-8.748
			c-3.195-0.62-4.921,4.751-4.921,4.751c-2.627,0.274-3.563-4.132-7.872-4.132c-0.609,0-1.21,0.085-1.787,0.233
			c-2.029,0.505-3.808,1.754-4.941,2.723c-0.84,0.705-1.324,1.262-1.324,1.262s-3.838-2.428-3.657-7.212
			c0.306-7.58,3.102-13.109,9.841-14.233c0.746-8.431,7.685-12.93,16.955-13.215c8.127-0.251,9.346,7.054,9.533,8.873
			c-0.071-1.355-0.45-5.813-2.385-8.873c4.066-0.178,7.651,2.724,6.716,12.184c0.938-2.817,4.217-4.593,6.739-2.534
			c-2.334,0-4.584,3.932-4.584,3.932s2.744,1.756,4.615,5.003C441.756,218.853,441.168,222.817,439.098,227.6z"/>
		<path fill="#FFAD94" d="M433.293,243.926l-0.104,1.388l-0.356,4.919c0,0-7.486,6.402-11.732,0
			c-0.03-0.042-0.053-0.085-0.094-0.126c-1.314-1.955-2.502-2.638-3.586-2.765c-2.345-0.285-4.235,2.009-6.19-0.473
			c-5.595-7.097-7.82-15.317-8.535-18.607c0.578-0.147,1.178-0.233,1.787-0.233c4.311,0,5.245,4.406,7.873,4.132
			c0,0,1.725-5.371,4.92-4.751c3.194,0.619-0.452,5.75,0,8.748c0.199,1.334,2.377,3.269,5.129,4.909
			c3.208,1.923,7.202,3.447,9.733,3.153c0.158-0.021,0.308-0.042,0.453-0.074C432.853,244.094,433.084,244.01,433.293,243.926z"/>
		<path opacity="0.25" enable-background="new    " d="M434.461,253.08c-3.375,2.304-9.556,2.682-9.556,2.682l-5.058-0.746
			c0,0-2.113-3.067-1.126-4.783c0.189-0.335,0.662-0.799,1.335-1.346c1.356-1.115,3.544-2.543,5.805-3.721
			c2.333-1.21,4.739-2.165,6.477-2.271C436.584,242.653,437.836,250.77,434.461,253.08z"/>
		<path fill="#20C3C5" d="M433.461,335.078c-7.523,1.451-23.453-2.985-31.072-6.412c-2.25-1.01-3.785-1.936-4.152-2.586
			c-1.461-2.576,0.011-4.553,3.638-12.729c0.41-0.926,0.84-1.926,1.303-3.008c2.459-5.791,2.473-18.145,2.459-28.794
			c-0.028-9.112-0.069-16.978,1.379-18.376c3.145-3.027,18.826-12.94,18.826-12.94l3.123,16.274c0,0,1.768,8.264,3.627,19.049
			C436.017,305.412,439.78,333.857,433.461,335.078z"/>
		<path fill="#383873" d="M438.707,342.32c0,0.746-7.494,18.229-13.781,20.729c-6.285,2.505-44.174-0.252-44.174-0.252
			l-18.73,12.246l3.921,36.898l2.731,25.713l0.084,0.832c-5.729,3.741-20.163,4.75-21.717,1.522
			c-0.011-0.011-0.011-0.021-0.011-0.021c-1.504-3.249-24.483-72.439-15.484-84.437c8.988-11.981,66.69-29.477,66.69-29.477
			c1.504,0.957,3.249,1.816,5.15,2.586c6.412,2.627,14.562,4.277,20.763,5.244c2.387,0.369,4.479,0.644,6.076,0.83
			c2.018,0.242,3.235,0.338,3.235,0.338S438.707,341.564,438.707,342.32z"/>
		<path fill="#0C2059" d="M371.135,462.593h-48.716c-0.24-0.859,0.086-1.733,0.821-2.616c1.977-2.377,6.928-4.763,11.7-6.822
			c4.531-1.955,8.884-3.638,10.346-4.793c3.438-2.725,1.85-8.021,1.756-8.349c0.524,1.082,2.511,1.691,5.14,1.871
			c5.162,0.368,12.783-0.915,16.578-3.396l-0.084-0.832c1.451,2.774,2.135,16.494,2.365,22.318
			C371.103,461.584,371.135,462.593,371.135,462.593z"/>
		<path fill="#2E4780" d="M352.181,441.884c-0.147,2.321-0.483,6.086-1.155,7.097c-0.998,1.504-11.743,6.748-13.235,6.244
			c-0.967-0.314-2.146-1.366-2.85-2.07c4.531-1.955,8.884-3.638,10.346-4.793c3.438-2.725,1.85-8.021,1.756-8.349
			C347.565,441.095,349.551,441.705,352.181,441.884z"/>
		<path fill="#2E4780" d="M371.135,462.593h-48.716c-0.24-0.859,0.086-1.733,0.821-2.616h47.8
			C371.103,461.584,371.135,462.593,371.135,462.593z"/>
		<path fill="#0C2059" d="M319.423,444.605c0,0-3.7,9.757-6.906,14.92c-1.271,2.06-2.48,3.396-3.334,3.066
			c-2.995-1.124-33.103-26.723-30.223-28.593c0.422-0.273,1.094-0.464,1.936-0.569c2.617-0.334,6.958,0.032,10.975,0.442
			c3.448,0.355,6.654,0.745,8.326,0.745c4.246,0,4.804-1.25,4.804-1.25c0.094,0.494,0.894,1.43,2.081,2.563
			C310.805,439.465,318.289,444.891,319.423,444.605z"/>
		<path fill="#2E4780" d="M307.082,435.934c-6.38,4.227-13.034,1.684-14.349,0.717c-0.967-0.706-0.967-2.02-0.862-2.775
			c3.448,0.356,6.654,0.745,8.326,0.745c4.246,0,4.804-1.25,4.804-1.25C305.094,433.863,305.896,434.798,307.082,435.934z"/>
		<path fill="#2E4780" d="M312.518,459.525c-1.271,2.06-2.48,3.396-3.334,3.066c-2.994-1.124-33.103-26.723-30.223-28.593
			c0.422-0.273,1.094-0.464,1.936-0.569L312.518,459.525z"/>
		<path fill="#FFAD94" d="M402.407,303.193c-2.354,3.279-6.569,8.283-10.038,7.779c-0.126-0.021-0.263-0.041-0.432-0.074
			c-6.623-1.166-45.571-10.933-47.411-11.301c-1.872-0.367-14.98-0.494-14.234-1.871c0.747-1.377,8.242-5.738,10.24-5.635
			c1.997,0.104,9.872,2.387,17.732,2.135c7.875-0.242,28.479,0,28.479,0l1.001-1.726l1.471-2.543
			C388.807,297.591,398.004,303.813,402.407,303.193z"/>
		
			<path opacity="0.15" fill="none" stroke="#000000" stroke-width="0.8185" stroke-linecap="round" stroke-miterlimit="10" enable-background="new    " d="
			M402.407,331.641c0,0-1.794,9.555,5.199,12.738"/>
		
			<path opacity="0.15" fill="none" stroke="#000000" stroke-width="0.8185" stroke-linecap="round" stroke-miterlimit="10" enable-background="new    " d="
			M398.737,339.32c0,0-46.268,19.732-48.489,25.854c-2.221,6.12,11.771,72.481,11.771,72.481"/>
		<path opacity="0.15" enable-background="new    " d="M438.707,342.32c0,0.746-7.494,18.229-13.781,20.729
			c-6.285,2.505-44.174-0.252-44.174-0.252l-18.73,12.246l3.921,36.898c0,0-7.917-42.146-7.917-44.896
			c0-2.354,52.332-17.397,66.123-33.137c5.402,0.853,9.313,1.168,9.313,1.168S438.707,341.564,438.707,342.32z"/>
		<path opacity="0.25" enable-background="new    " d="M414.035,297.602c-3.248,4.604-8.482,10.449-12.162,15.748
			c0.409-0.925,0.84-1.925,1.303-3.007c2.459-5.792,2.472-18.146,2.459-28.794l11.22-7.422
			C416.854,274.127,419.279,290.168,414.035,297.602z"/>
		<path fill="#169799" d="M404.459,301.773c-0.483,0.442-0.979,0.885-1.474,1.295c-0.179,0.063-0.367,0.104-0.578,0.125
			c-4.403,0.619-13.603-5.604-13.192-13.234c0.033-0.564,0.484-1.703,1.221-3.186c3.765-7.59,15.084-24.482,17.168-23.705
			c0,0,7.271,1.125,9.251,11.059C418.701,283.451,412.026,294.764,404.459,301.773z"/>
		<path opacity="0.25" enable-background="new    " d="M430.226,334.74c-1.601-0.188-3.689-0.461-6.076-0.83
			c-6.201-0.967-14.351-2.617-20.763-5.244c5.654-0.199,17.756-3.922,19.218-31.621c0.662,5.184,1.66,10.555,3.048,16.053
			C427.514,320.402,429.268,328.107,430.226,334.74z"/>
		<path opacity="0.25" enable-background="new    " d="M427.239,243.368c-0.578,0.673-1.03,1.284-1.378,1.798
			c-2.261,1.178-4.445,2.605-5.805,3.721c-0.944-1.04-1.817-1.45-2.638-1.545l4.98-6.275
			C423.916,241.979,425.609,242.79,427.239,243.368z"/>
		<path opacity="0.25" enable-background="new    " d="M402.407,303.193c-2.354,3.279-6.569,8.283-10.038,7.779
			c-0.126-0.021-0.263-0.041-0.432-0.074c-4.29-6.201-4.447-14.326-4.193-18.396l1.471-2.545
			C388.807,297.591,398.004,303.813,402.407,303.193z"/>
		<path opacity="0.25" enable-background="new    " d="M439.098,227.6c-0.44,1.01-0.946,2.061-1.516,3.132
			c-1.502,2.87-1.713,5.729-1.965,8.095c-0.506-0.389-1.021-0.747-1.535-1.051c-3.248,1.935-5.436,3.942-6.843,5.592l-0.013,0.011
			c-4.584-1.64-9.64-5.151-9.954-7.221c-0.452-2.998,3.193-8.128,0-8.748c-3.195-0.62-4.921,4.751-4.921,4.751
			c-2.627,0.274-3.563-4.132-7.872-4.132c-0.61,0-1.21,0.085-1.787,0.233c-2.028,0.505-3.807,1.754-4.942,2.723
			c0,0,4.858-6.823,12.479-5.446c0,0-1.114-2.124-6.244-1.871c10.742-3.5,17.605-2.122,20.92,1.746
			C427.606,228.577,433.944,232.488,439.098,227.6z"/>
	</g>
	<g>
		<path fill="#B8E3E2" d="M460.941,375.045h-37.478c0,0,29.729-8.745,29.729-67.699c0-0.756,0-1.504-0.011-2.248
			c-0.305-39.399-8.727-61.131-19.102-67.322c3.248-1.924,7.569-3.763,13.276-5.035c2.492-0.568,5.234-1.021,8.273-1.335
			c25.66-2.618,46.158,7.443,48.598,18.827C506.66,261.619,491.658,375.045,460.941,375.045z"/>
		<path fill="#86BFBC" d="M453.192,307.346c0,58.954-29.729,67.699-29.729,67.699H362.02l2.555-1.818l16.179-10.428l32.475-2.249
			c1.744-7.243,6.494-7.485,13.738-8.241c4.215-0.432,4.625-7.547,3.342-16.955c-0.936-6.771-2.741-14.729-4.655-22.258
			c-1.388-5.496-2.386-10.869-3.049-16.051c-0.788-6.066-1.136-11.857-1.168-17.314c-0.095-12.426,1.421-23.043,3.02-30.716
			c0.146-0.747,0.305-1.463,0.463-2.145c0-0.021,0.01-0.053,0.01-0.074c0.146-0.325,0.789-1.65,2.304-3.417l0.012-0.011
			c1.407-1.65,3.594-3.658,6.842-5.592c0.516,0.305,1.03,0.662,1.536,1.051c9.66,7.359,17.271,28.834,17.565,66.27
			C453.192,305.842,453.192,306.59,453.192,307.346z"/>
		<path fill="#B8E3E2" d="M441.336,462.593H397.1c-1.514,0-2.176-1.913-0.979-2.85l11.07-8.66c4.908-3.85,7.778-9.745,7.778-15.979
			v-60.059h8.492v60.059c0,6.234,2.871,12.132,7.789,15.979l11.06,8.66C443.512,460.68,442.85,462.593,441.336,462.593z"/>
		<g opacity="0.25">
			<g>
				<path fill="none" stroke="#000000" stroke-width="0.8185" stroke-linecap="round" stroke-miterlimit="10" d="M475.074,233.667
					c0,0,0.251,0.642,0.674,1.928"/>
				
					<path fill="none" stroke="#000000" stroke-width="0.8185" stroke-linecap="round" stroke-miterlimit="10" stroke-dasharray="4.1478,4.1478" d="
					M476.947,239.561c1.546,5.494,3.758,14.837,5.473,28.068c4.063,31.338-0.146,75.451-27.869,102.986"/>
				<path fill="none" stroke="#000000" stroke-width="0.8185" stroke-linecap="round" stroke-miterlimit="10" d="M453.053,372.066
					c-0.494,0.467-0.996,0.93-1.506,1.385"/>
			</g>
		</g>
		<path opacity="0.15" enable-background="new    " d="M423.465,375.045v16.4c-2.943,1.533-5.93,2.711-8.494,3.572v-19.976h8.494
			V375.045z"/>
		<path opacity="0.15" enable-background="new    " d="M435.207,349.564c-1.998,6.244-14.476,5.125-15.99,9.744
			c-3.213,9.801-4.992,5.485-17.344,6.737c-7.064,0.716-12.195,5.246-15.285,8.998h-24.566l2.554-1.817l16.178-10.429l32.477-2.249
			c1.742-7.242,6.494-7.484,13.736-8.242c4.217-0.431,4.627-7.547,3.343-16.955c-0.935-6.771-2.741-14.729-4.655-22.256
			c-1.388-5.498-2.386-10.869-3.048-16.052c-0.789-6.067-1.136-11.858-1.168-17.313
			C426.239,304.771,436.689,344.938,435.207,349.564z"/>
		<path opacity="0.15" enable-background="new    " d="M453.192,307.346c0-0.756,0-1.504-0.011-2.248
			c-0.306-39.399-8.726-61.131-19.103-67.322c3.25-1.924,7.57-3.763,13.277-5.035c-1.715,2.47-3.5,6.181-2.659,10.145
			c1.504,7.012,18.492,33.985,11.994,77.202c-4.688,31.182-3.134,47.4,1.767,54.957h-34.996
			C423.465,375.045,453.192,366.3,453.192,307.346z"/>
	</g>
	<g>
		<path fill="#20C3C5" d="M266.777,227.356c-1.346,4.89-7.517,14.372-13.151,24.526c-6.161,11.08-11.668,22.949-9.514,30.486
			c0.536,1.894,0.778,3.278,0.778,4.276c0.021,3.28-2.469,2.261-4.983,0.398c-2.564-1.9-5.161-4.678-5.161-4.678l0.188-14.611
			c0,0-8.284-7.611-1.482-24.262c0.431-1.051,0.925-2.144,1.482-3.281c9.367-18.922,23.411-38.779,10.113-44.403
			C263.415,194.686,269.595,217.129,266.777,227.356z"/>
		<g opacity="0.53">
			<path d="M245.048,195.811c0,0,0.325,0.052,0.917,0.228c0.587,0.183,1.438,0.504,2.444,1.064c1.008,0.553,2.16,1.378,3.261,2.549
				c1.103,1.164,2.158,2.664,2.983,4.465c0.79,1.815,1.37,3.891,1.704,6.135c0.313,2.26-0.142,4.685-0.76,7.058
				c-1.307,4.774-3.438,9.611-5.625,14.389c-4.42,9.539-9.237,18.912-11.784,26.35c-0.62,1.857-1.161,3.572-1.479,5.123
				c-0.193,0.771-0.274,1.505-0.397,2.176c-0.047,0.676-0.157,1.299-0.139,1.855c-0.031,1.119,0.091,1.984,0.222,2.553
				c0.152,0.563,0.233,0.861,0.233,0.861l0.018,0.066c0.059,0.217-0.07,0.44-0.288,0.5c-0.217,0.061-0.441-0.068-0.5-0.287
				l-0.001-0.002c0,0-0.088-0.336-0.252-0.963c-0.139-0.629-0.259-1.572-0.215-2.75c-0.012-0.595,0.105-1.232,0.164-1.938
				c0.132-0.69,0.227-1.451,0.43-2.233c0.342-1.587,0.907-3.318,1.552-5.191c2.646-7.482,7.558-16.809,12.065-26.293
				c2.231-4.749,4.401-9.554,5.745-14.284c0.638-2.365,1.108-4.723,0.822-6.965c-0.309-2.231-0.865-4.297-1.632-6.108
				c-0.802-1.796-1.835-3.296-2.921-4.465c-1.083-1.175-2.224-2.009-3.223-2.57c-0.998-0.568-1.844-0.898-2.43-1.086
				C245.374,195.867,245.048,195.811,245.048,195.811z"/>
		</g>
		<path fill="#169799" d="M258.347,256.887c-5.613,14.803,0,26.027-8.43,27.629c-3.858,0.732-5.562-2.125-6.266-5.445
			c-0.84-3.934-0.284-8.508-0.284-8.508s1.43-3.658,4.435-7.209C250.252,260.461,253.732,257.645,258.347,256.887z"/>
		<path fill="#B8E3E2" d="M238.773,275.23c-0.032,3.447-0.81,6.369-2.408,7.906c-0.158,0.155-0.316,0.293-0.463,0.409
			c-3.984,3.228-6.528-2.682-6.528-2.682s-10.596-5.226-15.851-15.83c-4.027-8.147-4.921-19.48,4.55-34.051
			c1.389,10.375,7.075,17.44,12.711,24.146c0,0.012,0,0.012,0,0.012c0.704,0.84,1.398,1.659,2.093,2.488
			C236.775,262.313,238.825,269.502,238.773,275.23z"/>
		<g opacity="0.53">
			<path d="M218.07,230.986c0,0-0.199,0.832-0.421,2.31c-0.22,1.477-0.464,3.603-0.513,6.162c-0.013,0.64-0.022,1.306,0.006,1.996
				c0.006,0.689,0.045,1.401,0.106,2.131c0.096,1.462,0.314,2.993,0.615,4.559c0.151,0.783,0.375,1.564,0.562,2.361
				c0.262,0.777,0.483,1.58,0.79,2.354c0.613,1.545,1.341,3.104,2.255,4.529c0.862,1.453,1.911,2.805,2.945,4.115
				c1.067,1.291,2.156,2.531,3.227,3.725c1.07,1.189,2.097,2.355,3.033,3.5c0.466,0.573,0.892,1.158,1.314,1.713
				c0.378,0.591,0.78,1.136,1.101,1.703c0.655,1.127,1.147,2.23,1.473,3.25c0.139,0.517,0.282,0.998,0.388,1.448
				c0.06,0.462,0.115,0.884,0.165,1.267c0.067,0.382,0.069,0.726,0.056,1.023c-0.004,0.299-0.008,0.555-0.011,0.76
				c-0.006,0.412-0.009,0.633-0.009,0.633c-0.003,0.228-0.189,0.406-0.415,0.402c-0.226-0.004-0.406-0.188-0.402-0.414
				c0-0.002,0-0.003,0-0.004l0.001-0.059c0,0,0.006-0.207,0.017-0.596c0.005-0.193,0.012-0.435,0.021-0.715
				c0.017-0.283,0.021-0.605-0.038-0.965c-0.041-0.359-0.086-0.759-0.136-1.191c-0.094-0.426-0.224-0.881-0.346-1.371
				c-0.294-0.969-0.746-2.027-1.362-3.125c-0.3-0.553-0.685-1.092-1.043-1.668c-0.406-0.551-0.813-1.129-1.265-1.701
				c-0.907-1.143-1.909-2.314-2.962-3.521c-1.052-1.207-2.13-2.473-3.185-3.789c-1.027-1.343-2.06-2.715-2.921-4.215
				c-0.907-1.467-1.608-3.029-2.212-4.617c-0.299-0.791-0.51-1.604-0.763-2.395c-0.177-0.81-0.391-1.601-0.531-2.392
				c-0.28-1.583-0.476-3.126-0.55-4.596c-0.05-0.734-0.078-1.449-0.075-2.142c-0.018-0.692,0.001-1.36,0.024-2.001
				c0.087-2.565,0.363-4.689,0.606-6.164C217.858,231.814,218.07,230.986,218.07,230.986z"/>
		</g>
		<g opacity="0.25">
			<path d="M258.351,256.887c0,0-1.226,1.383-2.916,3.574c-0.834,1.104-1.803,2.396-2.772,3.826
				c-0.495,0.709-0.983,1.457-1.469,2.223c-0.502,0.756-0.956,1.559-1.434,2.344c-0.471,0.791-0.893,1.607-1.335,2.398
				c-0.4,0.811-0.793,1.607-1.173,2.381c-0.336,0.792-0.679,1.551-0.971,2.279c-0.266,0.738-0.517,1.438-0.748,2.084
				c-0.183,0.66-0.35,1.264-0.498,1.799c-0.17,0.531-0.212,1.016-0.295,1.402c-0.142,0.779-0.223,1.227-0.223,1.227l-0.008,0.042
				c-0.041,0.222-0.253,0.368-0.476,0.329c-0.222-0.041-0.37-0.254-0.329-0.477c0-0.004,0.001-0.008,0.002-0.012
				c0,0,0.097-0.459,0.266-1.265c0.097-0.397,0.156-0.897,0.345-1.438c0.167-0.545,0.356-1.158,0.562-1.828
				c0.254-0.65,0.529-1.355,0.821-2.103c0.316-0.733,0.687-1.491,1.047-2.284c0.406-0.769,0.826-1.563,1.252-2.371
				c0.467-0.783,0.916-1.597,1.411-2.377c0.502-0.777,0.981-1.57,1.506-2.314c0.509-0.756,1.02-1.492,1.536-2.188
				c1.011-1.408,2.018-2.676,2.883-3.758C257.087,258.234,258.351,256.887,258.351,256.887z"/>
		</g>
		<path fill="#B8E3E2" d="M254.941,282.736l-3.596,22.076c-0.179,0.928-0.988,1.6-1.935,1.6h-22.401c-0.947,0-1.756-0.672-1.936-1.6
			l-2.923-17.924l-0.672-4.152c-0.221-1.207,0.705-2.322,1.935-2.322h29.593C254.236,280.414,255.162,281.529,254.941,282.736z"/>
		<path fill="#86BFBC" d="M258.347,287.236h-40.274l1.064-6.014c0.23-1.263,1.323-2.187,2.606-2.187h32.945
			c1.272,0,2.376,0.924,2.597,2.187L258.347,287.236z"/>
		<path opacity="0.25" enable-background="new    " d="M243.366,270.563c0,0-0.557,4.554,0.273,8.476h-5.267
			c0.252-1.146,0.378-2.438,0.4-3.808c0.052-5.729-1.998-12.918-5.897-17.6c-0.695-0.829-1.389-1.648-2.093-2.488c0,0,0,0,0-0.012
			c0.083-3.229,0.82-7.095,2.669-11.636c0.306,5.309,1.609,14.539,6.907,15.516c4.026,0.735,9.271-3.259,13.266-7.128
			c-2.112,3.795-4.141,7.686-5.825,11.471C244.796,266.904,243.366,270.563,243.366,270.563z"/>
		<path opacity="0.25" enable-background="new    " d="M240.381,306.412h-13.372c-0.947,0-1.756-0.672-1.936-1.6l-2.87-17.574
			h11.555c-0.285,2.459-0.633,7.053,0.241,10.615C234.684,300.682,237.165,304.318,240.381,306.412z"/>
	</g>
</g>
<path opacity="0.4" fill="#BABABA" enable-background="new    " d="M347.318,129.884h-57.293c-2.828,0-5.122-2.293-5.122-5.123
	V82.155c0-2.829,2.294-5.123,5.122-5.123h57.293c2.829,0,5.123,2.294,5.123,5.123v42.606
	C352.44,127.591,350.146,129.884,347.318,129.884z"/>
<g opacity="0.4">
	<path fill="#FFFFFF" d="M300.627,95.728v5.687c0,0.456,0.37,0.825,0.825,0.825h3.149c0.455,0,0.824-0.369,0.824-0.825v-5.687
		c0-0.457,0.37-0.826,0.825-0.826h0.305c0.456,0,0.824,0.369,0.824,0.826v15.462c0,0.456-0.369,0.826-0.824,0.826h-0.305
		c-0.455,0-0.825-0.37-0.825-0.826v-6.349c0-0.454-0.37-0.824-0.824-0.824h-3.149c-0.456,0-0.825,0.37-0.825,0.824v6.349
		c0,0.456-0.371,0.826-0.825,0.826h-0.305c-0.457,0-0.826-0.37-0.826-0.826V95.728c0-0.457,0.369-0.826,0.826-0.826h0.305
		C300.257,94.902,300.627,95.271,300.627,95.728z"/>
	<path fill="#FFFFFF" d="M311.605,96.654h-1.476c-0.454,0-0.824-0.369-0.824-0.825v-0.101c0-0.457,0.371-0.826,0.824-0.826h6.553
		c0.455,0,0.825,0.369,0.825,0.826v0.101c0,0.456-0.37,0.825-0.825,0.825h-1.473c-0.457,0-0.825,0.37-0.825,0.825v13.712
		c0,0.456-0.37,0.826-0.825,0.826h-0.307c-0.455,0-0.825-0.37-0.825-0.826V97.479C312.429,97.024,312.061,96.654,311.605,96.654z"/>
	<path fill="#FFFFFF" d="M329.667,104.652c-0.127-2.261-0.255-4.774-0.178-6.705h-0.103c-0.383,1.906-0.839,3.937-1.372,5.943
		l-2.105,8.023h-1.244l-2.007-7.695c-0.56-2.183-1.064-4.29-1.396-6.271h-0.074c0,2.007-0.104,4.394-0.203,6.831l-0.295,6.449
		c-0.021,0.44-0.384,0.788-0.824,0.788h-0.089c-0.476,0-0.853-0.4-0.822-0.875l0.917-15.464c0.025-0.436,0.387-0.775,0.823-0.775
		h0.688c0.376,0,0.705,0.254,0.798,0.62l1.85,7.199c0.585,2.26,1.016,3.936,1.372,5.892h0.074c0.33-1.956,0.711-3.581,1.271-5.892
		l1.776-7.191c0.091-0.369,0.422-0.628,0.8-0.628h0.758c0.438,0,0.799,0.342,0.824,0.778l0.895,15.463
		c0.027,0.474-0.349,0.873-0.823,0.873h-0.167c-0.439,0-0.803-0.346-0.824-0.786L329.667,104.652z"/>
	<path fill="#FFFFFF" d="M335.337,94.902h0.306c0.456,0,0.826,0.369,0.826,0.826v13.812c0,0.457,0.369,0.826,0.824,0.826h3.175
		c0.454,0,0.824,0.369,0.824,0.825l0,0c0,0.456-0.37,0.826-0.824,0.826h-5.13c-0.455,0-0.826-0.37-0.826-0.826V95.728
		C334.511,95.271,334.882,94.902,335.337,94.902z"/>
</g>
<g opacity="0.4">
	<g>
		<path fill="#383873" d="M373.435,81.561c2.146,0,2.649-1.443,2.649-2.728c0-1.13-0.115-2.223-0.232-3.314
			c-0.115-1.169-0.232-2.222-0.232-3.429c0-3.509,2.145-4.99,4.91-4.99h0.469v2.027h-0.584c-1.638,0-2.3,1.168-2.3,2.922
			c0,1.053,0.117,2.027,0.231,2.962c0.078,1.013,0.195,1.949,0.195,2.885c0.039,3.041-1.014,4.093-2.689,4.561v0.078
			c1.678,0.507,2.729,1.56,2.689,4.638c0,0.975-0.117,1.95-0.195,2.923c-0.114,0.976-0.231,1.949-0.231,3.003
			c0,1.753,0.584,2.961,2.339,2.961h0.545v2.026h-0.506c-2.573,0-4.873-1.286-4.873-4.988c0-1.17,0.117-2.34,0.232-3.47
			c0.117-1.131,0.232-2.26,0.232-3.353c0-1.247-0.506-2.767-2.649-2.767V81.561z"/>
		<path fill="#383873" d="M413.17,83.51c-2.144,0-2.65,1.521-2.65,2.767c0,1.093,0.117,2.221,0.233,3.353
			c0.117,1.129,0.234,2.299,0.234,3.47c0,3.702-2.3,4.988-4.873,4.988h-0.506v-2.026h0.546c1.754-0.194,2.339-1.208,2.339-2.961
			c0-1.054-0.118-2.027-0.196-3.003c-0.117-0.973-0.23-1.948-0.23-2.923c-0.04-3.079,1.012-4.131,2.688-4.638v-0.078
			c-1.677-0.467-2.729-1.52-2.688-4.561c0-0.936,0.113-1.872,0.23-2.885c0.078-0.936,0.196-1.909,0.196-2.962
			c0-1.754-0.664-2.727-2.301-2.922h-0.584V67.1h0.467c2.767,0,4.912,1.481,4.912,4.99c0,1.207-0.117,2.26-0.234,3.429
			c-0.116,1.091-0.233,2.184-0.233,3.314c0,1.285,0.509,2.728,2.65,2.728V83.51L413.17,83.51z"/>
	</g>
</g>
<polygon opacity="0.4" fill="#FFFFFF" enable-background="new    " points="399.796,86.343 399.796,78.846 393.302,75.097 
	386.809,78.846 386.809,86.343 393.302,90.091 "/>
<g opacity="0.4">
	<path fill="#A5A5A5" d="M448.647,123.701c-6.104-3.038-13.444-1.839-18.27,2.985c-5.954,5.956-6.152,15.498-0.628,21.714
		l-2.38-0.284c-0.288-0.034-0.551,0.172-0.584,0.46c-0.034,0.287,0.171,0.549,0.458,0.583l3.627,0.432
		c0.144,0.018,0.282-0.025,0.388-0.109c0.104-0.083,0.181-0.207,0.196-0.35l0.416-3.509c0.036-0.288-0.171-0.549-0.458-0.583
		c-0.288-0.035-0.551,0.171-0.584,0.459l-0.269,2.234c-5.185-5.802-5.011-14.734,0.562-20.305
		c4.504-4.503,11.358-5.624,17.055-2.787c0.263,0.13,0.576,0.022,0.706-0.235C449.013,124.145,448.908,123.831,448.647,123.701z"/>
	<path fill="#A5A5A5" d="M435.001,152.79c6.103,3.039,13.444,1.838,18.269-2.985c5.953-5.955,6.152-15.499,0.63-21.714l2.381,0.284
		c0.289,0.035,0.549-0.171,0.583-0.459c0.035-0.289-0.17-0.551-0.459-0.584l-3.626-0.432c-0.146-0.018-0.281,0.026-0.39,0.109
		c-0.104,0.084-0.179,0.207-0.193,0.352l-0.418,3.508c-0.034,0.288,0.171,0.549,0.459,0.583c0.289,0.034,0.551-0.171,0.585-0.46
		l0.266-2.232c5.188,5.802,5.011,14.733-0.56,20.304c-4.503,4.503-11.357,5.624-17.058,2.787c-0.259-0.131-0.571-0.023-0.704,0.235
		C434.636,152.346,434.742,152.661,435.001,152.79z"/>
</g>
<g opacity="0.4">
	<path fill="#169799" d="M532.729,357.746c-3.08,8.936-6.76,16.736-10.606,23.777c-13.298,24.295-28.74,39.748-29.317,62.401
		c0,0-4.794-21.341-0.945-45.652c2.153-13.656,7.031-28.247,17.011-40.526c27.761-34.143,23.648-65.196,23.648-65.196
		S546.438,318.02,532.729,357.746z"/>
	<g opacity="0.25">
		<path d="M500.132,417.324c0,0.001-0.023-0.119-0.057-0.38c-0.038-0.261-0.078-0.639-0.116-1.123
			c-0.075-0.979-0.137-2.409-0.046-4.227c0.053-1.815,0.32-4.008,0.726-6.5c0.496-2.473,1.097-5.265,2.096-8.204
			c0.918-2.966,2.211-6.07,3.671-9.308c0.802-1.583,1.595-3.228,2.482-4.863c0.947-1.603,1.826-3.295,2.886-4.915
			c2.068-3.279,4.359-6.523,6.269-10.064c1.938-3.533,3.655-7.262,5.182-11.066c3.051-7.615,5.362-15.521,7.048-23.031
			c1.688-7.512,2.771-14.633,3.342-20.767c0.559-6.134,0.617-11.29,0.228-14.865c-0.199-1.784-0.454-3.182-0.771-4.091
			c-0.121-0.468-0.297-0.796-0.395-1.025c-0.102-0.228-0.152-0.345-0.152-0.345s0.055,0.117,0.156,0.343
			c0.102,0.229,0.279,0.555,0.407,1.021c0.331,0.906,0.604,2.304,0.826,4.089c0.438,3.577,0.443,8.743-0.037,14.896
			c-0.509,6.152-1.541,13.295-3.166,20.843c-1.625,7.544-3.877,15.491-6.877,23.175c-1.503,3.838-3.199,7.604-5.123,11.188
			c-1.904,3.605-4.186,6.904-6.23,10.143c-1.046,1.609-1.911,3.29-2.851,4.881c-0.878,1.624-1.66,3.254-2.451,4.822
			c-1.438,3.207-2.712,6.281-3.609,9.213c-0.981,2.906-1.564,5.659-2.052,8.096c-0.404,2.45-0.688,4.604-0.747,6.382
			c-0.101,1.779-0.048,3.179,0.021,4.121c0.034,0.477,0.07,0.832,0.104,1.065c0.025,0.232,0.054,0.366,0.054,0.367
			c0.045,0.221-0.101,0.437-0.32,0.479c-0.22,0.045-0.434-0.097-0.479-0.313L500.132,417.324z"/>
	</g>
	<path opacity="0.25" enable-background="new    " d="M522.121,381.523c-13.298,24.295-28.74,39.748-29.317,62.401
		c0,0-4.794-21.341-0.945-45.652C500.477,394.75,512.598,389.011,522.121,381.523z"/>
	<path fill="#20C3C5" d="M500.512,467.908c0,0-9.711-16.604,13.271-37.091c22.979-20.488,40.968-47.585,37.47-69.507
		c-21.98,25.537-80.436,61.752-63.949,106.595L500.512,467.908z"/>
	<g opacity="0.25">
		<path d="M551.253,361.311c0,0-0.051,0.113-0.146,0.334c-0.097,0.224-0.244,0.547-0.459,0.961c-0.209,0.418-0.47,0.933-0.771,1.535
			c-0.335,0.588-0.72,1.266-1.15,2.021c-0.816,1.541-2.045,3.27-3.354,5.311c-0.658,1.021-1.481,2.021-2.281,3.119
			c-0.408,0.545-0.827,1.104-1.255,1.676c-0.425,0.574-0.86,1.164-1.362,1.717c-0.973,1.135-1.985,2.313-3.035,3.535
			c-0.528,0.606-1.05,1.242-1.609,1.854c-0.586,0.591-1.182,1.188-1.781,1.799c-1.205,1.218-2.441,2.468-3.707,3.743
			c-0.614,0.659-1.309,1.245-2.002,1.848c-0.69,0.603-1.39,1.211-2.094,1.822c-1.408,1.229-2.841,2.475-4.29,3.736
			c-0.733,0.618-1.473,1.238-2.214,1.863c-0.716,0.651-1.436,1.309-2.155,1.967c-2.837,2.688-5.511,5.641-7.968,8.761
			c-4.917,6.238-8.952,13.155-11.855,20.003c-2.913,6.846-4.668,13.632-5.296,19.533c-0.318,2.95-0.359,5.675-0.214,8.073
			c0.049,1.2,0.215,2.313,0.331,3.348c0.197,1.019,0.314,1.969,0.547,2.798c0.194,0.839,0.387,1.582,0.605,2.213
			c0.196,0.638,0.365,1.18,0.551,1.604c0.339,0.854,0.519,1.312,0.519,1.312l0.014,0.027c0.083,0.21-0.021,0.446-0.23,0.53
			c-0.209,0.082-0.447-0.021-0.53-0.229l-0.001-0.003c0,0-0.184-0.471-0.524-1.354c-0.188-0.437-0.355-0.992-0.557-1.647
			c-0.221-0.65-0.412-1.413-0.604-2.273c-0.231-0.852-0.348-1.82-0.541-2.863c-0.112-1.056-0.274-2.19-0.315-3.414
			c-0.134-2.442-0.071-5.208,0.271-8.193c0.675-5.972,2.49-12.803,5.469-19.676c2.966-6.875,7.068-13.801,12.049-20.038
			c2.488-3.118,5.193-6.065,8.063-8.748c0.729-0.657,1.458-1.313,2.182-1.964c0.747-0.621,1.49-1.24,2.229-1.854
			c1.454-1.249,2.892-2.485,4.305-3.7c0.707-0.606,1.408-1.211,2.103-1.808c0.696-0.596,1.396-1.177,2.012-1.83
			c1.271-1.267,2.515-2.507,3.725-3.713c0.604-0.604,1.202-1.198,1.79-1.785c0.564-0.606,1.088-1.237,1.62-1.84
			c1.056-1.213,2.076-2.386,3.056-3.511c0.505-0.551,0.943-1.135,1.371-1.706c0.433-0.569,0.854-1.125,1.265-1.666
			c0.808-1.095,1.638-2.087,2.302-3.103c1.32-2.031,2.56-3.75,3.388-5.285c0.436-0.754,0.824-1.426,1.163-2.012
			c0.308-0.604,0.567-1.115,0.781-1.529c0.217-0.414,0.368-0.737,0.464-0.959C551.201,361.424,551.253,361.311,551.253,361.311z"/>
	</g>
</g>
<g opacity="0.4">
	<path fill="#169799" d="M170.683,347.631c0,0-11.989-10.928-18.36-38.251c36.722,31.132,45.713,58.856,45.713,58.856
		L170.683,347.631z"/>
	<g opacity="0.25">
		<path d="M152.323,309.38c0,0,1.894,2.757,4.735,6.89c1.408,2.076,3.056,4.494,4.783,7.11c1.748,2.604,3.581,5.401,5.386,8.218
			c0.9,1.409,1.834,2.797,2.693,4.202c0.868,1.399,1.722,2.777,2.549,4.11c0.828,1.332,1.636,2.615,2.34,3.871
			c0.72,1.246,1.401,2.425,2.03,3.513c0.632,1.085,1.215,2.078,1.651,3.008c0.458,0.916,0.858,1.716,1.188,2.373
			c0.659,1.316,1.035,2.068,1.035,2.068c0.101,0.202,0.019,0.448-0.183,0.549c-0.202,0.103-0.448,0.021-0.549-0.183
			c0-0.002-0.001-0.002-0.001-0.004l-0.021-0.043c0,0-0.36-0.748-0.992-2.06c-0.315-0.653-0.699-1.451-1.138-2.362
			c-0.415-0.926-0.98-1.925-1.595-3.016c-0.61-1.094-1.271-2.275-1.969-3.528c-0.682-1.264-1.469-2.557-2.275-3.897
			c-0.805-1.344-1.637-2.732-2.482-4.146c-0.836-1.416-1.748-2.815-2.626-4.237c-1.761-2.842-3.55-5.666-5.257-8.295
			c-1.686-2.644-3.296-5.086-4.672-7.183C154.174,312.164,152.323,309.38,152.323,309.38z"/>
	</g>
	<path fill="#20C3C5" d="M197.289,362.992c-6.6-5.951-16.379-11.848-25.681-18.197c-12.374-8.441-23.906-17.713-26.04-29.036
		c-4.857,40.862,42.669,59.261,42.669,59.261l0.095,0.138l17.261,25.177C205.594,400.332,212.648,376.857,197.289,362.992z"/>
	<g opacity="0.25">
		<path d="M145.569,315.759c0,0-0.021,0.427,0.026,1.224c0.054,0.795,0.146,1.968,0.435,3.43c0.272,1.463,0.704,3.229,1.427,5.17
			c0.326,0.984,0.794,1.984,1.256,3.053c0.251,0.524,0.538,1.049,0.815,1.592c0.267,0.551,0.582,1.09,0.923,1.629
			c1.272,2.213,2.982,4.4,4.938,6.563c0.509,0.522,1.025,1.056,1.547,1.593c0.512,0.547,1.116,1.012,1.68,1.53
			c1.133,1.026,2.354,2.021,3.645,2.953c5.141,3.772,11.047,7.196,16.669,11.062c5.634,3.83,11.015,8.131,15.253,12.967
			c2.123,2.406,3.957,4.929,5.465,7.461c1.498,2.543,2.639,5.099,3.529,7.513c0.208,0.608,0.411,1.206,0.609,1.789
			c0.195,0.584,0.331,1.172,0.493,1.735c0.338,1.125,0.542,2.22,0.757,3.242c0.393,2.055,0.635,3.864,0.742,5.36
			c0.161,1.494,0.159,2.675,0.188,3.479c0.024,0.805,0.037,1.231,0.037,1.231c0.007,0.228-0.171,0.414-0.397,0.421
			s-0.414-0.171-0.421-0.396v-0.004v-0.022c0,0-0.009-0.423-0.027-1.215c-0.023-0.792-0.012-1.957-0.16-3.432
			c-0.094-1.476-0.319-3.26-0.69-5.285c-0.205-1.008-0.397-2.088-0.722-3.197c-0.155-0.557-0.284-1.137-0.472-1.712
			c-0.191-0.575-0.387-1.164-0.586-1.767c-0.858-2.383-1.963-4.908-3.421-7.426c-1.469-2.509-3.261-5.014-5.344-7.412
			c-4.159-4.815-9.473-9.135-15.064-12.998c-5.58-3.895-11.459-7.359-16.593-11.188c-1.291-0.948-2.502-1.947-3.637-2.993
			c-0.563-0.524-1.165-0.997-1.676-1.551c-0.521-0.544-1.035-1.081-1.542-1.61c-1.949-2.188-3.648-4.398-4.909-6.629
			c-0.339-0.544-0.65-1.087-0.914-1.64c-0.274-0.55-0.558-1.074-0.805-1.603c-0.455-1.074-0.917-2.08-1.236-3.07
			c-0.709-1.952-1.128-3.723-1.39-5.188c-0.278-1.466-0.362-2.638-0.41-3.435C145.544,316.186,145.569,315.759,145.569,315.759z"/>
	</g>
</g>
<line fill="none" stroke="#A5A5A5" stroke-miterlimit="10" x1="106.104" y1="467.908" x2="630.465" y2="467.908"/>
</svg>
