<?xml version="1.0" encoding="utf-8"?>
<!-- Generator: Adobe Illustrator 16.0.0, SVG Export Plug-In . SVG Version: 6.00 Build 0)  -->
<!DOCTYPE svg PUBLIC "-//W3C//DTD SVG 1.1//EN" "http://www.w3.org/Graphics/SVG/1.1/DTD/svg11.dtd">
<svg version="1.1" id="Layer_1" xmlns="http://www.w3.org/2000/svg" xmlns:xlink="http://www.w3.org/1999/xlink" x="0px" y="0px"
	 width="1600px" height="4000px" viewBox="0 0 1600 4000" enable-background="new 0 0 1600 4000" xml:space="preserve">
<g>
	<path fill="#FFFFFF" d="M102.53,32.824c0,0,1318.008,141.176,1308.455,535.294c-11.106,458.04-1308.455,558.824-1308.455,858.824
		s1235.02,88.235,1214.993,435.294c-16.275,282.05-1108.181,300-1094.829,647.059s1028.071,88.235,1041.424,341.177
		c-73.434,341.176-1194.966,158.823-1148.235,511.764c74.731,564.421,1318,559.221,1421.942,582.552"/>
	<path fill="none" stroke="#0213C7" stroke-width="20" stroke-miterlimit="10" d="M102.53,32.824
		c0,0,1318.008,141.176,1308.455,535.294c-11.106,458.04-1308.455,558.824-1308.455,858.824s1235.02,88.235,1214.993,435.294
		c-16.275,282.05-1108.181,300-1094.829,647.059s1028.071,88.235,1041.424,341.177
		c-73.434,341.176-1194.966,158.823-1148.235,511.764c74.731,564.421,1318,559.221,1421.942,582.552"/>
</g>
</svg>




 <svg id="mySVG" viewBox="0 0 60 55" preserveAspectRatio="xMidYMin slice" style="width: 6%; padding-bottom: 42%; height: 1px; overflow: visible">
          <circle id="circle" cx="10" cy="10" r="10"/>
          <path id="myline" class="st0" stroke-dasharray="10,9" d="M 20 0 v 20 a 30 30 0 0 0 30 30 h 600 a 40 40 0 0 1 0 80 h -140 a 30 30 0 0 0 0 60 h 200 a 40 40 0 0 1 0 80 h -100 a 30 30 0 0 0 -30 30 v 20" /> Sorry, your browser does not support inline SVG.
        </svg>