<?xml version="1.0" encoding="utf-8"?>
<!-- Generator: Adobe Illustrator 16.0.0, SVG Export Plug-In . SVG Version: 6.00 Build 0)  -->
<!DOCTYPE svg PUBLIC "-//W3C//DTD SVG 1.1//EN" "http://www.w3.org/Graphics/SVG/1.1/DTD/svg11.dtd">
<svg version="1.1" id="Layer_1" xmlns="http://www.w3.org/2000/svg" xmlns:xlink="http://www.w3.org/1999/xlink" x="0px" y="0px"
	 width="1400px" height="200px" viewBox="0 0 1400 200" enable-background="new 0 0 1400 200" xml:space="preserve">
<g>
	<g>
		<g>
			<g>
				<g>
					<g>
						<rect x="106" y="105.386" fill="#231F20" width="4.511" height="1.777"/>
						<rect x="112.717" y="105.386" fill="#231F20" width="4.511" height="1.777"/>
						<rect x="119.435" y="105.386" fill="#231F20" width="4.511" height="1.777"/>
						<rect x="126.153" y="105.386" fill="#231F20" width="4.51" height="1.777"/>
						<rect x="132.87" y="105.386" fill="#231F20" width="4.51" height="1.777"/>
						<rect x="139.589" y="105.386" fill="#231F20" width="4.51" height="1.777"/>
						<rect x="146.305" y="105.386" fill="#231F20" width="4.51" height="1.777"/>
					</g>
				</g>
				<g>
					<g>
						<rect x="153.023" y="105.386" fill="#231F20" width="4.51" height="1.777"/>
						<rect x="159.741" y="105.386" fill="#231F20" width="4.511" height="1.777"/>
						<rect x="166.458" y="105.386" fill="#231F20" width="4.511" height="1.777"/>
						<rect x="173.177" y="105.386" fill="#231F20" width="4.509" height="1.777"/>
						<rect x="179.893" y="105.386" fill="#231F20" width="4.511" height="1.777"/>
						<rect x="186.612" y="105.386" fill="#231F20" width="4.51" height="1.777"/>
						<rect x="193.329" y="105.386" fill="#231F20" width="4.51" height="1.777"/>
					</g>
				</g>
				<g>
					<g>
						<rect x="200.046" y="105.386" fill="#231F20" width="4.511" height="1.777"/>
						<rect x="206.764" y="105.386" fill="#231F20" width="4.51" height="1.777"/>
						<rect x="213.481" y="105.386" fill="#231F20" width="4.511" height="1.777"/>
						<rect x="220.2" y="105.386" fill="#231F20" width="4.51" height="1.777"/>
						<rect x="226.917" y="105.386" fill="#231F20" width="4.51" height="1.777"/>
						<rect x="233.635" y="105.386" fill="#231F20" width="4.51" height="1.777"/>
						<rect x="240.352" y="105.386" fill="#231F20" width="4.51" height="1.777"/>
					</g>
				</g>
				<g>
					<g>
						<rect x="247.07" y="105.386" fill="#231F20" width="4.511" height="1.777"/>
						<rect x="253.787" y="105.386" fill="#231F20" width="4.511" height="1.777"/>
						<rect x="260.504" y="105.386" fill="#231F20" width="4.51" height="1.777"/>
						<rect x="267.223" y="105.386" fill="#231F20" width="4.51" height="1.777"/>
						<rect x="273.939" y="105.386" fill="#231F20" width="4.511" height="1.777"/>
						<rect x="280.659" y="105.386" fill="#231F20" width="4.51" height="1.777"/>
						<rect x="287.375" y="105.386" fill="#231F20" width="4.51" height="1.777"/>
					</g>
				</g>
				<g>
					<g>
						<rect x="294.093" y="105.386" fill="#231F20" width="4.511" height="1.777"/>
						<rect x="300.811" y="105.386" fill="#231F20" width="4.511" height="1.777"/>
						<rect x="307.527" y="105.386" fill="#231F20" width="4.511" height="1.777"/>
						<rect x="314.246" y="105.386" fill="#231F20" width="4.51" height="1.777"/>
						<rect x="320.963" y="105.386" fill="#231F20" width="4.511" height="1.777"/>
						<rect x="327.682" y="105.386" fill="#231F20" width="4.51" height="1.777"/>
						<rect x="334.398" y="105.386" fill="#231F20" width="4.509" height="1.777"/>
					</g>
				</g>
				<g>
					<g>
						<rect x="341.116" y="105.386" fill="#231F20" width="4.511" height="1.777"/>
						<rect x="347.833" y="105.386" fill="#231F20" width="4.511" height="1.777"/>
						<rect x="354.551" y="105.386" fill="#231F20" width="4.511" height="1.777"/>
						<rect x="361.27" y="105.386" fill="#231F20" width="4.51" height="1.777"/>
						<rect x="367.986" y="105.386" fill="#231F20" width="4.51" height="1.777"/>
						<rect x="374.705" y="105.386" fill="#231F20" width="4.51" height="1.777"/>
						<rect x="381.421" y="105.386" fill="#231F20" width="4.51" height="1.777"/>
					</g>
				</g>
				<g>
					<g>
						<rect x="388.14" y="105.386" fill="#231F20" width="4.51" height="1.777"/>
						<rect x="394.857" y="105.386" fill="#231F20" width="4.511" height="1.777"/>
						<rect x="401.574" y="105.386" fill="#231F20" width="4.511" height="1.777"/>
						<rect x="408.293" y="105.386" fill="#231F20" width="4.509" height="1.777"/>
						<rect x="415.009" y="105.386" fill="#231F20" width="4.511" height="1.777"/>
						<rect x="421.728" y="105.386" fill="#231F20" width="4.51" height="1.777"/>
						<rect x="428.445" y="105.386" fill="#231F20" width="4.51" height="1.777"/>
					</g>
				</g>
				<g>
					<g>
						<rect x="435.163" y="105.386" fill="#231F20" width="4.511" height="1.777"/>
						<rect x="441.88" y="105.386" fill="#231F20" width="4.51" height="1.777"/>
						<rect x="448.597" y="105.386" fill="#231F20" width="4.511" height="1.777"/>
						<rect x="455.316" y="105.386" fill="#231F20" width="4.51" height="1.777"/>
						<rect x="462.033" y="105.386" fill="#231F20" width="4.51" height="1.777"/>
						<rect x="468.751" y="105.386" fill="#231F20" width="4.51" height="1.777"/>
						<rect x="475.468" y="105.386" fill="#231F20" width="4.51" height="1.777"/>
					</g>
				</g>
				<g>
					<g>
						<rect x="482.186" y="105.386" fill="#231F20" width="4.511" height="1.777"/>
						<rect x="488.903" y="105.386" fill="#231F20" width="4.511" height="1.777"/>
						<rect x="495.621" y="105.386" fill="#231F20" width="4.51" height="1.777"/>
						<rect x="502.339" y="105.386" fill="#231F20" width="4.51" height="1.777"/>
						<rect x="509.056" y="105.386" fill="#231F20" width="4.511" height="1.777"/>
						<rect x="515.775" y="105.386" fill="#231F20" width="4.51" height="1.777"/>
						<rect x="522.491" y="105.386" fill="#231F20" width="4.51" height="1.777"/>
					</g>
				</g>
				<g>
					<g>
						<rect x="529.209" y="105.386" fill="#231F20" width="4.511" height="1.777"/>
						<rect x="535.927" y="105.386" fill="#231F20" width="4.511" height="1.777"/>
						<rect x="542.644" y="105.386" fill="#231F20" width="4.511" height="1.777"/>
						<rect x="549.362" y="105.386" fill="#231F20" width="4.51" height="1.777"/>
						<rect x="556.079" y="105.386" fill="#231F20" width="4.511" height="1.777"/>
						<rect x="562.798" y="105.386" fill="#231F20" width="4.51" height="1.777"/>
						<rect x="569.515" y="105.386" fill="#231F20" width="4.509" height="1.777"/>
					</g>
				</g>
				<g>
					<g>
						<rect x="576.232" y="105.386" fill="#231F20" width="4.511" height="1.777"/>
						<rect x="582.95" y="105.386" fill="#231F20" width="4.511" height="1.777"/>
						<rect x="589.667" y="105.386" fill="#231F20" width="4.511" height="1.777"/>
						<rect x="596.386" y="105.386" fill="#231F20" width="4.51" height="1.777"/>
						<rect x="603.103" y="105.386" fill="#231F20" width="4.51" height="1.777"/>
						<rect x="609.821" y="105.386" fill="#231F20" width="4.51" height="1.777"/>
						<rect x="616.538" y="105.386" fill="#231F20" width="4.51" height="1.777"/>
					</g>
				</g>
				<g>
					<g>
						<rect x="623.256" y="105.386" fill="#231F20" width="4.51" height="1.777"/>
						<rect x="629.973" y="105.386" fill="#231F20" width="4.511" height="1.777"/>
						<rect x="636.69" y="105.386" fill="#231F20" width="4.511" height="1.777"/>
						<rect x="643.409" y="105.386" fill="#231F20" width="4.51" height="1.777"/>
						<rect x="650.125" y="105.386" fill="#231F20" width="4.511" height="1.777"/>
						<rect x="656.845" y="105.386" fill="#231F20" width="4.51" height="1.777"/>
						<rect x="663.561" y="105.386" fill="#231F20" width="4.51" height="1.777"/>
					</g>
				</g>
				<g>
					<g>
						<rect x="670.279" y="105.386" fill="#231F20" width="4.511" height="1.777"/>
						<rect x="676.997" y="105.386" fill="#231F20" width="4.51" height="1.777"/>
						<rect x="683.713" y="105.386" fill="#231F20" width="4.511" height="1.777"/>
						<rect x="690.432" y="105.386" fill="#231F20" width="4.51" height="1.777"/>
						<rect x="697.148" y="105.386" fill="#231F20" width="4.511" height="1.777"/>
						<rect x="703.868" y="105.386" fill="#231F20" width="4.51" height="1.777"/>
						<rect x="710.584" y="105.386" fill="#231F20" width="4.51" height="1.777"/>
					</g>
				</g>
				<g>
					<g>
						<rect x="717.302" y="105.386" fill="#231F20" width="4.511" height="1.777"/>
						<rect x="724.02" y="105.386" fill="#231F20" width="4.511" height="1.777"/>
						<rect x="730.736" y="105.386" fill="#231F20" width="4.511" height="1.777"/>
						<rect x="737.455" y="105.386" fill="#231F20" width="4.51" height="1.777"/>
						<rect x="744.172" y="105.386" fill="#231F20" width="4.511" height="1.777"/>
						<rect x="750.891" y="105.386" fill="#231F20" width="4.511" height="1.777"/>
						<rect x="757.607" y="105.386" fill="#231F20" width="4.51" height="1.777"/>
					</g>
				</g>
				<g>
					<g>
						<rect x="764.325" y="105.386" fill="#231F20" width="4.511" height="1.777"/>
						<rect x="771.043" y="105.386" fill="#231F20" width="4.511" height="1.777"/>
						<rect x="777.76" y="105.386" fill="#231F20" width="4.511" height="1.777"/>
						<rect x="784.479" y="105.386" fill="#231F20" width="4.51" height="1.777"/>
						<rect x="791.195" y="105.386" fill="#231F20" width="4.511" height="1.777"/>
						<rect x="797.914" y="105.386" fill="#231F20" width="4.511" height="1.777"/>
						<rect x="804.631" y="105.386" fill="#231F20" width="4.51" height="1.777"/>
					</g>
				</g>
				<g>
					<g>
						<rect x="811.349" y="105.386" fill="#231F20" width="4.511" height="1.777"/>
						<rect x="818.066" y="105.386" fill="#231F20" width="4.511" height="1.777"/>
						<rect x="824.783" y="105.386" fill="#231F20" width="4.511" height="1.777"/>
						<rect x="831.502" y="105.386" fill="#231F20" width="4.51" height="1.777"/>
						<rect x="838.219" y="105.386" fill="#231F20" width="4.511" height="1.777"/>
						<rect x="844.938" y="105.386" fill="#231F20" width="4.51" height="1.777"/>
						<rect x="851.654" y="105.386" fill="#231F20" width="4.509" height="1.777"/>
					</g>
				</g>
				<g>
					<g>
						<rect x="858.372" y="105.386" fill="#231F20" width="4.511" height="1.777"/>
						<rect x="865.089" y="105.386" fill="#231F20" width="4.511" height="1.777"/>
						<rect x="871.807" y="105.386" fill="#231F20" width="4.511" height="1.777"/>
						<rect x="878.525" y="105.386" fill="#231F20" width="4.51" height="1.777"/>
						<rect x="885.242" y="105.386" fill="#231F20" width="4.51" height="1.777"/>
						<rect x="891.961" y="105.386" fill="#231F20" width="4.51" height="1.777"/>
						<rect x="898.677" y="105.386" fill="#231F20" width="4.51" height="1.777"/>
					</g>
				</g>
				<g>
					<g>
						<rect x="905.396" y="105.386" fill="#231F20" width="4.51" height="1.777"/>
						<rect x="912.112" y="105.386" fill="#231F20" width="4.511" height="1.777"/>
						<rect x="918.829" y="105.386" fill="#231F20" width="4.511" height="1.777"/>
						<rect x="925.549" y="105.386" fill="#231F20" width="4.51" height="1.777"/>
						<rect x="932.265" y="105.386" fill="#231F20" width="4.511" height="1.777"/>
						<rect x="938.983" y="105.386" fill="#231F20" width="4.511" height="1.777"/>
						<rect x="945.7" y="105.386" fill="#231F20" width="4.51" height="1.777"/>
					</g>
				</g>
				<g>
					<g>
						<rect x="952.418" y="105.386" fill="#231F20" width="4.511" height="1.777"/>
						<rect x="959.136" y="105.386" fill="#231F20" width="4.511" height="1.777"/>
						<rect x="965.853" y="105.386" fill="#231F20" width="4.511" height="1.777"/>
						<rect x="972.571" y="105.386" fill="#231F20" width="4.51" height="1.777"/>
						<rect x="979.288" y="105.386" fill="#231F20" width="4.511" height="1.777"/>
						<rect x="986.007" y="105.386" fill="#231F20" width="4.511" height="1.777"/>
						<rect x="992.724" y="105.386" fill="#231F20" width="4.51" height="1.777"/>
					</g>
				</g>
				<g>
					<g>
						<rect x="999.441" y="105.386" fill="#231F20" width="4.511" height="1.777"/>
						<rect x="1006.159" y="105.386" fill="#231F20" width="4.511" height="1.777"/>
						<rect x="1012.876" y="105.386" fill="#231F20" width="4.511" height="1.777"/>
						<rect x="1019.595" y="105.386" fill="#231F20" width="4.51" height="1.777"/>
						<rect x="1026.312" y="105.386" fill="#231F20" width="4.511" height="1.777"/>
						<rect x="1033.03" y="105.386" fill="#231F20" width="4.51" height="1.777"/>
						<rect x="1039.747" y="105.386" fill="#231F20" width="4.51" height="1.777"/>
					</g>
				</g>
				<g>
					<g>
						<rect x="1046.465" y="105.386" fill="#231F20" width="4.511" height="1.777"/>
						<rect x="1053.183" y="105.386" fill="#231F20" width="4.51" height="1.777"/>
						<rect x="1059.899" y="105.386" fill="#231F20" width="4.511" height="1.777"/>
						<rect x="1066.618" y="105.386" fill="#231F20" width="4.51" height="1.777"/>
						<rect x="1073.335" y="105.386" fill="#231F20" width="4.511" height="1.777"/>
						<rect x="1080.054" y="105.386" fill="#231F20" width="4.51" height="1.777"/>
						<rect x="1086.771" y="105.386" fill="#231F20" width="4.51" height="1.777"/>
					</g>
				</g>
				<g>
					<g>
						<rect x="1093.488" y="105.386" fill="#231F20" width="4.511" height="1.777"/>
						<rect x="1100.206" y="105.386" fill="#231F20" width="4.51" height="1.777"/>
						<rect x="1106.923" y="105.386" fill="#231F20" width="4.51" height="1.777"/>
						<rect x="1113.642" y="105.386" fill="#231F20" width="4.51" height="1.777"/>
						<rect x="1120.358" y="105.386" fill="#231F20" width="4.51" height="1.777"/>
						<rect x="1127.077" y="105.386" fill="#231F20" width="4.51" height="1.777"/>
						<rect x="1133.793" y="105.386" fill="#231F20" width="4.51" height="1.777"/>
					</g>
				</g>
				<g>
					<g>
						<rect x="1140.512" y="105.386" fill="#231F20" width="4.511" height="1.777"/>
						<rect x="1147.229" y="105.386" fill="#231F20" width="4.511" height="1.777"/>
						<rect x="1153.946" y="105.386" fill="#231F20" width="4.51" height="1.777"/>
						<rect x="1160.665" y="105.386" fill="#231F20" width="4.51" height="1.777"/>
						<rect x="1167.381" y="105.386" fill="#231F20" width="4.511" height="1.777"/>
						<rect x="1174.101" y="105.386" fill="#231F20" width="4.51" height="1.777"/>
						<rect x="1180.816" y="105.386" fill="#231F20" width="4.51" height="1.777"/>
					</g>
				</g>
				<g>
					<g>
						<rect x="1187.534" y="105.386" fill="#231F20" width="4.511" height="1.777"/>
						<rect x="1194.252" y="105.386" fill="#231F20" width="4.511" height="1.777"/>
						<rect x="1200.969" y="105.386" fill="#231F20" width="4.511" height="1.777"/>
						<rect x="1207.688" y="105.386" fill="#231F20" width="4.509" height="1.777"/>
						<rect x="1214.404" y="105.386" fill="#231F20" width="4.511" height="1.777"/>
						<rect x="1221.123" y="105.386" fill="#231F20" width="4.511" height="1.777"/>
						<rect x="1227.84" y="105.386" fill="#231F20" width="4.51" height="1.777"/>
					</g>
				</g>
				<g>
					<g>
						<rect x="1234.558" y="105.386" fill="#231F20" width="4.511" height="1.777"/>
						<rect x="1241.275" y="105.386" fill="#231F20" width="4.511" height="1.777"/>
						<rect x="1247.992" y="105.386" fill="#231F20" width="4.511" height="1.777"/>
						<rect x="1254.711" y="105.386" fill="#231F20" width="4.51" height="1.777"/>
						<rect x="1261.428" y="105.386" fill="#231F20" width="4.511" height="1.777"/>
						<rect x="1268.146" y="105.386" fill="#231F20" width="4.511" height="1.777"/>
						<rect x="1274.863" y="105.386" fill="#231F20" width="4.51" height="1.777"/>
					</g>
				</g>
			</g>
		</g>
	</g>
	<g>
		<g>
			<g>
				<g>
					<g>
						<rect x="1281.993" y="105.25" fill="#202020" width="1.777" height="4.305"/>
						<rect x="1281.993" y="111.66" fill="#202020" width="1.777" height="4.305"/>
						<rect x="1281.993" y="118.07" fill="#202020" width="1.777" height="4.305"/>
						<rect x="1281.993" y="124.482" fill="#202020" width="1.777" height="4.304"/>
						<rect x="1281.993" y="130.892" fill="#202020" width="1.777" height="4.305"/>
						<rect x="1281.993" y="137.304" fill="#202020" width="1.777" height="4.305"/>
						<rect x="1281.993" y="143.714" fill="#202020" width="1.777" height="4.304"/>
					</g>
				</g>
				<g>
					<g>
						<rect x="1281.993" y="150.125" fill="#202020" width="1.777" height="4.304"/>
						<rect x="1281.993" y="156.535" fill="#202020" width="1.777" height="4.305"/>
						<rect x="1281.993" y="162.945" fill="#202020" width="1.777" height="4.305"/>
						<rect x="1281.993" y="169.357" fill="#202020" width="1.777" height="4.303"/>
						<rect x="1281.993" y="175.767" fill="#202020" width="1.777" height="4.305"/>
						<rect x="1281.993" y="182.179" fill="#202020" width="1.777" height="4.304"/>
						<rect x="1281.993" y="188.588" fill="#202020" width="1.777" height="4.304"/>
					</g>
				</g>
			</g>
		</g>
	</g>
	<g>
		<g>
			<g>
				<g>
					<g>
						<rect x="106.087" y="7.539" fill="#202020" width="1.777" height="4.707"/>
						<rect x="106.087" y="14.549" fill="#202020" width="1.777" height="4.708"/>
						<rect x="106.087" y="21.559" fill="#202020" width="1.777" height="4.708"/>
						<rect x="106.087" y="28.571" fill="#202020" width="1.777" height="4.707"/>
						<rect x="106.087" y="35.581" fill="#202020" width="1.777" height="4.707"/>
						<rect x="106.087" y="42.592" fill="#202020" width="1.777" height="4.707"/>
						<rect x="106.087" y="49.602" fill="#202020" width="1.777" height="4.706"/>
					</g>
				</g>
				<g>
					<g>
						<rect x="106.087" y="56.612" fill="#202020" width="1.777" height="4.707"/>
						<rect x="106.087" y="63.623" fill="#202020" width="1.777" height="4.708"/>
						<rect x="106.087" y="70.632" fill="#202020" width="1.777" height="4.708"/>
						<rect x="106.087" y="77.644" fill="#202020" width="1.777" height="4.707"/>
						<rect x="106.087" y="84.654" fill="#202020" width="1.777" height="4.707"/>
						<rect x="106.087" y="91.666" fill="#202020" width="1.777" height="4.707"/>
						<rect x="106.087" y="98.675" fill="#202020" width="1.777" height="4.706"/>
					</g>
				</g>
			</g>
		</g>
	</g>
</g>
</svg>
