<?xml version="1.0" encoding="utf-8"?>
<!-- Generator: Adobe Illustrator 16.0.0, SVG Export Plug-In . SVG Version: 6.00 Build 0)  -->
<!DOCTYPE svg PUBLIC "-//W3C//DTD SVG 1.1//EN" "http://www.w3.org/Graphics/SVG/1.1/DTD/svg11.dtd">
<svg version="1.1" id="Layer_1" xmlns="http://www.w3.org/2000/svg" xmlns:xlink="http://www.w3.org/1999/xlink" x="0px" y="0px"
	 width="1400px" height="200px" viewBox="0 0 1400 200" enable-background="new 0 0 1400 200" xml:space="preserve">
<g>
	<g>
		<g>
			<g>
				<g>
					<g>
						<rect x="1277.403" y="105.337" fill="#231F20" width="4.503" height="1.777"/>
						<rect x="1270.697" y="105.337" fill="#231F20" width="4.503" height="1.777"/>
						<rect x="1263.992" y="105.337" fill="#231F20" width="4.502" height="1.777"/>
						<rect x="1257.285" y="105.337" fill="#231F20" width="4.502" height="1.777"/>
						<rect x="1250.579" y="105.337" fill="#231F20" width="4.503" height="1.777"/>
						<rect x="1243.872" y="105.337" fill="#231F20" width="4.503" height="1.777"/>
						<rect x="1237.168" y="105.337" fill="#231F20" width="4.502" height="1.777"/>
					</g>
				</g>
				<g>
					<g>
						<rect x="1230.46" y="105.337" fill="#231F20" width="4.503" height="1.777"/>
						<rect x="1223.754" y="105.337" fill="#231F20" width="4.503" height="1.777"/>
						<rect x="1217.049" y="105.337" fill="#231F20" width="4.502" height="1.777"/>
						<rect x="1210.342" y="105.337" fill="#231F20" width="4.502" height="1.777"/>
						<rect x="1203.636" y="105.337" fill="#231F20" width="4.503" height="1.777"/>
						<rect x="1196.929" y="105.337" fill="#231F20" width="4.503" height="1.777"/>
						<rect x="1190.225" y="105.337" fill="#231F20" width="4.502" height="1.777"/>
					</g>
				</g>
				<g>
					<g>
						<rect x="1183.517" y="105.337" fill="#231F20" width="4.503" height="1.777"/>
						<rect x="1176.811" y="105.337" fill="#231F20" width="4.503" height="1.777"/>
						<rect x="1170.105" y="105.337" fill="#231F20" width="4.502" height="1.777"/>
						<rect x="1163.398" y="105.337" fill="#231F20" width="4.502" height="1.777"/>
						<rect x="1156.692" y="105.337" fill="#231F20" width="4.503" height="1.777"/>
						<rect x="1149.985" y="105.337" fill="#231F20" width="4.503" height="1.777"/>
						<rect x="1143.281" y="105.337" fill="#231F20" width="4.502" height="1.777"/>
					</g>
				</g>
				<g>
					<g>
						<rect x="1136.573" y="105.337" fill="#231F20" width="4.503" height="1.777"/>
						<rect x="1129.867" y="105.337" fill="#231F20" width="4.503" height="1.777"/>
						<rect x="1123.162" y="105.337" fill="#231F20" width="4.502" height="1.777"/>
						<rect x="1116.455" y="105.337" fill="#231F20" width="4.502" height="1.777"/>
						<rect x="1109.749" y="105.337" fill="#231F20" width="4.503" height="1.777"/>
						<rect x="1103.042" y="105.337" fill="#231F20" width="4.503" height="1.777"/>
						<rect x="1096.338" y="105.337" fill="#231F20" width="4.502" height="1.777"/>
					</g>
				</g>
				<g>
					<g>
						<rect x="1089.63" y="105.337" fill="#231F20" width="4.503" height="1.777"/>
						<rect x="1082.924" y="105.337" fill="#231F20" width="4.503" height="1.777"/>
						<rect x="1076.219" y="105.337" fill="#231F20" width="4.503" height="1.777"/>
						<rect x="1069.512" y="105.337" fill="#231F20" width="4.502" height="1.777"/>
						<rect x="1062.806" y="105.337" fill="#231F20" width="4.503" height="1.777"/>
						<rect x="1056.099" y="105.337" fill="#231F20" width="4.503" height="1.777"/>
						<rect x="1049.395" y="105.337" fill="#231F20" width="4.502" height="1.777"/>
					</g>
				</g>
				<g>
					<g>
						<rect x="1042.687" y="105.337" fill="#231F20" width="4.503" height="1.777"/>
						<rect x="1035.98" y="105.337" fill="#231F20" width="4.503" height="1.777"/>
						<rect x="1029.275" y="105.337" fill="#231F20" width="4.503" height="1.777"/>
						<rect x="1022.568" y="105.337" fill="#231F20" width="4.502" height="1.777"/>
						<rect x="1015.862" y="105.337" fill="#231F20" width="4.503" height="1.777"/>
						<rect x="1009.155" y="105.337" fill="#231F20" width="4.503" height="1.777"/>
						<rect x="1002.451" y="105.337" fill="#231F20" width="4.502" height="1.777"/>
					</g>
				</g>
				<g>
					<g>
						<rect x="995.743" y="105.337" fill="#231F20" width="4.503" height="1.777"/>
						<rect x="989.037" y="105.337" fill="#231F20" width="4.503" height="1.777"/>
						<rect x="982.332" y="105.337" fill="#231F20" width="4.503" height="1.777"/>
						<rect x="975.625" y="105.337" fill="#231F20" width="4.502" height="1.777"/>
						<rect x="968.919" y="105.337" fill="#231F20" width="4.503" height="1.777"/>
						<rect x="962.212" y="105.337" fill="#231F20" width="4.503" height="1.777"/>
						<rect x="955.508" y="105.337" fill="#231F20" width="4.502" height="1.777"/>
					</g>
				</g>
				<g>
					<g>
						<rect x="948.8" y="105.337" fill="#231F20" width="4.503" height="1.777"/>
						<rect x="942.094" y="105.337" fill="#231F20" width="4.503" height="1.777"/>
						<rect x="935.389" y="105.337" fill="#231F20" width="4.503" height="1.777"/>
						<rect x="928.682" y="105.337" fill="#231F20" width="4.502" height="1.777"/>
						<rect x="921.976" y="105.337" fill="#231F20" width="4.503" height="1.777"/>
						<rect x="915.269" y="105.337" fill="#231F20" width="4.503" height="1.777"/>
						<rect x="908.564" y="105.337" fill="#231F20" width="4.502" height="1.777"/>
					</g>
				</g>
				<g>
					<g>
						<rect x="901.856" y="105.337" fill="#231F20" width="4.503" height="1.777"/>
						<rect x="895.15" y="105.337" fill="#231F20" width="4.503" height="1.777"/>
						<rect x="888.445" y="105.337" fill="#231F20" width="4.503" height="1.777"/>
						<rect x="881.738" y="105.337" fill="#231F20" width="4.502" height="1.777"/>
						<rect x="875.032" y="105.337" fill="#231F20" width="4.503" height="1.777"/>
						<rect x="868.325" y="105.337" fill="#231F20" width="4.503" height="1.777"/>
						<rect x="861.621" y="105.337" fill="#231F20" width="4.502" height="1.777"/>
					</g>
				</g>
				<g>
					<g>
						<rect x="854.913" y="105.337" fill="#231F20" width="4.503" height="1.777"/>
						<rect x="848.207" y="105.337" fill="#231F20" width="4.503" height="1.777"/>
						<rect x="841.502" y="105.337" fill="#231F20" width="4.503" height="1.777"/>
						<rect x="834.795" y="105.337" fill="#231F20" width="4.502" height="1.777"/>
						<rect x="828.089" y="105.337" fill="#231F20" width="4.503" height="1.777"/>
						<rect x="821.382" y="105.337" fill="#231F20" width="4.503" height="1.777"/>
						<rect x="814.678" y="105.337" fill="#231F20" width="4.502" height="1.777"/>
					</g>
				</g>
				<g>
					<g>
						<rect x="807.97" y="105.337" fill="#231F20" width="4.503" height="1.777"/>
						<rect x="801.264" y="105.337" fill="#231F20" width="4.503" height="1.777"/>
						<rect x="794.559" y="105.337" fill="#231F20" width="4.503" height="1.777"/>
						<rect x="787.852" y="105.337" fill="#231F20" width="4.502" height="1.777"/>
						<rect x="781.146" y="105.337" fill="#231F20" width="4.503" height="1.777"/>
						<rect x="774.438" y="105.337" fill="#231F20" width="4.503" height="1.777"/>
						<rect x="767.734" y="105.337" fill="#231F20" width="4.502" height="1.777"/>
					</g>
				</g>
				<g>
					<g>
						<rect x="761.026" y="105.337" fill="#231F20" width="4.503" height="1.777"/>
						<rect x="754.32" y="105.337" fill="#231F20" width="4.503" height="1.777"/>
						<rect x="747.615" y="105.337" fill="#231F20" width="4.503" height="1.777"/>
						<rect x="740.908" y="105.337" fill="#231F20" width="4.502" height="1.777"/>
						<rect x="734.202" y="105.337" fill="#231F20" width="4.503" height="1.777"/>
						<rect x="727.495" y="105.337" fill="#231F20" width="4.503" height="1.777"/>
						<rect x="720.791" y="105.337" fill="#231F20" width="4.502" height="1.777"/>
					</g>
				</g>
				<g>
					<g>
						<rect x="714.083" y="105.337" fill="#231F20" width="4.503" height="1.777"/>
						<rect x="707.377" y="105.337" fill="#231F20" width="4.503" height="1.777"/>
						<rect x="700.671" y="105.337" fill="#231F20" width="4.503" height="1.777"/>
						<rect x="693.965" y="105.337" fill="#231F20" width="4.502" height="1.777"/>
						<rect x="687.259" y="105.337" fill="#231F20" width="4.503" height="1.777"/>
						<rect x="680.552" y="105.337" fill="#231F20" width="4.503" height="1.777"/>
						<rect x="673.848" y="105.337" fill="#231F20" width="4.502" height="1.777"/>
					</g>
				</g>
				<g>
					<g>
						<rect x="667.14" y="105.337" fill="#231F20" width="4.503" height="1.777"/>
						<rect x="660.434" y="105.337" fill="#231F20" width="4.503" height="1.777"/>
						<rect x="653.729" y="105.337" fill="#231F20" width="4.503" height="1.777"/>
						<rect x="647.021" y="105.337" fill="#231F20" width="4.502" height="1.777"/>
						<rect x="640.315" y="105.337" fill="#231F20" width="4.503" height="1.777"/>
						<rect x="633.608" y="105.337" fill="#231F20" width="4.503" height="1.777"/>
						<rect x="626.904" y="105.337" fill="#231F20" width="4.502" height="1.777"/>
					</g>
				</g>
				<g>
					<g>
						<rect x="620.196" y="105.337" fill="#231F20" width="4.503" height="1.777"/>
						<rect x="613.49" y="105.337" fill="#231F20" width="4.503" height="1.777"/>
						<rect x="606.785" y="105.337" fill="#231F20" width="4.503" height="1.777"/>
						<rect x="600.078" y="105.337" fill="#231F20" width="4.502" height="1.777"/>
						<rect x="593.372" y="105.337" fill="#231F20" width="4.503" height="1.777"/>
						<rect x="586.665" y="105.337" fill="#231F20" width="4.503" height="1.777"/>
						<rect x="579.961" y="105.337" fill="#231F20" width="4.502" height="1.777"/>
					</g>
				</g>
				<g>
					<g>
						<rect x="573.253" y="105.337" fill="#231F20" width="4.503" height="1.777"/>
						<rect x="566.547" y="105.337" fill="#231F20" width="4.503" height="1.777"/>
						<rect x="559.842" y="105.337" fill="#231F20" width="4.503" height="1.777"/>
						<rect x="553.135" y="105.337" fill="#231F20" width="4.502" height="1.777"/>
						<rect x="546.429" y="105.337" fill="#231F20" width="4.503" height="1.777"/>
						<rect x="539.722" y="105.337" fill="#231F20" width="4.502" height="1.777"/>
						<rect x="533.018" y="105.337" fill="#231F20" width="4.502" height="1.777"/>
					</g>
				</g>
				<g>
					<g>
						<rect x="526.31" y="105.337" fill="#231F20" width="4.503" height="1.777"/>
						<rect x="519.604" y="105.337" fill="#231F20" width="4.503" height="1.777"/>
						<rect x="512.898" y="105.337" fill="#231F20" width="4.503" height="1.777"/>
						<rect x="506.192" y="105.337" fill="#231F20" width="4.502" height="1.777"/>
						<rect x="499.486" y="105.337" fill="#231F20" width="4.503" height="1.777"/>
						<rect x="492.779" y="105.337" fill="#231F20" width="4.502" height="1.777"/>
						<rect x="486.074" y="105.337" fill="#231F20" width="4.502" height="1.777"/>
					</g>
				</g>
				<g>
					<g>
						<rect x="479.367" y="105.337" fill="#231F20" width="4.503" height="1.777"/>
						<rect x="472.661" y="105.337" fill="#231F20" width="4.503" height="1.777"/>
						<rect x="465.955" y="105.337" fill="#231F20" width="4.503" height="1.777"/>
						<rect x="459.249" y="105.337" fill="#231F20" width="4.502" height="1.777"/>
						<rect x="452.542" y="105.337" fill="#231F20" width="4.503" height="1.777"/>
						<rect x="445.835" y="105.337" fill="#231F20" width="4.502" height="1.777"/>
						<rect x="439.131" y="105.337" fill="#231F20" width="4.502" height="1.777"/>
					</g>
				</g>
				<g>
					<g>
						<rect x="432.423" y="105.337" fill="#231F20" width="4.503" height="1.777"/>
						<rect x="425.717" y="105.337" fill="#231F20" width="4.503" height="1.777"/>
						<rect x="419.012" y="105.337" fill="#231F20" width="4.503" height="1.777"/>
						<rect x="412.305" y="105.337" fill="#231F20" width="4.502" height="1.777"/>
						<rect x="405.599" y="105.337" fill="#231F20" width="4.503" height="1.777"/>
						<rect x="398.892" y="105.337" fill="#231F20" width="4.502" height="1.777"/>
						<rect x="392.188" y="105.337" fill="#231F20" width="4.502" height="1.777"/>
					</g>
				</g>
				<g>
					<g>
						<rect x="385.48" y="105.337" fill="#231F20" width="4.503" height="1.777"/>
						<rect x="378.774" y="105.337" fill="#231F20" width="4.503" height="1.777"/>
						<rect x="372.068" y="105.337" fill="#231F20" width="4.503" height="1.777"/>
						<rect x="365.362" y="105.337" fill="#231F20" width="4.502" height="1.777"/>
						<rect x="358.656" y="105.337" fill="#231F20" width="4.503" height="1.777"/>
						<rect x="351.949" y="105.337" fill="#231F20" width="4.502" height="1.777"/>
						<rect x="345.244" y="105.337" fill="#231F20" width="4.502" height="1.777"/>
					</g>
				</g>
				<g>
					<g>
						<rect x="338.537" y="105.337" fill="#231F20" width="4.503" height="1.777"/>
						<rect x="331.831" y="105.337" fill="#231F20" width="4.503" height="1.777"/>
						<rect x="325.125" y="105.337" fill="#231F20" width="4.503" height="1.777"/>
						<rect x="318.418" y="105.337" fill="#231F20" width="4.502" height="1.777"/>
						<rect x="311.712" y="105.337" fill="#231F20" width="4.503" height="1.777"/>
						<rect x="305.005" y="105.337" fill="#231F20" width="4.502" height="1.777"/>
						<rect x="298.301" y="105.337" fill="#231F20" width="4.502" height="1.777"/>
					</g>
				</g>
				<g>
					<g>
						<rect x="291.593" y="105.337" fill="#231F20" width="4.503" height="1.777"/>
						<rect x="284.887" y="105.337" fill="#231F20" width="4.503" height="1.777"/>
						<rect x="278.182" y="105.337" fill="#231F20" width="4.503" height="1.777"/>
						<rect x="271.475" y="105.337" fill="#231F20" width="4.502" height="1.777"/>
						<rect x="264.769" y="105.337" fill="#231F20" width="4.503" height="1.777"/>
						<rect x="258.062" y="105.337" fill="#231F20" width="4.502" height="1.777"/>
						<rect x="251.357" y="105.337" fill="#231F20" width="4.502" height="1.777"/>
					</g>
				</g>
				<g>
					<g>
						<rect x="244.65" y="105.337" fill="#231F20" width="4.503" height="1.777"/>
						<rect x="237.944" y="105.337" fill="#231F20" width="4.503" height="1.777"/>
						<rect x="231.238" y="105.337" fill="#231F20" width="4.503" height="1.777"/>
						<rect x="224.532" y="105.337" fill="#231F20" width="4.502" height="1.777"/>
						<rect x="217.826" y="105.337" fill="#231F20" width="4.503" height="1.777"/>
						<rect x="211.119" y="105.337" fill="#231F20" width="4.502" height="1.777"/>
						<rect x="204.414" y="105.337" fill="#231F20" width="4.502" height="1.777"/>
					</g>
				</g>
				<g>
					<g>
						<rect x="197.707" y="105.337" fill="#231F20" width="4.503" height="1.777"/>
						<rect x="191" y="105.337" fill="#231F20" width="4.503" height="1.777"/>
						<rect x="184.295" y="105.337" fill="#231F20" width="4.503" height="1.777"/>
						<rect x="177.588" y="105.337" fill="#231F20" width="4.502" height="1.777"/>
						<rect x="170.882" y="105.337" fill="#231F20" width="4.503" height="1.777"/>
						<rect x="164.175" y="105.337" fill="#231F20" width="4.502" height="1.777"/>
						<rect x="157.471" y="105.337" fill="#231F20" width="4.502" height="1.777"/>
					</g>
				</g>
				<g>
					<g>
						<rect x="150.763" y="105.337" fill="#231F20" width="4.503" height="1.777"/>
						<rect x="144.057" y="105.337" fill="#231F20" width="4.503" height="1.777"/>
						<rect x="137.352" y="105.337" fill="#231F20" width="4.503" height="1.777"/>
						<rect x="130.645" y="105.337" fill="#231F20" width="4.502" height="1.777"/>
						<rect x="123.939" y="105.337" fill="#231F20" width="4.503" height="1.777"/>
						<rect x="117.232" y="105.337" fill="#231F20" width="4.502" height="1.777"/>
						<rect x="110.527" y="105.337" fill="#231F20" width="4.502" height="1.777"/>
					</g>
				</g>
			</g>
		</g>
	</g>
	<g>
		<g>
			<g>
				<g>
					<g>
						<rect x="106.087" y="105.25" fill="#202020" width="1.777" height="4.305"/>
						<rect x="106.087" y="111.66" fill="#202020" width="1.777" height="4.305"/>
						<rect x="106.087" y="118.07" fill="#202020" width="1.777" height="4.305"/>
						<rect x="106.087" y="124.482" fill="#202020" width="1.777" height="4.304"/>
						<rect x="106.087" y="130.892" fill="#202020" width="1.777" height="4.305"/>
						<rect x="106.087" y="137.304" fill="#202020" width="1.777" height="4.305"/>
						<rect x="106.087" y="143.714" fill="#202020" width="1.777" height="4.304"/>
					</g>
				</g>
				<g>
					<g>
						<rect x="106.087" y="150.125" fill="#202020" width="1.777" height="4.304"/>
						<rect x="106.087" y="156.535" fill="#202020" width="1.777" height="4.305"/>
						<rect x="106.087" y="162.945" fill="#202020" width="1.777" height="4.305"/>
						<rect x="106.087" y="169.357" fill="#202020" width="1.777" height="4.303"/>
						<rect x="106.087" y="175.767" fill="#202020" width="1.777" height="4.305"/>
						<rect x="106.087" y="182.179" fill="#202020" width="1.777" height="4.304"/>
						<rect x="106.087" y="188.588" fill="#202020" width="1.777" height="4.304"/>
					</g>
				</g>
			</g>
		</g>
	</g>
	<g>
		<g>
			<g>
				<g>
					<g>
						<rect x="1279.995" y="7.539" fill="#202020" width="1.777" height="4.707"/>
						<rect x="1279.995" y="14.549" fill="#202020" width="1.777" height="4.708"/>
						<rect x="1279.995" y="21.559" fill="#202020" width="1.777" height="4.708"/>
						<rect x="1279.995" y="28.571" fill="#202020" width="1.777" height="4.707"/>
						<rect x="1279.995" y="35.581" fill="#202020" width="1.777" height="4.707"/>
						<rect x="1279.995" y="42.592" fill="#202020" width="1.777" height="4.707"/>
						<rect x="1279.995" y="49.602" fill="#202020" width="1.777" height="4.706"/>
					</g>
				</g>
				<g>
					<g>
						<rect x="1279.995" y="56.612" fill="#202020" width="1.777" height="4.707"/>
						<rect x="1279.995" y="63.623" fill="#202020" width="1.777" height="4.708"/>
						<rect x="1279.995" y="70.632" fill="#202020" width="1.777" height="4.708"/>
						<rect x="1279.995" y="77.644" fill="#202020" width="1.777" height="4.707"/>
						<rect x="1279.995" y="84.654" fill="#202020" width="1.777" height="4.707"/>
						<rect x="1279.995" y="91.666" fill="#202020" width="1.777" height="4.707"/>
						<rect x="1279.995" y="98.675" fill="#202020" width="1.777" height="4.706"/>
					</g>
				</g>
			</g>
		</g>
	</g>
</g>
</svg>
