<?xml version="1.0" encoding="utf-8"?>
<!-- Generator: Adobe Illustrator 16.0.0, SVG Export Plug-In . SVG Version: 6.00 Build 0)  -->
<!DOCTYPE svg PUBLIC "-//W3C//DTD SVG 1.1//EN" "http://www.w3.org/Graphics/SVG/1.1/DTD/svg11.dtd">
<svg version="1.1" id="Layer_1" xmlns="http://www.w3.org/2000/svg" xmlns:xlink="http://www.w3.org/1999/xlink" x="0px" y="0px"
	 width="1700px" height="407.687px" viewBox="0 292.313 1700 407.687" enable-background="new 0 292.313 1700 407.687"
	 xml:space="preserve">
<g>
	<g>
		<defs>
			<rect id="SVGID_1_" y="292.313" width="1700" height="408.687"/>
		</defs>
		<clipPath id="SVGID_2_">
			<use xlink:href="#SVGID_1_"  overflow="visible"/>
		</clipPath>
		<path clip-path="url(#SVGID_2_)" fill="#FFFFFF" d="M1938.845,659.342c0,0-111.444,11.554-133.052-38.316
			c-7.979-40.827-142.939-24.383-157.748-20.953c-149.937,27.731-225.942,16.104-263.668,3.609
			c-100.544-26.804-204.892-14.149-247.587,3.71c-104.9,41.584-242.946,12.41-254.853,9.054
			c-11.904-3.354-105.495-19.521-192.353-3.48c-86.854,16.039-244.654,47.511-362.564,51.602
			c-117.908,4.091-346.416-0.717-346.416-0.717L82.851,899.864L1974.14,740.825L1938.845,659.342z"/>
	</g>
</g>
</svg>
