<?xml version="1.0" encoding="utf-8"?>
<!-- Generator: Adobe Illustrator 16.0.0, SVG Export Plug-In . SVG Version: 6.00 Build 0)  -->
<!DOCTYPE svg PUBLIC "-//W3C//DTD SVG 1.1//EN" "http://www.w3.org/Graphics/SVG/1.1/DTD/svg11.dtd">
<svg version="1.1" id="Layer_1" xmlns="http://www.w3.org/2000/svg" xmlns:xlink="http://www.w3.org/1999/xlink" x="0px" y="0px"
	 width="1700px" height="700px" viewBox="0 0 1700 700" enable-background="new 0 0 1700 700" xml:space="preserve">
<g>
	<defs>
		<rect id="SVGID_1_" y="16.286" width="1700" height="684.714"/>
	</defs>
	<clipPath id="SVGID_2_">
		<use xlink:href="#SVGID_1_"  overflow="visible"/>
	</clipPath>
	<path clip-path="url(#SVGID_2_)" fill="#FFFFFF" d="M2052.316,492.825c0,0-118.261,34.983-147.683-71.707
		c-13.66-88.193-156.569-40.491-172.046-31.715C1575,463,1491.912,444.388,1449.834,420.5C1338.5,371,1228,407.75,1184.366,450.404
		c-107.488,99.796-259.398,48.437-272.602,42.182c-13.203-6.256-115.744-33.208-207.038,9.375
		c-91.29,42.583-256.859,125.018-382.996,144.32c-126.132,19.3-372.169,28.974-372.169,28.974l139.235,504.903l2011.584-513.02
		L2052.316,492.825z"/>
</g>
</svg>
