<?xml version="1.0" encoding="utf-8"?>
<!-- Generator: Adobe Illustrator 22.1.0, SVG Export Plug-In . SVG Version: 6.00 Build 0)  -->
<svg version="1.1" id="Layer_1" xmlns="http://www.w3.org/2000/svg" xmlns:xlink="http://www.w3.org/1999/xlink" x="0px" y="0px"
	 viewBox="0 0 425 374" style="enable-background:new 0 0 425 374;" xml:space="preserve">
<style type="text/css">
	.st0{fill:#C0D9E3;}
	.st1{fill:#6BA7BD;}
	.st2{fill:url(#SVGID_1_);}
	.st3{fill:url(#SVGID_2_);}
	.st4{fill:url(#SVGID_3_);}
	.st5{fill:url(#SVGID_4_);}
	.st6{fill:url(#SVGID_5_);}
	.st7{fill:url(#SVGID_6_);}
	.st8{fill:url(#SVGID_7_);}
	.st9{fill:#FFA726;}
	.st10{fill:#5D4037;}
	.st11{fill:#192C55;}
	.st12{fill:url(#SVGID_8_);}
	.st13{fill:url(#SVGID_9_);}
	.st14{fill:url(#SVGID_10_);}
	.st15{fill:url(#SVGID_11_);}
	.st16{fill:url(#SVGID_12_);}
	.st17{fill:url(#SVGID_13_);}
	.st18{fill:url(#SVGID_14_);}
	.st19{fill:url(#SVGID_15_);}
	.st20{fill:url(#SVGID_16_);}
	.st21{fill:url(#SVGID_17_);}
	.st22{fill:#EEEBD4;}
	.st23{fill:#CCCBC4;}
	.st24{fill:#C5C4BB;}
	.st25{fill:#C0AFAE;}
	.st26{fill:#D6D5CA;}
	.st27{fill:#FFFFFF;}
	.st28{fill:#00ACC1;}
	.st29{fill:#00838F;}
	.st30{fill:#005077;}
	.st31{fill:#D3C0BE;}
</style>
<g>
	<path class="st0" d="M100.3,205.2c0,0-85,5.5-92,38c-27,104,290.5,119.7,370,49s46.8-284.7-125-281c-26.5,1-89,33-104,118
		S105.3,201.2,100.3,205.2z"/>
	<path class="st1" d="M142.3,364.7c0,0-115-30-63-216s117-142.5,124-129c7,13.6-19.5,89.5,29.3,116.7c45.7,22.8,105.3,67.7,87.3,136
		C297.3,340.2,235.3,389,142.3,364.7z"/>
</g>
<g>
	<g>
		<g>
			<linearGradient id="SVGID_1_" gradientUnits="userSpaceOnUse" x1="232.3746" y1="143.9912" x2="246.7849" y2="143.9912">
				<stop  offset="0" style="stop-color:#FAE8DC"/>
				<stop  offset="1" style="stop-color:#FAB9AB;stop-opacity:0.9697"/>
			</linearGradient>
			<polygon class="st2" points="235.2,136.7 246.8,141.4 241.2,151.3 234.6,147.9 232.4,142.2 			"/>
			<g>
				<g>
					<linearGradient id="SVGID_2_" gradientUnits="userSpaceOnUse" x1="243.9478" y1="143.8556" x2="254.4362" y2="143.8556">
						<stop  offset="0" style="stop-color:#FAE8DC"/>
						<stop  offset="1" style="stop-color:#FAB9AB;stop-opacity:0.9697"/>
					</linearGradient>
					<path class="st3" d="M244.8,142.8c3.2,0.3,5.9,1.6,8.1,3.9c0.9,1,2.2-0.6,1.3-1.6c-2.4-2.5-5.6-4.1-9-4.4
						C243.8,140.6,243.5,142.6,244.8,142.8L244.8,142.8z"/>
				</g>
			</g>
			<g>
				<g>
					<linearGradient id="SVGID_3_" gradientUnits="userSpaceOnUse" x1="242.537" y1="147.3441" x2="254.6763" y2="147.3441">
						<stop  offset="0" style="stop-color:#FAE8DC"/>
						<stop  offset="1" style="stop-color:#FAB9AB;stop-opacity:0.9697"/>
					</linearGradient>
					<path class="st4" d="M243.4,145.8c3.8,0.3,7.1,1.9,9.7,4.7c0.9,0.9,2.2-0.6,1.3-1.6c-2.8-3-6.6-4.8-10.7-5.2
						C242.4,143.7,242.1,145.7,243.4,145.8L243.4,145.8z"/>
				</g>
			</g>
			<g>
				<g>
					<linearGradient id="SVGID_4_" gradientUnits="userSpaceOnUse" x1="239.5932" y1="149.7114" x2="251.733" y2="149.7114">
						<stop  offset="0" style="stop-color:#FAE8DC"/>
						<stop  offset="1" style="stop-color:#FAB9AB;stop-opacity:0.9697"/>
					</linearGradient>
					<path class="st5" d="M240.4,148.2c3.8,0.3,7.1,1.9,9.7,4.7c0.9,0.9,2.2-0.6,1.3-1.6c-2.9-3-6.6-4.8-10.7-5.2
						C239.5,146.1,239.1,148.1,240.4,148.2L240.4,148.2z"/>
				</g>
			</g>
			<g>
				<g>
					<linearGradient id="SVGID_5_" gradientUnits="userSpaceOnUse" x1="235.7439" y1="151.3323" x2="246.6875" y2="151.3323">
						<stop  offset="0" style="stop-color:#FAE8DC"/>
						<stop  offset="1" style="stop-color:#FAB9AB;stop-opacity:0.9697"/>
					</linearGradient>
					<path class="st6" d="M236.5,148.9c3.6,1.1,6.4,3.3,8.3,6.5c0.7,1.1,2.3-0.1,1.7-1.2c-2.2-3.6-5.6-6.1-9.7-7.3
						C235.6,146.5,235.3,148.5,236.5,148.9L236.5,148.9z"/>
				</g>
			</g>
		</g>
		<linearGradient id="SVGID_6_" gradientUnits="userSpaceOnUse" x1="196.9406" y1="103.3427" x2="185.4223" y2="133.3599">
			<stop  offset="0" style="stop-color:#FAE8DC"/>
			<stop  offset="1" style="stop-color:#FAB9AB;stop-opacity:0.9697"/>
		</linearGradient>
		<path class="st7" d="M235.2,136.7l-47.8-0.4l-17.1-44.4c-2.3-6.4-9.2-11.3-15.1-7.9l0,0c-5.1,2.9-5.2,10-2.5,15.2l24.2,52.9
			c0.9,2.2,55.8-9,55.8-9L235.2,136.7z"/>
	</g>
	<linearGradient id="SVGID_7_" gradientUnits="userSpaceOnUse" x1="201.0663" y1="360.5882" x2="173.1423" y2="205.6105">
		<stop  offset="0" style="stop-color:#4F8CA5"/>
		<stop  offset="1" style="stop-color:#192C55"/>
	</linearGradient>
	<path class="st8" d="M174.2,181.1c2.7,1,31,67.4,31,67.4l14.1,74.8l-7.4-2l-18.1-48.6v-21.2l-47.6-56.2L174.2,181.1z"/>
	<g>
		<g>
			<polygon class="st9" points="198.2,334.7 201.1,335 211.6,173.1 208.7,172.8 			"/>
			<polygon class="st9" points="303.1,334.7 300.3,335 289.8,173.1 292.6,172.8 			"/>
		</g>
		
			<rect x="186.8" y="167.4" transform="matrix(-1 -1.224647e-16 1.224647e-16 -1 501.3314 338.6935)" class="st9" width="127.7" height="3.9"/>
		
			<rect x="198.5" y="171.3" transform="matrix(-1 -1.224647e-16 1.224647e-16 -1 501.3314 346.5177)" class="st9" width="104.3" height="3.9"/>
		<g>
			<polygon class="st9" points="186.2,347.5 189.7,347.8 202.6,173.1 199.1,172.8 			"/>
			<polygon class="st9" points="315.1,347.5 311.6,347.8 298.7,173.1 302.2,172.8 			"/>
		</g>
	</g>
	<g>
		<g>
			<path class="st9" d="M115.5,337.3v2.8c0,4,14.1,7.2,31.5,7.2c17.4,0,31.5-3.2,31.5-7.2v-2.8c0-4-14.1-7.2-31.5-7.2
				C129.7,330.1,115.5,333.4,115.5,337.3z"/>
			<path class="st9" d="M115.5,337.3c0-4,14.1-7.2,31.5-7.2c3.1,0,6.2,0.1,9,0.3l-13.9,13.9C127.1,343.9,115.5,340.9,115.5,337.3z"
				/>
			<path class="st9" d="M178.6,337.3c0,4-14.1,7.2-31.5,7.2c-1.7,0-3.3,0-4.9-0.1l13.9-13.9C169.1,331.3,178.6,334.1,178.6,337.3z"
				/>
		</g>
		
			<rect x="145.9" y="195.4" transform="matrix(-1 -1.224647e-16 1.224647e-16 -1 294.9608 530.5298)" class="st9" width="3.3" height="139.7"/>
		<g>
			<path class="st9" d="M119.1,289.6c0-6.3,14.2-9.6,28.2-9.6c14,0,28.2,3.3,28.2,9.6c0,6.3-14.2,9.6-28.2,9.6
				C133.3,299.2,119.1,295.9,119.1,289.6z M122.1,289.6c0,2.7,9.8,6.6,25.3,6.6c15.4,0,25.3-3.9,25.3-6.6c0-2.7-9.8-6.6-25.3-6.6
				C131.9,283,122.1,286.9,122.1,289.6z"/>
		</g>
		<g>
			<path class="st10" d="M178.6,194.2v10c0,4-14.1,7.2-31.5,7.2c-17.4,0-31.5-3.2-31.5-7.2v-10H178.6z"/>
			<path class="st10" d="M115.5,194.2c0,4,14.1,7.2,31.5,7.2c17.4,0,31.5-3.2,31.5-7.2c0-4-14.1-7.2-31.5-7.2
				C129.7,187,115.5,190.2,115.5,194.2z"/>
		</g>
	</g>
	<path class="st11" d="M148.9,88.9c4,4.8,9.4,8.3,15.3,10c2.1,0.6,4.4,1,6.6,0.6c2.2-0.4,4.3-1.7,5.3-3.7c1-2,0.4-4.8-1.4-6
		c3.2-0.2,6.1-2.3,7.2-5.3c1.1-3,0.3-6.5-1.9-8.8c4.7,0.8,9.6-1.3,12.8-4.7c3.3-3.5,5-8.1,5.8-12.8c1.6-10.1-1.3-20.8-7.8-28.7
		c3.5-1.3,2.4-11.6-6.1-16.5c-6.3-3.7-14-4.6-21.3-4.3c-7.3,0.3-14.6,2.9-19.8,8c-7.6,7.6-9.4,19.5-7.1,30c0.8,3.4,1.7,7.3-0.6,9.9
		c-1.1,1.2-2.8,1.8-4.3,2.5c-1.5,0.7-3,1.9-3.3,3.6c-0.4,3.1,3.9,5.2,3.9,8.4c0,2.3-2.2,3.9-4.1,5.3c-1.9,1.4-3.7,3.7-2.7,5.8
		c0.8,1.7,2.9,2.1,4.6,2.6c1.7,0.5,3.7,2,3.3,3.7c-0.4,1.6-2.4,2.2-2.9,3.8c-0.6,1.8,1.2,3.6,3.1,3.8c1.9,0.1,3.6-0.9,5.2-1.8
		C141.8,92.5,145.8,90.7,148.9,88.9z"/>
	<g>
		<linearGradient id="SVGID_8_" gradientUnits="userSpaceOnUse" x1="152.1641" y1="141.236" x2="238.7266" y2="414.1867">
			<stop  offset="0" style="stop-color:#4F8CA5"/>
			<stop  offset="1" style="stop-color:#192C55"/>
		</linearGradient>
		<path class="st12" d="M136.4,168.4c-7.5,0.5-15.3-6.2-20.5-4.9c-3,0.8-4.6,6.5-4.5,8.8c0.2,6,0.7,13.9,4.2,18.5
			c9.6,12.8,87.8,22.6,87.8,22.6l-16.5,19.4l-18,51.9l5.4,4.9l50.8-86.2C225,203.4,156.7,167,136.4,168.4z"/>
		<polygon class="st11" points="177.2,301.2 173.5,291.2 167.3,285.4 159.2,289.8 180.6,312.8 181.3,309.6 		"/>
	</g>
	<linearGradient id="SVGID_9_" gradientUnits="userSpaceOnUse" x1="110.8789" y1="121.4541" x2="181.4401" y2="121.4541">
		<stop  offset="0" style="stop-color:#E2795A"/>
		<stop  offset="1" style="stop-color:#D81B60"/>
	</linearGradient>
	<path class="st13" d="M171,81.7c-3-4.6-4.3-13.1-10.3-13.8c-14.3-1.7-22.2,12.3-23.6,24.1c-0.9,7.8-1.5,15.5-2.2,23.3
		c-0.4,4.7-0.1,11.5-2.4,15.8c-4.1,7.5-14.2,24.2-20,33.8c-1.9,3.2-2.8,6.8,1,7.1l50.6,3.3c0,0,1.3-20.6,0-32
		c-0.9-8.1,2.5-13.1,4.8-20.7c1.1-3.5,1.4-5.3,4-8.3c2.5-2.8,7.2-6.1,8.1-10C183.1,96,175.5,88.5,171,81.7z"/>
	<g>
		<linearGradient id="SVGID_10_" gradientUnits="userSpaceOnUse" x1="151.5803" y1="53.0752" x2="186.132" y2="53.0752">
			<stop  offset="0" style="stop-color:#FAE8DC"/>
			<stop  offset="1" style="stop-color:#FAB9AB;stop-opacity:0.9697"/>
		</linearGradient>
		<path class="st14" d="M184,50c-1.8-1.5-2-4.2-1.6-6.4c0.5-2.3,1.5-4.4,1.8-6.7c0.3-2.3-0.3-5-2.3-6.1c0,0-14-2.6-17.2,7.1
			c-1.4,4.4-4.8,7.5-4.8,7.5c0.1-5.5-4.7-4.1-5.9-2.9c-1.2,1.2-1.4,3.2-0.6,4.7c0.8,1.5,2.4,2.6,4.1,2.4l-6.1,21
			c3.3,1.9,6.7,3.5,10,5.2c0.6-0.7,1.2-1.7,1.5-2.8c1.4-4.6,4.6-8.7,6-8.3c2.9,0.8,5.6,3.5,8.3,2.3c2.1-0.9,2.6-3.7,2.7-6
			c0.2-2.3,0.5-5,2.5-6.1c1.3-0.7,3.4-0.9,3.5-2.4C186.2,51.3,184.9,50.7,184,50z"/>
	</g>
	<linearGradient id="SVGID_11_" gradientUnits="userSpaceOnUse" x1="145.3213" y1="72.4451" x2="164.8961" y2="72.4451">
		<stop  offset="0" style="stop-color:#E2795A"/>
		<stop  offset="1" style="stop-color:#D81B60"/>
	</linearGradient>
	<path class="st15" d="M150.5,76.6c-1.4-0.1-3-0.3-4-1.3c-0.9-0.8-1.2-2.1-1.2-3.3c0-1.2,0.4-2.4,0.8-3.5c2.2-0.8,4.4-1.5,6.7-1.6
		c2.3-0.1,4.8,0.5,6.4,2.2c0.6,0.6,1,1.3,1.4,2c1.4,2.3,2.8,4.7,4.3,7C160.1,77.6,155.3,77.1,150.5,76.6z"/>
	<g>
		<g>
			<linearGradient id="SVGID_12_" gradientUnits="userSpaceOnUse" x1="215.3454" y1="152.0406" x2="229.7307" y2="152.0406">
				<stop  offset="0" style="stop-color:#FAE8DC"/>
				<stop  offset="1" style="stop-color:#FAB9AB;stop-opacity:0.9697"/>
			</linearGradient>
			<polygon class="st16" points="218.9,144.4 229.7,150.7 222.8,159.7 216.8,155.4 215.3,149.5 			"/>
			<g>
				<g>
					<linearGradient id="SVGID_13_" gradientUnits="userSpaceOnUse" x1="226.8491" y1="153.4177" x2="236.71" y2="153.4177">
						<stop  offset="0" style="stop-color:#FAE8DC"/>
						<stop  offset="1" style="stop-color:#FAB9AB;stop-opacity:0.9697"/>
					</linearGradient>
					<path class="st17" d="M227.6,151.7c3.1,0.7,5.6,2.4,7.4,5c0.8,1.1,2.3-0.3,1.5-1.4c-2-2.9-4.9-4.8-8.4-5.6
						C226.9,149.5,226.3,151.4,227.6,151.7L227.6,151.7z"/>
				</g>
			</g>
			<g>
				<g>
					<linearGradient id="SVGID_14_" gradientUnits="userSpaceOnUse" x1="225.027" y1="156.7927" x2="236.4138" y2="156.7927">
						<stop  offset="0" style="stop-color:#FAE8DC"/>
						<stop  offset="1" style="stop-color:#FAB9AB;stop-opacity:0.9697"/>
					</linearGradient>
					<path class="st18" d="M225.7,154.6c3.7,0.9,6.7,2.9,9,6c0.8,1.1,2.3-0.3,1.5-1.4c-2.4-3.4-5.8-5.7-9.9-6.6
						C225.1,152.4,224.5,154.3,225.7,154.6L225.7,154.6z"/>
				</g>
			</g>
			<g>
				<g>
					<linearGradient id="SVGID_15_" gradientUnits="userSpaceOnUse" x1="221.785" y1="158.7332" x2="233.1726" y2="158.7332">
						<stop  offset="0" style="stop-color:#FAE8DC"/>
						<stop  offset="1" style="stop-color:#FAB9AB;stop-opacity:0.9697"/>
					</linearGradient>
					<path class="st19" d="M222.5,156.5c3.7,0.9,6.7,2.9,9,6c0.8,1.1,2.3-0.3,1.5-1.4c-2.4-3.4-5.8-5.7-9.9-6.6
						C221.8,154.3,221.2,156.2,222.5,156.5L222.5,156.5z"/>
				</g>
			</g>
			<g>
				<g>
					<linearGradient id="SVGID_16_" gradientUnits="userSpaceOnUse" x1="217.901" y1="159.7072" x2="227.8112" y2="159.7072">
						<stop  offset="0" style="stop-color:#FAE8DC"/>
						<stop  offset="1" style="stop-color:#FAB9AB;stop-opacity:0.9697"/>
					</linearGradient>
					<path class="st20" d="M218.5,156.7c3.4,1.5,5.9,4.2,7.4,7.5c0.5,1.2,2.3,0.3,1.8-0.9c-1.7-3.9-4.7-6.8-8.6-8.6
						C218,154.2,217.4,156.1,218.5,156.7L218.5,156.7z"/>
				</g>
			</g>
		</g>
		<linearGradient id="SVGID_17_" gradientUnits="userSpaceOnUse" x1="141.465" y1="116.5301" x2="218.927" y2="116.5301">
			<stop  offset="0" style="stop-color:#FAE8DC"/>
			<stop  offset="1" style="stop-color:#FAB9AB;stop-opacity:0.9697"/>
		</linearGradient>
		<path class="st21" d="M218.9,144.4l-47.3-6.9l-10.8-46.4c-1.4-6.6-7.5-12.4-13.8-9.9l0,0c-5.5,2.2-6.5,9.2-4.6,14.7l16.7,55.8
			c0.6,2.3,56.5-1.3,56.5-1.3L218.9,144.4z"/>
	</g>
	<g>
		<path class="st22" d="M237,165h48.3l7.2-29.6c0.7-2.7-1.4-5.3-4.2-5.3h-39.4c-2,0-3.7,1.4-4.2,3.3L237,165z"/>
		<path class="st23" d="M293.9,131.8c0.7,1,1,2.3,0.7,3.6l-7.2,29.6h-26.7L293.9,131.8z"/>
		<path class="st24" d="M217.1,165h41.7l-2.4,2.4h-41.7C214.7,166,215.8,165,217.1,165z"/>
		<path class="st25" d="M287.4,165c0,1.3-1.1,2.4-2.4,2.4h-28.6l2.4-2.4H287.4z"/>
		<path class="st22" d="M214.7,167.4h21.9c1.3,0,2.4-1.1,2.4-2.4h-21.9C215.8,165,214.7,166,214.7,167.4z"/>
		<g>
			<path class="st26" d="M239,165l7.7-31.7c0.5-1.9,2.2-3.3,4.2-3.3h39.4c1.5,0,2.7,0.7,3.5,1.8L260.7,165H239z"/>
			<path class="st27" d="M271.9,148.9c-0.1,1.5-1.3,2.7-2.7,2.7c-1.4,0-2.4-1.2-2.3-2.7c0.1-1.5,1.3-2.7,2.7-2.7
				C271,146.2,272,147.4,271.9,148.9z"/>
		</g>
	</g>
	<g>
		<path class="st28" d="M305.7,130.8v13.7c0,0.3,0.3,0.6,0.6,0.6c0.3,0,0.6-0.3,0.6-0.6v-6.9c0-1.2,0.9-2.1,2.1-2.1l0,0
			c1.2,0,2.1,0.9,2.1,2.1v7c0,2.6-2.1,4.6-4.6,4.6h-0.1c-0.3,0-0.6,0.3-0.6,0.6v6.1c0,0.3-0.3,0.6-0.6,0.6h-0.9v-27.8
			C305.1,129.1,305.7,129.9,305.7,130.8z"/>
		<path class="st29" d="M298.2,135.6L298.2,135.6c1.2,0,2.1,0.9,2.1,2.1v10c0,0.3,0.3,0.6,0.6,0.6c0.3,0,0.6-0.3,0.6-0.6v-1v-1.5
			v-14.3c0-1.2,0.9-2.1,2.1-2.1l0,0c0.2,0,0.4,0,0.6,0.1v27.8h-2.1c-0.3,0-0.6-0.3-0.6-0.6v-3c0-0.3-0.3-0.6-0.6-0.6h-0.2
			c-2.5,0-4.6-2-4.6-4.6v-10.2C296.2,136.5,297.1,135.6,298.2,135.6z"/>
		<path class="st30" d="M294.1,161.3v-7.5h18.1v1l-12.6,12.6C296.5,167.1,294.1,164.5,294.1,161.3z"/>
		<path class="st11" d="M312.2,154.8v6.5c0,3.4-2.7,6.1-6.1,6.1h-5.9c-0.2,0-0.4,0-0.6,0L312.2,154.8z"/>
	</g>
	<g>
		<path class="st31" d="M208,165.6c0.9,0,1.7,0.8,1.7,1.7h-9.1l1.7-1.7H208z"/>
		<path class="st26" d="M192.6,165.6h9.7l-1.7,1.7h-9.7C190.9,166.4,191.6,165.6,192.6,165.6z"/>
	</g>
	<polygon class="st11" points="227.8,332 219.9,324.9 211.6,322.9 206.6,330.6 236.4,340.5 235.5,337.3 	"/>
</g>
</svg>
